<?xml version="1.0" encoding="utf-8"?>
<!-- Generator: Adobe Illustrator 16.0.0, SVG Export Plug-In . SVG Version: 6.00 Build 0)  -->
<!DOCTYPE svg PUBLIC "-//W3C//DTD SVG 1.1//EN" "http://www.w3.org/Graphics/SVG/1.1/DTD/svg11.dtd">
<svg version="1.1" id="圖層_1" xmlns="http://www.w3.org/2000/svg" xmlns:xlink="http://www.w3.org/1999/xlink" x="0px" y="0px"
	 width="110px" height="110px" viewBox="0 0 110 110" enable-background="new 0 0 110 110" xml:space="preserve">
<path fill-rule="evenodd" clip-rule="evenodd" fill="#103771" d="M107.515,52.47c0,1.979,0,3.958,0,5.936
	c-0.038,0.081-0.101,0.157-0.11,0.241c-0.158,1.486-0.282,2.976-0.467,4.458c-0.422,3.384-1.309,6.661-2.421,9.875
	c-0.982,2.841-2.284,5.545-3.744,8.168c-1.872,3.361-4.091,6.495-6.702,9.313c-1.815,1.958-3.79,3.785-5.808,5.536
	c-2.512,2.179-5.3,3.999-8.23,5.565c-3,1.604-6.117,2.962-9.388,3.937c-2.481,0.739-4.983,1.378-7.556,1.709
	c-1.021,0.131-2.039,0.284-3.057,0.427c-3.22,0-6.44,0-9.66,0c-0.049-0.026-0.095-0.068-0.148-0.075
	c-1.667-0.24-3.342-0.439-5.002-0.72c-4.169-0.702-8.14-2.057-11.966-3.824c-3.471-1.604-6.748-3.555-9.77-5.909
	c-2.444-1.904-4.828-3.884-6.825-6.268c-1.662-1.985-3.318-3.986-4.82-6.092c-2.091-2.932-3.742-6.124-5.091-9.469
	c-1.317-3.27-2.33-6.62-2.983-10.092c-0.509-2.708-0.809-5.426-0.886-8.175c-0.006-0.196-0.072-0.389-0.111-0.583
	c0-0.66,0-1.32,0-1.979c0.039-0.145,0.102-0.288,0.111-0.434c0.044-0.73,0.042-1.466,0.115-2.193
	c0.179-1.773,0.329-3.553,0.603-5.312c0.47-3.02,1.211-5.987,2.328-8.831c0.917-2.335,1.971-4.622,3.062-6.883
	c1.34-2.778,3.099-5.308,4.989-7.732c1.091-1.398,2.29-2.723,3.537-3.985c1.49-1.509,2.999-3.023,4.655-4.342
	c1.902-1.515,3.946-2.861,5.98-4.201c3.044-2.004,6.364-3.471,9.79-4.675c2.459-0.865,4.981-1.521,7.557-1.993
	c2.634-0.483,5.276-0.791,7.95-0.865c0.179-0.005,0.356-0.072,0.534-0.111c0.776,0,1.551,0,2.328,0
	c0.061,0.038,0.122,0.102,0.185,0.106c1.153,0.076,2.313,0.092,3.458,0.226c1.923,0.225,3.86,0.413,5.748,0.82
	c2.133,0.458,4.229,1.104,6.321,1.735c3.811,1.15,7.342,2.933,10.707,5.019c3.167,1.963,6.152,4.2,8.753,6.885
	c1.763,1.821,3.473,3.7,5.089,5.649c1.084,1.308,1.992,2.766,2.926,4.191c1.561,2.379,2.852,4.912,3.946,7.532
	c1.146,2.743,2.075,5.562,2.722,8.475c0.528,2.379,0.956,4.767,1.138,7.198C107.343,51.311,107.441,51.889,107.515,52.47z
	 M57.01,100.286c13.183-0.945,23.547-5.793,31.767-14.844c8.625-9.497,12.474-20.836,11.573-33.606
	c-0.861-12.19-5.96-22.468-15.143-30.574c-9.422-8.316-20.538-12.037-33.031-11.206c-12.458,0.829-22.916,6.058-31.102,15.498
	c-8.238,9.5-11.817,20.667-10.85,33.18c0.943,12.184,6.142,22.385,15.321,30.41C34.798,97.236,45.723,100.747,57.01,100.286z"/>
<path fill-rule="evenodd" clip-rule="evenodd" fill="#103771" d="M86.441,34.298c0,0.262,0,0.47,0,0.678
	c-0.001,11.676,0.006,23.351-0.011,35.026c-0.001,1.38-0.663,2.565-1.479,3.619c-0.836,1.081-1.842,2.024-3.1,2.612
	c-1.496,0.7-3.019,1.342-4.531,2.008c-2.159,0.95-4.317,1.902-6.478,2.85c-2.651,1.162-5.307,2.316-7.957,3.483
	c-1.281,0.563-2.559,1.137-3.826,1.735c-0.161,0.076-0.317,0.317-0.339,0.499c-0.05,0.421-0.05,0.854-0.01,1.278
	c0.1,1.062-0.896,1.809-1.809,1.85c-1.143,0.051-2.289,0.036-3.432,0.005c-1.048-0.029-1.961-0.881-1.854-1.961
	c0.12-1.223-0.32-1.79-1.429-2.23c-2.392-0.949-4.726-2.042-7.083-3.078c-1.848-0.812-3.696-1.625-5.543-2.438
	c-2.373-1.043-4.739-2.099-7.119-3.125c-1.667-0.718-3.292-1.485-4.538-2.871c-1.32-1.471-2.071-3.16-2.061-5.158
	c0.037-6.801,0.096-13.602,0.103-20.403c0.003-4.551-0.066-9.103-0.103-13.653c-0.001-0.212,0-0.424,0-0.729c0.25,0,0.471,0,0.693,0
	c6.517,0,13.033-0.005,19.55,0.012c0.507,0.001,0.849-0.156,1.202-0.513c3.188-3.241,6.395-6.463,9.598-9.689
	c0.094-0.095,0.2-0.178,0.347-0.307c1.724,1.773,3.426,3.544,5.15,5.293c1.66,1.685,3.337,3.353,5.027,5.007
	c0.148,0.146,0.45,0.191,0.681,0.191c6.575,0.009,13.149,0.007,19.724,0.007C86.004,34.298,86.194,34.298,86.441,34.298z
	 M37.791,41.348c-2.299,0-4.531,0-6.821,0c0,0.256,0,0.466,0,0.676c0,7.911,0.014,15.822-0.013,23.732
	c-0.005,1.313,0.083,2.574,0.716,3.751c0.527,0.979,1.111,1.909,2.183,2.375c2.531,1.104,5.062,2.206,7.604,3.283
	c2.826,1.199,5.665,2.371,8.499,3.552c0.543,0.226,1.092,0.436,1.694,0.677c0-2.259,0.008-4.429-0.017-6.599
	c-0.001-0.164-0.208-0.411-0.375-0.475c-1.522-0.579-3.058-1.123-4.587-1.685c-2.198-0.809-4.384-1.652-6.594-2.426
	c-1.079-0.378-2.335-1.802-2.323-3.188c0.07-7.677,0.034-15.356,0.034-23.034C37.791,41.795,37.791,41.601,37.791,41.348z
	 M72.495,41.319c0,0.261,0,0.469,0,0.678c0,7.776,0,15.552,0,23.328c0,1.133-1.079,2.506-2.144,2.866
	c-1.543,0.519-3.064,1.108-4.593,1.668c-1.529,0.561-3.058,1.123-4.586,1.688c-0.821,0.303-1.64,0.612-2.416,0.902
	c0,2.333,0,4.604,0,6.935c0.523-0.221,0.981-0.414,1.439-0.607c2.506-1.061,5.013-2.124,7.52-3.183
	c2.792-1.178,5.59-2.339,8.375-3.53c2.21-0.944,3.204-2.859,3.232-5.047c0.109-8.317,0.044-16.637,0.044-24.957
	c0-0.242,0-0.484,0-0.741C77.05,41.319,74.823,41.319,72.495,41.319z M51.625,31.012c-2.26,2.258-4.434,4.422-6.589,6.604
	c-0.151,0.152-0.235,0.439-0.235,0.663c-0.012,8.219-0.007,16.439-0.017,24.659c0,0.607,0.262,0.914,0.834,1.045
	c0.948,0.217,1.889,0.463,2.834,0.695c1.051,0.259,2.102,0.515,3.171,0.778C51.625,53.98,51.625,42.553,51.625,31.012z M58.739,65.4
	c0.121-0.006,0.2,0,0.272-0.018c1.95-0.473,3.902-0.937,5.846-1.433c0.437-0.112,0.653-0.396,0.651-0.934
	c-0.023-8.241-0.018-16.481-0.008-24.723c0-0.372-0.086-0.645-0.363-0.913c-1.084-1.053-2.147-2.128-3.209-3.204
	c-1.027-1.041-2.044-2.092-3.065-3.139c-0.042,0.03-0.083,0.059-0.125,0.089C58.739,42.533,58.739,53.941,58.739,65.4z"/>
</svg>
