<?xml version="1.0" encoding="utf-8"?>
<!-- Generator: Adobe Illustrator 16.0.0, SVG Export Plug-In . SVG Version: 6.00 Build 0)  -->
<!DOCTYPE svg PUBLIC "-//W3C//DTD SVG 1.1//EN" "http://www.w3.org/Graphics/SVG/1.1/DTD/svg11.dtd">
<svg version="1.1" id="圖層_1" xmlns="http://www.w3.org/2000/svg" xmlns:xlink="http://www.w3.org/1999/xlink" x="0px" y="0px"
	 width="110px" height="110px" viewBox="0 0 110 110" enable-background="new 0 0 110 110" xml:space="preserve">
<g>
	<path fill="none" d="M5.719,40.468h98.948v29.685H5.719V40.468z"/>
	<path fill="#323237" d="M102.144,47.117c-1.615-1.617-3.807-2.525-6.092-2.524c-2.286-0.002-4.479,0.906-6.094,2.523
		c-1.616,1.615-2.524,3.807-2.522,6.092c0,2.375,0.967,4.537,2.522,6.092c1.615,1.619,3.808,2.526,6.094,2.524
		c2.285,0.002,4.477-0.906,6.092-2.524c1.618-1.614,2.526-3.807,2.523-6.092C104.67,50.923,103.762,48.73,102.144,47.117
		 M100.17,57.327c-1.09,1.095-2.573,1.709-4.118,1.708c-1.546,0.002-3.03-0.612-4.121-1.707c-1.095-1.091-1.708-2.573-1.706-4.119
		c0-1.614,0.65-3.061,1.706-4.12c1.091-1.094,2.574-1.708,4.121-1.705c1.612,0,3.06,0.649,4.118,1.705
		c1.095,1.092,1.709,2.574,1.707,4.12C101.88,54.754,101.266,56.238,100.17,57.327L100.17,57.327z M89.812,43.869
		c0.171-0.108,0.157-0.259,0.1-0.371l-1.221-1.92c-0.102-0.163-0.249-0.131-0.35-0.082c-1.82,1.122-6.319,5.002-6.319,11.71v7.917
		c0.013,0.125,0.081,0.259,0.277,0.263h2.238c0.192-0.004,0.262-0.134,0.275-0.257v-7.922c0-5.776,4.077-8.753,5-9.34V43.869z
		 M77.364,47.117c-1.615-1.617-3.807-2.525-6.092-2.523c-2.286-0.002-4.479,0.906-6.094,2.523c-1.617,1.615-2.525,3.806-2.523,6.092
		c-0.002,2.286,0.906,4.479,2.523,6.093c1.615,1.618,3.808,2.526,6.094,2.523c2.375,0,4.538-0.966,6.091-2.523
		c1.618-1.614,2.526-3.807,2.524-6.093C79.887,50.835,78.921,48.672,77.364,47.117z M75.391,57.328
		c-1.091,1.096-2.574,1.71-4.119,1.708c-1.546,0.003-3.028-0.611-4.12-1.706c-1.095-1.091-1.708-2.575-1.706-4.121
		c-0.003-1.545,0.611-3.028,1.706-4.119c1.091-1.094,2.574-1.708,4.12-1.706c1.613,0,3.061,0.65,4.119,1.706
		c1.094,1.092,1.708,2.574,1.706,4.119c0.004,1.546-0.61,3.03-1.706,4.121V57.328z M58.338,47.117
		c-1.614-1.617-3.807-2.525-6.092-2.523c-2.286-0.001-4.478,0.906-6.093,2.523c-1.617,1.615-2.525,3.807-2.523,6.092
		c0,2.375,0.968,4.538,2.523,6.093c1.615,1.618,3.807,2.526,6.093,2.523c2.227,0,4.268-0.851,5.796-2.24v0.81
		c0.002,1.545-0.612,3.028-1.707,4.119c-1.091,1.096-2.574,1.709-4.119,1.707c-1.459,0.003-2.864-0.544-3.937-1.533
		c-0.089-0.068-0.211-0.111-0.335-0.021l-1.642,1.642c-0.104,0.124-0.075,0.248-0.01,0.339c1.598,1.519,3.718,2.365,5.923,2.364
		c2.285,0.002,4.477-0.905,6.092-2.523c1.618-1.614,2.526-3.808,2.523-6.093l0.03-7.186C60.864,50.923,59.956,48.731,58.338,47.117
		L58.338,47.117z M58.07,53.209l-0.028,0.593c-0.134,1.334-0.727,2.581-1.676,3.527c-1.091,1.095-2.574,1.709-4.12,1.706
		c-1.546,0.002-3.028-0.611-4.119-1.706c-1.095-1.091-1.708-2.575-1.706-4.121c-0.003-1.545,0.611-3.028,1.706-4.119
		c1.091-1.094,2.573-1.708,4.119-1.706c1.612,0,3.062,0.65,4.12,1.706c1.095,1.092,1.709,2.574,1.706,4.119H58.07z M39.356,47.117
		c-1.615-1.617-3.808-2.525-6.093-2.523c-2.375,0-4.537,0.966-6.091,2.523c-1.618,1.614-2.526,3.806-2.523,6.092
		c-0.003,2.286,0.905,4.479,2.523,6.093c1.614,1.618,3.806,2.526,6.091,2.523c2.374,0,4.538-0.966,6.093-2.523
		c1.617-1.614,2.525-3.807,2.523-6.093C41.879,50.835,40.912,48.672,39.356,47.117z M37.383,57.328
		c-1.091,1.096-2.574,1.711-4.12,1.708c-1.545,0.003-3.028-0.611-4.119-1.706c-1.095-1.091-1.709-2.575-1.706-4.121
		c0-1.612,0.649-3.06,1.706-4.119c1.091-1.094,2.574-1.708,4.119-1.706c1.613,0,3.062,0.65,4.12,1.706
		c1.095,1.092,1.709,2.574,1.706,4.119c0,1.613-0.649,3.061-1.706,4.121V57.328z M20.427,47.117
		c-1.615-1.617-3.807-2.525-6.092-2.523c-2.286-0.001-4.478,0.906-6.092,2.523c-1.617,1.615-2.524,3.806-2.523,6.091
		c0,2.375,0.968,4.537,2.523,6.092c1.615,1.618,3.807,2.526,6.092,2.524c2.228,0,4.269-0.851,5.796-2.24v0.81
		c0.002,1.545-0.612,3.027-1.707,4.118c-1.091,1.095-2.574,1.709-4.12,1.707c-1.458,0.002-2.864-0.545-3.936-1.533
		c-0.089-0.068-0.212-0.111-0.335-0.021l-1.643,1.642c-0.104,0.125-0.075,0.248-0.01,0.339c1.599,1.519,3.72,2.365,5.924,2.364
		c2.285,0.001,4.477-0.906,6.092-2.523c1.618-1.615,2.526-3.808,2.523-6.093l0.03-7.186C22.953,50.923,22.045,48.73,20.427,47.117
		L20.427,47.117z M20.159,53.209l-0.027,0.593c-0.135,1.334-0.727,2.581-1.676,3.527c-1.091,1.095-2.574,1.709-4.12,1.706
		c-1.545,0.002-3.027-0.611-4.118-1.706c-1.096-1.091-1.709-2.575-1.707-4.121c-0.003-1.545,0.611-3.028,1.707-4.119
		c1.09-1.094,2.573-1.708,4.118-1.706c1.613,0,3.061,0.65,4.12,1.706c1.094,1.092,1.708,2.574,1.706,4.119H20.159z"/>
</g>
</svg>
