<?xml version="1.0" encoding="utf-8"?>
<!-- Generator: Adobe Illustrator 16.0.0, SVG Export Plug-In . SVG Version: 6.00 Build 0)  -->
<!DOCTYPE svg PUBLIC "-//W3C//DTD SVG 1.1//EN" "http://www.w3.org/Graphics/SVG/1.1/DTD/svg11.dtd">
<svg version="1.1" id="圖層_1" xmlns="http://www.w3.org/2000/svg" xmlns:xlink="http://www.w3.org/1999/xlink" x="0px" y="0px"
	 width="110px" height="110px" viewBox="0 0 110 110" enable-background="new 0 0 110 110" xml:space="preserve">
<g>
	<path fill-rule="evenodd" clip-rule="evenodd" fill="#20448E" d="M70.655,42.489c-1.971,1.745-3.92,3.471-5.901,5.225
		c-0.197-0.28-0.37-0.537-0.555-0.785c-1.4-1.868-3.257-2.92-5.582-3.166c-2.215-0.234-4.23,0.227-5.946,1.692
		c-1.419,1.213-2.226,2.808-2.624,4.6c-0.686,3.096-0.617,6.16,0.69,9.098c1.075,2.414,2.834,4.111,5.5,4.624
		c1.911,0.368,3.793,0.193,5.551-0.741c0.121-0.064,0.232-0.146,0.349-0.218c0.49-0.307,0.73-0.708,0.688-1.328
		c-0.058-0.847-0.028-1.701-0.007-2.551c0.008-0.335-0.116-0.423-0.43-0.421c-1.976,0.01-3.953,0.005-5.929,0.004
		c-0.585,0-0.585-0.002-0.585-0.581c0-2.196,0.008-4.392-0.008-6.588c-0.002-0.377,0.111-0.493,0.488-0.492
		c4.735,0.011,9.471,0.006,14.206,0.009c0.188,0,0.377,0.039,0.603,0.063c0,0.175,0,0.323,0,0.471c0,4.722,0.004,9.443-0.011,14.164
		c0,0.262-0.104,0.572-0.265,0.777c-1.55,1.971-3.596,3.222-5.939,4.028c-3.02,1.039-6.131,1.228-9.289,1.007
		c-2.356-0.165-4.627-0.675-6.784-1.654c-4.097-1.859-6.834-4.952-8.299-9.187c-0.59-1.705-0.893-3.464-1.015-5.264
		c-0.218-3.232,0.135-6.381,1.408-9.378c2.218-5.22,6.141-8.443,11.688-9.544c4.256-0.845,8.46-0.485,12.492,1.211
		c2.229,0.938,4.07,2.37,5.29,4.51C70.504,42.194,70.564,42.317,70.655,42.489z"/>
	<path fill-rule="evenodd" clip-rule="evenodd" fill="#20448E" d="M38.687,70.474c-0.202,0-0.336,0-0.472,0
		c-2.964,0-5.929-0.005-8.893,0.007c-0.358,0.002-0.522-0.094-0.637-0.452c-0.661-2.06-1.36-4.107-2.029-6.164
		c-0.103-0.315-0.25-0.418-0.582-0.417c-3.417,0.013-6.835,0.013-10.252,0c-0.336-0.001-0.482,0.109-0.584,0.418
		c-0.681,2.053-1.385,4.097-2.063,6.151c-0.112,0.338-0.266,0.468-0.635,0.466c-2.91-0.016-5.819-0.009-8.729-0.01
		c-0.135,0-0.27-0.011-0.463-0.02c0.151-0.462,0.284-0.887,0.427-1.308c3.614-10.596,7.232-21.19,10.837-31.789
		c0.12-0.353,0.286-0.449,0.642-0.447c3.842,0.012,7.685,0.013,11.528-0.001c0.362-0.001,0.526,0.107,0.643,0.454
		C31.12,48.22,34.824,59.074,38.525,69.93C38.577,70.083,38.618,70.241,38.687,70.474z M17.932,55.703c2.04,0,4.009,0,6.031,0
		c-0.065-0.217-0.113-0.372-0.159-0.525c-0.767-2.583-1.541-5.164-2.295-7.751c-0.145-0.497-0.209-1.017-0.327-1.523
		c-0.024-0.106-0.118-0.195-0.18-0.292c-0.064,0.09-0.132,0.177-0.193,0.271c-0.021,0.033-0.027,0.076-0.038,0.116
		c-0.558,2.086-1.091,4.18-1.684,6.257C18.761,53.397,18.335,54.51,17.932,55.703z"/>
	<path fill-rule="evenodd" clip-rule="evenodd" fill="#20448E" d="M100.839,47.83c-1.456-2.248-3.525-3.513-6.132-3.668
		c-2.869-0.171-5.179,1.001-6.73,3.479c-0.914,1.458-1.297,3.084-1.437,4.79c-0.159,1.954,0.009,3.862,0.677,5.706
		c0.938,2.593,2.697,4.309,5.431,4.943c3.547,0.823,7.164-1.367,8.444-3.71c0.038-0.07,0.087-0.134,0.157-0.241
		c0.611,0.581,1.206,1.144,1.797,1.709c1.22,1.166,2.429,2.344,3.664,3.494c0.26,0.241,0.256,0.41,0.086,0.686
		c-1.479,2.406-3.605,4.025-6.179,5.096c-2.896,1.204-5.917,1.52-9.023,1.27c-2.559-0.206-4.991-0.85-7.243-2.088
		c-4.088-2.249-6.591-5.727-7.783-10.192c-0.567-2.122-0.756-4.29-0.654-6.476c0.19-4.044,1.314-7.768,3.978-10.912
		c2.503-2.955,5.74-4.64,9.503-5.386c1.868-0.37,3.758-0.461,5.648-0.317c3.431,0.261,6.613,1.241,9.321,3.462
		c0.964,0.791,1.758,1.73,2.341,2.84c0.104,0.199,0.157,0.353-0.055,0.535c-1.915,1.644-3.822,3.298-5.732,4.948
		C100.9,47.815,100.87,47.819,100.839,47.83z"/>
	<path fill-rule="evenodd" clip-rule="evenodd" fill="#CE275E" d="M70.559,50.871c-4.735-0.003-9.47,0.001-14.206-0.009
		c-0.376-0.001-0.49,0.115-0.488,0.492c0.016,2.196,0.008,4.392,0.008,6.588c0,0.363,0,0.499,0.145,0.55l14.951-7.583
		C70.826,50.89,70.689,50.871,70.559,50.871z"/>
</g>
</svg>
