<?xml version="1.0" encoding="utf-8"?>
<!-- Generator: Adobe Illustrator 16.0.0, SVG Export Plug-In . SVG Version: 6.00 Build 0)  -->
<!DOCTYPE svg PUBLIC "-//W3C//DTD SVG 1.1//EN" "http://www.w3.org/Graphics/SVG/1.1/DTD/svg11.dtd">
<svg version="1.1" id="圖層_1" xmlns="http://www.w3.org/2000/svg" xmlns:xlink="http://www.w3.org/1999/xlink" x="0px" y="0px"
	 width="110px" height="110px" viewBox="0 0 110 110" enable-background="new 0 0 110 110" xml:space="preserve">
<g id="surface1_1_">
	<path fill="#0A4994" d="M47.059,71.616l7.043,7.056l1.563,1.564l1.568-1.564l6.958-7.056v-6.834h6.91l0.437-0.437l6.002-5.962
		l2.174-2.175l-0.306-0.309l-1.958-1.957l-5.96-5.964l-0.389-0.394h-6.91v-6.928l-8.526-8.575l-8.607,8.575v6.928h-6.869
		l-0.395,0.394l-5.955,5.964l-1.956,1.957l-0.303,0.309l2.167,2.175l6.004,5.962l0.437,0.437h6.869V71.616z M53.059,43.182
		l2.606-2.605l2.567,2.605v4.401h-5.174V43.182z M53.059,58.382V53.59h5.174v5.133h-5.174V58.382z M70.926,55.898l0.307,0.309
		l-2.263,2.175l-0.347,0.341h-4.432V53.59h4.432l0.347,0.351L70.926,55.898z M40.057,56.207l0.312-0.309l1.95-1.957l0.345-0.351
		h4.396v5.133h-4.396l-0.345-0.341L40.057,56.207z M53.059,64.782h5.174v4.353l-2.567,2.614l-2.606-2.614V64.782z"/>
	<path fill="#0A4994" d="M107.184,58.225c-11.305,0.067-21.252,5.787-27.131,14.516c-5.294,7.836-14.249,12.954-24.405,12.954
		c-10.16,0-19.114-5.117-24.399-12.954c-5.892-8.729-15.839-14.448-27.137-14.516v3.541c10.13,0.06,19.067,5.251,24.31,13.102
		c5.84,8.738,15.934,14.359,27.226,14.359c11.289,0,21.384-5.622,27.221-14.359c5.248-7.851,14.186-13.042,24.316-13.102"/>
	<path fill="#0A4994" d="M107.184,50.666c-10.13-0.067-19.068-5.252-24.316-13.106c-5.836-8.737-15.932-14.352-27.221-14.352
		c-11.292,0-21.386,5.615-27.226,14.352c-5.242,7.854-14.18,13.04-24.31,13.106V54.2c11.297-0.067,21.245-5.781,27.137-14.506
		c5.285-7.845,14.239-12.954,24.399-12.954c10.156,0,19.111,5.109,24.405,12.954c5.879,8.725,15.826,14.439,27.131,14.506"/>
</g>
</svg>
