<?xml version="1.0" encoding="utf-8"?>
<!-- Generator: Adobe Illustrator 16.0.0, SVG Export Plug-In . SVG Version: 6.00 Build 0)  -->
<!DOCTYPE svg PUBLIC "-//W3C//DTD SVG 1.1//EN" "http://www.w3.org/Graphics/SVG/1.1/DTD/svg11.dtd">
<svg version="1.1" id="圖層_1" xmlns="http://www.w3.org/2000/svg" xmlns:xlink="http://www.w3.org/1999/xlink" x="0px" y="0px"
	 width="110px" height="110px" viewBox="0 0 110 110" enable-background="new 0 0 110 110" xml:space="preserve">
<g id="layer1_1_" transform="translate(-1558.05, 890.855)">
	<g id="g7654" transform="translate(17.7165, 17.6477)">
		<path id="path115_1_" fill="#E24820" d="M1571.774-850.291c-0.198,2.192,2.05,3.397,4.063,3.361
			c1.491-0.036,3.325-0.288,3.559-2.247c0.468-3.918-12.241-1.097-12.33-9.257c-0.037-4.332,4.314-6.83,8.538-6.704
			c6.003,0.179,8.43,3.54,8.43,7.351h-4.907c0,0,0.45-2.912-3.613-3.038c-1.527-0.036-3.164,0.576-3.361,1.977
			c-0.503,3.685,12.025,0.953,12.115,9.292c0.036,4.134-3.792,6.938-8.556,6.867c-9.455-0.126-8.897-7.028-8.933-7.604H1571.774"/>
		<path id="path119" fill="#E24820" d="M1641.604-855.288v11.809h5.141l-0.018-21.102h-5.176l-5.284,8.664l-4.961-8.664h-5.446
			v21.083h5.302v-11.449l5.177,8.358L1641.604-855.288"/>
		<path id="path123" fill="#E24820" d="M1617.303-864.581l7.675,21.083h-5.267l-1.24-3.685h-8.304l-1.276,3.685h-5.303l7.693-21.083
			H1617.303z M1614.337-859.26l-2.696,7.657h5.338l-2.643-7.711V-859.26"/>
		<path fill="#E24820" d="M1603.895-857.158c0.233-4.08-2.787-7.405-6.669-7.405h-10.784v21.066h4.925v-6.74h3.2l3.146,6.74h5.41
			l-3.522-7.064C1602.402-851.837,1603.732-854.102,1603.895-857.158z M1596.453-854.444h-5.159v-5.662h5.015
			c1.474,0,2.462,1.312,2.535,2.786C1598.916-856.025,1597.909-854.444,1596.453-854.444z"/>
		<path id="path141" fill="#E24820" d="M1555.202-842.508c6.309,0.035,10.515-4.997,10.371-11.216
			c0.288-6.668-4.278-11.252-10.371-11.234c-5.931,0-10.389,4.655-10.354,11.234
			C1544.776-847.236,1548.983-842.293,1555.202-842.508z M1555.202-860.519c3.721-0.054,5.285,3.343,5.267,6.776
			c-0.216,3.146-1.653,6.614-5.285,6.65c-3.577,0-5.23-3.361-5.284-6.632C1549.953-857.014,1551.481-860.573,1555.202-860.519"/>
	</g>
</g>
</svg>
