<?xml version="1.0" encoding="utf-8"?>
<!-- Generator: Adobe Illustrator 16.0.0, SVG Export Plug-In . SVG Version: 6.00 Build 0)  -->
<!DOCTYPE svg PUBLIC "-//W3C//DTD SVG 1.1//EN" "http://www.w3.org/Graphics/SVG/1.1/DTD/svg11.dtd">
<svg version="1.1" id="圖層_1" xmlns="http://www.w3.org/2000/svg" xmlns:xlink="http://www.w3.org/1999/xlink" x="0px" y="0px"
	 width="110px" height="110px" viewBox="0 0 110 110" enable-background="new 0 0 110 110" xml:space="preserve">
<g>
	<path fill-rule="evenodd" clip-rule="evenodd" fill="#FE0000" d="M4.705,58.617c8.115-4.329,17.158-4.379,25.928-6.763
		c0.058,0.97,0.124,1.592,0.126,2.214c0.028,6.94,0.005,13.88,0.096,20.818c0.019,1.481-0.476,2.188-1.873,2.665
		c-2.851,0.973-5.637,2.137-8.45,3.223c0.041,0.167,0.083,0.335,0.124,0.503c4.816-0.682,9.633-1.363,14.9-2.108
		c-1.333,2.63-2.457,4.848-3.58,7.064c0.103,0.152,0.206,0.306,0.308,0.458c8.244-2.705,16.487-5.411,25.081-8.231
		c0,2.379,0,4.414,0,6.886c2.133-0.625,3.906-1.123,5.659-1.684c0.237-0.076,0.438-0.448,0.534-0.724
		c0.102-0.295,0.06-0.641,0.08-0.964c0.112-1.855-0.422-4.201,0.513-5.43c0.953-1.252,3.343-1.424,5.117-2.034
		c1.576-0.542,3.169-1.033,5.107-1.661c0,2.315,0,4.344,0,6.813c2.217-0.473,4.093-0.807,5.92-1.316
		c0.363-0.101,0.714-0.859,0.765-1.346c0.126-1.221,0.214-2.477,0.07-3.689c-0.266-2.223,0.668-3.386,2.808-3.753
		c0.421-0.072,0.815-0.304,1.167-0.726c-1.164,0.15-2.328,0.3-3.614,0.465c0-5.179,0-10.191,0-15.204
		c0.155-0.077,0.31-0.154,0.466-0.231c0.837,1.085,1.835,2.083,2.48,3.272c1.28,2.359,3.032,3.153,5.587,2.285
		c0.903-0.305,1.87-0.424,3.292-0.734c-4.009-5.73-7.83-11.189-11.954-17.084c8.146-2.521,15.88-4.914,23.869-7.387
		c-0.145,0.544-0.147,0.648-0.179,0.658c-4.065,1.25-4.032,4.065-3.79,7.779c1.234,18.879-8.458,43.221-32.425,53.682
		c-9.691,4.229-19.857,6.149-30.393,4.125c-13.844-2.66-22.062-11.749-26.87-24.428C9.669,71.003,8.93,65.737,9.104,60.375
		c0.056-1.732-0.531-2.195-2.12-1.898C6.241,58.616,5.465,58.575,4.705,58.617z"/>
	<path fill-rule="evenodd" clip-rule="evenodd" fill="#FE0000" d="M99.728,34.298c-6.136,1.104-11.858,2.135-17.837,3.211
		c0-4.968,0-9.723,0-14.759c-2.396,0.597-4.545,1.032-6.612,1.72c-0.47,0.157-0.906,1.182-0.921,1.816
		c-0.083,3.565-0.086,7.135-0.001,10.7c0.034,1.438-0.384,2.069-1.899,2.262c-2.752,0.352-5.472,0.952-8.558,1.513
		c0-4.314,0-8.413,0-12.943c-2.113,0.65-3.854,1.079-5.487,1.763c-0.432,0.181-0.733,1.148-0.75,1.765
		c-0.083,2.981-0.091,5.967-0.033,8.949c0.023,1.219-0.43,1.763-1.629,1.914c-1.58,0.198-3.144,0.528-5.2,0.885
		c1.089-2.034,1.949-3.639,2.808-5.244c-0.097-0.136-0.194-0.273-0.291-0.41c-5.161,1.923-10.321,3.846-15.971,5.951
		c0-4.465,0-8.545,0-12.904c-2.265,0.551-4.105,0.898-5.862,1.497c-0.422,0.144-0.785,1.114-0.795,1.71
		c-0.058,3.565,0.052,7.135-0.04,10.7c-0.017,0.664-0.542,1.693-1.087,1.908c-6.153,2.417-12.355,4.711-18.547,7.029
		c-0.17,0.064-0.376,0.032-1.067,0.078c0.753-2.553,1.252-5.015,2.188-7.299C20.146,26.58,34.814,14.694,54.943,9.26
		c9.398-2.538,18.12-0.05,26.447,4.244c7.592,3.915,13.511,9.56,17.087,17.446C98.922,31.932,99.237,32.973,99.728,34.298z"/>
	<path fill-rule="evenodd" clip-rule="evenodd" fill="#FE0000" d="M57.409,64.462c0,3.032,0.029,6.066-0.035,9.097
		c-0.009,0.406-0.424,1.083-0.762,1.161c-4.578,1.069-9.174,2.054-14.255,3.167c1.198-2.35,2.147-4.21,3.095-6.069
		c-0.102-0.135-0.204-0.27-0.305-0.404c-2.433,0.883-4.867,1.766-7.52,2.729c-0.068-0.828-0.152-1.382-0.155-1.936
		c-0.035-6.606-0.026-13.214-0.108-19.819c-0.018-1.458,0.331-2.296,1.92-2.522c1.5-0.213,2.964-0.689,4.824-1.142
		c-0.77,1.877-1.36,3.321-2.178,5.317c5.443-1.682,10.338-3.195,15.233-4.709c0.121,0.121,0.241,0.242,0.362,0.363
		c-3.528,6.618-7.055,13.235-10.655,19.989c4.728,0.306,8.145-1.244,9.994-5.742C57.047,64.115,57.228,64.288,57.409,64.462z"/>
	<path fill-rule="evenodd" clip-rule="evenodd" fill="#FE0000" d="M74.396,60.311c0,3.204,0.019,6.409-0.027,9.612
		c-0.006,0.368-0.319,0.99-0.596,1.057c-3.248,0.785-6.516,1.487-10.071,2.276c0.133-3.159-0.83-6.079,1.688-8.366
		c0.916-0.833,0.935-1.741,0.222-2.73c-3.158-4.391-1.439-9.4-1.741-14.15c-0.021-0.324,0.399-0.877,0.727-0.989
		c3.105-1.046,6.235-2.02,10.003-3.22c-0.327,2.065-0.279,3.716-0.866,5.096c-1.625,3.812-3.522,7.507-5.297,11.256
		c-1.367,2.885-1.175,3.789,1.539,6.504c1.36-2.196,2.683-4.333,4.007-6.469C74.121,60.229,74.259,60.27,74.396,60.311z"/>
</g>
</svg>
