<?xml version="1.0" encoding="utf-8"?>
<!-- Generator: Adobe Illustrator 16.0.0, SVG Export Plug-In . SVG Version: 6.00 Build 0)  -->
<!DOCTYPE svg PUBLIC "-//W3C//DTD SVG 1.1//EN" "http://www.w3.org/Graphics/SVG/1.1/DTD/svg11.dtd">
<svg version="1.1" id="圖層_1" xmlns="http://www.w3.org/2000/svg" xmlns:xlink="http://www.w3.org/1999/xlink" x="0px" y="0px"
	 width="110px" height="110px" viewBox="0 0 110 110" enable-background="new 0 0 110 110" xml:space="preserve">
<g>
	<circle fill-rule="evenodd" clip-rule="evenodd" fill="#7B1E1F" cx="82.351" cy="23.977" r="7.277"/>
	<circle fill-rule="evenodd" clip-rule="evenodd" fill="#7E8283" cx="38.792" cy="12.222" r="7.124"/>
	<path fill-rule="evenodd" clip-rule="evenodd" fill="#7E8283" d="M58.18,30.134c0,0-3.868-8.244-16.792-8.142
		c-14.654,0.116-26.766,14.197-29.921,18.625c0,0-9.974,14.553-3.358,27.682c6.615,13.129,23.509,7.226,28.699,5.089
		c4.913-2.022,13.943-9.872,16.997-13.128c-7.226,0-22.39,0-22.39,0S34.263,40.719,58.18,30.134z"/>
	<path fill-rule="evenodd" clip-rule="evenodd" fill="#7B1E1F" d="M45.865,54.355h29.107c0,0-2.443,13.841-14.248,24.121
		c-11.806,10.279-24.833,14.655-27.071,14.96c4.071,7.226,19.303,17.946,39.759,7.26c10.076-5.394,23.848-16.521,27.512-31.99
		c3.664-15.469,1.017-29.209-15.979-33.483C71.715,32.373,55.941,39.396,45.865,54.355z"/>
</g>
</svg>
