<?xml version="1.0" encoding="utf-8"?>
<!-- Generator: Adobe Illustrator 16.0.0, SVG Export Plug-In . SVG Version: 6.00 Build 0)  -->
<!DOCTYPE svg PUBLIC "-//W3C//DTD SVG 1.1//EN" "http://www.w3.org/Graphics/SVG/1.1/DTD/svg11.dtd">
<svg version="1.1" id="圖層_1" xmlns="http://www.w3.org/2000/svg" xmlns:xlink="http://www.w3.org/1999/xlink" x="0px" y="0px"
	 width="110px" height="110px" viewBox="0 0 110 110" enable-background="new 0 0 110 110" xml:space="preserve">
<g>
	<path fill-rule="evenodd" clip-rule="evenodd" fill="#CA252B" d="M54.784,81.095c-4.953-2.333-9.891-4.698-14.86-6.996
		C27.543,68.376,15.148,62.684,2.761,56.976c-0.327-0.15-0.637-0.337-1.213-0.646c3.462-1.528,6.693-2.959,9.928-4.383
		c13.847-6.09,27.695-12.175,41.538-18.272c0.614-0.271,1.182-0.648,1.771-0.975c0.107,0,0.214,0,0.32,0
		c6.048,2.77,12.087,5.56,18.147,8.304c11.211,5.077,22.434,10.126,33.65,15.19c0.284,0.128,0.549,0.297,1.075,0.585
		c-0.9,0.437-1.624,0.807-2.362,1.144c-16.383,7.469-32.767,14.934-49.148,22.406c-0.472,0.215-0.908,0.509-1.361,0.766
		C54.998,81.095,54.891,81.095,54.784,81.095z M102.495,56.809c-0.822-0.409-1.282-0.656-1.757-0.87
		c-14.662-6.625-29.333-13.228-43.974-19.897c-1.227-0.559-2.198-0.577-3.417-0.037C38.586,42.537,23.804,49.019,9.029,55.52
		c-0.552,0.243-1.077,0.545-1.811,0.918c0.613,0.31,0.977,0.509,1.353,0.683c15.046,6.939,30.099,13.866,45.131,20.834
		c0.925,0.429,1.651,0.369,2.533-0.036c9.345-4.288,18.705-8.545,28.061-12.811C90.254,62.392,96.212,59.675,102.495,56.809z"/>
	<path fill-rule="evenodd" clip-rule="evenodd" fill="#CA252B" d="M67.725,46.864c3.458,0,6.771-0.113,10.072,0.03
		c3.536,0.153,5.648,2.506,5.714,6.036c0.066,3.489-2.186,6.068-5.676,6.309c-1.957,0.135-3.931,0.024-6.074,0.024
		c0,2.662,0,5.087,0,7.647c-1.424,0-2.67,0-4.036,0C67.725,60.285,67.725,53.645,67.725,46.864z M71.771,56.218
		c1.92-0.147,3.724-0.149,5.47-0.464c1.335-0.241,2.003-1.309,2.002-2.708c-0.001-1.417-0.738-2.444-2.052-2.671
		c-1.747-0.301-3.55-0.274-5.42-0.394C71.771,52.126,71.771,53.972,71.771,56.218z"/>
	<path fill-rule="evenodd" clip-rule="evenodd" fill="#CA252B" d="M64.431,52.077c-0.217,0.125-0.386,0.279-0.58,0.326
		c-1.08,0.264-2.165,0.501-3.223,0.742c-1.485-2.766-3.072-3.703-5.464-3.283c-2.549,0.448-3.969,1.956-4.26,5.033
		c-0.168,1.772-0.092,3.631,0.256,5.374c0.473,2.359,2.309,3.727,4.526,3.828c2.099,0.095,3.665-1.021,4.6-3.275
		c0.121-0.292,0.252-0.58,0.445-1.019c1.255,0.367,2.502,0.731,3.735,1.091c-0.733,3.64-3.356,6.009-6.788,6.424
		c-7.887,0.952-11.945-4.852-11.092-12.065c0.908-7.678,7.208-9.945,12.858-8.354C62.021,47.622,63.744,49.366,64.431,52.077z"/>
	<path fill-rule="evenodd" clip-rule="evenodd" fill="#CA252B" d="M40.464,59.802c1.26,0.379,2.503,0.752,3.736,1.123
		c-1.035,4.083-3.63,6.212-7.679,6.447c-4.567,0.267-8.152-1.795-9.544-5.697c-1.187-3.327-1.133-6.717,0.268-9.988
		c1.597-3.728,5.085-5.511,9.881-5.197c3.457,0.228,5.939,2.207,7.034,5.721c-1.277,0.323-2.548,0.643-3.801,0.959
		c-1.667-2.984-3.386-3.896-6.046-3.201c-2.544,0.665-3.579,2.604-3.802,4.973c-0.147,1.571-0.069,3.205,0.195,4.762
		c0.456,2.688,2.156,4.207,4.55,4.384c2.229,0.166,3.823-1.02,4.846-3.597C40.179,60.302,40.294,60.125,40.464,59.802z"/>
</g>
</svg>
