<?xml version="1.0" encoding="utf-8"?>
<!-- Generator: Adobe Illustrator 16.0.0, SVG Export Plug-In . SVG Version: 6.00 Build 0)  -->
<!DOCTYPE svg PUBLIC "-//W3C//DTD SVG 1.1//EN" "http://www.w3.org/Graphics/SVG/1.1/DTD/svg11.dtd">
<svg version="1.1" id="圖層_1" xmlns="http://www.w3.org/2000/svg" xmlns:xlink="http://www.w3.org/1999/xlink" x="0px" y="0px"
	 width="110px" height="110px" viewBox="0 0 110 110" enable-background="new 0 0 110 110" xml:space="preserve">
<g id="surface1_2_">
	<path fill="#221714" d="M35.858,90.335c-0.104-0.311-0.336-0.553-0.631-0.68c-0.139-0.06-0.469-0.093-0.629-0.093h-1.101
		c-0.161,0-0.491,0.033-0.629,0.093c-0.294,0.126-0.529,0.369-0.635,0.68c-0.018,0.053-0.034,0.115-0.042,0.178
		c-0.025,0.122-0.033,0.251-0.033,0.373v0.004c0,0.127,0.008,0.261,0.033,0.382c0.062,0.396,0.327,0.709,0.676,0.858
		c0.138,0.057,0.469,0.086,0.629,0.086h1.101c0.161,0,0.491-0.03,0.629-0.086c0.349-0.149,0.61-0.463,0.676-0.858
		c0.024-0.122,0.035-0.255,0.035-0.382v-0.004c0-0.122-0.011-0.251-0.035-0.373C35.898,90.45,35.879,90.389,35.858,90.335
		 M34.943,90.89c0,0.497-0.399,0.904-0.898,0.904c-0.497,0-0.904-0.403-0.904-0.904v-0.004c0-0.206,0.072-0.4,0.186-0.55
		c0.163-0.215,0.424-0.353,0.719-0.353c0.294,0,0.549,0.138,0.714,0.353c0.112,0.15,0.184,0.345,0.184,0.55V90.89z"/>
	<path fill="#221714" d="M30.134,90.335l-0.21,0.55l-0.322,0.837l-0.323-0.837l-0.21-0.55l-0.298-0.77h-1.16v2.652h0.829v-1.72
		l0.151,0.389l0.507,1.332h1l0.514-1.332l0.15-0.389v1.72h0.827v-2.652h-1.155L30.134,90.335z"/>
	<path fill="#221714" d="M26.803,90.887c0.143-0.141,0.231-0.333,0.231-0.552c0-0.419-0.35-0.765-0.773-0.77H23.72v2.654h0.995
		v-1.111h0.609l0.714,1.111h1l-0.714-1.114C26.51,91.092,26.677,91.012,26.803,90.887 M24.715,89.987h0.971
		c0.191,0,0.349,0.155,0.349,0.349s-0.158,0.348-0.349,0.348h-0.971V89.987z"/>
	<path fill="#221714" d="M23.088,90.335c-0.106-0.311-0.337-0.553-0.631-0.68c-0.139-0.06-0.471-0.093-0.631-0.093h-1.1
		c-0.161,0-0.491,0.033-0.631,0.093c-0.294,0.126-0.529,0.369-0.635,0.68c-0.017,0.053-0.032,0.115-0.041,0.178
		c-0.025,0.122-0.035,0.251-0.035,0.373v0.004c0,0.127,0.01,0.261,0.035,0.382c0.063,0.396,0.328,0.709,0.676,0.858
		c0.14,0.057,0.47,0.086,0.631,0.086h1.1c0.161,0,0.492-0.03,0.631-0.086c0.348-0.149,0.608-0.463,0.675-0.858
		c0.022-0.122,0.034-0.255,0.034-0.382v-0.004c0-0.122-0.012-0.251-0.034-0.373C23.125,90.45,23.107,90.389,23.088,90.335
		 M22.17,90.89c0,0.497-0.4,0.904-0.899,0.904c-0.496,0-0.904-0.403-0.904-0.904v-0.004c0-0.206,0.073-0.4,0.187-0.55
		c0.163-0.215,0.424-0.353,0.718-0.353c0.296,0,0.551,0.138,0.715,0.353c0.112,0.15,0.184,0.345,0.184,0.55V90.89z"/>
	<path fill="#221714" d="M15.814,90.331c-0.013,0.06-0.017,0.119-0.017,0.179v1.709h0.983V91.1h2.071v-0.424h-2.059
		c0.028-0.129,0.083-0.248,0.164-0.345c0.164-0.213,0.428-0.349,0.714-0.349l1.247-0.006v-0.418h-2.163
		C16.284,89.558,15.898,89.889,15.814,90.331"/>
	<path fill="#221714" d="M43.209,90.89l-0.316-0.559l-0.433-0.773h-1l-0.433,0.773l-0.315,0.559l-0.315,0.563l-0.429,0.764h0.995
		l0.258-0.456h1.482l0.251,0.456h0.996l-0.428-0.764L43.209,90.89z M41.964,90.444l0.497,0.892h-1l0.251-0.446L41.964,90.444z"/>
	<path fill="#221714" d="M39.01,90.676h-1.196c-0.194,0-0.349-0.156-0.349-0.347c0-0.19,0.155-0.347,0.349-0.347h1.793v-0.424
		h-2.378c-0.424,0-0.765,0.349-0.765,0.771c0,0.221,0.089,0.414,0.232,0.553c0.139,0.136,0.329,0.217,0.533,0.217l0.609,0.001
		l0.594-0.001V91.1c0.189,0,0.344,0.155,0.344,0.345c0,0.195-0.155,0.35-0.344,0.35h-1.794v0.423h2.373
		c0.424,0,0.77-0.347,0.77-0.773c0-0.222-0.096-0.424-0.247-0.563C39.393,90.751,39.211,90.676,39.01,90.676"/>
	<path fill="#221714" d="M88.073,90.324c-0.105-0.31-0.339-0.553-0.633-0.68c-0.139-0.058-0.469-0.092-0.63-0.092h-1.102
		c-0.16,0-0.49,0.034-0.628,0.092c-0.296,0.127-0.532,0.37-0.637,0.68c-0.017,0.056-0.033,0.115-0.041,0.178
		c-0.025,0.124-0.035,0.253-0.035,0.375v0.002c0,0.127,0.01,0.262,0.035,0.384c0.062,0.396,0.328,0.712,0.677,0.857
		c0.139,0.059,0.469,0.088,0.628,0.088h1.102c0.161,0,0.491-0.029,0.63-0.088c0.348-0.145,0.61-0.461,0.676-0.857
		c0.022-0.122,0.034-0.257,0.034-0.384v-0.002c0-0.122-0.012-0.251-0.034-0.375C88.109,90.439,88.091,90.38,88.073,90.324
		 M87.156,90.879c0,0.499-0.4,0.904-0.901,0.904c-0.494,0-0.904-0.403-0.904-0.904v-0.002c0-0.207,0.072-0.4,0.185-0.553
		c0.163-0.213,0.425-0.353,0.719-0.353c0.295,0,0.55,0.14,0.716,0.353c0.111,0.152,0.185,0.346,0.185,0.553V90.879z"/>
	<path fill="#221714" d="M95.132,89.554h-2.465v2.654h0.996v-0.952h1.475c0.298,0,0.559-0.149,0.709-0.38
		c0.089-0.136,0.139-0.295,0.139-0.468c0-0.029,0-0.054-0.004-0.085C95.941,89.893,95.575,89.554,95.132,89.554 M93.663,89.976h0.9
		c0.209,0,0.382,0.152,0.419,0.348c0.004,0.027,0.008,0.054,0.008,0.081c0,0.24-0.189,0.423-0.427,0.427h-0.9V89.976z"/>
	<path fill="#221714" d="M83.751,90.876c0.143-0.139,0.232-0.332,0.232-0.553c0-0.42-0.35-0.763-0.774-0.769h-2.543v2.653h0.998
		v-1.109h0.609l0.713,1.109h1l-0.716-1.115C83.458,91.082,83.627,91.003,83.751,90.876 M81.665,89.976h0.969
		c0.195,0,0.349,0.156,0.349,0.348c0,0.195-0.153,0.35-0.349,0.35h-0.969V89.976z"/>
	<path fill="#221714" d="M91.026,90.324v0.795c0,0.376-0.295,0.669-0.668,0.669c-0.365,0-0.66-0.293-0.66-0.669v-1.564h-1.001v1.704
		c0,0.524,0.434,0.949,0.964,0.949h1.402c0.525,0,0.956-0.425,0.956-0.949v-1.704h-0.993V90.324z"/>
	<path fill="#221714" d="M76.976,90.321c-0.021,0.056-0.031,0.114-0.045,0.178c-0.025,0.125-0.037,0.255-0.037,0.382
		s0.012,0.252,0.037,0.378c0.014,0.06,0.03,0.126,0.051,0.186c0.159,0.448,0.59,0.764,1.088,0.764h1.979v-1.542h-1.496v0.423h0.497
		v0.77c-0.055,0.008-0.108,0.018-0.163,0.018c-0.342,0-0.641-0.174-0.821-0.433c-0.109-0.161-0.176-0.354-0.176-0.563v-0.004
		c0-0.207,0.063-0.395,0.167-0.555c0.18-0.265,0.483-0.44,0.83-0.44h1.162v-0.333H78.07C77.569,89.547,77.137,89.864,76.976,90.321"
		/>
	<path fill="#221714" d="M67.091,90.331c-0.019,0.056-0.038,0.113-0.05,0.179c-0.024,0.125-0.037,0.254-0.037,0.38
		c0,0.127,0.012,0.252,0.037,0.38c0.012,0.063,0.031,0.125,0.05,0.182c0.17,0.451,0.602,0.767,1.094,0.767h1.811v-0.421
		l-1.087-0.005c-0.284,0-0.539-0.134-0.704-0.341c-0.125-0.151-0.201-0.347-0.201-0.562v-0.003c0-0.211,0.072-0.406,0.193-0.556
		c0.168-0.213,0.423-0.349,0.711-0.349l1.087-0.006v-0.418h-1.811C67.688,89.558,67.255,89.874,67.091,90.331"/>
	<path fill="#221714" d="M73.063,90.676h-1.199c-0.192,0-0.345-0.156-0.345-0.347c0-0.19,0.153-0.347,0.345-0.347h1.796v-0.424
		h-2.378c-0.425,0-0.766,0.349-0.766,0.771c0,0.221,0.09,0.414,0.232,0.553c0.137,0.136,0.328,0.217,0.533,0.217l0.609,0.001
		l0.593-0.001V91.1c0.189,0,0.345,0.155,0.345,0.345c0,0.195-0.155,0.35-0.345,0.35h-1.795v0.423h2.374
		c0.425,0,0.77-0.347,0.77-0.773c0-0.222-0.099-0.424-0.248-0.563C73.446,90.751,73.263,90.676,73.063,90.676"/>
	<path fill="#221714" d="M49.253,89.564h-2.464v2.655h0.996v-0.954h1.472c0.299,0,0.56-0.149,0.712-0.378
		c0.088-0.137,0.137-0.294,0.137-0.467c0-0.031,0-0.056-0.004-0.084C50.062,89.903,49.696,89.564,49.253,89.564 M47.785,89.987
		h0.897c0.21,0,0.382,0.15,0.419,0.349c0.004,0.025,0.009,0.051,0.009,0.08c0,0.24-0.189,0.424-0.429,0.429h-0.897V89.987z"/>
	<path fill="#221714" d="M61.459,89.987h1.165v2.232h0.992v-2.232h1.162v-0.421h-3.318V89.987z"/>
	<path fill="#221714" d="M56.866,90.89l-0.315-0.559l-0.432-0.773H55.12l-0.436,0.773l-0.312,0.559l-0.316,0.563l-0.431,0.764h0.997
		l0.256-0.456h1.484l0.252,0.456h0.995l-0.429-0.764L56.866,90.89z M55.622,90.444l0.497,0.892H55.12L55.622,90.444z"/>
	<path fill="#221714" d="M60.365,90.676h-1.197c-0.193,0-0.348-0.156-0.348-0.347c0-0.19,0.155-0.347,0.348-0.347h1.795v-0.424
		h-2.378c-0.425,0-0.766,0.349-0.766,0.771c0,0.221,0.089,0.414,0.23,0.553c0.139,0.136,0.33,0.217,0.535,0.217l0.608,0.001
		l0.595-0.001V91.1c0.188,0,0.343,0.155,0.343,0.345c0,0.195-0.155,0.35-0.343,0.35h-1.794v0.423h2.372
		c0.424,0,0.771-0.347,0.771-0.773c0-0.222-0.099-0.424-0.249-0.563C60.748,90.751,60.566,90.676,60.365,90.676"/>
	<path fill="#221714" d="M51.752,91.452c-0.11-0.12-0.177-0.264-0.177-0.404v-1.487h-0.994v1.161c0,0.055,0,0.113,0.004,0.168
		c0.004,0.127,0.013,0.249,0.026,0.366c0.006,0.068,0.02,0.135,0.039,0.196c0.141,0.482,0.595,0.804,1.098,0.767h1.643v-0.421
		h-0.912C52.202,91.798,51.923,91.653,51.752,91.452"/>
	<path fill="#221714" d="M65.405,90.334v1.883h0.994V89.56h-0.994V90.334z"/>
	<path fill="#221714" d="M46.004,81.2l0.71-6.922h2.607L48.634,81.2H46.004z"/>
	<path fill="#221714" d="M48.148,74.278h3.279v1.231h-3.279V74.278z"/>
	<path fill="#221714" d="M48.433,76.516h2.787v1.241h-2.787V76.516z"/>
	<path fill="#221714" d="M48.324,78.783h3.292v1.241h-3.292V78.783z"/>
	<path fill="#221714" d="M50.7,81.43v-7.152h2.633v6.67L50.7,81.43z"/>
	<path fill="#221714" d="M16.802,86.677h15.372v-5.67H16.802V86.677z M20.338,82.423h8.299v2.852h-8.299V82.423z M26.63,75.418
		l2.135,3.015h-8.427l2.509-3.453l-2.91-1.022l-3.259,4.475h-0.881v1.407h13.989l0.917,1.095l2.599-1.223l-4.123-5.598L26.63,75.418
		z M66.797,76.347v-2.389l-9.021,3.753l2.058,1.527L66.797,76.347z M39.926,79.462h-0.829v-1.688h-2.128v2.937h2.906l-0.042,1.126
		h2.656l0.041-1.126h3.113v-1.248h-0.008v-1.688h-2.13v1.688h-0.929l0.102-2.542h2.924l0.401-1.248H45.12l0.291-1.395h-2.477
		l-0.292,1.395h-2.716l-0.294-1.395h-2.475l0.291,1.395h-0.777v1.248h3.354L39.926,79.462z M66.803,76.347l6.962,2.892l2.056-1.527
		l-9.018-3.753V76.347z M92.521,83.296h2.87l0.354-1.119h-6.93v-0.735h6.012l0.354-1.117h-6.366v-0.733h6.286l0.35-1.117h-3.274
		l0.317-1.379h2.897l0.354-1.119h-1.561l0.341-1.63h-2.577l-0.341,1.63h-1.058v-1.63h-2.577v1.63h-1.271v-1.63h-2.579v1.63h-1.116
		l-0.343-1.63h-2.579l0.343,1.63h-1.403v1.119h3.196l0.318,1.379h-3.264v1.117h6.647v0.733h-6.334v1.117h6.334v0.735h-6.897v1.119
		h3.225l-3.384,2.538l2.146,1.126l4.91-3.664v3.433h2.894v-3.433h0.033l4.911,3.664l2.147-1.126L92.521,83.296z M85.373,78.475
		l-0.317-1.379h4.605l-0.317,1.379H85.373z M46.923,84.076h5.596l0.445-1.405h-6.041v-1.028h-3.534v1.028H37.5v1.405h5.888v1.2
		h-6.715v1.404h16.543l0.446-1.404h-6.74V84.076z M68.979,82.514h4.486l0.436-1.379h-4.922v-2.893h-3.325v6.92h-2.35v-5.022h-2.923
		v5.022h-1.917v1.386h16.27l0.438-1.386h-6.193V82.514z"/>
	<path fill="#0A4994" d="M33.32,54.243c-0.52-0.519-1.366-0.519-1.886,0c-0.041,0.042-0.074,0.089-0.109,0.133
		c-0.1-0.011-0.198-0.018-0.291-0.018c-0.608,0-0.972,0.234-1.169,0.431c-0.92,0.919-0.258,2.798,1.035,4.619
		c-0.189,0.27-0.369,0.542-0.53,0.809c0.301,0.031,0.579,0.159,0.798,0.376c0.026,0.026,0.047,0.057,0.071,0.087
		c0.089-0.147,0.187-0.3,0.289-0.454c0.319,0.386,0.66,0.765,1.016,1.121c0.366,0.368,0.743,0.71,1.121,1.021
		c-1.111,0.751-2.061,1.104-2.63,1.104c-0.219,0-0.378-0.046-0.474-0.142c-0.095-0.093-0.144-0.254-0.144-0.474
		c0-0.002,0.002-0.004,0.002-0.006c-0.066,0.008-0.13,0.017-0.195,0.017c-0.281,0-0.547-0.088-0.77-0.248
		c-0.055,0.569,0.061,1.059,0.411,1.407c0.197,0.197,0.561,0.432,1.169,0.432c0.918,0,2.162-0.542,3.446-1.46
		c0.265,0.187,0.525,0.36,0.784,0.514c-0.005,0.044-0.013,0.086-0.013,0.13c0,0.358,0.138,0.691,0.39,0.943
		c0.25,0.253,0.587,0.392,0.942,0.392c0.358,0,0.691-0.139,0.943-0.392c0.048-0.047,0.087-0.099,0.125-0.15
		c0.093,0.01,0.189,0.023,0.278,0.023c0.609,0,0.972-0.235,1.17-0.432c0.196-0.197,0.431-0.559,0.431-1.17
		c0-0.919-0.543-2.162-1.461-3.448c0.185-0.261,0.355-0.517,0.509-0.772c-0.299-0.032-0.578-0.16-0.795-0.377
		c-0.025-0.027-0.048-0.058-0.074-0.088c-0.082,0.136-0.174,0.277-0.27,0.419c-0.313-0.378-0.652-0.751-1.02-1.119
		c-0.369-0.368-0.745-0.71-1.122-1.024c1.112-0.749,2.064-1.105,2.631-1.105c0.22,0,0.377,0.049,0.475,0.144
		c0.101,0.103,0.15,0.281,0.143,0.515c0.058-0.006,0.119-0.018,0.183-0.018c0.286,0,0.558,0.096,0.786,0.262
		c0.011-0.097,0.016-0.193,0.016-0.285c0-0.608-0.235-0.972-0.431-1.17c-0.198-0.197-0.562-0.431-1.17-0.431
		c-0.92,0-2.163,0.541-3.449,1.46c-0.263-0.188-0.525-0.359-0.782-0.516C33.731,54.924,33.609,54.532,33.32,54.243 M32.376,54.134
		c0.281,0,0.546,0.109,0.745,0.309c0.41,0.408,0.41,1.077,0,1.486c-0.199,0.2-0.463,0.309-0.745,0.309s-0.545-0.109-0.745-0.309
		c-0.198-0.198-0.307-0.463-0.307-0.743c0-0.281,0.109-0.545,0.307-0.743C31.832,54.243,32.095,54.134,32.376,54.134 M36.583,64.695
		c-0.281,0-0.544-0.109-0.742-0.308c-0.2-0.198-0.31-0.463-0.31-0.745c0-0.28,0.11-0.543,0.31-0.743
		c0.197-0.2,0.461-0.309,0.742-0.309c0.281,0,0.547,0.108,0.745,0.309c0.198,0.199,0.308,0.462,0.308,0.743
		c0,0.282-0.11,0.547-0.308,0.745C37.13,64.586,36.864,64.695,36.583,64.695 M38.404,63.33c-0.097,0.095-0.255,0.142-0.475,0.142
		H37.9c-0.037-0.29-0.164-0.559-0.375-0.772c-0.252-0.252-0.585-0.39-0.943-0.39c-0.323,0-0.624,0.121-0.864,0.328
		c-0.138-0.083-0.279-0.172-0.421-0.27c0.376-0.312,0.754-0.653,1.122-1.021c0.368-0.367,0.708-0.744,1.02-1.122
		C38.47,61.75,38.758,62.975,38.404,63.33 M35.723,58.165c0.422,0.422,0.792,0.838,1.115,1.243
		c-0.324,0.405-0.693,0.821-1.115,1.244c-0.421,0.422-0.838,0.788-1.243,1.113c-0.403-0.325-0.819-0.693-1.241-1.113
		c-0.423-0.423-0.79-0.836-1.112-1.242c0.32-0.403,0.688-0.82,1.112-1.245c0.422-0.421,0.837-0.788,1.243-1.113
		C34.884,57.377,35.302,57.744,35.723,58.165 M32.543,57.471c-0.358,0.358-0.701,0.735-1.02,1.125
		c-0.753-1.114-1.107-2.064-1.107-2.636c0-0.219,0.049-0.38,0.144-0.474c0.096-0.095,0.255-0.144,0.474-0.144
		c0.007,0,0.017,0.002,0.025,0.005c0.036,0.295,0.163,0.569,0.375,0.782c0.251,0.254,0.586,0.389,0.942,0.389
		c0.327,0,0.632-0.121,0.876-0.333c0.134,0.081,0.272,0.17,0.41,0.262C33.286,56.761,32.91,57.103,32.543,57.471"/>
	<path fill="#0A4994" d="M46.354,36.698h4.454v-3.745h3.744V28.51h-3.744v-3.744h-4.454v3.744h-3.743v4.443h3.743V36.698z
		 M44.021,31.555v-1.647h3.73v-3.744h1.66v3.744h3.731v1.647h-3.731v3.744h-1.66v-3.744H44.021z"/>
	<path fill="#0A4994" d="M25.186,30.027v-2.572l-4.69-3.281l-4.679,3.281v2.572l0.128,0.095l0.876,0.617l-0.864,0.604l-0.141,0.095
		v2.57l4.002,2.807l0.676,0.475l0.673-0.475l4.017-2.807v-2.57l-0.141-0.095l-0.878-0.604l0.888-0.617L25.186,30.027z M20.496,26.26
		l2.523,1.777l0.521,0.368v0.922l-0.701,0.475l-2.344-1.647l-2.346,1.647l-0.698-0.475v-0.922l0.521-0.368L20.496,26.26z
		 M20.496,35.205l-2.536-1.764l-0.508-0.356v-0.948l0.698-0.475l2.346,1.648l2.344-1.648l0.701,0.475v0.948l-0.509,0.356
		L20.496,35.205z M21.513,30.739l-0.876,0.604l-0.141,0.095l-0.143-0.095l-0.865-0.604l0.876-0.617l0.132-0.095l0.128,0.095
		L21.513,30.739z"/>
	<path fill="#0A4994" d="M32.199,44.46l1.919,1.918l0.425,0.427l0.427-0.427l1.896-1.918v-1.861h1.882l0.12-0.118l1.634-1.622
		l0.593-0.592l-0.617-0.618l-1.625-1.623l-0.105-0.107h-1.882v-1.885l-2.323-2.333l-2.344,2.333v1.885h-1.872l-2.263,2.263
		l-0.083,0.084l0.59,0.592l1.636,1.622l0.119,0.118h1.872V44.46z M33.834,36.723l0.709-0.709l0.699,0.709v1.197h-1.408V36.723z
		 M33.834,40.859v-1.305h1.408v1.397h-1.408V40.859z M38.702,40.183l0.083,0.084l-0.618,0.592l-0.093,0.092h-1.208v-1.397h1.208
		l0.093,0.095L38.702,40.183z M30.291,40.267l0.084-0.084l0.533-0.534l0.093-0.095h1.198v1.397h-1.198l-0.093-0.092L30.291,40.267z
		 M33.834,42.599h1.408v1.185l-0.699,0.712l-0.709-0.712V42.599z"/>
	<path fill="#0A4994" d="M58.372,61.041c0.273,0.096,0.521,0.227,0.771,0.381c0.475,0.284,0.889,0.661,1.221,1.112
		c0.555,0.735,0.887,1.66,0.887,2.654l2.795,0.013v-0.013c0-0.994,0.332-1.919,0.89-2.654c0.343-0.451,0.757-0.828,1.233-1.112
		c0.235-0.154,0.495-0.285,0.767-0.381c0.239-0.093,0.486-0.165,0.747-0.211c0.26-0.05,0.535-0.071,0.817-0.071v-0.498l0.012-2.323
		H68.5c-0.558,0-1.089-0.106-1.574-0.285c-1.08-0.414-1.956-1.219-2.454-2.25c-0.082-0.191-0.165-0.393-0.223-0.594
		c-0.133-0.414-0.203-0.864-0.203-1.326h-2.795c0,0.462-0.071,0.912-0.202,1.326c-0.06,0.202-0.143,0.403-0.226,0.594
		c-0.498,1.031-1.372,1.836-2.439,2.25c-0.487,0.179-1.019,0.285-1.575,0.285v2.821c0.283,0,0.557,0.021,0.818,0.071
		C57.887,60.876,58.135,60.948,58.372,61.041 M59.758,59.335c0.818-0.413,1.528-0.994,2.109-1.692
		c0.296-0.368,0.569-0.771,0.782-1.197c0.212,0.426,0.473,0.83,0.78,1.197c0.582,0.71,1.305,1.289,2.134,1.708
		c-0.497,0.246-0.96,0.542-1.374,0.911c-0.214,0.177-0.402,0.378-0.591,0.58c-0.061,0.061-0.12,0.13-0.169,0.201
		c-0.105,0.118-0.199,0.25-0.295,0.381c-0.177,0.261-0.343,0.518-0.485,0.804c-0.142-0.286-0.308-0.557-0.486-0.804
		c-0.095-0.131-0.189-0.263-0.296-0.381c-0.059-0.071-0.106-0.14-0.167-0.201c-0.189-0.201-0.378-0.403-0.592-0.58
		C60.708,59.904,60.244,59.596,59.758,59.335"/>
	<path fill="#0A4994" d="M28.457,22.714c1.15,0,2.216,0.424,3.012,1.125c0.957,0.839,1.561,2.061,1.561,3.434h3.034
		c0-1.362,0.605-2.594,1.565-3.423c0.804-0.712,1.86-1.136,3.021-1.136V21.55H28.457V22.714z M35.827,22.83
		c-0.298,0.309-0.558,0.653-0.782,1.021c-0.191,0.32-0.344,0.652-0.486,1.007c-0.143-0.355-0.308-0.687-0.51-1.007
		c-0.227-0.368-0.475-0.7-0.771-1.021H35.827z"/>
	<path fill="#0A4994" d="M40.649,19.668c-1.147,0-2.204-0.426-3.01-1.127c-0.971-0.841-1.575-2.062-1.575-3.436h-3.033
		c0,1.374-0.604,2.594-1.576,3.436c-0.793,0.701-1.846,1.127-2.998,1.127v1.173h12.192V19.668z M33.279,19.551
		c0.286-0.309,0.535-0.653,0.759-1.009c0.201-0.318,0.379-0.663,0.522-1.018c0.142,0.355,0.308,0.699,0.509,1.018
		c0.214,0.356,0.473,0.701,0.759,1.019L33.279,19.551z"/>
	<path fill="#0A4994" d="M13.863,26.229c1.44-2.132,3.881-3.523,6.649-3.523c2.766,0,5.206,1.391,6.649,3.523
		c1.601,2.376,4.313,3.932,7.39,3.949v0.008c3.078-0.018,5.789-1.573,7.392-3.95c1.443-2.133,3.881-3.523,6.649-3.523
		c2.767,0,5.206,1.391,6.647,3.523c1.604,2.377,4.315,3.932,7.392,3.95v-0.963c-2.759-0.018-5.194-1.431-6.624-3.566
		c-1.591-2.379-4.339-3.909-7.415-3.909c-3.078,0-5.827,1.53-7.417,3.909c-1.429,2.135-3.866,3.548-6.624,3.566v-0.006
		c-2.757-0.019-5.195-1.429-6.622-3.567c-1.591-2.378-4.342-3.906-7.417-3.906c-3.078,0-5.828,1.528-7.418,3.906
		c-1.427,2.139-3.863,3.548-6.623,3.567v0.96C9.549,30.162,12.259,28.606,13.863,26.229"/>
	<path fill="#0A4994" d="M76.662,60.854V59.89c-3.077,0.018-5.79,1.573-7.394,3.948c-1.441,2.134-3.88,3.524-6.646,3.524
		c-2.769,0-5.208-1.391-6.647-3.524c-1.606-2.375-4.317-3.931-7.393-3.948c-3.078,0.018-5.788,1.573-7.394,3.948
		c-1.438,2.134-3.879,3.524-6.647,3.524c-2.766,0-5.206-1.391-6.646-3.524c-1.604-2.375-4.317-3.931-7.393-3.948v0.964
		c2.758,0.015,5.195,1.428,6.624,3.566c1.59,2.375,4.34,3.906,7.415,3.906c3.076,0,5.829-1.53,7.417-3.906
		c1.429-2.138,3.866-3.551,6.624-3.566c2.757,0.015,5.195,1.428,6.624,3.566c1.588,2.375,4.34,3.906,7.417,3.906
		c3.075,0,5.825-1.53,7.416-3.906C71.468,62.282,73.903,60.869,76.662,60.854"/>
	<path fill="#0A4994" d="M27.892,16.714c1.442-2.134,3.881-3.525,6.647-3.525c2.766,0,5.207,1.391,6.648,3.525
		c1.604,2.375,4.316,3.932,7.392,3.948V19.7c-2.758-0.018-5.192-1.429-6.621-3.563c-1.592-2.378-4.342-3.908-7.419-3.908
		c-3.076,0-5.826,1.529-7.416,3.908c-1.428,2.135-3.863,3.546-6.623,3.563v0.963C23.578,20.646,26.286,19.089,27.892,16.714"/>
	<path fill="#0A4994" d="M38.724,56.276c-0.575,0-1.042,0.469-1.042,1.046c0,0.577,0.468,1.043,1.042,1.043
		c0.577,0,1.045-0.467,1.045-1.043C39.769,56.745,39.3,56.276,38.724,56.276"/>
	<path fill="#0A4994" d="M30.218,62.574c0.576,0,1.043-0.466,1.043-1.046c0-0.576-0.468-1.042-1.043-1.042
		c-0.577,0-1.043,0.467-1.043,1.042C29.174,62.108,29.641,62.574,30.218,62.574"/>
	<path fill="#0A4994" d="M60.142,39.321v-0.907l-1.913,0.907v4.323l1.913,1.086v-1.277l-1.022-0.595v-3.086L60.142,39.321z"/>
	<path fill="#0A4994" d="M64.493,40.726v-2.312l-3.646-0.006l0.007,6.669l1.819,0.995l1.785-0.995v-3.837l-1.791-0.011v0.681
		l0.898,0.009v2.592l-0.892,0.429l-0.896-0.53l-0.002-5.184h1.782v1.501H64.493z"/>
	<path fill="#0A4994" d="M65.208,38.444v6.418l2.079-1.216v-4.197l-0.75-0.375v3.978l-0.51,0.267v-4.483L65.208,38.444z"/>
	<path fill="#0A4994" d="M67.987,40.501l3.194-1.624l-8.48-4.127l-8.48,4.127l3.241,1.635v-1.1l-0.987-0.536l6.226-3.027
		l6.221,3.027l-0.929,0.526L67.987,40.501z"/>
	<path fill="#0A4994" d="M50.194,53.157v-0.002h3.298c0.646,0,1.148-0.178,1.483-0.544c0.334-0.366,0.497-0.946,0.497-1.651
		c0-0.741-0.148-1.283-0.47-1.615c-0.293-0.299-0.751-0.442-1.359-0.442h-0.794c-0.177,0-0.336-0.127-0.403-0.208
		c-0.071-0.09-0.112-0.216-0.112-0.392c0-0.275,0.066-0.411,0.187-0.501c0.093-0.077,0.25-0.122,0.48-0.122h2.228v-1.559h-2.448
		c-0.65,0-1.152,0.183-1.487,0.558c-0.337,0.374-0.499,0.888-0.499,1.609c0,0.682,0.153,1.278,0.474,1.634
		c0.321,0.354,0.799,0.527,1.416,0.527h0.661c0.258-0.001,0.393,0.044,0.464,0.112c0.072,0.074,0.125,0.202,0.132,0.45
		c0,0.194-0.057,0.368-0.163,0.456c-0.107,0.089-0.277,0.141-0.52,0.143h-3.065v-5.488h-1.501v2.673h-1.451v-2.673h-2.871
		c-0.266,0-0.506,0.016-0.72,0.047c-0.411,0.061-0.769,0.195-1.069,0.408c-0.154,0.108-0.287,0.229-0.393,0.363
		c-0.261,0.34-0.43,0.815-0.511,1.424c-0.044,0.341-0.068,0.853-0.068,1.543v3.253h1.505v-2.691h2.009v-1.596h-2.006
		c0.017-0.381,0.117-0.657,0.287-0.838c0.187-0.199,0.467-0.305,0.876-0.307h1.46v5.433h1.501v-2.749h1.451v2.749H50.194z"/>
	<path fill="#0A4994" d="M94,43.555v0.911h1.859v-8.423h-6.078v2.345h-2.345v-2.345h-1.86v8.423h6.078v-2.333H94V43.555z
		 M91.655,37.676H94v0.712h-2.345V37.676z M94,40.543h-2.345v-0.708H94V40.543z M87.437,39.834h2.345v0.708h-2.345V39.834z
		 M89.782,42.843h-2.345v-0.71h2.345V42.843z"/>
	<path fill="#0A4994" d="M82.055,46.9v-1.664H71.274V46.9h4.439v5.84h-4.439v1.639h10.781V52.74h-4.441V46.9H82.055z"/>
	<path fill="#0A4994" d="M62.631,31.275c-3.077,0.019-5.789,1.575-7.392,3.95c-1.441,2.132-3.88,3.524-6.647,3.524
		c-2.768,0-5.206-1.392-6.649-3.524c-1.603-2.375-4.314-3.931-7.392-3.95c-3.077,0.019-5.789,1.575-7.39,3.95
		c-1.443,2.132-3.883,3.524-6.649,3.524c-2.768,0-5.209-1.392-6.649-3.524c-1.604-2.375-4.314-3.931-7.392-3.95v0.964
		c2.76,0.018,5.195,1.429,6.623,3.566c1.591,2.377,4.34,3.907,7.418,3.907c3.075,0,5.826-1.529,7.417-3.907
		c1.427-2.137,3.865-3.548,6.622-3.566c2.758,0.018,5.195,1.429,6.624,3.566c1.59,2.377,4.339,3.907,7.417,3.907
		c3.076,0,5.824-1.529,7.415-3.907c1.43-2.137,3.865-3.548,6.624-3.566"/>
	<path fill="#0A4994" d="M62.637,32.241c2.758,0.019,5.194,1.428,6.624,3.566c1.591,2.377,4.339,3.906,7.415,3.906
		c3.078,0,5.826-1.529,7.417-3.906c1.43-2.135,3.861-3.546,6.619-3.566v0.011c2.767,0,5.208,1.393,6.649,3.523
		c1.603,2.378,4.313,3.932,7.391,3.948v-0.962c-2.757-0.017-5.193-1.429-6.621-3.565c-1.591-2.375-4.338-3.902-7.411-3.907v-0.009
		c-3.08,0.016-5.792,1.573-7.395,3.947c-1.442,2.134-3.88,3.524-6.648,3.524c-2.766,0-5.206-1.39-6.648-3.524
		c-1.602-2.375-4.315-3.932-7.391-3.947"/>
	<path fill="#0A4994" d="M90.726,49.259c3.078-0.018,5.788-1.574,7.393-3.948c1.44-2.135,3.88-3.524,6.646-3.524v-0.963
		c-3.075,0-5.827,1.529-7.416,3.906c-1.427,2.136-3.865,3.549-6.624,3.567"/>
	<path fill="#0A4994" d="M22.303,48.802l-1.824-1.278l-1.826,1.278l-1.456,1.018l-1.398,0.984v2.286l2.215,1.553l0.842,0.58
		l1.623,1.138l1.634-1.138l0.829-0.58l2.227-1.553v-2.286l-1.409-0.984L22.303,48.802z M23.062,51.611v0.674l-1.103,0.77
		l-1.479,1.03l-1.481-1.03l-1.103-0.77v-0.674l1.128-0.783l1.445-1.008l0.011-0.01l0.012,0.01l1.445,1.008L23.062,51.611z"/>
	<path fill="#0A4994" d="M25.17,48.802v-2.263l-3.993-2.794l-0.698-0.488l-0.688,0.488l-3.994,2.794v2.273l0.013-0.01l3.187-2.228
		l1.481-1.033l1.479,1.033l3.2,2.228l0.011,0.01V48.802z"/>
	<path fill="#0A4994" d="M83.319,54.308c-1.441,2.13-3.88,3.524-6.647,3.524c-2.768,0-5.207-1.394-6.649-3.524
		c-1.604-2.374-4.314-3.933-7.39-3.949v-0.004c-3.079,0.017-5.789,1.574-7.394,3.948c-1.441,2.134-3.88,3.525-6.647,3.525
		c-2.768,0-5.208-1.391-6.649-3.525c-1.603-2.374-4.314-3.931-7.391-3.948c-0.023,0-0.047,0.006-0.07,0.006v0.96
		c0.023,0,0.047-0.003,0.07-0.003c2.758,0.016,5.195,1.429,6.623,3.567c1.59,2.375,4.339,3.905,7.417,3.905
		c3.076,0,5.824-1.53,7.415-3.905c1.428-2.139,3.865-3.551,6.626-3.567v0.003c2.758,0.018,5.193,1.43,6.621,3.566
		c1.591,2.377,4.342,3.906,7.418,3.906s5.826-1.529,7.415-3.906c1.428-2.136,3.867-3.549,6.623-3.566v-0.961
		C87.635,50.375,84.925,51.934,83.319,54.308"/>
	<path fill="#0A4994" d="M84.087,44.731c-1.589-2.378-4.34-3.907-7.415-3.907c-3.078,0-5.826,1.529-7.418,3.907
		c-1.428,2.135-3.863,3.548-6.621,3.566c-2.761-0.019-5.196-1.431-6.626-3.566c-1.591-2.378-4.34-3.907-7.415-3.907
		c-3.078,0-5.827,1.529-7.417,3.907c-1.428,2.135-3.866,3.548-6.623,3.566c-0.024,0-0.047-0.004-0.07-0.006v0.963
		c0.023,0,0.045,0.004,0.07,0.004c3.076-0.016,5.788-1.574,7.391-3.948c1.443-2.134,3.881-3.524,6.649-3.524
		c2.767,0,5.206,1.39,6.647,3.524c1.604,2.374,4.315,3.932,7.394,3.948c3.077-0.016,5.787-1.574,7.39-3.948
		c1.44-2.134,3.88-3.524,6.649-3.524c2.767,0,5.206,1.39,6.646,3.524c1.604,2.374,4.316,3.932,7.394,3.948v-0.961
		C87.954,48.279,85.515,46.867,84.087,44.731"/>
	<path fill="#0A4994" d="M34.542,50.353c-3.08,0.02-5.79,1.576-7.393,3.95c-1.443,2.133-3.882,3.526-6.65,3.526
		c-2.766,0-5.206-1.393-6.646-3.526c-1.605-2.374-4.315-3.93-7.393-3.95v0.964c2.759,0.016,5.195,1.429,6.622,3.566
		c1.591,2.376,4.342,3.906,7.417,3.906c3.076,0,5.828-1.53,7.417-3.906c1.431-2.138,3.865-3.55,6.625-3.566"/>
	<path fill="#0A4994" d="M34.542,48.298c-2.761-0.02-5.195-1.43-6.625-3.567c-1.589-2.379-4.341-3.906-7.417-3.906
		c-3.075,0-5.826,1.527-7.417,3.906c-1.427,2.138-3.863,3.547-6.622,3.567v0.961c3.078-0.018,5.788-1.574,7.393-3.948
		c1.44-2.135,3.88-3.525,6.646-3.525c2.768,0,5.207,1.39,6.65,3.525c1.603,2.374,4.313,3.93,7.393,3.948"/>
</g>
</svg>
