<?xml version="1.0" encoding="utf-8"?>
<!-- Generator: Adobe Illustrator 16.0.0, SVG Export Plug-In . SVG Version: 6.00 Build 0)  -->
<!DOCTYPE svg PUBLIC "-//W3C//DTD SVG 1.1//EN" "http://www.w3.org/Graphics/SVG/1.1/DTD/svg11.dtd">
<svg version="1.1" id="圖層_1" xmlns="http://www.w3.org/2000/svg" xmlns:xlink="http://www.w3.org/1999/xlink"
   xmlns:inkscape="http://www.inkscape.org/namespaces/inkscape"
	 x="0px" y="0px"
	 width="110px" height="110px" viewBox="0 0 110 110" enable-background="new 0 0 110 110" xml:space="preserve">
<g id="layer1" transform="translate(-275.517,-674.77618)" inkscape:label="Layer 1" inkscape:groupmode="layer">
	<path id="path3023" inkscape:connector-curvature="0" fill="#1C5BA9" d="M290.212,733.45c-0.455,1.5-1.126,3.481-4.527,3.481
		c-3.221,0-5.358-2.728-5.384-6.565c-0.025-4.071,1.988-6.721,5.524-6.721c2.989,0,3.874,1.824,4.194,3.767h0.735v-3.669
		c-0.824-0.475-3.068-1.112-4.976-1.112c-4.652,0-7.84,3.148-7.781,7.823c0.062,4.524,2.866,7.498,7.479,7.498
		c2.611,0,4.047-0.69,5.408-1.384c0.01-0.001,0.336-3.922,0.336-3.922h-0.77L290.212,733.45"/>
	<path id="path3009" inkscape:connector-curvature="0" fill="#1C5BA9" d="M300.954,736.931c-3.324,0-5.383-2.554-5.383-6.666
		c0-4.085,2.06-6.621,5.383-6.621c3.429,0,5.479,2.488,5.479,6.664C306.433,734.456,304.383,736.931,300.954,736.931
		L300.954,736.931z M308.731,730.058c0-4.583-2.838-7.428-7.411-7.428c-4.889,0-8.057,3.041-8.057,7.751
		c0,4.736,2.782,7.568,7.436,7.568C305.654,737.949,308.731,734.921,308.731,730.058"/>
	<path id="path3011" inkscape:connector-curvature="0" fill="#1C5BA9" d="M334.002,723.575l3.18,0.551l0.354,9.651l-8.87-10.827
		h-4.471v0.619l2.397,0.545l-0.091,12.341l-2.142,0.516c-0.604-0.173-1.563-0.427-2.838-2.015c0,0-3.318-4.103-3.734-4.619
		c1.314-0.364,3.439-1.333,3.439-3.819c0-1.632-0.884-3.568-5.104-3.568h-6.585v0.619l2.392,0.545l-0.001,12.338l-2.39,0.555v0.623
		h6.534v-0.617l-2.115-0.556v-12.417c0.63-0.104,1.254-0.172,1.677-0.172c2.341,0,3.478,0.875,3.478,2.67
		c0,2.787-2.249,3.188-3.169,3.311c-0.313,0.04-0.682,0.058-1.011,0.058v0.618l0.819,0.261l3.457,4.485
		c1.155,1.498,1.994,2.361,5.907,2.361h5.779v-0.626l-2.878-0.559l-0.356-11.584l10.575,13.077h0.284l0.177-13.827l1.938-0.55
		v-0.611h-6.631L334.002,723.575"/>
	<path id="path3035" inkscape:connector-curvature="0" fill="#1C5BA9" d="M348.81,737.009l-2.393-0.555l-0.003-12.339l2.399-0.546
		v-0.621h-6.814v0.621l2.387,0.546v12.339l-2.387,0.555v0.62l6.812-0.003L348.81,737.009"/>
	<path id="path3013" inkscape:connector-curvature="0" fill="#1C5BA9" d="M356.88,737.006l-2.88-0.555l-0.355-11.586l10.572,13.073
		h0.28l0.184-13.825l1.936-0.552v-0.611h-6.626l-0.002,0.625l3.174,0.551l0.356,9.651l-8.861-10.827h-4.473v0.619l2.387,0.545
		l-0.089,12.341l-2.298,0.552v0.619h6.697V737.006"/>
	<path id="path3025" inkscape:connector-curvature="0" fill="#1C5BA9" d="M380.59,731.939l1.891-0.546v-0.612l-6.724,0v0.621
		l2.808,0.549v3.809c-0.987,0.78-2.085,1.238-3.796,1.182c-3.065-0.098-5.229-2.722-5.229-6.561
		c0.002-4.237,1.993-6.726,5.613-6.726c3.185,0,4.074,2.061,4.39,3.748h0.678v-3.626c-0.95-0.536-3.006-1.136-5.376-1.136
		c-4.653,0-7.629,3.057-7.604,7.832c0.02,4.433,2.92,7.416,7.397,7.486c3.071,0.052,4.681-0.809,5.948-1.563
		C380.579,736.409,380.59,731.94,380.59,731.939"/>
</g>
</svg>
