<?xml version="1.0" encoding="utf-8"?>
<!-- Generator: Adobe Illustrator 16.0.0, SVG Export Plug-In . SVG Version: 6.00 Build 0)  -->
<!DOCTYPE svg PUBLIC "-//W3C//DTD SVG 1.1//EN" "http://www.w3.org/Graphics/SVG/1.1/DTD/svg11.dtd">
<svg version="1.1" id="圖層_1" xmlns="http://www.w3.org/2000/svg" xmlns:xlink="http://www.w3.org/1999/xlink" x="0px" y="0px"
	 width="110px" height="110px" viewBox="0 0 110 110" enable-background="new 0 0 110 110" xml:space="preserve">
<g>
	<path fill="#1B94D2" d="M93.854,53.34c0.033-0.034,0.05-0.083,0.05-0.117v-2.651c0-0.101-0.084-0.167-0.168-0.167l-12.38-0.017
		c-0.05,0-0.083,0.017-0.117,0.05c-0.034,0.034-0.051,0.084-0.051,0.117v2.685c0,0.051,0.017,0.083,0.051,0.117
		s0.083,0.051,0.117,0.051h4.177v11.239c0,0.05,0.017,0.084,0.05,0.118c0.033,0.034,0.084,0.05,0.117,0.05h3.154l0,0
		c0.151,0,0.336-0.05,0.486-0.184c0.134-0.117,0.252-0.318,0.252-0.604V53.491v-0.083h4.127C93.77,53.39,93.82,53.374,93.854,53.34
		 M71.826,61.98c0-0.051-0.017-0.084-0.05-0.118c-0.033-0.033-0.084-0.05-0.118-0.05h-7.835v-3.154h6.745
		c0.05,0,0.084-0.016,0.118-0.05c0.033-0.034,0.05-0.084,0.05-0.118v-2.667c0-0.051-0.017-0.084-0.05-0.118
		c-0.034-0.034-0.084-0.05-0.118-0.05h-6.728V53.44h7.801c0.05,0,0.083-0.017,0.117-0.05s0.05-0.084,0.05-0.117v-2.718
		c0-0.05-0.017-0.083-0.05-0.117c-0.034-0.033-0.083-0.05-0.117-0.05H59.748c-0.051,0-0.084,0.017-0.118,0.05
		c-0.033,0.034-0.05,0.084-0.05,0.117v12.6c0,0.536,0.269,0.956,0.621,1.241c0.369,0.285,0.822,0.453,1.191,0.453h9.647
		c0.201,0,0.386-0.101,0.536-0.252c0.084-0.067,0.135-0.151,0.168-0.217c0.016-0.034,0.033-0.067,0.05-0.101
		s0.017-0.034,0.017-0.101l0,0V61.98H71.826z M84.258,62.013c0-0.05-0.018-0.084-0.051-0.118c-0.033-0.034-0.084-0.05-0.117-0.05
		h-6.845V50.555c0-0.05-0.017-0.083-0.05-0.117c-0.034-0.033-0.084-0.05-0.118-0.05h-3.758c-0.101,0-0.185,0.083-0.185,0.167v1.51
		v4.144v6.896c0,0.637,0.269,1.074,0.621,1.342c0.353,0.286,0.788,0.403,1.107,0.403h8.707l0,0l0,0c0.185,0,0.336-0.117,0.47-0.285
		c0.134-0.168,0.201-0.352,0.201-0.487l0,0l0,0C84.258,63.808,84.258,62.566,84.258,62.013 M55.319,56.695
		c-1.561-2.214-3.222-4.546-3.574-5.066l0,0c-0.201-0.302-0.469-0.57-0.688-0.755c-0.571-0.486-1.309-0.772-2.114-0.772
		c-1.812,0-3.289,1.477-3.289,3.288l0,0l0,0v5.016c0,2.617,0,5.437,0,6.258c0,0.049,0.017,0.083,0.051,0.117
		c0.033,0.033,0.084,0.05,0.117,0.05h3.841c0.051,0,0.084-0.018,0.118-0.05c0.034-0.034,0.05-0.084,0.05-0.117v-8.758l4.127,5.922
		h-2.684c-0.051,0-0.085,0.017-0.118,0.05c-0.034,0.034-0.051,0.084-0.051,0.118v2.65c0,0.05,0.017,0.084,0.051,0.118
		c0.033,0.034,0.083,0.05,0.118,0.05h5.083c1.359,0,2.45-1.09,2.45-2.449c0-0.52-0.168-1.006-0.436-1.409
		C58.354,60.974,56.895,58.893,55.319,56.695 M101.051,50.102c-0.806,0-1.544,0.286-2.115,0.772
		c-0.217,0.185-0.486,0.469-0.687,0.755c-0.353,0.52-2.014,2.869-3.574,5.066c-1.56,2.214-3.036,4.295-3.036,4.295
		c-0.286,0.403-0.438,0.889-0.438,1.409c0,1.359,1.091,2.45,2.45,2.45h5.067c0.05,0,0.083-0.017,0.117-0.05s0.051-0.084,0.051-0.118
		v-2.65c0-0.05-0.017-0.084-0.051-0.118s-0.084-0.051-0.117-0.051h-2.685l4.127-5.921v8.757c0,0.051,0.016,0.084,0.05,0.117
		c0.033,0.034,0.084,0.051,0.117,0.051h3.842c0.05,0,0.083-0.017,0.117-0.051c0.034-0.033,0.05-0.083,0.05-0.117V53.424
		C104.339,51.562,102.863,50.102,101.051,50.102"/>
	<path fill="#1B94D2" d="M22.538,33.846L3.681,64.849H41.31L22.538,33.846z M26.145,61.242c-0.872,0-1.695-0.252-2.382-0.705
		c-0.017,0.017-0.033,0.034-0.051,0.034c-2.13,1.476-4.462,2.432-6.61,2.432c-0.117,0-0.234,0-0.335,0
		c-1.594-0.067-2.819-0.722-3.59-1.577s-1.124-1.896-1.174-2.785c0-0.067,0-0.151,0-0.218c0.034-2.651,1.846-5.52,4.312-7.835
		c2.483-2.298,5.688-4.077,8.841-4.11c0.017,0,0.034,0,0.05,0c1.46,0,2.701,0.486,3.557,1.341c0.855,0.855,1.292,2.063,1.292,3.338
		c0,0.889-0.201,1.829-0.604,2.769c0.688,0.772,1.107,1.795,1.107,2.902C30.557,59.262,28.577,61.242,26.145,61.242 M27.604,48.961
		c-0.52-0.521-1.275-0.855-2.399-0.855h-0.033c-2.516,0-5.47,1.543-7.733,3.674c-2.282,2.097-3.825,4.798-3.792,6.644
		c0,0.05,0,0.1,0,0.15c0.017,0.52,0.252,1.208,0.739,1.762c0.502,0.537,1.241,0.99,2.449,1.04c0.084,0,0.167,0,0.268,0
		c1.594,0,3.574-0.738,5.453-1.996c-0.52-0.722-0.822-1.61-0.822-2.55c0-2.432,1.979-4.412,4.412-4.412
		c0.705,0,1.359,0.167,1.962,0.47c0.218-0.621,0.319-1.191,0.319-1.729C28.41,50.22,28.107,49.481,27.604,48.961"/>
</g>
</svg>
