<?xml version="1.0" encoding="utf-8"?>
<!-- Generator: Adobe Illustrator 16.0.0, SVG Export Plug-In . SVG Version: 6.00 Build 0)  -->
<!DOCTYPE svg PUBLIC "-//W3C//DTD SVG 1.1//EN" "http://www.w3.org/Graphics/SVG/1.1/DTD/svg11.dtd">
<svg version="1.1" id="圖層_1" xmlns="http://www.w3.org/2000/svg" xmlns:xlink="http://www.w3.org/1999/xlink" x="0px" y="0px"
	 width="110px" height="110px" viewBox="0 0 110 110" enable-background="new 0 0 110 110" xml:space="preserve">
<g>
	<g>
		<rect x="5.604" y="43.161" fill="#FFFFFF" width="23.333" height="23.333"/>
		<path fill="#2395C9" d="M5.604,43.161v23.333h23.333V43.161H5.604z M28.789,66.347h-5.686v-5.686h5.686V66.347z M28.789,54.828
			c-6.327,0.082-11.436,5.191-11.515,11.519H11.44c0.081-9.549,7.8-17.27,17.349-17.353V54.828z"/>
	</g>
	<g>
		<rect x="37.676" y="56.753" fill="#040000" width="0.559" height="3.69"/>
		<path fill="#040000" d="M40.739,60.443v-1.598c0-0.413-0.233-0.587-0.528-0.587c-0.29-0.013-0.535,0.212-0.548,0.5
			c-0.001,0.03,0,0.059,0.003,0.087v1.598h-0.528v-2.625h0.517v0.265c0.181-0.193,0.435-0.3,0.7-0.295
			c0.24-0.01,0.473,0.076,0.65,0.237c0.189,0.199,0.286,0.469,0.264,0.742v1.676H40.739"/>
		<path fill="#040000" d="M43.034,58.258c-0.475,0-0.548,0.388-0.548,0.871c0,0.482,0.073,0.875,0.548,0.875
			c0.475,0,0.544-0.408,0.544-0.875S43.513,58.258,43.034,58.258 M43.59,60.443v-0.279c-0.165,0.213-0.427,0.33-0.696,0.311
			c-0.237,0.01-0.467-0.074-0.642-0.233c-0.237-0.319-0.343-0.717-0.295-1.112c-0.046-0.394,0.059-0.791,0.295-1.109
			c0.173-0.16,0.403-0.243,0.638-0.233c0.264-0.021,0.521,0.089,0.688,0.295v-1.311h0.529v3.69L43.59,60.443z"/>
		<path fill="#040000" d="M46.534,60.443v-0.261c-0.183,0.19-0.437,0.296-0.7,0.292c-0.239,0.008-0.472-0.077-0.649-0.238
			c-0.186-0.199-0.28-0.467-0.261-0.738v-1.681h0.529v1.598c0,0.413,0.229,0.588,0.524,0.588c0.289,0.013,0.535-0.211,0.547-0.5
			c0.002-0.029,0-0.059-0.002-0.087v-1.598h0.529v2.625H46.534"/>
		<path fill="#040000" d="M48.743,60.475c-0.407,0.033-0.808-0.108-1.105-0.389l0.347-0.346c0.21,0.195,0.492,0.294,0.777,0.273
			c0.319,0,0.576-0.113,0.576-0.362c0-0.175-0.101-0.288-0.354-0.312l-0.443-0.022c-0.49-0.043-0.778-0.265-0.778-0.729
			c0-0.462,0.444-0.8,0.992-0.8c0.349-0.025,0.695,0.081,0.972,0.295l-0.33,0.334c-0.188-0.138-0.417-0.205-0.65-0.19
			c-0.314,0-0.474,0.139-0.474,0.338c0,0.198,0.081,0.272,0.362,0.299l0.417,0.035c0.489,0.042,0.777,0.275,0.777,0.743
			c0,0.548-0.467,0.832-1.093,0.832"/>
		<path fill="#040000" d="M51.208,60.443c-0.375,0.025-0.699-0.259-0.723-0.634c-0.002-0.031-0.002-0.062,0-0.092v-1.452h-0.299
			v-0.388h0.299v-0.813h0.528v0.801h0.51v0.389h-0.51v1.435c-0.021,0.145,0.077,0.279,0.221,0.302
			c0.024,0.003,0.048,0.004,0.071,0.001h0.218v0.451h-0.319"/>
		<path fill="#040000" d="M53.646,58.433c-0.096-0.113-0.24-0.177-0.389-0.174c-0.298,0.009-0.533,0.259-0.523,0.557
			c0,0.011,0.001,0.022,0.002,0.034v1.594h-0.529v-2.625h0.517v0.284c0.173-0.207,0.431-0.323,0.701-0.314
			c0.234-0.012,0.463,0.079,0.626,0.249l-0.389,0.389"/>
		<path fill="#040000" d="M54.475,60.443v-2.625h0.529v2.625H54.475 M55.02,57.298h-0.56v-0.56h0.56V57.298z"/>
		<path fill="#040000" d="M57.249,59.285h-0.619c-0.308,0-0.47,0.14-0.47,0.389c0,0.249,0.152,0.388,0.482,0.388
			c0.183,0.014,0.363-0.051,0.494-0.179c0.086-0.109,0.127-0.249,0.113-0.388v-0.214 M57.249,60.447V60.21
			c-0.182,0.19-0.438,0.29-0.7,0.268c-0.258,0.022-0.513-0.063-0.705-0.236c-0.141-0.153-0.215-0.356-0.209-0.564
			c0-0.44,0.308-0.778,0.906-0.778h0.696v-0.183c0-0.33-0.167-0.489-0.575-0.489c-0.224-0.028-0.445,0.068-0.575,0.252l-0.346-0.326
			c0.228-0.28,0.582-0.427,0.94-0.389c0.724,0,1.085,0.303,1.085,0.899v1.757L57.249,60.447z"/>
		<path fill="#040000" d="M59.297,60.443c-0.368,0.032-0.692-0.242-0.723-0.61c-0.004-0.037-0.004-0.075,0-0.113v-2.948h0.528v2.917
			c0,0.203,0.074,0.303,0.285,0.303h0.237v0.451H59.297"/>
		<polyline fill="#040000" points="62.553,57.258 62.553,60.443 61.993,60.443 61.993,57.258 60.973,57.258 60.973,56.753 
			63.568,56.753 63.568,57.258 62.553,57.258 		"/>
		<path fill="#040000" d="M65.193,58.558c-0.088-0.207-0.293-0.339-0.518-0.33c-0.226-0.008-0.434,0.123-0.525,0.33
			c-0.048,0.113-0.071,0.235-0.067,0.357h1.167c0.004-0.122-0.021-0.246-0.073-0.357 M64.096,59.285
			c-0.05,0.353,0.196,0.679,0.549,0.729c0.04,0.005,0.08,0.008,0.119,0.005c0.243,0.015,0.479-0.083,0.638-0.268l0.334,0.315
			c-0.248,0.278-0.611,0.428-0.983,0.408c-0.657,0-1.167-0.346-1.167-1.345c0-0.852,0.444-1.342,1.117-1.342
			s1.116,0.517,1.116,1.264v0.233H64.096z"/>
		<path fill="#040000" d="M67.526,60.475c-0.591,0-1.167-0.362-1.167-1.345c0-0.984,0.579-1.342,1.167-1.342
			c0.33-0.017,0.649,0.117,0.867,0.366l-0.366,0.354c-0.116-0.16-0.303-0.253-0.501-0.249c-0.19-0.007-0.373,0.08-0.486,0.233
			c-0.125,0.188-0.181,0.414-0.155,0.638c-0.024,0.225,0.03,0.452,0.155,0.642c0.114,0.151,0.296,0.24,0.486,0.233
			c0.198,0.005,0.385-0.088,0.501-0.249l0.366,0.347c-0.213,0.256-0.534,0.4-0.867,0.389"/>
		<path fill="#040000" d="M70.595,60.443v-1.61c0.039-0.276-0.153-0.532-0.43-0.572c-0.033-0.004-0.066-0.005-0.099-0.003
			c-0.283-0.009-0.52,0.214-0.529,0.498c0,0.025,0.001,0.052,0.004,0.078v1.61h-0.529v-3.671h0.529v1.33
			c0.172-0.191,0.419-0.298,0.676-0.294c0.48-0.027,0.891,0.341,0.917,0.822c0.003,0.047,0.001,0.094-0.003,0.142v1.691h-0.529"/>
		<path fill="#040000" d="M73.539,60.443v-1.598c0-0.413-0.233-0.587-0.528-0.587c-0.29-0.013-0.536,0.212-0.549,0.5
			c-0.001,0.03,0,0.059,0.004,0.087v1.598h-0.529v-2.625h0.521v0.265c0.18-0.193,0.433-0.3,0.696-0.295
			c0.239-0.01,0.473,0.076,0.65,0.237c0.189,0.199,0.285,0.469,0.264,0.742v1.676H73.539"/>
		<path fill="#040000" d="M76.237,58.41c-0.218-0.207-0.56-0.207-0.777,0c-0.149,0.208-0.215,0.465-0.183,0.72
			c-0.032,0.254,0.034,0.511,0.183,0.719c0.215,0.211,0.562,0.211,0.777,0c0.15-0.208,0.216-0.465,0.182-0.719
			C76.454,58.875,76.388,58.618,76.237,58.41 M76.626,60.164c-0.443,0.396-1.113,0.396-1.556,0c-0.24-0.288-0.353-0.662-0.311-1.035
			c-0.041-0.373,0.071-0.745,0.311-1.031c0.443-0.396,1.113-0.396,1.556,0c0.24,0.286,0.353,0.658,0.311,1.031
			c0.045,0.371-0.063,0.744-0.3,1.035H76.626z"/>
		<path fill="#040000" d="M78.369,60.443c-0.369,0.03-0.691-0.246-0.72-0.614c-0.003-0.036-0.003-0.073,0-0.109v-2.948h0.529v2.917
			c0,0.203,0.074,0.303,0.284,0.303h0.233v0.451H78.369"/>
		<path fill="#040000" d="M80.531,58.41c-0.219-0.206-0.559-0.206-0.778,0c-0.147,0.208-0.211,0.466-0.178,0.72
			c-0.033,0.254,0.031,0.511,0.178,0.719c0.217,0.209,0.561,0.209,0.778,0c0.149-0.208,0.214-0.465,0.183-0.719
			C80.745,58.875,80.68,58.618,80.531,58.41 M80.919,60.164c-0.205,0.206-0.487,0.318-0.778,0.311
			c-0.292,0.01-0.574-0.103-0.778-0.311c-0.24-0.288-0.354-0.662-0.311-1.035c-0.042-0.373,0.071-0.745,0.311-1.031
			c0.204-0.208,0.486-0.321,0.778-0.311c0.291-0.007,0.573,0.104,0.778,0.311c0.24,0.286,0.353,0.658,0.312,1.031
			c0.044,0.371-0.063,0.744-0.3,1.035H80.919z"/>
		<path fill="#040000" d="M82.899,58.258c-0.475,0-0.537,0.388-0.537,0.824c0,0.437,0.062,0.825,0.537,0.825
			c0.475,0,0.532-0.408,0.532-0.825C83.432,58.667,83.377,58.258,82.899,58.258 M82.837,61.54c-0.344,0.022-0.682-0.105-0.925-0.351
			l0.334-0.333c0.147,0.157,0.356,0.243,0.572,0.233c0.326,0.016,0.603-0.236,0.619-0.562c0.001-0.035,0-0.071-0.005-0.107v-0.339
			c-0.163,0.205-0.416,0.317-0.676,0.3c-0.23,0.01-0.457-0.072-0.626-0.23c-0.239-0.301-0.346-0.687-0.296-1.069
			c-0.05-0.382,0.057-0.768,0.296-1.069c0.172-0.156,0.399-0.237,0.63-0.225c0.268-0.022,0.528,0.095,0.688,0.311v-0.281h0.517v2.61
			c0.032,0.583-0.416,1.082-1,1.113C82.922,61.543,82.879,61.543,82.837,61.54z"/>
		<path fill="#040000" d="M85.625,60.969c-0.039,0.122-0.104,0.233-0.191,0.327c-0.147,0.134-0.342,0.203-0.541,0.19h-0.21v-0.475
			h0.132c0.226,0,0.304-0.069,0.389-0.28l0.144-0.412l-0.917-2.501h0.56l0.626,1.852l0.615-1.852h0.564l-1.167,3.151"/>
		<path fill="#040000" d="M39.067,62.995h-0.833v1.166h0.833c0.322,0,0.583-0.261,0.583-0.583
			C39.651,63.256,39.39,62.995,39.067,62.995 M39.713,66.184l-0.778-1.556h-0.7v1.556h-0.559v-3.69h1.431
			c0.581-0.061,1.101,0.362,1.161,0.941c0.004,0.045,0.006,0.09,0.006,0.135c0.016,0.466-0.303,0.878-0.759,0.979l0.86,1.634H39.713
			z"/>
		<path fill="#040000" d="M42.505,64.297c-0.087-0.207-0.292-0.339-0.517-0.331c-0.226-0.009-0.434,0.123-0.521,0.331
			c-0.051,0.112-0.076,0.234-0.07,0.357h1.167c0.003-0.123-0.021-0.246-0.074-0.357 M41.381,65.025
			c-0.05,0.353,0.196,0.679,0.549,0.728c0.04,0.006,0.08,0.008,0.121,0.006c0.249,0.022,0.493-0.078,0.657-0.268l0.338,0.315
			c-0.251,0.277-0.614,0.427-0.988,0.408c-0.657,0-1.167-0.346-1.167-1.346c0-0.852,0.439-1.346,1.113-1.346
			c0.672,0,1.092,0.522,1.092,1.269v0.233H41.381z"/>
		<path fill="#040000" d="M44.652,66.215c-0.407,0.03-0.807-0.111-1.104-0.39l0.35-0.346c0.203,0.19,0.476,0.29,0.754,0.272
			c0.323,0,0.575-0.113,0.575-0.362c0-0.175-0.097-0.291-0.349-0.312l-0.42-0.035c-0.494-0.042-0.778-0.264-0.778-0.727
			s0.439-0.805,0.987-0.805c0.351-0.023,0.698,0.082,0.977,0.296l-0.33,0.338c-0.193-0.135-0.427-0.199-0.662-0.179
			c-0.319,0-0.479,0.14-0.479,0.334c0,0.195,0.086,0.277,0.362,0.304l0.416,0.035c0.494,0.039,0.778,0.276,0.778,0.743
			c0,0.547-0.466,0.832-1.093,0.832"/>
		<path fill="#040000" d="M47.888,64.297c-0.086-0.206-0.291-0.338-0.513-0.331c-0.227-0.009-0.436,0.123-0.525,0.331
			c-0.048,0.113-0.071,0.236-0.066,0.357h1.167c0-0.123-0.025-0.245-0.074-0.357 M46.767,65.025
			c-0.049,0.353,0.196,0.679,0.549,0.728c0.04,0.006,0.08,0.008,0.12,0.006c0.243,0.016,0.479-0.083,0.638-0.268l0.334,0.315
			c-0.25,0.278-0.611,0.428-0.984,0.408c-0.658,0-1.167-0.346-1.167-1.346c0-0.852,0.439-1.346,1.117-1.346
			c0.676,0,1.111,0.522,1.111,1.269v0.233H46.767z"/>
		<path fill="#040000" d="M50.586,65.025h-0.615c-0.311,0-0.474,0.136-0.474,0.389c0,0.252,0.151,0.389,0.482,0.389
			c0.179,0.022,0.359-0.032,0.493-0.152c0.088-0.109,0.128-0.249,0.113-0.389v-0.209 M50.586,66.219v-0.238
			c-0.181,0.191-0.438,0.29-0.7,0.268c-0.257,0.023-0.512-0.063-0.704-0.237c-0.141-0.154-0.216-0.359-0.21-0.567
			c0-0.44,0.308-0.755,0.91-0.755h0.692v-0.187c0-0.331-0.163-0.494-0.576-0.494c-0.224-0.024-0.444,0.073-0.576,0.256l-0.346-0.326
			c0.23-0.28,0.584-0.426,0.945-0.389c0.719,0,1.081,0.308,1.081,0.902v1.73L50.586,66.219z"/>
		<path fill="#040000" d="M53.375,64.161c-0.095-0.116-0.238-0.181-0.389-0.175c-0.298,0.007-0.534,0.256-0.527,0.554
			c0,0.012,0.001,0.025,0.002,0.038v1.594h-0.524v-2.617h0.517v0.288c0.17-0.208,0.43-0.327,0.699-0.319
			c0.235-0.009,0.463,0.081,0.627,0.25l-0.389,0.388"/>
		<path fill="#040000" d="M55.082,66.215c-0.591,0-1.167-0.362-1.167-1.346c0-0.984,0.58-1.346,1.167-1.346
			c0.334-0.009,0.653,0.134,0.867,0.389l-0.366,0.354c-0.116-0.16-0.303-0.252-0.501-0.248c-0.19-0.007-0.372,0.081-0.486,0.233
			c-0.126,0.187-0.181,0.413-0.156,0.637c-0.024,0.225,0.032,0.453,0.156,0.642c0.115,0.151,0.296,0.238,0.486,0.234
			c0.198,0.001,0.384-0.091,0.501-0.25l0.366,0.346c-0.214,0.255-0.534,0.398-0.867,0.388"/>
		<path fill="#040000" d="M58.15,66.184v-1.61c0.025-0.293-0.192-0.551-0.485-0.576c-0.293-0.025-0.552,0.192-0.576,0.484
			c-0.003,0.031-0.003,0.062,0,0.092v1.61H56.56v-3.69h0.537v1.326c0.172-0.19,0.418-0.298,0.677-0.296
			c0.482-0.022,0.893,0.349,0.917,0.832c0.002,0.044,0.001,0.088-0.003,0.134v1.695h-0.529"/>
		<rect x="60.592" y="62.494" fill="#040000" width="0.561" height="3.69"/>
		<path fill="#040000" d="M63.652,66.184v-1.602c0-0.389-0.229-0.583-0.528-0.583c-0.288-0.013-0.531,0.209-0.543,0.498
			c-0.002,0.028,0,0.057,0.003,0.086v1.602h-0.529v-2.629h0.517v0.265c0.182-0.192,0.436-0.3,0.7-0.296
			c0.239-0.007,0.471,0.079,0.646,0.242c0.191,0.195,0.288,0.466,0.264,0.738v1.68H63.652"/>
		<path fill="#040000" d="M65.847,66.215c-0.407,0.03-0.807-0.111-1.105-0.39l0.35-0.346c0.203,0.19,0.476,0.29,0.755,0.272
			c0.322,0,0.575-0.113,0.575-0.362c0-0.175-0.097-0.291-0.35-0.312l-0.419-0.023c-0.494-0.043-0.778-0.264-0.778-0.728
			c0-0.462,0.439-0.805,0.988-0.805c0.351-0.023,0.697,0.082,0.976,0.296l-0.335,0.338c-0.186-0.138-0.414-0.205-0.646-0.191
			c-0.315,0-0.478,0.14-0.478,0.334c0,0.195,0.085,0.277,0.366,0.304l0.412,0.035c0.494,0.039,0.778,0.276,0.778,0.743
			c0,0.547-0.463,0.832-1.093,0.832"/>
		<path fill="#040000" d="M68.315,66.184c-0.377,0.021-0.699-0.269-0.72-0.647c-0.001-0.028-0.001-0.056,0-0.084v-1.447h-0.299
			v-0.389h0.299v-0.813h0.529v0.797h0.51v0.389h-0.51v1.42c0,0.194,0.093,0.306,0.292,0.306h0.218v0.467h-0.315"/>
		<path fill="#040000" d="M69.303,66.184v-2.629h0.529v2.629H69.303 M69.848,63.037h-0.56v-0.559h0.56V63.037z"/>
		<path fill="#040000" d="M71.454,66.184c-0.377,0.021-0.7-0.269-0.719-0.647c-0.001-0.028-0.001-0.056,0-0.084v-1.447h-0.299
			v-0.389h0.299v-0.813h0.529v0.797h0.51v0.389h-0.51v1.42c0,0.194,0.094,0.306,0.292,0.306h0.218v0.467H71.454"/>
		<path fill="#040000" d="M74.033,66.184v-0.265c-0.182,0.193-0.436,0.301-0.701,0.296c-0.239,0.007-0.472-0.077-0.649-0.238
			c-0.19-0.199-0.286-0.468-0.265-0.743v-1.68h0.529v1.603c-0.042,0.279,0.153,0.541,0.434,0.582
			c0.031,0.004,0.063,0.006,0.095,0.005c0.29,0.014,0.534-0.212,0.547-0.5c0.001-0.029,0-0.058-0.003-0.086v-1.603h0.529v2.629
			H74.033"/>
		<path fill="#040000" d="M76.171,66.184c-0.377,0.021-0.701-0.269-0.721-0.647c-0.001-0.028,0-0.056,0.001-0.084v-1.447h-0.3
			v-0.389h0.3v-0.813h0.528v0.797h0.51v0.389h-0.51v1.42c0,0.194,0.093,0.306,0.292,0.306h0.218v0.467H76.171"/>
		<path fill="#040000" d="M78.645,64.297c-0.086-0.207-0.292-0.339-0.518-0.331c-0.226-0.008-0.434,0.124-0.524,0.331
			c-0.048,0.113-0.071,0.236-0.066,0.357h1.167c0-0.123-0.026-0.245-0.075-0.357 M77.52,65.025c-0.049,0.353,0.197,0.679,0.55,0.728
			c0.039,0.006,0.079,0.008,0.119,0.006c0.243,0.016,0.478-0.083,0.638-0.268l0.334,0.315c-0.249,0.278-0.611,0.428-0.984,0.408
			c-0.658,0-1.167-0.346-1.167-1.346c0-0.852,0.443-1.346,1.116-1.346c0.673,0,1.112,0.522,1.112,1.269v0.233H77.52z"/>
		<path fill="#040000" d="M105.283,51.188c0.007,0.406-0.018,0.813-0.073,1.217c-0.059,0.167-0.114,0.218-0.451,0.218
			c-0.339,0-0.428-0.031-0.428-0.187v-2.593h0.778c0.313-0.004,0.627,0.016,0.937,0.059v-1.008c-0.311,0.04-0.624,0.055-0.937,0.047
			h-3.5c-0.293,0.005-0.585-0.01-0.875-0.047v0.997c0.313-0.041,0.629-0.056,0.945-0.047h0.128c0.003,0.695-0.227,1.371-0.653,1.921
			c-0.431,0.56-1.028,0.97-1.708,1.167c0.256,0.225,0.468,0.495,0.626,0.797c0.808-0.333,1.5-0.897,1.988-1.622
			c0.428-0.684,0.672-1.468,0.707-2.274h0.583v3.014c0,0.553,0.331,0.735,1.377,0.728c1.256,0,1.497-0.195,1.528-2.077
			C105.917,51.448,105.588,51.344,105.283,51.188 M100.55,50.41c-0.006-0.42-0.082-0.836-0.222-1.232
			c-0.15-0.399-0.353-0.777-0.602-1.124c0.478-1.125,0.497-1.125,0.777-1.871v0.778c0,0.189,0,0.475-0.02,0.552
			c-0.02,0.078,0,0.114,0,0.171h0.898v0.494c0.258-0.031,0.518-0.044,0.778-0.039h2.259c0.26-0.005,0.52,0.009,0.778,0.039v-0.463
			h0.922c-0.031-0.235-0.044-0.471-0.039-0.707V46.23c-0.008-0.234,0.005-0.469,0.039-0.7c-0.286,0.039-0.575,0.056-0.864,0.051
			h-1.508v-0.261c-0.009-0.223,0.007-0.448,0.046-0.668h-1.167c0.036,0.21,0.053,0.423,0.051,0.638v0.295h-1.232
			c-0.28,0-0.51,0-0.689,0v-0.031l-0.494-0.521c-0.194,0.036-0.39,0.049-0.587,0.039H98.21c-0.224,0.003-0.447-0.007-0.669-0.031
			c0,0.299,0.031,0.563,0.031,0.882v6.658c0.003,0.373-0.019,0.746-0.063,1.116h1.089c-0.043-0.364-0.06-0.73-0.051-1.098v-6.61
			h0.96c-0.213,0.744-0.486,1.47-0.816,2.17c0.214,0.259,0.401,0.539,0.56,0.836c0.205,0.357,0.325,0.756,0.35,1.166
			c0,0.343-0.069,0.417-0.389,0.417c-0.169,0.004-0.337-0.005-0.505-0.028c0.172,0.312,0.255,0.664,0.241,1.02
			c0.321,0.008,0.641-0.027,0.953-0.105c0.435-0.136,0.649-0.482,0.649-1.049V50.41z M101.468,46.521h3.551v0.715
			c-0.213,0.012-0.429,0.012-0.642,0h-2.26c-0.338,0-0.493,0-0.649,0V46.521z M65.69,49.633c0.164-0.226,0.308-0.463,0.432-0.712
			l-0.532-0.588c-0.231,0.032-0.464,0.046-0.696,0.04h-0.957v-1.362h1.311c0.369,0,0.738,0.018,1.104,0.059v-1.078
			c-0.367,0.043-0.736,0.062-1.104,0.059h-1.311v-0.283c-0.008-0.335,0.009-0.67,0.047-1.003h-1.167
			c0.05,0.334,0.069,0.673,0.058,1.011v0.276h-0.956c-0.368,0.004-0.735-0.012-1.101-0.051v1.051
			c0.28-0.028,0.666-0.047,1.112-0.047h0.945v1.334h-0.991c-0.326,0.001-0.652-0.018-0.976-0.059v1.027
			c0.175-0.02,0.229-0.02,0.389-0.027c0.329,0.809,0.81,1.548,1.415,2.178c-0.794,0.587-1.687,1.028-2.636,1.299
			c0.21,0.288,0.386,0.6,0.521,0.929c1.025-0.327,1.979-0.844,2.812-1.528c0.783,0.654,1.667,1.18,2.617,1.555
			c0.134-0.372,0.337-0.714,0.599-1.012c-0.893-0.258-1.734-0.672-2.485-1.22c0.566-0.581,1.081-1.208,1.541-1.874L65.69,49.633z
			 M63.446,50.834c-0.443-0.445-0.806-0.963-1.073-1.532h2.384c-0.369,0.561-0.814,1.066-1.322,1.505L63.446,50.834z M69.98,50.605
			c-0.103,0.566-0.267,1.119-0.486,1.651c0.299,0.134,0.59,0.284,0.871,0.451c0.431-1.396,0.663-2.844,0.689-4.304l-0.883-0.128
			c-0.02,0.771-0.087,1.54-0.203,2.303L69.98,50.605z M73.43,48.217l-0.845,0.209c0.308,1.171,0.519,2.365,0.63,3.57l0.882-0.28
			C73.948,50.537,73.726,49.368,73.43,48.217z M95.142,52.289c-0.07,0.194-0.024,0.221-0.739,0.221c-0.35,0-0.436-0.058-0.427-0.307
			l0.031-1.793c0-0.451,0-0.614,0.039-0.871c-0.339,0.035-0.679,0.048-1.018,0.039h-1.393c0-0.128,0-0.33,0.027-0.478
			c0.002-0.261,0.031-0.522,0.085-0.778H90.58c0.03,0.182,0.044,0.367,0.042,0.552c0.004,0.236-0.008,0.474-0.035,0.708h-1.68
			c-0.355,0.007-0.709-0.012-1.062-0.055v1.067c0.36-0.045,0.722-0.063,1.085-0.05h1.451c-0.16,0.703-1.311,1.838-3.022,2.254
			c0.254,0.252,0.46,0.549,0.607,0.875c0.86-0.267,1.655-0.709,2.333-1.303c0.567-0.475,0.974-1.113,1.167-1.827h1.486l-0.028,1.971
			v0.07c0,0.707,0.288,0.89,1.474,0.89c1.808,0,1.715-0.066,1.871-2.365c-0.354-0.061-0.697-0.173-1.02-0.331
			c0.013,0.512-0.031,1.022-0.127,1.525L95.142,52.289z M80.893,48.136c-0.194,0.021-0.389,0.029-0.584,0.026h-1.166
			c0.276-0.666,0.449-1.37,0.51-2.087h0.505c0.303-0.005,0.605,0.008,0.906,0.039v-1.042c-0.309,0.048-0.621,0.068-0.934,0.058
			h-1.692c-0.315,0.004-0.629-0.016-0.94-0.058v1.049c0.289-0.039,0.583-0.056,0.875-0.05h0.335c-0.14,1.373-0.768,2.65-1.77,3.6
			c0.147,0.399,0.254,0.811,0.319,1.23c0.314-0.341,0.602-0.705,0.859-1.089c-0.02,0.525,0,0.502,0,0.883v1.699
			c0.003,0.331-0.016,0.66-0.058,0.987h1.026v-0.887h0.867v0.444h0.945c-0.026-0.25-0.036-0.503-0.031-0.755v-3.344
			C80.857,48.604,80.866,48.369,80.893,48.136z M79.959,51.635H79.08v-2.559h0.879V51.635z M74.208,47.439
			c-0.208-0.002-0.416-0.017-0.622-0.043c0-0.093,0-0.179,0-0.222c0-0.105,0-0.514,0-0.514c-0.258,0.036-0.519,0.049-0.778,0.04
			H72.36v-0.868c-0.009-0.354,0.01-0.708,0.058-1.058h-1.093c0.047,0.35,0.067,0.704,0.059,1.058v0.847h-0.51
			c-0.293,0.007-0.587-0.008-0.879-0.046v0.662l-0.12-0.074l-0.677-0.39c-0.11,0.27-0.24,0.529-0.389,0.778
			c-0.424,0.654-0.95,1.236-1.555,1.727c0.166,0.318,0.297,0.655,0.389,1.003c0.235-0.199,0.452-0.419,0.646-0.659v2.882
			c0.003,0.367-0.02,0.734-0.07,1.098h1.077c-0.042-0.364-0.06-0.731-0.05-1.098v-3.868c0.279-0.382,0.527-0.787,0.739-1.209v0.205
			c0.208-0.031,0.419-0.046,0.629-0.043h0.778v4.846c0.009,0.39-0.011,0.78-0.058,1.168h1.092c-0.048-0.387-0.067-0.778-0.059-1.168
			v-4.846h0.44c0.213,0,0.626,0,0.801,0.02v0.778c0.205-0.03,0.411-0.043,0.619-0.039h0.432v3.97c0,0.175-0.07,0.221-0.312,0.221
			c-0.383,0-0.765-0.029-1.143-0.084c0.132,0.323,0.208,0.666,0.226,1.015c0.474,0.024,0.586,0.024,0.777,0.024
			c0.33,0.012,0.659-0.021,0.979-0.098c0.319-0.128,0.444-0.389,0.444-0.902v-4.149c0.282-0.006,0.563,0.006,0.844,0.038v-1.073
			c-0.257,0.041-0.518,0.058-0.778,0.051L74.208,47.439z M87.515,47.548h1.054v-1.116h1.583c-0.022,0.422-0.214,0.815-0.533,1.093
			c-0.357,0.307-0.724,0.463-1.882,0.676c0.225,0.274,0.419,0.572,0.58,0.888c1.225-0.292,1.913-0.662,2.36-1.284
			c0.276-0.415,0.463-0.882,0.548-1.373h0.75v1.556c0,0.559,0.284,0.715,1.288,0.715c0.93,0,1.283-0.039,1.505-0.137
			c0.279-0.128,0.388-0.26,0.474-0.8l0.043-0.245h0.724c-0.029-0.237-0.042-0.477-0.039-0.716v-0.642
			c-0.004-0.24,0.009-0.481,0.039-0.719c-0.354,0.037-0.71,0.052-1.066,0.047h-2.722v-0.207c-0.008-0.204,0.007-0.41,0.046-0.611
			h-1.167c0.042,0.201,0.061,0.406,0.058,0.611v0.21h-2.563c-0.355,0.005-0.711-0.01-1.065-0.047
			c0.029,0.239,0.043,0.479,0.039,0.721v0.66c0,0.234-0.017,0.469-0.05,0.7L87.515,47.548z M92.959,46.452h1.991v0.646v0.252
			c-0.217-0.041-0.432-0.096-0.642-0.167c0.008,0.157-0.017,0.314-0.07,0.462c-0.066,0.125-0.175,0.175-0.649,0.175
			c-0.533,0-0.611-0.027-0.611-0.246L92.959,46.452z M85.256,48.357v-2.313c0.335-0.009,0.671,0.006,1.003,0.046v-1.057
			c-0.345,0.042-0.691,0.063-1.038,0.058h-2.8c-0.356,0.009-0.713-0.01-1.066-0.058v1.057c0.28-0.036,0.563-0.051,0.844-0.046v2.294
			c-0.34,0.009-0.681-0.006-1.019-0.047v1.093c0.333-0.042,0.668-0.061,1.003-0.051c-0.007,0.515-0.063,1.028-0.167,1.532
			c-0.175,0.828-0.562,1.596-1.124,2.228c0.335,0.153,0.63,0.384,0.859,0.673c0.646-0.816,1.365-2.029,1.423-4.433h1.088v3.204
			c0.001,0.39-0.019,0.779-0.058,1.167h1.12c-0.046-0.387-0.07-0.776-0.07-1.167v-3.212h0.078c0.341-0.009,0.684,0.008,1.023,0.051
			v-1.084c-0.339,0.041-0.682,0.056-1.023,0.047L85.256,48.357z M84.264,48.357h-1.069v-2.313h1.069V48.357z M73.818,46.151
			l0.082-0.038v0.237c0.25-0.037,0.502-0.054,0.755-0.051h0.89c0.252-0.003,0.505,0.013,0.755,0.051v-1.085
			c-0.25,0.04-0.502,0.056-0.755,0.046h-0.89c-0.253,0.007-0.506-0.008-0.755-0.046v0.743l-0.05-0.125
			c-0.202-0.357-0.425-0.704-0.665-1.038l-0.735,0.416c0.284,0.389,0.521,0.81,0.707,1.252L73.818,46.151z M53.134,51.328h1.944
			c0.39-0.002,0.779,0.017,1.167,0.058v-0.983c-0.387,0.041-0.777,0.06-1.167,0.054h-2.722v-0.525h2.018
			c0.334-0.007,0.667,0.01,1,0.05v-0.875c-0.332,0.041-0.666,0.058-1,0.051h-2.026v-0.518h2.527
			c0.334-0.007,0.668,0.008,0.999,0.047v-0.921c-0.332,0.031-0.665,0.043-0.999,0.039h-1.12c0.132-0.209,0.251-0.426,0.358-0.649
			h0.968c0.39-0.003,0.779,0.014,1.167,0.051v-0.968c-0.364,0.043-0.73,0.062-1.097,0.054h-0.269c0.209-0.3,0.35-0.595,0.579-0.98
			l-0.995-0.389c-0.162,0.481-0.391,0.935-0.681,1.35h-0.61v-0.736c-0.002-0.252,0.013-0.504,0.047-0.753h-1.054
			c0.022,0.236,0.033,0.473,0.031,0.711v0.778h-0.688v-0.778c-0.003-0.239,0.007-0.478,0.032-0.716h-1.058
			c0.028,0.251,0.043,0.503,0.042,0.755v0.758H49.98c-0.197-0.463-0.443-0.905-0.731-1.318l-0.969,0.366
			c0.261,0.284,0.48,0.605,0.649,0.952h-0.311c-0.369,0.006-0.738-0.012-1.104-0.054v0.968c0.388-0.036,0.777-0.054,1.167-0.051
			h1.027c0.13,0.21,0.25,0.427,0.357,0.649h-1.167c-0.332,0.005-0.665-0.008-0.996-0.039v0.921c0.331-0.038,0.664-0.054,0.996-0.047
			h2.423v0.518h-1.917c-0.33,0.007-0.661-0.01-0.988-0.051v0.875c0.328-0.041,0.658-0.057,0.988-0.05h1.917v0.525h-2.566
			c-0.39,0.005-0.78-0.013-1.167-0.054v0.967c0.387-0.041,0.777-0.06,1.167-0.058h1.8c-0.712,0.599-1.894,1.036-3.247,1.28
			c0.239,0.281,0.438,0.594,0.591,0.93c0.688-0.196,1.352-0.469,1.979-0.814c0.528-0.318,1.021-0.689,1.475-1.108
			c0,0.214,0,0.72,0,0.72v0.447c0.003,0.33-0.017,0.661-0.059,0.988h1.135c-0.052-0.324-0.074-0.652-0.065-0.98V52.32
			c0,0,0-0.533-0.02-0.75c1.01,0.947,2.248,1.617,3.593,1.944c0.136-0.353,0.322-0.684,0.552-0.983
			c-0.691-0.108-1.369-0.29-2.021-0.545C53.998,51.821,53.55,51.601,53.134,51.328z M51.096,47.828
			c-0.083-0.223-0.178-0.439-0.289-0.649h2.205c-0.089,0.225-0.195,0.441-0.318,0.649H51.096z M60.666,48.727l-0.813,0.272v-1.532
			h0.144c0.199,0,0.398,0.012,0.595,0.039v-1.018c-0.193,0.028-0.389,0.042-0.583,0.039h-0.155v-0.758
			c-0.008-0.338,0.012-0.676,0.059-1.011h-1.167c0.042,0.338,0.062,0.678,0.058,1.019v0.751h-0.389
			c-0.254,0.005-0.508-0.014-0.759-0.055v1.047c0.248-0.034,0.498-0.051,0.747-0.051h0.409v1.875
			c-0.395,0.14-0.801,0.244-1.213,0.31l0.213,1.051c0.105-0.05,0.272-0.097,0.389-0.145c0.112-0.028,0.222-0.064,0.327-0.108
			c0.09-0.021,0.178-0.049,0.264-0.082v2.038c0,0.265-0.058,0.303-0.389,0.303c-0.261-0.006-0.521-0.032-0.778-0.077
			c0.134,0.321,0.212,0.66,0.233,1.007c0.3,0,0.452,0.027,0.685,0.027c1.027,0,1.28-0.183,1.28-0.957v-2.752
			c0.311-0.125,0.311-0.097,0.813-0.292L60.666,48.727z M70.073,45.227l-0.867-0.509c-0.472,0.727-1.11,1.331-1.863,1.762
			c0.191,0.28,0.339,0.589,0.439,0.914c0.926-0.538,1.71-1.286,2.29-2.186V45.227z M42.319,52.04v-5.114h2.131
			c0.416-0.003,0.831,0.017,1.244,0.058v-1.143c-0.41,0.038-0.824,0.052-1.236,0.042h-5.211c-0.421,0.007-0.841-0.012-1.26-0.058
			v1.158c0.414-0.042,0.831-0.063,1.249-0.058h1.945v5.114h-2.408c-0.446,0.008-0.893-0.014-1.337-0.066v1.167
			c0.438-0.048,0.878-0.069,1.318-0.065h6.179c0.442-0.007,0.883,0.016,1.323,0.065v-1.167c-0.439,0.051-0.881,0.074-1.323,0.066
			H42.319z"/>
	</g>
</g>
</svg>
