<?xml version="1.0" encoding="utf-8"?>
<!-- Generator: Adobe Illustrator 16.0.0, SVG Export Plug-In . SVG Version: 6.00 Build 0)  -->
<!DOCTYPE svg PUBLIC "-//W3C//DTD SVG 1.1//EN" "http://www.w3.org/Graphics/SVG/1.1/DTD/svg11.dtd">
<svg version="1.1" id="圖層_1" xmlns="http://www.w3.org/2000/svg" xmlns:xlink="http://www.w3.org/1999/xlink" x="0px" y="0px"
	 width="110px" height="110px" viewBox="0 0 110 110" enable-background="new 0 0 110 110" xml:space="preserve">
<g id="Layer_x0020_1">
	<g id="_54850976">
		<path id="_55455728" fill="none" stroke="#1E1917" stroke-width="0.0876" d="M41.727,86.781l15.211,0.116h15.684
			c12.989-5.869,22.105-18.998,22.105-34.158c0-20.621-16.828-37.466-37.408-37.466c-20.623,0-37.46,16.845-37.46,37.466
			C19.859,67.823,28.826,80.884,41.727,86.781z"/>
		<path id="_55455624" fill="#FFFFFF" d="M27.471,35.286v-5.124c-1.217,1.612-2.308,3.327-3.265,5.124H27.471z"/>
		<path id="_54963968" fill="none" stroke="#1E1917" stroke-width="0.0886" d="M27.471,35.286v-5.124
			c-1.217,1.612-2.308,3.327-3.265,5.124H27.471z"/>
		<path id="_54855600" fill="#FFFFFF" d="M83.332,25.896v3.681h3.333C85.635,28.284,84.525,27.045,83.332,25.896z"/>
		<path id="_54855848" fill="none" stroke="#1E1917" stroke-width="0.0886" d="M83.332,25.896v3.681h3.333
			C85.635,28.284,84.525,27.045,83.332,25.896z"/>
		<path id="_54857824" fill="#FFFFFF" d="M64.728,16.026v2.094h3.643v-1.159C67.175,16.584,65.96,16.273,64.728,16.026z"/>
		<path id="_54859104" fill="none" stroke="#1E1917" stroke-width="0.0886" d="M64.728,16.026v2.094h3.643v-1.159
			C67.175,16.584,65.96,16.273,64.728,16.026z"/>
		<polygon id="_54861800" fill="#FFFFFF" points="31.258,29.529 34.883,29.529 34.883,35.287 31.258,35.287 		"/>
		<polygon id="_54948720" fill="none" stroke="#1E1917" stroke-width="0.0886" points="31.258,29.529 34.883,29.529 34.883,35.287 
			31.258,35.287 		"/>
		<polygon id="_54950280" fill="#FFFFFF" points="31.258,35.286 34.883,35.286 34.883,41.033 31.258,41.033 		"/>
		<polygon id="_54951256" fill="none" stroke="#1E1917" stroke-width="0.0886" points="31.258,35.286 34.883,35.286 34.883,41.033 
			31.258,41.033 		"/>
		<polygon id="_54952408" fill="#FFFFFF" points="31.258,40.983 34.883,40.983 34.883,46.737 31.258,46.737 		"/>
		<polygon id="_54953560" fill="none" stroke="#1E1917" stroke-width="0.0886" points="31.258,40.983 34.883,40.983 34.883,46.737 
			31.258,46.737 		"/>
		<polygon id="_54954712" fill="#FFFFFF" points="31.258,46.735 34.883,46.735 34.883,52.487 31.258,52.487 		"/>
		<polygon id="_54955864" fill="none" stroke="#1E1917" stroke-width="0.0886" points="31.258,46.735 34.883,46.735 34.883,52.487 
			31.258,52.487 		"/>
		<polygon id="_54957016" fill="#FFFFFF" points="31.258,52.436 34.883,52.436 34.883,58.183 31.258,58.183 		"/>
		<polygon id="_54958168" fill="none" stroke="#1E1917" stroke-width="0.0886" points="31.258,52.436 34.883,52.436 34.883,58.183 
			31.258,58.183 		"/>
		<polygon id="_54959320" fill="#FFFFFF" points="31.258,58.183 34.883,58.183 34.883,63.94 31.258,63.94 		"/>
		<polygon id="_55419992" fill="none" stroke="#1E1917" stroke-width="0.0886" points="31.258,58.183 34.883,58.183 34.883,63.94 
			31.258,63.94 		"/>
		<polygon id="_55421144" fill="#FFFFFF" points="31.258,63.884 34.883,63.884 34.883,69.632 31.258,69.632 		"/>
		<polygon id="_55422296" fill="none" stroke="#1E1917" stroke-width="0.0886" points="31.258,63.884 34.883,63.884 34.883,69.632 
			31.258,69.632 		"/>
		<polygon id="_55423448" fill="#FFFFFF" points="31.258,69.585 34.883,69.585 34.883,75.341 31.258,75.341 		"/>
		<polygon id="_55424600" fill="none" stroke="#1E1917" stroke-width="0.0886" points="31.258,69.585 34.883,69.585 34.883,75.341 
			31.258,75.341 		"/>
		<polygon id="_55425752" fill="#FFFFFF" points="27.536,35.286 31.153,35.286 31.153,41.033 27.536,41.033 		"/>
		<polygon id="_55426904" fill="none" stroke="#1E1917" stroke-width="0.0886" points="27.536,35.286 31.153,35.286 31.153,41.033 
			27.536,41.033 		"/>
		<polygon id="_55428056" fill="#FFFFFF" points="27.536,40.983 31.153,40.983 31.153,46.737 27.536,46.737 		"/>
		<polygon id="_55429208" fill="none" stroke="#1E1917" stroke-width="0.0886" points="27.536,40.983 31.153,40.983 31.153,46.737 
			27.536,46.737 		"/>
		<polygon id="_55430360" fill="#FFFFFF" points="27.536,46.735 31.153,46.735 31.153,52.487 27.536,52.487 		"/>
		<polygon id="_55431512" fill="none" stroke="#1E1917" stroke-width="0.0886" points="27.536,46.735 31.153,46.735 31.153,52.487 
			27.536,52.487 		"/>
		<polygon id="_55432664" fill="#FFFFFF" points="27.536,52.436 31.153,52.436 31.153,58.183 27.536,58.183 		"/>
		<polygon id="_55433816" fill="none" stroke="#1E1917" stroke-width="0.0886" points="27.536,52.436 31.153,52.436 31.153,58.183 
			27.536,58.183 		"/>
		<polygon id="_55434968" fill="#FFFFFF" points="27.536,58.183 31.153,58.183 31.153,63.94 27.536,63.94 		"/>
		<polygon id="_55436120" fill="none" stroke="#1E1917" stroke-width="0.0886" points="27.536,58.183 31.153,58.183 31.153,63.94 
			27.536,63.94 		"/>
		<polygon id="_55437272" fill="#FFFFFF" points="27.536,63.884 31.153,63.884 31.153,69.632 27.536,69.632 		"/>
		<polygon id="_55438424" fill="none" stroke="#1E1917" stroke-width="0.0886" points="27.536,63.884 31.153,63.884 31.153,69.632 
			27.536,69.632 		"/>
		<polygon id="_55439576" fill="#FFFFFF" points="27.536,69.585 31.153,69.585 31.153,75.341 27.536,75.341 		"/>
		<polygon id="_55440728" fill="none" stroke="#1E1917" stroke-width="0.0886" points="27.536,69.585 31.153,69.585 31.153,75.341 
			27.536,75.341 		"/>
		<polygon id="_55441880" fill="#FFFFFF" points="23.843,40.983 27.473,40.983 27.473,46.737 23.843,46.737 		"/>
		<polygon id="_55443032" fill="none" stroke="#1E1917" stroke-width="0.0886" points="23.843,40.983 27.473,40.983 27.473,46.737 
			23.843,46.737 		"/>
		<polygon id="_55444184" fill="#FFFFFF" points="23.843,46.735 27.473,46.735 27.473,52.487 23.843,52.487 		"/>
		<polygon id="_55445336" fill="none" stroke="#1E1917" stroke-width="0.0886" points="23.843,46.735 27.473,46.735 27.473,52.487 
			23.843,52.487 		"/>
		<polygon id="_55446488" fill="#FFFFFF" points="23.843,52.436 27.473,52.436 27.473,58.183 23.843,58.183 		"/>
		<polygon id="_55447640" fill="none" stroke="#1E1917" stroke-width="0.0886" points="23.843,52.436 27.473,52.436 27.473,58.183 
			23.843,58.183 		"/>
		<polygon id="_55448792" fill="#FFFFFF" points="23.843,58.183 27.473,58.183 27.473,63.94 23.843,63.94 		"/>
		<polygon id="_55449944" fill="none" stroke="#1E1917" stroke-width="0.0886" points="23.843,58.183 27.473,58.183 27.473,63.94 
			23.843,63.94 		"/>
		<polygon id="_55451096" fill="#FFFFFF" points="34.996,23.829 38.619,23.829 38.619,29.577 34.996,29.577 		"/>
		<polygon id="_55452248" fill="none" stroke="#1E1917" stroke-width="0.0886" points="34.996,23.829 38.619,23.829 38.619,29.577 
			34.996,29.577 		"/>
		<polygon id="_54194696" fill="#FFFFFF" points="34.996,29.529 38.619,29.529 38.619,35.287 34.996,35.287 		"/>
		<polygon id="_54195848" fill="none" stroke="#1E1917" stroke-width="0.0886" points="34.996,29.529 38.619,29.529 38.619,35.287 
			34.996,35.287 		"/>
		<polygon id="_54197000" fill="#FFFFFF" points="34.996,35.286 38.619,35.286 38.619,41.033 34.996,41.033 		"/>
		<polygon id="_54198152" fill="none" stroke="#1E1917" stroke-width="0.0886" points="34.996,35.286 38.619,35.286 38.619,41.033 
			34.996,41.033 		"/>
		<polygon id="_54199304" fill="#FFFFFF" points="34.996,40.983 38.619,40.983 38.619,46.737 34.996,46.737 		"/>
		<polygon id="_54200456" fill="none" stroke="#1E1917" stroke-width="0.0886" points="34.996,40.983 38.619,40.983 38.619,46.737 
			34.996,46.737 		"/>
		<polygon id="_54201608" fill="#FFFFFF" points="34.996,46.735 38.619,46.735 38.619,52.487 34.996,52.487 		"/>
		<polygon id="_54202352" fill="none" stroke="#1E1917" stroke-width="0.0886" points="34.996,46.735 38.619,46.735 38.619,52.487 
			34.996,52.487 		"/>
		<polygon id="_54806024" fill="#FFFFFF" points="34.996,52.436 38.619,52.436 38.619,58.183 34.996,58.183 		"/>
		<polygon id="_54807176" fill="none" stroke="#1E1917" stroke-width="0.0886" points="34.996,52.436 38.619,52.436 38.619,58.183 
			34.996,58.183 		"/>
		<polygon id="_54808328" fill="#FFFFFF" points="34.996,58.183 38.619,58.183 38.619,63.94 34.996,63.94 		"/>
		<polygon id="_54809480" fill="none" stroke="#1E1917" stroke-width="0.0886" points="34.996,58.183 38.619,58.183 38.619,63.94 
			34.996,63.94 		"/>
		<polygon id="_54810632" fill="#FFFFFF" points="34.996,63.884 38.619,63.884 38.619,69.632 34.996,69.632 		"/>
		<polygon id="_54811784" fill="none" stroke="#1E1917" stroke-width="0.0886" points="34.996,63.884 38.619,63.884 38.619,69.632 
			34.996,69.632 		"/>
		<polygon id="_54812648" fill="#FFFFFF" points="34.996,69.585 38.619,69.585 38.619,75.341 34.996,75.341 		"/>
		<polygon id="_54822288" fill="none" stroke="#1E1917" stroke-width="0.0886" points="34.996,69.585 38.619,69.585 38.619,75.341 
			34.996,75.341 		"/>
		<polygon id="_54823440" fill="#FFFFFF" points="34.996,75.339 38.619,75.339 38.619,81.091 34.996,81.091 		"/>
		<polygon id="_54824592" fill="none" stroke="#1E1917" stroke-width="0.0886" points="34.996,75.339 38.619,75.339 38.619,81.091 
			34.996,81.091 		"/>
		<polygon id="_54824944" fill="#1E1917" points="38.717,23.829 42.35,23.829 42.35,29.577 38.717,29.577 		"/>
		<polygon id="_54863760" fill="none" stroke="#1E1917" stroke-width="0.0886" points="38.717,23.829 42.35,23.829 42.35,29.577 
			38.717,29.577 		"/>
		<polygon id="_54864912" fill="#FFFFFF" points="38.717,29.529 42.35,29.529 42.35,35.287 38.717,35.287 		"/>
		<polygon id="_54866064" fill="none" stroke="#1E1917" stroke-width="0.0886" points="38.717,29.529 42.35,29.529 42.35,35.287 
			38.717,35.287 		"/>
		<polygon id="_54867216" fill="#FFFFFF" points="38.717,35.286 42.35,35.286 42.35,41.033 38.717,41.033 		"/>
		<polygon id="_54868368" fill="none" stroke="#1E1917" stroke-width="0.0886" points="38.717,35.286 42.35,35.286 42.35,41.033 
			38.717,41.033 		"/>
		<polygon id="_54869520" fill="#FFFFFF" points="38.717,40.983 42.35,40.983 42.35,46.737 38.717,46.737 		"/>
		<polygon id="_55394960" fill="none" stroke="#1E1917" stroke-width="0.0886" points="38.717,40.983 42.35,40.983 42.35,46.737 
			38.717,46.737 		"/>
		<polygon id="_55396112" fill="#FFFFFF" points="38.717,46.735 42.35,46.735 42.35,52.487 38.717,52.487 		"/>
		<polygon id="_55397264" fill="none" stroke="#1E1917" stroke-width="0.0886" points="38.717,46.735 42.35,46.735 42.35,52.487 
			38.717,52.487 		"/>
		<polygon id="_55398416" fill="#FFFFFF" points="38.717,52.436 42.35,52.436 42.35,58.183 38.717,58.183 		"/>
		<polygon id="_55399568" fill="none" stroke="#1E1917" stroke-width="0.0886" points="38.717,52.436 42.35,52.436 42.35,58.183 
			38.717,58.183 		"/>
		<polygon id="_55400720" fill="#FFFFFF" points="38.717,58.183 42.35,58.183 42.35,63.94 38.717,63.94 		"/>
		<polygon id="_55401872" fill="none" stroke="#1E1917" stroke-width="0.0886" points="38.717,58.183 42.35,58.183 42.35,63.94 
			38.717,63.94 		"/>
		<polygon id="_55456288" fill="#FFFFFF" points="38.717,63.884 42.35,63.884 42.35,69.632 38.717,69.632 		"/>
		<polygon id="_55457424" fill="none" stroke="#1E1917" stroke-width="0.0886" points="38.717,63.884 42.35,63.884 42.35,69.632 
			38.717,69.632 		"/>
		<polygon id="_55458576" fill="#FFFFFF" points="38.717,69.585 42.35,69.585 42.35,75.341 38.717,75.341 		"/>
		<polygon id="_55459728" fill="none" stroke="#1E1917" stroke-width="0.0886" points="38.717,69.585 42.35,69.585 42.35,75.341 
			38.717,75.341 		"/>
		<polygon id="_55460880" fill="#1E1917" points="38.717,75.339 42.35,75.339 42.35,81.091 38.717,81.091 		"/>
		<polygon id="_55462032" fill="none" stroke="#1E1917" stroke-width="0.0886" points="38.717,75.339 42.35,75.339 42.35,81.091 
			38.717,81.091 		"/>
		<polygon id="_55463184" fill="#FFFFFF" points="42.399,23.829 46.023,23.829 46.023,29.577 42.399,29.577 		"/>
		<polygon id="_55464336" fill="none" stroke="#1E1917" stroke-width="0.0886" points="42.399,23.829 46.023,23.829 46.023,29.577 
			42.399,29.577 		"/>
		<polygon id="_55465488" fill="#1E1917" points="42.399,29.529 46.023,29.529 46.023,35.287 42.399,35.287 		"/>
		<polygon id="_55466640" fill="none" stroke="#1E1917" stroke-width="0.0886" points="42.399,29.529 46.023,29.529 46.023,35.287 
			42.399,35.287 		"/>
		<polygon id="_55467792" fill="#FFFFFF" points="42.399,35.286 46.023,35.286 46.023,41.033 42.399,41.033 		"/>
		<polygon id="_55489424" fill="none" stroke="#1E1917" stroke-width="0.0886" points="42.399,35.286 46.023,35.286 46.023,41.033 
			42.399,41.033 		"/>
		<polygon id="_55490576" fill="#FFFFFF" points="42.399,40.983 46.023,40.983 46.023,46.737 42.399,46.737 		"/>
		<polygon id="_55491728" fill="none" stroke="#1E1917" stroke-width="0.0886" points="42.399,40.983 46.023,40.983 46.023,46.737 
			42.399,46.737 		"/>
		<polygon id="_55492880" fill="#FFFFFF" points="42.399,46.735 46.023,46.735 46.023,52.487 42.399,52.487 		"/>
		<polygon id="_55494032" fill="none" stroke="#1E1917" stroke-width="0.0886" points="42.399,46.735 46.023,46.735 46.023,52.487 
			42.399,52.487 		"/>
		<polygon id="_55495184" fill="#FFFFFF" points="42.399,52.436 46.023,52.436 46.023,58.183 42.399,58.183 		"/>
		<polygon id="_55496336" fill="none" stroke="#1E1917" stroke-width="0.0886" points="42.399,52.436 46.023,52.436 46.023,58.183 
			42.399,58.183 		"/>
		<polygon id="_55497488" fill="#FFFFFF" points="42.399,58.183 46.023,58.183 46.023,63.94 42.399,63.94 		"/>
		<polygon id="_55498640" fill="none" stroke="#1E1917" stroke-width="0.0886" points="42.399,58.183 46.023,58.183 46.023,63.94 
			42.399,63.94 		"/>
		<polygon id="_55499792" fill="#FFFFFF" points="42.399,63.884 46.023,63.884 46.023,69.632 42.399,69.632 		"/>
		<polygon id="_55500944" fill="none" stroke="#1E1917" stroke-width="0.0886" points="42.399,63.884 46.023,63.884 46.023,69.632 
			42.399,69.632 		"/>
		<polygon id="_55502096" fill="#1E1917" points="42.399,69.585 46.023,69.585 46.023,75.341 42.399,75.341 		"/>
		<polygon id="_55503248" fill="none" stroke="#1E1917" stroke-width="0.0886" points="42.399,69.585 46.023,69.585 46.023,75.341 
			42.399,75.341 		"/>
		<polygon id="_55504400" fill="#FFFFFF" points="42.399,75.339 46.023,75.339 46.023,81.091 42.399,81.091 		"/>
		<polygon id="_55505552" fill="none" stroke="#1E1917" stroke-width="0.0886" points="42.399,75.339 46.023,75.339 46.023,81.091 
			42.399,81.091 		"/>
		<polygon id="_55506704" fill="#1E1917" points="42.399,81.027 46.023,81.027 46.023,86.781 42.399,86.781 		"/>
		<polygon id="_55507856" fill="none" stroke="#1E1917" stroke-width="0.0886" points="42.399,81.027 46.023,81.027 46.023,86.781 
			42.399,86.781 		"/>
		<polygon id="_55509008" fill="#FFFFFF" points="46.128,23.829 49.759,23.829 49.759,29.577 46.128,29.577 		"/>
		<polygon id="_55510160" fill="none" stroke="#1E1917" stroke-width="0.0886" points="46.128,23.829 49.759,23.829 49.759,29.577 
			46.128,29.577 		"/>
		<polygon id="_55511312" fill="#FFFFFF" points="46.128,18.078 49.759,18.078 49.759,23.829 46.128,23.829 		"/>
		<polygon id="_55512464" fill="none" stroke="#1E1917" stroke-width="0.0886" points="46.128,18.078 49.759,18.078 49.759,23.829 
			46.128,23.829 		"/>
		<polygon id="_55513616" fill="#FFFFFF" points="46.128,29.529 49.759,29.529 49.759,35.287 46.128,35.287 		"/>
		<polygon id="_55514768" fill="none" stroke="#1E1917" stroke-width="0.0886" points="46.128,29.529 49.759,29.529 49.759,35.287 
			46.128,35.287 		"/>
		<polygon id="_55515920" fill="#FFFFFF" points="46.128,35.286 49.759,35.286 49.759,41.033 46.128,41.033 		"/>
		<polygon id="_55517072" fill="none" stroke="#1E1917" stroke-width="0.0886" points="46.128,35.286 49.759,35.286 49.759,41.033 
			46.128,41.033 		"/>
		<polygon id="_55518224" fill="#FFFFFF" points="46.128,40.983 49.759,40.983 49.759,46.737 46.128,46.737 		"/>
		<polygon id="_55519376" fill="none" stroke="#1E1917" stroke-width="0.0886" points="46.128,40.983 49.759,40.983 49.759,46.737 
			46.128,46.737 		"/>
		<polygon id="_55520528" fill="#FFFFFF" points="46.128,46.735 49.759,46.735 49.759,52.487 46.128,52.487 		"/>
		<polygon id="_55521680" fill="none" stroke="#1E1917" stroke-width="0.0886" points="46.128,46.735 49.759,46.735 49.759,52.487 
			46.128,52.487 		"/>
		<polygon id="_55522832" fill="#FFFFFF" points="46.128,52.436 49.759,52.436 49.759,58.183 46.128,58.183 		"/>
		<polygon id="_55523984" fill="none" stroke="#1E1917" stroke-width="0.0886" points="46.128,52.436 49.759,52.436 49.759,58.183 
			46.128,58.183 		"/>
		<polygon id="_55525136" fill="#FFFFFF" points="46.128,58.183 49.759,58.183 49.759,63.94 46.128,63.94 		"/>
		<polygon id="_55403408" fill="none" stroke="#1E1917" stroke-width="0.0886" points="46.128,58.183 49.759,58.183 49.759,63.94 
			46.128,63.94 		"/>
		<polygon id="_55404560" fill="#FFFFFF" points="46.128,63.884 49.759,63.884 49.759,69.632 46.128,69.632 		"/>
		<polygon id="_55405712" fill="none" stroke="#1E1917" stroke-width="0.0886" points="46.128,63.884 49.759,63.884 49.759,69.632 
			46.128,69.632 		"/>
		<polygon id="_55406864" fill="#FFFFFF" points="46.128,69.585 49.759,69.585 49.759,75.341 46.128,75.341 		"/>
		<polygon id="_55408016" fill="none" stroke="#1E1917" stroke-width="0.0886" points="46.128,69.585 49.759,69.585 49.759,75.341 
			46.128,75.341 		"/>
		<polygon id="_55409168" fill="#1E1917" points="46.128,75.339 49.759,75.339 49.759,81.091 46.128,81.091 		"/>
		<polygon id="_55410320" fill="none" stroke="#1E1917" stroke-width="0.0886" points="46.128,75.339 49.759,75.339 49.759,81.091 
			46.128,81.091 		"/>
		<polygon id="_55410672" fill="#FFFFFF" points="46.128,81.027 49.759,81.027 49.759,86.781 46.128,86.781 		"/>
		<polygon id="_55469968" fill="none" stroke="#1E1917" stroke-width="0.0886" points="46.128,81.027 49.759,81.027 49.759,86.781 
			46.128,86.781 		"/>
		<polygon id="_55471120" fill="#FFFFFF" points="49.863,23.829 53.486,23.829 53.486,29.577 49.863,29.577 		"/>
		<polygon id="_55472272" fill="none" stroke="#1E1917" stroke-width="0.0886" points="49.863,23.829 53.486,23.829 53.486,29.577 
			49.863,29.577 		"/>
		<polygon id="_55473424" fill="#FFFFFF" points="49.863,18.078 53.486,18.078 53.486,23.829 49.863,23.829 		"/>
		<polygon id="_55474576" fill="none" stroke="#1E1917" stroke-width="0.0886" points="49.863,18.078 53.486,18.078 53.486,23.829 
			49.863,23.829 		"/>
		<polygon id="_55475728" fill="#FFFFFF" points="49.863,29.529 53.486,29.529 53.486,35.287 49.863,35.287 		"/>
		<polygon id="_55476880" fill="none" stroke="#1E1917" stroke-width="0.0886" points="49.863,29.529 53.486,29.529 53.486,35.287 
			49.863,35.287 		"/>
		<polygon id="_55478032" fill="#FFFFFF" points="49.863,35.286 53.486,35.286 53.486,41.033 49.863,41.033 		"/>
		<polygon id="_55479184" fill="none" stroke="#1E1917" stroke-width="0.0886" points="49.863,35.286 53.486,35.286 53.486,41.033 
			49.863,41.033 		"/>
		<polygon id="_55480336" fill="#FFFFFF" points="49.863,40.983 53.486,40.983 53.486,46.737 49.863,46.737 		"/>
		<polygon id="_55481488" fill="none" stroke="#1E1917" stroke-width="0.0886" points="49.863,40.983 53.486,40.983 53.486,46.737 
			49.863,46.737 		"/>
		<polygon id="_55482640" fill="#FFFFFF" points="49.863,46.735 53.486,46.735 53.486,52.487 49.863,52.487 		"/>
		<polygon id="_55483792" fill="none" stroke="#1E1917" stroke-width="0.0886" points="49.863,46.735 53.486,46.735 53.486,52.487 
			49.863,52.487 		"/>
		<polygon id="_55525920" fill="#FFFFFF" points="49.863,52.436 53.486,52.436 53.486,58.183 49.863,58.183 		"/>
		<polygon id="_55527056" fill="none" stroke="#1E1917" stroke-width="0.0886" points="49.863,52.436 53.486,52.436 53.486,58.183 
			49.863,58.183 		"/>
		<polygon id="_55528208" fill="#FFFFFF" points="49.863,58.183 53.486,58.183 53.486,63.94 49.863,63.94 		"/>
		<polygon id="_55529360" fill="none" stroke="#1E1917" stroke-width="0.0886" points="49.863,58.183 53.486,58.183 53.486,63.94 
			49.863,63.94 		"/>
		<polygon id="_55530512" fill="#FFFFFF" points="49.863,63.884 53.486,63.884 53.486,69.632 49.863,69.632 		"/>
		<polygon id="_55531664" fill="none" stroke="#1E1917" stroke-width="0.0886" points="49.863,63.884 53.486,63.884 53.486,69.632 
			49.863,69.632 		"/>
		<polygon id="_55532816" fill="#FFFFFF" points="49.863,69.585 53.486,69.585 53.486,75.341 49.863,75.341 		"/>
		<polygon id="_55533968" fill="none" stroke="#1E1917" stroke-width="0.0886" points="49.863,69.585 53.486,69.585 53.486,75.341 
			49.863,75.341 		"/>
		<polygon id="_55535120" fill="#FFFFFF" points="49.863,75.339 53.486,75.339 53.486,81.091 49.863,81.091 		"/>
		<polygon id="_55536272" fill="none" stroke="#1E1917" stroke-width="0.0886" points="49.863,75.339 53.486,75.339 53.486,81.091 
			49.863,81.091 		"/>
		<polygon id="_55537424" fill="#FFFFFF" points="49.863,81.027 53.486,81.027 53.486,86.781 49.863,86.781 		"/>
		<polygon id="_55538576" fill="none" stroke="#1E1917" stroke-width="0.0886" points="49.863,81.027 53.486,81.027 53.486,86.781 
			49.863,86.781 		"/>
		<polygon id="_55539728" fill="#FFFFFF" points="53.598,23.829 57.222,23.829 57.222,29.577 53.598,29.577 		"/>
		<polygon id="_55540880" fill="none" stroke="#1E1917" stroke-width="0.0886" points="53.598,23.829 57.222,23.829 57.222,29.577 
			53.598,29.577 		"/>
		<polygon id="_55542032" fill="#1E1917" points="53.598,18.078 57.222,18.078 57.222,23.829 53.598,23.829 		"/>
		<polygon id="_55543184" fill="none" stroke="#1E1917" stroke-width="0.0886" points="53.598,18.078 57.222,18.078 57.222,23.829 
			53.598,23.829 		"/>
		<polygon id="_55544336" fill="#FFFFFF" points="53.598,29.529 57.222,29.529 57.222,35.287 53.598,35.287 		"/>
		<polygon id="_55545488" fill="none" stroke="#1E1917" stroke-width="0.0886" points="53.598,29.529 57.222,29.529 57.222,35.287 
			53.598,35.287 		"/>
		<polygon id="_55546640" fill="#FFFFFF" points="53.598,35.286 57.222,35.286 57.222,41.033 53.598,41.033 		"/>
		<polygon id="_55547792" fill="none" stroke="#1E1917" stroke-width="0.0886" points="53.598,35.286 57.222,35.286 57.222,41.033 
			53.598,41.033 		"/>
		<polygon id="_55548944" fill="#FFFFFF" points="53.598,40.983 57.222,40.983 57.222,46.737 53.598,46.737 		"/>
		<polygon id="_55550096" fill="none" stroke="#1E1917" stroke-width="0.0886" points="53.598,40.983 57.222,40.983 57.222,46.737 
			53.598,46.737 		"/>
		<polygon id="_55551248" fill="#FFFFFF" points="53.598,46.735 57.222,46.735 57.222,52.487 53.598,52.487 		"/>
		<polygon id="_55552400" fill="none" stroke="#1E1917" stroke-width="0.0886" points="53.598,46.735 57.222,46.735 57.222,52.487 
			53.598,52.487 		"/>
		<polygon id="_55553552" fill="#FFFFFF" points="53.598,52.436 57.222,52.436 57.222,58.183 53.598,58.183 		"/>
		<polygon id="_55554704" fill="none" stroke="#1E1917" stroke-width="0.0886" points="53.598,52.436 57.222,52.436 57.222,58.183 
			53.598,58.183 		"/>
		<polygon id="_55555856" fill="#FFFFFF" points="53.598,58.183 57.222,58.183 57.222,63.94 53.598,63.94 		"/>
		<polygon id="_55557008" fill="none" stroke="#1E1917" stroke-width="0.0886" points="53.598,58.183 57.222,58.183 57.222,63.94 
			53.598,63.94 		"/>
		<polygon id="_55558160" fill="#FFFFFF" points="53.598,63.884 57.222,63.884 57.222,69.632 53.598,69.632 		"/>
		<polygon id="_55559312" fill="none" stroke="#1E1917" stroke-width="0.0886" points="53.598,63.884 57.222,63.884 57.222,69.632 
			53.598,69.632 		"/>
		<polygon id="_55560464" fill="#FFFFFF" points="53.598,69.585 57.222,69.585 57.222,75.341 53.598,75.341 		"/>
		<polygon id="_55561616" fill="none" stroke="#1E1917" stroke-width="0.0886" points="53.598,69.585 57.222,69.585 57.222,75.341 
			53.598,75.341 		"/>
		<polygon id="_55562768" fill="#FFFFFF" points="53.598,75.339 57.222,75.339 57.222,81.091 53.598,81.091 		"/>
		<polygon id="_55563920" fill="none" stroke="#1E1917" stroke-width="0.0886" points="53.598,75.339 57.222,75.339 57.222,81.091 
			53.598,81.091 		"/>
		<polygon id="_55565072" fill="#FFFFFF" points="53.598,81.027 57.222,81.027 57.222,86.781 53.598,86.781 		"/>
		<polygon id="_55566224" fill="none" stroke="#1E1917" stroke-width="0.0886" points="53.598,81.027 57.222,81.027 57.222,86.781 
			53.598,86.781 		"/>
		<polygon id="_55567376" fill="#FFFFFF" points="57.319,23.829 60.95,23.829 60.95,29.577 57.319,29.577 		"/>
		<polygon id="_55568528" fill="none" stroke="#1E1917" stroke-width="0.0886" points="57.319,23.829 60.95,23.829 60.95,29.577 
			57.319,29.577 		"/>
		<polygon id="_55621144" fill="#FFFFFF" points="57.319,18.078 60.95,18.078 60.95,23.829 57.319,23.829 		"/>
		<polygon id="_55622296" fill="none" stroke="#1E1917" stroke-width="0.0886" points="57.319,18.078 60.95,18.078 60.95,23.829 
			57.319,23.829 		"/>
		<polygon id="_55623448" fill="#FFFFFF" points="57.319,29.529 60.95,29.529 60.95,35.287 57.319,35.287 		"/>
		<polygon id="_55623640" fill="none" stroke="#1E1917" stroke-width="0.0886" points="57.319,29.529 60.95,29.529 60.95,35.287 
			57.319,35.287 		"/>
		<polygon id="_54961440" fill="#FFFFFF" points="57.319,35.286 60.95,35.286 60.95,41.033 57.319,41.033 		"/>
		<polygon id="_54962592" fill="none" stroke="#1E1917" stroke-width="0.0886" points="57.319,35.286 60.95,35.286 60.95,41.033 
			57.319,41.033 		"/>
		<polygon id="_54962928" fill="#FFFFFF" points="57.319,40.983 60.95,40.983 60.95,46.737 57.319,46.737 		"/>
		<polygon id="_55572024" fill="none" stroke="#1E1917" stroke-width="0.0886" points="57.319,40.983 60.95,40.983 60.95,46.737 
			57.319,46.737 		"/>
		<polygon id="_55573176" fill="#FFFFFF" points="57.319,46.735 60.95,46.735 60.95,52.487 57.319,52.487 		"/>
		<polygon id="_55574328" fill="none" stroke="#1E1917" stroke-width="0.0886" points="57.319,46.735 60.95,46.735 60.95,52.487 
			57.319,52.487 		"/>
		<polygon id="_55575480" fill="#FFFFFF" points="57.319,52.436 60.95,52.436 60.95,58.183 57.319,58.183 		"/>
		<polygon id="_55576632" fill="none" stroke="#1E1917" stroke-width="0.0886" points="57.319,52.436 60.95,52.436 60.95,58.183 
			57.319,58.183 		"/>
		<polygon id="_55577784" fill="#FFFFFF" points="57.319,58.183 60.95,58.183 60.95,63.94 57.319,63.94 		"/>
		<polygon id="_55578936" fill="none" stroke="#1E1917" stroke-width="0.0886" points="57.319,58.183 60.95,58.183 60.95,63.94 
			57.319,63.94 		"/>
		<polygon id="_55580088" fill="#FFFFFF" points="57.319,63.884 60.95,63.884 60.95,69.632 57.319,69.632 		"/>
		<polygon id="_55581240" fill="none" stroke="#1E1917" stroke-width="0.0886" points="57.319,63.884 60.95,63.884 60.95,69.632 
			57.319,69.632 		"/>
		<polygon id="_55582392" fill="#1E1917" points="57.319,69.585 60.95,69.585 60.95,75.341 57.319,75.341 		"/>
		<polygon id="_55583544" fill="none" stroke="#1E1917" stroke-width="0.0886" points="57.319,69.585 60.95,69.585 60.95,75.341 
			57.319,75.341 		"/>
		<polygon id="_55584696" fill="#FFFFFF" points="57.319,75.339 60.95,75.339 60.95,81.091 57.319,81.091 		"/>
		<polygon id="_55585848" fill="none" stroke="#1E1917" stroke-width="0.0886" points="57.319,75.339 60.95,75.339 60.95,81.091 
			57.319,81.091 		"/>
		<polygon id="_55587000" fill="#FFFFFF" points="57.319,81.027 60.95,81.027 60.95,86.781 57.319,86.781 		"/>
		<polygon id="_55588152" fill="none" stroke="#1E1917" stroke-width="0.0886" points="57.319,81.027 60.95,81.027 60.95,86.781 
			57.319,86.781 		"/>
		<polygon id="_55589304" fill="#FFFFFF" points="61.006,23.829 64.631,23.829 64.631,29.577 61.006,29.577 		"/>
		<polygon id="_55590456" fill="none" stroke="#1E1917" stroke-width="0.0886" points="61.006,23.829 64.631,23.829 64.631,29.577 
			61.006,29.577 		"/>
		<polygon id="_55591608" fill="#FFFFFF" points="61.006,18.078 64.631,18.078 64.631,23.829 61.006,23.829 		"/>
		<polygon id="_55592760" fill="none" stroke="#1E1917" stroke-width="0.0886" points="61.006,18.078 64.631,18.078 64.631,23.829 
			61.006,23.829 		"/>
		<polygon id="_55593912" fill="#FFFFFF" points="61.006,29.529 64.631,29.529 64.631,35.287 61.006,35.287 		"/>
		<polygon id="_55595064" fill="none" stroke="#1E1917" stroke-width="0.0886" points="61.006,29.529 64.631,29.529 64.631,35.287 
			61.006,35.287 		"/>
		<polygon id="_55596216" fill="#FFFFFF" points="61.006,35.286 64.631,35.286 64.631,41.033 61.006,41.033 		"/>
		<polygon id="_55597368" fill="none" stroke="#1E1917" stroke-width="0.0886" points="61.006,35.286 64.631,35.286 64.631,41.033 
			61.006,41.033 		"/>
		<polygon id="_55598520" fill="#FFFFFF" points="61.006,40.983 64.631,40.983 64.631,46.737 61.006,46.737 		"/>
		<polygon id="_55599672" fill="none" stroke="#1E1917" stroke-width="0.0886" points="61.006,40.983 64.631,40.983 64.631,46.737 
			61.006,46.737 		"/>
		<polygon id="_55600824" fill="#FFFFFF" points="61.006,46.735 64.631,46.735 64.631,52.487 61.006,52.487 		"/>
		<polygon id="_55601976" fill="none" stroke="#1E1917" stroke-width="0.0886" points="61.006,46.735 64.631,46.735 64.631,52.487 
			61.006,52.487 		"/>
		<polygon id="_55603128" fill="#FFFFFF" points="61.006,52.436 64.631,52.436 64.631,58.183 61.006,58.183 		"/>
		<polygon id="_55604280" fill="none" stroke="#1E1917" stroke-width="0.0886" points="61.006,52.436 64.631,52.436 64.631,58.183 
			61.006,58.183 		"/>
		<polygon id="_55605432" fill="#FFFFFF" points="61.006,58.183 64.631,58.183 64.631,63.94 61.006,63.94 		"/>
		<polygon id="_55606584" fill="none" stroke="#1E1917" stroke-width="0.0886" points="61.006,58.183 64.631,58.183 64.631,63.94 
			61.006,63.94 		"/>
		<polygon id="_55607736" fill="#FFFFFF" points="61.006,63.884 64.631,63.884 64.631,69.632 61.006,69.632 		"/>
		<polygon id="_55608888" fill="none" stroke="#1E1917" stroke-width="0.0886" points="61.006,63.884 64.631,63.884 64.631,69.632 
			61.006,69.632 		"/>
		<polygon id="_55610040" fill="#FFFFFF" points="61.006,69.585 64.631,69.585 64.631,75.341 61.006,75.341 		"/>
		<polygon id="_55611192" fill="none" stroke="#1E1917" stroke-width="0.0886" points="61.006,69.585 64.631,69.585 64.631,75.341 
			61.006,75.341 		"/>
		<polygon id="_55612344" fill="#FFFFFF" points="61.006,75.339 64.631,75.339 64.631,81.091 61.006,81.091 		"/>
		<polygon id="_55613496" fill="none" stroke="#1E1917" stroke-width="0.0886" points="61.006,75.339 64.631,75.339 64.631,81.091 
			61.006,81.091 		"/>
		<polygon id="_55614648" fill="#FFFFFF" points="61.006,81.027 64.631,81.027 64.631,86.781 61.006,86.781 		"/>
		<polygon id="_55615800" fill="none" stroke="#1E1917" stroke-width="0.0886" points="61.006,81.027 64.631,81.027 64.631,86.781 
			61.006,86.781 		"/>
		<polygon id="_55616952" fill="#FFFFFF" points="64.728,23.829 68.37,23.829 68.37,29.577 64.728,29.577 		"/>
		<polygon id="_55617320" fill="none" stroke="#1E1917" stroke-width="0.0886" points="64.728,23.829 68.37,23.829 68.37,29.577 
			64.728,29.577 		"/>
		<polygon id="_55617408" fill="#FFFFFF" points="64.728,18.078 68.37,18.078 68.37,23.829 64.728,23.829 		"/>
		<polygon id="_55626664" fill="none" stroke="#1E1917" stroke-width="0.0886" points="64.728,18.078 68.37,18.078 68.37,23.829 
			64.728,23.829 		"/>
		<polygon id="_55627816" fill="#FFFFFF" points="64.728,29.529 68.37,29.529 68.37,35.287 64.728,35.287 		"/>
		<polygon id="_55628968" fill="none" stroke="#1E1917" stroke-width="0.0886" points="64.728,29.529 68.37,29.529 68.37,35.287 
			64.728,35.287 		"/>
		<polygon id="_55630120" fill="#FFFFFF" points="64.728,35.286 68.37,35.286 68.37,41.033 64.728,41.033 		"/>
		<polygon id="_55631272" fill="none" stroke="#1E1917" stroke-width="0.0886" points="64.728,35.286 68.37,35.286 68.37,41.033 
			64.728,41.033 		"/>
		<polygon id="_55632424" fill="#FFFFFF" points="64.728,40.983 68.37,40.983 68.37,46.737 64.728,46.737 		"/>
		<polygon id="_55633576" fill="none" stroke="#1E1917" stroke-width="0.0886" points="64.728,40.983 68.37,40.983 68.37,46.737 
			64.728,46.737 		"/>
		<polygon id="_55634728" fill="#FFFFFF" points="64.728,46.735 68.37,46.735 68.37,52.487 64.728,52.487 		"/>
		<polygon id="_55635880" fill="none" stroke="#1E1917" stroke-width="0.0886" points="64.728,46.735 68.37,46.735 68.37,52.487 
			64.728,52.487 		"/>
		<polygon id="_55637032" fill="#FFFFFF" points="64.728,52.436 68.37,52.436 68.37,58.183 64.728,58.183 		"/>
		<polygon id="_55638184" fill="none" stroke="#1E1917" stroke-width="0.0886" points="64.728,52.436 68.37,52.436 68.37,58.183 
			64.728,58.183 		"/>
		<polygon id="_55639336" fill="#FFFFFF" points="64.728,58.183 68.37,58.183 68.37,63.94 64.728,63.94 		"/>
		<polygon id="_55640488" fill="none" stroke="#1E1917" stroke-width="0.0886" points="64.728,58.183 68.37,58.183 68.37,63.94 
			64.728,63.94 		"/>
		<polygon id="_55641640" fill="#FFFFFF" points="64.728,63.884 68.37,63.884 68.37,69.632 64.728,69.632 		"/>
		<polygon id="_55642792" fill="none" stroke="#1E1917" stroke-width="0.0886" points="64.728,63.884 68.37,63.884 68.37,69.632 
			64.728,69.632 		"/>
		<polygon id="_55643944" fill="#FFFFFF" points="64.728,69.585 68.37,69.585 68.37,75.341 64.728,75.341 		"/>
		<polygon id="_55645096" fill="none" stroke="#1E1917" stroke-width="0.0886" points="64.728,69.585 68.37,69.585 68.37,75.341 
			64.728,75.341 		"/>
		<polygon id="_55646248" fill="#FFFFFF" points="64.728,75.339 68.37,75.339 68.37,81.091 64.728,81.091 		"/>
		<polygon id="_55647400" fill="none" stroke="#1E1917" stroke-width="0.0886" points="64.728,75.339 68.37,75.339 68.37,81.091 
			64.728,81.091 		"/>
		<polygon id="_55648552" fill="#FFFFFF" points="64.728,81.027 68.37,81.027 68.37,86.781 64.728,86.781 		"/>
		<polygon id="_55649704" fill="none" stroke="#1E1917" stroke-width="0.0886" points="64.728,81.027 68.37,81.027 68.37,86.781 
			64.728,86.781 		"/>
		<polygon id="_55650856" fill="#FFFFFF" points="68.466,23.829 72.079,23.829 72.079,29.577 68.466,29.577 		"/>
		<polygon id="_55652008" fill="none" stroke="#1E1917" stroke-width="0.0886" points="68.466,23.829 72.079,23.829 72.079,29.577 
			68.466,29.577 		"/>
		<polygon id="_55653160" fill="#FFFFFF" points="68.466,29.529 72.079,29.529 72.079,35.287 68.466,35.287 		"/>
		<polygon id="_55654312" fill="none" stroke="#1E1917" stroke-width="0.0886" points="68.466,29.529 72.079,29.529 72.079,35.287 
			68.466,35.287 		"/>
		<polygon id="_55655464" fill="#FFFFFF" points="68.466,35.286 72.079,35.286 72.079,41.033 68.466,41.033 		"/>
		<polygon id="_55656624" fill="none" stroke="#1E1917" stroke-width="0.0886" points="68.466,35.286 72.079,35.286 72.079,41.033 
			68.466,41.033 		"/>
		<polygon id="_55657776" fill="#FFFFFF" points="68.466,40.983 72.079,40.983 72.079,46.737 68.466,46.737 		"/>
		<polygon id="_55658928" fill="none" stroke="#1E1917" stroke-width="0.0886" points="68.466,40.983 72.079,40.983 72.079,46.737 
			68.466,46.737 		"/>
		<polygon id="_55660080" fill="#FFFFFF" points="68.466,46.735 72.079,46.735 72.079,52.487 68.466,52.487 		"/>
		<polygon id="_55661232" fill="none" stroke="#1E1917" stroke-width="0.0886" points="68.466,46.735 72.079,46.735 72.079,52.487 
			68.466,52.487 		"/>
		<polygon id="_55662384" fill="#FFFFFF" points="68.466,52.436 72.079,52.436 72.079,58.183 68.466,58.183 		"/>
		<polygon id="_55663536" fill="none" stroke="#1E1917" stroke-width="0.0886" points="68.466,52.436 72.079,52.436 72.079,58.183 
			68.466,58.183 		"/>
		<polygon id="_55664688" fill="#FFFFFF" points="68.466,58.183 72.079,58.183 72.079,63.94 68.466,63.94 		"/>
		<polygon id="_55665840" fill="none" stroke="#1E1917" stroke-width="0.0886" points="68.466,58.183 72.079,58.183 72.079,63.94 
			68.466,63.94 		"/>
		<polygon id="_55666992" fill="#FFFFFF" points="68.466,63.884 72.079,63.884 72.079,69.632 68.466,69.632 		"/>
		<polygon id="_55668144" fill="none" stroke="#1E1917" stroke-width="0.0886" points="68.466,63.884 72.079,63.884 72.079,69.632 
			68.466,69.632 		"/>
		<polygon id="_55669296" fill="#FFFFFF" points="68.466,69.585 72.079,69.585 72.079,75.341 68.466,75.341 		"/>
		<polygon id="_55670448" fill="none" stroke="#1E1917" stroke-width="0.0886" points="68.466,69.585 72.079,69.585 72.079,75.341 
			68.466,75.341 		"/>
		<polygon id="_55671600" fill="#FFFFFF" points="68.466,75.339 72.079,75.339 72.079,81.091 68.466,81.091 		"/>
		<polygon id="_55672752" fill="none" stroke="#1E1917" stroke-width="0.0886" points="68.466,75.339 72.079,75.339 72.079,81.091 
			68.466,81.091 		"/>
		<polygon id="_55673904" fill="#FFFFFF" points="68.466,81.027 72.079,81.027 72.079,86.781 68.466,86.781 		"/>
		<polygon id="_55675056" fill="none" stroke="#1E1917" stroke-width="0.0886" points="68.466,81.027 72.079,81.027 72.079,86.781 
			68.466,86.781 		"/>
		<polygon id="_55676208" fill="#FFFFFF" points="72.202,23.829 75.828,23.829 75.828,29.577 72.202,29.577 		"/>
		<polygon id="_55677360" fill="none" stroke="#1E1917" stroke-width="0.0886" points="72.202,23.829 75.828,23.829 75.828,29.577 
			72.202,29.577 		"/>
		<polygon id="_55678512" fill="#1E1917" points="72.202,29.529 75.828,29.529 75.828,35.287 72.202,35.287 		"/>
		<polygon id="_55679664" fill="none" stroke="#1E1917" stroke-width="0.0886" points="72.202,29.529 75.828,29.529 75.828,35.287 
			72.202,35.287 		"/>
		<polygon id="_55680816" fill="#FFFFFF" points="72.202,35.286 75.828,35.286 75.828,41.033 72.202,41.033 		"/>
		<polygon id="_55681968" fill="none" stroke="#1E1917" stroke-width="0.0886" points="72.202,35.286 75.828,35.286 75.828,41.033 
			72.202,41.033 		"/>
		<polygon id="_55683120" fill="#FFFFFF" points="72.202,40.983 75.828,40.983 75.828,46.737 72.202,46.737 		"/>
		<polygon id="_55684272" fill="none" stroke="#1E1917" stroke-width="0.0886" points="72.202,40.983 75.828,40.983 75.828,46.737 
			72.202,46.737 		"/>
		<polygon id="_55685424" fill="#FFFFFF" points="72.202,46.735 75.828,46.735 75.828,52.487 72.202,52.487 		"/>
		<polygon id="_55686576" fill="none" stroke="#1E1917" stroke-width="0.0886" points="72.202,46.735 75.828,46.735 75.828,52.487 
			72.202,52.487 		"/>
		<polygon id="_55687728" fill="#FFFFFF" points="72.202,52.436 75.828,52.436 75.828,58.183 72.202,58.183 		"/>
		<polygon id="_55688880" fill="none" stroke="#1E1917" stroke-width="0.0886" points="72.202,52.436 75.828,52.436 75.828,58.183 
			72.202,58.183 		"/>
		<polygon id="_55690032" fill="#FFFFFF" points="72.202,58.183 75.828,58.183 75.828,63.94 72.202,63.94 		"/>
		<polygon id="_55691184" fill="none" stroke="#1E1917" stroke-width="0.0886" points="72.202,58.183 75.828,58.183 75.828,63.94 
			72.202,63.94 		"/>
		<polygon id="_55617552" fill="#FFFFFF" points="72.202,63.884 75.828,63.884 75.828,69.632 72.202,69.632 		"/>
		<polygon id="_55618704" fill="none" stroke="#1E1917" stroke-width="0.0886" points="72.202,63.884 75.828,63.884 75.828,69.632 
			72.202,69.632 		"/>
		<polygon id="_55619856" fill="#FFFFFF" points="72.202,69.585 75.828,69.585 75.828,75.341 72.202,75.341 		"/>
		<polygon id="_55742624" fill="none" stroke="#1E1917" stroke-width="0.0886" points="72.202,69.585 75.828,69.585 75.828,75.341 
			72.202,75.341 		"/>
		<polygon id="_55743760" fill="#1E1917" points="72.202,75.339 75.828,75.339 75.828,81.091 72.202,81.091 		"/>
		<polygon id="_55744912" fill="none" stroke="#1E1917" stroke-width="0.0886" points="72.202,75.339 75.828,75.339 75.828,81.091 
			72.202,81.091 		"/>
		<polygon id="_55746064" fill="#FFFFFF" points="75.873,23.829 79.506,23.829 79.506,29.577 75.873,29.577 		"/>
		<polygon id="_55693504" fill="none" stroke="#1E1917" stroke-width="0.0886" points="75.873,23.829 79.506,23.829 79.506,29.577 
			75.873,29.577 		"/>
		<polygon id="_55694656" fill="#FFFFFF" points="75.873,29.529 79.506,29.529 79.506,35.287 75.873,35.287 		"/>
		<polygon id="_55695808" fill="none" stroke="#1E1917" stroke-width="0.0886" points="75.873,29.529 79.506,29.529 79.506,35.287 
			75.873,35.287 		"/>
		<polygon id="_55696960" fill="#FFFFFF" points="75.873,35.286 79.506,35.286 79.506,41.033 75.873,41.033 		"/>
		<polygon id="_55698112" fill="none" stroke="#1E1917" stroke-width="0.0886" points="75.873,35.286 79.506,35.286 79.506,41.033 
			75.873,41.033 		"/>
		<polygon id="_55699264" fill="#FFFFFF" points="75.873,40.983 79.506,40.983 79.506,46.737 75.873,46.737 		"/>
		<polygon id="_55700416" fill="none" stroke="#1E1917" stroke-width="0.0886" points="75.873,40.983 79.506,40.983 79.506,46.737 
			75.873,46.737 		"/>
		<polygon id="_55701568" fill="#FFFFFF" points="75.873,46.735 79.506,46.735 79.506,52.487 75.873,52.487 		"/>
		<polygon id="_55702720" fill="none" stroke="#1E1917" stroke-width="0.0886" points="75.873,46.735 79.506,46.735 79.506,52.487 
			75.873,52.487 		"/>
		<polygon id="_55703872" fill="#FFFFFF" points="75.873,52.436 79.506,52.436 79.506,58.183 75.873,58.183 		"/>
		<polygon id="_55705024" fill="none" stroke="#1E1917" stroke-width="0.0886" points="75.873,52.436 79.506,52.436 79.506,58.183 
			75.873,58.183 		"/>
		<polygon id="_55706176" fill="#FFFFFF" points="75.873,58.183 79.506,58.183 79.506,63.94 75.873,63.94 		"/>
		<polygon id="_55707328" fill="none" stroke="#1E1917" stroke-width="0.0886" points="75.873,58.183 79.506,58.183 79.506,63.94 
			75.873,63.94 		"/>
		<polygon id="_55708480" fill="#FFFFFF" points="75.873,63.884 79.506,63.884 79.506,69.632 75.873,69.632 		"/>
		<polygon id="_55709632" fill="none" stroke="#1E1917" stroke-width="0.0886" points="75.873,63.884 79.506,63.884 79.506,69.632 
			75.873,69.632 		"/>
		<polygon id="_55710784" fill="#1E1917" points="75.873,69.585 79.506,69.585 79.506,75.341 75.873,75.341 		"/>
		<polygon id="_55711936" fill="none" stroke="#1E1917" stroke-width="0.0886" points="75.873,69.585 79.506,69.585 79.506,75.341 
			75.873,75.341 		"/>
		<polygon id="_55713088" fill="#FFFFFF" points="75.873,75.339 79.506,75.339 79.506,81.091 75.873,81.091 		"/>
		<polygon id="_55714240" fill="none" stroke="#1E1917" stroke-width="0.0886" points="75.873,75.339 79.506,75.339 79.506,81.091 
			75.873,81.091 		"/>
		<polygon id="_55715392" fill="#FFFFFF" points="79.608,29.529 83.228,29.529 83.228,35.287 79.608,35.287 		"/>
		<polygon id="_55716544" fill="none" stroke="#1E1917" stroke-width="0.0886" points="79.608,29.529 83.228,29.529 83.228,35.287 
			79.608,35.287 		"/>
		<polygon id="_55717696" fill="#FFFFFF" points="79.608,35.286 83.228,35.286 83.228,41.033 79.608,41.033 		"/>
		<polygon id="_55718848" fill="none" stroke="#1E1917" stroke-width="0.0886" points="79.608,35.286 83.228,35.286 83.228,41.033 
			79.608,41.033 		"/>
		<polygon id="_55720000" fill="#FFFFFF" points="79.608,40.983 83.228,40.983 83.228,46.737 79.608,46.737 		"/>
		<polygon id="_55721152" fill="none" stroke="#1E1917" stroke-width="0.0886" points="79.608,40.983 83.228,40.983 83.228,46.737 
			79.608,46.737 		"/>
		<polygon id="_55722304" fill="#FFFFFF" points="79.608,46.735 83.228,46.735 83.228,52.487 79.608,52.487 		"/>
		<polygon id="_55723456" fill="none" stroke="#1E1917" stroke-width="0.0886" points="79.608,46.735 83.228,46.735 83.228,52.487 
			79.608,52.487 		"/>
		<polygon id="_55724608" fill="#FFFFFF" points="79.608,52.436 83.228,52.436 83.228,58.183 79.608,58.183 		"/>
		<polygon id="_55725760" fill="none" stroke="#1E1917" stroke-width="0.0886" points="79.608,52.436 83.228,52.436 83.228,58.183 
			79.608,58.183 		"/>
		<polygon id="_55726912" fill="#FFFFFF" points="79.608,58.183 83.228,58.183 83.228,63.94 79.608,63.94 		"/>
		<polygon id="_55728064" fill="none" stroke="#1E1917" stroke-width="0.0886" points="79.608,58.183 83.228,58.183 83.228,63.94 
			79.608,63.94 		"/>
		<polygon id="_55729216" fill="#FFFFFF" points="79.608,63.884 83.228,63.884 83.228,69.632 79.608,69.632 		"/>
		<polygon id="_55730368" fill="none" stroke="#1E1917" stroke-width="0.0886" points="79.608,63.884 83.228,63.884 83.228,69.632 
			79.608,69.632 		"/>
		<polygon id="_55731520" fill="#FFFFFF" points="79.608,69.585 83.228,69.585 83.228,75.341 79.608,75.341 		"/>
		<polygon id="_55732672" fill="none" stroke="#1E1917" stroke-width="0.0886" points="79.608,69.585 83.228,69.585 83.228,75.341 
			79.608,75.341 		"/>
		<polygon id="_55733824" fill="#FFFFFF" points="83.332,35.286 86.96,35.286 86.96,41.033 83.332,41.033 		"/>
		<polygon id="_55734976" fill="none" stroke="#1E1917" stroke-width="0.0886" points="83.332,35.286 86.96,35.286 86.96,41.033 
			83.332,41.033 		"/>
		<polygon id="_55736128" fill="#FFFFFF" points="83.332,40.983 86.96,40.983 86.96,46.737 83.332,46.737 		"/>
		<polygon id="_55737280" fill="none" stroke="#1E1917" stroke-width="0.0886" points="83.332,40.983 86.96,40.983 86.96,46.737 
			83.332,46.737 		"/>
		<polygon id="_55738432" fill="#FFFFFF" points="83.332,46.735 86.96,46.735 86.96,52.487 83.332,52.487 		"/>
		<polygon id="_55747104" fill="none" stroke="#1E1917" stroke-width="0.0886" points="83.332,46.735 86.96,46.735 86.96,52.487 
			83.332,52.487 		"/>
		<polygon id="_55748256" fill="#FFFFFF" points="83.332,52.436 86.96,52.436 86.96,58.183 83.332,58.183 		"/>
		<polygon id="_55749408" fill="none" stroke="#1E1917" stroke-width="0.0886" points="83.332,52.436 86.96,52.436 86.96,58.183 
			83.332,58.183 		"/>
		<polygon id="_55750560" fill="#FFFFFF" points="83.332,58.183 86.96,58.183 86.96,63.94 83.332,63.94 		"/>
		<polygon id="_55751712" fill="none" stroke="#1E1917" stroke-width="0.0886" points="83.332,58.183 86.96,58.183 86.96,63.94 
			83.332,63.94 		"/>
		<polygon id="_55752864" fill="#FFFFFF" points="83.332,63.884 86.96,63.884 86.96,69.632 83.332,69.632 		"/>
		<polygon id="_55754016" fill="none" stroke="#1E1917" stroke-width="0.0886" points="83.332,63.884 86.96,63.884 86.96,69.632 
			83.332,69.632 		"/>
		<polygon id="_55755168" fill="#FFFFFF" points="83.332,69.585 86.96,69.585 86.96,75.341 83.332,75.341 		"/>
		<polygon id="_55756320" fill="none" stroke="#1E1917" stroke-width="0.0886" points="83.332,69.585 86.96,69.585 86.96,75.341 
			83.332,75.341 		"/>
		<polygon id="_55757472" fill="#FFFFFF" points="87.068,40.983 90.696,40.983 90.696,46.737 87.068,46.737 		"/>
		<polygon id="_55758624" fill="none" stroke="#1E1917" stroke-width="0.0886" points="87.068,40.983 90.696,40.983 90.696,46.737 
			87.068,46.737 		"/>
		<polygon id="_55759776" fill="#FFFFFF" points="87.068,46.735 90.696,46.735 90.696,52.487 87.068,52.487 		"/>
		<polygon id="_55760928" fill="none" stroke="#1E1917" stroke-width="0.0886" points="87.068,46.735 90.696,46.735 90.696,52.487 
			87.068,52.487 		"/>
		<polygon id="_55762080" fill="#FFFFFF" points="87.068,52.436 90.696,52.436 90.696,58.183 87.068,58.183 		"/>
		<polygon id="_55763232" fill="none" stroke="#1E1917" stroke-width="0.0886" points="87.068,52.436 90.696,52.436 90.696,58.183 
			87.068,58.183 		"/>
		<polygon id="_55764384" fill="#FFFFFF" points="87.068,58.183 90.696,58.183 90.696,63.94 87.068,63.94 		"/>
		<polygon id="_55765536" fill="none" stroke="#1E1917" stroke-width="0.0886" points="87.068,58.183 90.696,58.183 90.696,63.94 
			87.068,63.94 		"/>
		<polygon id="_55766656" fill="#FFFFFF" points="94.313,58.18 90.741,58.183 90.741,52.436 94.724,52.416 		"/>
		<polygon id="_55767808" fill="none" stroke="#1E1917" stroke-width="0.0886" points="94.313,58.18 90.741,58.183 90.741,52.436 
			94.724,52.416 		"/>
		<path id="_55769280" fill="#FFFFFF" d="M27.536,30.095v5.19h3.617v-5.757h-3.179C27.827,29.713,27.679,29.907,27.536,30.095z"/>
		<path id="_55770568" fill="none" stroke="#1E1917" stroke-width="0.0886" d="M27.536,30.095v5.19h3.617v-5.757h-3.179
			C27.827,29.713,27.679,29.907,27.536,30.095z"/>
		<path id="_55771784" fill="#FFFFFF" d="M27.471,35.286h-3.265c-0.126,0.224-0.242,0.46-0.364,0.694v5.053h3.628V35.286z"/>
		<path id="_55772992" fill="none" stroke="#1E1917" stroke-width="0.0886" d="M27.471,35.286h-3.265
			c-0.126,0.224-0.242,0.46-0.364,0.694v5.053h3.628V35.286z"/>
		<path id="_55774200" fill="#FFFFFF" d="M90.696,35.877c-0.102-0.202-0.199-0.394-0.31-0.592h-3.318v5.748h3.628V35.877z"/>
		<path id="_55775408" fill="none" stroke="#1E1917" stroke-width="0.0886" d="M90.696,35.877c-0.102-0.202-0.199-0.394-0.31-0.592
			h-3.318v5.748h3.628V35.877z"/>
		<path id="_55776616" fill="#FFFFFF" d="M86.96,29.963c-0.107-0.152-0.223-0.29-0.338-0.435h-3.291v5.757h3.628V29.963z"/>
		<path id="_55777824" fill="none" stroke="#1E1917" stroke-width="0.0886" d="M86.96,29.963c-0.107-0.152-0.223-0.29-0.338-0.435
			h-3.291v5.757h3.628V29.963z"/>
		<path id="_55739216" fill="#FFFFFF" d="M71.458,18.078h-2.992v5.751h3.613v-5.487C71.88,18.248,71.668,18.17,71.458,18.078z"/>
		<path id="_55740424" fill="none" stroke="#1E1917" stroke-width="0.0886" d="M71.458,18.078h-2.992v5.751h3.613v-5.487
			C71.88,18.248,71.668,18.17,71.458,18.078z"/>
		<path id="_55741632" fill="#FFFFFF" d="M46.023,17.032c-1.011,0.327-2.012,0.69-2.996,1.088h2.996V17.032z"/>
		<path id="_55742600" fill="none" stroke="#1E1917" stroke-width="0.0886" d="M46.023,17.032c-1.011,0.327-2.012,0.69-2.996,1.088
			h2.996V17.032z"/>
		<path id="_55830200" fill="#FFFFFF" d="M46.128,17.003v1.117h3.629v-2.071C48.527,16.313,47.319,16.628,46.128,17.003z"/>
		<path id="_55831704" fill="none" stroke="#1E1917" stroke-width="0.0886" d="M46.128,17.003v1.117h3.629v-2.071
			C48.527,16.313,47.319,16.628,46.128,17.003z"/>
		<path id="_55832544" fill="#FFFFFF" d="M49.863,16.031v2.089h3.622v-2.648C52.263,15.599,51.06,15.783,49.863,16.031z"/>
		<path id="_55781736" fill="none" stroke="#1E1917" stroke-width="0.0886" d="M49.863,16.031v2.089h3.622v-2.648
			C52.263,15.599,51.06,15.783,49.863,16.031z"/>
		<path id="_55783320" fill="#FFFFFF" d="M57.223,15.284c-1.228,0.003-2.429,0.067-3.625,0.188v2.648h3.625V15.284z"/>
		<path id="_55784656" fill="none" stroke="#1E1917" stroke-width="0.0886" d="M57.223,15.284c-1.228,0.003-2.429,0.067-3.625,0.188
			v2.648h3.625V15.284z"/>
		<path id="_55785992" fill="#FFFFFF" d="M60.95,18.12v-2.662c-1.194-0.113-2.405-0.186-3.63-0.186v2.847H60.95z"/>
		<path id="_55787328" fill="none" stroke="#1E1917" stroke-width="0.0886" d="M60.95,18.12v-2.662
			c-1.194-0.113-2.405-0.186-3.63-0.186v2.847H60.95z"/>
		<path id="_55788664" fill="#FFFFFF" d="M61.006,15.467v2.653h3.623v-2.117C63.438,15.768,62.229,15.588,61.006,15.467z"/>
		<path id="_55790000" fill="none" stroke="#1E1917" stroke-width="0.0886" d="M61.006,15.467v2.653h3.623v-2.117
			C63.438,15.768,62.229,15.588,61.006,15.467z"/>
		<path id="_55780624" fill="#FFFFFF" d="M68.466,16.984v1.136h3.122C70.561,17.709,69.532,17.319,68.466,16.984z"/>
		<path id="_55791320" fill="none" stroke="#1E1917" stroke-width="0.0886" d="M68.466,16.984v1.136h3.122
			C70.561,17.709,69.532,17.319,68.466,16.984z"/>
		<path id="_55792632" fill="#FFFFFF" d="M75.828,20.226c-1.174-0.672-2.38-1.293-3.626-1.83v5.433h3.626V20.226z"/>
		<path id="_55793968" fill="none" stroke="#1E1917" stroke-width="0.0886" d="M75.828,20.226c-1.174-0.672-2.38-1.293-3.626-1.83
			v5.433h3.626V20.226z"/>
		<path id="_55795304" fill="#FFFFFF" d="M75.873,20.252v3.577h3.634V22.62C78.345,21.771,77.127,20.975,75.873,20.252z"/>
		<path id="_55796640" fill="none" stroke="#1E1917" stroke-width="0.0886" d="M75.873,20.252v3.577h3.634V22.62
			C78.345,21.771,77.127,20.975,75.873,20.252z"/>
		<path id="_55797976" fill="#FFFFFF" d="M79.608,22.697v1.132h1.446C80.583,23.442,80.098,23.065,79.608,22.697z"/>
		<path id="_55799288" fill="none" stroke="#1E1917" stroke-width="0.0886" d="M79.608,22.697v1.132h1.446
			C80.583,23.442,80.098,23.065,79.608,22.697z"/>
		<path id="_55800600" fill="#FFFFFF" d="M81.054,23.829h-1.446v5.748h3.619v-3.783C82.532,25.116,81.806,24.452,81.054,23.829z"/>
		<path id="_55802160" fill="none" stroke="#1E1917" stroke-width="0.0886" d="M81.054,23.829h-1.446v5.748h3.619v-3.783
			C82.532,25.116,81.806,24.452,81.054,23.829z"/>
		<path id="_55803368" fill="#FFFFFF" d="M87.068,30.095v5.19h3.318C89.419,33.459,88.304,31.723,87.068,30.095z"/>
		<path id="_55804504" fill="none" stroke="#1E1917" stroke-width="0.0886" d="M87.068,30.095v5.19h3.318
			C89.419,33.459,88.304,31.723,87.068,30.095z"/>
		<path id="_55805640" fill="#FFFFFF" d="M90.741,35.976v5.057h2.101C92.269,39.287,91.563,37.595,90.741,35.976z"/>
		<path id="_55806952" fill="none" stroke="#1E1917" stroke-width="0.0886" d="M90.741,35.976v5.057h2.101
			C92.269,39.287,91.563,37.595,90.741,35.976z"/>
		<path id="_55808264" fill="#FFFFFF" d="M92.832,40.983h-2.091v5.752h3.501C93.927,44.763,93.447,42.848,92.832,40.983z"/>
		<path id="_55809600" fill="none" stroke="#1E1917" stroke-width="0.0886" d="M92.832,40.983h-2.091v5.752h3.501
			C93.927,44.763,93.447,42.848,92.832,40.983z"/>
		<path id="_55869112" fill="#FFFFFF" d="M93.027,63.884h-2.286v5.583C91.641,67.676,92.418,65.819,93.027,63.884z"/>
		<path id="_55812480" fill="none" stroke="#1E1917" stroke-width="0.0886" d="M93.027,63.884h-2.286v5.583
			C91.641,67.676,92.418,65.819,93.027,63.884z"/>
		<path id="_55813648" fill="#FFFFFF" d="M87.068,69.585v5.754h0.031c1.367-1.792,2.554-3.729,3.588-5.754H87.068z"/>
		<path id="_55814984" fill="none" stroke="#1E1917" stroke-width="0.0886" d="M87.068,69.585v5.754h0.031
			c1.367-1.792,2.554-3.729,3.588-5.754H87.068z"/>
		<path id="_55816320" fill="#FFFFFF" d="M83.332,79.58c1.307-1.261,2.515-2.615,3.628-4.057v-0.184h-3.628V79.58z"/>
		<path id="_55817656" fill="none" stroke="#1E1917" stroke-width="0.0886" d="M83.332,79.58c1.307-1.261,2.515-2.615,3.628-4.057
			v-0.184h-3.628V79.58z"/>
		<path id="_55818992" fill="#FFFFFF" d="M79.608,81.091h2.085c0.532-0.455,1.037-0.934,1.535-1.411v-4.341h-3.62V81.091z"/>
		<path id="_55820552" fill="none" stroke="#1E1917" stroke-width="0.0886" d="M79.608,81.091h2.085
			c0.532-0.455,1.037-0.934,1.535-1.411v-4.341h-3.62V81.091z"/>
		<path id="_55821760" fill="#FFFFFF" d="M79.608,81.027v1.734c0.728-0.547,1.446-1.121,2.142-1.734H79.608z"/>
		<path id="_55822752" fill="none" stroke="#1E1917" stroke-width="0.0886" d="M79.608,81.027v1.734
			c0.728-0.547,1.446-1.121,2.142-1.734H79.608z"/>
		<path id="_55823744" fill="#FFFFFF" d="M75.873,85.195c1.252-0.715,2.473-1.492,3.634-2.348v-1.819h-3.634V85.195z"/>
		<path id="_55825080" fill="none" stroke="#1E1917" stroke-width="0.0886" d="M75.873,85.195c1.252-0.715,2.473-1.492,3.634-2.348
			v-1.819h-3.634V85.195z"/>
		<path id="_55826416" fill="#FFFFFF" d="M72.202,86.781h0.616c1.032-0.462,2.031-1,3.009-1.553v-4.2h-3.625V86.781z"/>
		<path id="_55827976" fill="none" stroke="#1E1917" stroke-width="0.0886" d="M72.202,86.781h0.616
			c1.032-0.462,2.031-1,3.009-1.553v-4.2h-3.625V86.781z"/>
		<path id="_55828864" fill="#FFFFFF" d="M42.35,81.027h-3.633v4.193c0.983,0.562,1.979,1.099,3.01,1.561h0.623V81.027z"/>
		<path id="_55834064" fill="none" stroke="#1E1917" stroke-width="0.0886" d="M42.35,81.027h-3.633v4.193
			c0.983,0.562,1.979,1.099,3.01,1.561h0.623V81.027z"/>
		<path id="_55835272" fill="#FFFFFF" d="M34.996,82.796c1.155,0.856,2.373,1.648,3.623,2.364v-4.133h-3.623V82.796z"/>
		<path id="_55836608" fill="none" stroke="#1E1917" stroke-width="0.0886" d="M34.996,82.796c1.155,0.856,2.373,1.648,3.623,2.364
			v-4.133h-3.623V82.796z"/>
		<path id="_55837944" fill="#FFFFFF" d="M34.883,82.71v-1.683H32.8C33.474,81.62,34.172,82.183,34.883,82.71z"/>
		<path id="_55838936" fill="none" stroke="#1E1917" stroke-width="0.0886" d="M34.883,82.71v-1.683H32.8
			C33.474,81.62,34.172,82.183,34.883,82.71z"/>
		<path id="_55839928" fill="#FFFFFF" d="M31.258,79.615c0.524,0.505,1.056,0.996,1.599,1.476h2.027v-5.751h-3.625V79.615z"/>
		<path id="_55841488" fill="none" stroke="#1E1917" stroke-width="0.0886" d="M31.258,79.615c0.524,0.505,1.056,0.996,1.599,1.476
			h2.027v-5.751h-3.625V79.615z"/>
		<path id="_55842696" fill="#FFFFFF" d="M27.536,75.429c1.099,1.44,2.317,2.813,3.617,4.088v-4.177h-3.617V75.429z"/>
		<path id="_55844032" fill="none" stroke="#1E1917" stroke-width="0.0886" d="M27.536,75.429c1.099,1.44,2.317,2.813,3.617,4.088
			v-4.177h-3.617V75.429z"/>
		<path id="_55845368" fill="#FFFFFF" d="M27.471,69.585h-3.586c1.024,2.024,2.214,3.962,3.575,5.754h0.011V69.585z"/>
		<path id="_55846704" fill="none" stroke="#1E1917" stroke-width="0.0886" d="M27.471,69.585h-3.586
			c1.024,2.024,2.214,3.962,3.575,5.754h0.011V69.585z"/>
		<path id="_55848040" fill="#FFFFFF" d="M23.75,58.183h-3.488c0.285,1.972,0.736,3.899,1.319,5.755h2.169V58.183L23.75,58.183z"/>
		<path id="_55849376" fill="none" stroke="#1E1917" stroke-width="0.0886" d="M23.75,58.183h-3.488
			c0.285,1.972,0.736,3.899,1.319,5.755h2.169V58.183L23.75,58.183z"/>
		<path id="_55850712" fill="#FFFFFF" d="M23.75,69.309v-5.424h-2.179C22.157,65.76,22.89,67.561,23.75,69.309z"/>
		<path id="_55851704" fill="none" stroke="#1E1917" stroke-width="0.0886" d="M23.75,69.309v-5.424h-2.179
			C22.157,65.76,22.89,67.561,23.75,69.309z"/>
		<path id="_55905968" fill="#FFFFFF" d="M23.75,46.735h-3.395c-0.094,0.56-0.171,1.121-0.239,1.696l-0.201,4.074l3.834-0.019
			V46.735z"/>
		<path id="_55906288" fill="none" stroke="#1E1917" stroke-width="0.0886" d="M23.75,46.735h-3.395
			c-0.094,0.56-0.171,1.121-0.239,1.696l-0.201,4.074l3.834-0.019V46.735z"/>
		<path id="_55855696" fill="#FFFFFF" d="M23.75,46.735v-5.752H21.77c-0.613,1.865-1.093,3.78-1.414,5.752H23.75z"/>
		<path id="_55857032" fill="none" stroke="#1E1917" stroke-width="0.0886" d="M23.75,46.735v-5.752H21.77
			c-0.613,1.865-1.093,3.78-1.414,5.752H23.75z"/>
		<path id="_55858368" fill="#FFFFFF" d="M23.75,41.033v-4.857c-0.776,1.558-1.449,3.188-2,4.857H23.75z"/>
		<path id="_55859360" fill="none" stroke="#1E1917" stroke-width="0.0886" d="M23.75,41.033v-4.857
			c-0.776,1.558-1.449,3.188-2,4.857H23.75z"/>
		<path id="_55860352" fill="#FFFFFF" d="M31.153,29.577v-3.585c-1.15,1.124-2.224,2.331-3.219,3.585H31.153z"/>
		<path id="_55861520" fill="none" stroke="#1E1917" stroke-width="0.0886" d="M31.153,29.577v-3.585
			c-1.15,1.124-2.224,2.331-3.219,3.585H31.153z"/>
		<path id="_55862688" fill="#FFFFFF" d="M31.258,29.577h3.625v-5.748h-1.325c-0.804,0.653-1.554,1.351-2.3,2.066V29.577z"/>
		<path id="_55864248" fill="none" stroke="#1E1917" stroke-width="0.0886" d="M31.258,29.577h3.625v-5.748h-1.325
			c-0.804,0.653-1.554,1.351-2.3,2.066V29.577z"/>
		<path id="_55865456" fill="#FFFFFF" d="M34.883,22.783c-0.452,0.339-0.895,0.697-1.325,1.046h1.325V22.783z"/>
		<path id="_55866448" fill="none" stroke="#1E1917" stroke-width="0.0886" d="M34.883,22.783c-0.452,0.339-0.895,0.697-1.325,1.046
			h1.325V22.783z"/>
		<path id="_55867440" fill="#FFFFFF" d="M34.996,22.706v1.123h3.623v-3.507C37.358,21.047,36.151,21.835,34.996,22.706z"/>
		<path id="_55868776" fill="none" stroke="#1E1917" stroke-width="0.0886" d="M34.996,22.706v1.123h3.623v-3.507
			C37.358,21.047,36.151,21.835,34.996,22.706z"/>
		<path id="_55870568" fill="#FFFFFF" d="M42.35,18.416c-1.248,0.561-2.464,1.172-3.633,1.848v3.565h3.633V18.416z"/>
		<path id="_55871904" fill="none" stroke="#1E1917" stroke-width="0.0886" d="M42.35,18.416c-1.248,0.561-2.464,1.172-3.633,1.848
			v3.565h3.633V18.416z"/>
		<path id="_55873240" fill="#FFFFFF" d="M42.399,23.829h3.625v-5.751h-2.864c-0.25,0.107-0.506,0.213-0.76,0.321V23.829z"/>
		<path id="_55874800" fill="none" stroke="#1E1917" stroke-width="0.0886" d="M42.399,23.829h3.625v-5.751h-2.864
			c-0.25,0.107-0.506,0.213-0.76,0.321V23.829z"/>
		<path id="_55876008" fill="#FFFFFF" d="M94.375,47.623c-0.046-0.295-0.087-0.588-0.132-0.887h-3.501v5.751l3.982,0.034
			L94.375,47.623L94.375,47.623z"/>
		<path id="_55877216" fill="none" stroke="#1E1917" stroke-width="0.0862" d="M94.375,47.623c-0.046-0.295-0.087-0.588-0.132-0.887
			h-3.501v5.751l3.982,0.034L94.375,47.623L94.375,47.623z"/>
		<path id="_55878448" fill="#FFFFFF" d="M90.741,58.183v5.755h2.264c0.589-1.855,1.035-3.783,1.323-5.755H90.741L90.741,58.183z"/>
		<path id="_55879808" fill="none" stroke="#1E1917" stroke-width="0.0886" d="M90.741,58.183v5.755h2.264
			c0.589-1.855,1.035-3.783,1.323-5.755H90.741L90.741,58.183z"/>
		<path id="_55881144" fill="#FFFFFF" d="M90.696,63.884h-3.628v5.748h3.59c0.013-0.021,0.027-0.047,0.038-0.07V63.884z"/>
		<path id="_55882704" fill="none" stroke="#1E1917" stroke-width="0.0886" d="M90.696,63.884h-3.628v5.748h3.59
			c0.013-0.021,0.027-0.047,0.038-0.07V63.884z"/>
		<path id="_55883912" fill="#FFFFFF" d="M23.914,69.632h3.557v-5.748h-3.628v5.619C23.871,69.543,23.885,69.585,23.914,69.632z"/>
		<path id="_55885120" fill="none" stroke="#1E1917" stroke-width="0.0886" d="M23.914,69.632h3.557v-5.748h-3.628v5.619
			C23.871,69.543,23.885,69.585,23.914,69.632z"/>
		<path id="_55886328" fill="#FFFFFF" d="M20.262,58.183h3.488v-5.747l-3.834,0.007l0.201,4.477
			C20.163,57.338,20.198,57.769,20.262,58.183z"/>
		<path id="_55942688" fill="none" stroke="#1E1917" stroke-width="0.0886" d="M20.262,58.183h3.488v-5.747l-3.834,0.007
			l0.201,4.477C20.163,57.338,20.198,57.769,20.262,58.183z"/>
		<polygon id="_55888112" fill="#E50012" points="98.265,92.948 98.265,91.408 15.558,91.46 15.558,94.56 98.265,94.5 		"/>
		<path id="_55889136" fill="#E50012" d="M95.604,43.21c-7.668,0-13.53,3.988-13.53,10.934c0,5.861,5.334,9.997,12.492,9.997
			c5.436,0,9.948-3.938,11.241-6.421c0-0.775-0.776-1.095-1.5-1.095c-1.244,1.918-4.769,3.38-6.212,3.324
			c-8.658-0.318-10.055-3.783-10.159-7.406c-0.164-3.946,4.092-7.365,7.722-7.107c2.117,0.162,2.849,3.631,4.702,4.87
			c0.58,0.317,1.925,0.265,2.805,0.11c0.677-0.11,2.484-0.521,2.484-2.078c0-1.294-1.605-2.74-3.155-3.674
			C100.94,43.938,97.464,43.21,95.604,43.21L95.604,43.21z"/>
		<path id="_55891632" fill="#E50012" d="M44.419,58.237c0,3.214-0.82,4.92-3.418,5.073l0.062,0.522c4.344-0.052,8.76,0,13-0.099
			l0.051-0.264c-1.961,0-3.475-2.077-3.475-4.659v-8.655c0-2.12,2.586-3.476,4.356-3.313c2.738,0.252,4.247,2.012,4.247,3.573v8.497
			c0,2.594-0.781,4.2-2.797,4.347v0.474h11.92v-0.366c-1.771-0.209-3.011-1.82-3.011-4.251v-8.912c0-1.915,1.664-3.209,4.615-3.26
			c2.594-0.057,4.147,1.864,4.147,3.678V58.7c0,2.751-0.828,4.458-2.896,4.667v0.366c4.347,0.047,7.915,0.047,12.217,0v-0.264
			c-2.276,0-3.046-1.504-3.046-4.659v-8.916c0-2.95-1.612-6.476-6.122-6.476c-3.049,0-5.294,1.5-6.572,1.925
			c-0.885,0.354-1.511,0.767-1.725,0.767c-0.401,0-0.866-0.254-1.443-0.874c-1.09-1.154-3.05-1.818-5.128-1.818
			c-2.645,0-5.286,1.5-6.536,1.925c-0.145,0.048-1.081,0.513-1.188,0.513c-0.202,0-1.038,0-1.038-0.101
			c0-2.488,0.159-1.25,0.054-3.006h-1.711c-0.508,0-1.406,0.93-2.435,1.333c-1.244,0.526-3.734,0.469-4.759,0.74v1.756l2.686,0.516
			v3.422L44.419,58.237z"/>
		<path id="_55896416" fill="#E50012" d="M32.76,63.779c4.57-0.206,8.967-1.194,8.967-5.596c0-3.205-3.523-5.231-7.245-6.836
			c-2.394-0.985-5.861-2.438-5.861-3.577c0-1.348,2.639-3.938,5.182-1.867l4.401,3.679l2.027-0.414l-1.132-5.489
			c-1.045,0.051-1.769,0.107-5.554-0.522c-4.669-0.67-10.211,1.664-10.211,6.011c0,2.904,4.203,4.923,7.521,6.271
			c1.809,0.777,5.026,1.919,5.026,3.676c0,1.709-3.007,2.182-4.713,2.182c-2.906,0-6.124-3.891-6.124-3.891h-1.909l1.035,5.811
			c0.355-0.318,1.658-0.266,1.921-0.159C27.018,63.412,30.387,63.938,32.76,63.779L32.76,63.779z"/>
		<path id="_55899528" fill="#E50012" d="M21.776,46.164v-2.692l-5.644,0.051c-0.72,0-0.673-0.156-0.673-1.088l0.056-3.683
			l-2.851-0.047c-0.877,1.962-1.968,3.263-2.585,3.523L4.785,44.55v1.664l1.979,0.057c0.882,0,1.239-0.057,1.239,0.984v10.928
			c0,3.322,1.811,5.755,6.484,5.856c3.51,0.101,5.643-1.455,7.139-2.901l-0.411-1.404c-0.628,0.42-1.136,0.781-1.972,0.781
			c-3.986,0-3.881-3.11-3.881-5.859v-7.402c0-1.091,0.096-1.091,0.826-1.091H21.776z"/>
	</g>
</g>
</svg>
