<?xml version="1.0" encoding="utf-8"?>
<!-- Generator: Adobe Illustrator 16.0.0, SVG Export Plug-In . SVG Version: 6.00 Build 0)  -->
<!DOCTYPE svg PUBLIC "-//W3C//DTD SVG 1.1//EN" "http://www.w3.org/Graphics/SVG/1.1/DTD/svg11.dtd">
<svg version="1.1" id="圖層_1" xmlns="http://www.w3.org/2000/svg" xmlns:xlink="http://www.w3.org/1999/xlink" x="0px" y="0px"
	 width="110px" height="110px" viewBox="0 0 110 110" enable-background="new 0 0 110 110" xml:space="preserve">
<g id="圖層_2">
	<g id="XMLID_15_">
		<path id="XMLID_23_" fill="#C89A26" d="M94.679,62.468c-0.402-2.458-0.606-3.46-2.056-8.053
			c-1.451-4.595-4.376-10.982-5.706-13.563c-1.33-2.579-3.229-5.965-4.377-7.777c-1.149-1.814-3.053-4.635-3.053-4.635
			c-1.572-2.317-3.688-4.917-6.448-8.06c-2.761-3.144-5.481-5.556-5.481-5.556c-3.815-3.196-4.516-3.39-7.375-4.983
			c-2.458-1.371-5.535-1.365-5.535-1.365s-3.775-0.006-6.335,1.553c-2.794,1.703-3.26,1.599-7.075,4.795
			c0,0-2.728,2.412-5.488,5.556c-2.761,3.143-4.88,5.743-6.452,8.06c0,0-1.906,2.82-3.055,4.635
			c-1.148,1.813-3.048,5.198-4.378,7.777c-1.33,2.58-4.256,8.967-5.706,13.563c-1.45,4.593-1.653,5.595-2.057,8.053
			c-0.403,2.458-0.344,4.459-0.182,5.769c0.161,1.31,0.463,4.01,2.196,6.448c1.733,2.438,3.89,3.566,5.602,4.434
			c1.713,0.865,7.657,3.365,13.642,4.312c5.984,0.947,9.419,1.31,11.999,1.41c2.58,0.101,7.063,0.202,7.063,0.202v-0.005
			c0.645-0.015,4.698-0.104,7.062-0.197c2.579-0.101,5.969-0.463,11.955-1.41c5.984-0.947,11.921-3.446,13.633-4.312
			c1.713-0.867,3.866-1.995,5.599-4.434c1.732-2.438,2.032-5.138,2.194-6.448C95.024,66.927,95.083,64.925,94.679,62.468z
			 M91.698,71.871c-1.854,4.916-13.286,7.959-13.286,7.959c-8.812,3.117-24.097,2.757-24.097,2.757s-15.134,0.36-23.946-2.757
			c0,0-11.433-3.043-13.287-7.959c-1.854-4.917-0.423-11.005-0.02-12.269c0.404-1.263,1.952-7.007,3.994-11.575
			c2.042-4.567,5.478-12.308,9.264-17.623c3.405-4.778,4.865-6.706,7.386-9.563c3.331-3.776,5.751-5.954,9.026-7.952
			c2.289-1.397,4.36-2.202,6.155-2.445c1.287-0.173,1.722-0.17,1.722-0.17s0.271,0.01,1.557,0.186
			c1.796,0.242,3.593,1.033,5.882,2.43c3.275,1.998,5.696,4.176,9.026,7.952c2.521,2.857,3.981,4.785,7.386,9.563
			c3.787,5.314,7.222,13.056,9.265,17.623c2.042,4.567,3.591,10.312,3.993,11.575C92.122,60.865,93.551,66.954,91.698,71.871z"/>
		<g id="XMLID_2_">
			<polygon id="XMLID_17_" fill="#60B2D4" points="62.319,48.435 67.854,45.802 75.001,80.488 67.209,77.157 			"/>
			<polygon id="XMLID_22_" fill="#2D498C" points="54.421,10.768 42.572,77.022 54.421,71.379 66.269,77.022 			"/>
			<polygon id="XMLID_18_" fill="#60B2D4" points="46.462,48.435 40.928,45.802 33.781,80.488 41.573,77.157 			"/>
		</g>
	</g>
	<g id="XMLID_16_">
		<path id="XMLID_19_" fill="#043993" d="M45.026,101.261h-3.08l-1.225-3.185h-5.603l-1.157,3.185h-3.002l5.46-14.019h2.993
			L45.026,101.261z M39.813,95.714l-1.931-5.201l-1.894,5.201H39.813z"/>
		<path id="XMLID_26_" fill="#043993" d="M46.44,101.261V87.242h2.831v14.019H46.44z"/>
		<path id="XMLID_28_" fill="#043993" d="M51.958,87.242h5.173c1.167,0,2.056,0.089,2.668,0.268
			c0.822,0.243,1.527,0.673,2.113,1.292s1.033,1.375,1.338,2.271c0.307,0.896,0.459,2,0.459,3.314c0,1.153-0.143,2.148-0.43,2.983
			c-0.351,1.02-0.852,1.845-1.501,2.477c-0.491,0.478-1.154,0.851-1.989,1.118c-0.625,0.197-1.459,0.297-2.504,0.297h-5.327V87.242z
			 M54.788,89.614v9.285h2.113c0.791,0,1.362-0.045,1.712-0.133c0.459-0.116,0.839-0.31,1.143-0.584
			c0.302-0.274,0.55-0.725,0.741-1.353c0.192-0.629,0.288-1.485,0.288-2.568c0-1.084-0.095-1.916-0.288-2.495
			c-0.19-0.58-0.458-1.033-0.803-1.357c-0.344-0.326-0.78-0.545-1.31-0.66c-0.396-0.089-1.17-0.134-2.324-0.134H54.788z"/>
		<path id="XMLID_31_" fill="#043993" d="M75.079,96.106l2.746,0.871c-0.421,1.53-1.121,2.666-2.1,3.409
			c-0.979,0.743-2.22,1.114-3.725,1.114c-1.86,0-3.391-0.636-4.589-1.908c-1.199-1.272-1.798-3.01-1.798-5.215
			c0-2.334,0.603-4.146,1.807-5.437c1.205-1.291,2.79-1.936,4.752-1.936c1.715,0,3.108,0.506,4.179,1.52
			c0.638,0.6,1.116,1.459,1.434,2.582l-2.801,0.669c-0.166-0.727-0.512-1.3-1.037-1.721c-0.527-0.42-1.166-0.631-1.918-0.631
			c-1.039,0-1.882,0.373-2.529,1.118c-0.647,0.747-0.97,1.954-0.97,3.624c0,1.773,0.318,3.034,0.955,3.787
			c0.637,0.752,1.466,1.128,2.486,1.128c0.752,0,1.399-0.239,1.942-0.716C74.454,97.885,74.843,97.133,75.079,96.106z"/>
	</g>
</g>
</svg>
