<?xml version="1.0" encoding="utf-8"?>
<!-- Generator: Adobe Illustrator 16.0.0, SVG Export Plug-In . SVG Version: 6.00 Build 0)  -->
<!DOCTYPE svg PUBLIC "-//W3C//DTD SVG 1.1//EN" "http://www.w3.org/Graphics/SVG/1.1/DTD/svg11.dtd">
<svg version="1.1" id="圖層_1" xmlns="http://www.w3.org/2000/svg" xmlns:xlink="http://www.w3.org/1999/xlink" x="0px" y="0px"
	 width="800px" height="276px" viewBox="0 0 800 276" enable-background="new 0 0 800 276" xml:space="preserve">
<g>
	<path fill="#A5162E" stroke="#FFFFFF" stroke-width="3" stroke-miterlimit="10" d="M267.27,137.566
		c0,67.206-54.479,121.686-121.682,121.686S23.903,204.771,23.903,137.566c0-67.201,54.481-121.683,121.685-121.683
		C212.791,15.884,267.27,70.365,267.27,137.566z"/>
	<path fill="#F7F7F7" d="M226.071,137.566c0,44.454-36.035,80.489-80.483,80.489c-44.453,0-80.481-36.035-80.481-80.489
		c0-44.446,36.029-80.485,80.481-80.485C190.037,57.081,226.071,93.121,226.071,137.566z"/>
	<path fill="#888888" stroke="#FFFFFF" stroke-width="2" stroke-miterlimit="10" d="M171.956,137.566
		c0,14.565-11.806,26.372-26.367,26.372c-14.563,0-26.366-11.807-26.366-26.372c0-14.562,11.803-26.368,26.366-26.368
		C160.15,111.199,171.956,123.005,171.956,137.566z"/>
	<g>
		<g enable-background="new    ">
			<path fill="#3E3A39" d="M425.912,119.909c2.475-0.405,5.535-0.72,8.775-0.72c14.669,0,17.729,9.044,17.729,16.694v0.045
				c0,6.255-1.935,10.8-4.949,13.725c-3.105,3.015-8.01,4.545-14.085,4.545c-3.06,0-5.534-0.136-7.47-0.405V119.909z
				 M431.133,149.833c0.899,0.135,2.159,0.18,3.374,0.18c7.739,0.045,12.419-4.5,12.419-13.994c0-8.37-4.319-12.689-11.744-12.689
				c-1.8,0-3.149,0.18-4.049,0.36V149.833z"/>
			<path fill="#3E3A39" d="M479.416,146.773c0,2.789,0.135,5.13,0.225,7.109h-4.59l-0.27-3.6h-0.135
				c-1.035,1.71-3.465,4.095-7.47,4.095c-4.274,0-8.01-2.655-8.01-10.575v-14.759h5.22v13.904c0,4.274,1.215,7.109,4.635,7.109
				c2.385,0,5.175-1.89,5.175-5.624v-15.345h5.22V146.773z"/>
			<path fill="#3E3A39" d="M505.246,147.988c0,2.114,0.045,4.274,0.359,5.895h-4.725l-0.36-2.88h-0.135
				c-1.396,1.935-3.825,3.375-6.93,3.375c-4.635,0-7.29-3.42-7.29-7.245c0-6.164,5.355-9.225,13.859-9.225
				c0-1.845,0-5.534-4.994-5.534c-2.205,0-4.455,0.675-6.03,1.71l-1.079-3.465c1.754-1.125,4.68-2.07,8.01-2.07
				c7.289,0,9.314,4.814,9.314,10.08V147.988z M500.16,141.418c-4.094,0-8.818,0.766-8.818,5.175c0,2.745,1.709,3.96,3.645,3.96
				c2.834,0,5.174-2.16,5.174-5.04V141.418z"/>
			<path fill="#3E3A39" d="M518.791,153.883h-5.22v-36.089h5.22V153.883z"/>
			<path fill="#3E3A39" d="M541.65,125.264c-1.8,0-3.015-1.35-3.015-3.015c0-1.755,1.261-3.06,3.06-3.06
				c1.801,0,3.016,1.305,3.016,3.06C544.711,123.914,543.541,125.264,541.65,125.264z M544.261,153.883h-5.22v-24.839h5.22V153.883z
				"/>
			<path fill="#3E3A39" d="M573.195,153.883h-5.22v-14.534c0-3.51-1.171-6.479-4.726-6.479c-2.564,0-5.309,2.114-5.309,6.074v14.939
				h-5.221v-17.819c0-2.745-0.09-4.859-0.18-6.975h4.545l0.27,3.689h0.135c1.17-2.114,3.78-4.229,7.516-4.229
				c3.869,0,8.189,2.52,8.189,10.17V153.883z"/>
			<path fill="#3E3A39" d="M593.85,133.769c-0.989-0.63-2.699-1.395-4.725-1.395c-2.34,0-3.6,1.35-3.6,3.015
				c0,1.71,1.125,2.564,4.141,3.87c4.094,1.665,6.254,3.914,6.254,7.515c0,4.77-3.645,7.604-9.27,7.604
				c-2.609,0-5.084-0.675-6.75-1.665l1.17-3.87c1.26,0.766,3.555,1.665,5.67,1.665c2.79,0,4.141-1.35,4.141-3.239
				c0-1.891-1.035-2.926-4.006-4.186c-4.409-1.755-6.344-4.229-6.344-7.109c0-4.14,3.375-7.425,8.594-7.425
				c2.43,0,4.545,0.675,5.895,1.44L593.85,133.769z"/>
			<path fill="#3E3A39" d="M622.92,146.773c0,2.789,0.135,5.13,0.225,7.109h-4.59l-0.27-3.6h-0.135
				c-1.035,1.71-3.465,4.095-7.471,4.095c-4.274,0-8.01-2.655-8.01-10.575v-14.759h5.221v13.904c0,4.274,1.215,7.109,4.635,7.109
				c2.385,0,5.174-1.89,5.174-5.624v-15.345h5.221V146.773z"/>
			<path fill="#3E3A39" d="M636.6,153.883h-5.219v-36.089h5.219V153.883z"/>
			<path fill="#3E3A39" d="M662.384,147.988c0,2.114,0.045,4.274,0.36,5.895h-4.725l-0.361-2.88h-0.135
				c-1.395,1.935-3.824,3.375-6.93,3.375c-4.635,0-7.289-3.42-7.289-7.245c0-6.164,5.354-9.225,13.859-9.225
				c0-1.845,0-5.534-4.995-5.534c-2.204,0-4.454,0.675-6.03,1.71l-1.079-3.465c1.755-1.125,4.68-2.07,8.01-2.07
				c7.29,0,9.314,4.814,9.314,10.08V147.988z M657.299,141.418c-4.095,0-8.819,0.766-8.819,5.175c0,2.745,1.71,3.96,3.645,3.96
				c2.835,0,5.175-2.16,5.175-5.04V141.418z"/>
			<path fill="#3E3A39" d="M671.744,124.589l5.176-1.62v6.12h5.895v3.915h-5.895v12.555c0,3.06,0.944,4.544,3.149,4.544
				c1.035,0,1.665-0.135,2.295-0.314l0.181,4.005c-0.9,0.359-2.295,0.585-4.051,0.585c-2.07,0-3.824-0.675-4.904-1.89
				c-1.26-1.351-1.846-3.42-1.846-6.66v-12.824h-3.51v-3.915h3.51V124.589z"/>
			<path fill="#3E3A39" d="M691.68,125.264c-1.801,0-3.016-1.35-3.016-3.015c0-1.755,1.26-3.06,3.061-3.06
				c1.799,0,3.014,1.305,3.014,3.06C694.738,123.914,693.568,125.264,691.68,125.264z M694.289,153.883h-5.22v-24.839h5.22V153.883z
				"/>
			<path fill="#3E3A39" d="M724.123,141.283c0,9.27-6.029,13.095-11.609,13.095c-6.436,0-11.34-4.725-11.34-12.734
				c0-8.37,5.13-13.095,11.699-13.095C719.668,128.549,724.123,133.679,724.123,141.283z M712.693,132.464
				c-4.455,0-6.164,4.77-6.164,9.045c0,4.859,2.295,8.954,6.119,8.954c3.779,0,6.119-4.095,6.119-9.045
				C718.768,137.323,717.059,132.464,712.693,132.464z"/>
			<path fill="#3E3A39" d="M751.528,153.883h-5.22v-14.534c0-3.51-1.17-6.479-4.725-6.479c-2.565,0-5.311,2.114-5.311,6.074v14.939
				h-5.219v-17.819c0-2.745-0.091-4.859-0.181-6.975h4.545l0.271,3.689h0.135c1.17-2.114,3.779-4.229,7.514-4.229
				c3.871,0,8.19,2.52,8.19,10.17V153.883z"/>
		</g>
	</g>
	<polyline fill="none" stroke="#2CA6E0" stroke-width="2" stroke-miterlimit="10" points="244.909,89.278 332.722,89.278 
		332.722,189.837 158.671,189.837 	"/>
	
		<line fill="none" stroke="#2CA6E0" stroke-width="2" stroke-miterlimit="10" x1="332.078" y1="134.422" x2="410.693" y2="134.422"/>
</g>
</svg>
