<?xml version="1.0" encoding="utf-8"?>
<!-- Generator: Adobe Illustrator 16.0.0, SVG Export Plug-In . SVG Version: 6.00 Build 0)  -->
<!DOCTYPE svg PUBLIC "-//W3C//DTD SVG 1.1//EN" "http://www.w3.org/Graphics/SVG/1.1/DTD/svg11.dtd">
<svg version="1.1" id="圖層_1" xmlns="http://www.w3.org/2000/svg" xmlns:xlink="http://www.w3.org/1999/xlink" x="0px" y="0px"
	 width="320px" height="320px" viewBox="0 0 320 320" enable-background="new 0 0 320 320" xml:space="preserve">
<g id="圖層_13" display="none">
	<rect x="-5" y="21" display="inline" fill="#595757" width="375" height="332"/>
</g>
<path opacity="0.7" fill="#FFFFFF" stroke="#000000" stroke-width="3" stroke-miterlimit="10" enable-background="new    " d="
	M55.188,57.833c4.418-4.419,10.595-6.299,10.595-6.299l206.238,206.239l-17.013,17.016L48.764,68.55
	C48.764,68.55,50.771,62.251,55.188,57.833z"/>
<path fill="none" stroke="#000000" stroke-width="3" stroke-miterlimit="10" d="M222.787,244.768c3.185,4.393,9.61,6.959,22,3.934
	c13.948-3.4,20.947-0.738,24.258,3.926"/>
<path fill="none" stroke="#000000" stroke-width="3" stroke-miterlimit="10" d="M201.223,223.199
	c3.186,4.391,9.607,6.957,21.994,3.936c13.953-3.4,20.953-0.74,24.265,3.92"/>
<path fill="none" stroke="#000000" stroke-width="3" stroke-miterlimit="10" d="M179.75,201.855c3.186,4.391,9.612,6.961,22,3.936
	c13.948-3.404,20.947-0.736,24.258,3.926"/>
<path fill="none" stroke="#000000" stroke-width="3" stroke-miterlimit="10" d="M159.312,181.229
	c3.185,4.387,9.61,6.959,21.994,3.938c13.956-3.409,20.957-0.74,24.263,3.922"/>
<path fill="none" stroke="#000000" stroke-width="3" stroke-miterlimit="10" d="M137.742,159.658
	c3.19,4.391,9.606,6.959,21.994,3.934c13.955-3.405,20.953-0.736,24.266,3.925"/>
<path fill="none" stroke="#000000" stroke-width="3" stroke-miterlimit="10" d="M116.27,138.31c3.188,4.393,9.611,6.96,22.003,3.934
	c13.947-3.396,20.949-0.736,24.257,3.926"/>
<path fill="none" stroke="#000000" stroke-width="3" stroke-miterlimit="10" d="M97.399,119.25
	c3.183,4.392,9.604,6.959,21.995,3.934c13.945-3.406,20.947-0.738,24.259,3.925"/>
<path fill="none" stroke="#000000" stroke-width="3" stroke-miterlimit="10" d="M75.826,97.682
	c3.186,4.396,9.606,6.959,21.998,3.933c13.948-3.401,20.954-0.74,24.26,3.925"/>
<path fill="none" stroke="#000000" stroke-width="3" stroke-miterlimit="10" d="M54.354,76.337
	c3.188,4.392,9.604,6.958,21.998,3.934c13.954-3.405,20.954-0.737,24.265,3.925"/>
<path stroke="#000000" stroke-miterlimit="10" d="M272.287,258.043c2.986,2.98,1.588,9.211-3.107,13.906
	c-4.696,4.695-10.924,6.09-13.907,3.105c-2.987-2.984-1.594-9.213,3.103-13.906C263.076,256.443,269.301,255.055,272.287,258.043z"
	/>
<path opacity="0.7" stroke="#000000" stroke-miterlimit="10" enable-background="new    " d="M191.448,211.246
	c-1.802-0.287-3.436-1.053-4.709-2.32c-4.058-4.064-2.946-11.75,2.472-17.168c5.418-5.422,13.102-6.531,17.162-2.467
	c1.412,1.408,2.192,3.256,2.394,5.289l6.886,6.814c3.461-8,2.855-16.408-2.335-21.604c-7.476-7.473-21.621-5.438-31.604,4.543
	c-9.984,9.984-12.01,24.133-4.547,31.604c5.156,5.152,13.465,5.779,21.407,2.412L191.448,211.246z"/>
<path opacity="0.5" fill="#666666" stroke="#231815" stroke-miterlimit="10" enable-background="new    " d="M55.269,57.751
	c9.981-9.979,24.126-12.016,31.603-4.541l127.152,127.149l-0.195-0.189c-7.475-7.475-21.619-5.436-31.6,4.545
	c-9.986,9.979-12.018,24.127-4.545,31.605l0.193,0.188L50.725,89.355C43.25,81.882,45.291,67.736,55.269,57.751z"/>
<g opacity="0.7">
	<path fill="#4D4D4D" stroke="#000000" stroke-miterlimit="10" d="M50.584,89.491l127.16,127.156l-0.193-0.195
		c-7.481-7.475-5.437-21.619,4.543-31.604c9.98-9.979,24.126-12.016,31.599-4.545l0.19,0.193L86.729,53.346l0.062-0.054
		c-7.474-7.479-21.623-5.439-31.604,4.542c-9.979,9.979-12.012,24.128-4.544,31.599L50.584,89.491z"/>
	<path fill="#4D4D4D" stroke="#000000" stroke-miterlimit="10" d="M191.513,211.174c-1.804-0.283-3.431-1.047-4.701-2.32
		c-4.062-4.059-2.956-11.742,2.468-17.162c5.418-5.428,13.105-6.527,17.161-2.471c1.405,1.412,2.196,3.258,2.397,5.299l6.875,6.813
		c3.465-8.002,2.86-16.414-2.328-21.604c-7.471-7.476-21.622-5.438-31.602,4.538c-9.979,9.984-12.016,24.133-4.541,31.604
		c5.137,5.148,13.465,5.785,21.401,2.416L191.513,211.174z"/>
</g>
</svg>
