<?xml version="1.0" encoding="utf-8"?>
<!-- Generator: Adobe Illustrator 16.0.0, SVG Export Plug-In . SVG Version: 6.00 Build 0)  -->
<!DOCTYPE svg PUBLIC "-//W3C//DTD SVG 1.1//EN" "http://www.w3.org/Graphics/SVG/1.1/DTD/svg11.dtd">
<svg version="1.1" xmlns="http://www.w3.org/2000/svg" xmlns:xlink="http://www.w3.org/1999/xlink" x="0px" y="0px" width="320px"
	 height="320px" viewBox="0 0 320 320" enable-background="new 0 0 320 320" xml:space="preserve">
<g id="套管">
	
		<text transform="matrix(1 0 0 1 84.251 353.3184)" display="none" fill="#231815" font-family="'MicrosoftYaHei'" font-size="41.1597">套管系列</text>
	<path display="none" fill="none" stroke="#231815" stroke-width="2" stroke-miterlimit="10" d="M77.884,88.706
		c-1.507-1.504-1.507-3.94,0-5.445l21.217-21.218c1.5-1.501,3.938-1.506,5.445,0l139.107,139.105c1.501,1.504,1.501,3.945,0,5.447
		L222.43,227.81c-1.499,1.506-3.938,1.506-5.445,0.002L77.884,88.706z"/>
	<rect x="1.237" y="21" display="none" fill="none" stroke="#000000" stroke-miterlimit="10" width="318.524" height="368.485"/>
	<g>
		<path fill="#333333" d="M104.617,61.631c-0.376-0.376-0.837-0.658-1.341-0.847c-0.155-0.184-0.298-0.375-0.469-0.546
			c-4.901-4.901-14.845-2.906-22.208,4.458c-7.363,7.363-9.359,17.307-4.458,22.208c0.305,0.306,0.629,0.583,0.972,0.835
			c0.151,0.234,0.324,0.457,0.526,0.659l139.154,139.158c0.303,0.302,1.738,1.738,2.171,2.17c4.902,4.903,14.852,2.913,22.215-4.45
			s9.628-17.453,4.725-22.356c-0.432-0.432-1.878-1.881-2.18-2.183L104.617,61.631z"/>
		<ellipse transform="matrix(0.7071 -0.7071 0.7071 0.7071 -85.1395 228.3837)" cx="233.114" cy="216.964" rx="19.03" ry="11.59"/>
	</g>
	
		<text transform="matrix(1 0 0 1 159.748 160.5371)" fill="#595757" stroke="#FFFFFF" stroke-width="2" stroke-miterlimit="10" font-family="'Adobe Fan Heiti Std', Helvetica, Arial, Verdana, sans-serif" font-size="72.0295">U</text>
</g>
<g id="圖層_13">
</g>
</svg>
