<?xml version="1.0" encoding="utf-8"?>
<!-- Generator: Adobe Illustrator 16.0.0, SVG Export Plug-In . SVG Version: 6.00 Build 0)  -->
<!DOCTYPE svg PUBLIC "-//W3C//DTD SVG 1.1//EN" "http://www.w3.org/Graphics/SVG/1.1/DTD/svg11.dtd">
<svg version="1.1" id="圖層_1" xmlns="http://www.w3.org/2000/svg" xmlns:xlink="http://www.w3.org/1999/xlink" x="0px" y="0px"
	 width="800px" height="308.797px" viewBox="0 0 800 308.797" enable-background="new 0 0 800 308.797" xml:space="preserve">
<g>
	<g>
		<circle fill="#023148" stroke="#FFFFFF" stroke-width="8.4085" stroke-miterlimit="10" cx="150.658" cy="154.515" r="130.152"/>
		<path fill="#023148" stroke="#FFFFFF" stroke-width="2.8028" stroke-miterlimit="10" d="M258.046,154.515
			c0,59.307-48.081,107.386-107.386,107.386c-59.311,0-107.386-48.079-107.386-107.386c0-59.31,48.075-107.386,107.386-107.386
			C209.965,47.129,258.046,95.205,258.046,154.515z"/>
		<g>
			<defs>
				<path id="SVGID_1_" d="M258.046,154.515c0,59.307-48.081,107.386-107.386,107.386c-59.311,0-107.386-48.079-107.386-107.386
					c0-59.31,48.075-107.386,107.386-107.386C209.965,47.129,258.046,95.205,258.046,154.515z"/>
			</defs>
			<clipPath id="SVGID_2_">
				<use xlink:href="#SVGID_1_"  overflow="visible"/>
			</clipPath>
			<g clip-path="url(#SVGID_2_)">
				
					<line fill="none" stroke="#FFFFFF" stroke-width="2.8028" stroke-miterlimit="10" x1="152.485" y1="-63.434" x2="385.766" y2="169.846"/>
				
					<line fill="none" stroke="#FFFFFF" stroke-width="2.8028" stroke-miterlimit="10" x1="144.187" y1="-55.133" x2="377.464" y2="178.145"/>
				
					<line fill="none" stroke="#FFFFFF" stroke-width="2.8028" stroke-miterlimit="10" x1="135.887" y1="-46.834" x2="369.165" y2="186.445"/>
				
					<line fill="none" stroke="#FFFFFF" stroke-width="2.8028" stroke-miterlimit="10" x1="127.588" y1="-38.535" x2="360.866" y2="194.744"/>
				
					<line fill="none" stroke="#FFFFFF" stroke-width="2.8028" stroke-miterlimit="10" x1="119.289" y1="-30.235" x2="352.567" y2="203.043"/>
				
					<line fill="none" stroke="#FFFFFF" stroke-width="2.8028" stroke-miterlimit="10" x1="110.99" y1="-21.936" x2="344.268" y2="211.342"/>
				
					<line fill="none" stroke="#FFFFFF" stroke-width="2.8028" stroke-miterlimit="10" x1="102.691" y1="-13.637" x2="335.969" y2="219.642"/>
				
					<line fill="none" stroke="#FFFFFF" stroke-width="2.8028" stroke-miterlimit="10" x1="94.392" y1="-5.338" x2="327.67" y2="227.941"/>
				
					<line fill="none" stroke="#FFFFFF" stroke-width="2.8028" stroke-miterlimit="10" x1="86.093" y1="2.962" x2="319.371" y2="236.24"/>
				
					<line fill="none" stroke="#FFFFFF" stroke-width="2.8028" stroke-miterlimit="10" x1="77.792" y1="11.261" x2="311.072" y2="244.539"/>
				
					<line fill="none" stroke="#FFFFFF" stroke-width="2.8028" stroke-miterlimit="10" x1="69.493" y1="19.561" x2="302.773" y2="252.84"/>
				
					<line fill="none" stroke="#FFFFFF" stroke-width="2.8028" stroke-miterlimit="10" x1="61.193" y1="27.861" x2="294.472" y2="261.139"/>
				
					<line fill="none" stroke="#FFFFFF" stroke-width="2.8028" stroke-miterlimit="10" x1="52.895" y1="36.16" x2="286.172" y2="269.438"/>
				
					<line fill="none" stroke="#FFFFFF" stroke-width="2.8028" stroke-miterlimit="10" x1="44.596" y1="44.459" x2="277.874" y2="277.738"/>
				
					<line fill="none" stroke="#FFFFFF" stroke-width="2.8028" stroke-miterlimit="10" x1="36.296" y1="52.759" x2="269.574" y2="286.037"/>
				
					<line fill="none" stroke="#FFFFFF" stroke-width="2.8028" stroke-miterlimit="10" x1="27.998" y1="61.058" x2="261.275" y2="294.336"/>
				
					<line fill="none" stroke="#FFFFFF" stroke-width="2.8028" stroke-miterlimit="10" x1="19.696" y1="69.357" x2="252.977" y2="302.636"/>
				
					<line fill="none" stroke="#FFFFFF" stroke-width="2.8028" stroke-miterlimit="10" x1="11.397" y1="77.658" x2="244.678" y2="310.936"/>
				
					<line fill="none" stroke="#FFFFFF" stroke-width="2.8028" stroke-miterlimit="10" x1="3.098" y1="85.957" x2="236.376" y2="319.234"/>
				
					<line fill="none" stroke="#FFFFFF" stroke-width="2.8028" stroke-miterlimit="10" x1="-5.201" y1="94.255" x2="228.077" y2="327.535"/>
				
					<line fill="none" stroke="#FFFFFF" stroke-width="2.8028" stroke-miterlimit="10" x1="-13.5" y1="102.555" x2="219.778" y2="335.834"/>
				
					<line fill="none" stroke="#FFFFFF" stroke-width="2.8028" stroke-miterlimit="10" x1="-21.799" y1="110.855" x2="211.479" y2="344.133"/>
				
					<line fill="none" stroke="#FFFFFF" stroke-width="2.8028" stroke-miterlimit="10" x1="-31.256" y1="120.312" x2="202.022" y2="353.589"/>
				
					<line fill="none" stroke="#FFFFFF" stroke-width="2.8028" stroke-miterlimit="10" x1="-40.713" y1="129.767" x2="192.565" y2="363.046"/>
				
					<line fill="none" stroke="#FFFFFF" stroke-width="2.8028" stroke-miterlimit="10" x1="-50.169" y1="139.224" x2="183.108" y2="372.503"/>
				
					<line fill="none" stroke="#FFFFFF" stroke-width="2.8028" stroke-miterlimit="10" x1="-59.626" y1="148.681" x2="173.651" y2="381.96"/>
				
					<line fill="none" stroke="#FFFFFF" stroke-width="2.8028" stroke-miterlimit="10" x1="-69.086" y1="158.138" x2="164.195" y2="391.417"/>
				
					<line fill="none" stroke="#FFFFFF" stroke-width="2.8028" stroke-miterlimit="10" x1="385.766" y1="158.138" x2="152.488" y2="391.417"/>
				
					<line fill="none" stroke="#FFFFFF" stroke-width="2.8028" stroke-miterlimit="10" x1="377.467" y1="149.838" x2="144.189" y2="383.118"/>
				
					<line fill="none" stroke="#FFFFFF" stroke-width="2.8028" stroke-miterlimit="10" x1="369.168" y1="141.54" x2="135.887" y2="374.817"/>
				
					<line fill="none" stroke="#FFFFFF" stroke-width="2.8028" stroke-miterlimit="10" x1="360.866" y1="133.241" x2="127.588" y2="366.519"/>
				
					<line fill="none" stroke="#FFFFFF" stroke-width="2.8028" stroke-miterlimit="10" x1="352.567" y1="124.941" x2="119.289" y2="358.219"/>
				
					<line fill="none" stroke="#FFFFFF" stroke-width="2.8028" stroke-miterlimit="10" x1="344.268" y1="116.643" x2="110.99" y2="349.92"/>
				
					<line fill="none" stroke="#FFFFFF" stroke-width="2.8028" stroke-miterlimit="10" x1="335.969" y1="108.342" x2="102.691" y2="341.622"/>
				
					<line fill="none" stroke="#FFFFFF" stroke-width="2.8028" stroke-miterlimit="10" x1="327.67" y1="100.043" x2="94.392" y2="333.321"/>
				
					<line fill="none" stroke="#FFFFFF" stroke-width="2.8028" stroke-miterlimit="10" x1="319.371" y1="91.743" x2="86.093" y2="325.022"/>
				
					<line fill="none" stroke="#FFFFFF" stroke-width="2.8028" stroke-miterlimit="10" x1="311.072" y1="83.444" x2="77.794" y2="316.723"/>
				
					<line fill="none" stroke="#FFFFFF" stroke-width="2.8028" stroke-miterlimit="10" x1="302.773" y1="75.145" x2="69.495" y2="308.424"/>
				
					<line fill="none" stroke="#FFFFFF" stroke-width="2.8028" stroke-miterlimit="10" x1="294.474" y1="66.846" x2="61.193" y2="300.124"/>
				
					<line fill="none" stroke="#FFFFFF" stroke-width="2.8028" stroke-miterlimit="10" x1="286.175" y1="58.545" x2="52.895" y2="291.825"/>
				
					<line fill="none" stroke="#FFFFFF" stroke-width="2.8028" stroke-miterlimit="10" x1="277.876" y1="50.247" x2="44.596" y2="283.526"/>
				
					<line fill="none" stroke="#FFFFFF" stroke-width="2.8028" stroke-miterlimit="10" x1="269.574" y1="41.947" x2="36.296" y2="275.226"/>
				
					<line fill="none" stroke="#FFFFFF" stroke-width="2.8028" stroke-miterlimit="10" x1="261.275" y1="33.647" x2="27.998" y2="266.926"/>
				
					<line fill="none" stroke="#FFFFFF" stroke-width="2.8028" stroke-miterlimit="10" x1="252.977" y1="25.348" x2="19.699" y2="258.627"/>
				
					<line fill="none" stroke="#FFFFFF" stroke-width="2.8028" stroke-miterlimit="10" x1="244.678" y1="17.049" x2="11.399" y2="250.327"/>
				
					<line fill="none" stroke="#FFFFFF" stroke-width="2.8028" stroke-miterlimit="10" x1="236.378" y1="8.75" x2="3.098" y2="242.028"/>
				
					<line fill="none" stroke="#FFFFFF" stroke-width="2.8028" stroke-miterlimit="10" x1="228.08" y1="0.45" x2="-5.201" y2="233.729"/>
				
					<line fill="none" stroke="#FFFFFF" stroke-width="2.8028" stroke-miterlimit="10" x1="219.778" y1="-7.849" x2="-13.5" y2="225.429"/>
				
					<line fill="none" stroke="#FFFFFF" stroke-width="2.8028" stroke-miterlimit="10" x1="211.479" y1="-16.148" x2="-21.799" y2="217.129"/>
				
					<line fill="none" stroke="#FFFFFF" stroke-width="2.8028" stroke-miterlimit="10" x1="202.022" y1="-25.606" x2="-31.256" y2="207.673"/>
				
					<line fill="none" stroke="#FFFFFF" stroke-width="2.8028" stroke-miterlimit="10" x1="192.565" y1="-35.062" x2="-40.713" y2="198.216"/>
				
					<line fill="none" stroke="#FFFFFF" stroke-width="2.8028" stroke-miterlimit="10" x1="183.108" y1="-44.52" x2="-50.169" y2="188.759"/>
				
					<line fill="none" stroke="#FFFFFF" stroke-width="2.8028" stroke-miterlimit="10" x1="173.651" y1="-53.976" x2="-59.626" y2="179.304"/>
				
					<line fill="none" stroke="#FFFFFF" stroke-width="2.8028" stroke-miterlimit="10" x1="164.195" y1="-63.434" x2="-69.086" y2="169.846"/>
			</g>
		</g>
		<path fill="#FFFFFF" stroke="#FFFFFF" stroke-width="2.8028" stroke-miterlimit="10" d="M236.151,154.515
			c0,47.22-38.276,85.496-85.492,85.496c-47.221,0-85.492-38.276-85.492-85.496c0-47.212,38.271-85.496,85.492-85.496
			C197.875,69.019,236.151,107.302,236.151,154.515z"/>
		<path fill="#023148" d="M229.908,154.515c0,43.77-35.481,79.252-79.248,79.252c-43.77,0-79.249-35.483-79.249-79.252
			c0-43.765,35.479-79.252,79.249-79.252C194.426,75.263,229.908,110.75,229.908,154.515z"/>
		<circle fill="#023148" stroke="#FFFFFF" stroke-width="2.8028" stroke-miterlimit="10" cx="112.701" cy="117.006" r="17.085"/>
		<circle fill="#023148" stroke="#FFFFFF" stroke-width="2.8028" stroke-miterlimit="10" cx="148.003" cy="98.788" r="17.084"/>
		<circle fill="#023148" stroke="#FFFFFF" stroke-width="2.8028" stroke-miterlimit="10" cx="184.707" cy="114.204" r="17.085"/>
		<circle fill="#023148" stroke="#FFFFFF" stroke-width="2.8028" stroke-miterlimit="10" cx="102.891" cy="186.917" r="17.085"/>
		<circle fill="#023148" stroke="#FFFFFF" stroke-width="2.8028" stroke-miterlimit="10" cx="171.126" cy="165.545" r="17.084"/>
		<path fill="#023148" stroke="#FFFFFF" stroke-width="2.8028" stroke-miterlimit="10" d="M152.397,209.987
			c0,9.436-7.65,17.083-17.085,17.083s-17.085-7.647-17.085-17.083c0-9.438,7.65-17.085,17.085-17.085
			S152.397,200.549,152.397,209.987z"/>
		<circle fill="#023148" stroke="#FFFFFF" stroke-width="2.8028" stroke-miterlimit="10" cx="173.851" cy="207.184" r="17.085"/>
		<circle fill="#023148" stroke="#FFFFFF" stroke-width="2.8028" stroke-miterlimit="10" cx="202.925" cy="184.114" r="17.085"/>
		<circle fill="#023148" stroke="#FFFFFF" stroke-width="2.8028" stroke-miterlimit="10" cx="97.532" cy="150.37" r="17.085"/>
		<circle fill="#023148" stroke="#FFFFFF" stroke-width="2.8028" stroke-miterlimit="10" cx="135.288" cy="170.69" r="17.085"/>
		<circle fill="#023148" stroke="#FFFFFF" stroke-width="2.8028" stroke-miterlimit="10" cx="148.169" cy="137.056" r="17.085"/>
		<circle fill="#023148" stroke="#FFFFFF" stroke-width="2.8028" stroke-miterlimit="10" cx="207.646" cy="146.165" r="17.084"/>
	</g>
	
		<line fill="none" stroke="#FFF000" stroke-width="4.2042" stroke-miterlimit="10" x1="191.213" y1="116.694" x2="352.375" y2="116.694"/>
	
		<line fill="none" stroke="#FFF000" stroke-width="4.2042" stroke-miterlimit="10" x1="247.732" y1="199.378" x2="352.375" y2="199.378"/>
	<g>
		
			<text transform="matrix(1 0 0 1 364.1348 132.6533)" fill="#FFFFFF" font-family="'AdobeFanHeitiStd-Bold-B5pc-H'" font-size="43.4438" letter-spacing="2">訊號結合電力多芯線</text>
	</g>
	<g>
		
			<text transform="matrix(1 0 0 1 364.1348 216.751)" fill="#FFFFFF" font-family="'AdobeFanHeitiStd-Bold-B5pc-H'" font-size="43.4438" letter-spacing="2">多重防雜訊隔離</text>
	</g>
</g>
</svg>
