<?xml version="1.0" encoding="utf-8"?>
<!-- Generator: Adobe Illustrator 16.0.0, SVG Export Plug-In . SVG Version: 6.00 Build 0)  -->
<!DOCTYPE svg PUBLIC "-//W3C//DTD SVG 1.1//EN" "http://www.w3.org/Graphics/SVG/1.1/DTD/svg11.dtd">
<svg version="1.1" id="圖層_1" xmlns="http://www.w3.org/2000/svg" xmlns:xlink="http://www.w3.org/1999/xlink" x="0px" y="0px"
	 width="800px" height="313px" viewBox="0 0 800 313" enable-background="new 0 0 800 313" xml:space="preserve">
<g>
	<path fill="#013047" stroke="#FFFFFF" stroke-width="6" stroke-miterlimit="10" d="M318.224,155.778
		c0,80.654-65.381,146.034-146.032,146.034c-80.649,0-146.033-65.38-146.033-146.034c0-80.648,65.384-146.033,146.033-146.033
		C252.842,9.745,318.224,75.129,318.224,155.778z"/>
	<circle fill="#013047" stroke="#FFFFFF" stroke-width="2" stroke-miterlimit="10" cx="172.191" cy="155.778" r="129.419"/>
	<circle fill="#013047" stroke="#FFFFFF" stroke-width="2" stroke-miterlimit="10" cx="172.191" cy="155.778" r="120.489"/>
	<g>
		<g>
			<defs>
				<circle id="SVGID_1_" cx="172.191" cy="155.778" r="120.489"/>
			</defs>
			<clipPath id="SVGID_2_">
				<use xlink:href="#SVGID_1_"  overflow="visible"/>
			</clipPath>
			<g clip-path="url(#SVGID_2_)">
				
					<line fill="none" stroke="#FFFFFF" stroke-width="2" stroke-miterlimit="10" x1="174.243" y1="-88.76" x2="435.986" y2="172.981"/>
				
					<line fill="none" stroke="#FFFFFF" stroke-width="2" stroke-miterlimit="10" x1="164.932" y1="-79.447" x2="426.67" y2="182.293"/>
				
					<line fill="none" stroke="#FFFFFF" stroke-width="2" stroke-miterlimit="10" x1="155.62" y1="-70.137" x2="417.359" y2="191.604"/>
				
					<line fill="none" stroke="#FFFFFF" stroke-width="2" stroke-miterlimit="10" x1="146.306" y1="-60.825" x2="408.048" y2="200.917"/>
				
					<line fill="none" stroke="#FFFFFF" stroke-width="2" stroke-miterlimit="10" x1="136.994" y1="-51.51" x2="398.737" y2="210.228"/>
				
					<line fill="none" stroke="#FFFFFF" stroke-width="2" stroke-miterlimit="10" x1="127.683" y1="-42.2" x2="389.424" y2="219.54"/>
				
					<line fill="none" stroke="#FFFFFF" stroke-width="2" stroke-miterlimit="10" x1="118.372" y1="-32.888" x2="380.113" y2="228.854"/>
				
					<line fill="none" stroke="#FFFFFF" stroke-width="2" stroke-miterlimit="10" x1="109.06" y1="-23.576" x2="370.802" y2="238.166"/>
				
					<line fill="none" stroke="#FFFFFF" stroke-width="2" stroke-miterlimit="10" x1="99.747" y1="-14.266" x2="361.487" y2="247.477"/>
				
					<line fill="none" stroke="#FFFFFF" stroke-width="2" stroke-miterlimit="10" x1="90.434" y1="-4.954" x2="352.175" y2="256.789"/>
				<line fill="none" stroke="#FFFFFF" stroke-width="2" stroke-miterlimit="10" x1="81.121" y1="4.357" x2="342.864" y2="266.1"/>
				
					<line fill="none" stroke="#FFFFFF" stroke-width="2" stroke-miterlimit="10" x1="71.81" y1="13.671" x2="333.553" y2="275.412"/>
				<line fill="none" stroke="#FFFFFF" stroke-width="2" stroke-miterlimit="10" x1="62.5" y1="22.983" x2="324.241" y2="284.725"/>
				
					<line fill="none" stroke="#FFFFFF" stroke-width="2" stroke-miterlimit="10" x1="53.188" y1="32.296" x2="314.929" y2="294.039"/>
				
					<line fill="none" stroke="#FFFFFF" stroke-width="2" stroke-miterlimit="10" x1="43.875" y1="41.607" x2="305.615" y2="303.35"/>
				
					<line fill="none" stroke="#FFFFFF" stroke-width="2" stroke-miterlimit="10" x1="34.564" y1="50.919" x2="296.304" y2="312.661"/>
				<line fill="none" stroke="#FFFFFF" stroke-width="2" stroke-miterlimit="10" x1="25.25" y1="60.23" x2="286.992" y2="321.973"/>
				
					<line fill="none" stroke="#FFFFFF" stroke-width="2" stroke-miterlimit="10" x1="15.939" y1="69.544" x2="277.681" y2="331.284"/>
				<line fill="none" stroke="#FFFFFF" stroke-width="2" stroke-miterlimit="10" x1="6.627" y1="78.855" x2="268.37" y2="340.596"/>
				
					<line fill="none" stroke="#FFFFFF" stroke-width="2" stroke-miterlimit="10" x1="-2.685" y1="88.168" x2="259.057" y2="349.909"/>
				
					<line fill="none" stroke="#FFFFFF" stroke-width="2" stroke-miterlimit="10" x1="-11.996" y1="97.479" x2="249.745" y2="359.223"/>
				
					<line fill="none" stroke="#FFFFFF" stroke-width="2" stroke-miterlimit="10" x1="-21.309" y1="106.791" x2="240.431" y2="368.533"/>
				
					<line fill="none" stroke="#FFFFFF" stroke-width="2" stroke-miterlimit="10" x1="-31.919" y1="117.403" x2="229.822" y2="379.144"/>
				
					<line fill="none" stroke="#FFFFFF" stroke-width="2" stroke-miterlimit="10" x1="-42.53" y1="128.013" x2="219.212" y2="389.755"/>
				
					<line fill="none" stroke="#FFFFFF" stroke-width="2" stroke-miterlimit="10" x1="-53.142" y1="138.623" x2="208.6" y2="400.364"/>
				
					<line fill="none" stroke="#FFFFFF" stroke-width="2" stroke-miterlimit="10" x1="-63.75" y1="149.234" x2="197.991" y2="410.978"/>
				
					<line fill="none" stroke="#FFFFFF" stroke-width="2" stroke-miterlimit="10" x1="-74.363" y1="159.844" x2="187.379" y2="421.587"/>
				
					<line fill="none" stroke="#FFFFFF" stroke-width="2" stroke-miterlimit="10" x1="435.986" y1="159.844" x2="174.243" y2="421.587"/>
				
					<line fill="none" stroke="#FFFFFF" stroke-width="2" stroke-miterlimit="10" x1="426.672" y1="150.531" x2="164.932" y2="412.275"/>
				
					<line fill="none" stroke="#FFFFFF" stroke-width="2" stroke-miterlimit="10" x1="417.361" y1="141.22" x2="155.62" y2="402.964"/>
				
					<line fill="none" stroke="#FFFFFF" stroke-width="2" stroke-miterlimit="10" x1="408.048" y1="131.909" x2="146.308" y2="393.652"/>
				
					<line fill="none" stroke="#FFFFFF" stroke-width="2" stroke-miterlimit="10" x1="398.737" y1="122.597" x2="136.997" y2="384.338"/>
				
					<line fill="none" stroke="#FFFFFF" stroke-width="2" stroke-miterlimit="10" x1="389.424" y1="113.286" x2="127.683" y2="375.026"/>
				
					<line fill="none" stroke="#FFFFFF" stroke-width="2" stroke-miterlimit="10" x1="380.113" y1="103.972" x2="118.372" y2="365.713"/>
				
					<line fill="none" stroke="#FFFFFF" stroke-width="2" stroke-miterlimit="10" x1="370.802" y1="94.659" x2="109.06" y2="356.402"/>
				
					<line fill="none" stroke="#FFFFFF" stroke-width="2" stroke-miterlimit="10" x1="361.49" y1="85.348" x2="99.747" y2="347.091"/>
				
					<line fill="none" stroke="#FFFFFF" stroke-width="2" stroke-miterlimit="10" x1="352.179" y1="76.037" x2="90.436" y2="337.78"/>
				
					<line fill="none" stroke="#FFFFFF" stroke-width="2" stroke-miterlimit="10" x1="342.864" y1="66.725" x2="81.125" y2="328.467"/>
				
					<line fill="none" stroke="#FFFFFF" stroke-width="2" stroke-miterlimit="10" x1="333.553" y1="57.414" x2="71.813" y2="319.153"/>
				<line fill="none" stroke="#FFFFFF" stroke-width="2" stroke-miterlimit="10" x1="324.241" y1="48.1" x2="62.5" y2="309.842"/>
				
					<line fill="none" stroke="#FFFFFF" stroke-width="2" stroke-miterlimit="10" x1="314.929" y1="38.788" x2="53.188" y2="300.53"/>
				
					<line fill="none" stroke="#FFFFFF" stroke-width="2" stroke-miterlimit="10" x1="305.618" y1="29.477" x2="43.875" y2="291.218"/>
				
					<line fill="none" stroke="#FFFFFF" stroke-width="2" stroke-miterlimit="10" x1="296.306" y1="20.165" x2="34.564" y2="281.907"/>
				
					<line fill="none" stroke="#FFFFFF" stroke-width="2" stroke-miterlimit="10" x1="286.995" y1="10.854" x2="25.253" y2="272.595"/>
				
					<line fill="none" stroke="#FFFFFF" stroke-width="2" stroke-miterlimit="10" x1="277.681" y1="1.542" x2="15.941" y2="263.281"/>
				<line fill="none" stroke="#FFFFFF" stroke-width="2" stroke-miterlimit="10" x1="268.37" y1="-7.77" x2="6.627" y2="253.97"/>
				
					<line fill="none" stroke="#FFFFFF" stroke-width="2" stroke-miterlimit="10" x1="259.057" y1="-17.083" x2="-2.685" y2="244.656"/>
				
					<line fill="none" stroke="#FFFFFF" stroke-width="2" stroke-miterlimit="10" x1="249.745" y1="-26.396" x2="-11.996" y2="235.345"/>
				
					<line fill="none" stroke="#FFFFFF" stroke-width="2" stroke-miterlimit="10" x1="240.433" y1="-35.707" x2="-21.309" y2="226.033"/>
				
					<line fill="none" stroke="#FFFFFF" stroke-width="2" stroke-miterlimit="10" x1="229.822" y1="-46.319" x2="-31.919" y2="215.422"/>
				
					<line fill="none" stroke="#FFFFFF" stroke-width="2" stroke-miterlimit="10" x1="219.212" y1="-56.929" x2="-42.53" y2="204.812"/>
				<line fill="none" stroke="#FFFFFF" stroke-width="2" stroke-miterlimit="10" x1="208.6" y1="-67.542" x2="-53.142" y2="194.2"/>
				
					<line fill="none" stroke="#FFFFFF" stroke-width="2" stroke-miterlimit="10" x1="197.991" y1="-78.15" x2="-63.75" y2="183.59"/>
				
					<line fill="none" stroke="#FFFFFF" stroke-width="2" stroke-miterlimit="10" x1="187.379" y1="-88.76" x2="-74.363" y2="172.979"/>
			</g>
		</g>
	</g>
	<path fill="#013047" stroke="#FFFFFF" stroke-width="2" stroke-miterlimit="10" d="M280.077,155.778
		c0,59.587-48.302,107.892-107.885,107.892c-59.586,0-107.884-48.305-107.884-107.892c0-59.577,48.298-107.891,107.884-107.891
		C231.774,47.887,280.077,96.201,280.077,155.778z"/>
	<path fill="#231815" stroke="#FFFFFF" stroke-width="2" stroke-miterlimit="10" d="M272.102,155.778
		c0,55.184-44.732,99.914-99.91,99.914c-55.183,0-99.909-44.73-99.909-99.914c0-55.174,44.726-99.914,99.909-99.914
		C227.37,55.865,272.102,100.604,272.102,155.778z"/>
	<g>
		<path fill="#013047" stroke="#FFFFFF" stroke-width="2" stroke-miterlimit="10" d="M196.27,74.808
			c0,7.397-5.997,13.396-13.395,13.396h-18.418c-7.397,0-13.394-5.998-13.394-13.396l0,0c0-7.397,5.997-13.396,13.394-13.396h18.418
			C190.273,61.412,196.27,67.41,196.27,74.808L196.27,74.808z"/>
		<path fill="#013047" stroke="#FFFFFF" stroke-width="2" stroke-miterlimit="10" d="M172.976,74.784c0,5.235-4.244,9.48-9.479,9.48
			l0,0c-5.233,0-9.48-4.245-9.48-9.48l0,0c0-5.237,4.247-9.481,9.48-9.481l0,0C168.732,65.302,172.976,69.546,172.976,74.784
			L172.976,74.784z"/>
		<path fill="#013047" stroke="#FFFFFF" stroke-width="2" stroke-miterlimit="10" d="M193.318,74.784c0,5.235-4.245,9.48-9.481,9.48
			l0,0c-5.236,0-9.482-4.245-9.482-9.48l0,0c0-5.237,4.246-9.481,9.482-9.481l0,0C189.074,65.302,193.318,69.546,193.318,74.784
			L193.318,74.784z"/>
	</g>
	<g>
		<path fill="#013047" stroke="#FFFFFF" stroke-width="2" stroke-miterlimit="10" d="M234.87,108.428
			c-4.793,5.635-13.249,6.319-18.883,1.526l-14.032-11.933c-5.635-4.792-6.317-13.247-1.526-18.883l0,0
			c4.793-5.635,13.249-6.318,18.882-1.525l14.033,11.932C238.978,94.337,239.662,102.792,234.87,108.428L234.87,108.428z"/>
		<path fill="#013047" stroke="#FFFFFF" stroke-width="2" stroke-miterlimit="10" d="M217.14,93.319
			c-3.392,3.989-9.375,4.476-13.366,1.081l0,0c-3.987-3.391-4.472-9.375-1.078-13.364l0,0c3.391-3.989,9.376-4.473,13.363-1.082l0,0
			C220.051,83.347,220.532,89.329,217.14,93.319L217.14,93.319z"/>
		<path fill="#013047" stroke="#FFFFFF" stroke-width="2" stroke-miterlimit="10" d="M232.635,106.496
			c-3.393,3.988-9.376,4.474-13.365,1.082l0,0c-3.987-3.393-4.473-9.375-1.079-13.366l0,0c3.392-3.988,9.375-4.473,13.363-1.078l0,0
			C235.543,96.523,236.027,102.506,232.635,106.496L232.635,106.496z"/>
	</g>
	<g>
		<path fill="#013047" stroke="#FFFFFF" stroke-width="2" stroke-miterlimit="10" d="M210.282,130.357
			c-4.794,5.637-13.249,6.32-18.883,1.527l-14.033-11.932c-5.635-4.792-6.317-13.247-1.525-18.883l0,0
			c4.792-5.636,13.248-6.317,18.882-1.525l14.032,11.932C214.39,116.268,215.073,124.722,210.282,130.357L210.282,130.357z"/>
		<path fill="#013047" stroke="#FFFFFF" stroke-width="2" stroke-miterlimit="10" d="M192.55,115.248
			c-3.39,3.989-9.375,4.476-13.365,1.083l0,0c-3.987-3.393-4.472-9.375-1.078-13.366l0,0c3.391-3.988,9.377-4.472,13.364-1.082l0,0
			C195.461,105.278,195.944,111.26,192.55,115.248L192.55,115.248z"/>
		<path fill="#013047" stroke="#FFFFFF" stroke-width="2" stroke-miterlimit="10" d="M208.046,128.425
			c-3.393,3.99-9.377,4.475-13.364,1.083l0,0c-3.988-3.394-4.474-9.375-1.08-13.366l0,0c3.391-3.988,9.374-4.471,13.364-1.079l0,0
			C210.955,118.455,211.439,124.437,208.046,128.425L208.046,128.425z"/>
	</g>
	<g>
		<path fill="#013047" stroke="#FFFFFF" stroke-width="2" stroke-miterlimit="10" d="M219.305,178.857
			c-7.397-0.003-13.394-6.001-13.392-13.398l0.003-18.421c0.002-7.396,6-13.394,13.398-13.394l0,0
			c7.397,0.004,13.394,6.004,13.392,13.4l-0.004,18.421C232.702,172.862,226.704,178.858,219.305,178.857L219.305,178.857z"/>
		<path fill="#013047" stroke="#FFFFFF" stroke-width="2" stroke-miterlimit="10" d="M219.334,155.562
			c-5.237-0.001-9.48-4.246-9.48-9.481l0,0c0.003-5.235,4.249-9.479,9.486-9.479l0,0c5.235,0,9.481,4.25,9.477,9.482l0,0
			C228.817,151.322,224.572,155.564,219.334,155.562L219.334,155.562z"/>
		<path fill="#013047" stroke="#FFFFFF" stroke-width="2" stroke-miterlimit="10" d="M219.331,175.902
			c-5.239,0-9.482-4.243-9.481-9.479l0,0c0.001-5.235,4.247-9.48,9.486-9.479l0,0c5.233,0,9.478,4.248,9.476,9.483l0,0
			C228.811,171.662,224.566,175.904,219.331,175.902L219.331,175.902z"/>
	</g>
	<g>
		<path fill="#013047" stroke="#FFFFFF" stroke-width="2" stroke-miterlimit="10" d="M124.939,178.855
			c-7.398-0.001-13.395-6.002-13.392-13.397l0.001-18.42c0.004-7.396,6.002-13.394,13.398-13.394l0,0
			c7.4,0.003,13.396,6.003,13.395,13.399l-0.004,18.421C138.335,172.86,132.337,178.858,124.939,178.855L124.939,178.855z"/>
		<path fill="#013047" stroke="#FFFFFF" stroke-width="2" stroke-miterlimit="10" d="M124.967,155.561
			c-5.235,0-9.479-4.245-9.479-9.481l0,0c0.001-5.234,4.248-9.479,9.485-9.478l0,0c5.236,0,9.48,4.25,9.478,9.482l0,0
			C134.45,151.321,130.205,155.563,124.967,155.561L124.967,155.561z"/>
		<path fill="#013047" stroke="#FFFFFF" stroke-width="2" stroke-miterlimit="10" d="M124.964,175.902
			c-5.239-0.001-9.481-4.243-9.481-9.479l0,0c0.002-5.236,4.248-9.482,9.486-9.48l0,0c5.234,0.001,9.479,4.248,9.475,9.484l0,0
			C134.444,171.662,130.2,175.904,124.964,175.902L124.964,175.902z"/>
	</g>
	<g>
		<path fill="#013047" stroke="#FFFFFF" stroke-width="2" stroke-miterlimit="10" d="M165.112,101.758
			c4.785,5.643,4.089,14.098-1.554,18.882l-14.049,11.912c-5.641,4.784-14.096,4.087-18.88-1.554l0,0
			c-4.785-5.644-4.088-14.099,1.555-18.88l14.047-11.913C151.872,95.421,160.328,96.117,165.112,101.758L165.112,101.758z"/>
		<path fill="#013047" stroke="#FFFFFF" stroke-width="2" stroke-miterlimit="10" d="M147.328,116.805
			c3.387,3.995,2.896,9.979-1.097,13.364l0,0c-3.993,3.385-9.978,2.895-13.364-1.101l0,0c-3.387-3.993-2.893-9.979,1.101-13.362l0,0
			C137.96,112.319,143.943,112.811,147.328,116.805L147.328,116.805z"/>
		<path fill="#013047" stroke="#FFFFFF" stroke-width="2" stroke-miterlimit="10" d="M162.843,103.65
			c3.387,3.995,2.896,9.978-1.098,13.364l0,0c-3.994,3.384-9.977,2.895-13.365-1.101l0,0c-3.385-3.995-2.892-9.978,1.1-13.363l0,0
			C153.475,99.166,159.457,99.656,162.843,103.65L162.843,103.65z"/>
	</g>
	<g>
		<path fill="#013047" stroke="#FFFFFF" stroke-width="2" stroke-miterlimit="10" d="M193.732,142.555
			c0.131,7.396-5.756,13.502-13.152,13.634l-18.417,0.332c-7.396,0.132-13.501-5.757-13.636-13.151l0,0
			c-0.131-7.398,5.758-13.502,13.154-13.635l18.417-0.333C187.493,129.269,193.599,135.156,193.732,142.555L193.732,142.555z"/>
		<path fill="#013047" stroke="#FFFFFF" stroke-width="2" stroke-miterlimit="10" d="M170.439,142.949
			c0.096,5.233-4.071,9.556-9.308,9.65l0,0c-5.233,0.094-9.556-4.077-9.649-9.312l0,0c-0.094-5.234,4.074-9.557,9.308-9.647l0,0
			C166.029,133.546,170.348,137.713,170.439,142.949L170.439,142.949z"/>
		<path fill="#013047" stroke="#FFFFFF" stroke-width="2" stroke-miterlimit="10" d="M190.778,142.583
			c0.094,5.236-4.073,9.557-9.308,9.65l0,0c-5.235,0.095-9.557-4.072-9.651-9.31l0,0c-0.093-5.235,4.074-9.554,9.31-9.649l0,0
			C186.362,133.18,190.684,137.347,190.778,142.583L190.778,142.583z"/>
	</g>
	<g>
		<path fill="#013047" stroke="#FFFFFF" stroke-width="2" stroke-miterlimit="10" d="M193.732,173.124
			c0.131,7.396-5.756,13.502-13.152,13.634l-18.417,0.332c-7.396,0.134-13.501-5.756-13.636-13.153l0,0
			c-0.131-7.396,5.758-13.499,13.154-13.633l18.417-0.333C187.493,159.839,193.599,165.728,193.732,173.124L193.732,173.124z"/>
		<path fill="#013047" stroke="#FFFFFF" stroke-width="2" stroke-miterlimit="10" d="M170.439,173.519
			c0.096,5.233-4.071,9.557-9.308,9.651l0,0c-5.233,0.094-9.556-4.075-9.649-9.312l0,0c-0.094-5.234,4.074-9.558,9.308-9.648l0,0
			C166.029,164.116,170.348,168.283,170.439,173.519L170.439,173.519z"/>
		<path fill="#013047" stroke="#FFFFFF" stroke-width="2" stroke-miterlimit="10" d="M190.778,173.152
			c0.094,5.236-4.073,9.559-9.308,9.651l0,0c-5.235,0.094-9.557-4.072-9.651-9.31l0,0c-0.093-5.235,4.074-9.554,9.31-9.649l0,0
			C186.362,163.751,190.684,167.917,190.778,173.152L190.778,173.152z"/>
	</g>
	<g>
		<path fill="#013047" stroke="#FFFFFF" stroke-width="2" stroke-miterlimit="10" d="M127.652,183.465
			c4.793-5.634,13.249-6.319,18.883-1.526l14.032,11.933c5.634,4.792,6.317,13.247,1.526,18.883l0,0
			c-4.792,5.635-13.248,6.317-18.883,1.524l-14.032-11.931C123.544,197.556,122.86,189.1,127.652,183.465L127.652,183.465z"/>
		<path fill="#013047" stroke="#FFFFFF" stroke-width="2" stroke-miterlimit="10" d="M145.381,198.574
			c3.392-3.989,9.375-4.476,13.365-1.082l0,0c3.988,3.391,4.473,9.376,1.08,13.365l0,0c-3.392,3.988-9.377,4.473-13.363,1.081l0,0
			C142.472,208.545,141.989,202.563,145.381,198.574L145.381,198.574z"/>
		<path fill="#013047" stroke="#FFFFFF" stroke-width="2" stroke-miterlimit="10" d="M129.886,185.397
			c3.394-3.988,9.376-4.475,13.364-1.082l0,0c3.989,3.393,4.475,9.375,1.082,13.366l0,0c-3.393,3.988-9.375,4.471-13.364,1.078l0,0
			C126.978,195.369,126.494,189.387,129.886,185.397L129.886,185.397z"/>
	</g>
	<g>
		<path fill="#013047" stroke="#FFFFFF" stroke-width="2" stroke-miterlimit="10" d="M181.127,211.732
			c-4.784-5.644-4.088-14.097,1.555-18.88l14.049-11.914c5.64-4.783,14.096-4.087,18.88,1.556l0,0
			c4.785,5.644,4.088,14.097-1.556,18.879l-14.047,11.914C194.368,218.068,185.912,217.375,181.127,211.732L181.127,211.732z"/>
		<path fill="#013047" stroke="#FFFFFF" stroke-width="2" stroke-miterlimit="10" d="M198.911,196.685
			c-3.386-3.993-2.896-9.975,1.098-13.364l0,0c3.993-3.385,9.977-2.892,13.364,1.104l0,0c3.386,3.993,2.893,9.979-1.101,13.361l0,0
			C208.278,201.173,202.296,200.679,198.911,196.685L198.911,196.685z"/>
		<path fill="#013047" stroke="#FFFFFF" stroke-width="2" stroke-miterlimit="10" d="M183.396,209.84
			c-3.387-3.994-2.896-9.978,1.097-13.362l0,0c3.995-3.386,9.979-2.896,13.366,1.102l0,0c3.384,3.991,2.891,9.975-1.102,13.36l0,0
			C192.765,214.327,186.782,213.834,183.396,209.84L183.396,209.84z"/>
	</g>
	<g>
		<path fill="#013047" stroke="#FFFFFF" stroke-width="2" stroke-miterlimit="10" d="M253.404,152.706
			c-7.15,1.897-14.486-2.36-16.384-9.512l-4.727-17.801c-1.899-7.149,2.359-14.484,9.508-16.385l0,0
			c7.15-1.897,14.488,2.361,16.386,9.511l4.727,17.802C264.812,143.472,260.555,150.807,253.404,152.706L253.404,152.706z"/>
		<path fill="#013047" stroke="#FFFFFF" stroke-width="2" stroke-miterlimit="10" d="M247.451,130.184
			c-5.061,1.345-10.254-1.667-11.597-6.729l0,0c-1.344-5.059,1.67-10.251,6.73-11.597l0,0c5.063-1.344,10.255,1.671,11.595,6.73l0,0
			C255.525,123.651,252.511,128.84,247.451,130.184L247.451,130.184z"/>
		<path fill="#013047" stroke="#FFFFFF" stroke-width="2" stroke-miterlimit="10" d="M252.67,149.844
			c-5.062,1.345-10.251-1.669-11.597-6.729l0,0c-1.343-5.06,1.668-10.254,6.732-11.598l0,0c5.061-1.344,10.251,1.671,11.596,6.73
			l0,0C260.745,143.311,257.732,148.502,252.67,149.844L252.67,149.844z"/>
	</g>
	<g>
		<path fill="#013047" stroke="#FFFFFF" stroke-width="2" stroke-miterlimit="10" d="M241.459,199.043
			c-6.982-2.446-10.66-10.088-8.211-17.073l6.087-17.381c2.445-6.982,10.089-10.659,17.07-8.215l0,0
			c6.982,2.447,10.661,10.092,8.216,17.073l-6.091,17.383C256.085,197.81,248.443,201.487,241.459,199.043L241.459,199.043z"/>
		<path fill="#013047" stroke="#FFFFFF" stroke-width="2" stroke-miterlimit="10" d="M249.183,177.066
			c-4.943-1.729-7.545-7.14-5.813-12.081l0,0c1.729-4.941,7.138-7.544,12.083-5.813l0,0c4.941,1.729,7.544,7.142,5.811,12.081l0,0
			C259.534,176.196,254.127,178.797,249.183,177.066L249.183,177.066z"/>
		<path fill="#013047" stroke="#FFFFFF" stroke-width="2" stroke-miterlimit="10" d="M242.461,196.263
			c-4.944-1.731-7.546-7.139-5.817-12.08l0,0c1.732-4.941,7.14-7.546,12.084-5.814l0,0c4.942,1.73,7.544,7.14,5.813,12.083l0,0
			C252.81,195.393,247.404,197.996,242.461,196.263L242.461,196.263z"/>
	</g>
	<g>
		<path fill="#013047" stroke="#FFFFFF" stroke-width="2" stroke-miterlimit="10" d="M151.063,234.757
			c0-7.399,5.999-13.396,13.394-13.396h18.418c7.398,0,13.395,5.996,13.395,13.396l0,0c0,7.397-5.997,13.395-13.395,13.395h-18.418
			C157.061,248.151,151.063,242.155,151.063,234.757L151.063,234.757z"/>
		<path fill="#013047" stroke="#FFFFFF" stroke-width="2" stroke-miterlimit="10" d="M174.355,234.781
			c0-5.236,4.244-9.481,9.48-9.481l0,0c5.233,0,9.48,4.245,9.48,9.481l0,0c0,5.235-4.247,9.481-9.48,9.481l0,0
			C178.599,244.263,174.355,240.017,174.355,234.781L174.355,234.781z"/>
		<path fill="#013047" stroke="#FFFFFF" stroke-width="2" stroke-miterlimit="10" d="M154.013,234.781
			c0-5.236,4.244-9.481,9.48-9.481l0,0c5.235,0,9.483,4.245,9.483,9.481l0,0c0,5.235-4.248,9.481-9.483,9.481l0,0
			C158.257,244.263,154.013,240.017,154.013,234.781L154.013,234.781z"/>
	</g>
	<g>
		<path fill="#013047" stroke="#FFFFFF" stroke-width="2" stroke-miterlimit="10" d="M240.856,204.126
			c-4.795-5.635-13.251-6.319-18.884-1.526l-14.031,11.933c-5.636,4.792-6.32,13.247-1.525,18.883l0,0
			c4.793,5.636,13.245,6.317,18.883,1.524l14.032-11.931C244.964,218.218,245.648,209.762,240.856,204.126L240.856,204.126z"/>
		<path fill="#013047" stroke="#FFFFFF" stroke-width="2" stroke-miterlimit="10" d="M223.127,219.236
			c-3.393-3.989-9.376-4.474-13.365-1.082l0,0c-3.987,3.392-4.471,9.375-1.081,13.366l0,0c3.391,3.988,9.378,4.471,13.363,1.081l0,0
			C226.036,229.208,226.519,223.225,223.127,219.236L223.127,219.236z"/>
		<path fill="#013047" stroke="#FFFFFF" stroke-width="2" stroke-miterlimit="10" d="M238.621,206.061
			c-3.392-3.991-9.375-4.476-13.364-1.083l0,0c-3.987,3.394-4.474,9.375-1.079,13.366l0,0c3.392,3.988,9.374,4.472,13.365,1.079l0,0
			C241.53,216.031,242.013,210.049,238.621,206.061L238.621,206.061z"/>
	</g>
	<g>
		<path fill="#013047" stroke="#FFFFFF" stroke-width="2" stroke-miterlimit="10" d="M110.449,108.428
			c4.794,5.635,13.25,6.319,18.883,1.526l14.033-11.933c5.634-4.792,6.317-13.247,1.526-18.883l0,0
			c-4.792-5.635-13.249-6.318-18.883-1.525l-14.032,11.932C106.341,94.337,105.658,102.792,110.449,108.428L110.449,108.428z"/>
		<path fill="#013047" stroke="#FFFFFF" stroke-width="2" stroke-miterlimit="10" d="M128.18,93.319
			c3.391,3.989,9.374,4.476,13.365,1.081l0,0c3.987-3.391,4.472-9.375,1.078-13.364l0,0c-3.39-3.989-9.377-4.473-13.363-1.082l0,0
			C125.271,83.347,124.787,89.329,128.18,93.319L128.18,93.319z"/>
		<path fill="#013047" stroke="#FFFFFF" stroke-width="2" stroke-miterlimit="10" d="M112.684,106.496
			c3.393,3.988,9.375,4.474,13.364,1.082l0,0c3.988-3.393,4.474-9.375,1.08-13.366l0,0c-3.391-3.988-9.375-4.473-13.363-1.078l0,0
			C109.776,96.523,109.292,102.506,112.684,106.496L112.684,106.496z"/>
	</g>
	<g>
		<path fill="#013047" stroke="#FFFFFF" stroke-width="2" stroke-miterlimit="10" d="M91.915,152.706
			c7.151,1.897,14.487-2.36,16.386-9.512l4.727-17.801c1.898-7.149-2.36-14.484-9.51-16.385l0,0
			c-7.15-1.897-14.488,2.361-16.385,9.511l-4.727,17.802C80.506,143.472,84.765,150.807,91.915,152.706L91.915,152.706z"/>
		<path fill="#013047" stroke="#FFFFFF" stroke-width="2" stroke-miterlimit="10" d="M97.869,130.184
			c5.063,1.345,10.254-1.667,11.597-6.729l0,0c1.345-5.059-1.67-10.251-6.731-11.597l0,0c-5.062-1.344-10.254,1.671-11.594,6.73l0,0
			C89.794,123.651,92.808,128.84,97.869,130.184L97.869,130.184z"/>
		<path fill="#013047" stroke="#FFFFFF" stroke-width="2" stroke-miterlimit="10" d="M92.648,149.844
			c5.063,1.345,10.253-1.669,11.598-6.729l0,0c1.344-5.06-1.669-10.254-6.732-11.598l0,0c-5.061-1.344-10.251,1.671-11.596,6.73l0,0
			C84.574,143.311,87.585,148.502,92.648,149.844L92.648,149.844z"/>
	</g>
	<g>
		<path fill="#013047" stroke="#FFFFFF" stroke-width="2" stroke-miterlimit="10" d="M103.86,199.043
			c6.982-2.446,10.66-10.088,8.212-17.073l-6.088-17.381c-2.445-6.982-10.089-10.659-17.07-8.215l0,0
			c-6.982,2.447-10.661,10.092-8.216,17.073l6.091,17.383C89.233,197.81,96.877,201.487,103.86,199.043L103.86,199.043z"/>
		<path fill="#013047" stroke="#FFFFFF" stroke-width="2" stroke-miterlimit="10" d="M96.137,177.066
			c4.941-1.729,7.544-7.14,5.813-12.081l0,0c-1.728-4.941-7.139-7.544-12.083-5.813l0,0c-4.941,1.729-7.543,7.142-5.811,12.081l0,0
			C85.785,176.196,91.194,178.797,96.137,177.066L96.137,177.066z"/>
		<path fill="#013047" stroke="#FFFFFF" stroke-width="2" stroke-miterlimit="10" d="M102.859,196.263
			c4.942-1.731,7.545-7.139,5.815-12.08l0,0c-1.73-4.941-7.14-7.546-12.083-5.814l0,0c-4.942,1.73-7.544,7.14-5.815,12.083l0,0
			C92.51,195.393,97.917,197.996,102.859,196.263L102.859,196.263z"/>
	</g>
	<g>
		<path fill="#013047" stroke="#FFFFFF" stroke-width="2" stroke-miterlimit="10" d="M104.464,204.126
			c4.794-5.635,13.25-6.319,18.883-1.526l14.032,11.933c5.635,4.792,6.318,13.247,1.525,18.883l0,0
			c-4.792,5.636-13.246,6.317-18.884,1.524l-14.03-11.931C100.356,218.218,99.671,209.762,104.464,204.126L104.464,204.126z"/>
		<path fill="#013047" stroke="#FFFFFF" stroke-width="2" stroke-miterlimit="10" d="M122.192,219.236
			c3.393-3.989,9.375-4.474,13.364-1.082l0,0c3.988,3.392,4.471,9.375,1.081,13.366l0,0c-3.39,3.988-9.377,4.471-13.362,1.081l0,0
			C119.284,229.208,118.801,223.225,122.192,219.236L122.192,219.236z"/>
		<path fill="#013047" stroke="#FFFFFF" stroke-width="2" stroke-miterlimit="10" d="M106.698,206.061
			c3.393-3.991,9.375-4.476,13.364-1.083l0,0c3.989,3.394,4.476,9.375,1.081,13.366l0,0c-3.393,3.988-9.375,4.472-13.366,1.079l0,0
			C103.789,216.031,103.306,210.049,106.698,206.061L106.698,206.061z"/>
	</g>
</g>
<line fill="none" stroke="#F4E829" stroke-width="2" stroke-miterlimit="10" x1="186.327" y1="79.88" x2="374.3" y2="79.88"/>
<line fill="none" stroke="#F4E829" stroke-width="2" stroke-miterlimit="10" x1="299.167" y1="157.823" x2="351.365" y2="157.823"/>
<line fill="none" stroke="#F4E829" stroke-width="2" stroke-miterlimit="10" x1="222.033" y1="247.132" x2="351.365" y2="247.132"/>
<g>
	<g enable-background="new    ">
		<path fill="#FFFFFF" d="M420.566,86.291h-3.249l-0.493-9.34c-0.145-3.018-0.318-6.439-0.29-9.195h-0.087
			c-0.667,2.61-1.537,5.453-2.465,8.267l-3.308,10.065h-2.523l-3.046-9.862c-0.898-2.9-1.682-5.802-2.233-8.47h-0.087
			c-0.058,2.756-0.231,6.266-0.406,9.369l-0.493,9.166h-3.132l1.509-22.22h4.176l3.133,9.775c0.813,2.727,1.479,5.192,2.03,7.629
			h0.088c0.551-2.378,1.247-4.902,2.117-7.657l3.22-9.747h4.206L420.566,86.291z"/>
		<path fill="#FFFFFF" d="M438.167,81.708c0,1.798,0.087,3.307,0.146,4.583h-2.959l-0.174-2.32h-0.087
			c-0.667,1.102-2.233,2.64-4.815,2.64c-2.756,0-5.163-1.712-5.163-6.817V70.28h3.364v8.963c0,2.756,0.783,4.583,2.988,4.583
			c1.537,0,3.336-1.218,3.336-3.626v-9.891h3.364V81.708z"/>
		<path fill="#FFFFFF" d="M446.604,86.291h-3.365V63.028h3.365V86.291z"/>
		<path fill="#FFFFFF" d="M452.315,67.407l3.336-1.044v3.945h3.8v2.523h-3.8v8.093c0,1.973,0.609,2.93,2.03,2.93
			c0.667,0,1.073-0.087,1.479-0.203l0.116,2.582c-0.58,0.231-1.479,0.377-2.611,0.377c-1.334,0-2.465-0.436-3.161-1.219
			c-0.813-0.87-1.189-2.204-1.189-4.293v-8.267h-2.263v-2.523h2.263V67.407z"/>
		<path fill="#FFFFFF" d="M464.786,67.843c-1.161,0-1.944-0.87-1.944-1.943c0-1.132,0.813-1.973,1.973-1.973
			s1.943,0.841,1.943,1.973C466.758,66.973,466.004,67.843,464.786,67.843z M466.468,86.291h-3.364V70.28h3.364V86.291z"/>
		<path fill="#FFFFFF" d="M474.617,72.745c1.103-1.799,2.843-2.785,5.076-2.785c3.597,0,6.294,3.19,6.294,8.151
			c0,5.859-3.394,8.499-6.758,8.499c-1.915,0-3.481-0.899-4.265-2.205h-0.058v8.354h-3.365V75.472c0-2.089-0.058-3.742-0.116-5.163
			h2.959l0.174,2.437H474.617z M474.907,79.852c0,2.872,1.973,4.09,3.626,4.09c2.61,0,4.031-2.407,4.031-5.714
			c0-3.046-1.363-5.569-3.944-5.569c-2.002,0-3.713,1.885-3.713,4.234V79.852z"/>
		<path fill="#FFFFFF" d="M493.409,86.291h-3.365V63.028h3.365V86.291z"/>
		<path fill="#FFFFFF" d="M510.144,85.654c-1.131,0.521-2.9,0.957-5.076,0.957c-4.815,0-7.6-3.22-7.6-8.093
			c0-4.758,2.669-8.558,7.193-8.558c4.496,0,6.295,3.742,6.295,7.687c0,0.552-0.029,1.016-0.087,1.422h-10.152
			c0.087,3.597,2.32,4.96,4.844,4.96c1.77,0,2.987-0.319,4.032-0.754L510.144,85.654z M507.765,76.661
			c0.029-1.915-0.754-4.294-3.335-4.294c-2.466,0-3.51,2.438-3.685,4.294H507.765z"/>
		<path fill="#FFFFFF" d="M522.872,67.407l3.336-1.044v3.945h3.8v2.523h-3.8v8.093c0,1.973,0.609,2.93,2.03,2.93
			c0.667,0,1.073-0.087,1.479-0.203l0.116,2.582c-0.58,0.231-1.479,0.377-2.611,0.377c-1.334,0-2.465-0.436-3.161-1.219
			c-0.813-0.87-1.189-2.204-1.189-4.293v-8.267h-2.263v-2.523h2.263V67.407z"/>
		<path fill="#FFFFFF" d="M546.857,86.291h-3.364v-9.34c0-2.292-0.783-4.206-3.046-4.206c-1.653,0-3.423,1.363-3.423,3.771v9.775
			h-3.365V63.028h3.365v9.456h0.058c1.045-1.653,2.843-2.523,4.583-2.523c2.408,0,5.192,1.625,5.192,6.672V86.291z"/>
		<path fill="#FFFFFF" d="M563.532,85.654c-1.131,0.521-2.9,0.957-5.076,0.957c-4.815,0-7.6-3.22-7.6-8.093
			c0-4.758,2.669-8.558,7.193-8.558c4.496,0,6.295,3.742,6.295,7.687c0,0.552-0.029,1.016-0.087,1.422h-10.152
			c0.087,3.597,2.32,4.96,4.844,4.96c1.77,0,2.987-0.319,4.032-0.754L563.532,85.654z M561.153,76.661
			c0.029-1.915-0.754-4.294-3.335-4.294c-2.466,0-3.51,2.438-3.685,4.294H561.153z"/>
		<path fill="#FFFFFF" d="M576.379,73.267c-0.29-0.058-0.609-0.087-0.986-0.087c-2.263,0-3.685,1.856-3.685,4.642v8.47h-3.364
			V75.182c0-1.856-0.029-3.395-0.116-4.873h2.93l0.116,2.93h0.116c0.725-2.031,2.407-3.278,4.147-3.278
			c0.319,0,0.552,0.029,0.842,0.087V73.267z"/>
		<path fill="#FFFFFF" d="M601.669,86.291h-3.307v-9.137c0-2.669-0.87-4.438-2.9-4.438c-1.537,0-3.104,1.393-3.104,3.713v9.862
			h-3.308v-9.63c0-2.234-0.841-3.945-2.784-3.945c-1.509,0-3.22,1.363-3.22,3.887v9.688h-3.307V74.805
			c0-1.799-0.059-3.133-0.116-4.496h2.9l0.174,2.35h0.088c0.783-1.335,2.233-2.698,4.67-2.698c2.03,0,3.567,1.132,4.234,2.93h0.059
			c1.073-1.77,2.64-2.93,4.931-2.93c2.379,0,4.989,1.625,4.989,6.672V86.291z"/>
		<path fill="#FFFFFF" d="M620.401,78.169c0,5.976-3.887,8.441-7.484,8.441c-4.147,0-7.31-3.046-7.31-8.209
			c0-5.396,3.307-8.441,7.542-8.441C617.529,69.96,620.401,73.267,620.401,78.169z M613.033,72.484
			c-2.871,0-3.974,3.075-3.974,5.831c0,3.133,1.479,5.772,3.944,5.772c2.438,0,3.945-2.64,3.945-5.831
			C616.949,75.616,615.847,72.484,613.033,72.484z"/>
		<path fill="#FFFFFF" d="M635.248,85.798c-0.754,0.348-2.263,0.813-4.119,0.813c-4.612,0-7.629-3.162-7.629-8.151
			c0-4.844,3.133-8.499,8.268-8.499c1.537,0,2.871,0.377,3.567,0.726l-0.667,2.581c-0.58-0.29-1.508-0.638-2.872-0.638
			c-3.132,0-4.873,2.553-4.873,5.686c0,3.51,2.06,5.598,4.845,5.598c1.334,0,2.263-0.318,3.017-0.638L635.248,85.798z"/>
		<path fill="#FFFFFF" d="M652.794,78.169c0,5.976-3.887,8.441-7.484,8.441c-4.147,0-7.31-3.046-7.31-8.209
			c0-5.396,3.307-8.441,7.542-8.441C649.922,69.96,652.794,73.267,652.794,78.169z M645.426,72.484
			c-2.871,0-3.974,3.075-3.974,5.831c0,3.133,1.479,5.772,3.944,5.772c2.438,0,3.945-2.64,3.945-5.831
			C649.342,75.616,648.239,72.484,645.426,72.484z"/>
		<path fill="#FFFFFF" d="M669.874,81.708c0,1.798,0.087,3.307,0.146,4.583h-2.959l-0.174-2.32H666.8
			c-0.667,1.102-2.233,2.64-4.815,2.64c-2.756,0-5.163-1.712-5.163-6.817V70.28h3.364v8.963c0,2.756,0.783,4.583,2.988,4.583
			c1.537,0,3.336-1.218,3.336-3.626v-9.891h3.364V81.708z"/>
		<path fill="#FFFFFF" d="M678.021,72.745c1.103-1.799,2.843-2.785,5.076-2.785c3.597,0,6.294,3.19,6.294,8.151
			c0,5.859-3.394,8.499-6.758,8.499c-1.915,0-3.481-0.899-4.265-2.205h-0.058v8.354h-3.365V75.472c0-2.089-0.058-3.742-0.116-5.163
			h2.959l0.174,2.437H678.021z M678.311,79.852c0,2.872,1.973,4.09,3.626,4.09c2.61,0,4.031-2.407,4.031-5.714
			c0-3.046-1.363-5.569-3.944-5.569c-2.002,0-3.713,1.885-3.713,4.234V79.852z"/>
		<path fill="#FFFFFF" d="M696.813,86.291h-3.365V63.028h3.365V86.291z"/>
		<path fill="#FFFFFF" d="M713.547,85.654c-1.131,0.521-2.9,0.957-5.076,0.957c-4.815,0-7.6-3.22-7.6-8.093
			c0-4.758,2.669-8.558,7.193-8.558c4.496,0,6.295,3.742,6.295,7.687c0,0.552-0.029,1.016-0.087,1.422H704.12
			c0.087,3.597,2.32,4.96,4.844,4.96c1.77,0,2.987-0.319,4.032-0.754L713.547,85.654z M711.168,76.661
			c0.029-1.915-0.754-4.294-3.335-4.294c-2.466,0-3.51,2.438-3.685,4.294H711.168z"/>
		<path fill="#FFFFFF" d="M726.306,73.325c-0.638-0.406-1.74-0.899-3.045-0.899c-1.509,0-2.321,0.87-2.321,1.943
			c0,1.103,0.726,1.653,2.669,2.494c2.64,1.074,4.032,2.524,4.032,4.845c0,3.074-2.35,4.902-5.976,4.902
			c-1.683,0-3.278-0.436-4.352-1.073l0.755-2.495c0.812,0.493,2.291,1.073,3.654,1.073c1.799,0,2.669-0.87,2.669-2.088
			c0-1.219-0.667-1.886-2.582-2.698c-2.842-1.131-4.09-2.727-4.09-4.583c0-2.669,2.176-4.786,5.541-4.786
			c1.566,0,2.93,0.436,3.8,0.929L726.306,73.325z"/>
		<path fill="#FFFFFF" d="M410.356,117.291c0,1.363,0.028,2.756,0.231,3.8h-3.046l-0.231-1.856h-0.087
			c-0.899,1.247-2.466,2.176-4.468,2.176c-2.987,0-4.698-2.205-4.698-4.67c0-3.975,3.451-5.947,8.934-5.947
			c0-1.188,0-3.567-3.22-3.567c-1.421,0-2.872,0.435-3.887,1.103l-0.696-2.234c1.131-0.725,3.017-1.334,5.163-1.334
			c4.699,0,6.005,3.104,6.005,6.498V117.291z M407.078,113.056c-2.64,0-5.686,0.493-5.686,3.336c0,1.77,1.103,2.553,2.35,2.553
			c1.828,0,3.336-1.393,3.336-3.249V113.056z"/>
		<path fill="#FFFFFF" d="M418.706,121.091h-3.364V97.827h3.364V121.091z"/>
		<path fill="#FFFFFF" d="M427.116,121.091h-3.365V97.827h3.365V121.091z"/>
		<path fill="#FFFFFF" d="M445.939,112.969c0,5.976-3.887,8.441-7.484,8.441c-4.147,0-7.31-3.046-7.31-8.209
			c0-5.396,3.307-8.441,7.542-8.441C443.067,104.76,445.939,108.067,445.939,112.969z M438.571,107.283
			c-2.871,0-3.974,3.075-3.974,5.831c0,3.133,1.479,5.772,3.944,5.772c2.438,0,3.945-2.64,3.945-5.831
			C442.487,110.416,441.385,107.283,438.571,107.283z"/>
		<path fill="#FFFFFF" d="M470.648,105.109l-4.844,15.982h-3.046l-2.06-7.078c-0.493-1.682-0.841-3.22-1.189-5.104h-0.087
			c-0.319,1.914-0.754,3.538-1.247,5.134L456,121.091h-3.046l-4.583-15.982h3.481l1.769,7.657c0.378,1.712,0.755,3.423,1.045,5.105
			h0.058c0.319-1.653,0.813-3.423,1.276-5.076l2.205-7.687h2.755l2.089,7.513c0.493,1.856,0.928,3.567,1.247,5.25h0.087
			c0.262-1.653,0.639-3.365,1.073-5.222l1.856-7.541H470.648z"/>
		<path fill="#FFFFFF" d="M481.926,108.125c-0.638-0.406-1.74-0.899-3.045-0.899c-1.509,0-2.321,0.87-2.321,1.943
			c0,1.103,0.726,1.653,2.669,2.494c2.64,1.073,4.032,2.524,4.032,4.845c0,3.074-2.35,4.902-5.976,4.902
			c-1.683,0-3.278-0.436-4.352-1.073l0.755-2.495c0.812,0.493,2.291,1.073,3.654,1.073c1.799,0,2.669-0.87,2.669-2.088
			c0-1.219-0.667-1.886-2.582-2.698c-2.842-1.131-4.09-2.727-4.09-4.583c0-2.669,2.176-4.786,5.541-4.786
			c1.566,0,2.93,0.436,3.8,0.929L481.926,108.125z"/>
		<path fill="#FFFFFF" d="M505.301,120.598c-0.754,0.348-2.263,0.813-4.119,0.813c-4.612,0-7.629-3.162-7.629-8.151
			c0-4.844,3.133-8.499,8.268-8.499c1.537,0,2.871,0.377,3.567,0.726l-0.667,2.581c-0.58-0.29-1.508-0.638-2.872-0.638
			c-3.132,0-4.873,2.553-4.873,5.686c0,3.51,2.06,5.598,4.845,5.598c1.334,0,2.263-0.318,3.017-0.638L505.301,120.598z"/>
		<path fill="#FFFFFF" d="M522.847,112.969c0,5.976-3.887,8.441-7.484,8.441c-4.147,0-7.31-3.046-7.31-8.209
			c0-5.396,3.307-8.441,7.542-8.441C519.975,104.76,522.847,108.067,522.847,112.969z M515.479,107.283
			c-2.871,0-3.974,3.075-3.974,5.831c0,3.133,1.479,5.772,3.944,5.772c2.438,0,3.945-2.64,3.945-5.831
			C519.395,110.416,518.292,107.283,515.479,107.283z"/>
		<path fill="#FFFFFF" d="M540.13,121.091h-3.364v-9.369c0-2.263-0.755-4.177-3.046-4.177c-1.653,0-3.423,1.363-3.423,3.916v9.63
			h-3.365v-11.486c0-1.77-0.058-3.133-0.116-4.496h2.93l0.175,2.378h0.087c0.754-1.363,2.437-2.727,4.844-2.727
			c2.495,0,5.279,1.625,5.279,6.556V121.091z"/>
		<path fill="#FFFFFF" d="M545.782,102.207l3.336-1.044v3.945h3.8v2.523h-3.8v8.093c0,1.973,0.609,2.93,2.03,2.93
			c0.667,0,1.073-0.087,1.479-0.203l0.116,2.582c-0.58,0.231-1.479,0.377-2.611,0.377c-1.334,0-2.465-0.436-3.161-1.219
			c-0.813-0.87-1.189-2.204-1.189-4.293v-8.267h-2.263v-2.523h2.263V102.207z"/>
		<path fill="#FFFFFF" d="M564.604,108.067c-0.29-0.058-0.609-0.087-0.986-0.087c-2.263,0-3.684,1.856-3.684,4.642v8.47h-3.365
			v-11.109c0-1.856-0.028-3.395-0.116-4.873h2.93l0.116,2.93h0.116c0.726-2.031,2.407-3.278,4.148-3.278
			c0.318,0,0.551,0.029,0.841,0.087V108.067z"/>
		<path fill="#FFFFFF" d="M581.744,112.969c0,5.976-3.887,8.441-7.483,8.441c-4.148,0-7.31-3.046-7.31-8.209
			c0-5.396,3.307-8.441,7.541-8.441C578.873,104.76,581.744,108.067,581.744,112.969z M574.377,107.283
			c-2.872,0-3.975,3.075-3.975,5.831c0,3.133,1.479,5.772,3.945,5.772c2.437,0,3.945-2.64,3.945-5.831
			C578.293,110.416,577.19,107.283,574.377,107.283z"/>
		<path fill="#FFFFFF" d="M589.195,121.091h-3.365V97.827h3.365V121.091z"/>
		<path fill="#FFFFFF" d="M602.188,108.125c-0.638-0.406-1.74-0.899-3.045-0.899c-1.509,0-2.321,0.87-2.321,1.943
			c0,1.103,0.726,1.653,2.669,2.494c2.64,1.073,4.032,2.524,4.032,4.845c0,3.074-2.35,4.902-5.976,4.902
			c-1.683,0-3.278-0.436-4.352-1.073l0.755-2.495c0.812,0.493,2.291,1.073,3.654,1.073c1.799,0,2.669-0.87,2.669-2.088
			c0-1.219-0.667-1.886-2.582-2.698c-2.842-1.131-4.09-2.727-4.09-4.583c0-2.669,2.176-4.786,5.541-4.786
			c1.566,0,2.93,0.436,3.8,0.929L602.188,108.125z"/>
		<path fill="#FFFFFF" d="M628.579,112.969c0,5.976-3.887,8.441-7.483,8.441c-4.148,0-7.31-3.046-7.31-8.209
			c0-5.396,3.307-8.441,7.541-8.441C625.708,104.76,628.579,108.067,628.579,112.969z M621.212,107.283
			c-2.872,0-3.975,3.075-3.975,5.831c0,3.133,1.479,5.772,3.945,5.772c2.437,0,3.945-2.64,3.945-5.831
			C625.128,110.416,624.025,107.283,621.212,107.283z"/>
		<path fill="#FFFFFF" d="M633.1,105.109c0-1.741,0-4.322,1.799-6.121c1.103-1.073,2.581-1.479,3.887-1.479
			c1.044,0,1.856,0.203,2.437,0.436l-0.348,2.581c-0.436-0.174-0.929-0.318-1.712-0.318c-2.088,0-2.727,1.885-2.727,4.031v0.871
			h3.51v2.523h-3.48v13.459H633.1v-13.459h-2.146v-2.523H633.1z"/>
		<path fill="#FFFFFF" d="M672.226,121.091h-3.307v-9.137c0-2.669-0.87-4.438-2.901-4.438c-1.537,0-3.104,1.393-3.104,3.713v9.862
			h-3.307v-9.63c0-2.234-0.841-3.945-2.785-3.945c-1.508,0-3.22,1.363-3.22,3.887v9.688h-3.307v-11.486
			c0-1.799-0.058-3.133-0.116-4.496h2.901l0.174,2.35h0.087c0.783-1.335,2.233-2.698,4.67-2.698c2.031,0,3.568,1.132,4.235,2.93
			h0.058c1.073-1.77,2.64-2.93,4.932-2.93c2.379,0,4.989,1.625,4.989,6.672V121.091z"/>
		<path fill="#FFFFFF" d="M690.174,116.508c0,1.799,0.087,3.307,0.146,4.583h-2.959l-0.174-2.32H687.1
			c-0.667,1.102-2.233,2.64-4.815,2.64c-2.756,0-5.163-1.712-5.163-6.816v-9.515h3.364v8.963c0,2.756,0.783,4.583,2.988,4.583
			c1.537,0,3.336-1.218,3.336-3.626v-9.891h3.364V116.508z"/>
		<path fill="#FFFFFF" d="M698.61,121.091h-3.365V97.827h3.365V121.091z"/>
		<path fill="#FFFFFF" d="M704.322,102.207l3.336-1.044v3.945h3.8v2.523h-3.8v8.093c0,1.973,0.609,2.93,2.03,2.93
			c0.667,0,1.073-0.087,1.479-0.203l0.116,2.582c-0.58,0.231-1.479,0.377-2.611,0.377c-1.334,0-2.465-0.436-3.161-1.219
			c-0.813-0.87-1.189-2.204-1.189-4.293v-8.267h-2.263v-2.523h2.263V102.207z"/>
		<path fill="#FFFFFF" d="M716.793,102.643c-1.161,0-1.944-0.87-1.944-1.943c0-1.132,0.813-1.973,1.973-1.973
			s1.943,0.841,1.943,1.973C718.765,101.773,718.011,102.643,716.793,102.643z M718.475,121.091h-3.364v-16.012h3.364V121.091z"/>
		<path fill="#FFFFFF" d="M726.624,107.545c1.103-1.799,2.843-2.785,5.076-2.785c3.597,0,6.294,3.19,6.294,8.151
			c0,5.859-3.394,8.499-6.758,8.499c-1.915,0-3.481-0.899-4.265-2.205h-0.058v8.354h-3.365v-17.288c0-2.089-0.058-3.742-0.116-5.163
			h2.959l0.174,2.437H726.624z M726.914,114.652c0,2.872,1.973,4.09,3.626,4.09c2.61,0,4.031-2.407,4.031-5.714
			c0-3.046-1.363-5.569-3.944-5.569c-2.002,0-3.713,1.885-3.713,4.234V114.652z"/>
		<path fill="#FFFFFF" d="M745.416,121.091h-3.365V97.827h3.365V121.091z"/>
		<path fill="#FFFFFF" d="M762.15,120.453c-1.131,0.521-2.9,0.957-5.076,0.957c-4.815,0-7.6-3.22-7.6-8.093
			c0-4.758,2.669-8.558,7.193-8.558c4.496,0,6.295,3.742,6.295,7.687c0,0.552-0.029,1.016-0.087,1.422h-10.152
			c0.087,3.597,2.32,4.96,4.844,4.96c1.77,0,2.987-0.319,4.032-0.754L762.15,120.453z M759.771,111.461
			c0.029-1.915-0.754-4.293-3.335-4.293c-2.466,0-3.51,2.437-3.685,4.293H759.771z"/>
		<path fill="#FFFFFF" d="M399.595,139.908c0-1.741,0-4.322,1.798-6.121c1.103-1.073,2.582-1.479,3.888-1.479
			c1.044,0,1.856,0.203,2.437,0.436l-0.349,2.581c-0.435-0.174-0.928-0.318-1.711-0.318c-2.089,0-2.727,1.885-2.727,4.031v0.871
			h3.51v2.523h-3.481v13.459h-3.364v-13.459h-2.146v-2.523H399.595z"/>
		<path fill="#FFFFFF" d="M422.536,151.308c0,1.798,0.087,3.307,0.145,4.583h-2.958l-0.175-2.32h-0.087
			c-0.667,1.102-2.233,2.64-4.814,2.64c-2.756,0-5.164-1.712-5.164-6.817v-9.514h3.365v8.963c0,2.756,0.783,4.583,2.987,4.583
			c1.538,0,3.336-1.218,3.336-3.626v-9.891h3.365V151.308z"/>
		<path fill="#FFFFFF" d="M435.643,142.866c-0.29-0.058-0.609-0.087-0.986-0.087c-2.263,0-3.684,1.856-3.684,4.642v8.47h-3.365
			v-11.109c0-1.856-0.028-3.395-0.116-4.873h2.93l0.116,2.93h0.116c0.726-2.031,2.407-3.278,4.148-3.278
			c0.318,0,0.551,0.029,0.841,0.087V142.866z"/>
		<path fill="#FFFFFF" d="M452.202,155.891h-3.364v-9.369c0-2.263-0.755-4.177-3.046-4.177c-1.653,0-3.423,1.363-3.423,3.916v9.63
			h-3.365v-11.486c0-1.77-0.058-3.133-0.116-4.496h2.93l0.175,2.378h0.087c0.754-1.363,2.437-2.727,4.844-2.727
			c2.495,0,5.279,1.625,5.279,6.556V155.891z"/>
		<path fill="#FFFFFF" d="M468.384,152.091c0,1.363,0.029,2.756,0.232,3.8h-3.046l-0.232-1.856h-0.087
			c-0.899,1.247-2.466,2.176-4.467,2.176c-2.987,0-4.699-2.205-4.699-4.67c0-3.975,3.452-5.947,8.935-5.947
			c0-1.188,0-3.567-3.22-3.567c-1.422,0-2.872,0.435-3.888,1.103l-0.696-2.234c1.132-0.725,3.018-1.334,5.164-1.334
			c4.699,0,6.004,3.104,6.004,6.498V152.091z M465.106,147.856c-2.64,0-5.686,0.493-5.686,3.336c0,1.77,1.103,2.553,2.35,2.553
			c1.827,0,3.336-1.393,3.336-3.249V147.856z"/>
		<path fill="#FFFFFF" d="M484.131,155.398c-0.755,0.348-2.263,0.813-4.119,0.813c-4.612,0-7.629-3.162-7.629-8.151
			c0-4.844,3.133-8.499,8.267-8.499c1.538,0,2.872,0.377,3.568,0.726l-0.667,2.581c-0.58-0.29-1.509-0.638-2.872-0.638
			c-3.133,0-4.873,2.553-4.873,5.686c0,3.51,2.06,5.598,4.844,5.598c1.335,0,2.263-0.318,3.017-0.638L484.131,155.398z"/>
		<path fill="#FFFFFF" d="M499.588,155.253c-1.132,0.521-2.901,0.957-5.076,0.957c-4.815,0-7.601-3.22-7.601-8.093
			c0-4.758,2.669-8.558,7.194-8.558c4.496,0,6.294,3.742,6.294,7.687c0,0.552-0.028,1.016-0.087,1.422H490.16
			c0.087,3.597,2.32,4.96,4.845,4.96c1.769,0,2.987-0.319,4.031-0.754L499.588,155.253z M497.209,146.261
			c0.029-1.915-0.754-4.294-3.336-4.294c-2.466,0-3.51,2.438-3.684,4.294H497.209z"/>
		<path fill="#FFFFFF" d="M512.347,142.925c-0.639-0.406-1.74-0.899-3.046-0.899c-1.508,0-2.32,0.87-2.32,1.943
			c0,1.103,0.725,1.653,2.669,2.494c2.64,1.074,4.031,2.524,4.031,4.845c0,3.074-2.35,4.902-5.976,4.902
			c-1.682,0-3.277-0.436-4.351-1.073l0.754-2.495c0.813,0.493,2.292,1.073,3.655,1.073c1.798,0,2.669-0.87,2.669-2.088
			c0-1.219-0.668-1.886-2.582-2.698c-2.843-1.131-4.09-2.727-4.09-4.583c0-2.669,2.176-4.786,5.54-4.786
			c1.566,0,2.93,0.436,3.8,0.929L512.347,142.925z"/>
	</g>
</g>
<g>
	<g enable-background="new    ">
		<path fill="#FFFFFF" d="M420.564,215.543h-3.249l-0.493-9.34c-0.145-3.018-0.318-6.439-0.29-9.195h-0.087
			c-0.667,2.61-1.537,5.453-2.465,8.267l-3.308,10.065h-2.523l-3.046-9.862c-0.898-2.9-1.682-5.802-2.233-8.47h-0.087
			c-0.058,2.756-0.231,6.266-0.406,9.369l-0.493,9.166h-3.132l1.509-22.22h4.176l3.133,9.775c0.813,2.727,1.479,5.192,2.03,7.629
			h0.088c0.551-2.378,1.247-4.902,2.117-7.657l3.22-9.747h4.206L420.564,215.543z"/>
		<path fill="#FFFFFF" d="M438.165,210.96c0,1.798,0.087,3.307,0.146,4.583h-2.959l-0.174-2.32h-0.087
			c-0.667,1.102-2.233,2.64-4.815,2.64c-2.756,0-5.163-1.712-5.163-6.817v-9.514h3.364v8.963c0,2.756,0.783,4.583,2.988,4.583
			c1.537,0,3.336-1.218,3.336-3.626v-9.891h3.364V210.96z"/>
		<path fill="#FFFFFF" d="M446.602,215.543h-3.365V192.28h3.365V215.543z"/>
		<path fill="#FFFFFF" d="M452.313,196.659l3.336-1.044v3.945h3.8v2.523h-3.8v8.093c0,1.973,0.609,2.93,2.03,2.93
			c0.667,0,1.073-0.087,1.479-0.203l0.116,2.582c-0.58,0.231-1.479,0.377-2.611,0.377c-1.334,0-2.465-0.436-3.161-1.219
			c-0.813-0.87-1.189-2.204-1.189-4.293v-8.267h-2.263v-2.523h2.263V196.659z"/>
		<path fill="#FFFFFF" d="M464.784,197.095c-1.161,0-1.944-0.87-1.944-1.943c0-1.132,0.813-1.973,1.973-1.973
			s1.943,0.841,1.943,1.973C466.756,196.225,466.002,197.095,464.784,197.095z M466.466,215.543h-3.364v-16.012h3.364V215.543z"/>
		<path fill="#FFFFFF" d="M474.615,201.997c1.103-1.799,2.843-2.785,5.076-2.785c3.597,0,6.294,3.19,6.294,8.151
			c0,5.859-3.394,8.499-6.758,8.499c-1.915,0-3.481-0.899-4.265-2.205h-0.058v8.354h-3.365v-17.288c0-2.089-0.058-3.742-0.116-5.163
			h2.959l0.174,2.437H474.615z M474.905,209.104c0,2.872,1.973,4.09,3.626,4.09c2.61,0,4.031-2.407,4.031-5.714
			c0-3.046-1.363-5.569-3.944-5.569c-2.002,0-3.713,1.885-3.713,4.234V209.104z"/>
		<path fill="#FFFFFF" d="M493.407,215.543h-3.365V192.28h3.365V215.543z"/>
		<path fill="#FFFFFF" d="M510.142,214.906c-1.131,0.521-2.9,0.957-5.076,0.957c-4.815,0-7.6-3.22-7.6-8.093
			c0-4.758,2.669-8.558,7.193-8.558c4.496,0,6.295,3.742,6.295,7.687c0,0.552-0.029,1.016-0.087,1.422h-10.152
			c0.087,3.597,2.32,4.96,4.844,4.96c1.77,0,2.987-0.319,4.032-0.754L510.142,214.906z M507.763,205.913
			c0.029-1.915-0.754-4.294-3.335-4.294c-2.466,0-3.51,2.438-3.685,4.294H507.763z"/>
		<path fill="#FFFFFF" d="M525.567,215.543h-3.364V192.28h3.364V215.543z"/>
		<path fill="#FFFFFF" d="M541.81,211.743c0,1.363,0.028,2.756,0.231,3.8h-3.046l-0.231-1.856h-0.087
			c-0.899,1.247-2.466,2.176-4.468,2.176c-2.987,0-4.698-2.205-4.698-4.67c0-3.975,3.451-5.947,8.934-5.947
			c0-1.188,0-3.567-3.22-3.567c-1.421,0-2.872,0.435-3.887,1.103l-0.696-2.234c1.131-0.725,3.017-1.334,5.163-1.334
			c4.699,0,6.005,3.104,6.005,6.498V211.743z M538.531,207.508c-2.64,0-5.686,0.493-5.686,3.336c0,1.77,1.103,2.553,2.35,2.553
			c1.828,0,3.336-1.393,3.336-3.249V207.508z"/>
		<path fill="#FFFFFF" d="M559.441,199.561l-3.857,11.08c-1.886,5.25-3.22,8.209-5.135,10.065c-1.45,1.335-2.93,1.886-3.713,2.06
			l-0.87-2.843c3.481-1.247,4.729-4.496,4.729-4.931c0-0.175-0.029-0.377-0.174-0.696l-5.482-14.735h3.684l2.9,8.992
			c0.319,1.044,0.639,2.262,0.87,3.19h0.088c0.231-0.929,0.551-2.117,0.841-3.19l2.582-8.992H559.441z"/>
		<path fill="#FFFFFF" d="M574.26,214.906c-1.131,0.521-2.9,0.957-5.076,0.957c-4.815,0-7.6-3.22-7.6-8.093
			c0-4.758,2.669-8.558,7.193-8.558c4.496,0,6.295,3.742,6.295,7.687c0,0.552-0.029,1.016-0.087,1.422h-10.152
			c0.087,3.597,2.32,4.96,4.844,4.96c1.77,0,2.987-0.319,4.032-0.754L574.26,214.906z M571.881,205.913
			c0.029-1.915-0.754-4.294-3.335-4.294c-2.466,0-3.51,2.438-3.685,4.294H571.881z"/>
		<path fill="#FFFFFF" d="M587.106,202.519c-0.29-0.058-0.609-0.087-0.986-0.087c-2.263,0-3.685,1.856-3.685,4.642v8.47h-3.364
			v-11.109c0-1.856-0.029-3.395-0.116-4.873h2.93l0.116,2.93h0.116c0.725-2.031,2.407-3.278,4.147-3.278
			c0.319,0,0.552,0.029,0.842,0.087V202.519z"/>
		<path fill="#FFFFFF" d="M598.416,202.577c-0.639-0.406-1.74-0.899-3.046-0.899c-1.508,0-2.32,0.87-2.32,1.943
			c0,1.103,0.725,1.653,2.669,2.494c2.64,1.074,4.031,2.524,4.031,4.845c0,3.074-2.35,4.902-5.976,4.902
			c-1.682,0-3.277-0.436-4.351-1.073l0.754-2.495c0.813,0.493,2.292,1.073,3.655,1.073c1.798,0,2.669-0.87,2.669-2.088
			c0-1.219-0.668-1.886-2.582-2.698c-2.843-1.131-4.09-2.727-4.09-4.583c0-2.669,2.176-4.786,5.54-4.786
			c1.566,0,2.93,0.436,3.8,0.929L598.416,202.577z"/>
		<path fill="#FFFFFF" d="M624.807,207.421c0,5.976-3.887,8.441-7.483,8.441c-4.148,0-7.31-3.046-7.31-8.209
			c0-5.396,3.307-8.441,7.541-8.441C621.936,199.212,624.807,202.519,624.807,207.421z M617.439,201.736
			c-2.872,0-3.975,3.075-3.975,5.831c0,3.133,1.479,5.772,3.945,5.772c2.437,0,3.945-2.64,3.945-5.831
			C621.355,204.868,620.253,201.736,617.439,201.736z"/>
		<path fill="#FFFFFF" d="M629.328,199.561c0-1.741,0-4.322,1.798-6.121c1.103-1.073,2.582-1.479,3.888-1.479
			c1.044,0,1.856,0.203,2.437,0.436l-0.349,2.581c-0.435-0.174-0.928-0.318-1.711-0.318c-2.089,0-2.727,1.885-2.727,4.031v0.871
			h3.51v2.523h-3.481v13.459h-3.364v-13.459h-2.146v-2.523H629.328z"/>
		<path fill="#FFFFFF" d="M412.355,250.343h-3.364v-9.369c0-2.263-0.755-4.177-3.046-4.177c-1.653,0-3.423,1.363-3.423,3.916v9.63
			h-3.365v-11.486c0-1.77-0.058-3.133-0.116-4.496h2.929l0.175,2.378h0.087c0.754-1.363,2.437-2.727,4.844-2.727
			c2.495,0,5.279,1.625,5.279,6.556V250.343z"/>
		<path fill="#FFFFFF" d="M431.119,242.221c0,5.976-3.887,8.441-7.484,8.441c-4.147,0-7.31-3.046-7.31-8.209
			c0-5.396,3.307-8.441,7.542-8.441C428.247,234.012,431.119,237.319,431.119,242.221z M423.751,236.535
			c-2.871,0-3.974,3.075-3.974,5.831c0,3.133,1.479,5.772,3.944,5.772c2.438,0,3.945-2.64,3.945-5.831
			C427.667,239.668,426.564,236.535,423.751,236.535z"/>
		<path fill="#FFFFFF" d="M436.887,231.895c-1.16,0-1.943-0.87-1.943-1.943c0-1.132,0.813-1.973,1.973-1.973
			s1.943,0.841,1.943,1.973C438.859,231.025,438.105,231.895,436.887,231.895z M438.569,250.343h-3.365v-16.012h3.365V250.343z"/>
		<path fill="#FFFFFF" d="M451.591,237.377c-0.638-0.406-1.74-0.899-3.045-0.899c-1.509,0-2.321,0.87-2.321,1.943
			c0,1.103,0.726,1.653,2.669,2.494c2.64,1.073,4.032,2.524,4.032,4.845c0,3.074-2.35,4.902-5.976,4.902
			c-1.683,0-3.278-0.436-4.352-1.073l0.755-2.495c0.812,0.493,2.291,1.073,3.654,1.073c1.799,0,2.669-0.87,2.669-2.088
			c0-1.219-0.667-1.886-2.582-2.698c-2.842-1.131-4.09-2.727-4.09-4.583c0-2.669,2.176-4.786,5.541-4.786
			c1.566,0,2.93,0.436,3.8,0.929L451.591,237.377z"/>
		<path fill="#FFFFFF" d="M468.645,249.705c-1.132,0.521-2.901,0.957-5.076,0.957c-4.815,0-7.601-3.22-7.601-8.093
			c0-4.758,2.669-8.558,7.194-8.558c4.496,0,6.294,3.742,6.294,7.687c0,0.552-0.028,1.016-0.087,1.422h-10.152
			c0.087,3.597,2.32,4.96,4.845,4.96c1.769,0,2.987-0.319,4.031-0.754L468.645,249.705z M466.266,240.713
			c0.029-1.915-0.754-4.293-3.336-4.293c-2.466,0-3.51,2.437-3.684,4.293H466.266z"/>
		<path fill="#FFFFFF" d="M472.295,240.335h7.978v2.408h-7.978V240.335z"/>
		<path fill="#FFFFFF" d="M494.918,249.85c-0.755,0.348-2.263,0.813-4.119,0.813c-4.612,0-7.629-3.162-7.629-8.151
			c0-4.844,3.133-8.499,8.267-8.499c1.538,0,2.872,0.377,3.568,0.726l-0.667,2.581c-0.58-0.29-1.509-0.638-2.872-0.638
			c-3.133,0-4.873,2.553-4.873,5.686c0,3.51,2.06,5.598,4.844,5.598c1.335,0,2.263-0.318,3.017-0.638L494.918,249.85z"/>
		<path fill="#FFFFFF" d="M509.882,246.543c0,1.363,0.028,2.756,0.231,3.8h-3.046l-0.231-1.856h-0.087
			c-0.899,1.247-2.466,2.176-4.468,2.176c-2.987,0-4.698-2.205-4.698-4.67c0-3.975,3.451-5.947,8.934-5.947
			c0-1.188,0-3.567-3.22-3.567c-1.421,0-2.872,0.435-3.887,1.103l-0.696-2.234c1.131-0.725,3.017-1.334,5.163-1.334
			c4.699,0,6.005,3.104,6.005,6.498V246.543z M506.604,242.308c-2.64,0-5.686,0.493-5.686,3.336c0,1.77,1.103,2.553,2.35,2.553
			c1.828,0,3.336-1.393,3.336-3.249V242.308z"/>
		<path fill="#FFFFFF" d="M528.064,250.343H524.7v-9.369c0-2.263-0.755-4.177-3.046-4.177c-1.653,0-3.423,1.363-3.423,3.916v9.63
			h-3.365v-11.486c0-1.77-0.058-3.133-0.116-4.496h2.93l0.175,2.378h0.087c0.754-1.363,2.437-2.727,4.844-2.727
			c2.495,0,5.279,1.625,5.279,6.556V250.343z"/>
		<path fill="#FFFFFF" d="M543.812,249.85c-0.755,0.348-2.263,0.813-4.119,0.813c-4.612,0-7.629-3.162-7.629-8.151
			c0-4.844,3.133-8.499,8.267-8.499c1.538,0,2.872,0.377,3.568,0.726l-0.667,2.581c-0.58-0.29-1.509-0.638-2.872-0.638
			c-3.133,0-4.873,2.553-4.873,5.686c0,3.51,2.06,5.598,4.844,5.598c1.335,0,2.263-0.318,3.017-0.638L543.812,249.85z"/>
		<path fill="#FFFFFF" d="M559.269,249.705c-1.132,0.521-2.901,0.957-5.076,0.957c-4.815,0-7.601-3.22-7.601-8.093
			c0-4.758,2.669-8.558,7.194-8.558c4.496,0,6.294,3.742,6.294,7.687c0,0.552-0.028,1.016-0.087,1.422h-10.152
			c0.087,3.597,2.32,4.96,4.845,4.96c1.769,0,2.987-0.319,4.031-0.754L559.269,249.705z M556.89,240.713
			c0.029-1.915-0.754-4.293-3.336-4.293c-2.466,0-3.51,2.437-3.684,4.293H556.89z"/>
		<path fill="#FFFFFF" d="M567.444,250.343h-3.365v-23.264h3.365V250.343z"/>
		<path fill="#FFFFFF" d="M575.854,250.343h-3.364v-23.264h3.364V250.343z"/>
		<path fill="#FFFFFF" d="M582.581,231.895c-1.16,0-1.943-0.87-1.943-1.943c0-1.132,0.813-1.973,1.973-1.973
			s1.943,0.841,1.943,1.973C584.554,231.025,583.8,231.895,582.581,231.895z M584.264,250.343h-3.365v-16.012h3.365V250.343z"/>
		<path fill="#FFFFFF" d="M602.536,250.343h-3.365v-9.369c0-2.263-0.754-4.177-3.046-4.177c-1.653,0-3.423,1.363-3.423,3.916v9.63
			h-3.364v-11.486c0-1.77-0.059-3.133-0.116-4.496h2.93l0.174,2.378h0.087c0.755-1.363,2.437-2.727,4.845-2.727
			c2.494,0,5.279,1.625,5.279,6.556V250.343z"/>
		<path fill="#FFFFFF" d="M620.864,234.361c-0.087,1.131-0.146,2.465-0.146,4.611v9.108c0,3.191-0.261,9.079-7.832,9.079
			c-1.856,0-3.8-0.406-5.047-1.16l0.754-2.61c0.986,0.58,2.523,1.131,4.322,1.131c2.61,0,4.467-1.45,4.467-5.076v-1.537h-0.058
			c-0.813,1.363-2.379,2.35-4.438,2.35c-3.771,0-6.353-3.336-6.353-7.803c0-5.425,3.278-8.441,6.759-8.441
			c2.379,0,3.713,1.219,4.38,2.495h0.059l0.145-2.146H620.864z M617.354,240.538c0-2.117-1.393-3.857-3.452-3.857
			c-2.32,0-3.945,2.204-3.945,5.627c0,3.133,1.422,5.366,3.916,5.366c1.74,0,3.481-1.334,3.481-4.003V240.538z"/>
		<path fill="#FFFFFF" d="M634.694,231.895c-1.161,0-1.944-0.87-1.944-1.943c0-1.132,0.813-1.973,1.973-1.973
			s1.943,0.841,1.943,1.973C636.666,231.025,635.912,231.895,634.694,231.895z M636.376,250.343h-3.364v-16.012h3.364V250.343z"/>
		<path fill="#FFFFFF" d="M654.648,250.343h-3.364v-9.369c0-2.263-0.755-4.177-3.046-4.177c-1.653,0-3.423,1.363-3.423,3.916v9.63
			h-3.365v-11.486c0-1.77-0.058-3.133-0.116-4.496h2.93l0.175,2.378h0.087c0.754-1.363,2.437-2.727,4.844-2.727
			c2.495,0,5.279,1.625,5.279,6.556V250.343z"/>
		<path fill="#FFFFFF" d="M667.581,237.377c-0.638-0.406-1.74-0.899-3.045-0.899c-1.509,0-2.321,0.87-2.321,1.943
			c0,1.103,0.726,1.653,2.669,2.494c2.64,1.073,4.032,2.524,4.032,4.845c0,3.074-2.35,4.902-5.976,4.902
			c-1.683,0-3.278-0.436-4.352-1.073l0.755-2.495c0.812,0.493,2.291,1.073,3.654,1.073c1.799,0,2.669-0.87,2.669-2.088
			c0-1.219-0.667-1.886-2.582-2.698c-2.842-1.131-4.09-2.727-4.09-4.583c0-2.669,2.176-4.786,5.541-4.786
			c1.566,0,2.93,0.436,3.8,0.929L667.581,237.377z"/>
		<path fill="#FFFFFF" d="M685.939,245.76c0,1.799,0.087,3.307,0.146,4.583h-2.959l-0.174-2.32h-0.087
			c-0.667,1.102-2.233,2.64-4.815,2.64c-2.756,0-5.163-1.712-5.163-6.816v-9.515h3.364v8.963c0,2.756,0.783,4.583,2.988,4.583
			c1.537,0,3.336-1.218,3.336-3.626v-9.891h3.364V245.76z"/>
		<path fill="#FFFFFF" d="M694.376,250.343h-3.365v-23.264h3.365V250.343z"/>
		<path fill="#FFFFFF" d="M710.617,246.543c0,1.363,0.029,2.756,0.232,3.8h-3.046l-0.232-1.856h-0.087
			c-0.899,1.247-2.466,2.176-4.467,2.176c-2.987,0-4.699-2.205-4.699-4.67c0-3.975,3.452-5.947,8.935-5.947
			c0-1.188,0-3.567-3.22-3.567c-1.422,0-2.872,0.435-3.888,1.103l-0.696-2.234c1.132-0.725,3.018-1.334,5.164-1.334
			c4.699,0,6.004,3.104,6.004,6.498V246.543z M707.34,242.308c-2.64,0-5.686,0.493-5.686,3.336c0,1.77,1.103,2.553,2.35,2.553
			c1.827,0,3.336-1.393,3.336-3.249V242.308z"/>
		<path fill="#FFFFFF" d="M716.27,231.459l3.336-1.044v3.945h3.8v2.523h-3.8v8.093c0,1.973,0.609,2.93,2.031,2.93
			c0.667,0,1.073-0.087,1.479-0.203l0.116,2.582c-0.58,0.231-1.479,0.377-2.61,0.377c-1.334,0-2.466-0.436-3.162-1.219
			c-0.812-0.87-1.189-2.204-1.189-4.293v-8.267h-2.262v-2.523h2.262V231.459z"/>
		<path fill="#FFFFFF" d="M728.74,231.895c-1.161,0-1.944-0.87-1.944-1.943c0-1.132,0.813-1.973,1.973-1.973
			s1.943,0.841,1.943,1.973C730.712,231.025,729.958,231.895,728.74,231.895z M730.422,250.343h-3.364v-16.012h3.364V250.343z"/>
		<path fill="#FFFFFF" d="M749.274,242.221c0,5.976-3.887,8.441-7.483,8.441c-4.148,0-7.31-3.046-7.31-8.209
			c0-5.396,3.307-8.441,7.541-8.441C746.403,234.012,749.274,237.319,749.274,242.221z M741.907,236.535
			c-2.872,0-3.975,3.075-3.975,5.831c0,3.133,1.479,5.772,3.945,5.772c2.437,0,3.945-2.64,3.945-5.831
			C745.823,239.668,744.721,236.535,741.907,236.535z"/>
		<path fill="#FFFFFF" d="M766.559,250.343h-3.365v-9.369c0-2.263-0.754-4.177-3.046-4.177c-1.653,0-3.423,1.363-3.423,3.916v9.63
			h-3.364v-11.486c0-1.77-0.059-3.133-0.116-4.496h2.93l0.174,2.378h0.087c0.755-1.363,2.437-2.727,4.845-2.727
			c2.494,0,5.279,1.625,5.279,6.556V250.343z"/>
		<path fill="#FFFFFF" d="M779.491,237.377c-0.639-0.406-1.74-0.899-3.046-0.899c-1.508,0-2.32,0.87-2.32,1.943
			c0,1.103,0.725,1.653,2.669,2.494c2.64,1.073,4.031,2.524,4.031,4.845c0,3.074-2.35,4.902-5.976,4.902
			c-1.682,0-3.277-0.436-4.351-1.073l0.754-2.495c0.813,0.493,2.292,1.073,3.655,1.073c1.798,0,2.669-0.87,2.669-2.088
			c0-1.219-0.668-1.886-2.582-2.698c-2.843-1.131-4.09-2.727-4.09-4.583c0-2.669,2.176-4.786,5.54-4.786
			c1.566,0,2.93,0.436,3.8,0.929L779.491,237.377z"/>
	</g>
</g>
<line fill="none" stroke="#F4E829" stroke-width="2" stroke-miterlimit="10" x1="351.365" y1="156.521" x2="351.365" y2="248.49"/>
<line fill="none" stroke="#F4E829" stroke-width="2" stroke-miterlimit="10" x1="352.085" y1="225.336" x2="265.673" y2="225.336"/>
<line fill="none" stroke="#F4E829" stroke-width="2" stroke-miterlimit="10" x1="258.143" y1="181.031" x2="351.407" y2="181.031"/>
<line fill="none" stroke="#F4E829" stroke-width="2" stroke-miterlimit="10" x1="351.991" y1="202.724" x2="375.323" y2="202.724"/>
</svg>
