<svg class="icon" style="width: 1em; height: 1em;vertical-align: middle;fill: currentColor;overflow: hidden;" viewBox="0 0 1024 1024" version="1.1" xmlns="http://www.w3.org/2000/svg"><path d="M385.384277 589.652568 385.384277 478.463186c0-20.405749-5.484921-33.245172-19.559475-45.800116-12.619412-11.260461-29.559223-16.968463-50.345642-16.968463-10.461259 0-50.489928-0.435928-50.89311-0.444115L218.009246 415.250492l0 174.397982 25.13547 0L243.144716 440.381869l21.236674 0c2.470261 0.027629 40.621163 0.443092 51.097772 0.443092 14.634302 0 25.626657 3.465938 33.613562 10.593266 7.714705 6.882757 11.160177 12.418844 11.160177 27.04496L360.252901 589.652568 385.384277 589.652568 385.384277 589.652568zM385.384277 589.652568M556.700061 439.083294c-7.476275-9.830903-16.962324-17.802458-28.145014-23.671119-11.378142-6.033413-24.361851-9.090029-38.593993-9.090029-13.540388 0-25.816992 2.614547-36.493146 7.767917-10.68741 5.050016-19.956517 12.072967-27.503401 20.829398-7.407714 8.490372-13.222139 18.59859-17.276479 30.0412-3.936659 11.118222-5.930059 23.064298-5.930059 35.503609 0 13.3214 1.870604 25.721825 5.541203 36.812417 3.737114 11.467169 9.526981 21.624507 17.216103 30.187533 7.649214 8.525164 17.111726 15.229866 28.14092 19.934005 10.959609 4.659113 23.494087 7.019881 37.257555 7.019881 9.435906 0 18.732643-1.339508 27.631314-3.978614l0.080841-0.026606c9.140171-2.780323 17.388019-6.846942 24.523533-12.085246 7.43125-5.384637 13.771655-12.027941 18.84009-19.750833 5.341658-7.983835 9.077749-16.981766 11.118222-26.751271l-23.636327-4.923126c-1.401929 6.728238-3.947915 12.880355-7.569396 18.279319l-0.068562 0.107447c-3.466961 5.288446-7.798617 9.834996-12.872169 13.505595l-0.072655 0.050142c-4.927219 3.621481-10.733459 6.467295-17.253966 8.460696-6.65456 1.969864-13.621229 2.967588-20.713764 2.967588-10.502192 0-19.86135-1.716084-27.803229-5.090948-7.856945-3.349281-14.274098-7.876388-19.627013-13.84431-5.429663-6.048763-9.543354-13.295817-12.249999-21.593807-0.89437-2.711761-1.655709-5.538133-2.272763-8.464789l8.010441 0 0 0.135076 137.107681 0 1.24741-10.671037c1.537006-13.173021 0.656963-26.083052-2.599198-38.334073C569.488319 460.050838 564.099588 448.845635 556.700061 439.083294L556.700061 439.083294zM461.117123 497.2736l0-0.138146-34.155914 0c0.299829-8.541537 1.774413-16.46295 4.482081-24.113187 3.038196-8.559956 7.315616-16.040325 12.760628-22.283516 5.384637-6.244214 11.981892-11.232832 19.612687-14.830777l0.11154-0.054235c7.488555-3.625574 16.001439-5.384637 26.031886-5.384637 10.392698 0 19.321044 2.050706 27.331485 6.30152 8.080026 4.236488 14.872732 9.931187 20.180622 16.909112 5.460362 7.212262 9.465582 15.57472 11.912307 24.896017 1.605567 6.033413 2.445702 12.288884 2.526543 18.697851L461.117123 497.2736 461.117123 497.2736zM461.117123 497.2736M678.033477 590.018911l20.262486-92.242867 20.493753 92.242867 56.290027 0 43.306318-171.403788-24.366967-6.15621-38.510082 152.428621-17.096377 0-30.051433-130.4961-20.290115 0-29.716812 130.4961-17.899672 0-37.977963-152.387689-24.387433 6.075369 42.727127 171.443697L678.033477 590.018911zM678.033477 590.018911M258.878049 233.353722c-68.969814 68.972884-106.955964 160.65498-106.955964 258.160711 0 97.54257 37.986149 189.248202 106.955964 258.225179 70.879304 70.943772 163.821089 107.267049 257.453606 107.275235 74.504878 0.008186 149.430334-22.980387 214.110449-69.813019l8.090259-5.843078 122.601292 41.10007-6.571672-22.960944c-3.505847-12.247952-6.819313-84.940554-6.819313-95.586009l-25.13547 0c0 6.967692 1.483794 61.83737 3.849678 80.416518l-92.169189-30.902824-18.571984 13.410428c-135.911436 98.413404-320.558853 83.747379-439.061804-34.859949-64.228837-64.237023-99.596346-149.630902-99.596346-240.461607 0-90.789773 35.367509-176.164209 99.592252-240.388952 64.208371-64.208371 149.530618-99.567693 240.256946-99.567693 90.786703 0 176.160115 35.363416 240.401232 99.571786 97.262184 97.262184 126.177747 242.435565 73.665767 369.84128l23.236214 9.578146c56.390311-136.820132 25.330922-292.730041-79.134315-397.191184-68.989257-68.957535-160.671353-106.931405-258.168897-106.931405C419.46856 126.426411 327.830467 164.400281 258.878049 233.353722L258.878049 233.353722zM258.878049 233.353722" /></svg>