<?xml version="1.0" encoding="utf-8"?>
<!-- Generator: Adobe Illustrator 16.0.0, SVG Export Plug-In . SVG Version: 6.00 Build 0)  -->
<!DOCTYPE svg PUBLIC "-//W3C//DTD SVG 1.1//EN" "http://www.w3.org/Graphics/SVG/1.1/DTD/svg11.dtd">
<svg version="1.1" id="圖層_1" xmlns="http://www.w3.org/2000/svg" xmlns:xlink="http://www.w3.org/1999/xlink" x="0px" y="0px"
	 width="800px" height="236.422px" viewBox="0 0 800 236.422" enable-background="new 0 0 800 236.422" xml:space="preserve">
<g>
	<g>
		<path fill="#231815" stroke="#FFFFFF" stroke-width="2.3936" stroke-miterlimit="10" d="M464.663,136.919
			c0,34.231-27.751,61.98-61.979,61.98h-95.407c-34.231,0-61.981-27.749-61.981-61.98v-6.046c0-34.231,27.75-61.982,61.981-61.982
			h98.765c34.231,0,58.622,27.751,58.622,61.982V136.919z"/>
		<path fill="#231815" stroke="#FFFFFF" stroke-width="2.3936" stroke-miterlimit="10" d="M454.963,136.509
			c0,29.586-23.984,53.573-53.572,53.573h-93.116c-29.586,0-53.572-23.987-53.572-53.573v-5.227
			c0-29.587,23.986-53.573,53.572-53.573h93.116c29.588,0,53.572,23.985,53.572,53.573V136.509z"/>
		<g>
			<defs>
				<path id="SVGID_1_" d="M454.963,136.509c0,29.586-23.984,53.573-53.572,53.573h-93.116c-29.586,0-53.572-23.987-53.572-53.573
					v-5.227c0-29.587,23.986-53.573,53.572-53.573h93.116c29.588,0,53.572,23.985,53.572,53.573V136.509z"/>
			</defs>
			<clipPath id="SVGID_2_">
				<use xlink:href="#SVGID_1_"  overflow="visible"/>
			</clipPath>
		</g>
		<g>
			<defs>
				<path id="SVGID_3_" d="M454.963,136.509c0,29.586-23.984,53.573-53.572,53.573h-93.116c-29.586,0-53.572-23.987-53.572-53.573
					v-5.227c0-29.587,23.986-53.573,53.572-53.573h93.116c29.588,0,53.572,23.985,53.572,53.573V136.509z"/>
			</defs>
			<clipPath id="SVGID_4_">
				<use xlink:href="#SVGID_3_"  overflow="visible"/>
			</clipPath>
			<g clip-path="url(#SVGID_4_)">
				
					<line fill="none" stroke="#FFFFFF" stroke-width="2.3936" stroke-miterlimit="10" x1="178.234" y1="73.895" x2="288.138" y2="192.316"/>
				
					<line fill="none" stroke="#FFFFFF" stroke-width="2.3936" stroke-miterlimit="10" x1="196.669" y1="73.895" x2="306.571" y2="192.316"/>
				
					<line fill="none" stroke="#FFFFFF" stroke-width="2.3936" stroke-miterlimit="10" x1="215.103" y1="73.895" x2="325.005" y2="192.316"/>
				
					<line fill="none" stroke="#FFFFFF" stroke-width="2.3936" stroke-miterlimit="10" x1="233.537" y1="73.895" x2="343.438" y2="192.316"/>
				
					<line fill="none" stroke="#FFFFFF" stroke-width="2.3936" stroke-miterlimit="10" x1="251.969" y1="73.895" x2="361.874" y2="192.316"/>
				
					<line fill="none" stroke="#FFFFFF" stroke-width="2.3936" stroke-miterlimit="10" x1="270.404" y1="73.895" x2="380.307" y2="192.316"/>
				
					<line fill="none" stroke="#FFFFFF" stroke-width="2.3936" stroke-miterlimit="10" x1="288.838" y1="73.895" x2="398.739" y2="192.316"/>
				
					<line fill="none" stroke="#FFFFFF" stroke-width="2.3936" stroke-miterlimit="10" x1="307.271" y1="73.895" x2="417.177" y2="192.316"/>
				
					<line fill="none" stroke="#FFFFFF" stroke-width="2.3936" stroke-miterlimit="10" x1="325.707" y1="73.895" x2="435.608" y2="192.316"/>
				
					<line fill="none" stroke="#FFFFFF" stroke-width="2.3936" stroke-miterlimit="10" x1="344.141" y1="73.895" x2="454.044" y2="192.316"/>
				
					<line fill="none" stroke="#FFFFFF" stroke-width="2.3936" stroke-miterlimit="10" x1="362.574" y1="73.895" x2="472.479" y2="192.316"/>
				
					<line fill="none" stroke="#FFFFFF" stroke-width="2.3936" stroke-miterlimit="10" x1="381.008" y1="73.895" x2="490.912" y2="192.316"/>
				
					<line fill="none" stroke="#FFFFFF" stroke-width="2.3936" stroke-miterlimit="10" x1="399.441" y1="73.895" x2="509.346" y2="192.316"/>
				
					<line fill="none" stroke="#FFFFFF" stroke-width="2.3936" stroke-miterlimit="10" x1="417.876" y1="73.895" x2="527.78" y2="192.316"/>
				
					<line fill="none" stroke="#FFFFFF" stroke-width="2.3936" stroke-miterlimit="10" x1="436.31" y1="73.895" x2="546.214" y2="192.316"/>
				
					<line fill="none" stroke="#FFFFFF" stroke-width="2.3936" stroke-miterlimit="10" x1="546.214" y1="73.895" x2="436.31" y2="192.316"/>
				
					<line fill="none" stroke="#FFFFFF" stroke-width="2.3936" stroke-miterlimit="10" x1="527.78" y1="73.895" x2="417.876" y2="192.316"/>
				
					<line fill="none" stroke="#FFFFFF" stroke-width="2.3936" stroke-miterlimit="10" x1="509.346" y1="73.895" x2="399.441" y2="192.316"/>
				
					<line fill="none" stroke="#FFFFFF" stroke-width="2.3936" stroke-miterlimit="10" x1="490.912" y1="73.895" x2="381.008" y2="192.316"/>
				
					<line fill="none" stroke="#FFFFFF" stroke-width="2.3936" stroke-miterlimit="10" x1="472.479" y1="73.895" x2="362.574" y2="192.316"/>
				
					<line fill="none" stroke="#FFFFFF" stroke-width="2.3936" stroke-miterlimit="10" x1="454.044" y1="73.895" x2="344.141" y2="192.316"/>
				
					<line fill="none" stroke="#FFFFFF" stroke-width="2.3936" stroke-miterlimit="10" x1="435.608" y1="73.895" x2="325.707" y2="192.316"/>
				
					<line fill="none" stroke="#FFFFFF" stroke-width="2.3936" stroke-miterlimit="10" x1="417.177" y1="73.895" x2="307.271" y2="192.316"/>
				
					<line fill="none" stroke="#FFFFFF" stroke-width="2.3936" stroke-miterlimit="10" x1="398.739" y1="73.895" x2="288.838" y2="192.316"/>
				
					<line fill="none" stroke="#FFFFFF" stroke-width="2.3936" stroke-miterlimit="10" x1="380.307" y1="73.895" x2="270.404" y2="192.316"/>
				
					<line fill="none" stroke="#FFFFFF" stroke-width="2.3936" stroke-miterlimit="10" x1="361.874" y1="73.895" x2="251.969" y2="192.316"/>
				
					<line fill="none" stroke="#FFFFFF" stroke-width="2.3936" stroke-miterlimit="10" x1="343.438" y1="73.895" x2="233.537" y2="192.316"/>
				
					<line fill="none" stroke="#FFFFFF" stroke-width="2.3936" stroke-miterlimit="10" x1="325.005" y1="73.895" x2="215.103" y2="192.316"/>
				
					<line fill="none" stroke="#FFFFFF" stroke-width="2.3936" stroke-miterlimit="10" x1="306.571" y1="73.895" x2="196.669" y2="192.316"/>
				
					<line fill="none" stroke="#FFFFFF" stroke-width="2.3936" stroke-miterlimit="10" x1="288.138" y1="73.895" x2="178.234" y2="192.316"/>
			</g>
		</g>
		<path fill="#888888" stroke="#FFFFFF" stroke-width="2.3936" stroke-miterlimit="10" d="M443.829,134.906
			c0,26.655-21.606,48.265-48.262,48.265h-81.851c-26.658,0-48.263-21.609-48.263-48.265v-4.709
			c0-26.653,21.605-45.574,48.263-45.574h81.851c26.655,0,48.262,18.921,48.262,45.574V134.906z"/>
		<path fill="#231815" stroke="#FFFFFF" stroke-width="2.3936" stroke-miterlimit="10" d="M435.172,134.719
			c0,21.704-17.594,39.3-39.297,39.3h-82.242c-21.702,0-39.299-17.596-39.299-39.3v-3.833c0-21.706,17.597-37.112,39.299-37.112
			h82.242c21.703,0,39.297,15.406,39.297,37.112V134.719z"/>
		<circle fill="#231815" stroke="#FFFFFF" stroke-width="2.3936" stroke-miterlimit="10" cx="314.646" cy="133.706" r="40.312"/>
		<circle fill="#231815" stroke="#FFFFFF" stroke-width="2.3936" stroke-miterlimit="10" cx="314.647" cy="133.706" r="22.589"/>
	</g>
	<path fill="#231815" stroke="#FFFFFF" stroke-width="2.3936" stroke-miterlimit="10" d="M435.584,133.706
		c0,22.264-18.05,40.313-40.311,40.313c-22.265,0-40.315-18.049-40.315-40.313c0-22.263,18.051-40.311,40.315-40.311
		C417.534,93.395,435.584,111.443,435.584,133.706z"/>
	<path fill="#231815" stroke="#FFFFFF" stroke-width="2.3936" stroke-miterlimit="10" d="M417.861,133.706
		c0,12.477-10.116,22.59-22.588,22.59c-12.478,0-22.591-10.113-22.591-22.59c0-12.474,10.114-22.589,22.591-22.589
		C407.745,111.117,417.861,121.231,417.861,133.706z"/>
</g>
<polyline fill="none" stroke="#FFFFFF" stroke-width="1.1968" stroke-miterlimit="10" points="449,137 516.269,164.4 728.482,164.4 
	"/>
<g>
	<path fill="#FFFFFF" d="M528.62,190.233h-2.413l-0.366-6.938c-0.108-2.241-0.237-4.783-0.216-6.83h-0.064
		c-0.496,1.939-1.142,4.051-1.831,6.141l-2.457,7.476h-1.874l-2.263-7.325c-0.667-2.155-1.249-4.309-1.658-6.292h-0.065
		c-0.043,2.047-0.172,4.654-0.301,6.959l-0.367,6.809h-2.326l1.12-16.504h3.103l2.327,7.261c0.603,2.025,1.099,3.857,1.508,5.667
		h0.064c0.409-1.767,0.927-3.641,1.573-5.688l2.392-7.239h3.124L528.62,190.233z"/>
	<path fill="#FFFFFF" d="M541.136,186.829c0,1.336,0.064,2.456,0.107,3.404h-2.197l-0.13-1.724h-0.064
		c-0.495,0.819-1.659,1.96-3.576,1.96c-2.047,0-3.836-1.271-3.836-5.063v-7.067h2.5v6.658c0,2.047,0.581,3.404,2.219,3.404
		c1.143,0,2.478-0.905,2.478-2.693v-7.347h2.5V186.829z"/>
	<path fill="#FFFFFF" d="M546.843,190.233h-2.499v-17.279h2.499V190.233z"/>
	<path fill="#FFFFFF" d="M550.526,176.208l2.478-0.776v2.93h2.822v1.875h-2.822v6.011c0,1.465,0.453,2.176,1.509,2.176
		c0.495,0,0.797-0.065,1.099-0.151l0.086,1.917c-0.431,0.172-1.099,0.28-1.939,0.28c-0.99,0-1.831-0.323-2.348-0.905
		c-0.604-0.646-0.884-1.637-0.884-3.188v-6.141h-1.681v-1.875h1.681V176.208z"/>
	<path fill="#FFFFFF" d="M559.229,176.53c-0.861,0-1.443-0.646-1.443-1.443c0-0.84,0.604-1.465,1.465-1.465
		c0.862,0,1.444,0.625,1.444,1.465C560.695,175.884,560.135,176.53,559.229,176.53z M560.479,190.233h-2.499V178.34h2.499V190.233z"
		/>
	<path fill="#FFFFFF" d="M565.972,180.172c0.819-1.336,2.111-2.068,3.771-2.068c2.672,0,4.676,2.37,4.676,6.054
		c0,4.352-2.521,6.313-5.021,6.313c-1.422,0-2.585-0.667-3.167-1.637h-0.043v6.205h-2.499v-12.841c0-1.551-0.044-2.779-0.087-3.835
		h2.198l0.129,1.81H565.972z M566.188,185.45c0,2.133,1.465,3.038,2.693,3.038c1.938,0,2.994-1.788,2.994-4.245
		c0-2.262-1.013-4.137-2.93-4.137c-1.486,0-2.758,1.4-2.758,3.146V185.45z"/>
	<path fill="#FFFFFF" d="M579.372,190.233h-2.499v-17.279h2.499V190.233z"/>
	<path fill="#FFFFFF" d="M591.243,189.759c-0.841,0.388-2.154,0.711-3.771,0.711c-3.576,0-5.645-2.391-5.645-6.011
		c0-3.533,1.981-6.355,5.343-6.355c3.34,0,4.676,2.779,4.676,5.709c0,0.409-0.022,0.754-0.065,1.056h-7.541
		c0.065,2.671,1.725,3.684,3.599,3.684c1.314,0,2.219-0.237,2.995-0.56L591.243,189.759z M589.477,183.08
		c0.021-1.422-0.561-3.188-2.479-3.188c-1.831,0-2.606,1.81-2.735,3.188H589.477z"/>
	<path fill="#FFFFFF" d="M601.583,190.233h-2.499v-17.279h2.499V190.233z"/>
	<path fill="#FFFFFF" d="M613.087,187.411c0,1.013,0.021,2.047,0.172,2.822h-2.262l-0.173-1.379h-0.064
		c-0.668,0.926-1.831,1.616-3.318,1.616c-2.219,0-3.49-1.637-3.49-3.469c0-2.952,2.564-4.417,6.637-4.417c0-0.884,0-2.65-2.392-2.65
		c-1.056,0-2.134,0.323-2.888,0.819l-0.517-1.659c0.84-0.539,2.24-0.991,3.835-0.991c3.49,0,4.46,2.305,4.46,4.826V187.411z
		 M610.652,184.265c-1.961,0-4.224,0.367-4.224,2.478c0,1.314,0.819,1.896,1.745,1.896c1.357,0,2.479-1.034,2.479-2.413V184.265z"/>
	<path fill="#FFFFFF" d="M625.625,178.362l-2.865,8.23c-1.4,3.9-2.392,6.097-3.814,7.476c-1.077,0.991-2.176,1.4-2.758,1.53
		l-0.646-2.111c2.585-0.926,3.512-3.339,3.512-3.663c0-0.129-0.021-0.28-0.13-0.517l-4.071-10.945h2.736l2.154,6.679
		c0.237,0.775,0.474,1.681,0.646,2.37h0.064c0.172-0.689,0.409-1.573,0.625-2.37l1.917-6.679H625.625z"/>
	<path fill="#FFFFFF" d="M636.073,189.759c-0.841,0.388-2.154,0.711-3.771,0.711c-3.576,0-5.645-2.391-5.645-6.011
		c0-3.533,1.981-6.355,5.343-6.355c3.34,0,4.676,2.779,4.676,5.709c0,0.409-0.022,0.754-0.065,1.056h-7.541
		c0.065,2.671,1.725,3.684,3.599,3.684c1.314,0,2.219-0.237,2.995-0.56L636.073,189.759z M634.307,183.08
		c0.021-1.422-0.561-3.188-2.479-3.188c-1.831,0-2.606,1.81-2.735,3.188H634.307z"/>
	<path fill="#FFFFFF" d="M645.056,180.56c-0.216-0.043-0.452-0.064-0.732-0.064c-1.681,0-2.736,1.379-2.736,3.447v6.291h-2.499
		v-8.252c0-1.379-0.021-2.521-0.087-3.62h2.177l0.086,2.176h0.086c0.539-1.508,1.788-2.435,3.081-2.435
		c0.237,0,0.409,0.021,0.625,0.064V180.56z"/>
	<path fill="#FFFFFF" d="M652.897,180.603c-0.475-0.302-1.293-0.668-2.263-0.668c-1.12,0-1.724,0.646-1.724,1.444
		c0,0.818,0.539,1.228,1.982,1.853c1.961,0.797,2.995,1.875,2.995,3.598c0,2.284-1.745,3.641-4.438,3.641
		c-1.25,0-2.435-0.323-3.232-0.797l0.561-1.853c0.604,0.366,1.702,0.797,2.715,0.797c1.336,0,1.982-0.646,1.982-1.551
		c0-0.905-0.496-1.4-1.918-2.004c-2.111-0.84-3.038-2.025-3.038-3.404c0-1.982,1.616-3.555,4.115-3.555
		c1.164,0,2.176,0.323,2.822,0.689L652.897,180.603z"/>
	<path fill="#FFFFFF" d="M671.381,184.201c0,4.438-2.887,6.27-5.559,6.27c-3.081,0-5.43-2.262-5.43-6.097
		c0-4.007,2.457-6.27,5.603-6.27C669.248,178.104,671.381,180.56,671.381,184.201z M665.908,179.978
		c-2.133,0-2.951,2.284-2.951,4.331c0,2.327,1.099,4.287,2.93,4.287c1.811,0,2.931-1.96,2.931-4.331
		C668.817,182.305,667.998,179.978,665.908,179.978z"/>
	<path fill="#FFFFFF" d="M674.181,178.362c0-1.292,0-3.21,1.335-4.546c0.819-0.797,1.918-1.099,2.888-1.099
		c0.775,0,1.379,0.151,1.81,0.323l-0.259,1.917c-0.323-0.129-0.689-0.237-1.271-0.237c-1.552,0-2.025,1.4-2.025,2.995v0.646h2.606
		v1.875h-2.585v9.997h-2.499v-9.997h-1.595v-1.875H674.181z"/>
	<path fill="#FFFFFF" d="M695.638,190.233h-2.499v-6.959c0-1.681-0.561-3.103-2.263-3.103c-1.228,0-2.542,1.013-2.542,2.908v7.153
		h-2.499v-8.532c0-1.314-0.044-2.327-0.087-3.339h2.177l0.129,1.767h0.064c0.561-1.012,1.81-2.025,3.599-2.025
		c1.853,0,3.921,1.207,3.921,4.869V190.233z"/>
	<path fill="#FFFFFF" d="M709.016,184.201c0,4.438-2.887,6.27-5.559,6.27c-3.081,0-5.43-2.262-5.43-6.097
		c0-4.007,2.457-6.27,5.603-6.27C706.883,178.104,709.016,180.56,709.016,184.201z M703.543,179.978
		c-2.133,0-2.951,2.284-2.951,4.331c0,2.327,1.099,4.287,2.93,4.287c1.811,0,2.931-1.96,2.931-4.331
		C706.452,182.305,705.633,179.978,703.543,179.978z"/>
	<path fill="#FFFFFF" d="M712.741,176.53c-0.861,0-1.443-0.646-1.443-1.443c0-0.84,0.604-1.465,1.465-1.465
		c0.862,0,1.444,0.625,1.444,1.465C714.207,175.884,713.646,176.53,712.741,176.53z M713.991,190.233h-2.499V178.34h2.499V190.233z"
		/>
	<path fill="#FFFFFF" d="M723.104,180.603c-0.475-0.302-1.293-0.668-2.263-0.668c-1.12,0-1.724,0.646-1.724,1.444
		c0,0.818,0.539,1.228,1.982,1.853c1.961,0.797,2.995,1.875,2.995,3.598c0,2.284-1.745,3.641-4.438,3.641
		c-1.25,0-2.435-0.323-3.232-0.797l0.561-1.853c0.604,0.366,1.702,0.797,2.715,0.797c1.336,0,1.982-0.646,1.982-1.551
		c0-0.905-0.496-1.4-1.918-2.004c-2.111-0.84-3.038-2.025-3.038-3.404c0-1.982,1.616-3.555,4.115-3.555
		c1.164,0,2.176,0.323,2.822,0.689L723.104,180.603z"/>
	<path fill="#FFFFFF" d="M735.212,189.759c-0.841,0.388-2.154,0.711-3.771,0.711c-3.576,0-5.645-2.391-5.645-6.011
		c0-3.533,1.981-6.355,5.343-6.355c3.34,0,4.676,2.779,4.676,5.709c0,0.409-0.022,0.754-0.065,1.056h-7.541
		c0.065,2.671,1.725,3.684,3.599,3.684c1.314,0,2.219-0.237,2.995-0.56L735.212,189.759z M733.445,183.08
		c0.021-1.422-0.561-3.188-2.479-3.188c-1.831,0-2.606,1.81-2.735,3.188H733.445z"/>
	<path fill="#FFFFFF" d="M520.713,219.489c-0.561,0.258-1.681,0.603-3.06,0.603c-3.426,0-5.667-2.348-5.667-6.054
		c0-3.598,2.327-6.313,6.141-6.313c1.143,0,2.133,0.28,2.65,0.539l-0.495,1.917c-0.432-0.215-1.121-0.474-2.134-0.474
		c-2.326,0-3.619,1.896-3.619,4.223c0,2.607,1.529,4.158,3.598,4.158c0.991,0,1.681-0.237,2.241-0.474L520.713,219.489z"/>
	<path fill="#FFFFFF" d="M531.269,217.033c0,1.012,0.021,2.046,0.172,2.822h-2.262l-0.173-1.379h-0.064
		c-0.668,0.926-1.831,1.616-3.318,1.616c-2.219,0-3.49-1.637-3.49-3.469c0-2.952,2.564-4.417,6.637-4.417c0-0.883,0-2.65-2.392-2.65
		c-1.056,0-2.134,0.323-2.888,0.819l-0.517-1.659c0.84-0.539,2.24-0.991,3.835-0.991c3.49,0,4.46,2.305,4.46,4.826V217.033z
		 M528.834,213.887c-1.961,0-4.224,0.366-4.224,2.478c0,1.314,0.819,1.896,1.745,1.896c1.357,0,2.479-1.034,2.479-2.413V213.887z"/>
	<path fill="#FFFFFF" d="M544.216,219.855h-2.499v-6.959c0-1.681-0.561-3.103-2.263-3.103c-1.228,0-2.542,1.012-2.542,2.909v7.153
		h-2.499v-8.532c0-1.314-0.044-2.327-0.087-3.34h2.177l0.129,1.767h0.064c0.561-1.013,1.81-2.025,3.599-2.025
		c1.853,0,3.921,1.207,3.921,4.869V219.855z"/>
	<path fill="#FFFFFF" d="M555.354,219.489c-0.561,0.258-1.681,0.603-3.06,0.603c-3.426,0-5.667-2.348-5.667-6.054
		c0-3.598,2.327-6.313,6.141-6.313c1.143,0,2.133,0.28,2.65,0.539l-0.495,1.917c-0.432-0.215-1.121-0.474-2.134-0.474
		c-2.326,0-3.619,1.896-3.619,4.223c0,2.607,1.529,4.158,3.598,4.158c0.991,0,1.681-0.237,2.241-0.474L555.354,219.489z"/>
	<path fill="#FFFFFF" d="M566.275,219.381c-0.841,0.388-2.154,0.711-3.771,0.711c-3.577,0-5.646-2.392-5.646-6.011
		c0-3.534,1.982-6.356,5.344-6.356c3.34,0,4.676,2.779,4.676,5.709c0,0.409-0.021,0.754-0.065,1.056h-7.54
		c0.064,2.671,1.723,3.684,3.598,3.684c1.314,0,2.219-0.237,2.995-0.56L566.275,219.381z M564.509,212.702
		c0.021-1.422-0.561-3.189-2.478-3.189c-1.832,0-2.607,1.81-2.736,3.189H564.509z"/>
	<path fill="#FFFFFF" d="M571.79,219.855h-2.499v-17.279h2.499V219.855z"/>
	<path fill="#FFFFFF" d="M577.477,219.855h-2.499v-17.279h2.499V219.855z"/>
	<path fill="#FFFFFF" d="M588.981,217.033c0,1.012,0.021,2.046,0.172,2.822h-2.262l-0.173-1.379h-0.064
		c-0.668,0.926-1.831,1.616-3.318,1.616c-2.219,0-3.49-1.637-3.49-3.469c0-2.952,2.564-4.417,6.637-4.417c0-0.883,0-2.65-2.392-2.65
		c-1.056,0-2.134,0.323-2.888,0.819l-0.517-1.659c0.84-0.539,2.24-0.991,3.835-0.991c3.49,0,4.46,2.305,4.46,4.826V217.033z
		 M586.547,213.887c-1.961,0-4.224,0.366-4.224,2.478c0,1.314,0.819,1.896,1.745,1.896c1.357,0,2.479-1.034,2.479-2.413V213.887z"/>
	<path fill="#FFFFFF" d="M592.621,205.829l2.478-0.776v2.93h2.822v1.875h-2.822v6.011c0,1.465,0.453,2.176,1.509,2.176
		c0.495,0,0.797-0.064,1.099-0.15l0.086,1.917c-0.431,0.172-1.099,0.28-1.939,0.28c-0.99,0-1.831-0.323-2.348-0.905
		c-0.604-0.646-0.884-1.637-0.884-3.188v-6.141h-1.681v-1.875h1.681V205.829z"/>
	<path fill="#FFFFFF" d="M601.323,206.152c-0.861,0-1.443-0.646-1.443-1.444c0-0.84,0.604-1.465,1.465-1.465
		c0.862,0,1.444,0.625,1.444,1.465C602.789,205.506,602.229,206.152,601.323,206.152z M602.573,219.855h-2.499v-11.893h2.499
		V219.855z"/>
	<path fill="#FFFFFF" d="M616.017,213.822c0,4.438-2.887,6.27-5.559,6.27c-3.081,0-5.43-2.262-5.43-6.097
		c0-4.007,2.457-6.27,5.603-6.27C613.884,207.725,616.017,210.181,616.017,213.822z M610.544,209.6
		c-2.133,0-2.951,2.284-2.951,4.331c0,2.327,1.099,4.288,2.93,4.288c1.811,0,2.931-1.961,2.931-4.331
		C613.453,211.926,612.635,209.6,610.544,209.6z"/>
	<path fill="#FFFFFF" d="M628.296,219.855h-2.499v-6.959c0-1.681-0.561-3.103-2.263-3.103c-1.228,0-2.542,1.012-2.542,2.909v7.153
		h-2.499v-8.532c0-1.314-0.044-2.327-0.087-3.34h2.177l0.129,1.767h0.064c0.561-1.013,1.81-2.025,3.599-2.025
		c1.853,0,3.921,1.207,3.921,4.869V219.855z"/>
	<path fill="#FFFFFF" d="M637.516,206.152c-0.861,0-1.443-0.646-1.443-1.444c0-0.84,0.604-1.465,1.465-1.465
		c0.862,0,1.443,0.625,1.443,1.465C638.98,205.506,638.421,206.152,637.516,206.152z M638.766,219.855h-2.499v-11.893h2.499V219.855
		z"/>
	<path fill="#FFFFFF" d="M651.778,219.855h-2.499v-6.959c0-1.681-0.561-3.103-2.263-3.103c-1.228,0-2.542,1.012-2.542,2.909v7.153
		h-2.499v-8.532c0-1.314-0.044-2.327-0.087-3.34h2.177l0.129,1.767h0.064c0.561-1.013,1.81-2.025,3.599-2.025
		c1.853,0,3.921,1.207,3.921,4.869V219.855z"/>
	<path fill="#FFFFFF" d="M660.825,210.224c-0.475-0.302-1.293-0.668-2.263-0.668c-1.12,0-1.724,0.646-1.724,1.444
		c0,0.818,0.539,1.228,1.982,1.853c1.961,0.797,2.995,1.875,2.995,3.598c0,2.284-1.745,3.641-4.438,3.641
		c-1.25,0-2.435-0.323-3.232-0.797l0.561-1.853c0.604,0.366,1.702,0.797,2.715,0.797c1.336,0,1.982-0.646,1.982-1.551
		c0-0.905-0.496-1.401-1.918-2.004c-2.111-0.84-3.038-2.025-3.038-3.404c0-1.982,1.616-3.555,4.115-3.555
		c1.164,0,2.176,0.323,2.822,0.689L660.825,210.224z"/>
	<path fill="#FFFFFF" d="M673.902,216.451c0,1.336,0.064,2.457,0.107,3.404h-2.197l-0.13-1.724h-0.064
		c-0.495,0.819-1.659,1.96-3.576,1.96c-2.047,0-3.835-1.271-3.835-5.063v-7.067h2.499v6.658c0,2.046,0.581,3.404,2.219,3.404
		c1.142,0,2.478-0.905,2.478-2.693v-7.347h2.5V216.451z"/>
	<path fill="#FFFFFF" d="M679.61,219.855h-2.499v-17.279h2.499V219.855z"/>
	<path fill="#FFFFFF" d="M691.114,217.033c0,1.012,0.021,2.046,0.172,2.822h-2.262l-0.173-1.379h-0.064
		c-0.668,0.926-1.831,1.616-3.318,1.616c-2.219,0-3.49-1.637-3.49-3.469c0-2.952,2.564-4.417,6.637-4.417c0-0.883,0-2.65-2.392-2.65
		c-1.056,0-2.134,0.323-2.888,0.819l-0.517-1.659c0.84-0.539,2.24-0.991,3.835-0.991c3.49,0,4.46,2.305,4.46,4.826V217.033z
		 M688.68,213.887c-1.961,0-4.224,0.366-4.224,2.478c0,1.314,0.819,1.896,1.745,1.896c1.357,0,2.479-1.034,2.479-2.413V213.887z"/>
	<path fill="#FFFFFF" d="M694.754,205.829l2.478-0.776v2.93h2.822v1.875h-2.822v6.011c0,1.465,0.453,2.176,1.509,2.176
		c0.495,0,0.797-0.064,1.099-0.15l0.086,1.917c-0.431,0.172-1.099,0.28-1.939,0.28c-0.99,0-1.831-0.323-2.348-0.905
		c-0.604-0.646-0.884-1.637-0.884-3.188v-6.141h-1.681v-1.875h1.681V205.829z"/>
	<path fill="#FFFFFF" d="M703.457,206.152c-0.861,0-1.443-0.646-1.443-1.444c0-0.84,0.604-1.465,1.465-1.465
		c0.862,0,1.443,0.625,1.443,1.465C704.922,205.506,704.362,206.152,703.457,206.152z M704.707,219.855h-2.499v-11.893h2.499
		V219.855z"/>
	<path fill="#FFFFFF" d="M718.15,213.822c0,4.438-2.887,6.27-5.559,6.27c-3.081,0-5.43-2.262-5.43-6.097
		c0-4.007,2.457-6.27,5.603-6.27C716.018,207.725,718.15,210.181,718.15,213.822z M712.678,209.6c-2.133,0-2.951,2.284-2.951,4.331
		c0,2.327,1.099,4.288,2.93,4.288c1.811,0,2.931-1.961,2.931-4.331C715.587,211.926,714.768,209.6,712.678,209.6z"/>
	<path fill="#FFFFFF" d="M730.43,219.855h-2.499v-6.959c0-1.681-0.561-3.103-2.263-3.103c-1.228,0-2.542,1.012-2.542,2.909v7.153
		h-2.499v-8.532c0-1.314-0.043-2.327-0.087-3.34h2.177l0.129,1.767h0.064c0.561-1.013,1.811-2.025,3.599-2.025
		c1.853,0,3.921,1.207,3.921,4.869V219.855z"/>
	<path fill="#FFFFFF" d="M733.229,218.39c0-0.991,0.689-1.724,1.615-1.724c0.948,0,1.595,0.711,1.595,1.724
		c0,0.991-0.625,1.702-1.616,1.702S733.229,219.338,733.229,218.39z"/>
</g>
<g>
	<path fill="#FFFFFF" d="M524.569,49.14h-2.499v-7.498h-6.723v7.498h-2.499V32.636h2.499v6.809h6.723v-6.809h2.499V49.14z"/>
	<path fill="#FFFFFF" d="M529.113,35.437c-0.861,0-1.443-0.646-1.443-1.443c0-0.84,0.604-1.465,1.465-1.465
		c0.862,0,1.443,0.625,1.443,1.465C530.578,34.791,530.019,35.437,529.113,35.437z M530.363,49.14h-2.499V37.247h2.499V49.14z"/>
	<path fill="#FFFFFF" d="M543.483,37.268c-0.064,0.84-0.107,1.832-0.107,3.426v6.765c0,2.37-0.194,6.744-5.817,6.744
		c-1.379,0-2.822-0.301-3.749-0.862l0.561-1.939c0.732,0.431,1.874,0.84,3.21,0.84c1.939,0,3.318-1.077,3.318-3.771V47.33h-0.043
		c-0.604,1.012-1.767,1.745-3.297,1.745c-2.801,0-4.719-2.478-4.719-5.796c0-4.029,2.436-6.27,5.021-6.27
		c1.767,0,2.758,0.905,3.253,1.853h0.044l0.107-1.594H543.483z M540.877,41.857c0-1.573-1.034-2.866-2.564-2.866
		c-1.724,0-2.93,1.638-2.93,4.18c0,2.327,1.056,3.986,2.908,3.986c1.293,0,2.586-0.991,2.586-2.973V41.857z"/>
	<path fill="#FFFFFF" d="M556.366,49.14h-2.499v-6.938c0-1.702-0.582-3.124-2.263-3.124c-1.228,0-2.542,1.013-2.542,2.801v7.261
		h-2.499V31.86h2.499v7.023h0.043c0.775-1.228,2.111-1.874,3.404-1.874c1.788,0,3.856,1.207,3.856,4.955V49.14z"/>
	<path fill="#FFFFFF" d="M570.239,39.509c-0.475-0.302-1.293-0.668-2.263-0.668c-1.12,0-1.724,0.646-1.724,1.444
		c0,0.818,0.539,1.228,1.982,1.853c1.961,0.797,2.995,1.875,2.995,3.598c0,2.284-1.745,3.641-4.438,3.641
		c-1.25,0-2.435-0.323-3.232-0.797l0.561-1.853c0.604,0.366,1.702,0.797,2.715,0.797c1.336,0,1.982-0.646,1.982-1.551
		c0-0.905-0.496-1.4-1.918-2.004c-2.111-0.84-3.038-2.025-3.038-3.404c0-1.982,1.616-3.555,4.115-3.555
		c1.164,0,2.176,0.323,2.822,0.689L570.239,39.509z"/>
	<path fill="#FFFFFF" d="M583.316,45.735c0,1.336,0.064,2.456,0.107,3.404h-2.197l-0.13-1.724h-0.064
		c-0.495,0.819-1.659,1.96-3.576,1.96c-2.047,0-3.835-1.271-3.835-5.063v-7.067h2.499v6.658c0,2.047,0.581,3.404,2.219,3.404
		c1.142,0,2.478-0.905,2.478-2.693v-7.347h2.5V45.735z"/>
	<path fill="#FFFFFF" d="M592.428,39.509c-0.475-0.302-1.293-0.668-2.263-0.668c-1.12,0-1.724,0.646-1.724,1.444
		c0,0.818,0.539,1.228,1.982,1.853c1.961,0.797,2.995,1.875,2.995,3.598c0,2.284-1.745,3.641-4.438,3.641
		c-1.25,0-2.435-0.323-3.232-0.797l0.561-1.853c0.604,0.366,1.702,0.797,2.715,0.797c1.336,0,1.982-0.646,1.982-1.551
		c0-0.905-0.496-1.4-1.918-2.004c-2.111-0.84-3.038-2.025-3.038-3.404c0-1.982,1.616-3.555,4.115-3.555
		c1.164,0,2.177,0.323,2.822,0.689L592.428,39.509z"/>
	<path fill="#FFFFFF" d="M596.348,35.114l2.478-0.776v2.93h2.822v1.875h-2.822v6.011c0,1.465,0.453,2.176,1.509,2.176
		c0.495,0,0.797-0.065,1.099-0.151l0.086,1.917c-0.431,0.172-1.099,0.28-1.939,0.28c-0.99,0-1.831-0.323-2.348-0.905
		c-0.604-0.646-0.884-1.637-0.884-3.188v-6.141h-1.681v-1.875h1.681V35.114z"/>
	<path fill="#FFFFFF" d="M612.118,46.317c0,1.013,0.021,2.047,0.172,2.822h-2.262l-0.173-1.379h-0.064
		c-0.668,0.926-1.831,1.616-3.318,1.616c-2.219,0-3.49-1.637-3.49-3.469c0-2.952,2.564-4.417,6.637-4.417c0-0.884,0-2.65-2.392-2.65
		c-1.056,0-2.134,0.323-2.888,0.819L603.823,38c0.84-0.539,2.24-0.991,3.835-0.991c3.49,0,4.46,2.305,4.46,4.826V46.317z
		 M609.684,43.171c-1.961,0-4.224,0.367-4.224,2.478c0,1.314,0.819,1.896,1.745,1.896c1.357,0,2.479-1.034,2.479-2.413V43.171z"/>
	<path fill="#FFFFFF" d="M616.512,35.437c-0.861,0-1.443-0.646-1.443-1.443c0-0.84,0.604-1.465,1.465-1.465
		c0.862,0,1.443,0.625,1.443,1.465C617.977,34.791,617.417,35.437,616.512,35.437z M617.762,49.14h-2.499V37.247h2.499V49.14z"/>
	<path fill="#FFFFFF" d="M630.773,49.14h-2.499v-6.959c0-1.681-0.561-3.103-2.263-3.103c-1.228,0-2.542,1.013-2.542,2.908v7.153
		h-2.499v-8.532c0-1.314-0.043-2.327-0.087-3.339h2.177l0.129,1.767h0.064c0.561-1.012,1.811-2.025,3.599-2.025
		c1.853,0,3.921,1.207,3.921,4.869V49.14z"/>
	<path fill="#FFFFFF" d="M642.601,48.666c-0.841,0.388-2.154,0.711-3.771,0.711c-3.576,0-5.645-2.391-5.645-6.011
		c0-3.533,1.981-6.355,5.343-6.355c3.34,0,4.676,2.779,4.676,5.709c0,0.409-0.022,0.754-0.065,1.056h-7.541
		c0.065,2.671,1.725,3.684,3.599,3.684c1.314,0,2.219-0.237,2.995-0.56L642.601,48.666z M640.834,41.986
		c0.021-1.422-0.561-3.188-2.479-3.188c-1.831,0-2.606,1.81-2.735,3.188H640.834z"/>
	<path fill="#FFFFFF" d="M655.526,45.973c0,1.077,0.044,2.348,0.087,3.167h-2.198l-0.129-1.853h-0.064
		c-0.625,1.207-1.918,2.09-3.599,2.09c-2.693,0-4.74-2.391-4.74-6.054c0-4.029,2.306-6.313,4.956-6.313
		c1.529,0,2.628,0.689,3.146,1.594h0.043V31.86h2.499V45.973z M653.027,42.073c0-1.939-1.228-3.081-2.629-3.081
		c-1.917,0-2.973,1.896-2.973,4.245c0,2.327,1.034,4.115,2.93,4.115c1.616,0,2.672-1.422,2.672-3.081V42.073z"/>
	<path fill="#FFFFFF" d="M664.034,35.114l2.478-0.776v2.93h2.822v1.875h-2.822v6.011c0,1.465,0.453,2.176,1.509,2.176
		c0.495,0,0.797-0.065,1.099-0.151l0.086,1.917c-0.431,0.172-1.099,0.28-1.939,0.28c-0.99,0-1.831-0.323-2.348-0.905
		c-0.604-0.646-0.884-1.637-0.884-3.188v-6.141h-1.681v-1.875h1.681V35.114z"/>
	<path fill="#FFFFFF" d="M680.171,48.666c-0.841,0.388-2.154,0.711-3.771,0.711c-3.576,0-5.645-2.391-5.645-6.011
		c0-3.533,1.981-6.355,5.343-6.355c3.34,0,4.676,2.779,4.676,5.709c0,0.409-0.022,0.754-0.065,1.056h-7.541
		c0.065,2.671,1.725,3.684,3.599,3.684c1.314,0,2.219-0.237,2.995-0.56L680.171,48.666z M678.404,41.986
		c0.021-1.422-0.561-3.188-2.479-3.188c-1.831,0-2.606,1.81-2.735,3.188H678.404z"/>
	<path fill="#FFFFFF" d="M699.475,49.14h-2.456v-6.787c0-1.982-0.646-3.296-2.155-3.296c-1.142,0-2.305,1.034-2.305,2.758v7.325
		h-2.456v-7.153c0-1.659-0.625-2.93-2.068-2.93c-1.121,0-2.392,1.012-2.392,2.887v7.196h-2.456v-8.532
		c0-1.335-0.044-2.327-0.087-3.339h2.155l0.129,1.745h0.064c0.582-0.991,1.659-2.003,3.469-2.003c1.509,0,2.65,0.84,3.146,2.176
		h0.043c0.798-1.314,1.961-2.176,3.663-2.176c1.767,0,3.706,1.207,3.706,4.955V49.14z"/>
	<path fill="#FFFFFF" d="M704.879,39.078c0.819-1.336,2.111-2.068,3.771-2.068c2.672,0,4.676,2.37,4.676,6.054
		c0,4.352-2.521,6.313-5.021,6.313c-1.422,0-2.585-0.667-3.167-1.637h-0.043v6.205h-2.499V41.103c0-1.551-0.043-2.779-0.087-3.835
		h2.198l0.129,1.81H704.879z M705.095,44.356c0,2.133,1.465,3.038,2.693,3.038c1.938,0,2.994-1.788,2.994-4.245
		c0-2.262-1.013-4.137-2.93-4.137c-1.486,0-2.758,1.4-2.758,3.146V44.356z"/>
	<path fill="#FFFFFF" d="M724.463,48.666c-0.841,0.388-2.154,0.711-3.771,0.711c-3.577,0-5.646-2.391-5.646-6.011
		c0-3.533,1.982-6.355,5.344-6.355c3.34,0,4.676,2.779,4.676,5.709c0,0.409-0.021,0.754-0.065,1.056h-7.54
		c0.064,2.671,1.723,3.684,3.598,3.684c1.314,0,2.219-0.237,2.995-0.56L724.463,48.666z M722.696,41.986
		c0.021-1.422-0.561-3.188-2.478-3.188c-1.832,0-2.607,1.81-2.736,3.188H722.696z"/>
	<path fill="#FFFFFF" d="M733.445,39.466c-0.216-0.043-0.452-0.064-0.732-0.064c-1.681,0-2.736,1.379-2.736,3.447v6.291h-2.499
		v-8.252c0-1.379-0.021-2.521-0.087-3.62h2.177l0.086,2.176h0.086c0.539-1.508,1.788-2.435,3.081-2.435
		c0.237,0,0.409,0.021,0.625,0.064V39.466z"/>
	<path fill="#FFFFFF" d="M743.7,46.317c0,1.013,0.021,2.047,0.172,2.822h-2.262l-0.173-1.379h-0.064
		c-0.668,0.926-1.831,1.616-3.318,1.616c-2.219,0-3.49-1.637-3.49-3.469c0-2.952,2.564-4.417,6.637-4.417c0-0.884,0-2.65-2.392-2.65
		c-1.056,0-2.134,0.323-2.888,0.819L735.405,38c0.84-0.539,2.24-0.991,3.835-0.991c3.49,0,4.46,2.305,4.46,4.826V46.317z
		 M741.266,43.171c-1.961,0-4.224,0.367-4.224,2.478c0,1.314,0.819,1.896,1.745,1.896c1.357,0,2.479-1.034,2.479-2.413V43.171z"/>
	<path fill="#FFFFFF" d="M747.34,35.114l2.478-0.776v2.93h2.822v1.875h-2.822v6.011c0,1.465,0.453,2.176,1.509,2.176
		c0.495,0,0.797-0.065,1.099-0.151l0.086,1.917c-0.431,0.172-1.099,0.28-1.939,0.28c-0.99,0-1.831-0.323-2.348-0.905
		c-0.604-0.646-0.884-1.637-0.884-3.188v-6.141h-1.681v-1.875h1.681V35.114z"/>
	<path fill="#FFFFFF" d="M764.445,45.735c0,1.336,0.064,2.456,0.107,3.404h-2.197l-0.13-1.724h-0.064
		c-0.495,0.819-1.659,1.96-3.576,1.96c-2.047,0-3.835-1.271-3.835-5.063v-7.067h2.499v6.658c0,2.047,0.581,3.404,2.219,3.404
		c1.142,0,2.478-0.905,2.478-2.693v-7.347h2.5V45.735z"/>
	<path fill="#FFFFFF" d="M773.622,39.466c-0.216-0.043-0.452-0.064-0.732-0.064c-1.681,0-2.736,1.379-2.736,3.447v6.291h-2.499
		v-8.252c0-1.379-0.021-2.521-0.087-3.62h2.177l0.086,2.176h0.086c0.539-1.508,1.788-2.435,3.081-2.435
		c0.237,0,0.409,0.021,0.625,0.064V39.466z"/>
	<path fill="#FFFFFF" d="M784.242,48.666c-0.841,0.388-2.154,0.711-3.771,0.711c-3.577,0-5.646-2.391-5.646-6.011
		c0-3.533,1.982-6.355,5.344-6.355c3.34,0,4.676,2.779,4.676,5.709c0,0.409-0.021,0.754-0.065,1.056h-7.54
		c0.064,2.671,1.723,3.684,3.598,3.684c1.314,0,2.219-0.237,2.995-0.56L784.242,48.666z M782.476,41.986
		c0.021-1.422-0.561-3.188-2.478-3.188c-1.832,0-2.607,1.81-2.736,3.188H782.476z"/>
	<path fill="#FFFFFF" d="M522.953,72.729c0,4.438-2.887,6.27-5.559,6.27c-3.081,0-5.43-2.262-5.43-6.097
		c0-4.007,2.457-6.27,5.603-6.27C520.82,66.631,522.953,69.087,522.953,72.729z M517.48,68.506c-2.133,0-2.951,2.284-2.951,4.331
		c0,2.327,1.099,4.288,2.93,4.288c1.811,0,2.931-1.961,2.931-4.331C520.39,70.833,519.57,68.506,517.48,68.506z"/>
	<path fill="#FFFFFF" d="M525.753,66.89c0-1.292,0-3.21,1.335-4.546c0.819-0.797,1.918-1.099,2.888-1.099
		c0.775,0,1.379,0.151,1.81,0.323l-0.259,1.917c-0.323-0.129-0.689-0.237-1.271-0.237c-1.552,0-2.025,1.4-2.025,2.995v0.646h2.606
		v1.875h-2.585v9.997h-2.499v-9.997h-1.595V66.89H525.753z"/>
	<path fill="#FFFFFF" d="M546.672,78.761h-9.868v-1.53l1.702-1.788c3.426-3.512,5.321-5.753,5.321-8.188
		c0-1.573-0.754-2.952-2.801-2.952c-1.249,0-2.37,0.668-3.124,1.271l-0.754-1.788c0.991-0.819,2.563-1.508,4.374-1.508
		c3.339,0,4.804,2.262,4.804,4.719c0,2.973-2.024,5.451-4.848,8.295l-1.335,1.357v0.043h6.528V78.761z"/>
	<path fill="#FFFFFF" d="M551.26,69.82c0.754-0.948,1.96-1.681,3.533-1.681c2.607,0,4.503,1.961,4.503,5.149
		c0,3.017-1.918,5.709-5.128,5.709c-3.447,0-5.473-2.822-5.473-6.851c0-3.167,1.056-5.688,2.607-7.326
		c1.681-1.767,4.223-2.521,6.507-2.521l0.021,1.982c-4.611,0-6.27,3.146-6.614,5.537H551.26z M556.797,73.439
		c0-2.111-1.077-3.512-2.779-3.512c-1.443,0-2.845,1.357-2.845,2.822c0.044,2.542,1.1,4.374,2.995,4.374
		C555.806,77.124,556.797,75.572,556.797,73.439z"/>
	<path fill="#FFFFFF" d="M560.823,70.682c0-5.3,2.004-8.403,5.365-8.403c3.426,0,5.149,3.318,5.149,8.23
		c0,5.494-1.982,8.489-5.322,8.489C562.634,78.998,560.823,75.659,560.823,70.682z M568.816,70.596c0-3.857-0.818-6.334-2.714-6.334
		c-1.638,0-2.758,2.284-2.758,6.334c0,4.029,0.991,6.399,2.714,6.399C568.171,76.995,568.816,73.957,568.816,70.596z"/>
	<path fill="#FFFFFF" d="M584.522,78.309c-0.689,0.345-2.09,0.689-3.878,0.689c-4.59,0-7.671-3.038-7.671-8.295
		c0-5.602,3.534-8.661,8.102-8.661c1.896,0,3.06,0.409,3.512,0.646l-0.538,2.047c-0.689-0.323-1.659-0.604-2.888-0.604
		c-3.188,0-5.559,2.155-5.559,6.442c0,4.05,2.111,6.313,5.516,6.313c1.12,0,2.263-0.237,2.974-0.582L584.522,78.309z"/>
	<path fill="#FFFFFF" d="M589.842,75.422c-0.625,2.154-1.702,4.826-2.521,6.184l-1.724,0.172c0.604-1.637,1.25-4.223,1.529-6.119
		L589.842,75.422z"/>
	<path fill="#FFFFFF" d="M605.332,75.939c0,1.012,0.021,2.046,0.172,2.822h-2.262l-0.173-1.379h-0.064
		c-0.668,0.926-1.831,1.616-3.318,1.616c-2.219,0-3.49-1.637-3.49-3.469c0-2.952,2.564-4.417,6.636-4.417c0-0.883,0-2.65-2.391-2.65
		c-1.057,0-2.134,0.323-2.888,0.819l-0.517-1.659c0.84-0.539,2.24-0.991,3.835-0.991c3.49,0,4.46,2.305,4.46,4.826V75.939z
		 M602.897,72.793c-1.961,0-4.224,0.366-4.224,2.478c0,1.314,0.819,1.896,1.746,1.896c1.356,0,2.478-1.034,2.478-2.413V72.793z"/>
	<path fill="#FFFFFF" d="M618.279,78.761h-2.499v-6.959c0-1.681-0.561-3.103-2.263-3.103c-1.228,0-2.542,1.012-2.542,2.909v7.153
		h-2.499v-8.532c0-1.314-0.043-2.327-0.087-3.34h2.177l0.129,1.767h0.064c0.561-1.013,1.811-2.025,3.599-2.025
		c1.853,0,3.921,1.207,3.921,4.869V78.761z"/>
	<path fill="#FFFFFF" d="M631.334,75.594c0,1.077,0.043,2.348,0.087,3.167h-2.198l-0.129-1.853h-0.064
		c-0.625,1.207-1.918,2.09-3.599,2.09c-2.693,0-4.739-2.392-4.739-6.054c0-4.029,2.305-6.313,4.955-6.313
		c1.529,0,2.629,0.689,3.146,1.594h0.043v-6.744h2.499V75.594z M628.835,71.694c0-1.939-1.228-3.081-2.628-3.081
		c-1.918,0-2.974,1.896-2.974,4.245c0,2.327,1.034,4.115,2.93,4.115c1.616,0,2.672-1.422,2.672-3.081V71.694z"/>
	<path fill="#FFFFFF" d="M649.257,66.89c-0.064,0.84-0.107,1.832-0.107,3.426v6.765c0,2.37-0.194,6.744-5.817,6.744
		c-1.379,0-2.822-0.301-3.749-0.862l0.561-1.939c0.732,0.431,1.874,0.84,3.21,0.84c1.939,0,3.318-1.077,3.318-3.771v-1.142h-0.043
		c-0.604,1.013-1.767,1.746-3.297,1.746c-2.801,0-4.719-2.478-4.719-5.796c0-4.029,2.436-6.27,5.021-6.27
		c1.767,0,2.758,0.905,3.253,1.853h0.044l0.107-1.594H649.257z M646.65,71.479c0-1.573-1.034-2.866-2.564-2.866
		c-1.724,0-2.93,1.638-2.93,4.18c0,2.327,1.056,3.986,2.908,3.986c1.293,0,2.586-0.991,2.586-2.974V71.479z"/>
	<path fill="#FFFFFF" d="M658.305,69.087c-0.216-0.043-0.452-0.065-0.732-0.065c-1.681,0-2.736,1.379-2.736,3.447v6.292h-2.499
		v-8.252c0-1.379-0.021-2.521-0.087-3.62h2.177l0.086,2.176h0.086c0.539-1.508,1.788-2.435,3.081-2.435
		c0.237,0,0.409,0.021,0.625,0.064V69.087z"/>
	<path fill="#FFFFFF" d="M668.926,78.287c-0.841,0.388-2.154,0.711-3.771,0.711c-3.577,0-5.646-2.392-5.646-6.011
		c0-3.534,1.982-6.356,5.344-6.356c3.34,0,4.676,2.779,4.676,5.709c0,0.409-0.021,0.754-0.065,1.056h-7.54
		c0.064,2.671,1.723,3.684,3.598,3.684c1.314,0,2.219-0.237,2.995-0.56L668.926,78.287z M667.159,71.608
		c0.021-1.422-0.561-3.189-2.478-3.189c-1.832,0-2.607,1.81-2.736,3.189H667.159z"/>
	<path fill="#FFFFFF" d="M680.257,75.939c0,1.012,0.021,2.046,0.172,2.822h-2.262l-0.173-1.379h-0.064
		c-0.668,0.926-1.831,1.616-3.318,1.616c-2.219,0-3.49-1.637-3.49-3.469c0-2.952,2.564-4.417,6.637-4.417c0-0.883,0-2.65-2.392-2.65
		c-1.056,0-2.134,0.323-2.888,0.819l-0.517-1.659c0.84-0.539,2.24-0.991,3.835-0.991c3.49,0,4.46,2.305,4.46,4.826V75.939z
		 M677.822,72.793c-1.961,0-4.224,0.366-4.224,2.478c0,1.314,0.819,1.896,1.745,1.896c1.357,0,2.479-1.034,2.479-2.413V72.793z"/>
	<path fill="#FFFFFF" d="M683.896,64.735l2.478-0.776v2.93h2.822v1.875h-2.822v6.011c0,1.465,0.453,2.176,1.509,2.176
		c0.495,0,0.797-0.064,1.099-0.15l0.086,1.917c-0.431,0.172-1.099,0.28-1.939,0.28c-0.99,0-1.831-0.323-2.348-0.905
		c-0.604-0.646-0.884-1.637-0.884-3.188v-6.141h-1.681V66.89h1.681V64.735z"/>
	<path fill="#FFFFFF" d="M696.671,64.735l2.478-0.776v2.93h2.822v1.875h-2.822v6.011c0,1.465,0.453,2.176,1.509,2.176
		c0.495,0,0.797-0.064,1.099-0.15l0.086,1.917c-0.431,0.172-1.099,0.28-1.939,0.28c-0.99,0-1.831-0.323-2.348-0.905
		c-0.604-0.646-0.884-1.637-0.884-3.188v-6.141h-1.681V66.89h1.681V64.735z"/>
	<path fill="#FFFFFF" d="M712.808,78.287c-0.841,0.388-2.154,0.711-3.771,0.711c-3.576,0-5.645-2.392-5.645-6.011
		c0-3.534,1.981-6.356,5.343-6.356c3.34,0,4.676,2.779,4.676,5.709c0,0.409-0.022,0.754-0.065,1.056h-7.541
		c0.065,2.671,1.725,3.684,3.599,3.684c1.314,0,2.219-0.237,2.995-0.56L712.808,78.287z M711.041,71.608
		c0.021-1.422-0.561-3.189-2.479-3.189c-1.831,0-2.606,1.81-2.735,3.189H711.041z"/>
	<path fill="#FFFFFF" d="M725.625,78.761h-2.499v-6.959c0-1.681-0.561-3.103-2.263-3.103c-1.228,0-2.542,1.012-2.542,2.909v7.153
		h-2.499v-8.532c0-1.314-0.043-2.327-0.087-3.34h2.177l0.129,1.767h0.064c0.561-1.013,1.811-2.025,3.599-2.025
		c1.853,0,3.921,1.207,3.921,4.869V78.761z"/>
	<path fill="#FFFFFF" d="M734.673,69.13c-0.475-0.302-1.293-0.668-2.263-0.668c-1.12,0-1.724,0.646-1.724,1.444
		c0,0.818,0.539,1.228,1.982,1.853c1.961,0.797,2.995,1.875,2.995,3.598c0,2.284-1.745,3.641-4.438,3.641
		c-1.25,0-2.435-0.323-3.232-0.797l0.561-1.853c0.604,0.366,1.702,0.797,2.715,0.797c1.336,0,1.982-0.646,1.982-1.551
		c0-0.905-0.496-1.401-1.918-2.004c-2.111-0.84-3.038-2.025-3.038-3.404c0-1.982,1.616-3.555,4.115-3.555
		c1.164,0,2.176,0.323,2.822,0.689L734.673,69.13z"/>
	<path fill="#FFFFFF" d="M739.347,65.059c-0.861,0-1.443-0.646-1.443-1.444c0-0.84,0.604-1.465,1.465-1.465
		c0.862,0,1.444,0.625,1.444,1.465C740.813,64.412,740.252,65.059,739.347,65.059z M740.597,78.761h-2.499V66.868h2.499V78.761z"/>
	<path fill="#FFFFFF" d="M746.306,78.761h-2.499V61.482h2.499V78.761z"/>
	<path fill="#FFFFFF" d="M758.177,78.287c-0.841,0.388-2.154,0.711-3.771,0.711c-3.576,0-5.645-2.392-5.645-6.011
		c0-3.534,1.981-6.356,5.343-6.356c3.34,0,4.676,2.779,4.676,5.709c0,0.409-0.022,0.754-0.065,1.056h-7.541
		c0.065,2.671,1.725,3.684,3.599,3.684c1.314,0,2.219-0.237,2.995-0.56L758.177,78.287z M756.41,71.608
		c0.021-1.422-0.561-3.189-2.479-3.189c-1.831,0-2.606,1.81-2.735,3.189H756.41z"/>
	<path fill="#FFFFFF" d="M518.623,98.751c-0.475-0.302-1.293-0.668-2.263-0.668c-1.12,0-1.724,0.646-1.724,1.444
		c0,0.818,0.539,1.228,1.982,1.853c1.961,0.797,2.995,1.875,2.995,3.598c0,2.284-1.745,3.641-4.438,3.641
		c-1.25,0-2.435-0.323-3.232-0.797l0.561-1.853c0.604,0.366,1.702,0.797,2.715,0.797c1.336,0,1.982-0.646,1.982-1.551
		c0-0.905-0.496-1.401-1.918-2.004c-2.111-0.84-3.038-2.025-3.038-3.404c0-1.982,1.616-3.555,4.115-3.555
		c1.164,0,2.177,0.323,2.822,0.689L518.623,98.751z"/>
	<path fill="#FFFFFF" d="M522.543,94.356l2.478-0.776v2.93h2.822v1.875h-2.822v6.011c0,1.465,0.453,2.176,1.509,2.176
		c0.495,0,0.797-0.064,1.099-0.15l0.086,1.917c-0.431,0.172-1.099,0.28-1.939,0.28c-0.99,0-1.831-0.323-2.348-0.905
		c-0.604-0.646-0.884-1.637-0.884-3.188v-6.141h-1.681v-1.875h1.681V94.356z"/>
	<path fill="#FFFFFF" d="M535.965,98.708c-0.216-0.043-0.452-0.065-0.732-0.065c-1.681,0-2.736,1.379-2.736,3.447v6.292h-2.499
		v-8.252c0-1.379-0.021-2.521-0.087-3.62h2.177l0.086,2.176h0.086c0.539-1.508,1.788-2.435,3.081-2.435
		c0.237,0,0.409,0.021,0.625,0.064V98.708z"/>
	<path fill="#FFFFFF" d="M546.585,107.908c-0.841,0.388-2.154,0.711-3.771,0.711c-3.576,0-5.645-2.392-5.645-6.011
		c0-3.534,1.981-6.356,5.343-6.356c3.34,0,4.676,2.779,4.676,5.709c0,0.409-0.022,0.754-0.065,1.056h-7.541
		c0.065,2.671,1.725,3.684,3.599,3.684c1.314,0,2.219-0.237,2.995-0.56L546.585,107.908z M544.818,101.229
		c0.021-1.422-0.561-3.189-2.479-3.189c-1.831,0-2.606,1.81-2.735,3.189H544.818z"/>
	<path fill="#FFFFFF" d="M559.403,108.382h-2.499v-6.959c0-1.681-0.561-3.103-2.263-3.103c-1.228,0-2.542,1.012-2.542,2.909v7.153
		h-2.499v-8.532c0-1.314-0.044-2.327-0.087-3.34h2.177l0.129,1.767h0.064c0.561-1.013,1.81-2.025,3.599-2.025
		c1.853,0,3.921,1.207,3.921,4.869V108.382z"/>
	<path fill="#FFFFFF" d="M572.458,96.511c-0.064,0.84-0.107,1.832-0.107,3.426v6.765c0,2.37-0.194,6.744-5.817,6.744
		c-1.379,0-2.822-0.301-3.749-0.862l0.561-1.939c0.732,0.431,1.874,0.84,3.21,0.84c1.939,0,3.318-1.077,3.318-3.771v-1.142h-0.043
		c-0.604,1.013-1.767,1.746-3.297,1.746c-2.801,0-4.719-2.478-4.719-5.796c0-4.029,2.436-6.27,5.021-6.27
		c1.767,0,2.758,0.905,3.253,1.853h0.044l0.107-1.594H572.458z M569.852,101.1c0-1.573-1.034-2.866-2.564-2.866
		c-1.724,0-2.93,1.638-2.93,4.18c0,2.327,1.056,3.986,2.908,3.986c1.293,0,2.586-0.991,2.586-2.974V101.1z"/>
	<path fill="#FFFFFF" d="M576.033,94.356l2.478-0.776v2.93h2.822v1.875h-2.822v6.011c0,1.465,0.453,2.176,1.509,2.176
		c0.495,0,0.797-0.064,1.099-0.15l0.086,1.917c-0.431,0.172-1.099,0.28-1.939,0.28c-0.99,0-1.831-0.323-2.348-0.905
		c-0.604-0.646-0.884-1.637-0.884-3.188v-6.141h-1.681v-1.875h1.681V94.356z"/>
	<path fill="#FFFFFF" d="M593.29,108.382h-2.499v-6.938c0-1.702-0.582-3.124-2.263-3.124c-1.228,0-2.542,1.012-2.542,2.801v7.261
		h-2.499V91.103h2.499v7.024h0.043c0.775-1.229,2.111-1.875,3.404-1.875c1.788,0,3.856,1.207,3.856,4.955V108.382z"/>
	<path fill="#FFFFFF" d="M596.089,106.917c0-0.991,0.689-1.724,1.615-1.724c0.948,0,1.595,0.711,1.595,1.724
		c0,0.991-0.625,1.702-1.616,1.702S596.089,107.865,596.089,106.917z"/>
</g>
<polyline fill="none" stroke="#FFFFFF" stroke-width="1.1968" stroke-miterlimit="10" points="300.354,72.672 225.022,14.84 
	20.324,14.84 "/>
<g>
	<path fill="#FFFFFF" d="M22.048,32.632c0.991-0.172,2.305-0.323,4.007-0.323c2.025,0,3.555,0.431,4.546,1.314
		c0.926,0.797,1.486,2.047,1.486,3.555c0,4.007-3.188,5.386-6.162,5.386c-0.518,0-0.991-0.021-1.401-0.107v6.463h-2.478V32.632z
		 M24.526,40.453c0.367,0.107,0.819,0.129,1.401,0.129c2.284,0,3.663-1.185,3.663-3.296c0-2.004-1.379-3.017-3.383-3.017
		c-0.775,0-1.357,0.086-1.681,0.151V40.453z"/>
	<path fill="#FFFFFF" d="M34.651,48.92V32.438h8.575v2.09H37.15v5.084h5.645v2.068H37.15v7.239H34.651z"/>
	<path fill="#FFFFFF" d="M57.983,48.92h-2.628l-1.486-4.848h-5.042l-1.422,4.848H44.84l5.042-16.482h3.06L57.983,48.92z
		 M53.458,42.155l-1.292-4.309c-0.302-1.078-0.582-2.241-0.819-3.253h-0.043c-0.237,1.013-0.496,2.219-0.776,3.232l-1.314,4.331
		H53.458z"/>
	<path fill="#FFFFFF" d="M81.25,48.92h-2.457v-6.787c0-1.982-0.646-3.297-2.154-3.297c-1.142,0-2.305,1.034-2.305,2.758v7.326
		h-2.457v-7.153c0-1.659-0.625-2.931-2.068-2.931c-1.12,0-2.392,1.013-2.392,2.887v7.196h-2.456v-8.532
		c0-1.336-0.043-2.327-0.086-3.34h2.154l0.129,1.745h0.064c0.582-0.991,1.659-2.003,3.469-2.003c1.508,0,2.65,0.84,3.146,2.176
		h0.043c0.797-1.314,1.96-2.176,3.663-2.176c1.767,0,3.706,1.207,3.706,4.955V48.92z"/>
	<path fill="#FFFFFF" d="M92.688,46.098c0,1.012,0.022,2.046,0.173,2.822h-2.263l-0.172-1.379h-0.064
		c-0.668,0.926-1.832,1.616-3.318,1.616c-2.219,0-3.49-1.637-3.49-3.469c0-2.952,2.563-4.417,6.636-4.417c0-0.883,0-2.65-2.392-2.65
		c-1.056,0-2.133,0.323-2.887,0.819l-0.517-1.659c0.84-0.539,2.241-0.991,3.835-0.991c3.49,0,4.459,2.305,4.459,4.826V46.098z
		 M90.253,42.952c-1.96,0-4.223,0.366-4.223,2.478c0,1.314,0.819,1.896,1.745,1.896c1.357,0,2.478-1.034,2.478-2.413V42.952z"/>
	<path fill="#FFFFFF" d="M96.327,34.895l2.478-0.776v2.93h2.823v1.875h-2.823v6.011c0,1.465,0.453,2.176,1.508,2.176
		c0.496,0,0.797-0.064,1.099-0.15l0.086,1.917c-0.431,0.172-1.099,0.28-1.939,0.28c-0.991,0-1.832-0.323-2.349-0.905
		c-0.603-0.646-0.883-1.637-0.883-3.188v-6.141h-1.681v-1.875h1.681V34.895z"/>
	<path fill="#FFFFFF" d="M112.464,48.446c-0.84,0.388-2.155,0.711-3.771,0.711c-3.577,0-5.645-2.392-5.645-6.011
		c0-3.534,1.982-6.356,5.343-6.356c3.339,0,4.675,2.779,4.675,5.709c0,0.409-0.021,0.754-0.064,1.056h-7.541
		c0.064,2.671,1.724,3.684,3.598,3.684c1.314,0,2.219-0.237,2.995-0.56L112.464,48.446z M110.697,41.768
		c0.022-1.422-0.56-3.189-2.478-3.189c-1.832,0-2.607,1.81-2.736,3.189H110.697z"/>
	<path fill="#FFFFFF" d="M121.447,39.247c-0.215-0.043-0.453-0.065-0.732-0.065c-1.681,0-2.736,1.379-2.736,3.447v6.292h-2.5v-8.252
		c0-1.379-0.021-2.521-0.086-3.62h2.176l0.086,2.176h0.086c0.539-1.508,1.789-2.435,3.081-2.435c0.237,0,0.41,0.021,0.625,0.064
		V39.247z"/>
	<path fill="#FFFFFF" d="M124.634,35.218c-0.861,0-1.443-0.646-1.443-1.444c0-0.84,0.604-1.465,1.465-1.465s1.443,0.625,1.443,1.465
		C126.099,34.571,125.539,35.218,124.634,35.218z M125.884,48.92h-2.5V37.027h2.5V48.92z"/>
	<path fill="#FFFFFF" d="M137.41,46.098c0,1.012,0.021,2.046,0.172,2.822h-2.262l-0.172-1.379h-0.064
		c-0.668,0.926-1.832,1.616-3.318,1.616c-2.219,0-3.491-1.637-3.491-3.469c0-2.952,2.564-4.417,6.636-4.417
		c0-0.883,0-2.65-2.392-2.65c-1.056,0-2.133,0.323-2.887,0.819l-0.517-1.659c0.84-0.539,2.241-0.991,3.835-0.991
		c3.49,0,4.46,2.305,4.46,4.826V46.098z M134.975,42.952c-1.96,0-4.223,0.366-4.223,2.478c0,1.314,0.819,1.896,1.745,1.896
		c1.357,0,2.478-1.034,2.478-2.413V42.952z"/>
	<path fill="#FFFFFF" d="M143.053,48.92h-2.5V31.641h2.5V48.92z"/>
	<path fill="#FFFFFF" d="M166.385,37.049l-3.598,11.872h-2.262l-1.53-5.257c-0.366-1.25-0.625-2.391-0.883-3.792h-0.064
		c-0.237,1.422-0.56,2.629-0.927,3.814l-1.616,5.235h-2.262l-3.404-11.872h2.585l1.314,5.688c0.28,1.271,0.56,2.542,0.775,3.792
		h0.043c0.237-1.228,0.604-2.542,0.948-3.771l1.638-5.709h2.046l1.551,5.58c0.366,1.379,0.689,2.65,0.927,3.9h0.064
		c0.194-1.228,0.474-2.499,0.797-3.878l1.379-5.602H166.385z"/>
	<path fill="#FFFFFF" d="M169.55,35.218c-0.861,0-1.443-0.646-1.443-1.444c0-0.84,0.604-1.465,1.465-1.465s1.443,0.625,1.443,1.465
		C171.015,34.571,170.455,35.218,169.55,35.218z M170.8,48.92h-2.5V37.027h2.5V48.92z"/>
	<path fill="#FFFFFF" d="M174.505,34.895l2.478-0.776v2.93h2.823v1.875h-2.823v6.011c0,1.465,0.453,2.176,1.508,2.176
		c0.496,0,0.797-0.064,1.099-0.15l0.086,1.917c-0.431,0.172-1.099,0.28-1.939,0.28c-0.991,0-1.832-0.323-2.349-0.905
		c-0.603-0.646-0.883-1.637-0.883-3.188v-6.141h-1.681v-1.875h1.681V34.895z"/>
	<path fill="#FFFFFF" d="M191.762,48.92h-2.499v-6.938c0-1.702-0.582-3.124-2.263-3.124c-1.228,0-2.542,1.012-2.542,2.801v7.261
		h-2.5V31.641h2.5v7.024h0.043c0.775-1.229,2.111-1.875,3.404-1.875c1.788,0,3.856,1.207,3.856,4.955V48.92z"/>
	<path fill="#FFFFFF" d="M31.722,78.542h-2.499v-6.938c0-1.702-0.582-3.124-2.262-3.124c-1.229,0-2.542,1.013-2.542,2.801v7.261
		h-2.5V61.263h2.5v7.023h0.043c0.776-1.228,2.111-1.874,3.404-1.874c1.788,0,3.856,1.207,3.856,4.955V78.542z"/>
	<path fill="#FFFFFF" d="M36.116,64.839c-0.862,0-1.444-0.646-1.444-1.443c0-0.84,0.604-1.465,1.465-1.465s1.443,0.625,1.443,1.465
		C37.581,64.193,37.021,64.839,36.116,64.839z M37.366,78.542h-2.5V66.649h2.5V78.542z"/>
	<path fill="#FFFFFF" d="M50.486,66.67c-0.065,0.84-0.108,1.832-0.108,3.426v6.765c0,2.37-0.194,6.744-5.817,6.744
		c-1.379,0-2.822-0.301-3.749-0.862l0.56-1.939c0.732,0.431,1.875,0.84,3.21,0.84c1.939,0,3.318-1.077,3.318-3.771v-1.142h-0.043
		c-0.604,1.012-1.767,1.745-3.297,1.745c-2.801,0-4.718-2.478-4.718-5.796c0-4.029,2.435-6.27,5.02-6.27
		c1.767,0,2.758,0.905,3.253,1.853h0.043l0.108-1.594H50.486z M47.879,71.26c0-1.573-1.034-2.866-2.564-2.866
		c-1.724,0-2.93,1.638-2.93,4.18c0,2.327,1.056,3.986,2.909,3.986c1.292,0,2.585-0.991,2.585-2.973V71.26z"/>
	<path fill="#FFFFFF" d="M63.368,78.542h-2.499v-6.938c0-1.702-0.582-3.124-2.263-3.124c-1.228,0-2.542,1.013-2.542,2.801v7.261
		h-2.5V61.263h2.5v7.023h0.043c0.775-1.228,2.111-1.874,3.404-1.874c1.788,0,3.856,1.207,3.856,4.955V78.542z"/>
	<path fill="#FFFFFF" d="M79.332,78.176c-0.561,0.258-1.681,0.603-3.06,0.603c-3.426,0-5.667-2.348-5.667-6.054
		c0-3.598,2.327-6.313,6.141-6.313c1.142,0,2.133,0.28,2.65,0.539L78.9,68.868c-0.431-0.215-1.12-0.474-2.133-0.474
		c-2.327,0-3.62,1.896-3.62,4.223c0,2.607,1.53,4.158,3.598,4.158c0.991,0,1.68-0.237,2.241-0.474L79.332,78.176z"/>
	<path fill="#FFFFFF" d="M91.805,72.509c0,4.438-2.887,6.27-5.559,6.27c-3.081,0-5.429-2.262-5.429-6.097
		c0-4.007,2.456-6.27,5.602-6.27C89.671,66.412,91.805,68.868,91.805,72.509z M86.332,68.286c-2.133,0-2.952,2.284-2.952,4.331
		c0,2.327,1.099,4.287,2.93,4.287c1.81,0,2.93-1.96,2.93-4.331C89.241,70.613,88.422,68.286,86.332,68.286z"/>
	<path fill="#FFFFFF" d="M100.249,68.868c-0.215-0.043-0.453-0.064-0.732-0.064c-1.681,0-2.736,1.379-2.736,3.447v6.291h-2.5V70.29
		c0-1.379-0.021-2.521-0.086-3.62h2.176l0.086,2.176h0.086c0.539-1.508,1.789-2.435,3.081-2.435c0.237,0,0.41,0.021,0.625,0.064
		V68.868z"/>
	<path fill="#FFFFFF" d="M108.155,68.868c-0.215-0.043-0.453-0.064-0.732-0.064c-1.681,0-2.736,1.379-2.736,3.447v6.291h-2.5V70.29
		c0-1.379-0.021-2.521-0.086-3.62h2.176l0.086,2.176h0.086c0.539-1.508,1.789-2.435,3.081-2.435c0.237,0,0.41,0.021,0.625,0.064
		V68.868z"/>
	<path fill="#FFFFFF" d="M120.327,72.509c0,4.438-2.887,6.27-5.559,6.27c-3.081,0-5.429-2.262-5.429-6.097
		c0-4.007,2.456-6.27,5.602-6.27C118.194,66.412,120.327,68.868,120.327,72.509z M114.854,68.286c-2.133,0-2.952,2.284-2.952,4.331
		c0,2.327,1.099,4.287,2.93,4.287c1.81,0,2.93-1.96,2.93-4.331C117.763,70.613,116.944,68.286,114.854,68.286z"/>
	<path fill="#FFFFFF" d="M128.706,68.911c-0.474-0.302-1.292-0.668-2.262-0.668c-1.12,0-1.724,0.646-1.724,1.444
		c0,0.818,0.539,1.228,1.982,1.853c1.96,0.797,2.995,1.875,2.995,3.598c0,2.284-1.745,3.641-4.438,3.641
		c-1.25,0-2.435-0.323-3.231-0.797l0.56-1.853c0.603,0.366,1.702,0.797,2.715,0.797c1.335,0,1.982-0.646,1.982-1.551
		c0-0.905-0.496-1.4-1.917-2.004c-2.111-0.84-3.038-2.025-3.038-3.404c0-1.982,1.616-3.555,4.115-3.555
		c1.164,0,2.176,0.323,2.823,0.689L128.706,68.911z"/>
	<path fill="#FFFFFF" d="M133.381,64.839c-0.862,0-1.444-0.646-1.444-1.443c0-0.84,0.604-1.465,1.465-1.465s1.443,0.625,1.443,1.465
		C134.846,64.193,134.286,64.839,133.381,64.839z M134.63,78.542h-2.5V66.649h2.5V78.542z"/>
	<path fill="#FFFFFF" d="M148.074,72.509c0,4.438-2.887,6.27-5.559,6.27c-3.081,0-5.429-2.262-5.429-6.097
		c0-4.007,2.456-6.27,5.602-6.27C145.94,66.412,148.074,68.868,148.074,72.509z M142.601,68.286c-2.133,0-2.952,2.284-2.952,4.331
		c0,2.327,1.099,4.287,2.93,4.287c1.81,0,2.93-1.96,2.93-4.331C145.51,70.613,144.691,68.286,142.601,68.286z"/>
	<path fill="#FFFFFF" d="M160.353,78.542h-2.499v-6.959c0-1.681-0.561-3.103-2.262-3.103c-1.229,0-2.542,1.013-2.542,2.908v7.153
		h-2.5V70.01c0-1.314-0.043-2.327-0.086-3.339h2.176l0.129,1.767h0.065c0.56-1.012,1.81-2.025,3.598-2.025
		c1.853,0,3.921,1.207,3.921,4.869V78.542z"/>
	<path fill="#FFFFFF" d="M166.471,75.203c-0.625,2.154-1.702,4.826-2.521,6.183l-1.724,0.173c0.603-1.638,1.25-4.223,1.53-6.119
		L166.471,75.203z"/>
	<path fill="#FFFFFF" d="M22.415,94.137l2.478-0.776v2.93h2.822v1.875h-2.822v6.011c0,1.465,0.452,2.176,1.508,2.176
		c0.496,0,0.797-0.065,1.099-0.151l0.086,1.917c-0.431,0.172-1.099,0.28-1.939,0.28c-0.991,0-1.832-0.323-2.349-0.905
		c-0.603-0.646-0.883-1.637-0.883-3.188v-6.141h-1.681v-1.875h1.681V94.137z"/>
	<path fill="#FFFFFF" d="M38.551,107.689c-0.84,0.388-2.155,0.711-3.771,0.711c-3.577,0-5.645-2.391-5.645-6.011
		c0-3.533,1.982-6.355,5.343-6.355c3.339,0,4.675,2.779,4.675,5.709c0,0.409-0.021,0.754-0.064,1.056h-7.541
		c0.064,2.671,1.724,3.684,3.598,3.684c1.314,0,2.219-0.237,2.995-0.56L38.551,107.689z M36.784,101.01
		c0.021-1.422-0.56-3.188-2.478-3.188c-1.832,0-2.607,1.81-2.736,3.188H36.784z"/>
	<path fill="#FFFFFF" d="M57.854,108.163h-2.456v-6.787c0-1.982-0.646-3.296-2.155-3.296c-1.142,0-2.305,1.034-2.305,2.758v7.325
		h-2.457v-7.153c0-1.659-0.625-2.93-2.068-2.93c-1.12,0-2.391,1.012-2.391,2.887v7.196h-2.457v-8.532
		c0-1.335-0.043-2.327-0.086-3.339h2.154l0.129,1.745h0.064c0.582-0.991,1.659-2.003,3.469-2.003c1.508,0,2.65,0.84,3.146,2.176
		h0.043c0.797-1.314,1.96-2.176,3.663-2.176c1.767,0,3.706,1.207,3.706,4.955V108.163z"/>
	<path fill="#FFFFFF" d="M63.26,98.102c0.818-1.336,2.111-2.068,3.77-2.068c2.672,0,4.675,2.37,4.675,6.054
		c0,4.352-2.521,6.313-5.02,6.313c-1.422,0-2.585-0.667-3.167-1.637h-0.043v6.205h-2.5v-12.841c0-1.551-0.043-2.779-0.086-3.835
		h2.197l0.129,1.81H63.26z M63.475,103.38c0,2.133,1.465,3.038,2.693,3.038c1.939,0,2.995-1.788,2.995-4.245
		c0-2.262-1.013-4.137-2.93-4.137c-1.487,0-2.758,1.4-2.758,3.146V103.38z"/>
	<path fill="#FFFFFF" d="M82.843,107.689c-0.84,0.388-2.155,0.711-3.771,0.711c-3.577,0-5.645-2.391-5.645-6.011
		c0-3.533,1.982-6.355,5.343-6.355c3.339,0,4.675,2.779,4.675,5.709c0,0.409-0.021,0.754-0.064,1.056H75.84
		c0.064,2.671,1.724,3.684,3.598,3.684c1.314,0,2.219-0.237,2.995-0.56L82.843,107.689z M81.076,101.01
		c0.022-1.422-0.56-3.188-2.478-3.188c-1.832,0-2.607,1.81-2.736,3.188H81.076z"/>
	<path fill="#FFFFFF" d="M91.826,98.489c-0.215-0.043-0.453-0.064-0.732-0.064c-1.681,0-2.736,1.379-2.736,3.447v6.291h-2.5v-8.252
		c0-1.379-0.021-2.521-0.086-3.62h2.176l0.086,2.176h0.086c0.539-1.508,1.789-2.435,3.081-2.435c0.237,0,0.41,0.021,0.625,0.064
		V98.489z"/>
	<path fill="#FFFFFF" d="M102.08,105.341c0,1.013,0.021,2.047,0.172,2.822H99.99l-0.172-1.379h-0.064
		c-0.668,0.926-1.832,1.616-3.318,1.616c-2.219,0-3.491-1.637-3.491-3.469c0-2.952,2.564-4.417,6.636-4.417
		c0-0.884,0-2.65-2.392-2.65c-1.056,0-2.133,0.323-2.887,0.819l-0.517-1.659c0.84-0.539,2.241-0.991,3.835-0.991
		c3.49,0,4.46,2.305,4.46,4.826V105.341z M99.645,102.195c-1.96,0-4.223,0.367-4.223,2.478c0,1.314,0.819,1.896,1.745,1.896
		c1.357,0,2.478-1.034,2.478-2.413V102.195z"/>
	<path fill="#FFFFFF" d="M105.72,94.137l2.478-0.776v2.93h2.823v1.875h-2.823v6.011c0,1.465,0.453,2.176,1.508,2.176
		c0.496,0,0.797-0.065,1.099-0.151l0.086,1.917c-0.431,0.172-1.099,0.28-1.939,0.28c-0.991,0-1.832-0.323-2.349-0.905
		c-0.603-0.646-0.883-1.637-0.883-3.188v-6.141h-1.681v-1.875h1.681V94.137z"/>
	<path fill="#FFFFFF" d="M122.825,104.759c0,1.336,0.065,2.456,0.108,3.404h-2.198l-0.129-1.724h-0.064
		c-0.496,0.819-1.659,1.96-3.577,1.96c-2.047,0-3.835-1.271-3.835-5.063V96.27h2.499v6.658c0,2.047,0.582,3.404,2.219,3.404
		c1.142,0,2.478-0.905,2.478-2.693v-7.347h2.499V104.759z"/>
	<path fill="#FFFFFF" d="M132.002,98.489c-0.215-0.043-0.453-0.064-0.732-0.064c-1.681,0-2.736,1.379-2.736,3.447v6.291h-2.5v-8.252
		c0-1.379-0.021-2.521-0.086-3.62h2.176l0.086,2.176h0.086c0.539-1.508,1.789-2.435,3.081-2.435c0.237,0,0.41,0.021,0.625,0.064
		V98.489z"/>
	<path fill="#FFFFFF" d="M142.623,107.689c-0.84,0.388-2.155,0.711-3.771,0.711c-3.577,0-5.645-2.391-5.645-6.011
		c0-3.533,1.982-6.355,5.343-6.355c3.339,0,4.675,2.779,4.675,5.709c0,0.409-0.021,0.754-0.064,1.056h-7.541
		c0.064,2.671,1.724,3.684,3.598,3.684c1.314,0,2.219-0.237,2.995-0.56L142.623,107.689z M140.856,101.01
		c0.022-1.422-0.56-3.188-2.478-3.188c-1.832,0-2.607,1.81-2.736,3.188H140.856z"/>
	<path fill="#FFFFFF" d="M148.61,104.824c-0.625,2.154-1.702,4.826-2.521,6.183l-1.724,0.173c0.603-1.638,1.25-4.223,1.53-6.119
		L148.61,104.824z"/>
	<path fill="#FFFFFF" d="M164.101,105.341c0,1.013,0.022,2.047,0.173,2.822h-2.263l-0.172-1.379h-0.064
		c-0.668,0.926-1.832,1.616-3.318,1.616c-2.219,0-3.49-1.637-3.49-3.469c0-2.952,2.563-4.417,6.636-4.417c0-0.884,0-2.65-2.392-2.65
		c-1.056,0-2.133,0.323-2.887,0.819l-0.517-1.659c0.84-0.539,2.241-0.991,3.835-0.991c3.49,0,4.459,2.305,4.459,4.826V105.341z
		 M161.666,102.195c-1.96,0-4.223,0.367-4.223,2.478c0,1.314,0.819,1.896,1.745,1.896c1.357,0,2.478-1.034,2.478-2.413V102.195z"/>
	<path fill="#FFFFFF" d="M177.048,108.163h-2.499v-6.959c0-1.681-0.561-3.103-2.263-3.103c-1.228,0-2.542,1.013-2.542,2.908v7.153
		h-2.5v-8.532c0-1.314-0.043-2.327-0.086-3.339h2.176l0.129,1.767h0.064c0.561-1.012,1.81-2.025,3.598-2.025
		c1.853,0,3.921,1.207,3.921,4.869V108.163z"/>
	<path fill="#FFFFFF" d="M190.103,104.996c0,1.077,0.043,2.348,0.086,3.167h-2.198l-0.129-1.853h-0.065
		c-0.625,1.207-1.917,2.09-3.598,2.09c-2.693,0-4.74-2.391-4.74-6.054c0-4.029,2.305-6.313,4.956-6.313
		c1.53,0,2.628,0.689,3.146,1.594h0.043v-6.744h2.5V104.996z M187.604,101.096c0-1.939-1.228-3.081-2.628-3.081
		c-1.917,0-2.973,1.896-2.973,4.245c0,2.327,1.034,4.115,2.93,4.115c1.616,0,2.671-1.422,2.671-3.081V101.096z"/>
	<path fill="#FFFFFF" d="M31.42,125.913l-4.266,11.872h-2.392l-4.158-11.872h2.693l1.939,6.313c0.323,1.034,0.582,2.025,0.797,3.016
		h0.064c0.216-0.991,0.496-1.96,0.797-2.995l1.917-6.334H31.42z"/>
	<path fill="#FFFFFF" d="M43.506,131.752c0,4.438-2.887,6.27-5.559,6.27c-3.081,0-5.429-2.262-5.429-6.097
		c0-4.007,2.456-6.27,5.602-6.27C41.373,125.655,43.506,128.111,43.506,131.752z M38.034,127.529c-2.133,0-2.952,2.284-2.952,4.331
		c0,2.327,1.099,4.288,2.93,4.288c1.81,0,2.93-1.961,2.93-4.331C40.942,129.856,40.124,127.529,38.034,127.529z"/>
	<path fill="#FFFFFF" d="M48.481,137.785h-2.5v-17.279h2.5V137.785z"/>
	<path fill="#FFFFFF" d="M52.165,123.759l2.478-0.776v2.93h2.822v1.875h-2.822v6.011c0,1.465,0.452,2.176,1.508,2.176
		c0.496,0,0.797-0.064,1.099-0.15l0.086,1.917c-0.431,0.172-1.099,0.28-1.939,0.28c-0.991,0-1.832-0.323-2.349-0.905
		c-0.603-0.646-0.883-1.637-0.883-3.188v-6.141h-1.681v-1.875h1.681V123.759z"/>
	<path fill="#FFFFFF" d="M67.935,134.962c0,1.012,0.022,2.046,0.173,2.822h-2.263l-0.172-1.379h-0.064
		c-0.668,0.926-1.832,1.616-3.318,1.616c-2.219,0-3.49-1.637-3.49-3.469c0-2.952,2.563-4.417,6.636-4.417c0-0.883,0-2.65-2.392-2.65
		c-1.056,0-2.133,0.323-2.887,0.819l-0.517-1.659c0.84-0.539,2.241-0.991,3.835-0.991c3.49,0,4.459,2.305,4.459,4.826V134.962z
		 M65.5,131.816c-1.96,0-4.223,0.366-4.223,2.478c0,1.314,0.819,1.896,1.745,1.896c1.357,0,2.478-1.034,2.478-2.413V131.816z"/>
	<path fill="#FFFFFF" d="M80.99,125.913c-0.065,0.84-0.108,1.832-0.108,3.426v6.765c0,2.37-0.194,6.744-5.817,6.744
		c-1.379,0-2.822-0.301-3.749-0.862l0.56-1.939c0.732,0.431,1.875,0.84,3.21,0.84c1.939,0,3.318-1.077,3.318-3.771v-1.142h-0.043
		c-0.603,1.013-1.767,1.746-3.296,1.746c-2.801,0-4.718-2.478-4.718-5.796c0-4.029,2.435-6.27,5.02-6.27
		c1.767,0,2.758,0.905,3.253,1.853h0.043l0.108-1.594H80.99z M78.383,130.502c0-1.573-1.034-2.866-2.564-2.866
		c-1.724,0-2.93,1.638-2.93,4.18c0,2.327,1.056,3.986,2.909,3.986c1.292,0,2.585-0.991,2.585-2.974V130.502z"/>
	<path fill="#FFFFFF" d="M92.752,137.311c-0.84,0.388-2.155,0.711-3.771,0.711c-3.577,0-5.645-2.392-5.645-6.011
		c0-3.534,1.982-6.356,5.343-6.356c3.339,0,4.675,2.779,4.675,5.709c0,0.409-0.021,0.754-0.064,1.056H85.75
		c0.064,2.671,1.724,3.684,3.598,3.684c1.314,0,2.219-0.237,2.995-0.56L92.752,137.311z M90.985,130.632
		c0.021-1.422-0.56-3.189-2.478-3.189c-1.832,0-2.607,1.81-2.736,3.189H90.985z"/>
	<path fill="#FFFFFF" d="M106.561,128.111c-0.215-0.043-0.453-0.065-0.732-0.065c-1.681,0-2.736,1.379-2.736,3.447v6.292h-2.5
		v-8.252c0-1.379-0.021-2.521-0.086-3.62h2.176l0.086,2.176h0.086c0.539-1.508,1.789-2.435,3.081-2.435
		c0.237,0,0.41,0.021,0.625,0.064V128.111z"/>
	<path fill="#FFFFFF" d="M117.182,137.311c-0.84,0.388-2.155,0.711-3.771,0.711c-3.577,0-5.645-2.392-5.645-6.011
		c0-3.534,1.982-6.356,5.343-6.356c3.339,0,4.675,2.779,4.675,5.709c0,0.409-0.021,0.754-0.064,1.056h-7.541
		c0.064,2.671,1.724,3.684,3.598,3.684c1.314,0,2.219-0.237,2.995-0.56L117.182,137.311z M115.415,130.632
		c0.022-1.422-0.56-3.189-2.478-3.189c-1.832,0-2.607,1.81-2.736,3.189H115.415z"/>
	<path fill="#FFFFFF" d="M126.1,128.154c-0.474-0.302-1.292-0.668-2.262-0.668c-1.12,0-1.724,0.646-1.724,1.444
		c0,0.818,0.539,1.228,1.982,1.853c1.96,0.797,2.995,1.875,2.995,3.598c0,2.284-1.745,3.641-4.438,3.641
		c-1.25,0-2.435-0.323-3.231-0.797l0.56-1.853c0.603,0.366,1.702,0.797,2.715,0.797c1.335,0,1.982-0.646,1.982-1.551
		c0-0.905-0.496-1.401-1.917-2.004c-2.111-0.84-3.038-2.025-3.038-3.404c0-1.982,1.616-3.555,4.115-3.555
		c1.164,0,2.176,0.323,2.823,0.689L126.1,128.154z"/>
	<path fill="#FFFFFF" d="M130.773,124.082c-0.861,0-1.443-0.646-1.443-1.444c0-0.84,0.604-1.465,1.465-1.465
		s1.443,0.625,1.443,1.465C132.239,123.436,131.679,124.082,130.773,124.082z M132.023,137.785h-2.5v-11.893h2.5V137.785z"/>
	<path fill="#FFFFFF" d="M141.137,128.154c-0.474-0.302-1.293-0.668-2.263-0.668c-1.12,0-1.724,0.646-1.724,1.444
		c0,0.818,0.539,1.228,1.982,1.853c1.96,0.797,2.995,1.875,2.995,3.598c0,2.284-1.745,3.641-4.438,3.641
		c-1.25,0-2.435-0.323-3.232-0.797l0.56-1.853c0.604,0.366,1.702,0.797,2.715,0.797c1.336,0,1.982-0.646,1.982-1.551
		c0-0.905-0.496-1.401-1.917-2.004c-2.111-0.84-3.038-2.025-3.038-3.404c0-1.982,1.616-3.555,4.115-3.555
		c1.164,0,2.176,0.323,2.823,0.689L141.137,128.154z"/>
	<path fill="#FFFFFF" d="M145.057,123.759l2.478-0.776v2.93h2.823v1.875h-2.823v6.011c0,1.465,0.453,2.176,1.508,2.176
		c0.496,0,0.797-0.064,1.099-0.15l0.086,1.917c-0.431,0.172-1.099,0.28-1.939,0.28c-0.991,0-1.832-0.323-2.349-0.905
		c-0.603-0.646-0.883-1.637-0.883-3.188v-6.141h-1.681v-1.875h1.681V123.759z"/>
	<path fill="#FFFFFF" d="M160.826,134.962c0,1.012,0.022,2.046,0.173,2.822h-2.263l-0.172-1.379H158.5
		c-0.668,0.926-1.832,1.616-3.318,1.616c-2.219,0-3.49-1.637-3.49-3.469c0-2.952,2.563-4.417,6.636-4.417c0-0.883,0-2.65-2.392-2.65
		c-1.056,0-2.133,0.323-2.887,0.819l-0.517-1.659c0.84-0.539,2.241-0.991,3.835-0.991c3.49,0,4.459,2.305,4.459,4.826V134.962z
		 M158.392,131.816c-1.96,0-4.223,0.366-4.223,2.478c0,1.314,0.819,1.896,1.745,1.896c1.357,0,2.478-1.034,2.478-2.413V131.816z"/>
	<path fill="#FFFFFF" d="M173.774,137.785h-2.499v-6.959c0-1.681-0.561-3.103-2.262-3.103c-1.229,0-2.542,1.012-2.542,2.909v7.153
		h-2.5v-8.532c0-1.314-0.043-2.327-0.086-3.34h2.176l0.129,1.767h0.065c0.56-1.013,1.81-2.025,3.598-2.025
		c1.853,0,3.921,1.207,3.921,4.869V137.785z"/>
	<path fill="#FFFFFF" d="M184.912,137.418c-0.561,0.258-1.681,0.603-3.06,0.603c-3.426,0-5.667-2.348-5.667-6.054
		c0-3.598,2.327-6.313,6.141-6.313c1.142,0,2.133,0.28,2.65,0.539l-0.496,1.917c-0.431-0.215-1.12-0.474-2.133-0.474
		c-2.327,0-3.62,1.896-3.62,4.223c0,2.607,1.53,4.158,3.598,4.158c0.991,0,1.68-0.237,2.241-0.474L184.912,137.418z"/>
	<path fill="#FFFFFF" d="M195.833,137.311c-0.84,0.388-2.155,0.711-3.771,0.711c-3.577,0-5.645-2.392-5.645-6.011
		c0-3.534,1.982-6.356,5.343-6.356c3.339,0,4.675,2.779,4.675,5.709c0,0.409-0.021,0.754-0.064,1.056h-7.541
		c0.064,2.671,1.724,3.684,3.598,3.684c1.314,0,2.219-0.237,2.995-0.56L195.833,137.311z M194.066,130.632
		c0.021-1.422-0.56-3.189-2.478-3.189c-1.832,0-2.607,1.81-2.736,3.189H194.066z"/>
	<path fill="#FFFFFF" d="M198.503,136.319c0-0.991,0.689-1.724,1.616-1.724c0.948,0,1.594,0.711,1.594,1.724
		c0,0.991-0.625,1.702-1.616,1.702C199.107,138.021,198.503,137.268,198.503,136.319z"/>
</g>
<polyline fill="none" stroke="#FFFFFF" stroke-width="1.1968" stroke-miterlimit="10" points="414.861,68.89 492.954,18.622 
	784.68,18.622 "/>
<line fill="none" stroke="#FFFFFF" stroke-width="1.1968" stroke-miterlimit="10" x1="184.788" y1="14.84" x2="300.354" y2="110.774"/>
<line fill="none" stroke="#FFFFFF" stroke-width="1.1968" stroke-miterlimit="10" x1="555.186" y1="164.4" x2="436" y2="112.667"/>
</svg>
