<?xml version="1.0" encoding="utf-8"?>
<!-- Generator: Adobe Illustrator 16.0.0, SVG Export Plug-In . SVG Version: 6.00 Build 0)  -->
<!DOCTYPE svg PUBLIC "-//W3C//DTD SVG 1.1//EN" "http://www.w3.org/Graphics/SVG/1.1/DTD/svg11.dtd">
<svg version="1.1" id="圖層_1" xmlns="http://www.w3.org/2000/svg" xmlns:xlink="http://www.w3.org/1999/xlink" x="0px" y="0px"
	 width="800px" height="236.422px" viewBox="0 0 800 236.422" enable-background="new 0 0 800 236.422" xml:space="preserve">
<g>
	<g>
		<g>
			<path fill="#231815" stroke="#FFFFFF" stroke-width="2.3936" stroke-miterlimit="10" d="M464.662,136.919
				c0,34.231-27.751,61.979-61.979,61.979h-95.407c-34.23,0-61.98-27.748-61.98-61.979v-6.046c0-34.231,27.75-61.982,61.98-61.982
				h98.765c34.231,0,58.622,27.751,58.622,61.982L464.662,136.919L464.662,136.919z"/>
			<path fill="#231815" stroke="#FFFFFF" stroke-width="2.3936" stroke-miterlimit="10" d="M454.963,136.509
				c0,29.586-23.984,53.573-53.572,53.573h-93.116c-29.586,0-53.571-23.987-53.571-53.573v-5.227
				c0-29.587,23.985-53.573,53.571-53.573h93.116c29.588,0,53.572,23.985,53.572,53.573V136.509z"/>
			<g>
				<g>
					<defs>
						<path id="SVGID_1_" d="M454.963,136.509c0,29.586-23.984,53.573-53.572,53.573h-93.116c-29.586,0-53.571-23.987-53.571-53.573
							v-5.227c0-29.587,23.985-53.573,53.571-53.573h93.116c29.588,0,53.572,23.985,53.572,53.573V136.509z"/>
					</defs>
					<clipPath id="SVGID_2_">
						<use xlink:href="#SVGID_1_"  overflow="visible"/>
					</clipPath>
					<g clip-path="url(#SVGID_2_)">
						
							<line fill="none" stroke="#FFFFFF" stroke-width="2.3936" stroke-miterlimit="10" x1="178.234" y1="73.895" x2="288.138" y2="192.316"/>
						
							<line fill="none" stroke="#FFFFFF" stroke-width="2.3936" stroke-miterlimit="10" x1="196.669" y1="73.895" x2="306.571" y2="192.316"/>
						
							<line fill="none" stroke="#FFFFFF" stroke-width="2.3936" stroke-miterlimit="10" x1="215.103" y1="73.895" x2="325.005" y2="192.316"/>
						
							<line fill="none" stroke="#FFFFFF" stroke-width="2.3936" stroke-miterlimit="10" x1="233.537" y1="73.895" x2="343.438" y2="192.316"/>
						
							<line fill="none" stroke="#FFFFFF" stroke-width="2.3936" stroke-miterlimit="10" x1="251.969" y1="73.895" x2="361.873" y2="192.316"/>
						
							<line fill="none" stroke="#FFFFFF" stroke-width="2.3936" stroke-miterlimit="10" x1="270.404" y1="73.895" x2="380.307" y2="192.316"/>
						
							<line fill="none" stroke="#FFFFFF" stroke-width="2.3936" stroke-miterlimit="10" x1="288.838" y1="73.895" x2="398.739" y2="192.316"/>
						
							<line fill="none" stroke="#FFFFFF" stroke-width="2.3936" stroke-miterlimit="10" x1="307.271" y1="73.895" x2="417.177" y2="192.316"/>
						
							<line fill="none" stroke="#FFFFFF" stroke-width="2.3936" stroke-miterlimit="10" x1="325.706" y1="73.895" x2="435.608" y2="192.316"/>
						
							<line fill="none" stroke="#FFFFFF" stroke-width="2.3936" stroke-miterlimit="10" x1="344.141" y1="73.895" x2="454.044" y2="192.316"/>
						
							<line fill="none" stroke="#FFFFFF" stroke-width="2.3936" stroke-miterlimit="10" x1="362.573" y1="73.895" x2="472.479" y2="192.316"/>
						
							<line fill="none" stroke="#FFFFFF" stroke-width="2.3936" stroke-miterlimit="10" x1="381.008" y1="73.895" x2="490.911" y2="192.316"/>
						
							<line fill="none" stroke="#FFFFFF" stroke-width="2.3936" stroke-miterlimit="10" x1="399.441" y1="73.895" x2="509.346" y2="192.316"/>
						
							<line fill="none" stroke="#FFFFFF" stroke-width="2.3936" stroke-miterlimit="10" x1="417.875" y1="73.895" x2="527.78" y2="192.316"/>
						
							<line fill="none" stroke="#FFFFFF" stroke-width="2.3936" stroke-miterlimit="10" x1="436.31" y1="73.895" x2="546.214" y2="192.316"/>
						
							<line fill="none" stroke="#FFFFFF" stroke-width="2.3936" stroke-miterlimit="10" x1="546.214" y1="73.895" x2="436.31" y2="192.316"/>
						
							<line fill="none" stroke="#FFFFFF" stroke-width="2.3936" stroke-miterlimit="10" x1="527.78" y1="73.895" x2="417.875" y2="192.316"/>
						
							<line fill="none" stroke="#FFFFFF" stroke-width="2.3936" stroke-miterlimit="10" x1="509.346" y1="73.895" x2="399.441" y2="192.316"/>
						
							<line fill="none" stroke="#FFFFFF" stroke-width="2.3936" stroke-miterlimit="10" x1="490.911" y1="73.895" x2="381.008" y2="192.316"/>
						
							<line fill="none" stroke="#FFFFFF" stroke-width="2.3936" stroke-miterlimit="10" x1="472.479" y1="73.895" x2="362.573" y2="192.316"/>
						
							<line fill="none" stroke="#FFFFFF" stroke-width="2.3936" stroke-miterlimit="10" x1="454.044" y1="73.895" x2="344.141" y2="192.316"/>
						
							<line fill="none" stroke="#FFFFFF" stroke-width="2.3936" stroke-miterlimit="10" x1="435.608" y1="73.895" x2="325.706" y2="192.316"/>
						
							<line fill="none" stroke="#FFFFFF" stroke-width="2.3936" stroke-miterlimit="10" x1="417.177" y1="73.895" x2="307.271" y2="192.316"/>
						
							<line fill="none" stroke="#FFFFFF" stroke-width="2.3936" stroke-miterlimit="10" x1="398.739" y1="73.895" x2="288.838" y2="192.316"/>
						
							<line fill="none" stroke="#FFFFFF" stroke-width="2.3936" stroke-miterlimit="10" x1="380.307" y1="73.895" x2="270.404" y2="192.316"/>
						
							<line fill="none" stroke="#FFFFFF" stroke-width="2.3936" stroke-miterlimit="10" x1="361.873" y1="73.895" x2="251.969" y2="192.316"/>
						
							<line fill="none" stroke="#FFFFFF" stroke-width="2.3936" stroke-miterlimit="10" x1="343.438" y1="73.895" x2="233.537" y2="192.316"/>
						
							<line fill="none" stroke="#FFFFFF" stroke-width="2.3936" stroke-miterlimit="10" x1="325.005" y1="73.895" x2="215.103" y2="192.316"/>
						
							<line fill="none" stroke="#FFFFFF" stroke-width="2.3936" stroke-miterlimit="10" x1="306.571" y1="73.895" x2="196.669" y2="192.316"/>
						
							<line fill="none" stroke="#FFFFFF" stroke-width="2.3936" stroke-miterlimit="10" x1="288.138" y1="73.895" x2="178.234" y2="192.316"/>
					</g>
				</g>
			</g>
			<path fill="#888888" stroke="#FFFFFF" stroke-width="2.3936" stroke-miterlimit="10" d="M443.828,134.906
				c0,26.654-21.605,48.265-48.262,48.265h-81.851c-26.658,0-48.263-21.608-48.263-48.265v-4.709
				c0-26.653,21.604-45.574,48.263-45.574h81.851c26.655,0,48.262,18.921,48.262,45.574V134.906z"/>
			<path fill="#231815" stroke="#FFFFFF" stroke-width="2.3936" stroke-miterlimit="10" d="M435.172,134.719
				c0,21.704-17.595,39.301-39.297,39.301h-82.242c-21.702,0-39.299-17.597-39.299-39.301v-3.833
				c0-21.706,17.597-37.112,39.299-37.112h82.242c21.702,0,39.297,15.406,39.297,37.112V134.719z"/>
			<circle fill="#231815" stroke="#FFFFFF" stroke-width="2.3936" stroke-miterlimit="10" cx="314.646" cy="133.706" r="40.312"/>
			<circle fill="#231815" stroke="#FFFFFF" stroke-width="2.3936" stroke-miterlimit="10" cx="314.647" cy="133.706" r="22.589"/>
		</g>
		<path fill="#231815" stroke="#FFFFFF" stroke-width="2.3936" stroke-miterlimit="10" d="M435.584,133.706
			c0,22.264-18.051,40.313-40.312,40.313c-22.265,0-40.315-18.05-40.315-40.313c0-22.263,18.052-40.311,40.315-40.311
			C417.533,93.395,435.584,111.443,435.584,133.706z"/>
		<path fill="#231815" stroke="#FFFFFF" stroke-width="2.3936" stroke-miterlimit="10" d="M417.861,133.706
			c0,12.478-10.116,22.59-22.588,22.59c-12.478,0-22.591-10.112-22.591-22.59c0-12.474,10.114-22.589,22.591-22.589
			C407.744,111.117,417.861,121.23,417.861,133.706z"/>
	</g>
	<polyline fill="none" stroke="#FFFFFF" stroke-width="1.1968" stroke-miterlimit="10" points="443.828,164.35 517.769,195.4 
		729.982,195.4 	"/>
	<g enable-background="new    ">
		<path fill="#FFFFFF" d="M511.927,220.867c0.538,0.021,1.056,0.021,1.573,0.021c3.533,0,6.334-0.388,8.402-1.163
			c-0.97-0.905-2.392-2.09-4.201-3.469c-1.186,0.431-2.629,0.797-4.331,1.077l-0.689-1.788c3.985-0.475,6.83-1.832,8.468-4.072
			c-2.629,1.12-6.055,1.896-10.256,2.326l-0.539-1.981c3.62-0.108,6.615-0.582,8.877-1.422c-1.422-1.1-2.908-2.155-4.459-3.124
			l-2.521,0.732l-0.797-1.789c3.102-0.538,5.3-1.637,6.592-3.231l1.982,0.711l-0.193,0.216h7.325l1.314,1.034
			c-0.538,0.991-1.487,2.219-2.845,3.576c-0.861,0.797-2.326,1.767-4.373,2.888l1.767,0.517l-0.259,0.452h6.055l1.186,0.711
			c-0.432,1.832-1.207,3.383-2.263,4.568c-1.206,1.379-2.22,2.176-4.029,3.231c-2.413,1.229-6.183,1.918-11.247,2.004
			L511.927,220.867z M518.219,207.423c1.076,0.732,2.046,1.465,2.887,2.154c2.025-1.077,3.512-2.262,4.395-3.512
			c0.021-0.064,0.021-0.129,0.021-0.172c0-0.108-0.043-0.173-0.129-0.173h-7.498l-1.142,0.711L518.219,207.423z M521.02,216.623
			c0.969,0.797,1.852,1.551,2.628,2.283c1.874-1.099,3.274-2.628,4.115-4.61c0.021-0.021,0.021-0.021,0.021-0.043
			s-0.064-0.043-0.216-0.043h-6.313c-0.475,0.409-1.077,0.775-1.745,1.185L521.02,216.623z"/>
		<path fill="#FFFFFF" d="M540.752,220.996v-1.034h-7.799v-1.658h7.799v-1.207h-6.895c-0.15,0-0.236-0.086-0.236-0.259v-7.153
			c0-0.15,0.086-0.215,0.236-0.215h6.895v-1.12h-8.984v-1.659h8.984v-1.013c-2.736,0.107-5.041,0.15-6.916,0.107l-0.193-1.831
			c4.395,0.086,11.85-0.259,15.318-0.884l0.258,1.811c-1.938,0.366-4.287,0.538-6.656,0.711v1.099h8.941v1.659h-8.941v1.12h6.873
			c0.172,0,0.258,0.064,0.258,0.215v7.153c0,0.173-0.086,0.259-0.258,0.259h-6.873v1.207h7.756v1.658h-7.756v1.034h8.769v1.659
			H531.94v-1.659H540.752z M540.752,212.486v-1.357h-5.322c-0.064,0-0.064,0.021-0.064,0.064v1.293H540.752z M540.752,215.438
			v-1.293h-5.387v1.207l0.064,0.086H540.752z M542.563,211.129v1.357h5.386v-1.293l-0.087-0.064H542.563z M542.563,214.145v1.293
			h5.299l0.087-0.086v-1.207H542.563z"/>
		<path fill="#FFFFFF" d="M558.848,209.707c-0.043,0.107-0.043,0.215-0.043,0.301c0,0.151,0.021,0.302,0.107,0.41
			c0.518,0.711,1.939,2.649,1.939,5.128c0,0.474-0.087,1.033-0.625,1.896c-0.775,0.948-1.486,1.142-2.5,1.142
			c-0.625,0-1.293-0.107-2.025-0.323v4.654h-1.831v-19.089l0.065-0.216l0.193-0.043h5.171l1.206,0.775L558.848,209.707z
			 M558.373,205.656c0.021-0.064,0.043-0.13,0.043-0.194c0-0.236-0.215-0.236-0.387-0.236h-2.177l-0.108,0.043l-0.043,0.107V216.3
			c0.582,0.345,1.164,0.517,1.746,0.517c0.646,0,1.551-0.15,1.551-1.594c0-1.078-0.689-2.693-2.068-4.849
			c0-0.064,0-0.086,0.043-0.193L558.373,205.656z M564.578,211.969c-0.301,4.869-1.918,8.554-4.826,10.967l-1.594-1.314l0.172-0.107
			c2.887-2.154,4.374-5.688,4.46-10.558v-3.21h-2.241v-1.831h5.107v-2.888h1.83v2.888h5.473v1.831h-8.338v2.37h7.219l0.365,0.086
			l0.216,0.259l0.043,4.115c-0.086,3.447-0.323,5.623-0.754,6.463c-0.819,1.724-2.155,1.896-3.081,1.896
			c-1.013,0-2.305-0.259-3.856-0.754v-2.133c1.486,0.603,2.671,0.904,3.512,0.904c0.388,0,0.711-0.043,0.948-0.172
			c1.185-0.625,1.336-2.22,1.379-3.856c0.043-1.444,0.086-2.564,0.086-3.361c0-1.465-0.086-1.595-0.323-1.595H564.578z"/>
		<path fill="#FFFFFF" d="M583.449,220.135c-0.732-0.884-1.615-1.831-2.628-2.844v5.623h-1.745v-5.387
			c-0.991,1.336-2.047,2.413-3.125,3.211l-1.4-1.229c1.596-1.12,2.909-2.521,3.9-4.094h-3.662v-1.659h4.287v-1.228h1.745v1.228
			h3.985v1.659h-3.619c1.229,1.077,2.413,2.198,3.533,3.383L583.449,220.135z M577.223,210.784c-0.408,0.603-0.883,1.228-1.465,1.81
			c-0.388-0.518-0.797-0.927-1.163-1.185c1.142-1.143,2.024-2.65,2.563-4.417l1.616,0.689l-0.776,1.724l1.617,1.637l-1.25,1.186
			L577.223,210.784z M578.905,204.837v-1.658h1.744v1.658h4.008v1.659h-9.803v-1.659H578.905z M581.877,210.978l-0.97,1.422
			c-0.452-0.495-0.884-0.861-1.292-1.077c0.969-1.206,1.615-2.628,1.917-4.18l1.681,0.518l-0.668,1.896l1.961,1.745l-1.207,1.271
			L581.877,210.978z M591.551,217.765v3.231h3.146v1.659h-8.229c-0.41,0-0.625-0.215-0.625-0.625v-12.389l-0.819,1.164
			c-0.431-0.496-0.884-0.862-1.271-1.077c1.465-1.832,2.498-4.072,2.994-6.701l1.681,0.496c-0.259,1.034-0.625,2.09-1.034,3.167
			h2.844c0.625-1.465,1.034-2.65,1.271-3.62l1.572,0.496c-0.193,0.926-0.517,1.96-1.012,3.124h2.715l-0.151,1.659h-3.081v3.037
			h3.038v1.681h-3.038v3.038h2.951v1.659H591.551z M587.5,211.387h2.392v-3.037h-2.154c-0.151,0-0.237,0.086-0.237,0.236V211.387z
			 M587.5,216.105h2.392v-3.038H587.5V216.105z M589.892,217.765H587.5v2.974c0,0.172,0.086,0.258,0.237,0.258h2.154V217.765z"/>
		<path fill="#FFFFFF" d="M596.397,206.561h8.101v1.745h-8.101V206.561z M598.917,221.643v0.754h-1.745v-7.174
			c0-0.345,0.172-0.539,0.539-0.539h5.516c0.365,0,0.56,0.194,0.56,0.539v5.839c0,0.388-0.194,0.581-0.581,0.581H598.917z
			 M597.408,209.297h6.012v1.659h-6.012V209.297z M597.408,211.99h6.012v1.659h-6.012V211.99z M597.494,203.781h5.84v1.745h-5.84
			V203.781z M602.041,216.623c0-0.194-0.107-0.28-0.28-0.28h-2.585c-0.173,0-0.259,0.086-0.259,0.28v3.36h2.779
			c0.216,0,0.345-0.129,0.345-0.366V216.623z M607.061,212.442v-6.872h-2.262v-1.832h8.08c0.322-0.043,0.624,0.021,0.624,0.345
			c-0.021,1.767-0.021,3.383-0.021,4.869c0,6.248,0.173,9.911,0.56,10.967c0.044,0.13,0.13,0.216,0.281,0.216
			c0.064,0,0.107,0,0.107-0.237l0.043-2.585l1.811,0.366c-0.174,3.146-0.561,5.321-1.918,5.321c-0.389,0-0.711-0.129-0.97-0.409
			l-0.474-0.732c-0.841-1.681-1.25-6.248-1.25-13.66c0-0.345,0.043-2.025,0.043-2.392c0-0.129-0.086-0.193-0.28-0.236h-2.542v6.355
			l1.724-0.604l0.603,1.724c-0.495,0.216-1.314,0.496-2.391,0.819l-0.453,3.124c-0.582,2.585-1.4,4.503-2.412,5.688l-1.875-0.604
			c1.724-2.326,2.693-4.912,2.908-7.734l-2.369,0.539l-0.561-1.768L607.061,212.442z"/>
		<path fill="#FFFFFF" d="M623.153,209.577c-0.086,0.237-0.107,0.453-0.107,0.604c0,0.107,0,0.193,0.043,0.237
			c0.926,1.702,1.422,3.231,1.422,4.848c0,1.034-0.236,1.853-0.711,2.435c-0.582,0.689-1.056,0.797-1.788,0.797
			c-0.56,0-1.185-0.107-1.853-0.345v4.676h-1.66v-19.111l0.065-0.193l0.173-0.044h4.609l1.207,0.755L623.153,209.577z
			 M622.463,205.613c0.021-0.087,0.043-0.151,0.043-0.216c0-0.193-0.15-0.28-0.431-0.259h-1.767l-0.107,0.043l-0.043,0.108v11.01
			c0.538,0.388,1.076,0.581,1.572,0.581s0.668-0.15,0.775-0.323c0.28-0.409,0.367-0.969,0.367-1.465
			c0-1.314-0.732-3.081-1.596-4.955L622.463,205.613z M631.793,213.478h-1.466l-0.087,0.711c-0.258,1.271-1.205,2.283-2.844,2.994
			l-0.711-0.97v6.507h-1.744v-10.492c0-0.259,0.15-0.409,0.408-0.409h11.247c0.28,0,0.431,0.15,0.431,0.409v8.747
			c0,0.409-0.107,1.939-2.219,1.939c-0.518,0-1.164-0.086-1.918-0.237v-1.938c0.732,0.279,1.271,0.388,1.616,0.388
			c0.495,0,0.776-0.475,0.776-0.862v-3.383h-2.801c-0.453,0-0.689-0.215-0.689-0.711V213.478z M625.264,203.652h11.57v1.659h-11.57
			V203.652z M636.016,210.504c0,0.15-0.086,0.237-0.216,0.237h-9.652c-0.13,0-0.194-0.087-0.194-0.237v-3.899
			c0-0.151,0.064-0.216,0.194-0.216h9.652c0.13,0,0.216,0.064,0.216,0.216V210.504z M626.686,215.847
			c1.164-0.495,1.875-1.034,2.068-1.594l0.086-0.775h-2.024c-0.087,0-0.13,0.043-0.13,0.129V215.847z M630.112,219.251h-2.478
			v-1.594h6.743v1.594h-2.606v3.06h-1.659V219.251z M634.184,207.789h-6.42c-0.064,0-0.086,0.021-0.064,0.064v1.4l0.064,0.087h6.42
			l0.086-0.087v-1.4L634.184,207.789z M633.28,215.093c0,0.259,0.129,0.388,0.408,0.388h1.596v-1.874
			c0-0.086-0.043-0.129-0.151-0.129h-1.853V215.093z"/>
		<path fill="#FFFFFF" d="M656.438,217.765v3.231h2.822v1.659h-7.756c-0.388,0-0.604-0.215-0.604-0.625V209.47l-0.625,0.904
			c-0.387-0.409-0.754-0.711-1.076-0.904v2.693c0,0.452-0.238,0.689-0.712,0.689h-3.21l-0.215,0.991h4.071
			c0.259,0,0.388,0.129,0.388,0.366v6.959c0,0.604-0.193,1.896-2.24,1.896c-0.539,0-1.164-0.086-1.875-0.236l-0.043-1.854
			c0.754,0.237,1.314,0.366,1.681,0.366c0.581,0,0.819-0.495,0.819-0.84v-5.042c0-0.086-0.043-0.129-0.151-0.129h-2.974
			l-0.883,3.081l1.723-0.323l-0.624-1.659l1.422-0.452c0.581,1.594,1.034,2.973,1.314,4.115l-1.423,0.323l-0.236-0.841l-4.094,0.841
			l-0.646-1.552l0.818-0.15l0.971-3.383h-1.768c-0.064,0-0.107,0.043-0.107,0.129v7.434h-1.681v-8.683
			c0-0.237,0.13-0.366,0.388-0.366h3.512l0.216-0.991h-3.103c-0.431,0-0.668-0.237-0.668-0.689v-5.408h1.486v4.438
			c0,0.15,0.086,0.237,0.237,0.237h5.86c0.15,0,0.237-0.087,0.237-0.237v-4.438h1.509v2.263c1.184-1.638,2.003-3.663,2.434-5.99
			l1.681,0.475c-0.28,1.034-0.603,2.111-1.034,3.188h2.822c0.561-1.443,0.905-2.629,1.078-3.599l1.615,0.453
			c-0.172,0.926-0.452,1.981-0.883,3.146h2.412l-0.129,1.659h-2.758v3.037h2.607v1.681h-2.607v3.038h2.607v1.659H656.438z
			 M643.618,204.234v-1.207h1.745v1.207h4.008v1.659h-9.717v-1.659H643.618z M644.781,209.685c-0.732,0.561-1.508,1.035-2.348,1.444
			c-0.151-0.561-0.346-0.97-0.582-1.293c0.668-0.323,1.271-0.646,1.81-1.034l-1.745-1.25l0.948-1.163l1.938,1.465
			c0.475-0.452,0.971-1.013,1.443-1.638l1.1,1.013l-1.486,1.509l1.422,1.206l-1.014,1.077L644.781,209.685z M652.56,211.387h2.22
			v-3.037h-1.982c-0.15,0-0.237,0.086-0.237,0.236V211.387z M652.56,216.105h2.22v-3.038h-2.22V216.105z M654.78,217.765h-2.22
			v2.974c0,0.172,0.087,0.258,0.237,0.258h1.982V217.765z"/>
	</g>
	<g enable-background="new    ">
		<path fill="#FFFFFF" d="M514.68,43.711v-12.26c0-0.388,0.193-0.603,0.604-0.603h13.293c0.432,0,0.625,0.215,0.625,0.603v12.26
			h2.456v1.681h-19.563v-1.681H514.68z M512.244,48.235c2.068-0.28,4.051-1.077,5.904-2.37l1.034,1.508
			c-2.327,1.53-4.438,2.413-6.271,2.629L512.244,48.235z M516.511,34.037h10.858v-1.271c0-0.172-0.064-0.259-0.258-0.259h-10.363
			c-0.172,0-0.237,0.087-0.237,0.259V34.037z M516.511,37.397h10.858v-1.701h-10.858V37.397z M516.511,40.522h10.858v-1.444h-10.858
			V40.522z M516.511,43.711h10.858v-1.53h-10.858V43.711z M530.86,50.088c-2.52-1.163-4.566-1.938-6.205-2.349l0.625-1.745
			c1.832,0.432,3.9,1.229,6.27,2.37L530.86,50.088z"/>
		<path fill="#FFFFFF" d="M539.821,45.887v4.029h-1.831V38.303l-0.517,0.388c-0.949,0.689-1.939,1.336-3.018,1.896l-1.184-1.616
			c2.908-1.443,5.299-3.296,7.174-5.537h-6.809v-1.831h8.102l1.034-1.681l1.638,1.013L544,31.603h9.114v1.831h-10.342
			c-0.689,0.927-1.444,1.831-2.241,2.629h10.428c0.324,0,0.475,0.15,0.475,0.452v11.269c0,0.732-0.259,2.197-2.973,2.197
			c-0.841,0-1.854-0.15-3.018-0.409v-2.047c1.229,0.366,2.177,0.538,2.822,0.538c1.271,0,1.336-0.861,1.336-1.013v-1.163H539.821z
			 M539.821,40.091h9.781v-2.047c0-0.107-0.064-0.15-0.172-0.15h-9.48c-0.107,0-0.129,0.043-0.129,0.15V40.091z M539.821,44.056
			h9.781v-2.133h-9.781V44.056z"/>
		<path fill="#FFFFFF" d="M558.821,43.754c0.775,1.034,1.789,1.896,3.017,2.542c1.271-0.797,2.047-1.96,2.263-3.447h-7.348
			c-0.172,0-0.258-0.064-0.258-0.236v-8.23c0-0.173,0.086-0.259,0.258-0.259h7.477v-1.616h-8.618v-1.831h18.702v1.831h-8.252v1.616
			h7.152c0.172,0,0.259,0.086,0.259,0.259v8.23c0,0.172-0.087,0.236-0.259,0.236h-7.282c-0.302,1.702-1.013,3.124-2.09,4.245
			c1.853,0.452,4.353,0.689,7.476,0.668h3.447l-0.538,2.003h-2.154l-2.392-0.086c-3.017-0.172-5.58-0.604-7.691-1.314
			c-1.66,0.711-3.729,1.25-6.141,1.595l-0.646-2.025c1.594-0.086,3.124-0.323,4.611-0.711c-0.841-0.625-1.617-1.422-2.328-2.413
			L558.821,43.754z M564.229,37.743v-1.961h-5.839c-0.064,0-0.086,0.021-0.064,0.086v1.875H564.229z M564.229,41.19v-1.789h-5.903
			v1.681c-0.021,0.064,0,0.086,0.064,0.108H564.229z M566.061,35.782v1.961h5.58v-1.875c0-0.064-0.021-0.086-0.086-0.086H566.061z
			 M566.061,39.401v1.789h5.494l0.086-0.108v-1.681H566.061z"/>
		<path fill="#FFFFFF" d="M585.621,31.473v-1.508h1.81v1.508h8.769v1.745h-19.477v-1.745H585.621z M591.826,47.869
			c0,0.107-0.021,0.172-0.086,0.216c0.451,0.107,0.818,0.15,1.098,0.15c0.905,0,0.928-0.862,0.928-0.948v-5.386
			c0-0.087-0.044-0.13-0.13-0.13H579.33c-0.087,0-0.13,0.043-0.13,0.13v8.015h-1.831v-9.372c0-0.302,0.15-0.453,0.431-0.453h17.366
			c0.301,0,0.43,0.151,0.43,0.453v7.497c0,0.496-0.129,2.068-2.455,2.068c-0.625,0-1.357-0.086-2.22-0.279l-0.043-1.702h-9.501
			c-0.151,0-0.238-0.087-0.238-0.259v-4.633c0-0.15,0.087-0.236,0.238-0.236h10.19c0.173,0,0.259,0.086,0.259,0.236V47.869z
			 M593.334,38.949c0,0.173-0.086,0.259-0.258,0.259h-13.208c-0.151,0-0.237-0.086-0.237-0.259v-4.287
			c0-0.151,0.086-0.237,0.237-0.237h13.208c0.172,0,0.258,0.086,0.258,0.237V38.949z M591.502,36.084
			c0-0.065-0.021-0.087-0.086-0.087h-9.889c-0.064,0-0.086,0.021-0.064,0.087v1.422c-0.021,0.064,0,0.086,0.064,0.107h9.889
			l0.086-0.107V36.084z M590.08,44.594h-7.195c-0.064,0-0.086,0-0.064,0.044v1.81l0.064,0.086h7.195l0.064-0.086v-1.81
			L590.08,44.594z"/>
		<path fill="#FFFFFF" d="M600.571,48.796v0.969h-1.831V33.153c-0.021-0.193,0.087-0.28,0.302-0.28h2.219l0.949-2.822l1.701,0.625
			l-0.732,2.197h3.211c0.279,0,0.408,0.108,0.408,0.366v16.525h-1.83v-0.969H600.571z M600.571,40.026h4.396v-5.085
			c0-0.172-0.087-0.236-0.281-0.236h-3.855c-0.195,0-0.281,0.064-0.26,0.236V40.026z M604.967,41.857h-4.396v5.106h4.396V41.857z
			 M610.137,34.102c-0.366,1.336-0.883,2.456-1.443,3.361l-1.788-0.604c1.206-2.025,1.96-4.244,2.133-6.614l1.81,0.172l-0.258,1.832
			h6.119c0.494,0.107,0.668,0.15,0.668,1.056c0,3.188-0.044,5.968-0.13,8.445c-0.108,4.072-0.927,6.593-2.435,7.52
			c-0.41,0.302-1.013,0.431-1.789,0.431c-1.012,0-2.326-0.236-3.92-0.711v-2.154c1.594,0.561,2.844,0.84,3.684,0.84
			c0.818,0,1.379-0.172,2.133-1.853c0.539-1.486,0.646-6.119,0.646-9.609c0-1.443,0-2.111-0.323-2.111H610.137z M612.162,44.4
			c-0.646-2.499-1.486-4.805-2.499-6.938l1.724-0.582c1.207,3.038,2.09,5.387,2.521,7.045L612.162,44.4z"/>
		<path fill="#FFFFFF" d="M619.463,48.343c2.068-0.797,2.715-1.465,2.995-2.908v-3.749c0-0.173-0.064-0.259-0.216-0.259h-2.068
			v-1.831h3.663c0.323,0,0.452,0.15,0.452,0.474v5.063c0.086,0.409,0.324,0.861,0.732,1.293c0.324,0.495,1.336,1.572,4.267,1.572
			c3.425,0,7.691-0.107,10.233-0.215l-0.474,2.047l-10.169-0.13c-2.65-0.15-4.417-0.991-5.279-2.478
			c-0.322,0.775-1.744,2.284-3.253,2.779L619.463,48.343z M623.212,38.476c-1.4-0.991-2.563-1.702-3.49-2.111l0.905-1.616
			c1.077,0.495,2.262,1.206,3.598,2.176L623.212,38.476z M623.946,34.36c-1.466-1.077-2.65-1.854-3.643-2.327l0.949-1.573
			c1.119,0.539,2.348,1.314,3.727,2.37L623.946,34.36z M631.508,45.305h-5.711v-1.658h5.711v-1.164h-5.064
			c-0.15,0-0.236-0.086-0.236-0.259v-7.82c0-0.151,0.086-0.237,0.236-0.237h5.064v-1.249h-5.624v-1.659h5.624v-1.056h1.744v1.056
			h5.516v1.659h-5.516v1.249h4.891c0.173,0,0.26,0.086,0.26,0.237v7.82c0,0.173-0.087,0.259-0.26,0.259h-4.891v1.164h5.947v1.658
			h-5.947v2.004h-1.744V45.305z M631.508,37.527v-1.788h-3.491c-0.064,0-0.086,0.021-0.064,0.064v1.724H631.508z M631.508,40.91
			v-1.788h-3.556v1.701l0.064,0.087H631.508z M633.252,35.739v1.788h3.404v-1.724l-0.086-0.064H633.252z M633.252,39.122v1.788
			h3.318l0.086-0.087v-1.701H633.252z"/>
		<path fill="#FFFFFF" d="M643.85,40.694l-2.348,0.366c-0.107-0.474-0.237-0.991-0.475-1.595l1.207-0.215
			c0.561-0.625,1.142-1.443,1.767-2.435c-0.97-0.948-1.96-1.724-2.974-2.284l0.818-1.465l0.625,0.388
			c0.496-1.077,0.971-2.24,1.422-3.512l1.509,0.689c-0.323,0.948-0.884,2.219-1.702,3.771l1.1,0.948
			c0.494-1.078,0.883-2.112,1.098-3.124l1.639,0.409c-0.303,1.637-1.401,3.749-3.232,6.248l1.788-0.323l-0.345-1.186l1.443-0.409
			c0.389,1.077,0.711,2.392,0.948,3.986l-1.466,0.302l-0.193-1.034l-0.969,0.193v9.523h-1.66V40.694z M641.071,48.666
			c0.518-2.672,0.754-4.848,0.732-6.507l1.573,0.13c0.022,1.853-0.216,4.05-0.732,6.593L641.071,48.666z M646.738,47.696
			c-0.108-1.938-0.388-3.748-0.776-5.364l1.574-0.194c0.387,2.198,0.667,4.029,0.775,5.473L646.738,47.696z M647.707,48.451
			c1.918-0.173,3.426-0.41,4.503-0.755l0.474,1.595c-1.293,0.409-2.908,0.689-4.848,0.818L647.707,48.451z M660.656,39.66
			c0,0.151-0.065,0.216-0.217,0.216h-11.871c-0.107,0-0.172-0.064-0.172-0.216v-4.546c0-0.129,0.064-0.194,0.172-0.194h11.871
			c0.151,0,0.217,0.065,0.217,0.194V39.66z M653.697,32.981v-0.819h-5.192v-1.313h5.192v-0.798h1.659v0.798h4.869v1.313h-4.869
			v0.819h4.46v1.249H649.28v-1.249H653.697z M660.16,47.309c0,0.151-0.064,0.216-0.215,0.216h-10.688
			c-0.129,0-0.193-0.064-0.193-0.216v-6.636c0-0.129,0.064-0.194,0.193-0.194h10.688c0.15,0,0.215,0.065,0.215,0.194V47.309z
			 M655.809,38.109c-0.389,0-0.604-0.216-0.604-0.646V36.17h-1.293l-0.237,0.646c-0.517,0.84-1.552,1.4-3.081,1.572l-0.452-1.271
			c1.163-0.087,1.938-0.41,2.327-0.905V36.17h-2.543l-0.043,0.064v2.306l0.043,0.086h9.179c0.064-0.086,0.064-0.129,0.064-0.517
			H655.809z M650.723,42.591h7.757v-0.798l-0.064-0.064h-7.649l-0.043,0.064V42.591z M650.723,44.529h7.757v-0.861h-7.757V44.529z
			 M658.48,45.585h-7.757c0,0.561,0,0.625,0.043,0.711h7.649l0.064-0.086V45.585z M660.57,50.109
			c-1.853-0.452-3.339-0.711-4.503-0.732l0.086-1.659c1.336,0.044,2.974,0.302,4.848,0.776L660.57,50.109z M656.692,36.17
			c0,0.754,0,0.861,0.366,0.861h2.111v-0.797l-0.064-0.064H656.692z"/>
		<path fill="#FFFFFF" d="M664.876,39.208l-0.603,0.904l-1.746-0.711c1.982-2.865,3.168-6.011,3.598-9.372l1.811,0.28
			c-0.345,1.918-0.732,3.576-1.229,4.955v14.5h-1.831V39.208z M682.5,49.938c-4.416-0.064-7.627-0.561-9.588-1.4
			c-1.099,0.668-2.693,1.206-4.762,1.529l-0.84-1.831c1.078-0.064,2.736-0.345,3.771-0.818c-1.056-0.862-2.047-1.982-2.974-3.34
			l1.4-1.142c1.1,1.658,2.177,2.801,3.146,3.469c0.926-0.927,1.422-2.37,1.465-4.267h-5.709c-0.173,0-0.238-0.086-0.238-0.258
			v-6.356c0-0.172,0.065-0.259,0.238-0.259h5.73v-1.96h-6.012V31.56h6.012v-1.466h1.832v1.466h6.398v1.745h-6.398v1.96h5.773
			c0.193,0,0.28,0.087,0.28,0.259v6.356c0,0.172-0.087,0.258-0.28,0.258h-5.796c-0.043,2.09-0.56,3.792-1.53,5.106
			c1.423,0.388,3.491,0.604,6.184,0.604c0.668,0,1.4-0.021,2.155-0.043L682.5,49.938z M674.141,40.393V37.01h-4.094
			c-0.064,0-0.064,0.044-0.043,0.087v3.188c-0.021,0.064,0,0.086,0.043,0.107H674.141z M675.973,37.01v3.383h4.137l0.086-0.107
			v-3.188c0-0.065-0.021-0.087-0.086-0.087H675.973z"/>
		<path fill="#FFFFFF" d="M687.754,43.538c-0.365,2.22-0.926,4.267-1.68,6.033l-1.918-0.561c1.207-3.124,1.896-5.925,1.939-8.338
			v-9.372c0-0.345,0.172-0.539,0.538-0.539h15.513c0.389,0,0.582,0.194,0.582,0.561v16.202c0,2.349-2.004,2.349-2.715,2.349
			c-0.754,0-1.681-0.087-2.779-0.259l-0.064-2.111c1.207,0.323,2.111,0.495,2.715,0.495c0.668,0,1.012-0.172,1.012-1.034v-3.426
			h-5.752v5.796h-1.811v-5.796H687.754z M687.906,41.707h5.429v-3.728h-5.429V41.707z M693.334,36.148v-3.555h-5.191
			c-0.151,0-0.216,0.086-0.216,0.236v3.318H693.334z M695.145,32.594v3.555h5.752V32.83c0-0.15-0.086-0.236-0.236-0.236H695.145z
			 M695.145,41.707h5.752v-3.728h-5.752V41.707z"/>
		<path fill="#FFFFFF" d="M708.996,39.466c-1.293-1.163-2.414-2.024-3.318-2.542l1.077-1.486c1.013,0.581,2.177,1.443,3.426,2.606
			L708.996,39.466z M705.742,49.032c1.422-2.521,2.197-5.192,2.327-7.993l1.831,0.129c-0.258,3.447-1.034,6.271-2.262,8.446
			L705.742,49.032z M709.491,34.597c-1.292-1.206-2.413-2.09-3.339-2.649l1.119-1.487c1.035,0.646,2.177,1.552,3.404,2.715
			L709.491,34.597z M711.301,47.762v-6.658c0-0.388,0.172-0.581,0.582-0.581h12.324c0.409,0,0.604,0.193,0.604,0.581v6.658h1.055
			v1.658h-16.094v-1.658H711.301z M724.315,39.165c0,0.15-0.086,0.236-0.258,0.236h-12.023c-0.15,0-0.236-0.086-0.236-0.236v-8.252
			c0-0.151,0.086-0.237,0.236-0.237h12.023c0.172,0,0.258,0.086,0.258,0.237V39.165z M713.047,47.762h2.024v-5.581h-1.788
			c-0.172,0-0.236,0.087-0.236,0.259V47.762z M720.953,37.441c-0.904-0.819-2.025-1.724-3.34-2.693
			c-0.646,0.97-1.357,1.81-2.09,2.499l-1.293-1.077c1.186-0.948,2.155-2.241,2.866-3.835h-3.49c-0.065,0-0.087,0.021-0.065,0.064
			v5.257l0.065,0.087h8.876l0.087-0.087v-5.257l-0.087-0.064h-3.705l-0.475,1.163c1.229,0.798,2.457,1.681,3.642,2.629
			L720.953,37.441z M716.817,47.762h2.219v-5.581h-2.219V47.762z M720.781,47.762h2.283v-5.344c0-0.15-0.086-0.237-0.236-0.237
			h-2.047V47.762z"/>
		<path fill="#FFFFFF" d="M733.038,36.752h-2.327v5.149c0,2.887-0.646,5.429-1.875,7.54l-1.637-0.711
			c1.422-2.563,1.724-4.18,1.767-7.368v-9.48c0-0.322,0.173-0.495,0.474-0.495h7.305v-1.422h1.831v1.422h8.036v1.745h-3.146v1.875
			h3.103v1.745h-3.103v2.499c0,0.582-0.302,0.861-0.862,0.861h-8.725c-0.561,0-0.841-0.279-0.841-0.861V36.752z M746.332,50.002
			c-3.018-0.495-5.646-1.185-7.865-2.025c-2.542,1.013-5.148,1.724-7.777,2.09l-0.604-1.81c2.758-0.345,4.374-0.689,6.227-1.271
			c-1.422-0.689-2.672-1.443-3.813-2.176l0.646-1.745c1.81,1.314,3.599,2.327,5.321,3.038c2.845-1.487,4.158-3.038,4.158-3.146
			c0-0.087-0.15-0.065-0.236-0.065h-10.406v-1.745h12.087l1.271,1.056c-0.969,1.789-2.585,3.361-4.762,4.697
			c2.047,0.561,4.245,0.991,6.594,1.229L746.332,50.002z M733.038,35.007v-1.875h-2.091c-0.15,0-0.236,0.086-0.236,0.237v1.638
			H733.038z M741.635,35.007v-1.875h-6.766v1.875H741.635z M741.333,38.367c0.194,0,0.302-0.086,0.302-0.28v-1.335h-6.766v1.335
			c0,0.194,0.107,0.28,0.302,0.28H741.333z"/>
	</g>
	<g enable-background="new    ">
		<path fill="#FFFFFF" d="M521.984,78.762h-9.868v-1.529l1.703-1.789c3.426-3.512,5.32-5.752,5.32-8.187
			c0-1.573-0.754-2.952-2.801-2.952c-1.249,0-2.369,0.668-3.123,1.271l-0.754-1.788c0.99-0.819,2.563-1.509,4.373-1.509
			c3.34,0,4.805,2.263,4.805,4.719c0,2.973-2.025,5.451-4.848,8.295l-1.336,1.357v0.043h6.528V78.762z"/>
		<path fill="#FFFFFF" d="M526.571,69.82c0.755-0.948,1.961-1.681,3.534-1.681c2.606,0,4.503,1.961,4.503,5.149
			c0,3.017-1.918,5.71-5.128,5.71c-3.447,0-5.472-2.823-5.472-6.852c0-3.167,1.055-5.688,2.606-7.325
			c1.681-1.768,4.223-2.521,6.507-2.521l0.021,1.982c-4.611,0-6.27,3.146-6.615,5.537H526.571z M532.108,73.44
			c0-2.112-1.076-3.513-2.779-3.513c-1.443,0-2.844,1.357-2.844,2.823c0.043,2.542,1.1,4.373,2.995,4.373
			C531.117,77.124,532.108,75.573,532.108,73.44z"/>
		<path fill="#FFFFFF" d="M536.136,70.683c0-5.301,2.003-8.403,5.364-8.403c3.426,0,5.15,3.318,5.15,8.23
			c0,5.494-1.982,8.489-5.322,8.489C537.946,78.999,536.136,75.659,536.136,70.683z M544.129,70.596
			c0-3.856-0.818-6.334-2.715-6.334c-1.637,0-2.758,2.284-2.758,6.334c0,4.029,0.991,6.399,2.715,6.399
			C543.483,76.995,544.129,73.957,544.129,70.596z"/>
		<path fill="#FFFFFF" d="M551,65.684c-1.314,0-2.176-0.927-2.176-2.133c0-1.164,0.84-2.176,2.176-2.176
			c1.078,0,2.111,0.84,2.111,2.154C553.112,64.563,552.272,65.684,551,65.684z M551,62.258c-0.754,0-1.293,0.539-1.293,1.293
			c0,0.689,0.582,1.25,1.293,1.25c0.754,0,1.229-0.625,1.229-1.271C552.229,62.818,551.711,62.258,551,62.258z M567.289,72.966
			c-1.465,3.856-3.9,5.063-6.356,5.063c-6.14,0-6.873-4.891-6.873-7.196c0-2.413,0.668-4.287,2.047-5.623
			c1.357-1.357,2.845-2.025,4.417-2.025c1.702,0,3.103,0.345,4.201,1.077c1.121,0.732,1.875,1.638,2.327,2.715l-1.466,1.185
			c-0.495-1.163-1.723-3.103-4.653-3.103c-1.788,0-4.999,1.013-4.999,5.903c0,2.327,1.357,5.192,4.999,5.192
			c0.991,0,1.917-0.322,2.758-0.99c0.798-0.625,1.444-1.659,1.917-3.06L567.289,72.966z"/>
		<path fill="#FFFFFF" d="M577.758,74.775c0.451-1.379,0.926-3.512,1.141-5.063l2.932-0.28c-0.561,1.788-1.466,4.008-2.198,5.149
			L577.758,74.775z"/>
		<path fill="#FFFFFF" d="M598.115,78.18V65.964h-6.012v-1.831h5.279c-0.604-1.121-1.164-1.982-1.66-2.586l1.53-1.013
			c0.603,0.732,1.249,1.702,1.874,2.888l-1.185,0.711h5.731c0.797-1.444,1.357-2.629,1.723-3.62l1.682,0.754
			c-0.303,0.862-0.711,1.832-1.271,2.866h4.654v1.831h-5.969V78.18h6.313v1.832h-19.132V78.18H598.115z M594.797,76.154
			c-0.797-3.253-1.638-5.816-2.5-7.648l1.725-0.625c0.99,2.025,1.831,4.611,2.542,7.757L594.797,76.154z M599.947,78.18h2.714
			V65.964h-2.714V78.18z M606,75.681c1.25-3.253,2.025-5.903,2.371-7.972l1.787,0.452c-0.387,2.327-1.185,5.021-2.391,8.08
			L606,75.681z"/>
		<path fill="#FFFFFF" d="M615.026,71.522v-5.321h-2.068v-1.832h2.068v-3.662h1.832v3.662h1.766v1.832h-1.766v4.373l1.336-0.818
			l0.969,1.551c-0.926,0.668-1.702,1.121-2.305,1.336v5.774c0,0.862-0.496,2.047-1.811,2.047c-0.561,0-1.293-0.151-2.176-0.431
			l0.107-1.918c0.561,0.237,1.293,0.539,1.594,0.539c0.26,0,0.453-0.259,0.453-0.732v-4.331l-1.336,0.604l-0.947-1.573
			L615.026,71.522z M619.334,78.223c0.862-0.56,1.703-1.379,2.436-2.435l-3.836,0.755c-0.107-0.496-0.279-1.013-0.517-1.573
			l1.336-0.28c0.646-0.84,1.335-1.917,2.068-3.231c-1.034-1.25-2.134-2.263-3.253-3.06l0.947-1.379l0.754,0.604
			c0.41-1.034,0.797-2.155,1.143-3.34l1.551,0.604c-0.279,0.947-0.775,2.219-1.486,3.856l1.077,1.099
			c0.538-1.314,0.927-2.585,1.142-3.771l1.638,0.28c-0.345,2.176-1.53,4.826-3.577,7.907l1.746-0.345l0.344-1.659l1.617,0.259v0.215
			l-0.798,3.038c-0.797,1.939-2.435,3.577-4.869,4.826l-1.228-1.465L619.334,78.223z M624.549,62.107v-1.4h1.831v1.4h6.313v1.658
			h-13.919v-1.658H624.549z M630.538,78.267h2.263v1.658h-7.023c-0.389,0-0.604-0.215-0.604-0.624v-8.727l-0.561,0.862
			c-0.496-0.496-0.927-0.841-1.336-1.013c1.314-1.767,2.154-3.856,2.478-6.227l1.702,0.431c-0.15,0.732-0.366,1.486-0.646,2.284
			h2.111c0.41-0.991,0.711-1.832,0.862-2.543l1.595,0.539l-0.625,2.004h1.982l-0.151,1.658h-2.047v2.112h2.155v1.68h-2.155v2.112
			h2.155v1.658h-2.155V78.267z M628.793,70.683V68.57h-1.615c-0.173,0-0.26,0.087-0.26,0.237v1.875H628.793z M628.793,74.475v-2.112
			h-1.875v2.112H628.793z M628.793,78.267v-2.134h-1.875v1.875c0,0.172,0.087,0.259,0.26,0.259H628.793z"/>
		<path fill="#FFFFFF" d="M640.77,76.392v4.029h-1.831V68.808l-0.517,0.388c-0.949,0.689-1.939,1.336-3.018,1.896l-1.184-1.616
			c2.908-1.443,5.299-3.296,7.174-5.537h-6.809v-1.831h8.102l1.034-1.681l1.638,1.013l-0.41,0.668h9.114v1.831h-10.342
			c-0.689,0.927-1.444,1.831-2.241,2.629h10.428c0.324,0,0.475,0.15,0.475,0.452v11.269c0,0.732-0.259,2.197-2.973,2.197
			c-0.841,0-1.854-0.15-3.018-0.409v-2.047c1.229,0.366,2.177,0.538,2.822,0.538c1.271,0,1.336-0.861,1.336-1.013v-1.163H640.77z
			 M640.77,70.596h9.781v-2.047c0-0.107-0.064-0.15-0.172-0.15h-9.48c-0.107,0-0.129,0.043-0.129,0.15V70.596z M640.77,74.561h9.781
			v-2.133h-9.781V74.561z"/>
		<path fill="#FFFFFF" d="M659.77,74.259c0.775,1.034,1.789,1.896,3.017,2.542c1.271-0.797,2.047-1.96,2.263-3.447h-7.348
			c-0.172,0-0.258-0.064-0.258-0.236v-8.23c0-0.173,0.086-0.259,0.258-0.259h7.477v-1.616h-8.618v-1.831h18.702v1.831h-8.252v1.616
			h7.152c0.172,0,0.259,0.086,0.259,0.259v8.23c0,0.172-0.087,0.236-0.259,0.236h-7.282c-0.302,1.702-1.013,3.124-2.09,4.245
			c1.853,0.452,4.353,0.689,7.476,0.668h3.447l-0.538,2.003h-2.154l-2.392-0.086c-3.017-0.172-5.58-0.604-7.691-1.314
			c-1.66,0.711-3.729,1.25-6.141,1.595l-0.646-2.025c1.594-0.086,3.124-0.323,4.611-0.711c-0.841-0.625-1.617-1.422-2.328-2.413
			L659.77,74.259z M665.178,68.248v-1.961h-5.839c-0.064,0-0.086,0.021-0.064,0.086v1.875H665.178z M665.178,71.695v-1.789h-5.903
			v1.681c-0.021,0.064,0,0.086,0.064,0.108H665.178z M667.01,66.287v1.961h5.58v-1.875c0-0.064-0.021-0.086-0.086-0.086H667.01z
			 M667.01,69.906v1.789h5.494l0.086-0.108v-1.681H667.01z"/>
		<path fill="#FFFFFF" d="M679.719,72.19v0.323l-1.832-0.086v-6.205c0-0.259,0.107-0.302,0.432-0.41h3.856V63.12
			c0-0.194-0.087-0.28-0.28-0.28h-3.986v-1.832h5.797c0.193,0,0.301,0.108,0.301,0.302v6.55h-1.831v-0.215h-2.177l-0.193,0.064
			l-0.086,0.193v2.306h3.813c0.302,0.021,0.431,0.173,0.431,0.431c0,3.986-0.107,6.83-0.172,7.326
			c-0.237,1.938-2.176,2.24-2.822,2.24c-0.668,0-1.66-0.215-2.952-0.582l-0.065-2.003c1.25,0.409,2.241,0.603,2.931,0.603
			c0.841,0,1.077-0.279,1.206-0.732c0.108-0.345,0.151-2.047,0.173-5.105c0-0.13-0.107-0.216-0.259-0.194H679.719z M695.166,79.192
			l-10.363,1.12l-0.322-1.81l5.451-0.581v-3.125h-4.783c-0.151,0-0.237-0.086-0.237-0.258v-6.313c0-0.15,0.086-0.236,0.237-0.236
			h4.783v-1.875l-4.935,0.345l-0.431-1.788l2.262-0.129c0.646-1.229,1.25-2.586,1.746-4.029l1.637,0.646
			c-0.279,0.884-0.754,1.982-1.357,3.253l5.387-0.301l-1.4-2.025l1.443-0.905c1.422,1.939,2.521,3.598,3.211,4.934l-1.509,0.841
			l-0.689-1.207l-3.534,0.259v1.982h4.59c0.15,0,0.236,0.086,0.236,0.236v6.313c0,0.172-0.086,0.258-0.236,0.258h-4.59v2.931
			l2.629-0.28l-0.775-1.572l1.681-0.711c1.099,2.305,1.788,3.899,2.068,4.761l-1.724,0.582L695.166,79.192z M689.932,73.139V69.67
			h-3.211c-0.064,0-0.086,0.021-0.064,0.043v3.339l0.064,0.087H689.932z M691.762,69.67v3.469h2.996l0.086-0.087v-3.339
			l-0.086-0.043H691.762z"/>
		<path fill="#FFFFFF" d="M701.52,79.301v0.969h-1.831V63.658c-0.021-0.193,0.087-0.28,0.302-0.28h2.219l0.949-2.822l1.701,0.625
			l-0.732,2.197h3.211c0.279,0,0.408,0.108,0.408,0.366V80.27h-1.83v-0.969H701.52z M701.52,70.531h4.396v-5.085
			c0-0.172-0.087-0.236-0.281-0.236h-3.855c-0.195,0-0.281,0.064-0.26,0.236V70.531z M705.916,72.362h-4.396v5.106h4.396V72.362z
			 M711.086,64.606c-0.366,1.336-0.883,2.456-1.443,3.361l-1.788-0.604c1.206-2.025,1.96-4.244,2.133-6.614l1.81,0.172l-0.258,1.832
			h6.119c0.494,0.107,0.668,0.15,0.668,1.056c0,3.188-0.044,5.968-0.13,8.445c-0.108,4.072-0.927,6.593-2.435,7.52
			c-0.41,0.302-1.013,0.431-1.789,0.431c-1.012,0-2.326-0.236-3.92-0.711V77.34c1.594,0.561,2.844,0.84,3.684,0.84
			c0.818,0,1.379-0.172,2.133-1.853c0.539-1.486,0.646-6.119,0.646-9.609c0-1.443,0-2.111-0.323-2.111H711.086z M713.112,74.905
			c-0.646-2.499-1.486-4.805-2.499-6.938l1.724-0.582c1.207,3.038,2.09,5.387,2.521,7.045L713.112,74.905z"/>
		<path fill="#FFFFFF" d="M726.531,75.4v-6.743h-3.771v11.678h-1.745V61.72c0-0.259,0.15-0.41,0.432-0.41h11.569
			c0.28,0,0.431,0.151,0.431,0.41v16.697c0,1.314-0.904,2.047-2.693,2.047c-0.711,0-1.551-0.107-2.542-0.345V78.18
			c1.034,0.323,1.831,0.475,2.37,0.475c1.012,0,1.12-0.711,1.12-0.927v-9.07h-3.685V75.4h0.948c0.173,0,0.259-0.086,0.259-0.258
			v-5.646h1.486v6.657c0,0.496-0.236,0.733-0.732,0.733h-5.43c-0.474,0-0.711-0.237-0.711-0.733v-6.657h1.486v5.646
			c0,0.172,0.087,0.258,0.238,0.258H726.531z M730.668,64.262c-0.215,0.818-0.561,1.745-1.013,2.736h2.047v-3.813
			c0-0.086-0.043-0.13-0.151-0.13h-8.66c-0.086,0-0.13,0.044-0.13,0.13v3.813h5.042c0.625-1.336,1.056-2.435,1.293-3.34
			L730.668,64.262z M725.088,66.804c-0.345-0.904-0.711-1.702-1.078-2.37l1.509-0.624c0.431,0.775,0.819,1.615,1.12,2.478
			L725.088,66.804z M734.912,61.892h1.746V75.81h-1.746V61.892z M737.929,60.707h1.745V78.46c0,0.259,0,2.004-2.09,2.004
			c-0.646,0-1.486-0.107-2.478-0.366l0.043-1.81l1.314,0.388c0.237,0.043,0.452,0.064,0.646,0.064c0.625,0,0.819-0.173,0.819-0.732
			V60.707z"/>
		<path fill="#FFFFFF" d="M744.477,64.801l0.365-1.616h-2.003v-1.509h2.263l0.172-1.185l1.615,0.323l-0.15,0.861h3.814
			c0.279,0,0.408,0.151,0.408,0.432v2.693h1.293v1.486h-10.191v-1.486H744.477z M747.73,77.663h-5.58v-1.659h1.379v-1.595h-1.142
			v-1.572h5.343v-1.164h-4.739c-0.151,0-0.217-0.086-0.217-0.215v-3.922c0-0.15,0.065-0.215,0.217-0.215h8.273
			c0.15,0,0.236,0.064,0.236,0.215v3.922c0,0.129-0.086,0.215-0.236,0.215h-1.854v1.164h2.176v1.572h-2.176v1.595h2.521v1.659
			h-2.521v2.779h-1.681V77.663z M749.755,68.808h-5.257c-0.064,0-0.086,0.021-0.064,0.064v1.229l0.064,0.086h5.257l0.086-0.086
			v-1.229L749.755,68.808z M747.73,76.004v-1.595h-2.542v1.595H747.73z M746.156,64.801h3.061v-1.401
			c0-0.129-0.065-0.215-0.217-0.215h-2.498L746.156,64.801z M755.701,62.883h-3.016v-1.767h8.035l0.367,0.086
			c0.172,0.129,0.279,0.452,0.279,0.927l-0.086,9.329c-0.064,4.503-0.604,7.261-1.615,8.273c-0.324,0.366-0.927,0.538-1.789,0.538
			c-0.604,0-1.293-0.086-2.133-0.236l-0.301-2.025c0.969,0.193,1.723,0.28,2.24,0.28c0.818,0,1.186,0,1.615-2.155
			c0.281-1.788,0.303-4.546,0.303-9.631c0-2.24-0.021-3.403-0.064-3.49c-0.044-0.086-0.108-0.129-0.217-0.129h-1.873v3.49
			c-0.108,5.817-2.134,11.483-4.008,13.789l-1.811-0.561c2.758-3.878,4.094-8.295,4.072-13.229V62.883z M752.254,71.803
			c0.604-2.499,0.905-4.524,0.948-6.055l1.595,0.194c-0.043,1.745-0.367,3.771-0.948,6.162L752.254,71.803z"/>
		<path fill="#FFFFFF" d="M769.36,67.257h-2.328v5.149c0,2.887-0.646,5.429-1.874,7.54l-1.638-0.711
			c1.422-2.563,1.725-4.18,1.768-7.368v-9.48c0-0.322,0.172-0.495,0.474-0.495h7.304V60.47h1.832v1.422h8.035v1.745h-3.145v1.875
			h3.102v1.745h-3.102v2.499c0,0.582-0.303,0.861-0.862,0.861h-8.726c-0.561,0-0.84-0.279-0.84-0.861V67.257z M782.653,80.507
			c-3.017-0.495-5.645-1.185-7.864-2.025c-2.542,1.013-5.149,1.724-7.778,2.09l-0.604-1.81c2.758-0.345,4.375-0.689,6.228-1.271
			c-1.423-0.689-2.672-1.443-3.813-2.176l0.646-1.745c1.81,1.314,3.598,2.327,5.321,3.038c2.845-1.487,4.158-3.038,4.158-3.146
			c0-0.087-0.151-0.065-0.237-0.065h-10.406v-1.745h12.088l1.271,1.056c-0.97,1.789-2.585,3.361-4.762,4.697
			c2.047,0.561,4.245,0.991,6.593,1.229L782.653,80.507z M769.36,65.512v-1.875h-2.09c-0.151,0-0.238,0.086-0.238,0.237v1.638
			H769.36z M777.955,65.512v-1.875h-6.766v1.875H777.955z M777.655,68.872c0.193,0,0.301-0.086,0.301-0.28v-1.335h-6.766v1.335
			c0,0.194,0.108,0.28,0.303,0.28H777.655z"/>
	</g>
	<polyline fill="none" stroke="#FFFFFF" stroke-width="1.1968" stroke-miterlimit="10" points="300.354,72.672 225.022,14.84 
		20.324,14.84 	"/>
	<g enable-background="new    ">
		<path fill="#FFFFFF" d="M27.736,36.273h-1.271v11.333h-1.659V36.273h-1.12c-0.086,0-0.129,0.043-0.129,0.129v13.121h-1.745v-14.37
			c0-0.41,0.215-0.625,0.603-0.625h2.628l0.604-2.198H21.38v-1.745h11.397v1.745h-5.257l-0.582,2.198h4.913
			c0.409,0,0.625,0.215,0.625,0.625v12.518c0,0.754-0.28,1.314-0.818,1.724c-0.345,0.237-0.905,0.345-1.681,0.345
			c-0.496,0-1.077-0.043-1.745-0.129l-0.194-1.961c0.754,0.216,1.357,0.323,1.745,0.323c0.689,0,0.948-0.539,0.948-0.905V36.402
			c0-0.086-0.043-0.129-0.15-0.129h-1.185v11.16h-1.659V36.273z M37.755,34.852h-4.912v-1.745h4.912v-3.189h1.832v3.189h1.357v1.745
			h-1.357V47.52c0,0.646-0.323,2.241-2.585,2.241c-0.754,0-1.681-0.15-2.801-0.431v-1.896l0.302,0.064
			c0.905,0.259,1.616,0.367,2.155,0.367c0.969,0,1.099-0.346,1.099-0.819V34.852z M34.911,44.806
			c-0.323-2.909-0.84-5.494-1.508-7.714l1.788-0.345c0.754,2.931,1.293,5.559,1.53,7.864L34.911,44.806z"/>
		<path fill="#FFFFFF" d="M58.63,35.433h-7.541V33.86h7.541v-1.314h-7.691l-0.927,1.53v5.45h-1.659V36.23
			c-0.517,0.56-1.056,1.034-1.53,1.422l-1.056-0.862v3.038c0,3.771-0.496,7.002-1.465,9.609L42.6,48.877
			c1.013-2.951,1.379-4.826,1.422-9.587v-7.95c0-0.323,0.151-0.453,0.474-0.453h7.735v-1.142h1.832v1.142h8.381v1.659h-2.154v1.314
			h2.025v1.572h-2.025v2.068c0,1.1-0.732,2.047-2.349,2.047c-0.582,0-1.292-0.086-2.111-0.302l-0.064-1.723
			c0.797,0.193,1.422,0.279,1.875,0.279c0.754,0,0.991-0.193,0.991-0.711V35.433z M45.767,36.23
			c1.077-0.905,2.046-1.854,3.188-3.685h-2.973c-0.151,0-0.215,0.064-0.215,0.194V36.23z M58.802,45.085
			c-1.939-0.517-3.598-1.422-4.955-2.714c-0.884,1.142-2.327,2.068-4.331,2.758l-0.905-1.487c1.853-0.538,3.124-1.185,3.706-1.938
			h-3.814c-0.086,0-0.129,0.043-0.129,0.129v7.778h-1.745v-8.985c0-0.279,0.129-0.409,0.409-0.409h5.925l0.129-1.142l1.659,0.107
			l-0.129,1.034h6.809c0.258,0,0.409,0.13,0.409,0.409v7.153c0,1.186-0.84,2.09-2.607,2.09c-0.689,0-1.487-0.107-2.413-0.28
			l-0.065-1.938c0.905,0.237,1.638,0.366,2.155,0.366c1.142,0,1.185-0.754,1.185-0.948v-5.235c0-0.086-0.043-0.129-0.151-0.129
			h-4.589c1.077,0.883,2.5,1.508,4.223,1.831L58.802,45.085z M58.587,47.778c-1.724-0.345-3.361-0.948-4.848-1.831
			c-0.883,0.861-2.262,1.616-4.137,2.24l-0.819-1.529c1.443-0.409,3.447-0.991,4.719-3.253l1.529,0.603l-0.409,0.754
			c1.443,0.755,3.017,1.271,4.675,1.444L58.587,47.778z M54.213,38.579c-0.733-0.668-1.444-1.229-2.068-1.573l1.056-1.293
			c0.84,0.561,1.551,1.121,2.154,1.659L54.213,38.579z"/>
		<path fill="#FFFFFF" d="M72.911,36.726c1.53,1.271,3.663,3.404,4.74,4.676l-1.767,1.615c-1.012-1.313-3.21-3.641-4.589-4.869
			L72.911,36.726z"/>
		<path fill="#FFFFFF" d="M92.365,36.273h-1.271v11.333h-1.659V36.273h-1.121c-0.086,0-0.129,0.043-0.129,0.129v13.121H86.44v-14.37
			c0-0.41,0.215-0.625,0.603-0.625h2.628l0.604-2.198h-4.266v-1.745h11.397v1.745h-5.257l-0.582,2.198h4.913
			c0.409,0,0.625,0.215,0.625,0.625v12.518c0,0.754-0.28,1.314-0.819,1.724c-0.345,0.237-0.905,0.345-1.681,0.345
			c-0.496,0-1.077-0.043-1.745-0.129l-0.194-1.961c0.754,0.216,1.357,0.323,1.745,0.323c0.689,0,0.948-0.539,0.948-0.905V36.402
			c0-0.086-0.043-0.129-0.151-0.129h-1.185v11.16h-1.659V36.273z M102.383,34.852h-4.912v-1.745h4.912v-3.189h1.832v3.189h1.357
			v1.745h-1.357V47.52c0,0.646-0.323,2.241-2.585,2.241c-0.754,0-1.681-0.15-2.801-0.431v-1.896l0.301,0.064
			c0.905,0.259,1.616,0.367,2.155,0.367c0.969,0,1.099-0.346,1.099-0.819V34.852z M99.539,44.806
			c-0.323-2.909-0.84-5.494-1.508-7.714l1.788-0.345c0.754,2.931,1.293,5.559,1.53,7.864L99.539,44.806z"/>
		<path fill="#FFFFFF" d="M116.364,31.253v-1.508h1.81v1.508h8.769v1.745h-19.477v-1.745H116.364z M122.569,47.649
			c0,0.107-0.021,0.172-0.086,0.216c0.452,0.107,0.818,0.15,1.099,0.15c0.905,0,0.927-0.862,0.927-0.948v-5.386
			c0-0.087-0.043-0.13-0.129-0.13h-14.306c-0.086,0-0.129,0.043-0.129,0.13v8.015h-1.832v-9.372c0-0.302,0.151-0.453,0.431-0.453
			h17.366c0.301,0,0.431,0.151,0.431,0.453v7.497c0,0.496-0.129,2.068-2.456,2.068c-0.625,0-1.357-0.086-2.219-0.279l-0.043-1.702
			h-9.501c-0.151,0-0.237-0.087-0.237-0.259v-4.633c0-0.15,0.086-0.236,0.237-0.236h10.191c0.172,0,0.258,0.086,0.258,0.236V47.649z
			 M124.077,38.729c0,0.173-0.086,0.259-0.258,0.259h-13.208c-0.151,0-0.237-0.086-0.237-0.259v-4.287
			c0-0.151,0.086-0.237,0.237-0.237h13.208c0.172,0,0.258,0.086,0.258,0.237V38.729z M122.245,35.864
			c0-0.065-0.021-0.087-0.086-0.087h-9.89c-0.064,0-0.086,0.021-0.064,0.087v1.422c-0.021,0.064,0,0.086,0.064,0.107h9.89
			l0.086-0.107V35.864z M120.823,44.374h-7.196c-0.064,0-0.086,0-0.064,0.044v1.81l0.064,0.086h7.196l0.064-0.086v-1.81
			L120.823,44.374z"/>
		<path fill="#FFFFFF" d="M132.024,39.246c-1.292-1.163-2.413-2.024-3.318-2.542l1.077-1.486c1.013,0.581,2.176,1.443,3.426,2.606
			L132.024,39.246z M128.771,48.813c1.422-2.521,2.198-5.192,2.327-7.993l1.831,0.129c-0.258,3.447-1.034,6.271-2.262,8.446
			L128.771,48.813z M132.52,34.377c-1.293-1.206-2.413-2.09-3.339-2.649l1.12-1.487c1.034,0.646,2.176,1.552,3.404,2.715
			L132.52,34.377z M134.329,47.542v-6.658c0-0.388,0.173-0.581,0.582-0.581h12.324c0.41,0,0.604,0.193,0.604,0.581v6.658h1.056V49.2
			H132.8v-1.658H134.329z M147.343,38.945c0,0.15-0.086,0.236-0.259,0.236h-12.022c-0.151,0-0.237-0.086-0.237-0.236v-8.252
			c0-0.151,0.086-0.237,0.237-0.237h12.022c0.173,0,0.259,0.086,0.259,0.237V38.945z M136.075,47.542h2.025v-5.581h-1.788
			c-0.172,0-0.237,0.087-0.237,0.259V47.542z M143.982,37.222c-0.905-0.819-2.025-1.724-3.339-2.693
			c-0.646,0.97-1.357,1.81-2.09,2.499l-1.292-1.077c1.185-0.948,2.154-2.241,2.865-3.835h-3.49c-0.064,0-0.086,0.021-0.064,0.064
			v5.257l0.064,0.087h8.876l0.086-0.087V32.18l-0.086-0.064h-3.706l-0.474,1.163c1.228,0.798,2.456,1.681,3.641,2.629
			L143.982,37.222z M139.845,47.542h2.219v-5.581h-2.219V47.542z M143.81,47.542h2.284v-5.344c0-0.15-0.086-0.237-0.237-0.237
			h-2.046V47.542z"/>
		<path fill="#FFFFFF" d="M159.083,36.726c1.53,1.271,3.663,3.404,4.74,4.676l-1.767,1.615c-1.013-1.313-3.21-3.641-4.589-4.869
			L159.083,36.726z"/>
	</g>
	<g enable-background="new    ">
		<path fill="#FFFFFF" d="M27.736,65.896h-1.271v11.333h-1.659V65.896h-1.12c-0.086,0-0.129,0.043-0.129,0.129v13.121h-1.745v-14.37
			c0-0.41,0.215-0.625,0.603-0.625h2.628l0.604-2.198H21.38v-1.745h11.397v1.745h-5.257l-0.582,2.198h4.913
			c0.409,0,0.625,0.215,0.625,0.625v12.518c0,0.754-0.28,1.314-0.818,1.724c-0.345,0.237-0.905,0.345-1.681,0.345
			c-0.496,0-1.077-0.043-1.745-0.129l-0.194-1.961c0.754,0.216,1.357,0.323,1.745,0.323c0.689,0,0.948-0.539,0.948-0.905V66.024
			c0-0.086-0.043-0.129-0.15-0.129h-1.185v11.16h-1.659V65.896z M37.755,64.474h-4.912v-1.745h4.912v-3.189h1.832v3.189h1.357v1.745
			h-1.357v12.668c0,0.646-0.323,2.241-2.585,2.241c-0.754,0-1.681-0.15-2.801-0.431v-1.896l0.302,0.064
			c0.905,0.259,1.616,0.367,2.155,0.367c0.969,0,1.099-0.346,1.099-0.819V64.474z M34.911,74.428
			c-0.323-2.909-0.84-5.494-1.508-7.714l1.788-0.345c0.754,2.931,1.293,5.559,1.53,7.864L34.911,74.428z"/>
		<path fill="#FFFFFF" d="M45.789,70.291l-2.866,0.323c-0.064-0.475-0.172-1.034-0.388-1.616l0.97-0.107
			c0.603-0.646,1.292-1.487,2.025-2.521c-0.991-0.926-2.025-1.659-3.081-2.24l0.776-1.466c0.086,0,0.323,0.13,0.668,0.389
			c0.625-1.121,1.228-2.327,1.788-3.642l1.465,0.775c-0.41,0.97-1.056,2.22-1.982,3.771l1.25,1.034
			c0.754-1.292,1.271-2.521,1.616-3.706l1.594,0.453c-0.56,2.025-1.896,4.33-4.05,6.873l2.93-0.366l-0.646-1.509l1.551-0.56
			c0.625,1.357,1.163,2.736,1.573,4.115l-1.573,0.431l-0.302-0.841l-1.573,0.216v9.157h-1.745V70.291z M42.535,77.81
			c0.323-1.68,0.582-3.748,0.711-6.161l1.616,0.215c-0.086,2.09-0.323,4.18-0.711,6.291L42.535,77.81z M49.882,71.648l0.884,5.149
			l-1.659,0.279l-0.84-5.02L49.882,71.648z M51.347,65.206c0-0.259,0.151-0.409,0.409-0.409h3.9
			c1.702-1.681,2.241-2.693,2.241-2.758c0-0.065-0.043-0.087-0.108-0.087h-4.18c-1.056,1.357-2.111,2.521-3.124,3.426l-1.336-1.271
			c1.789-1.444,3.167-2.995,4.051-4.59l1.573,0.475l-0.172,0.323h4.762l1.206,0.883c-0.646,1.121-1.529,2.327-2.563,3.599h3.576
			c0.28,0,0.431,0.15,0.431,0.409v6.787c0,0.279-0.151,0.431-0.431,0.431h-8.489v3.361c0,0.495,0,1.572,1.013,1.637h5.235
			c1.401,0,1.573-0.883,1.573-3.06l1.81,0.302c-0.108,1.573-0.409,2.736-0.926,3.447c-0.517,0.625-1.121,0.97-1.81,0.97h-6.205
			c-0.819,0-1.443-0.237-1.917-0.668c-0.345-0.366-0.517-0.926-0.517-1.745V65.206z M55.721,70.765v-4.309h-2.435
			c-0.129,0-0.194,0.064-0.194,0.193v4.115H55.721z M57.466,66.456v4.309h2.586c0.15,0,0.215-0.064,0.215-0.216v-3.899
			c0-0.129-0.065-0.193-0.215-0.193H57.466z"/>
		<path fill="#FFFFFF" d="M67.159,70.204l-2.672,0.323c-0.064-0.474-0.194-1.013-0.409-1.615l1.767-0.237
			c0.474-0.561,0.991-1.229,1.53-2.025c-1.056-0.948-2.133-1.702-3.21-2.262l0.754-1.466c0.107,0,0.366,0.173,0.862,0.496
			c0.603-1.186,1.207-2.543,1.745-3.986l1.487,0.711c-0.388,1.056-1.056,2.435-2.004,4.158l1.207,0.948
			c0.603-1.142,1.056-2.219,1.336-3.297l1.616,0.432c-0.388,1.637-1.487,3.641-3.296,6.011l1.53-0.216l-0.366-0.969l1.529-0.475
			c0.431,0.991,0.797,2.263,1.078,3.749l-1.53,0.409l-0.259-1.056l-0.948,0.13v9.286h-1.745V70.204z M64.315,77.831
			c0.41-2.197,0.625-4.266,0.625-6.161l1.637,0.193c-0.107,2.435-0.345,4.546-0.625,6.27L64.315,77.831z M69.96,75.85
			c-0.064-1.81-0.215-3.146-0.388-3.965l1.486-0.107c0.216,1.767,0.345,3.146,0.388,4.072H69.96z M72.76,64.56
			c-0.237,0-0.732,0-0.603-0.646l1.185-3.685c0.107-0.236,0.301-0.345,0.56-0.279h7.325c0.431-0.044,0.604,0.172,0.539,0.624
			l-1.336,5.193h3.426v1.745h-5.516l-0.561,0.581c1.25,1.143,2.047,2.543,2.37,4.158c0.711,1.443,2.068,3.06,3.986,4.826
			l-1.637,0.948c-0.97-1.034-1.702-1.917-2.198-2.629c-0.064,0.819-0.237,1.53-0.517,2.155c-0.302,0.797-0.948,1.853-2.585,1.853
			c-0.431,0-1.185-0.129-2.219-0.409l-0.043-1.831c0.883,0.236,1.573,0.366,2.047,0.366c0.194,0,0.345-0.021,0.452-0.065
			c0.776-0.345,1.185-2.003,1.229-3.231c-2.025,1.681-4.331,3.038-6.852,3.965l-1.034-1.487c3.06-0.97,5.602-2.521,7.627-4.567
			c-0.151-0.452-0.172-0.495-0.366-0.884c-1.81,1.638-3.534,2.736-5.171,3.275l-0.905-1.443c1.982-0.732,3.727-1.788,5.192-3.232
			l-0.646-0.646c-1.099,0.797-2.284,1.486-3.469,2.046l-1.077-1.379c1.702-0.646,3.124-1.443,4.18-2.369h-4.848v-1.745h7.39
			l0.301-1.207H72.76z M74.226,62.986h5.192l0.388-1.465h-5.128L74.226,62.986z M79.935,70.118c0.926-0.84,1.616-1.572,2.09-2.197
			l1.228,1.142c-0.517,0.689-1.228,1.443-2.154,2.241L79.935,70.118z"/>
		<path fill="#FFFFFF" d="M85.642,71.885c0.431-2.649,0.668-5.407,0.668-8.209l1.637,0.173c-0.086,3.188-0.323,5.968-0.689,8.316
			L85.642,71.885z M88.615,59.539h1.745v19.865h-1.745V59.539z M92.472,63.396l0.625,5.688l-1.573,0.173l-0.603-5.559L92.472,63.396
			z M98.677,76.991v-5.494h-4.331v-1.831h4.331v-4.978h-2.952c-0.28,0.905-0.582,1.681-0.927,2.327l-1.81-0.517
			c1.034-2.025,1.616-4.137,1.659-6.292l1.832,0.087c-0.064,0.947-0.151,1.81-0.302,2.563h2.5v-3.318h1.831v3.318h4.719v1.831
			h-4.719v4.978h4.46v1.831h-4.46v5.494h5.214v1.831H93.075v-1.831H98.677z"/>
		<path fill="#FFFFFF" d="M108.219,61.371c0.991-0.173,2.305-0.323,4.007-0.323c2.025,0,3.555,0.431,4.546,1.314
			c0.926,0.797,1.486,2.047,1.486,3.555c0,4.008-3.188,5.387-6.162,5.387c-0.518,0-0.991-0.021-1.401-0.108v6.464h-2.478V61.371z
			 M110.697,69.191c0.367,0.108,0.819,0.13,1.401,0.13c2.284,0,3.663-1.186,3.663-3.297c0-2.004-1.379-3.016-3.383-3.016
			c-0.775,0-1.357,0.086-1.681,0.15V69.191z"/>
		<path fill="#FFFFFF" d="M120.822,77.659V61.177h8.575v2.09h-6.076v5.085h5.645v2.068h-5.645v7.239H120.822z"/>
		<path fill="#FFFFFF" d="M144.154,77.659h-2.628l-1.487-4.848h-5.042l-1.422,4.848h-2.564l5.042-16.482h3.06L144.154,77.659z
			 M139.629,70.894l-1.292-4.309c-0.302-1.077-0.582-2.241-0.819-3.254h-0.043c-0.237,1.013-0.496,2.22-0.776,3.232l-1.314,4.33
			H139.629z"/>
		<path fill="#FFFFFF" d="M153.33,70.679c-0.604-1.034-1.379-2.154-2.241-3.383v11.958h-1.832V68.868
			c-0.754,1.789-1.486,3.211-2.154,4.181l-1.724-0.604c2.435-3.361,3.038-5.451,3.641-7.584h-3.167V63.03h3.404v-3.577h1.832v3.577
			h2.456v1.831h-2.327c1.292,1.508,2.478,3.081,3.576,4.74L153.33,70.679z M152.792,73.824c3.296-2.521,5.882-5.559,7.735-9.049
			h-5.494v-1.832h6.097v-3.339h1.832v3.339h2.435v1.832h-2.435v12.28c0,1.552-1.077,2.263-2.801,2.263
			c-0.97,0-2.241-0.216-3.771-0.625l0.043-1.918c1.487,0.453,2.628,0.668,3.426,0.668c1.12,0,1.271-0.366,1.271-0.861v-9.265
			c-2.068,3.404-4.374,6.011-6.808,7.778L152.792,73.824z"/>
		<path fill="#FFFFFF" d="M172.115,63.763h-2.284c-0.151,1.249-0.668,2.435-1.444,3.533l-1.551-1.186
			c0.819-0.969,1.271-2.024,1.314-3.188v-2.693c-0.021-0.388,0.129-0.603,0.517-0.603h1.25c2.09,0,3.921-0.087,5.473-0.302
			l0.517,1.702c-2.262,0.258-3.771,0.323-5.731,0.323c-0.28,0-0.28,0.086-0.28,0.754h7.455v1.659h-3.49v2.435h-1.745V63.763z
			 M180.518,76.561h-6.852l0.409,1.422c-1.745,0.668-3.943,1.206-6.571,1.595l-0.366-1.724c2.305-0.389,4.202-0.819,5.688-1.293
			h-3.49c-0.323,0-0.453-0.173-0.453-0.496v-9.049c0-0.302,0.129-0.452,0.453-0.452h8.338l-1.228-1.164
			c1.034-0.926,1.594-1.896,1.638-2.908v-2.349c0-0.388,0.151-0.581,0.496-0.581l1.96,0.021c1.724,0,3.361-0.065,4.891-0.259
			l0.474,1.702c-2.025,0.215-3.555,0.236-5.839,0.236c-0.237,0-0.237,0.087-0.237,0.841h7.11v1.659h-3.232v2.435h-1.745v-2.435
			h-2.262c-0.215,0.84-0.797,1.788-1.681,2.801h6.679c0.323,0,0.474,0.15,0.474,0.452v9.049c0,0.323-0.151,0.496-0.474,0.496h-3.06
			c1.508,0.215,3.189,0.668,5.085,1.314l-0.453,1.702c-2.478-0.798-4.503-1.271-6.076-1.444L180.518,76.561z M170.715,69.58h12.625
			v-1.271c0-0.064-0.021-0.086-0.064-0.086h-12.518c-0.064,0-0.064,0.043-0.043,0.086V69.58z M183.341,73.781h-12.625v1.013
			c-0.021,0.064,0,0.086,0.043,0.107h12.518l0.064-0.107V73.781z M170.715,72.272h12.625v-1.185h-12.625V72.272z"/>
	</g>
	<polyline fill="none" stroke="#FFFFFF" stroke-width="1.1968" stroke-miterlimit="10" points="414.861,68.89 492.953,18.622 
		784.68,18.622 	"/>
	
		<line fill="none" stroke="#FFFFFF" stroke-width="1.1968" stroke-miterlimit="10" x1="184.788" y1="14.84" x2="300.354" y2="110.774"/>
	
		<line fill="none" stroke="#FFFFFF" stroke-width="1.1968" stroke-miterlimit="10" x1="556.686" y1="195.4" x2="438.171" y2="145.107"/>
</g>
</svg>
