<?xml version="1.0" encoding="utf-8"?>
<!-- Generator: Adobe Illustrator 16.0.0, SVG Export Plug-In . SVG Version: 6.00 Build 0)  -->
<!DOCTYPE svg PUBLIC "-//W3C//DTD SVG 1.1//EN" "http://www.w3.org/Graphics/SVG/1.1/DTD/svg11.dtd">
<svg version="1.1" id="圖層_1" xmlns="http://www.w3.org/2000/svg" xmlns:xlink="http://www.w3.org/1999/xlink" x="0px" y="0px"
	 width="800px" height="246px" viewBox="0 0 800 246" enable-background="new 0 0 800 246" xml:space="preserve">
<g>
	<g>
		
			<text transform="matrix(1 0 0 1 297.1582 197.9033)" fill="#2D3D55" font-family="'AdobeFanHeitiStd-Bold-B5pc-H'" font-size="30.1126" letter-spacing="1">訊號結合電力多芯線</text>
	</g>
	<path fill="#013047" stroke="#FFFFFF" stroke-width="4.9136" stroke-miterlimit="10" d="M246.518,123.72
		c0,60.425-48.985,109.41-109.409,109.41c-60.425,0-109.413-48.985-109.413-109.41c0-60.425,48.987-109.413,109.413-109.413
		C197.533,14.307,246.518,63.294,246.518,123.72z"/>
	<path fill="#013047" stroke="#FFFFFF" stroke-width="6.1254" stroke-miterlimit="10" d="M227.38,123.72
		c0,49.854-40.417,90.271-90.271,90.271c-49.861,0-90.272-40.417-90.272-90.271c0-49.858,40.411-90.273,90.272-90.273
		C186.962,33.447,227.38,73.862,227.38,123.72z"/>
	<path fill="#013047" d="M203.726,123.72c0,36.792-29.827,66.621-66.617,66.621c-36.796,0-66.62-29.829-66.62-66.621
		c0-36.792,29.824-66.623,66.62-66.623C173.899,57.097,203.726,86.928,203.726,123.72z"/>
	<path fill="#013047" stroke="#FFFFFF" stroke-width="2.2353" stroke-miterlimit="10" d="M113.589,79.026
		c0,10.826-8.776,19.598-19.602,19.598c-10.824,0-19.6-8.772-19.6-19.598c0-10.83,8.776-19.603,19.6-19.603
		C104.813,59.423,113.589,68.196,113.589,79.026z"/>
	<path fill="#013047" stroke="#FFFFFF" stroke-width="2.2353" stroke-miterlimit="10" d="M154.09,58.124
		c0,10.825-8.776,19.597-19.6,19.597c-10.825,0-19.6-8.772-19.6-19.597c0-10.827,8.775-19.602,19.6-19.602
		C145.313,38.522,154.09,47.297,154.09,58.124z"/>
	<circle fill="#013047" stroke="#FFFFFF" stroke-width="2.2353" stroke-miterlimit="10" cx="176.597" cy="75.809" r="19.6"/>
	<path fill="#013047" stroke="#FFFFFF" stroke-width="2.2353" stroke-miterlimit="10" d="M102.336,159.23
		c0,10.826-8.777,19.6-19.602,19.6c-10.823,0-19.602-8.774-19.602-19.6c0-10.827,8.779-19.601,19.602-19.601
		C93.559,139.629,102.336,148.403,102.336,159.23z"/>
	<circle fill="#013047" stroke="#FFFFFF" stroke-width="2.2353" stroke-miterlimit="10" cx="161.018" cy="134.71" r="19.601"/>
	<path fill="#013047" stroke="#FFFFFF" stroke-width="2.2353" stroke-miterlimit="10" d="M139.531,185.698
		c0,10.826-8.775,19.599-19.602,19.599c-10.825,0-19.6-8.773-19.6-19.599c0-10.829,8.775-19.603,19.6-19.603
		C130.756,166.095,139.531,174.869,139.531,185.698z"/>
	<path fill="#013047" stroke="#FFFFFF" stroke-width="2.2353" stroke-miterlimit="10" d="M183.744,182.481
		c0,10.826-8.773,19.598-19.601,19.598c-10.823,0-19.601-8.772-19.601-19.598c0-10.828,8.777-19.601,19.601-19.601
		C174.97,162.88,183.744,171.653,183.744,182.481z"/>
	<path fill="#013047" stroke="#FFFFFF" stroke-width="2.2353" stroke-miterlimit="10" d="M217.099,156.017
		c0,10.823-8.773,19.598-19.6,19.598c-10.825,0-19.6-8.775-19.6-19.598c0-10.83,8.775-19.602,19.6-19.602
		C208.325,136.415,217.099,145.187,217.099,156.017z"/>
	<circle fill="#013047" stroke="#FFFFFF" stroke-width="2.2353" stroke-miterlimit="10" cx="76.586" cy="117.301" r="19.6"/>
	<path fill="#013047" stroke="#FFFFFF" stroke-width="2.2353" stroke-miterlimit="10" d="M139.503,140.613
		c0,10.829-8.777,19.601-19.601,19.601c-10.825,0-19.601-8.772-19.601-19.601c0-10.824,8.775-19.6,19.601-19.6
		C130.726,121.013,139.503,129.789,139.503,140.613z"/>
	<circle fill="#013047" stroke="#FFFFFF" stroke-width="2.2353" stroke-miterlimit="10" cx="134.679" cy="102.027" r="19.601"/>
	<circle fill="#013047" stroke="#FFFFFF" stroke-width="2.2353" stroke-miterlimit="10" cx="202.915" cy="112.479" r="19.601"/>
	
		<line fill="none" stroke="#DD5519" stroke-width="2.7375" stroke-miterlimit="10" x1="208.45" y1="59.073" x2="291.257" y2="59.073"/>
	
		<line fill="none" stroke="#DD5519" stroke-width="2.7375" stroke-miterlimit="10" x1="122.903" y1="185.501" x2="291.257" y2="185.501"/>
	<g>
		<text transform="matrix(1 0 0 1 299.5044 50.4375)"><tspan x="0" y="0" fill="#2D3D55" font-family="'AdobeFanHeitiStd-Bold-B5pc-H'" font-size="30.1126" letter-spacing="1">外被使用矽膠環保材質，優秀的化</tspan><tspan x="0" y="38.325" fill="#2D3D55" font-family="'AdobeFanHeitiStd-Bold-B5pc-H'" font-size="30.1126" letter-spacing="1">學安穩性，耐高電壓、耐老化、耐</tspan><tspan x="0" y="76.65" fill="#2D3D55" font-family="'AdobeFanHeitiStd-Bold-B5pc-H'" font-size="30.1126" letter-spacing="1">繞曲、壽命長。</tspan></text>
	</g>
</g>
</svg>
