<?xml version="1.0" encoding="utf-8"?>
<!-- Generator: Adobe Illustrator 16.0.0, SVG Export Plug-In . SVG Version: 6.00 Build 0)  -->
<!DOCTYPE svg PUBLIC "-//W3C//DTD SVG 1.1//EN" "http://www.w3.org/Graphics/SVG/1.1/DTD/svg11.dtd">
<svg version="1.1" xmlns="http://www.w3.org/2000/svg" xmlns:xlink="http://www.w3.org/1999/xlink" x="0px" y="0px" width="320px"
	 height="320px" viewBox="0 0 320 320" enable-background="new 0 0 320 320" xml:space="preserve">
<g id="高溫線">
	<g>
		<path fill="none" stroke="#231815" stroke-width="2" stroke-miterlimit="10" d="M248.561,264.648
			c0.993,0.992,2.149,1.446,2.579,1.018l6.076-6.083c0.428-0.429-0.026-1.58-1.018-2.571l-52.107-52.107l-7.637,7.632
			L248.561,264.648z"/>
		<path fill="none" stroke="#231815" stroke-miterlimit="10" d="M45.115,80.223c-1.507-1.507-1.507-3.943,0-5.448l21.214-21.219
			c1.508-1.502,3.938-1.505,5.446,0.001l139.11,139.106c1.5,1.503,1.5,3.942,0,5.444l-21.224,21.219
			c-1.503,1.505-3.938,1.507-5.445,0.001L45.115,80.223z"/>
		<g>
			<defs>
				<path id="SVGID_3_" d="M45.115,80.223c-1.507-1.507-1.507-3.941-0.01-5.443l21.224-21.224c1.503-1.501,3.938-1.505,5.446,0.003
					l139.11,139.104c1.5,1.504,1.5,3.942,0,5.443l-21.224,21.224c-1.503,1.502-3.938,1.502-5.445-0.004L45.115,80.223z"/>
			</defs>
			<clipPath id="SVGID_4_">
				<use xlink:href="#SVGID_3_"  overflow="visible"/>
			</clipPath>
			<g clip-path="url(#SVGID_4_)">
				<rect x="32.555" y="51.367" fill="none" stroke="#231815" stroke-miterlimit="10" width="181.151" height="169.208"/>
				<line fill="none" stroke="#231815" stroke-miterlimit="10" x1="52.676" y1="51.37" x2="52.676" y2="220.575"/>
				<line fill="none" stroke="#231815" stroke-miterlimit="10" x1="72.804" y1="51.367" x2="72.804" y2="220.575"/>
				<line fill="none" stroke="#231815" stroke-miterlimit="10" x1="92.925" y1="51.368" x2="92.921" y2="220.575"/>
				<line fill="none" stroke="#231815" stroke-miterlimit="10" x1="113.05" y1="51.367" x2="113.05" y2="220.57"/>
				<line fill="none" stroke="#231815" stroke-miterlimit="10" x1="133.214" y1="51.368" x2="133.214" y2="220.574"/>
				<line fill="none" stroke="#231815" stroke-miterlimit="10" x1="153.339" y1="51.367" x2="153.339" y2="220.574"/>
				<line fill="none" stroke="#231815" stroke-miterlimit="10" x1="173.463" y1="51.367" x2="173.463" y2="220.574"/>
				<line fill="none" stroke="#231815" stroke-miterlimit="10" x1="193.58" y1="51.367" x2="193.58" y2="220.574"/>
				<line fill="none" stroke="#231815" stroke-miterlimit="10" x1="213.706" y1="201.777" x2="32.555" y2="201.777"/>
				<line fill="none" stroke="#231815" stroke-miterlimit="10" x1="213.706" y1="182.98" x2="32.555" y2="182.983"/>
				<line fill="none" stroke="#231815" stroke-miterlimit="10" x1="213.706" y1="164.185" x2="32.555" y2="164.187"/>
				<line fill="none" stroke="#231815" stroke-miterlimit="10" x1="213.706" y1="145.389" x2="32.555" y2="145.392"/>
				<line fill="none" stroke="#231815" stroke-miterlimit="10" x1="213.706" y1="126.552" x2="32.555" y2="126.553"/>
				<line fill="none" stroke="#231815" stroke-miterlimit="10" x1="213.706" y1="107.755" x2="32.555" y2="107.759"/>
				<line fill="none" stroke="#231815" stroke-miterlimit="10" x1="213.706" y1="88.959" x2="32.555" y2="88.962"/>
				<line fill="none" stroke="#231815" stroke-miterlimit="10" x1="213.706" y1="70.161" x2="32.555" y2="70.166"/>
			</g>
			<use xlink:href="#SVGID_3_"  overflow="visible" fill="none" stroke="#231815" stroke-miterlimit="10"/>
		</g>
		<g>
			<defs>
				<path id="SVGID_5_" d="M46.025,81.137c-1.509-1.507-1.509-3.942,0-5.443l21.224-21.225c1.5-1.501,3.932-1.501,5.438,0.005
					l139.107,139.104c1.502,1.504,1.507,3.941,0.008,5.443l-21.231,21.224c-1.497,1.503-3.939,1.5-5.438-0.003L46.025,81.137z"/>
			</defs>
			<clipPath id="SVGID_6_">
				<use xlink:href="#SVGID_5_"  overflow="visible"/>
			</clipPath>
			<g clip-path="url(#SVGID_6_)">
				<polygon fill="none" stroke="#231815" stroke-width="4" stroke-miterlimit="10" points="214.622,52.281 214.622,221.49 
					33.463,221.49 33.471,52.285 				"/>
				<line fill="none" stroke="#231815" stroke-width="4" stroke-miterlimit="10" x1="73.72" y1="52.281" x2="73.712" y2="221.49"/>
				
					<line fill="none" stroke="#231815" stroke-width="4" stroke-miterlimit="10" x1="113.961" y1="52.281" x2="113.967" y2="221.483"/>
				<line fill="none" stroke="#231815" stroke-width="4" stroke-miterlimit="10" x1="154.25" y1="52.281" x2="154.25" y2="221.49"/>
				<line fill="none" stroke="#231815" stroke-width="4" stroke-miterlimit="10" x1="194.5" y1="52.281" x2="194.5" y2="221.49"/>
			</g>
			<use xlink:href="#SVGID_5_"  overflow="visible" fill="none" stroke="#231815" stroke-width="2" stroke-miterlimit="10"/>
		</g>
	</g>
	
		<text transform="matrix(1 0 0 1 56.7568 356.5293)" display="none" fill="#231815" font-family="'MicrosoftYaHei'" font-size="41.1597">高溫線系列</text>
	
		<rect x="1.241" y="23.553" display="none" fill="none" stroke="#000000" stroke-miterlimit="10" width="318.518" height="368.486"/>
</g>
</svg>
