<?xml version="1.0" encoding="UTF-8"?>
<svg xmlns="http://www.w3.org/2000/svg" xmlns:xlink="http://www.w3.org/1999/xlink" width="240pt" height="264pt" viewBox="0 0 240 264" version="1.1">
<g id="surface1">
<path style=" stroke:none;fill-rule:evenodd;fill:rgb(16.470588%,43.529412%,62.745098%);fill-opacity:1;" d="M 33.621094 99.722656 L 33.621094 164.394531 L 66.613281 164.394531 L 66.613281 197.890625 L 0 197.890625 L 0 66.226562 L 66.613281 66.226562 L 66.613281 99.722656 Z M 33.621094 99.722656 "/>
<path style=" stroke:none;fill-rule:evenodd;fill:rgb(16.470588%,43.529412%,62.745098%);fill-opacity:1;" d="M 240 66.226562 L 240 197.890625 L 173.386719 197.890625 L 173.386719 164.394531 L 206.378906 164.394531 L 206.378906 99.722656 L 173.386719 99.722656 L 173.386719 66.226562 Z M 240 66.226562 "/>
<path style=" stroke:none;fill-rule:nonzero;fill:rgb(16.470588%,43.529412%,62.745098%);fill-opacity:1;" d="M 126.378906 99.722656 L 126.378906 33.21875 L 113.621094 33.21875 L 113.621094 103.804688 L 124.820312 114.792969 L 126.378906 116.328125 L 160 149.316406 L 160 264.109375 L 80 264.109375 L 80 131.394531 L 113.621094 164.386719 L 113.621094 230.890625 L 126.378906 230.890625 L 126.378906 160.304688 L 115.179688 149.316406 L 113.621094 147.78125 L 80 114.792969 L 80 0 L 160 0 L 160 132.710938 Z M 126.378906 99.722656 "/>
</g>
</svg>
