<?xml version="1.0" encoding="utf-8"?>
<!-- Generator: Adobe Illustrator 16.0.0, SVG Export Plug-In . SVG Version: 6.00 Build 0)  -->
<!DOCTYPE svg PUBLIC "-//W3C//DTD SVG 1.1//EN" "http://www.w3.org/Graphics/SVG/1.1/DTD/svg11.dtd">
<svg version="1.1" id="圖層_1" xmlns="http://www.w3.org/2000/svg" xmlns:xlink="http://www.w3.org/1999/xlink" x="0px" y="0px"
	 width="800px" height="276px" viewBox="0 0 800 276" enable-background="new 0 0 800 276" xml:space="preserve">
<g>
	<path fill="#A5162E" stroke="#FFFFFF" stroke-width="3" stroke-miterlimit="10" d="M267.27,137.566
		c0,67.205-54.479,121.686-121.682,121.686c-67.203,0-121.685-54.481-121.685-121.686c0-67.201,54.481-121.683,121.685-121.683
		C212.791,15.884,267.27,70.365,267.27,137.566z"/>
	<path fill="#F7F7F7" d="M226.071,137.566c0,44.454-36.035,80.489-80.483,80.489c-44.453,0-80.481-36.035-80.481-80.489
		c0-44.446,36.029-80.485,80.481-80.485C190.037,57.081,226.071,93.121,226.071,137.566z"/>
	<path fill="#888888" stroke="#FFFFFF" stroke-width="2" stroke-miterlimit="10" d="M171.956,137.566
		c0,14.565-11.806,26.371-26.367,26.371c-14.563,0-26.366-11.806-26.366-26.371c0-14.562,11.803-26.368,26.366-26.368
		C160.15,111.199,171.956,123.005,171.956,137.566z"/>
	<g>
		
			<text transform="matrix(1 0 0 1 422.3125 153.8833)" fill="#3E3A39" font-family="'AdobeFanHeitiStd-Bold-B5pc-H'" font-size="51.1217" letter-spacing="2">雙層絕緣+通電</text>
	</g>
	<polyline fill="none" stroke="#2CA6E0" stroke-width="2" stroke-miterlimit="10" points="244.909,89.278 332.722,89.278 
		332.722,189.837 158.671,189.837 	"/>
	
		<line fill="none" stroke="#2CA6E0" stroke-width="2" stroke-miterlimit="10" x1="332.078" y1="134.422" x2="410.693" y2="134.422"/>
</g>
</svg>
