<?xml version="1.0" encoding="utf-8"?>
<!-- Generator: Adobe Illustrator 16.0.0, SVG Export Plug-In . SVG Version: 6.00 Build 0)  -->
<!DOCTYPE svg PUBLIC "-//W3C//DTD SVG 1.1//EN" "http://www.w3.org/Graphics/SVG/1.1/DTD/svg11.dtd">
<svg version="1.1" xmlns="http://www.w3.org/2000/svg" xmlns:xlink="http://www.w3.org/1999/xlink" x="0px" y="0px" width="320px"
	 height="320px" viewBox="0 0 320 320" enable-background="new 0 0 320 320" xml:space="preserve">
<g id="圖層_13" display="none">
	<rect x="-5" y="21" display="inline" fill="#595757" width="375" height="332"/>
</g>
<g id="發熱線">
	<text transform="matrix(1 0 0 1 2611.2344 356.5313)" fill="#231815" font-family="'MicrosoftYaHei'" font-size="41.1597">發熱線系列</text>
	<path fill="none" stroke="#231815" stroke-miterlimit="10" d="M2800.285,267.079c0.991,0.993,2.372,1.227,3.074,0.522l9.955-9.954
		c0.696-0.703,0.47-2.077-0.529-3.075l-52.106-52.104l-12.507,12.506L2800.285,267.079z"/>
	<g>
		<defs>
			<path id="SVGID_7_" d="M2800.285,267.079c0.991,0.993,2.372,1.227,3.074,0.522l9.955-9.954c0.696-0.703,0.47-2.077-0.529-3.075
				l-52.106-52.104l-12.507,12.506L2800.285,267.079z"/>
		</defs>
		<clipPath id="SVGID_8_">
			<use xlink:href="#SVGID_7_"  overflow="visible"/>
		</clipPath>
		<g clip-path="url(#SVGID_8_)">
			<g>
				<path fill="none" stroke="#231815" stroke-width="2" stroke-miterlimit="10" d="M2733.406,455.152
					c60.828,60.827,156.453,63.649,213.798,6.311c57.345-57.352,54.525-152.977-6.304-213.804
					c-60.828-60.825-156.452-63.646-213.797-6.297C2669.758,298.699,2672.585,394.324,2733.406,455.152z"/>
				<path fill="none" stroke="#231815" stroke-width="2" stroke-miterlimit="10" d="M2739.356,253.615
					c50.959-50.967,135.933-48.463,189.993,5.594c54.057,54.061,56.562,139.034,5.602,190.001
					c-50.96,50.951-135.933,48.446-189.994-5.605C2690.901,389.541,2688.396,304.567,2739.356,253.615z"/>
				<path fill="none" stroke="#231815" stroke-width="2" stroke-miterlimit="10" d="M2756.459,432.107
					c47.283,47.283,121.716,49.473,166.294,4.905c44.583-44.584,42.384-119.011-4.904-166.302
					c-47.289-47.285-121.716-49.482-166.299-4.903C2706.979,310.384,2709.17,384.819,2756.459,432.107z"/>
				<path fill="none" stroke="#231815" stroke-width="2" stroke-miterlimit="10" d="M2763.802,278.062
					c38.253-38.247,101.928-36.372,142.498,4.2c40.57,40.567,42.451,104.245,4.201,142.498
					c-38.245,38.245-101.924,36.367-142.494-4.203C2727.432,379.988,2725.557,316.307,2763.802,278.062z"/>
				<path fill="none" stroke="#231815" stroke-width="2" stroke-miterlimit="10" d="M2779.504,409.056
					c33.806,33.798,86.941,35.363,118.795,3.503c31.869-31.868,30.303-84.998-3.496-118.804
					c-33.798-33.796-86.934-35.363-118.803-3.496C2744.139,322.12,2745.706,375.257,2779.504,409.056z"/>
				<path fill="none" stroke="#231815" stroke-width="2" stroke-miterlimit="10" d="M2788.253,302.512
					c25.483-25.483,67.969-24.231,95.002,2.8c27.022,27.025,28.276,69.518,2.8,95.001c-25.477,25.47-67.97,24.225-95-2.807
					C2764.029,370.477,2762.777,327.988,2788.253,302.512z"/>
				<path fill="none" stroke="#231815" stroke-width="2" stroke-miterlimit="10" d="M2802.556,386.003
					c20.259,20.258,52.201,21.212,71.3,2.112c19.1-19.102,18.154-51.049-2.104-71.308c-20.258-20.258-52.198-21.201-71.305-2.102
					C2781.354,333.805,2782.299,365.744,2802.556,386.003z"/>
				<path fill="none" stroke="#231815" stroke-width="2" stroke-miterlimit="10" d="M2812.698,326.958
					c12.77-12.77,33.964-12.139,47.504,1.398c13.54,13.547,14.168,34.737,1.401,47.504c-12.762,12.764-33.951,12.139-47.498-1.406
					C2800.566,360.913,2799.938,339.72,2812.698,326.958z"/>
				<path fill="none" stroke="#231815" stroke-width="2" stroke-miterlimit="10" d="M2825.602,362.957
					c6.772,6.775,17.424,7.081,23.801,0.704c6.385-6.384,6.07-17.028-0.701-23.801c-6.768-6.772-17.42-7.088-23.804-0.705
					C2818.52,345.533,2818.828,356.186,2825.602,362.957z"/>
			</g>
		</g>
		<use xlink:href="#SVGID_7_"  overflow="visible" fill="none" stroke="#231815" stroke-width="2" stroke-miterlimit="10"/>
	</g>
	<path fill="none" stroke="#231815" stroke-width="2" stroke-miterlimit="10" d="M2599.27,80.222c-1.508-1.506-1.508-3.941,0-5.447
		l21.216-21.218c1.501-1.5,3.938-1.506,5.445,0l139.108,139.106c1.503,1.503,1.503,3.944,0,5.445l-21.216,21.218
		c-1.507,1.507-3.943,1.507-5.446,0.001L2599.27,80.222z"/>
	
		<text transform="matrix(1 0 0 1 2695.5869 163.748)" fill="#595757" stroke="#FFFFFF" stroke-miterlimit="10" font-family="'Arial-BoldMT'" font-size="72.0295">HW</text>
	<rect x="2550.842" y="24.598" fill="none" stroke="#000000" stroke-miterlimit="10" width="318.525" height="368.486"/>
	<path opacity="0.7" fill="#FFFFFF" stroke="#000000" stroke-width="3" stroke-miterlimit="10" d="M281.883,46.057L75.638,252.297
		l-17.012-17.016L264.864,29.042c0,0,6.177,1.88,10.595,6.299C279.876,39.759,281.883,46.057,281.883,46.057z"/>
	<path fill="none" stroke="#000000" stroke-width="3" stroke-miterlimit="10" d="M61.601,230.134
		c3.311-4.663,10.31-7.326,24.258-3.925c12.39,3.025,18.816,0.458,22.001-3.934"/>
	<path fill="none" stroke="#000000" stroke-width="3" stroke-miterlimit="10" d="M83.165,208.563
		c3.311-4.66,10.312-7.322,24.264-3.921c12.387,3.022,18.81,0.456,21.995-3.935"/>
	<path fill="none" stroke="#000000" stroke-width="3" stroke-miterlimit="10" d="M104.638,187.224
		c3.311-4.661,10.31-7.33,24.259-3.925c12.387,3.025,18.814,0.455,22-3.936"/>
	<path fill="none" stroke="#000000" stroke-width="3" stroke-miterlimit="10" d="M125.078,166.595
		c3.306-4.662,10.307-7.331,24.263-3.922c12.384,3.022,18.81,0.45,21.994-3.937"/>
	<path fill="none" stroke="#000000" stroke-width="3" stroke-miterlimit="10" d="M146.645,145.024
		c3.312-4.661,10.31-7.33,24.265-3.925c12.388,3.025,18.804,0.457,21.995-3.934"/>
	<path fill="none" stroke="#000000" stroke-width="3" stroke-miterlimit="10" d="M168.117,123.677
		c3.308-4.662,10.31-7.322,24.257-3.926c12.392,3.026,18.815,0.459,22.003-3.934"/>
	<path fill="none" stroke="#000000" stroke-width="3" stroke-miterlimit="10" d="M186.993,104.617
		c3.311-4.663,10.313-7.331,24.259-3.925c12.391,3.025,18.813,0.458,21.995-3.934"/>
	<path fill="none" stroke="#000000" stroke-width="3" stroke-miterlimit="10" d="M208.563,83.047
		c3.305-4.665,10.311-7.326,24.259-3.925c12.392,3.026,18.813,0.463,21.998-3.933"/>
	<path fill="none" stroke="#000000" stroke-width="3" stroke-miterlimit="10" d="M230.03,61.704c3.31-4.662,10.31-7.33,24.264-3.925
		c12.394,3.024,18.81,0.458,21.998-3.934"/>
	<path stroke="#000000" stroke-miterlimit="10" d="M72.271,238.656c4.697,4.693,6.09,10.921,3.103,13.907
		c-2.983,2.983-9.211,1.59-13.907-3.106s-6.094-10.927-3.108-13.907C61.345,232.563,67.57,233.951,72.271,238.656z"/>
	<path opacity="0.7" stroke="#000000" stroke-miterlimit="10" d="M132.073,195.857c7.943,3.368,16.251,2.74,21.407-2.411
		c7.464-7.471,5.438-21.621-4.547-31.604c-9.983-9.981-24.129-12.016-31.604-4.543c-5.191,5.195-5.796,13.604-2.335,21.604
		l6.886-6.815c0.201-2.033,0.981-3.882,2.393-5.29c4.061-4.064,11.744-2.954,17.162,2.468c5.418,5.418,6.53,13.103,2.472,17.168
		c-1.273,1.267-2.907,2.032-4.709,2.319L132.073,195.857z"/>
	<path opacity="0.5" fill="#666666" stroke="#231815" stroke-miterlimit="10" d="M279.922,66.863L152.769,194.016l0.194-0.189
		c7.473-7.478,5.441-21.627-4.545-31.604c-9.981-9.982-24.125-12.02-31.6-4.545l-0.195,0.189L243.776,30.718
		c7.476-7.475,21.62-5.438,31.602,4.541C285.356,45.243,287.397,59.389,279.922,66.863z"/>
	<g opacity="0.7">
		<path fill="#4D4D4D" stroke="#000000" stroke-miterlimit="10" d="M280.003,66.94c7.468-7.471,5.435-21.62-4.544-31.599
			c-9.981-9.981-24.13-12.021-31.604-4.542l0.062,0.054l-127.154,127.15l0.191-0.193c7.473-7.471,21.618-5.434,31.599,4.545
			c9.979,9.985,12.024,24.13,4.543,31.603l-0.194,0.196L280.063,66.998L280.003,66.94z"/>
		<path fill="#4D4D4D" stroke="#000000" stroke-miterlimit="10" d="M132.003,195.793c7.936,3.369,16.264,2.733,21.401-2.416
			c7.475-7.471,5.438-21.62-4.541-31.603c-9.979-9.977-24.131-12.015-31.602-4.539c-5.188,5.19-5.792,13.602-2.328,21.604
			l6.876-6.811c0.201-2.042,0.992-3.888,2.397-5.299c4.056-4.058,11.743-2.957,17.161,2.469c5.424,5.421,6.529,13.104,2.468,17.164
			c-1.271,1.272-2.898,2.037-4.701,2.319L132.003,195.793z"/>
	</g>
</g>
</svg>
