<?xml version="1.0" encoding="utf-8"?>
<!-- Generator: Adobe Illustrator 16.0.0, SVG Export Plug-In . SVG Version: 6.00 Build 0)  -->
<!DOCTYPE svg PUBLIC "-//W3C//DTD SVG 1.1//EN" "http://www.w3.org/Graphics/SVG/1.1/DTD/svg11.dtd">
<svg version="1.1" xmlns="http://www.w3.org/2000/svg" xmlns:xlink="http://www.w3.org/1999/xlink" x="0px" y="0px" width="320px"
	 height="320px" viewBox="0 0 320 320" enable-background="new 0 0 320 320" xml:space="preserve">
<g id="PVC">
	
		<text transform="matrix(1 0 0 1 59.21 356.5313)" display="none" fill="#231815" font-family="'MicrosoftYaHei'" font-size="41.1597">PVC線系列</text>
	<path fill="none" stroke="#231815" stroke-width="2" stroke-miterlimit="10" d="M253.125,265.144
		c0.991,0.998,2.146,1.454,2.573,1.018l6.077-6.075c0.428-0.429-0.026-1.581-1.021-2.572l-52.104-52.11l-7.638,7.635
		L253.125,265.144z"/>
	<path fill="#231815" d="M52.097,83.151c-1.507-1.508-1.5-3.945,0-5.448l21.217-21.218c1.507-1.505,3.945-1.506,5.445,0
		l139.108,139.107c1.502,1.504,1.502,3.941,0,5.446l-21.217,21.217c-1.507,1.503-3.943,1.507-5.445,0L52.097,83.151z"/>
	
		<text transform="matrix(1 0 0 1 150.4258 163.748)" fill="#595757" stroke="#FFFFFF" stroke-miterlimit="10" font-family="'Adobe Fan Heiti Std', Helvetica, Arial, Verdana, sans-serif" font-size="72.0295">P</text>
	
		<rect x="1.237" y="23.475" display="none" fill="none" stroke="#000000" stroke-miterlimit="10" width="318.525" height="368.484"/>
</g>
<g id="圖層_13">
</g>
</svg>
