<?xml version="1.0" encoding="utf-8"?>
<!-- Generator: Adobe Illustrator 16.0.0, SVG Export Plug-In . SVG Version: 6.00 Build 0)  -->
<!DOCTYPE svg PUBLIC "-//W3C//DTD SVG 1.1//EN" "http://www.w3.org/Graphics/SVG/1.1/DTD/svg11.dtd">
<svg version="1.1" xmlns="http://www.w3.org/2000/svg" xmlns:xlink="http://www.w3.org/1999/xlink" x="0px" y="0px" width="500px"
	 height="500px" viewBox="0 0 500 500" enable-background="new 0 0 500 500" xml:space="preserve">
<g id="圖層_2" display="none">
	<rect x="-0.5" y="0.5" display="inline" stroke="#FFFFFF" stroke-miterlimit="10" width="500" height="500"/>
</g>
<g id="圖層_1">
	<g id="RSGE" display="none">
		<path display="inline" fill="none" stroke="#FFFFFF" stroke-width="10" stroke-miterlimit="10" d="M259.623,28.638
			c0-2.242-0.792-4.061-1.766-4.061h-13.719c-0.974,0-1.765,1.819-1.765,4.061v117.71h17.25V28.638z"/>
		<path display="inline" fill="none" stroke="#FFFFFF" stroke-width="10" stroke-miterlimit="10" d="M281.115,466.741
			c0,3.403-2.755,6.153-6.146,6.153H227.03c-3.395,0-6.15-2.75-6.15-6.153V152.502c0-3.398,2.755-6.154,6.15-6.154h47.938
			c3.392,0,6.146,2.756,6.146,6.154V466.741z"/>
		<g display="inline">
			<defs>
				<path id="SVGID_1_" d="M281.121,466.741c0,3.403-2.761,6.153-6.152,6.153H227.03c-3.392,0-6.148-2.75-6.148-6.153V152.502
					c0-3.398,2.756-6.154,6.148-6.154h47.938c3.392,0,6.152,2.756,6.152,6.154V466.741z"/>
			</defs>
			<clipPath id="SVGID_2_">
				<use xlink:href="#SVGID_1_"  overflow="visible"/>
			</clipPath>
			<g clip-path="url(#SVGID_2_)">
				<polygon fill="none" stroke="#FFFFFF" stroke-width="10" stroke-miterlimit="10" points="58.097,308.907 249.21,117.788 
					453.824,322.396 262.705,513.516 				"/>
				
					<line fill="none" stroke="#FFFFFF" stroke-width="10" stroke-miterlimit="10" x1="239.976" y1="490.786" x2="431.095" y2="299.668"/>
				
					<line fill="none" stroke="#FFFFFF" stroke-width="10" stroke-miterlimit="10" x1="217.25" y1="468.058" x2="408.366" y2="276.938"/>
				
					<line fill="none" stroke="#FFFFFF" stroke-width="10" stroke-miterlimit="10" x1="194.521" y1="445.328" x2="385.638" y2="254.215"/>
				
					<line fill="none" stroke="#FFFFFF" stroke-width="10" stroke-miterlimit="10" x1="171.792" y1="422.6" x2="362.908" y2="231.48"/>
				
					<line fill="none" stroke="#FFFFFF" stroke-width="10" stroke-miterlimit="10" x1="149.015" y1="399.823" x2="340.137" y2="208.704"/>
				
					<line fill="none" stroke="#FFFFFF" stroke-width="10" stroke-miterlimit="10" x1="126.284" y1="377.095" x2="317.408" y2="185.976"/>
				
					<line fill="none" stroke="#FFFFFF" stroke-width="10" stroke-miterlimit="10" x1="103.554" y1="354.365" x2="294.68" y2="163.246"/>
				
					<line fill="none" stroke="#FFFFFF" stroke-width="10" stroke-miterlimit="10" x1="80.826" y1="331.636" x2="271.939" y2="140.517"/>
				
					<line fill="none" stroke="#FFFFFF" stroke-width="10" stroke-miterlimit="10" x1="227.988" y1="139.019" x2="432.594" y2="343.627"/>
				
					<line fill="none" stroke="#FFFFFF" stroke-width="10" stroke-miterlimit="10" x1="206.757" y1="160.25" x2="411.363" y2="364.858"/>
				
					<line fill="none" stroke="#FFFFFF" stroke-width="10" stroke-miterlimit="10" x1="185.527" y1="181.48" x2="390.132" y2="386.089"/>
				
					<line fill="none" stroke="#FFFFFF" stroke-width="10" stroke-miterlimit="10" x1="164.296" y1="202.711" x2="368.9" y2="407.319"/>
				
					<line fill="none" stroke="#FFFFFF" stroke-width="10" stroke-miterlimit="10" x1="143.02" y1="223.984" x2="347.628" y2="428.598"/>
				
					<line fill="none" stroke="#FFFFFF" stroke-width="10" stroke-miterlimit="10" x1="121.786" y1="245.215" x2="326.396" y2="449.823"/>
				
					<line fill="none" stroke="#FFFFFF" stroke-width="10" stroke-miterlimit="10" x1="100.559" y1="266.446" x2="305.166" y2="471.055"/>
				
					<line fill="none" stroke="#FFFFFF" stroke-width="10" stroke-miterlimit="10" x1="79.328" y1="287.682" x2="283.936" y2="492.285"/>
			</g>
		</g>
	</g>
	<g id="高溫線" display="none">
		<path display="inline" fill="none" stroke="#FFFFFF" stroke-width="10" stroke-miterlimit="10" d="M259.623,28.638
			c0-2.241-0.788-4.061-1.761-4.061h-13.729c-0.968,0-1.756,1.819-1.756,4.061v117.716h17.246V28.638z"/>
		<path display="inline" fill="none" stroke="#FFFFFF" stroke-miterlimit="10" d="M281.115,466.748c0,3.391-2.756,6.146-6.153,6.146
			h-47.929c-3.398,0-6.153-2.756-6.153-6.146V152.502c0-3.397,2.755-6.147,6.153-6.147h47.929c3.397,0,6.153,2.75,6.153,6.147
			V466.748z"/>
		<g display="inline">
			<defs>
				<path id="SVGID_3_" d="M281.115,466.748c0,3.391-2.75,6.146-6.143,6.146h-47.939c-3.394,0-6.153-2.756-6.153-6.146V152.502
					c0-3.397,2.76-6.147,6.153-6.147h47.939c3.393,0,6.143,2.75,6.143,6.147V466.748z"/>
			</defs>
			<clipPath id="SVGID_4_">
				<use xlink:href="#SVGID_3_"  overflow="visible"/>
			</clipPath>
			<g clip-path="url(#SVGID_4_)">
				
					<rect x="120.82" y="170.972" transform="matrix(-0.7071 0.7071 -0.7071 -0.7071 660.1569 357.8626)" fill="none" stroke="#FFFFFF" stroke-miterlimit="10" width="270.284" height="289.366"/>
				<line fill="none" stroke="#FFFFFF" stroke-miterlimit="10" x1="239.98" y1="490.792" x2="431.1" y2="299.673"/>
				<line fill="none" stroke="#FFFFFF" stroke-miterlimit="10" x1="217.252" y1="468.059" x2="408.371" y2="276.938"/>
				<line fill="none" stroke="#FFFFFF" stroke-miterlimit="10" x1="194.522" y1="445.335" x2="385.643" y2="254.21"/>
				<line fill="none" stroke="#FFFFFF" stroke-miterlimit="10" x1="171.794" y1="422.6" x2="362.903" y2="231.481"/>
				<line fill="none" stroke="#FFFFFF" stroke-miterlimit="10" x1="149.011" y1="399.823" x2="340.131" y2="208.704"/>
				<line fill="none" stroke="#FFFFFF" stroke-miterlimit="10" x1="126.282" y1="377.095" x2="317.401" y2="185.975"/>
				<line fill="none" stroke="#FFFFFF" stroke-miterlimit="10" x1="103.554" y1="354.365" x2="294.673" y2="163.246"/>
				<line fill="none" stroke="#FFFFFF" stroke-miterlimit="10" x1="80.825" y1="331.637" x2="271.944" y2="140.518"/>
				<line fill="none" stroke="#FFFFFF" stroke-miterlimit="10" x1="227.985" y1="139.019" x2="432.598" y2="343.632"/>
				<line fill="none" stroke="#FFFFFF" stroke-miterlimit="10" x1="206.754" y1="160.25" x2="411.367" y2="364.863"/>
				<line fill="none" stroke="#FFFFFF" stroke-miterlimit="10" x1="185.523" y1="181.481" x2="390.136" y2="386.088"/>
				<line fill="none" stroke="#FFFFFF" stroke-miterlimit="10" x1="164.293" y1="202.706" x2="368.905" y2="407.319"/>
				<line fill="none" stroke="#FFFFFF" stroke-miterlimit="10" x1="143.02" y1="223.991" x2="347.632" y2="428.598"/>
				<line fill="none" stroke="#FFFFFF" stroke-miterlimit="10" x1="121.789" y1="245.216" x2="326.401" y2="449.828"/>
				<line fill="none" stroke="#FFFFFF" stroke-miterlimit="10" x1="100.558" y1="266.447" x2="305.171" y2="471.054"/>
				<line fill="none" stroke="#FFFFFF" stroke-miterlimit="10" x1="79.327" y1="287.678" x2="283.939" y2="492.29"/>
			</g>
		</g>
		<g display="inline">
			<defs>
				<path id="SVGID_5_" d="M281.115,464.682c0,3.393-2.75,6.147-6.143,6.147h-47.946c-3.392,0-6.142-2.755-6.142-6.147V150.437
					c0-3.397,2.75-6.147,6.142-6.147h47.946c3.393,0,6.143,2.75,6.143,6.147V464.682z"/>
			</defs>
			<clipPath id="SVGID_6_">
				<use xlink:href="#SVGID_5_"  overflow="visible"/>
			</clipPath>
			<g clip-path="url(#SVGID_6_)">
				
					<rect x="120.821" y="168.906" transform="matrix(-0.7071 0.7071 -0.7071 -0.7071 658.6963 354.3383)" fill="none" stroke="#FFFFFF" stroke-width="4" stroke-miterlimit="10" width="270.283" height="289.367"/>
				
					<line fill="none" stroke="#FFFFFF" stroke-width="4" stroke-miterlimit="10" x1="239.98" y1="488.728" x2="431.1" y2="297.607"/>
				
					<line fill="none" stroke="#FFFFFF" stroke-width="4" stroke-miterlimit="10" x1="217.246" y1="465.993" x2="408.371" y2="274.874"/>
				
					<line fill="none" stroke="#FFFFFF" stroke-width="4" stroke-miterlimit="10" x1="194.518" y1="443.269" x2="385.643" y2="252.146"/>
				
					<line fill="none" stroke="#FFFFFF" stroke-width="4" stroke-miterlimit="10" x1="171.789" y1="420.534" x2="362.903" y2="229.415"/>
				
					<line fill="none" stroke="#FFFFFF" stroke-width="4" stroke-miterlimit="10" x1="149.017" y1="397.758" x2="340.131" y2="206.639"/>
				
					<line fill="none" stroke="#FFFFFF" stroke-width="4" stroke-miterlimit="10" x1="126.282" y1="375.029" x2="317.401" y2="183.91"/>
				
					<line fill="none" stroke="#FFFFFF" stroke-width="4" stroke-miterlimit="10" x1="103.554" y1="352.3" x2="294.673" y2="161.181"/>
				
					<line fill="none" stroke="#FFFFFF" stroke-width="4" stroke-miterlimit="10" x1="80.825" y1="329.57" x2="271.944" y2="138.452"/>
			</g>
		</g>
	</g>
	<g id="TEF" display="none">
		<g display="inline">
			<path fill="none" stroke="#FFFFFF" stroke-width="10" stroke-miterlimit="10" d="M265.924,34.367c0-2.237-0.391-4.056-0.878-4.056
				h-6.865c-0.486,0-0.878,1.819-0.878,4.056v117.716h8.621V34.367z"/>
			<path fill="none" stroke="#FFFFFF" stroke-width="10" stroke-miterlimit="10" d="M276.672,472.476
				c0,3.396-1.374,6.146-3.075,6.146h-23.965c-1.697,0-3.077-2.75-3.077-6.146V158.23c0-3.392,1.38-6.148,3.077-6.148h23.965
				c1.701,0,3.075,2.756,3.075,6.148V472.476z"/>
		</g>
		<g display="inline">
			<path fill="none" stroke="#FFFFFF" stroke-width="10" stroke-miterlimit="10" d="M228.203,163.956
				c0-1.542-0.269-2.793-0.605-2.793h-4.72c-0.336,0-0.604,1.251-0.604,2.793v80.974h5.93V163.956z"/>
			<path fill="none" stroke="#FFFFFF" stroke-width="10" stroke-miterlimit="10" d="M235.597,465.316
				c0,2.338-0.947,4.232-2.119,4.232h-16.479c-1.171,0-2.118-1.895-2.118-4.232v-216.16c0-2.333,0.947-4.227,2.118-4.227h16.479
				c1.172,0,2.119,1.894,2.119,4.227V465.316z"/>
		</g>
		
			<text transform="matrix(1 0 0 1 265.9189 267.6885)" display="inline" fill="#FFFFFF" font-family="'Arial-BoldMT'" font-size="98.6201">T</text>
	</g>
	<g id="S">
		<g>
			<path fill="none" stroke="#FFFFFF" stroke-width="10" stroke-miterlimit="10" d="M259.622,28.973c0-2.248-0.786-4.066-1.76-4.066
				h-13.729c-0.969,0-1.755,1.819-1.755,4.066v117.711h17.244V28.973z"/>
			<path fill="none" stroke="#FFFFFF" stroke-width="10" stroke-miterlimit="10" d="M281.116,467.076
				c0,3.397-2.756,6.153-6.154,6.153h-47.93c-3.396,0-6.152-2.756-6.152-6.153V152.837c0-3.403,2.756-6.153,6.152-6.153h47.93
				c3.398,0,6.154,2.75,6.154,6.153V467.076z"/>
		</g>
		<text transform="matrix(1 0 0 1 251.0049 262.29)" fill="#FFFFFF" font-family="'Arial-BoldMT'" font-size="98.6201">S</text>
	</g>
	<g id="PVC" display="none">
		
			<text transform="matrix(1 0 0 1 2420.9619 264.3506)" display="inline" fill="#FFFFFF" font-family="'Arial-BoldMT'" font-size="98.6201">P</text>
		<g display="inline">
			<path fill="none" stroke="#FFFFFF" stroke-width="10" stroke-miterlimit="10" d="M2429.59,31.033c0-2.241-0.787-4.061-1.761-4.061
				H2414.1c-0.968,0-1.756,1.819-1.756,4.061v117.716h17.246V31.033z"/>
			<path fill="none" stroke="#FFFFFF" stroke-width="10" stroke-miterlimit="10" d="M2451.082,469.143
				c0,3.391-2.755,6.146-6.153,6.146H2397c-3.398,0-6.153-2.756-6.153-6.146V154.896c0-3.397,2.755-6.147,6.153-6.147h47.929
				c3.398,0,6.153,2.75,6.153,6.147V469.143z"/>
		</g>
	</g>
	<g id="XL" display="none">
		
			<text transform="matrix(1 0 0 1 1983.0098 264.2715)" display="inline" fill="#FFFFFF" font-family="'Arial-BoldMT'" font-size="98.6201">XL</text>
		<g display="inline">
			<path fill="none" stroke="#FFFFFF" stroke-width="10" stroke-miterlimit="10" d="M1991.636,30.953
				c0-2.242-0.792-4.061-1.766-4.061h-13.718c-0.974,0-1.767,1.819-1.767,4.061v117.71h17.25V30.953z"/>
			<path fill="none" stroke="#FFFFFF" stroke-width="10" stroke-miterlimit="10" d="M2013.129,469.056
				c0,3.403-2.755,6.153-6.148,6.153h-47.94c-3.392,0-6.146-2.75-6.146-6.153V154.817c0-3.398,2.755-6.154,6.146-6.154h47.94
				c3.394,0,6.148,2.756,6.148,6.154V469.056z"/>
		</g>
	</g>
	<g id="TC" display="none">
		
			<text transform="matrix(1 0 0 1 3276.0313 280.708)" display="inline" fill="#FFFFFF" font-family="'Arial-BoldMT'" font-size="98.6201">TC</text>
		<path display="inline" fill="none" stroke="#FFFFFF" stroke-width="10" stroke-miterlimit="10" d="M3306.572,30.953
			c0-2.242-0.793-4.061-1.767-4.061h-13.719c-0.974,0-1.767,1.819-1.767,4.061v117.71h17.252V30.953z"/>
		<path display="inline" fill="none" stroke="#FFFFFF" stroke-width="10" stroke-miterlimit="10" d="M3328.486,30.953
			c0-2.242-0.791-4.061-1.765-4.061h-13.719c-0.975,0-1.767,1.819-1.767,4.061v117.71h17.25V30.953z"/>
		<path display="inline" fill="none" stroke="#FFFFFF" stroke-width="10" stroke-miterlimit="10" d="M3347.733,469.061
			c0,3.398-3.554,6.148-7.931,6.148h-61.797c-4.377,0-7.93-2.75-7.93-6.148V154.817c0-3.403,3.553-6.154,7.93-6.154h61.797
			c4.377,0,7.931,2.75,7.931,6.154V469.061z"/>
	</g>
	<g id="套管" display="none">
		<path display="inline" fill="#FFFFFF" stroke="#231815" stroke-miterlimit="10" d="M2979.116,206.492
			c-17.015-17.009-41.198-20.45-54.527-7.961c-0.048,0.042-0.122,0.037-0.165,0.08l-188.6,188.609
			c-2.039,2.039-0.823,6.561,2.697,10.086l49.791,49.781c3.531,3.536,8.042,4.746,10.086,2.707l188.599-188.609
			c0.044-0.042,0.039-0.113,0.076-0.155C2999.566,247.696,2996.125,223.506,2979.116,206.492z"/>
		<path display="inline" fill="#FFFFFF" stroke="#231815" stroke-miterlimit="10" d="M2779.238,405.931
			c17.833,17.834,23.45,41.124,12.553,52.022c-10.898,10.904-34.195,5.281-52.028-12.546
			c-17.827-17.828-23.451-41.125-12.542-52.022C2738.115,382.484,2761.41,388.104,2779.238,405.931z"/>
		<path display="inline" fill="#231815" stroke="#231815" stroke-width="0.5" stroke-miterlimit="10" d="M2771.71,413.454
			c12.536,12.541,17.24,28.175,10.498,34.917c-6.747,6.741-22.382,2.043-34.917-10.492c-12.536-12.537-17.234-28.171-10.481-34.912
			C2743.546,396.225,2759.174,400.923,2771.71,413.454z"/>
	</g>
	<g id="發熱線" display="none">
		<path display="inline" fill="none" stroke="#FFFFFF" stroke-width="10" stroke-miterlimit="10" d="M3641.923,427.306
			c4.565-6.431,14.222-10.106,33.462-5.414c17.091,4.173,25.956,0.631,30.349-5.426"/>
		<path display="inline" fill="none" stroke="#FFFFFF" stroke-width="10" stroke-miterlimit="10" d="M3671.673,397.553
			c4.563-6.432,14.222-10.102,33.468-5.41c17.088,4.168,25.949,0.626,30.342-5.431"/>
		<path display="inline" fill="none" stroke="#FFFFFF" stroke-width="10" stroke-miterlimit="10" d="M3701.293,368.114
			c4.564-6.432,14.221-10.112,33.463-5.415c17.088,4.173,25.953,0.626,30.347-5.431"/>
		<path display="inline" fill="none" stroke="#FFFFFF" stroke-width="10" stroke-miterlimit="10" d="M3729.49,339.654
			c4.559-6.432,14.215-10.112,33.468-5.409c17.083,4.169,25.948,0.62,30.341-5.431"/>
		<path display="inline" fill="none" stroke="#FFFFFF" stroke-width="10" stroke-miterlimit="10" d="M3759.238,309.9
			c4.569-6.431,14.222-10.112,33.473-5.415c17.09,4.174,25.939,0.632,30.343-5.425"/>
		<path display="inline" fill="none" stroke="#FFFFFF" stroke-width="10" stroke-miterlimit="10" d="M3788.858,280.451
			c4.564-6.426,14.223-10.106,33.463-5.408c17.094,4.167,25.955,0.631,30.354-5.426"/>
		<path display="inline" fill="none" stroke="#FFFFFF" stroke-width="10" stroke-miterlimit="10" d="M3814.899,254.153
			c4.563-6.426,14.228-10.102,33.462-5.403c17.096,4.168,25.955,0.62,30.343-5.431"/>
		<path display="inline" fill="none" stroke="#FFFFFF" stroke-width="10" stroke-miterlimit="10" d="M3844.654,224.405
			c4.559-6.431,14.222-10.107,33.461-5.416c17.096,4.174,25.955,0.632,30.348-5.424"/>
		<path display="inline" fill="none" stroke="#FFFFFF" stroke-width="10" stroke-miterlimit="10" d="M3874.27,194.956
			c4.563-6.426,14.221-10.102,33.466-5.405c17.101,4.168,25.95,0.622,30.349-5.43"/>
		<path display="inline" fill="none" stroke="#FFFFFF" stroke-width="10" stroke-miterlimit="10" d="M3945.793,173.372
			l-284.506,284.507l-23.467-23.473l284.501-284.501c0,0,8.518,2.589,14.612,8.689
			C3943.027,164.694,3945.793,173.372,3945.793,173.372z"/>
		<path display="inline" fill="#231815" stroke="#FFFFFF" stroke-width="10" stroke-miterlimit="10" d="M3656.643,439.061
			c6.479,6.475,8.4,15.068,4.28,19.188c-4.114,4.115-12.707,2.193-19.186-4.285c-6.48-6.48-8.405-15.073-4.286-19.188
			C3641.57,430.655,3650.159,432.571,3656.643,439.061z"/>
		<path display="inline" opacity="0.7" fill="#FFFFFF" stroke="#FFFFFF" stroke-width="10" stroke-miterlimit="10" d="
			M3739.138,380.024c10.956,4.644,22.418,3.777,29.528-3.328c10.3-10.306,7.502-29.823-6.271-43.596
			c-13.771-13.768-33.284-16.576-43.596-6.267c-7.158,7.166-7.992,18.765-3.22,29.803l9.497-9.4
			c0.277-2.805,1.354-5.356,3.301-7.298c5.602-5.608,16.201-4.077,23.676,3.401c7.475,7.476,9.01,18.075,3.408,23.683
			c-1.755,1.749-4.007,2.803-6.496,3.199L3739.138,380.024z"/>
		<path display="inline" opacity="0.5" fill="#FFFFFF" stroke="#231815" stroke-width="10" stroke-miterlimit="10" d="
			M3943.093,202.078l-175.405,175.405l0.268-0.262c10.31-10.316,7.506-29.834-6.271-43.597
			c-13.766-13.772-33.279-16.58-43.591-6.271l-0.267,0.263l175.404-175.4c10.312-10.305,29.824-7.501,43.59,6.271
			C3950.588,172.254,3953.402,191.768,3943.093,202.078z"/>
		<g display="inline">
			<path fill="none" stroke="#FFFFFF" stroke-width="10" stroke-miterlimit="10" d="M3739.041,379.933
				c10.947,4.65,22.435,3.772,29.523-3.333c10.31-10.305,7.501-29.824-6.266-43.596c-13.767-13.762-33.285-16.57-43.596-6.26
				c-7.153,7.158-7.988,18.764-3.211,29.803l9.487-9.396c0.278-2.814,1.37-5.361,3.306-7.31c5.598-5.596,16.202-4.076,23.678,3.409
				c7.479,7.475,9.004,18.074,3.401,23.676c-1.755,1.755-3.997,2.81-6.483,3.2L3739.041,379.933z"/>
			<path fill="none" stroke="#FFFFFF" stroke-width="10" stroke-miterlimit="10" d="M3943.204,202.19
				c10.3-10.316,7.496-29.829-6.271-43.596c-13.767-13.772-33.285-16.576-43.596-6.271l0.085,0.08l-175.404,175.4l0.263-0.269
				c10.31-10.305,29.822-7.496,43.59,6.271c13.767,13.773,16.586,33.286,6.266,43.596l-0.269,0.269l175.415-175.405L3943.204,202.19
				z"/>
		</g>
	</g>
</g>
</svg>
