<?xml version="1.0" encoding="utf-8"?>
<!-- Generator: Adobe Illustrator 16.0.0, SVG Export Plug-In . SVG Version: 6.00 Build 0)  -->
<!DOCTYPE svg PUBLIC "-//W3C//DTD SVG 1.1//EN" "http://www.w3.org/Graphics/SVG/1.1/DTD/svg11.dtd">
<svg version="1.1" xmlns="http://www.w3.org/2000/svg" xmlns:xlink="http://www.w3.org/1999/xlink" x="0px" y="0px" width="320px"
	 height="320px" viewBox="0 0 320 320" enable-background="new 0 0 320 320" xml:space="preserve">
<g id="TC">
	
		<text transform="matrix(1 0 0 1 38.5342 355.3184)" display="none" fill="#231815" font-family="'MicrosoftYaHei'" font-size="41.1597">補償島線系列</text>
	<path fill="#231815" d="M256.872,257.367c0.99,0.993,2.149,1.447,2.579,1.019l6.076-6.076c0.429-0.429-0.028-1.581-1.018-2.579
		l-52.107-52.106l-7.637,7.638L256.872,257.367z"/>
	<path fill="#231815" d="M244.745,269.5c0.993,0.991,2.152,1.447,2.58,1.011l6.075-6.069c0.431-0.435-0.025-1.587-1.018-2.578
		l-52.104-52.111l-7.637,7.638L244.745,269.5z"/>
	<path fill="#231815" d="M43.504,82.867c-1.508-1.506-1.153-4.297,0.783-6.234l27.358-27.356c1.938-1.938,4.723-2.293,6.232-0.787
		l139.108,139.108c1.507,1.504,1.151,4.294-0.786,6.232l-27.359,27.354c-1.935,1.94-4.729,2.294-6.229,0.791L43.504,82.867z"/>
	
		<text transform="matrix(1 0 0 1 140.3379 162.5371)" fill="#595757" stroke="#FFFFFF" stroke-width="2" stroke-miterlimit="10" font-family="'Adobe Fan Heiti Std', Helvetica, Arial, Verdana, sans-serif" font-size="72.0295">TC</text>
	<rect x="1.238" y="23" display="none" fill="none" stroke="#000000" stroke-miterlimit="10" width="318.524" height="368.486"/>
</g>
<g id="圖層_13">
</g>
</svg>
