<?xml version="1.0" encoding="utf-8"?>
<!-- Generator: Adobe Illustrator 16.0.0, SVG Export Plug-In . SVG Version: 6.00 Build 0)  -->
<!DOCTYPE svg PUBLIC "-//W3C//DTD SVG 1.1//EN" "http://www.w3.org/Graphics/SVG/1.1/DTD/svg11.dtd">
<svg version="1.1" xmlns="http://www.w3.org/2000/svg" xmlns:xlink="http://www.w3.org/1999/xlink" x="0px" y="0px" width="320px"
	 height="320px" viewBox="0 0 320 320" enable-background="new 0 0 320 320" xml:space="preserve">
<g id="圖層_13" display="none">
	<rect x="-5" y="21" display="inline" fill="#595757" width="375" height="332"/>
</g>
<g id="軍規線">
	
		<text transform="matrix(1 0 0 1 55.1162 346.8506)" display="none" fill="#231815" font-family="'MicrosoftYaHei'" font-size="41.1597">軍規線系列</text>
	<g>
		<polygon fill="none" stroke="#231815" stroke-width="3" stroke-miterlimit="10" points="181.403,197.29 181.184,197.237 
			181.23,197.464 		"/>
		<polygon fill="none" stroke="#231815" stroke-width="3" stroke-miterlimit="10" points="183.052,197.347 182.604,197.249 
			182.703,197.698 		"/>
		<path fill="none" stroke="#231815" stroke-width="3" stroke-miterlimit="10" d="M230.422,256.876
			c3.565-2.237,7.222-4.247,10.979-5.995l-5.996-5.989l-8.48,8.488L230.422,256.876z"/>
		<path fill="none" stroke="#231815" stroke-width="3" stroke-miterlimit="10" d="M238.325,264.782
			c3.679-2.164,7.465-4.041,11.344-5.635l-8.268-8.267c-3.758,1.748-7.414,3.758-10.979,5.995L238.325,264.782z"/>
		<path fill="none" stroke="#231815" stroke-width="3" stroke-miterlimit="10" d="M246.279,272.734
			c3.832-2.056,7.79-3.758,11.837-5.133l-8.447-8.454c-3.879,1.594-7.665,3.471-11.344,5.635L246.279,272.734z"/>
		<path fill="none" stroke="#231815" stroke-width="3" stroke-miterlimit="10" d="M254.425,280.88
			c4.053-1.914,8.24-3.402,12.516-4.462l-8.824-8.816c-4.047,1.375-8.005,3.077-11.837,5.133L254.425,280.88z"/>
		<path fill="none" stroke="#231815" stroke-width="3" stroke-miterlimit="10" d="M259.589,286.044
			c0.623,0.625,1.522,0.738,1.997,0.262l6.752-6.752c0.482-0.475,0.363-1.367-0.259-1.989l-1.139-1.146
			c-4.275,1.06-8.463,2.548-12.516,4.462L259.589,286.044z"/>
		<path fill="#231815" d="M223.97,256.327l2.955-2.947l8.48-8.488l2.963-2.954c1.018-1.018,1.085-2.619,0.141-3.558l-16.555-16.552
			l-0.039,0.04c-0.517,0.521-1.776,0.101-2.807-0.937l-31.031-31.032l-17.118,17.115l49.453,49.454
			C221.358,257.412,222.945,257.352,223.97,256.327z"/>
		<path fill="none" stroke="#231815" stroke-width="3" stroke-miterlimit="10" d="M253.427,229.47
			c0.588,0.584,1.166,0.965,1.292,0.831l1.802-1.795c0.129-0.128-0.246-0.71-0.835-1.301l-30.87-30.866l-2.259,2.258L253.427,229.47
			z"/>
		<path fill="none" stroke="#231815" stroke-width="3" stroke-miterlimit="10" d="M220.541,200.61l2.016-2.014l2.259-2.258
			l2.008-2.012c0.45-0.447,0.087-1.53-0.803-2.424l-19.978-19.975l-7.897,7.9l19.977,19.976
			C219.014,200.695,220.099,201.057,220.541,200.61z"/>
		<path fill="#FFFFFF" stroke="#231815" stroke-width="3" stroke-miterlimit="10" d="M227.603,275.795
			c1.339,1.339,3.301,1.542,4.393,0.454c1.092-1.091,0.885-3.061-0.454-4.4l-62.711-62.707l-3.938,3.941L227.603,275.795z"/>
		<path fill="none" stroke="#231815" stroke-width="3" stroke-miterlimit="10" d="M260.094,255.376
			c0.682,0.684,1.358,1.118,1.507,0.972l2.09-2.09c0.146-0.148-0.289-0.824-0.973-1.508l-35.839-35.843l-2.627,2.627
			L260.094,255.376z"/>
		<path fill="none" stroke="#231815" stroke-width="3" stroke-miterlimit="10" d="M224.252,219.534l2.627-2.627l2.33-2.333
			c0.523-0.521,0.101-1.78-0.932-2.812l-31.036-31.034l-8.188,8.193l32.901,32.906L224.252,219.534z"/>
		<path fill="none" stroke="#231815" stroke-width="3" stroke-miterlimit="10" d="M219.108,220.932
			c1.03,1.037,2.29,1.457,2.807,0.937l0.039-0.04l-32.901-32.906l-0.976,0.978L219.108,220.932z"/>
		<path fill="#231815" d="M24.55,97.994c-0.979-0.978,1.3-4.835,5.09-8.632l53.473-53.469c3.786-3.786,7.657-6.073,8.636-5.095
			l90.392,90.396c0.979,0.976-1.305,4.849-5.09,8.632l-53.473,53.469c-3.793,3.797-7.657,6.073-8.629,5.095L24.55,97.994z"/>
		<path fill="none" stroke="#231815" stroke-width="3" stroke-miterlimit="10" d="M159.786,215.86
			c1.159,1.162,4.347-0.138,7.106-2.899l39.004-39.003c2.761-2.759,4.06-5.946,2.894-7.107l-33.725-33.729l-49.01,49.01
			L159.786,215.86z"/>
		<g>
			<defs>
				<path id="SVGID_11_" d="M159.786,215.86c1.159,1.162,4.347-0.138,7.106-2.899l39.004-39.003c2.761-2.759,4.06-5.946,2.894-7.107
					l-33.725-33.729l-49.01,49.01L159.786,215.86z"/>
			</defs>
			<clipPath id="SVGID_12_">
				<use xlink:href="#SVGID_11_"  overflow="visible"/>
			</clipPath>
			<g clip-path="url(#SVGID_12_)">
				
					<rect x="48.974" y="60.655" fill="none" stroke="#231815" stroke-width="3" stroke-miterlimit="10" width="168.687" height="157.557"/>
				
					<line fill="none" stroke="#231815" stroke-width="3" stroke-miterlimit="10" x1="67.712" y1="60.653" x2="67.712" y2="218.214"/>
				
					<line fill="none" stroke="#231815" stroke-width="3" stroke-miterlimit="10" x1="86.451" y1="60.653" x2="86.451" y2="218.214"/>
				
					<line fill="none" stroke="#231815" stroke-width="3" stroke-miterlimit="10" x1="105.194" y1="60.653" x2="105.187" y2="218.214"/>
				
					<line fill="none" stroke="#231815" stroke-width="3" stroke-miterlimit="10" x1="123.925" y1="60.649" x2="123.925" y2="218.214"/>
				
					<line fill="none" stroke="#231815" stroke-width="3" stroke-miterlimit="10" x1="142.71" y1="60.649" x2="142.71" y2="218.214"/>
				
					<line fill="none" stroke="#231815" stroke-width="3" stroke-miterlimit="10" x1="161.446" y1="60.653" x2="161.439" y2="218.214"/>
				
					<line fill="none" stroke="#231815" stroke-width="3" stroke-miterlimit="10" x1="180.186" y1="60.652" x2="180.178" y2="218.214"/>
				
					<line fill="none" stroke="#231815" stroke-width="3" stroke-miterlimit="10" x1="198.916" y1="60.652" x2="198.922" y2="218.214"/>
				
					<line fill="none" stroke="#231815" stroke-width="3" stroke-miterlimit="10" x1="217.66" y1="200.712" x2="48.974" y2="200.712"/>
				
					<line fill="none" stroke="#231815" stroke-width="3" stroke-miterlimit="10" x1="217.652" y1="183.207" x2="48.974" y2="183.207"/>
				
					<line fill="none" stroke="#231815" stroke-width="3" stroke-miterlimit="10" x1="217.66" y1="165.706" x2="48.974" y2="165.706"/>
				
					<line fill="none" stroke="#231815" stroke-width="3" stroke-miterlimit="10" x1="217.66" y1="148.203" x2="48.974" y2="148.203"/>
				
					<line fill="none" stroke="#231815" stroke-width="3" stroke-miterlimit="10" x1="217.652" y1="130.664" x2="48.974" y2="130.664"/>
				
					<line fill="none" stroke="#231815" stroke-width="3" stroke-miterlimit="10" x1="217.652" y1="113.161" x2="48.974" y2="113.161"/>
				<line fill="none" stroke="#231815" stroke-width="3" stroke-miterlimit="10" x1="217.66" y1="95.658" x2="48.974" y2="95.658"/>
				
					<line fill="none" stroke="#231815" stroke-width="3" stroke-miterlimit="10" x1="217.652" y1="78.155" x2="48.974" y2="78.156"/>
			</g>
			<use xlink:href="#SVGID_11_"  overflow="visible" fill="none" stroke="#231815" stroke-width="3" stroke-miterlimit="10"/>
		</g>
	</g>
	<rect x="0.741" y="15" display="none" fill="none" stroke="#000000" stroke-miterlimit="10" width="318.518" height="368.484"/>
</g>
</svg>
