<?xml version="1.0" encoding="utf-8"?>
<!-- Generator: Adobe Illustrator 16.0.0, SVG Export Plug-In . SVG Version: 6.00 Build 0)  -->
<!DOCTYPE svg PUBLIC "-//W3C//DTD SVG 1.1//EN" "http://www.w3.org/Graphics/SVG/1.1/DTD/svg11.dtd">
<svg version="1.1" id="圖層_1" xmlns="http://www.w3.org/2000/svg" xmlns:xlink="http://www.w3.org/1999/xlink" x="0px" y="0px"
	 width="800px" height="256.605px" viewBox="0 0 800 256.605" enable-background="new 0 0 800 256.605" xml:space="preserve">
<g>
	<g>
		<circle fill="#859DA4" stroke="#FFFFFF" stroke-width="6.3847" stroke-miterlimit="10" cx="404.269" cy="139.505" r="99.757"/>
		<circle fill="#859DA4" stroke="#FFFFFF" stroke-width="6.3847" stroke-miterlimit="10" cx="404.27" cy="139.505" r="72.621"/>
		<g>
			<defs>
				<circle id="SVGID_1_" cx="404.27" cy="139.505" r="57.815"/>
			</defs>
			<clipPath id="SVGID_2_">
				<use xlink:href="#SVGID_1_"  overflow="visible"/>
			</clipPath>
			<rect x="322.598" y="39.747" clip-path="url(#SVGID_2_)" fill="#859DA4" width="176.646" height="192.96"/>
			<g clip-path="url(#SVGID_2_)">
				<circle fill="#FFFFFF" cx="337.135" cy="112.593" r="4.611"/>
				<circle fill="#FFFFFF" cx="347.081" cy="112.593" r="4.612"/>
				<circle fill="#FFFFFF" cx="357.027" cy="112.593" r="4.612"/>
				<circle fill="#FFFFFF" cx="366.972" cy="112.593" r="4.612"/>
				<circle fill="#FFFFFF" cx="376.919" cy="112.593" r="4.612"/>
				<circle fill="#FFFFFF" cx="386.865" cy="112.593" r="4.611"/>
				<circle fill="#FFFFFF" cx="396.81" cy="112.593" r="4.612"/>
				<circle fill="#FFFFFF" cx="406.756" cy="112.593" r="4.611"/>
				<circle fill="#FFFFFF" cx="416.701" cy="112.593" r="4.612"/>
				<circle fill="#FFFFFF" cx="426.647" cy="112.593" r="4.611"/>
				<circle fill="#FFFFFF" cx="436.593" cy="112.593" r="4.612"/>
				<path fill="#FFFFFF" d="M451.149,112.593c0,2.546-2.063,4.612-4.612,4.612c-2.545,0-4.609-2.065-4.609-4.612
					c0-2.545,2.064-4.611,4.609-4.611C449.086,107.982,451.149,110.048,451.149,112.593z"/>
				<circle fill="#FFFFFF" cx="456.485" cy="112.593" r="4.613"/>
				<circle fill="#FFFFFF" cx="466.429" cy="112.593" r="4.611"/>
				<circle fill="#FFFFFF" cx="342.107" cy="121.218" r="4.611"/>
				<circle fill="#FFFFFF" cx="352.053" cy="121.218" r="4.612"/>
				<circle fill="#FFFFFF" cx="362" cy="121.218" r="4.612"/>
				<circle fill="#FFFFFF" cx="371.944" cy="121.218" r="4.611"/>
				<circle fill="#FFFFFF" cx="381.89" cy="121.218" r="4.611"/>
				<circle fill="#FFFFFF" cx="391.837" cy="121.218" r="4.611"/>
				<circle fill="#FFFFFF" cx="401.782" cy="121.218" r="4.612"/>
				<circle fill="#FFFFFF" cx="411.727" cy="121.218" r="4.612"/>
				<circle fill="#FFFFFF" cx="421.674" cy="121.218" r="4.612"/>
				<path fill="#FFFFFF" d="M436.232,121.218c0,2.547-2.066,4.611-4.613,4.611c-2.544,0-4.612-2.064-4.612-4.611
					c0-2.546,2.068-4.612,4.612-4.612C434.166,116.606,436.232,118.672,436.232,121.218z"/>
				<circle fill="#FFFFFF" cx="441.567" cy="121.218" r="4.612"/>
				<circle fill="#FFFFFF" cx="451.51" cy="121.218" r="4.611"/>
				<path fill="#FFFFFF" d="M466.07,121.218c0,2.547-2.068,4.611-4.613,4.611c-2.544,0-4.612-2.064-4.612-4.611
					c0-2.546,2.068-4.612,4.612-4.612C464.002,116.606,466.07,118.672,466.07,121.218z"/>
				<circle fill="#FFFFFF" cx="471.403" cy="121.218" r="4.612"/>
				<circle fill="#FFFFFF" cx="337.135" cy="130.264" r="4.611"/>
				<circle fill="#FFFFFF" cx="347.081" cy="130.264" r="4.612"/>
				<circle fill="#FFFFFF" cx="357.027" cy="130.264" r="4.612"/>
				<circle fill="#FFFFFF" cx="366.972" cy="130.264" r="4.612"/>
				<circle fill="#FFFFFF" cx="376.919" cy="130.264" r="4.612"/>
				<circle fill="#FFFFFF" cx="386.865" cy="130.264" r="4.611"/>
				<circle fill="#FFFFFF" cx="396.81" cy="130.264" r="4.612"/>
				<circle fill="#FFFFFF" cx="406.756" cy="130.264" r="4.611"/>
				<circle fill="#FFFFFF" cx="416.701" cy="130.264" r="4.612"/>
				<circle fill="#FFFFFF" cx="426.647" cy="130.264" r="4.611"/>
				<circle fill="#FFFFFF" cx="436.593" cy="130.264" r="4.612"/>
				<path fill="#FFFFFF" d="M451.149,130.264c0,2.547-2.063,4.61-4.612,4.61c-2.545,0-4.609-2.063-4.609-4.61
					c0-2.548,2.064-4.613,4.609-4.613C449.086,125.651,451.149,127.716,451.149,130.264z"/>
				<circle fill="#FFFFFF" cx="456.485" cy="130.264" r="4.613"/>
				<circle fill="#FFFFFF" cx="466.429" cy="130.264" r="4.611"/>
				<circle fill="#FFFFFF" cx="342.107" cy="138.888" r="4.611"/>
				<circle fill="#FFFFFF" cx="352.053" cy="138.888" r="4.612"/>
				<circle fill="#FFFFFF" cx="362" cy="138.888" r="4.612"/>
				<circle fill="#FFFFFF" cx="371.944" cy="138.888" r="4.611"/>
				<circle fill="#FFFFFF" cx="381.89" cy="138.888" r="4.611"/>
				<circle fill="#FFFFFF" cx="391.837" cy="138.888" r="4.611"/>
				<circle fill="#FFFFFF" cx="401.782" cy="138.888" r="4.612"/>
				<circle fill="#FFFFFF" cx="411.727" cy="138.888" r="4.612"/>
				<circle fill="#FFFFFF" cx="421.674" cy="138.888" r="4.612"/>
				<path fill="#FFFFFF" d="M436.232,138.888c0,2.547-2.066,4.611-4.613,4.611c-2.544,0-4.612-2.064-4.612-4.611
					c0-2.546,2.068-4.612,4.612-4.612C434.166,134.276,436.232,136.341,436.232,138.888z"/>
				<circle fill="#FFFFFF" cx="441.567" cy="138.888" r="4.612"/>
				<circle fill="#FFFFFF" cx="451.51" cy="138.888" r="4.611"/>
				<path fill="#FFFFFF" d="M466.07,138.888c0,2.547-2.068,4.611-4.613,4.611c-2.544,0-4.612-2.064-4.612-4.611
					c0-2.546,2.068-4.612,4.612-4.612C464.002,134.276,466.07,136.341,466.07,138.888z"/>
				<circle fill="#FFFFFF" cx="471.403" cy="138.888" r="4.612"/>
				<circle fill="#FFFFFF" cx="337.135" cy="77.478" r="4.611"/>
				<circle fill="#FFFFFF" cx="347.081" cy="77.478" r="4.612"/>
				<circle fill="#FFFFFF" cx="357.027" cy="77.478" r="4.612"/>
				<circle fill="#FFFFFF" cx="366.972" cy="77.478" r="4.612"/>
				<circle fill="#FFFFFF" cx="376.919" cy="77.478" r="4.612"/>
				<circle fill="#FFFFFF" cx="386.865" cy="77.478" r="4.611"/>
				<circle fill="#FFFFFF" cx="396.81" cy="77.478" r="4.612"/>
				<circle fill="#FFFFFF" cx="406.756" cy="77.478" r="4.611"/>
				<circle fill="#FFFFFF" cx="416.701" cy="77.478" r="4.612"/>
				<circle fill="#FFFFFF" cx="426.647" cy="77.478" r="4.611"/>
				<circle fill="#FFFFFF" cx="436.593" cy="77.478" r="4.612"/>
				<path fill="#FFFFFF" d="M451.149,77.478c0,2.544-2.063,4.61-4.612,4.61c-2.545,0-4.609-2.065-4.609-4.61
					c0-2.547,2.064-4.611,4.609-4.611C449.086,72.867,451.149,74.931,451.149,77.478z"/>
				<circle fill="#FFFFFF" cx="456.485" cy="77.478" r="4.613"/>
				<circle fill="#FFFFFF" cx="466.429" cy="77.478" r="4.611"/>
				<path fill="#FFFFFF" d="M346.718,86.1c0,2.548-2.063,4.615-4.61,4.615c-2.546,0-4.611-2.066-4.611-4.615
					c0-2.545,2.064-4.61,4.611-4.61C344.654,81.489,346.718,83.555,346.718,86.1z"/>
				<path fill="#FFFFFF" d="M356.665,86.1c0,2.548-2.064,4.615-4.612,4.615c-2.546,0-4.611-2.066-4.611-4.615
					c0-2.545,2.064-4.61,4.611-4.61C354.601,81.489,356.665,83.555,356.665,86.1z"/>
				<path fill="#FFFFFF" d="M366.611,86.1c0,2.548-2.066,4.615-4.613,4.615c-2.544,0-4.61-2.066-4.61-4.615
					c0-2.545,2.066-4.61,4.61-4.61C364.545,81.489,366.611,83.555,366.611,86.1z"/>
				<path fill="#FFFFFF" d="M376.556,86.1c0,2.548-2.063,4.615-4.61,4.615s-4.612-2.066-4.612-4.615c0-2.545,2.065-4.61,4.612-4.61
					S376.556,83.555,376.556,86.1z"/>
				<path fill="#FFFFFF" d="M386.5,86.1c0,2.548-2.064,4.615-4.61,4.615c-2.545,0-4.611-2.066-4.611-4.615
					c0-2.545,2.066-4.61,4.611-4.61C384.437,81.489,386.5,83.555,386.5,86.1z"/>
				<path fill="#FFFFFF" d="M396.447,86.1c0,2.548-2.064,4.615-4.61,4.615c-2.547,0-4.611-2.066-4.611-4.615
					c0-2.545,2.064-4.61,4.611-4.61C394.383,81.489,396.447,83.555,396.447,86.1z"/>
				<path fill="#FFFFFF" d="M406.394,86.1c0,2.548-2.064,4.615-4.613,4.615c-2.545,0-4.61-2.066-4.61-4.615
					c0-2.545,2.065-4.61,4.61-4.61C404.33,81.489,406.394,83.555,406.394,86.1z"/>
				<path fill="#FFFFFF" d="M416.339,86.1c0,2.548-2.064,4.615-4.611,4.615s-4.613-2.066-4.613-4.615c0-2.545,2.066-4.61,4.613-4.61
					S416.339,83.555,416.339,86.1z"/>
				<path fill="#FFFFFF" d="M426.285,86.1c0,2.548-2.064,4.615-4.612,4.615c-2.546,0-4.611-2.066-4.611-4.615
					c0-2.545,2.064-4.61,4.611-4.61C424.221,81.489,426.285,83.555,426.285,86.1z"/>
				<path fill="#FFFFFF" d="M436.232,86.1c0,2.548-2.066,4.615-4.613,4.615c-2.544,0-4.612-2.066-4.612-4.615
					c0-2.545,2.068-4.61,4.612-4.61C434.166,81.489,436.232,83.555,436.232,86.1z"/>
				<path fill="#FFFFFF" d="M446.179,86.1c0,2.548-2.066,4.615-4.613,4.615c-2.547,0-4.611-2.066-4.611-4.615
					c0-2.545,2.064-4.61,4.611-4.61C444.112,81.489,446.179,83.555,446.179,86.1z"/>
				<path fill="#FFFFFF" d="M456.121,86.1c0,2.548-2.063,4.615-4.61,4.615c-2.547,0-4.611-2.066-4.611-4.615
					c0-2.545,2.064-4.61,4.611-4.61C454.059,81.489,456.121,83.555,456.121,86.1z"/>
				<path fill="#FFFFFF" d="M466.07,86.1c0,2.548-2.068,4.615-4.613,4.615c-2.544,0-4.612-2.066-4.612-4.615
					c0-2.545,2.068-4.61,4.612-4.61C464.002,81.489,466.07,83.555,466.07,86.1z"/>
				<path fill="#FFFFFF" d="M476.015,86.1c0,2.548-2.064,4.615-4.613,4.615c-2.546,0-4.61-2.066-4.61-4.615
					c0-2.545,2.064-4.61,4.61-4.61C473.95,81.489,476.015,83.555,476.015,86.1z"/>
				<circle fill="#FFFFFF" cx="337.135" cy="95.147" r="4.611"/>
				<circle fill="#FFFFFF" cx="347.081" cy="95.147" r="4.612"/>
				<circle fill="#FFFFFF" cx="357.027" cy="95.147" r="4.612"/>
				<circle fill="#FFFFFF" cx="366.972" cy="95.147" r="4.612"/>
				<circle fill="#FFFFFF" cx="376.919" cy="95.147" r="4.612"/>
				<circle fill="#FFFFFF" cx="386.865" cy="95.147" r="4.611"/>
				<circle fill="#FFFFFF" cx="396.81" cy="95.147" r="4.612"/>
				<circle fill="#FFFFFF" cx="406.756" cy="95.147" r="4.611"/>
				<circle fill="#FFFFFF" cx="416.701" cy="95.147" r="4.612"/>
				<circle fill="#FFFFFF" cx="426.647" cy="95.147" r="4.611"/>
				<circle fill="#FFFFFF" cx="436.593" cy="95.147" r="4.612"/>
				<path fill="#FFFFFF" d="M451.149,95.147c0,2.545-2.063,4.611-4.612,4.611c-2.545,0-4.609-2.066-4.609-4.611
					c0-2.548,2.064-4.614,4.609-4.614C449.086,90.533,451.149,92.599,451.149,95.147z"/>
				<circle fill="#FFFFFF" cx="456.485" cy="95.147" r="4.613"/>
				<circle fill="#FFFFFF" cx="466.429" cy="95.147" r="4.611"/>
				<circle fill="#FFFFFF" cx="342.107" cy="103.772" r="4.611"/>
				<circle fill="#FFFFFF" cx="352.053" cy="103.772" r="4.612"/>
				<circle fill="#FFFFFF" cx="362" cy="103.772" r="4.612"/>
				<circle fill="#FFFFFF" cx="371.944" cy="103.772" r="4.611"/>
				<circle fill="#FFFFFF" cx="381.89" cy="103.772" r="4.611"/>
				<circle fill="#FFFFFF" cx="391.837" cy="103.772" r="4.611"/>
				<circle fill="#FFFFFF" cx="401.782" cy="103.772" r="4.612"/>
				<circle fill="#FFFFFF" cx="411.727" cy="103.772" r="4.612"/>
				<circle fill="#FFFFFF" cx="421.674" cy="103.772" r="4.612"/>
				<path fill="#FFFFFF" d="M436.232,103.772c0,2.547-2.066,4.611-4.613,4.611c-2.544,0-4.612-2.064-4.612-4.611
					c0-2.546,2.068-4.612,4.612-4.612C434.166,99.161,436.232,101.226,436.232,103.772z"/>
				<circle fill="#FFFFFF" cx="441.567" cy="103.772" r="4.612"/>
				<circle fill="#FFFFFF" cx="451.51" cy="103.772" r="4.611"/>
				<path fill="#FFFFFF" d="M466.07,103.772c0,2.547-2.068,4.611-4.613,4.611c-2.544,0-4.612-2.064-4.612-4.611
					c0-2.546,2.068-4.612,4.612-4.612C464.002,99.161,466.07,101.226,466.07,103.772z"/>
				<circle fill="#FFFFFF" cx="471.403" cy="103.772" r="4.612"/>
				<circle fill="#FFFFFF" cx="337.135" cy="182.848" r="4.611"/>
				<circle fill="#FFFFFF" cx="347.081" cy="182.848" r="4.612"/>
				<circle fill="#FFFFFF" cx="357.027" cy="182.848" r="4.612"/>
				<circle fill="#FFFFFF" cx="366.972" cy="182.848" r="4.612"/>
				<circle fill="#FFFFFF" cx="376.919" cy="182.848" r="4.612"/>
				<circle fill="#FFFFFF" cx="386.865" cy="182.848" r="4.611"/>
				<circle fill="#FFFFFF" cx="396.81" cy="182.848" r="4.612"/>
				<circle fill="#FFFFFF" cx="406.756" cy="182.848" r="4.611"/>
				<circle fill="#FFFFFF" cx="416.701" cy="182.848" r="4.612"/>
				<circle fill="#FFFFFF" cx="426.647" cy="182.848" r="4.611"/>
				<circle fill="#FFFFFF" cx="436.593" cy="182.848" r="4.612"/>
				<path fill="#FFFFFF" d="M451.149,182.848c0,2.547-2.063,4.611-4.612,4.611c-2.545,0-4.609-2.064-4.609-4.611
					c0-2.548,2.064-4.61,4.609-4.61C449.086,178.238,451.149,180.3,451.149,182.848z"/>
				<circle fill="#FFFFFF" cx="456.485" cy="182.848" r="4.613"/>
				<circle fill="#FFFFFF" cx="466.429" cy="182.848" r="4.611"/>
				<path fill="#FFFFFF" d="M346.718,191.473c0,2.544-2.063,4.612-4.61,4.612c-2.546,0-4.611-2.068-4.611-4.612
					c0-2.547,2.064-4.613,4.611-4.613C344.654,186.859,346.718,188.926,346.718,191.473z"/>
				<path fill="#FFFFFF" d="M356.665,191.473c0,2.544-2.064,4.612-4.612,4.612c-2.546,0-4.611-2.068-4.611-4.612
					c0-2.547,2.064-4.613,4.611-4.613C354.601,186.859,356.665,188.926,356.665,191.473z"/>
				<path fill="#FFFFFF" d="M366.611,191.473c0,2.544-2.066,4.612-4.613,4.612c-2.544,0-4.61-2.068-4.61-4.612
					c0-2.547,2.066-4.613,4.61-4.613C364.545,186.859,366.611,188.926,366.611,191.473z"/>
				<path fill="#FFFFFF" d="M376.556,191.473c0,2.544-2.063,4.612-4.61,4.612s-4.612-2.068-4.612-4.612
					c0-2.547,2.065-4.613,4.612-4.613S376.556,188.926,376.556,191.473z"/>
				<path fill="#FFFFFF" d="M386.5,191.473c0,2.544-2.064,4.612-4.61,4.612c-2.545,0-4.611-2.068-4.611-4.612
					c0-2.547,2.066-4.613,4.611-4.613C384.437,186.859,386.5,188.926,386.5,191.473z"/>
				<path fill="#FFFFFF" d="M396.447,191.473c0,2.544-2.064,4.612-4.61,4.612c-2.547,0-4.611-2.068-4.611-4.612
					c0-2.547,2.064-4.613,4.611-4.613C394.383,186.859,396.447,188.926,396.447,191.473z"/>
				<path fill="#FFFFFF" d="M406.394,191.473c0,2.544-2.064,4.612-4.613,4.612c-2.545,0-4.61-2.068-4.61-4.612
					c0-2.547,2.065-4.613,4.61-4.613C404.33,186.859,406.394,188.926,406.394,191.473z"/>
				<path fill="#FFFFFF" d="M416.339,191.473c0,2.544-2.064,4.612-4.611,4.612s-4.613-2.068-4.613-4.612
					c0-2.547,2.066-4.613,4.613-4.613S416.339,188.926,416.339,191.473z"/>
				<path fill="#FFFFFF" d="M426.285,191.473c0,2.544-2.064,4.612-4.612,4.612c-2.546,0-4.611-2.068-4.611-4.612
					c0-2.547,2.064-4.613,4.611-4.613C424.221,186.859,426.285,188.926,426.285,191.473z"/>
				<path fill="#FFFFFF" d="M436.232,191.473c0,2.544-2.066,4.612-4.613,4.612c-2.544,0-4.612-2.068-4.612-4.612
					c0-2.547,2.068-4.613,4.612-4.613C434.166,186.859,436.232,188.926,436.232,191.473z"/>
				<path fill="#FFFFFF" d="M446.179,191.473c0,2.544-2.066,4.612-4.613,4.612c-2.547,0-4.611-2.068-4.611-4.612
					c0-2.547,2.064-4.613,4.611-4.613C444.112,186.859,446.179,188.926,446.179,191.473z"/>
				<path fill="#FFFFFF" d="M456.121,191.473c0,2.544-2.063,4.612-4.61,4.612c-2.547,0-4.611-2.068-4.611-4.612
					c0-2.547,2.064-4.613,4.611-4.613C454.059,186.859,456.121,188.926,456.121,191.473z"/>
				<path fill="#FFFFFF" d="M466.07,191.473c0,2.544-2.068,4.612-4.613,4.612c-2.544,0-4.612-2.068-4.612-4.612
					c0-2.547,2.068-4.613,4.612-4.613C464.002,186.859,466.07,188.926,466.07,191.473z"/>
				<path fill="#FFFFFF" d="M476.015,191.473c0,2.544-2.064,4.612-4.613,4.612c-2.546,0-4.61-2.068-4.61-4.612
					c0-2.547,2.064-4.613,4.61-4.613C473.95,186.859,476.015,188.926,476.015,191.473z"/>
				<circle fill="#FFFFFF" cx="337.135" cy="200.518" r="4.611"/>
				<circle fill="#FFFFFF" cx="347.081" cy="200.518" r="4.612"/>
				<circle fill="#FFFFFF" cx="357.027" cy="200.518" r="4.612"/>
				<circle fill="#FFFFFF" cx="366.972" cy="200.518" r="4.612"/>
				<circle fill="#FFFFFF" cx="376.919" cy="200.518" r="4.612"/>
				<circle fill="#FFFFFF" cx="386.865" cy="200.518" r="4.611"/>
				<circle fill="#FFFFFF" cx="396.81" cy="200.518" r="4.612"/>
				<circle fill="#FFFFFF" cx="406.756" cy="200.518" r="4.611"/>
				<circle fill="#FFFFFF" cx="416.701" cy="200.518" r="4.612"/>
				<circle fill="#FFFFFF" cx="426.647" cy="200.518" r="4.611"/>
				<circle fill="#FFFFFF" cx="436.593" cy="200.518" r="4.612"/>
				<path fill="#FFFFFF" d="M451.149,200.518c0,2.546-2.063,4.611-4.612,4.611c-2.545,0-4.609-2.064-4.609-4.611
					c0-2.546,2.064-4.612,4.609-4.612C449.086,195.905,451.149,197.972,451.149,200.518z"/>
				<circle fill="#FFFFFF" cx="456.485" cy="200.518" r="4.613"/>
				<circle fill="#FFFFFF" cx="466.429" cy="200.518" r="4.611"/>
				<path fill="#FFFFFF" d="M346.718,209.142c0,2.545-2.063,4.61-4.61,4.61c-2.546,0-4.611-2.064-4.611-4.61
					c0-2.549,2.064-4.611,4.611-4.611C344.654,204.531,346.718,206.593,346.718,209.142z"/>
				<path fill="#FFFFFF" d="M356.665,209.142c0,2.545-2.064,4.61-4.612,4.61c-2.546,0-4.611-2.064-4.611-4.61
					c0-2.549,2.064-4.611,4.611-4.611C354.601,204.531,356.665,206.593,356.665,209.142z"/>
				<path fill="#FFFFFF" d="M366.611,209.142c0,2.545-2.066,4.61-4.613,4.61c-2.544,0-4.61-2.064-4.61-4.61
					c0-2.549,2.066-4.611,4.61-4.611C364.545,204.531,366.611,206.593,366.611,209.142z"/>
				<path fill="#FFFFFF" d="M376.556,209.142c0,2.545-2.063,4.61-4.61,4.61s-4.612-2.064-4.612-4.61
					c0-2.549,2.065-4.611,4.612-4.611S376.556,206.593,376.556,209.142z"/>
				<path fill="#FFFFFF" d="M386.5,209.142c0,2.545-2.064,4.61-4.61,4.61c-2.545,0-4.611-2.064-4.611-4.61
					c0-2.549,2.066-4.611,4.611-4.611C384.437,204.531,386.5,206.593,386.5,209.142z"/>
				<path fill="#FFFFFF" d="M396.447,209.142c0,2.545-2.064,4.61-4.61,4.61c-2.547,0-4.611-2.064-4.611-4.61
					c0-2.549,2.064-4.611,4.611-4.611C394.383,204.531,396.447,206.593,396.447,209.142z"/>
				<path fill="#FFFFFF" d="M406.394,209.142c0,2.545-2.064,4.61-4.613,4.61c-2.545,0-4.61-2.064-4.61-4.61
					c0-2.549,2.065-4.611,4.61-4.611C404.33,204.531,406.394,206.593,406.394,209.142z"/>
				<path fill="#FFFFFF" d="M416.339,209.142c0,2.545-2.064,4.61-4.611,4.61s-4.613-2.064-4.613-4.61
					c0-2.549,2.066-4.611,4.613-4.611S416.339,206.593,416.339,209.142z"/>
				<path fill="#FFFFFF" d="M426.285,209.142c0,2.545-2.064,4.61-4.612,4.61c-2.546,0-4.611-2.064-4.611-4.61
					c0-2.549,2.064-4.611,4.611-4.611C424.221,204.531,426.285,206.593,426.285,209.142z"/>
				<path fill="#FFFFFF" d="M436.232,209.142c0,2.545-2.066,4.61-4.613,4.61c-2.544,0-4.612-2.064-4.612-4.61
					c0-2.549,2.068-4.611,4.612-4.611C434.166,204.531,436.232,206.593,436.232,209.142z"/>
				<path fill="#FFFFFF" d="M446.179,209.142c0,2.545-2.066,4.61-4.613,4.61c-2.547,0-4.611-2.064-4.611-4.61
					c0-2.549,2.064-4.611,4.611-4.611C444.112,204.531,446.179,206.593,446.179,209.142z"/>
				<path fill="#FFFFFF" d="M456.121,209.142c0,2.545-2.063,4.61-4.61,4.61c-2.547,0-4.611-2.064-4.611-4.61
					c0-2.549,2.064-4.611,4.611-4.611C454.059,204.531,456.121,206.593,456.121,209.142z"/>
				<path fill="#FFFFFF" d="M466.07,209.142c0,2.545-2.068,4.61-4.613,4.61c-2.544,0-4.612-2.064-4.612-4.61
					c0-2.549,2.068-4.611,4.612-4.611C464.002,204.531,466.07,206.593,466.07,209.142z"/>
				<path fill="#FFFFFF" d="M476.015,209.142c0,2.545-2.064,4.61-4.613,4.61c-2.546,0-4.61-2.064-4.61-4.61
					c0-2.549,2.064-4.611,4.61-4.611C473.95,204.531,476.015,206.593,476.015,209.142z"/>
				<circle fill="#FFFFFF" cx="337.135" cy="147.732" r="4.611"/>
				<circle fill="#FFFFFF" cx="347.081" cy="147.732" r="4.612"/>
				<circle fill="#FFFFFF" cx="357.027" cy="147.732" r="4.612"/>
				<circle fill="#FFFFFF" cx="366.972" cy="147.732" r="4.612"/>
				<circle fill="#FFFFFF" cx="376.919" cy="147.732" r="4.612"/>
				<circle fill="#FFFFFF" cx="386.865" cy="147.732" r="4.611"/>
				<circle fill="#FFFFFF" cx="396.81" cy="147.732" r="4.612"/>
				<circle fill="#FFFFFF" cx="406.756" cy="147.732" r="4.611"/>
				<circle fill="#FFFFFF" cx="416.701" cy="147.732" r="4.612"/>
				<circle fill="#FFFFFF" cx="426.647" cy="147.732" r="4.611"/>
				<circle fill="#FFFFFF" cx="436.593" cy="147.732" r="4.612"/>
				<path fill="#FFFFFF" d="M451.149,147.732c0,2.546-2.063,4.612-4.612,4.612c-2.545,0-4.609-2.066-4.609-4.612
					c0-2.545,2.064-4.611,4.609-4.611C449.086,143.121,451.149,145.187,451.149,147.732z"/>
				<circle fill="#FFFFFF" cx="456.485" cy="147.732" r="4.613"/>
				<circle fill="#FFFFFF" cx="466.429" cy="147.732" r="4.611"/>
				<path fill="#FFFFFF" d="M346.718,156.357c0,2.545-2.063,4.61-4.61,4.61c-2.546,0-4.611-2.064-4.611-4.61
					c0-2.549,2.064-4.611,4.611-4.611C344.654,151.746,346.718,153.809,346.718,156.357z"/>
				<path fill="#FFFFFF" d="M356.665,156.357c0,2.545-2.064,4.61-4.612,4.61c-2.546,0-4.611-2.064-4.611-4.61
					c0-2.549,2.064-4.611,4.611-4.611C354.601,151.746,356.665,153.809,356.665,156.357z"/>
				<path fill="#FFFFFF" d="M366.611,156.357c0,2.545-2.066,4.61-4.613,4.61c-2.544,0-4.61-2.064-4.61-4.61
					c0-2.549,2.066-4.611,4.61-4.611C364.545,151.746,366.611,153.809,366.611,156.357z"/>
				<path fill="#FFFFFF" d="M376.556,156.357c0,2.545-2.063,4.61-4.61,4.61s-4.612-2.064-4.612-4.61
					c0-2.549,2.065-4.611,4.612-4.611S376.556,153.809,376.556,156.357z"/>
				<path fill="#FFFFFF" d="M386.5,156.357c0,2.545-2.064,4.61-4.61,4.61c-2.545,0-4.611-2.064-4.611-4.61
					c0-2.549,2.066-4.611,4.611-4.611C384.437,151.746,386.5,153.809,386.5,156.357z"/>
				<path fill="#FFFFFF" d="M396.447,156.357c0,2.545-2.064,4.61-4.61,4.61c-2.547,0-4.611-2.064-4.611-4.61
					c0-2.549,2.064-4.611,4.611-4.611C394.383,151.746,396.447,153.809,396.447,156.357z"/>
				<path fill="#FFFFFF" d="M406.394,156.357c0,2.545-2.064,4.61-4.613,4.61c-2.545,0-4.61-2.064-4.61-4.61
					c0-2.549,2.065-4.611,4.61-4.611C404.33,151.746,406.394,153.809,406.394,156.357z"/>
				<path fill="#FFFFFF" d="M416.339,156.357c0,2.545-2.064,4.61-4.611,4.61s-4.613-2.064-4.613-4.61
					c0-2.549,2.066-4.611,4.613-4.611S416.339,153.809,416.339,156.357z"/>
				<path fill="#FFFFFF" d="M426.285,156.357c0,2.545-2.064,4.61-4.612,4.61c-2.546,0-4.611-2.064-4.611-4.61
					c0-2.549,2.064-4.611,4.611-4.611C424.221,151.746,426.285,153.809,426.285,156.357z"/>
				<path fill="#FFFFFF" d="M436.232,156.357c0,2.545-2.066,4.61-4.613,4.61c-2.544,0-4.612-2.064-4.612-4.61
					c0-2.549,2.068-4.611,4.612-4.611C434.166,151.746,436.232,153.809,436.232,156.357z"/>
				<path fill="#FFFFFF" d="M446.179,156.357c0,2.545-2.066,4.61-4.613,4.61c-2.547,0-4.611-2.064-4.611-4.61
					c0-2.549,2.064-4.611,4.611-4.611C444.112,151.746,446.179,153.809,446.179,156.357z"/>
				<path fill="#FFFFFF" d="M456.121,156.357c0,2.545-2.063,4.61-4.61,4.61c-2.547,0-4.611-2.064-4.611-4.61
					c0-2.549,2.064-4.611,4.611-4.611C454.059,151.746,456.121,153.809,456.121,156.357z"/>
				<path fill="#FFFFFF" d="M466.07,156.357c0,2.545-2.068,4.61-4.613,4.61c-2.544,0-4.612-2.064-4.612-4.61
					c0-2.549,2.068-4.611,4.612-4.611C464.002,151.746,466.07,153.809,466.07,156.357z"/>
				<path fill="#FFFFFF" d="M476.015,156.357c0,2.545-2.064,4.61-4.613,4.61c-2.546,0-4.61-2.064-4.61-4.61
					c0-2.549,2.064-4.611,4.61-4.611C473.95,151.746,476.015,153.809,476.015,156.357z"/>
				<circle fill="#FFFFFF" cx="337.135" cy="165.401" r="4.611"/>
				<circle fill="#FFFFFF" cx="347.081" cy="165.401" r="4.612"/>
				<circle fill="#FFFFFF" cx="357.027" cy="165.401" r="4.612"/>
				<circle fill="#FFFFFF" cx="366.972" cy="165.401" r="4.612"/>
				<circle fill="#FFFFFF" cx="376.919" cy="165.401" r="4.612"/>
				<circle fill="#FFFFFF" cx="386.865" cy="165.401" r="4.611"/>
				<circle fill="#FFFFFF" cx="396.81" cy="165.401" r="4.612"/>
				<circle fill="#FFFFFF" cx="406.756" cy="165.401" r="4.611"/>
				<circle fill="#FFFFFF" cx="416.701" cy="165.401" r="4.612"/>
				<circle fill="#FFFFFF" cx="426.647" cy="165.401" r="4.611"/>
				<circle fill="#FFFFFF" cx="436.593" cy="165.401" r="4.612"/>
				<path fill="#FFFFFF" d="M451.149,165.401c0,2.547-2.063,4.612-4.612,4.612c-2.545,0-4.609-2.064-4.609-4.612
					c0-2.547,2.064-4.611,4.609-4.611C449.086,160.79,451.149,162.854,451.149,165.401z"/>
				<circle fill="#FFFFFF" cx="456.485" cy="165.401" r="4.613"/>
				<circle fill="#FFFFFF" cx="466.429" cy="165.401" r="4.611"/>
				<circle fill="#FFFFFF" cx="342.107" cy="174.026" r="4.611"/>
				<circle fill="#FFFFFF" cx="352.053" cy="174.026" r="4.612"/>
				<circle fill="#FFFFFF" cx="362" cy="174.026" r="4.612"/>
				<circle fill="#FFFFFF" cx="371.944" cy="174.026" r="4.611"/>
				<circle fill="#FFFFFF" cx="381.89" cy="174.026" r="4.611"/>
				<circle fill="#FFFFFF" cx="391.837" cy="174.026" r="4.611"/>
				<circle fill="#FFFFFF" cx="401.782" cy="174.026" r="4.612"/>
				<circle fill="#FFFFFF" cx="411.727" cy="174.026" r="4.612"/>
				<circle fill="#FFFFFF" cx="421.674" cy="174.026" r="4.612"/>
				<path fill="#FFFFFF" d="M436.232,174.026c0,2.546-2.066,4.612-4.613,4.612c-2.544,0-4.612-2.066-4.612-4.612
					c0-2.546,2.068-4.611,4.612-4.611C434.166,169.416,436.232,171.48,436.232,174.026z"/>
				<circle fill="#FFFFFF" cx="441.567" cy="174.026" r="4.612"/>
				<circle fill="#FFFFFF" cx="451.51" cy="174.026" r="4.611"/>
				<path fill="#FFFFFF" d="M466.07,174.026c0,2.546-2.068,4.612-4.613,4.612c-2.544,0-4.612-2.066-4.612-4.612
					c0-2.546,2.068-4.611,4.612-4.611C464.002,169.416,466.07,171.48,466.07,174.026z"/>
				<circle fill="#FFFFFF" cx="471.403" cy="174.026" r="4.612"/>
			</g>
		</g>
		<circle fill="none" stroke="#FFFFFF" stroke-width="6.3847" stroke-miterlimit="10" cx="404.27" cy="139.505" r="57.815"/>
	</g>
	<text transform="matrix(1 0 0 1 535.9414 59.6123)"><tspan x="0" y="0" fill="#FFFFFF" font-family="'AdobeFanHeitiStd-Bold-B5pc-H'" font-size="24.5144">外被使用</tspan><tspan x="98.058" y="0" fill="#FFFFFF" font-family="'AdobeFanHeitiStd-Bold-B5pc-H'" font-size="24.5144" letter-spacing="1">Silicone</tspan><tspan x="196.261" y="0" fill="#FFFFFF" font-family="'AdobeFanHeitiStd-Bold-B5pc-H'" font-size="24.5144">環保</tspan><tspan x="0" y="26.337" fill="#FFFFFF" font-family="'AdobeFanHeitiStd-Bold-B5pc-H'" font-size="24.5144">材質，無毒無味及優越</tspan><tspan x="0" y="52.674" fill="#FFFFFF" font-family="'AdobeFanHeitiStd-Bold-B5pc-H'" font-size="24.5144">的溫度穩定性。</tspan></text>
	<polyline fill="none" stroke="#FFFFFF" stroke-width="1.0641" stroke-miterlimit="10" points="450.35,66.884 519.786,22.188 
		779.164,22.188 	"/>
	<g>
		<text transform="matrix(1 0 0 1 24.2827 111.5635)"><tspan x="0" y="0" fill="#FFFFFF" font-family="'AdobeFanHeitiStd-Bold-B5pc-H'" font-size="24.5144">高純度高導電的超軟</tspan><tspan x="0" y="26.337" fill="#FFFFFF" font-family="'AdobeFanHeitiStd-Bold-B5pc-H'" font-size="24.5144">導體，可運用在有限</tspan><tspan x="0" y="52.674" fill="#FFFFFF" font-family="'AdobeFanHeitiStd-Bold-B5pc-H'" font-size="24.5144">空間內佈線。</tspan></text>
	</g>
	<polyline fill="none" stroke="#FFFFFF" stroke-width="1.9068" stroke-miterlimit="10" points="369.045,135.314 268.448,75.852 
		24.281,75.852 	"/>
</g>
</svg>
