<?xml version="1.0" encoding="utf-8"?>
<!-- Generator: Adobe Illustrator 16.0.0, SVG Export Plug-In . SVG Version: 6.00 Build 0)  -->
<!DOCTYPE svg PUBLIC "-//W3C//DTD SVG 1.1//EN" "http://www.w3.org/Graphics/SVG/1.1/DTD/svg11.dtd">
<svg version="1.1" id="圖層_1" xmlns="http://www.w3.org/2000/svg" xmlns:xlink="http://www.w3.org/1999/xlink" x="0px" y="0px"
	 width="800px" height="256.605px" viewBox="0 0 800 256.605" enable-background="new 0 0 800 256.605" xml:space="preserve">
<g>
	<circle fill="#859DA4" stroke="#FFFFFF" stroke-width="6.3847" stroke-miterlimit="10" cx="404.269" cy="139.505" r="99.757"/>
	<circle fill="#859DA4" stroke="#FFFFFF" stroke-width="6.3847" stroke-miterlimit="10" cx="404.27" cy="139.505" r="72.621"/>
	<g>
		<defs>
			<circle id="SVGID_1_" cx="404.27" cy="139.505" r="57.815"/>
		</defs>
		<clipPath id="SVGID_2_">
			<use xlink:href="#SVGID_1_"  overflow="visible"/>
		</clipPath>
		<rect x="322.598" y="39.747" clip-path="url(#SVGID_2_)" fill="#859DA4" width="176.646" height="192.96"/>
		<g clip-path="url(#SVGID_2_)">
			<circle fill="#FFFFFF" cx="337.135" cy="112.593" r="4.611"/>
			<circle fill="#FFFFFF" cx="347.081" cy="112.593" r="4.612"/>
			<circle fill="#FFFFFF" cx="357.027" cy="112.593" r="4.612"/>
			<circle fill="#FFFFFF" cx="366.972" cy="112.593" r="4.612"/>
			<circle fill="#FFFFFF" cx="376.919" cy="112.593" r="4.612"/>
			<circle fill="#FFFFFF" cx="386.865" cy="112.593" r="4.611"/>
			<circle fill="#FFFFFF" cx="396.81" cy="112.593" r="4.612"/>
			<circle fill="#FFFFFF" cx="406.756" cy="112.593" r="4.611"/>
			<circle fill="#FFFFFF" cx="416.701" cy="112.593" r="4.612"/>
			<circle fill="#FFFFFF" cx="426.647" cy="112.593" r="4.611"/>
			<circle fill="#FFFFFF" cx="436.593" cy="112.593" r="4.612"/>
			<path fill="#FFFFFF" d="M451.149,112.593c0,2.546-2.063,4.612-4.612,4.612c-2.545,0-4.609-2.065-4.609-4.612
				c0-2.545,2.064-4.611,4.609-4.611C449.086,107.982,451.149,110.048,451.149,112.593z"/>
			<circle fill="#FFFFFF" cx="456.485" cy="112.593" r="4.613"/>
			<circle fill="#FFFFFF" cx="466.429" cy="112.593" r="4.611"/>
			<circle fill="#FFFFFF" cx="342.107" cy="121.218" r="4.611"/>
			<circle fill="#FFFFFF" cx="352.053" cy="121.218" r="4.612"/>
			<circle fill="#FFFFFF" cx="362" cy="121.218" r="4.612"/>
			<circle fill="#FFFFFF" cx="371.944" cy="121.218" r="4.611"/>
			<circle fill="#FFFFFF" cx="381.89" cy="121.218" r="4.611"/>
			<circle fill="#FFFFFF" cx="391.837" cy="121.218" r="4.611"/>
			<circle fill="#FFFFFF" cx="401.782" cy="121.218" r="4.612"/>
			<circle fill="#FFFFFF" cx="411.727" cy="121.218" r="4.612"/>
			<circle fill="#FFFFFF" cx="421.674" cy="121.218" r="4.612"/>
			<path fill="#FFFFFF" d="M436.232,121.218c0,2.547-2.066,4.611-4.613,4.611c-2.544,0-4.612-2.064-4.612-4.611
				c0-2.546,2.068-4.612,4.612-4.612C434.166,116.606,436.232,118.672,436.232,121.218z"/>
			<circle fill="#FFFFFF" cx="441.567" cy="121.218" r="4.612"/>
			<circle fill="#FFFFFF" cx="451.51" cy="121.218" r="4.611"/>
			<path fill="#FFFFFF" d="M466.07,121.218c0,2.547-2.068,4.611-4.613,4.611c-2.544,0-4.612-2.064-4.612-4.611
				c0-2.546,2.068-4.612,4.612-4.612C464.002,116.606,466.07,118.672,466.07,121.218z"/>
			<circle fill="#FFFFFF" cx="471.403" cy="121.218" r="4.612"/>
			<circle fill="#FFFFFF" cx="337.135" cy="130.264" r="4.611"/>
			<circle fill="#FFFFFF" cx="347.081" cy="130.264" r="4.612"/>
			<circle fill="#FFFFFF" cx="357.027" cy="130.264" r="4.612"/>
			<circle fill="#FFFFFF" cx="366.972" cy="130.264" r="4.612"/>
			<circle fill="#FFFFFF" cx="376.919" cy="130.264" r="4.612"/>
			<circle fill="#FFFFFF" cx="386.865" cy="130.264" r="4.611"/>
			<circle fill="#FFFFFF" cx="396.81" cy="130.264" r="4.612"/>
			<circle fill="#FFFFFF" cx="406.756" cy="130.264" r="4.611"/>
			<circle fill="#FFFFFF" cx="416.701" cy="130.264" r="4.612"/>
			<circle fill="#FFFFFF" cx="426.647" cy="130.264" r="4.611"/>
			<circle fill="#FFFFFF" cx="436.593" cy="130.264" r="4.612"/>
			<path fill="#FFFFFF" d="M451.149,130.264c0,2.547-2.063,4.61-4.612,4.61c-2.545,0-4.609-2.063-4.609-4.61
				c0-2.548,2.064-4.613,4.609-4.613C449.086,125.651,451.149,127.716,451.149,130.264z"/>
			<circle fill="#FFFFFF" cx="456.485" cy="130.264" r="4.613"/>
			<circle fill="#FFFFFF" cx="466.429" cy="130.264" r="4.611"/>
			<circle fill="#FFFFFF" cx="342.107" cy="138.888" r="4.611"/>
			<circle fill="#FFFFFF" cx="352.053" cy="138.888" r="4.612"/>
			<circle fill="#FFFFFF" cx="362" cy="138.888" r="4.612"/>
			<circle fill="#FFFFFF" cx="371.944" cy="138.888" r="4.611"/>
			<circle fill="#FFFFFF" cx="381.89" cy="138.888" r="4.611"/>
			<circle fill="#FFFFFF" cx="391.837" cy="138.888" r="4.611"/>
			<circle fill="#FFFFFF" cx="401.782" cy="138.888" r="4.612"/>
			<circle fill="#FFFFFF" cx="411.727" cy="138.888" r="4.612"/>
			<circle fill="#FFFFFF" cx="421.674" cy="138.888" r="4.612"/>
			<path fill="#FFFFFF" d="M436.232,138.888c0,2.547-2.066,4.611-4.613,4.611c-2.544,0-4.612-2.064-4.612-4.611
				c0-2.546,2.068-4.612,4.612-4.612C434.166,134.276,436.232,136.341,436.232,138.888z"/>
			<circle fill="#FFFFFF" cx="441.567" cy="138.888" r="4.612"/>
			<circle fill="#FFFFFF" cx="451.51" cy="138.888" r="4.611"/>
			<path fill="#FFFFFF" d="M466.07,138.888c0,2.547-2.068,4.611-4.613,4.611c-2.544,0-4.612-2.064-4.612-4.611
				c0-2.546,2.068-4.612,4.612-4.612C464.002,134.276,466.07,136.341,466.07,138.888z"/>
			<circle fill="#FFFFFF" cx="471.403" cy="138.888" r="4.612"/>
			<circle fill="#FFFFFF" cx="337.135" cy="77.478" r="4.611"/>
			<circle fill="#FFFFFF" cx="347.081" cy="77.478" r="4.612"/>
			<circle fill="#FFFFFF" cx="357.027" cy="77.478" r="4.612"/>
			<circle fill="#FFFFFF" cx="366.972" cy="77.478" r="4.612"/>
			<circle fill="#FFFFFF" cx="376.919" cy="77.478" r="4.612"/>
			<circle fill="#FFFFFF" cx="386.865" cy="77.478" r="4.611"/>
			<circle fill="#FFFFFF" cx="396.81" cy="77.478" r="4.612"/>
			<circle fill="#FFFFFF" cx="406.756" cy="77.478" r="4.611"/>
			<circle fill="#FFFFFF" cx="416.701" cy="77.478" r="4.612"/>
			<circle fill="#FFFFFF" cx="426.647" cy="77.478" r="4.611"/>
			<circle fill="#FFFFFF" cx="436.593" cy="77.478" r="4.612"/>
			<path fill="#FFFFFF" d="M451.149,77.478c0,2.544-2.063,4.61-4.612,4.61c-2.545,0-4.609-2.065-4.609-4.61
				c0-2.547,2.064-4.611,4.609-4.611C449.086,72.867,451.149,74.931,451.149,77.478z"/>
			<circle fill="#FFFFFF" cx="456.485" cy="77.478" r="4.613"/>
			<circle fill="#FFFFFF" cx="466.429" cy="77.478" r="4.611"/>
			<path fill="#FFFFFF" d="M346.718,86.1c0,2.548-2.063,4.615-4.61,4.615c-2.546,0-4.611-2.066-4.611-4.615
				c0-2.545,2.064-4.61,4.611-4.61C344.654,81.489,346.718,83.555,346.718,86.1z"/>
			<path fill="#FFFFFF" d="M356.665,86.1c0,2.548-2.064,4.615-4.612,4.615c-2.546,0-4.611-2.066-4.611-4.615
				c0-2.545,2.064-4.61,4.611-4.61C354.601,81.489,356.665,83.555,356.665,86.1z"/>
			<path fill="#FFFFFF" d="M366.611,86.1c0,2.548-2.066,4.615-4.613,4.615c-2.544,0-4.61-2.066-4.61-4.615
				c0-2.545,2.066-4.61,4.61-4.61C364.545,81.489,366.611,83.555,366.611,86.1z"/>
			<path fill="#FFFFFF" d="M376.556,86.1c0,2.548-2.063,4.615-4.61,4.615s-4.612-2.066-4.612-4.615c0-2.545,2.065-4.61,4.612-4.61
				S376.556,83.555,376.556,86.1z"/>
			<path fill="#FFFFFF" d="M386.5,86.1c0,2.548-2.064,4.615-4.61,4.615c-2.545,0-4.611-2.066-4.611-4.615
				c0-2.545,2.066-4.61,4.611-4.61C384.437,81.489,386.5,83.555,386.5,86.1z"/>
			<path fill="#FFFFFF" d="M396.447,86.1c0,2.548-2.064,4.615-4.61,4.615c-2.547,0-4.611-2.066-4.611-4.615
				c0-2.545,2.064-4.61,4.611-4.61C394.383,81.489,396.447,83.555,396.447,86.1z"/>
			<path fill="#FFFFFF" d="M406.394,86.1c0,2.548-2.064,4.615-4.613,4.615c-2.545,0-4.61-2.066-4.61-4.615
				c0-2.545,2.065-4.61,4.61-4.61C404.33,81.489,406.394,83.555,406.394,86.1z"/>
			<path fill="#FFFFFF" d="M416.339,86.1c0,2.548-2.064,4.615-4.611,4.615s-4.613-2.066-4.613-4.615c0-2.545,2.066-4.61,4.613-4.61
				S416.339,83.555,416.339,86.1z"/>
			<path fill="#FFFFFF" d="M426.285,86.1c0,2.548-2.064,4.615-4.612,4.615c-2.546,0-4.611-2.066-4.611-4.615
				c0-2.545,2.064-4.61,4.611-4.61C424.221,81.489,426.285,83.555,426.285,86.1z"/>
			<path fill="#FFFFFF" d="M436.232,86.1c0,2.548-2.066,4.615-4.613,4.615c-2.544,0-4.612-2.066-4.612-4.615
				c0-2.545,2.068-4.61,4.612-4.61C434.166,81.489,436.232,83.555,436.232,86.1z"/>
			<path fill="#FFFFFF" d="M446.179,86.1c0,2.548-2.066,4.615-4.613,4.615c-2.547,0-4.611-2.066-4.611-4.615
				c0-2.545,2.064-4.61,4.611-4.61C444.112,81.489,446.179,83.555,446.179,86.1z"/>
			<path fill="#FFFFFF" d="M456.121,86.1c0,2.548-2.063,4.615-4.61,4.615c-2.547,0-4.611-2.066-4.611-4.615
				c0-2.545,2.064-4.61,4.611-4.61C454.059,81.489,456.121,83.555,456.121,86.1z"/>
			<path fill="#FFFFFF" d="M466.07,86.1c0,2.548-2.068,4.615-4.613,4.615c-2.544,0-4.612-2.066-4.612-4.615
				c0-2.545,2.068-4.61,4.612-4.61C464.002,81.489,466.07,83.555,466.07,86.1z"/>
			<path fill="#FFFFFF" d="M476.015,86.1c0,2.548-2.064,4.615-4.613,4.615c-2.546,0-4.61-2.066-4.61-4.615
				c0-2.545,2.064-4.61,4.61-4.61C473.95,81.489,476.015,83.555,476.015,86.1z"/>
			<circle fill="#FFFFFF" cx="337.135" cy="95.147" r="4.611"/>
			<circle fill="#FFFFFF" cx="347.081" cy="95.147" r="4.612"/>
			<circle fill="#FFFFFF" cx="357.027" cy="95.147" r="4.612"/>
			<circle fill="#FFFFFF" cx="366.972" cy="95.147" r="4.612"/>
			<circle fill="#FFFFFF" cx="376.919" cy="95.147" r="4.612"/>
			<circle fill="#FFFFFF" cx="386.865" cy="95.147" r="4.611"/>
			<circle fill="#FFFFFF" cx="396.81" cy="95.147" r="4.612"/>
			<circle fill="#FFFFFF" cx="406.756" cy="95.147" r="4.611"/>
			<circle fill="#FFFFFF" cx="416.701" cy="95.147" r="4.612"/>
			<circle fill="#FFFFFF" cx="426.647" cy="95.147" r="4.611"/>
			<circle fill="#FFFFFF" cx="436.593" cy="95.147" r="4.612"/>
			<path fill="#FFFFFF" d="M451.149,95.147c0,2.545-2.063,4.611-4.612,4.611c-2.545,0-4.609-2.066-4.609-4.611
				c0-2.548,2.064-4.614,4.609-4.614C449.086,90.533,451.149,92.599,451.149,95.147z"/>
			<circle fill="#FFFFFF" cx="456.485" cy="95.147" r="4.613"/>
			<circle fill="#FFFFFF" cx="466.429" cy="95.147" r="4.611"/>
			<circle fill="#FFFFFF" cx="342.107" cy="103.772" r="4.611"/>
			<circle fill="#FFFFFF" cx="352.053" cy="103.772" r="4.612"/>
			<circle fill="#FFFFFF" cx="362" cy="103.772" r="4.612"/>
			<circle fill="#FFFFFF" cx="371.944" cy="103.772" r="4.611"/>
			<circle fill="#FFFFFF" cx="381.89" cy="103.772" r="4.611"/>
			<circle fill="#FFFFFF" cx="391.837" cy="103.772" r="4.611"/>
			<circle fill="#FFFFFF" cx="401.782" cy="103.772" r="4.612"/>
			<circle fill="#FFFFFF" cx="411.727" cy="103.772" r="4.612"/>
			<circle fill="#FFFFFF" cx="421.674" cy="103.772" r="4.612"/>
			<path fill="#FFFFFF" d="M436.232,103.772c0,2.547-2.066,4.611-4.613,4.611c-2.544,0-4.612-2.064-4.612-4.611
				c0-2.546,2.068-4.612,4.612-4.612C434.166,99.161,436.232,101.226,436.232,103.772z"/>
			<circle fill="#FFFFFF" cx="441.567" cy="103.772" r="4.612"/>
			<circle fill="#FFFFFF" cx="451.51" cy="103.772" r="4.611"/>
			<path fill="#FFFFFF" d="M466.07,103.772c0,2.547-2.068,4.611-4.613,4.611c-2.544,0-4.612-2.064-4.612-4.611
				c0-2.546,2.068-4.612,4.612-4.612C464.002,99.161,466.07,101.226,466.07,103.772z"/>
			<circle fill="#FFFFFF" cx="471.403" cy="103.772" r="4.612"/>
			<circle fill="#FFFFFF" cx="337.135" cy="182.848" r="4.611"/>
			<circle fill="#FFFFFF" cx="347.081" cy="182.848" r="4.612"/>
			<circle fill="#FFFFFF" cx="357.027" cy="182.848" r="4.612"/>
			<circle fill="#FFFFFF" cx="366.972" cy="182.848" r="4.612"/>
			<circle fill="#FFFFFF" cx="376.919" cy="182.848" r="4.612"/>
			<circle fill="#FFFFFF" cx="386.865" cy="182.848" r="4.611"/>
			<circle fill="#FFFFFF" cx="396.81" cy="182.848" r="4.612"/>
			<circle fill="#FFFFFF" cx="406.756" cy="182.848" r="4.611"/>
			<circle fill="#FFFFFF" cx="416.701" cy="182.848" r="4.612"/>
			<circle fill="#FFFFFF" cx="426.647" cy="182.848" r="4.611"/>
			<circle fill="#FFFFFF" cx="436.593" cy="182.848" r="4.612"/>
			<path fill="#FFFFFF" d="M451.149,182.848c0,2.547-2.063,4.611-4.612,4.611c-2.545,0-4.609-2.064-4.609-4.611
				c0-2.548,2.064-4.61,4.609-4.61C449.086,178.238,451.149,180.3,451.149,182.848z"/>
			<circle fill="#FFFFFF" cx="456.485" cy="182.848" r="4.613"/>
			<circle fill="#FFFFFF" cx="466.429" cy="182.848" r="4.611"/>
			<path fill="#FFFFFF" d="M346.718,191.473c0,2.544-2.063,4.612-4.61,4.612c-2.546,0-4.611-2.068-4.611-4.612
				c0-2.547,2.064-4.613,4.611-4.613C344.654,186.859,346.718,188.926,346.718,191.473z"/>
			<path fill="#FFFFFF" d="M356.665,191.473c0,2.544-2.064,4.612-4.612,4.612c-2.546,0-4.611-2.068-4.611-4.612
				c0-2.547,2.064-4.613,4.611-4.613C354.601,186.859,356.665,188.926,356.665,191.473z"/>
			<path fill="#FFFFFF" d="M366.611,191.473c0,2.544-2.066,4.612-4.613,4.612c-2.544,0-4.61-2.068-4.61-4.612
				c0-2.547,2.066-4.613,4.61-4.613C364.545,186.859,366.611,188.926,366.611,191.473z"/>
			<path fill="#FFFFFF" d="M376.556,191.473c0,2.544-2.063,4.612-4.61,4.612s-4.612-2.068-4.612-4.612
				c0-2.547,2.065-4.613,4.612-4.613S376.556,188.926,376.556,191.473z"/>
			<path fill="#FFFFFF" d="M386.5,191.473c0,2.544-2.064,4.612-4.61,4.612c-2.545,0-4.611-2.068-4.611-4.612
				c0-2.547,2.066-4.613,4.611-4.613C384.437,186.859,386.5,188.926,386.5,191.473z"/>
			<path fill="#FFFFFF" d="M396.447,191.473c0,2.544-2.064,4.612-4.61,4.612c-2.547,0-4.611-2.068-4.611-4.612
				c0-2.547,2.064-4.613,4.611-4.613C394.383,186.859,396.447,188.926,396.447,191.473z"/>
			<path fill="#FFFFFF" d="M406.394,191.473c0,2.544-2.064,4.612-4.613,4.612c-2.545,0-4.61-2.068-4.61-4.612
				c0-2.547,2.065-4.613,4.61-4.613C404.33,186.859,406.394,188.926,406.394,191.473z"/>
			<path fill="#FFFFFF" d="M416.339,191.473c0,2.544-2.064,4.612-4.611,4.612s-4.613-2.068-4.613-4.612
				c0-2.547,2.066-4.613,4.613-4.613S416.339,188.926,416.339,191.473z"/>
			<path fill="#FFFFFF" d="M426.285,191.473c0,2.544-2.064,4.612-4.612,4.612c-2.546,0-4.611-2.068-4.611-4.612
				c0-2.547,2.064-4.613,4.611-4.613C424.221,186.859,426.285,188.926,426.285,191.473z"/>
			<path fill="#FFFFFF" d="M436.232,191.473c0,2.544-2.066,4.612-4.613,4.612c-2.544,0-4.612-2.068-4.612-4.612
				c0-2.547,2.068-4.613,4.612-4.613C434.166,186.859,436.232,188.926,436.232,191.473z"/>
			<path fill="#FFFFFF" d="M446.179,191.473c0,2.544-2.066,4.612-4.613,4.612c-2.547,0-4.611-2.068-4.611-4.612
				c0-2.547,2.064-4.613,4.611-4.613C444.112,186.859,446.179,188.926,446.179,191.473z"/>
			<path fill="#FFFFFF" d="M456.121,191.473c0,2.544-2.063,4.612-4.61,4.612c-2.547,0-4.611-2.068-4.611-4.612
				c0-2.547,2.064-4.613,4.611-4.613C454.059,186.859,456.121,188.926,456.121,191.473z"/>
			<path fill="#FFFFFF" d="M466.07,191.473c0,2.544-2.068,4.612-4.613,4.612c-2.544,0-4.612-2.068-4.612-4.612
				c0-2.547,2.068-4.613,4.612-4.613C464.002,186.859,466.07,188.926,466.07,191.473z"/>
			<path fill="#FFFFFF" d="M476.015,191.473c0,2.544-2.064,4.612-4.613,4.612c-2.546,0-4.61-2.068-4.61-4.612
				c0-2.547,2.064-4.613,4.61-4.613C473.95,186.859,476.015,188.926,476.015,191.473z"/>
			<circle fill="#FFFFFF" cx="337.135" cy="200.518" r="4.611"/>
			<circle fill="#FFFFFF" cx="347.081" cy="200.518" r="4.612"/>
			<circle fill="#FFFFFF" cx="357.027" cy="200.518" r="4.612"/>
			<circle fill="#FFFFFF" cx="366.972" cy="200.518" r="4.612"/>
			<circle fill="#FFFFFF" cx="376.919" cy="200.518" r="4.612"/>
			<circle fill="#FFFFFF" cx="386.865" cy="200.518" r="4.611"/>
			<circle fill="#FFFFFF" cx="396.81" cy="200.518" r="4.612"/>
			<circle fill="#FFFFFF" cx="406.756" cy="200.518" r="4.611"/>
			<circle fill="#FFFFFF" cx="416.701" cy="200.518" r="4.612"/>
			<circle fill="#FFFFFF" cx="426.647" cy="200.518" r="4.611"/>
			<circle fill="#FFFFFF" cx="436.593" cy="200.518" r="4.612"/>
			<path fill="#FFFFFF" d="M451.149,200.518c0,2.546-2.063,4.611-4.612,4.611c-2.545,0-4.609-2.064-4.609-4.611
				c0-2.546,2.064-4.612,4.609-4.612C449.086,195.905,451.149,197.972,451.149,200.518z"/>
			<circle fill="#FFFFFF" cx="456.485" cy="200.518" r="4.613"/>
			<circle fill="#FFFFFF" cx="466.429" cy="200.518" r="4.611"/>
			<path fill="#FFFFFF" d="M346.718,209.142c0,2.545-2.063,4.61-4.61,4.61c-2.546,0-4.611-2.064-4.611-4.61
				c0-2.549,2.064-4.611,4.611-4.611C344.654,204.531,346.718,206.593,346.718,209.142z"/>
			<path fill="#FFFFFF" d="M356.665,209.142c0,2.545-2.064,4.61-4.612,4.61c-2.546,0-4.611-2.064-4.611-4.61
				c0-2.549,2.064-4.611,4.611-4.611C354.601,204.531,356.665,206.593,356.665,209.142z"/>
			<path fill="#FFFFFF" d="M366.611,209.142c0,2.545-2.066,4.61-4.613,4.61c-2.544,0-4.61-2.064-4.61-4.61
				c0-2.549,2.066-4.611,4.61-4.611C364.545,204.531,366.611,206.593,366.611,209.142z"/>
			<path fill="#FFFFFF" d="M376.556,209.142c0,2.545-2.063,4.61-4.61,4.61s-4.612-2.064-4.612-4.61c0-2.549,2.065-4.611,4.612-4.611
				S376.556,206.593,376.556,209.142z"/>
			<path fill="#FFFFFF" d="M386.5,209.142c0,2.545-2.064,4.61-4.61,4.61c-2.545,0-4.611-2.064-4.611-4.61
				c0-2.549,2.066-4.611,4.611-4.611C384.437,204.531,386.5,206.593,386.5,209.142z"/>
			<path fill="#FFFFFF" d="M396.447,209.142c0,2.545-2.064,4.61-4.61,4.61c-2.547,0-4.611-2.064-4.611-4.61
				c0-2.549,2.064-4.611,4.611-4.611C394.383,204.531,396.447,206.593,396.447,209.142z"/>
			<path fill="#FFFFFF" d="M406.394,209.142c0,2.545-2.064,4.61-4.613,4.61c-2.545,0-4.61-2.064-4.61-4.61
				c0-2.549,2.065-4.611,4.61-4.611C404.33,204.531,406.394,206.593,406.394,209.142z"/>
			<path fill="#FFFFFF" d="M416.339,209.142c0,2.545-2.064,4.61-4.611,4.61s-4.613-2.064-4.613-4.61
				c0-2.549,2.066-4.611,4.613-4.611S416.339,206.593,416.339,209.142z"/>
			<path fill="#FFFFFF" d="M426.285,209.142c0,2.545-2.064,4.61-4.612,4.61c-2.546,0-4.611-2.064-4.611-4.61
				c0-2.549,2.064-4.611,4.611-4.611C424.221,204.531,426.285,206.593,426.285,209.142z"/>
			<path fill="#FFFFFF" d="M436.232,209.142c0,2.545-2.066,4.61-4.613,4.61c-2.544,0-4.612-2.064-4.612-4.61
				c0-2.549,2.068-4.611,4.612-4.611C434.166,204.531,436.232,206.593,436.232,209.142z"/>
			<path fill="#FFFFFF" d="M446.179,209.142c0,2.545-2.066,4.61-4.613,4.61c-2.547,0-4.611-2.064-4.611-4.61
				c0-2.549,2.064-4.611,4.611-4.611C444.112,204.531,446.179,206.593,446.179,209.142z"/>
			<path fill="#FFFFFF" d="M456.121,209.142c0,2.545-2.063,4.61-4.61,4.61c-2.547,0-4.611-2.064-4.611-4.61
				c0-2.549,2.064-4.611,4.611-4.611C454.059,204.531,456.121,206.593,456.121,209.142z"/>
			<path fill="#FFFFFF" d="M466.07,209.142c0,2.545-2.068,4.61-4.613,4.61c-2.544,0-4.612-2.064-4.612-4.61
				c0-2.549,2.068-4.611,4.612-4.611C464.002,204.531,466.07,206.593,466.07,209.142z"/>
			<path fill="#FFFFFF" d="M476.015,209.142c0,2.545-2.064,4.61-4.613,4.61c-2.546,0-4.61-2.064-4.61-4.61
				c0-2.549,2.064-4.611,4.61-4.611C473.95,204.531,476.015,206.593,476.015,209.142z"/>
			<circle fill="#FFFFFF" cx="337.135" cy="147.732" r="4.611"/>
			<circle fill="#FFFFFF" cx="347.081" cy="147.732" r="4.612"/>
			<circle fill="#FFFFFF" cx="357.027" cy="147.732" r="4.612"/>
			<circle fill="#FFFFFF" cx="366.972" cy="147.732" r="4.612"/>
			<circle fill="#FFFFFF" cx="376.919" cy="147.732" r="4.612"/>
			<circle fill="#FFFFFF" cx="386.865" cy="147.732" r="4.611"/>
			<circle fill="#FFFFFF" cx="396.81" cy="147.732" r="4.612"/>
			<circle fill="#FFFFFF" cx="406.756" cy="147.732" r="4.611"/>
			<circle fill="#FFFFFF" cx="416.701" cy="147.732" r="4.612"/>
			<circle fill="#FFFFFF" cx="426.647" cy="147.732" r="4.611"/>
			<circle fill="#FFFFFF" cx="436.593" cy="147.732" r="4.612"/>
			<path fill="#FFFFFF" d="M451.149,147.732c0,2.546-2.063,4.612-4.612,4.612c-2.545,0-4.609-2.066-4.609-4.612
				c0-2.545,2.064-4.611,4.609-4.611C449.086,143.121,451.149,145.187,451.149,147.732z"/>
			<circle fill="#FFFFFF" cx="456.485" cy="147.732" r="4.613"/>
			<circle fill="#FFFFFF" cx="466.429" cy="147.732" r="4.611"/>
			<path fill="#FFFFFF" d="M346.718,156.357c0,2.545-2.063,4.61-4.61,4.61c-2.546,0-4.611-2.064-4.611-4.61
				c0-2.549,2.064-4.611,4.611-4.611C344.654,151.746,346.718,153.809,346.718,156.357z"/>
			<path fill="#FFFFFF" d="M356.665,156.357c0,2.545-2.064,4.61-4.612,4.61c-2.546,0-4.611-2.064-4.611-4.61
				c0-2.549,2.064-4.611,4.611-4.611C354.601,151.746,356.665,153.809,356.665,156.357z"/>
			<path fill="#FFFFFF" d="M366.611,156.357c0,2.545-2.066,4.61-4.613,4.61c-2.544,0-4.61-2.064-4.61-4.61
				c0-2.549,2.066-4.611,4.61-4.611C364.545,151.746,366.611,153.809,366.611,156.357z"/>
			<path fill="#FFFFFF" d="M376.556,156.357c0,2.545-2.063,4.61-4.61,4.61s-4.612-2.064-4.612-4.61c0-2.549,2.065-4.611,4.612-4.611
				S376.556,153.809,376.556,156.357z"/>
			<path fill="#FFFFFF" d="M386.5,156.357c0,2.545-2.064,4.61-4.61,4.61c-2.545,0-4.611-2.064-4.611-4.61
				c0-2.549,2.066-4.611,4.611-4.611C384.437,151.746,386.5,153.809,386.5,156.357z"/>
			<path fill="#FFFFFF" d="M396.447,156.357c0,2.545-2.064,4.61-4.61,4.61c-2.547,0-4.611-2.064-4.611-4.61
				c0-2.549,2.064-4.611,4.611-4.611C394.383,151.746,396.447,153.809,396.447,156.357z"/>
			<path fill="#FFFFFF" d="M406.394,156.357c0,2.545-2.064,4.61-4.613,4.61c-2.545,0-4.61-2.064-4.61-4.61
				c0-2.549,2.065-4.611,4.61-4.611C404.33,151.746,406.394,153.809,406.394,156.357z"/>
			<path fill="#FFFFFF" d="M416.339,156.357c0,2.545-2.064,4.61-4.611,4.61s-4.613-2.064-4.613-4.61
				c0-2.549,2.066-4.611,4.613-4.611S416.339,153.809,416.339,156.357z"/>
			<path fill="#FFFFFF" d="M426.285,156.357c0,2.545-2.064,4.61-4.612,4.61c-2.546,0-4.611-2.064-4.611-4.61
				c0-2.549,2.064-4.611,4.611-4.611C424.221,151.746,426.285,153.809,426.285,156.357z"/>
			<path fill="#FFFFFF" d="M436.232,156.357c0,2.545-2.066,4.61-4.613,4.61c-2.544,0-4.612-2.064-4.612-4.61
				c0-2.549,2.068-4.611,4.612-4.611C434.166,151.746,436.232,153.809,436.232,156.357z"/>
			<path fill="#FFFFFF" d="M446.179,156.357c0,2.545-2.066,4.61-4.613,4.61c-2.547,0-4.611-2.064-4.611-4.61
				c0-2.549,2.064-4.611,4.611-4.611C444.112,151.746,446.179,153.809,446.179,156.357z"/>
			<path fill="#FFFFFF" d="M456.121,156.357c0,2.545-2.063,4.61-4.61,4.61c-2.547,0-4.611-2.064-4.611-4.61
				c0-2.549,2.064-4.611,4.611-4.611C454.059,151.746,456.121,153.809,456.121,156.357z"/>
			<path fill="#FFFFFF" d="M466.07,156.357c0,2.545-2.068,4.61-4.613,4.61c-2.544,0-4.612-2.064-4.612-4.61
				c0-2.549,2.068-4.611,4.612-4.611C464.002,151.746,466.07,153.809,466.07,156.357z"/>
			<path fill="#FFFFFF" d="M476.015,156.357c0,2.545-2.064,4.61-4.613,4.61c-2.546,0-4.61-2.064-4.61-4.61
				c0-2.549,2.064-4.611,4.61-4.611C473.95,151.746,476.015,153.809,476.015,156.357z"/>
			<circle fill="#FFFFFF" cx="337.135" cy="165.401" r="4.611"/>
			<circle fill="#FFFFFF" cx="347.081" cy="165.401" r="4.612"/>
			<circle fill="#FFFFFF" cx="357.027" cy="165.401" r="4.612"/>
			<circle fill="#FFFFFF" cx="366.972" cy="165.401" r="4.612"/>
			<circle fill="#FFFFFF" cx="376.919" cy="165.401" r="4.612"/>
			<circle fill="#FFFFFF" cx="386.865" cy="165.401" r="4.611"/>
			<circle fill="#FFFFFF" cx="396.81" cy="165.401" r="4.612"/>
			<circle fill="#FFFFFF" cx="406.756" cy="165.401" r="4.611"/>
			<circle fill="#FFFFFF" cx="416.701" cy="165.401" r="4.612"/>
			<circle fill="#FFFFFF" cx="426.647" cy="165.401" r="4.611"/>
			<circle fill="#FFFFFF" cx="436.593" cy="165.401" r="4.612"/>
			<path fill="#FFFFFF" d="M451.149,165.401c0,2.547-2.063,4.612-4.612,4.612c-2.545,0-4.609-2.064-4.609-4.612
				c0-2.547,2.064-4.611,4.609-4.611C449.086,160.79,451.149,162.854,451.149,165.401z"/>
			<circle fill="#FFFFFF" cx="456.485" cy="165.401" r="4.613"/>
			<circle fill="#FFFFFF" cx="466.429" cy="165.401" r="4.611"/>
			<circle fill="#FFFFFF" cx="342.107" cy="174.026" r="4.611"/>
			<circle fill="#FFFFFF" cx="352.053" cy="174.026" r="4.612"/>
			<circle fill="#FFFFFF" cx="362" cy="174.026" r="4.612"/>
			<circle fill="#FFFFFF" cx="371.944" cy="174.026" r="4.611"/>
			<circle fill="#FFFFFF" cx="381.89" cy="174.026" r="4.611"/>
			<circle fill="#FFFFFF" cx="391.837" cy="174.026" r="4.611"/>
			<circle fill="#FFFFFF" cx="401.782" cy="174.026" r="4.612"/>
			<circle fill="#FFFFFF" cx="411.727" cy="174.026" r="4.612"/>
			<circle fill="#FFFFFF" cx="421.674" cy="174.026" r="4.612"/>
			<path fill="#FFFFFF" d="M436.232,174.026c0,2.546-2.066,4.612-4.613,4.612c-2.544,0-4.612-2.066-4.612-4.612
				c0-2.546,2.068-4.611,4.612-4.611C434.166,169.416,436.232,171.48,436.232,174.026z"/>
			<circle fill="#FFFFFF" cx="441.567" cy="174.026" r="4.612"/>
			<circle fill="#FFFFFF" cx="451.51" cy="174.026" r="4.611"/>
			<path fill="#FFFFFF" d="M466.07,174.026c0,2.546-2.068,4.612-4.613,4.612c-2.544,0-4.612-2.066-4.612-4.612
				c0-2.546,2.068-4.611,4.612-4.611C464.002,169.416,466.07,171.48,466.07,174.026z"/>
			<circle fill="#FFFFFF" cx="471.403" cy="174.026" r="4.612"/>
		</g>
	</g>
	<circle fill="none" stroke="#FFFFFF" stroke-width="6.3847" stroke-miterlimit="10" cx="404.27" cy="139.505" r="57.815"/>
</g>
<polyline fill="none" stroke="#FFFFFF" stroke-width="1.0641" stroke-miterlimit="10" points="450.35,66.884 519.786,22.188 
	779.164,22.188 "/>
<polyline fill="none" stroke="#FFFFFF" stroke-width="1.9068" stroke-miterlimit="10" points="369.045,135.314 268.448,75.852 
	24.281,75.852 "/>
<g>
	<g>
		<path fill="#FFFFFF" d="M40.821,98.256c0,5.566-2.771,7.92-6.768,7.92c-3.85,0-6.449-2.256-6.449-7.847V87.148h2.845v11.353
			c0,3.751,1.544,5.346,3.703,5.346c2.354,0,3.825-1.619,3.825-5.346V87.148h2.844V98.256z"/>
		<path fill="#FFFFFF" d="M47.388,105.906h-2.845V86.241h2.845V105.906z"/>
		<path fill="#FFFFFF" d="M51.579,89.943l2.82-0.883v3.334h3.212v2.133h-3.212v6.842c0,1.667,0.515,2.477,1.717,2.477
			c0.564,0,0.907-0.074,1.25-0.172l0.098,2.183c-0.491,0.196-1.25,0.318-2.207,0.318c-1.128,0-2.084-0.368-2.673-1.03
			c-0.687-0.735-1.005-1.863-1.005-3.629v-6.989h-1.913v-2.133h1.913V89.943z"/>
		<path fill="#FFFFFF" d="M66.853,94.896c-0.245-0.049-0.515-0.074-0.834-0.074c-1.913,0-3.114,1.569-3.114,3.923v7.16h-2.845
			v-9.392c0-1.569-0.024-2.869-0.098-4.12h2.477l0.098,2.477h0.098c0.613-1.717,2.035-2.771,3.506-2.771
			c0.27,0,0.466,0.024,0.711,0.074V94.896z"/>
		<path fill="#FFFFFF" d="M78.522,102.694c0,1.153,0.024,2.33,0.196,3.212h-2.575l-0.196-1.569h-0.074
			c-0.76,1.054-2.084,1.839-3.776,1.839c-2.525,0-3.972-1.863-3.972-3.948c0-3.359,2.918-5.027,7.552-5.027
			c0-1.005,0-3.016-2.722-3.016c-1.202,0-2.428,0.368-3.286,0.932l-0.589-1.888c0.957-0.613,2.55-1.128,4.365-1.128
			c3.973,0,5.076,2.624,5.076,5.493V102.694z M75.751,99.114c-2.231,0-4.806,0.417-4.806,2.82c0,1.496,0.932,2.158,1.986,2.158
			c1.545,0,2.82-1.177,2.82-2.747V99.114z"/>
		<path fill="#FFFFFF" d="M87.958,92.395c0-1.471,0-3.653,1.521-5.174c0.932-0.907,2.182-1.25,3.286-1.25
			c0.883,0,1.569,0.172,2.06,0.368l-0.294,2.183c-0.368-0.147-0.785-0.27-1.447-0.27c-1.766,0-2.305,1.594-2.305,3.409v0.735h2.967
			v2.133h-2.942v11.378h-2.845V94.528h-1.814v-2.133H87.958z"/>
		<path fill="#FFFFFF" d="M98.573,105.906h-2.845V86.241h2.845V105.906z"/>
		<path fill="#FFFFFF" d="M112.082,105.367c-0.956,0.441-2.452,0.809-4.291,0.809c-4.07,0-6.424-2.722-6.424-6.841
			c0-4.021,2.256-7.233,6.081-7.233c3.801,0,5.321,3.163,5.321,6.498c0,0.466-0.024,0.858-0.073,1.202h-8.583
			c0.074,3.041,1.962,4.193,4.095,4.193c1.496,0,2.525-0.27,3.408-0.638L112.082,105.367z M110.071,97.765
			c0.025-1.618-0.637-3.629-2.82-3.629c-2.084,0-2.967,2.06-3.114,3.629H110.071z"/>
		<path fill="#FFFFFF" d="M125.884,92.395l-4.242,6.523l4.315,6.988h-3.212l-1.667-2.894c-0.417-0.735-0.809-1.447-1.202-2.256
			h-0.049c-0.393,0.785-0.785,1.496-1.226,2.28l-1.594,2.869h-3.09l4.365-6.866l-4.193-6.646h3.139l1.619,2.722
			c0.441,0.76,0.809,1.447,1.202,2.182h0.049c0.393-0.76,0.785-1.496,1.177-2.207l1.544-2.698H125.884z"/>
		<path fill="#FFFFFF" d="M129.46,90.311c-0.981,0-1.643-0.736-1.643-1.643c0-0.956,0.687-1.667,1.667-1.667
			s1.643,0.711,1.643,1.667C131.127,89.575,130.49,90.311,129.46,90.311z M130.882,105.906h-2.845V92.371h2.845V105.906z"/>
		<path fill="#FFFFFF" d="M137.427,94.283c0.809-1.373,2.207-2.182,4.095-2.182c3.089,0,5.223,2.722,5.223,6.841
			c0,4.929-2.869,7.233-5.664,7.233c-1.741,0-3.09-0.711-3.997-2.305h-0.074l-0.147,2.035h-2.428
			c0.049-0.907,0.098-2.378,0.098-3.604V86.241h2.845v8.042H137.427z M137.378,100.561c0,1.717,1.226,3.335,3.089,3.335
			c2.183,0,3.384-1.937,3.384-4.831c0-2.55-1.104-4.684-3.359-4.684c-1.79,0-3.114,1.741-3.114,3.531V100.561z"/>
		<path fill="#FFFFFF" d="M150.959,90.311c-0.981,0-1.643-0.736-1.643-1.643c0-0.956,0.687-1.667,1.667-1.667
			s1.643,0.711,1.643,1.667C152.626,89.575,151.989,90.311,150.959,90.311z M152.381,105.906h-2.845V92.371h2.845V105.906z"/>
		<path fill="#FFFFFF" d="M158.877,105.906h-2.845V86.241h2.845V105.906z"/>
		<path fill="#FFFFFF" d="M163.927,90.311c-0.981,0-1.643-0.736-1.643-1.643c0-0.956,0.687-1.667,1.667-1.667
			s1.643,0.711,1.643,1.667C165.594,89.575,164.957,90.311,163.927,90.311z M165.349,105.906h-2.845V92.371h2.845V105.906z"/>
		<path fill="#FFFFFF" d="M169.564,89.943l2.82-0.883v3.334h3.212v2.133h-3.212v6.842c0,1.667,0.515,2.477,1.717,2.477
			c0.564,0,0.907-0.074,1.25-0.172l0.098,2.183c-0.491,0.196-1.25,0.318-2.207,0.318c-1.128,0-2.084-0.368-2.673-1.03
			c-0.687-0.735-1.005-1.863-1.005-3.629v-6.989h-1.913v-2.133h1.913V89.943z"/>
		<path fill="#FFFFFF" d="M188.737,92.395l-3.262,9.367c-1.594,4.438-2.722,6.939-4.34,8.509c-1.226,1.128-2.477,1.594-3.139,1.741
			l-0.736-2.403c2.942-1.054,3.997-3.801,3.997-4.168c0-0.147-0.024-0.319-0.147-0.588l-4.635-12.457h3.114l2.452,7.602
			c0.27,0.883,0.54,1.913,0.735,2.697h0.074c0.196-0.785,0.466-1.79,0.711-2.697l2.183-7.602H188.737z"/>
		<path fill="#FFFFFF" d="M205.701,102.694c0,1.153,0.024,2.33,0.196,3.212h-2.575l-0.196-1.569h-0.074
			c-0.76,1.054-2.084,1.839-3.776,1.839c-2.525,0-3.972-1.863-3.972-3.948c0-3.359,2.918-5.027,7.552-5.027
			c0-1.005,0-3.016-2.722-3.016c-1.202,0-2.428,0.368-3.286,0.932l-0.589-1.888c0.957-0.613,2.55-1.128,4.365-1.128
			c3.973,0,5.076,2.624,5.076,5.493V102.694z M202.93,99.114c-2.231,0-4.806,0.417-4.806,2.82c0,1.496,0.932,2.158,1.986,2.158
			c1.545,0,2.82-1.177,2.82-2.747V99.114z"/>
		<path fill="#FFFFFF" d="M220.434,105.906h-2.845v-7.92c0-1.913-0.637-3.531-2.575-3.531c-1.397,0-2.893,1.152-2.893,3.31v8.141
			h-2.845v-9.71c0-1.496-0.049-2.648-0.098-3.801h2.477l0.147,2.011h0.073c0.638-1.152,2.06-2.305,4.095-2.305
			c2.109,0,4.463,1.373,4.463,5.542V105.906z"/>
		<path fill="#FFFFFF" d="M235.29,102.302c0,1.226,0.049,2.673,0.098,3.604h-2.501l-0.147-2.109h-0.074
			c-0.711,1.373-2.182,2.378-4.095,2.378c-3.065,0-5.395-2.722-5.395-6.89c0-4.585,2.624-7.185,5.64-7.185
			c1.741,0,2.992,0.785,3.58,1.814h0.049v-7.675h2.845V102.302z M232.445,97.863c0-2.207-1.397-3.506-2.991-3.506
			c-2.183,0-3.384,2.158-3.384,4.831c0,2.648,1.177,4.684,3.334,4.684c1.839,0,3.041-1.619,3.041-3.506V97.863z"/>
		<path fill="#FFFFFF" d="M38.639,132.243h-2.845v-7.896c0-1.938-0.662-3.556-2.575-3.556c-1.397,0-2.893,1.152-2.893,3.188v8.264
			h-2.845v-19.666h2.845v7.994h0.049c0.883-1.398,2.403-2.133,3.875-2.133c2.035,0,4.389,1.373,4.389,5.64V132.243z"/>
		<path fill="#FFFFFF" d="M43.637,116.648c-0.981,0-1.643-0.736-1.643-1.643c0-0.956,0.687-1.667,1.667-1.667
			s1.643,0.711,1.643,1.667C45.304,115.912,44.667,116.648,43.637,116.648z M45.059,132.243h-2.845v-13.536h2.845V132.243z"/>
		<path fill="#FFFFFF" d="M59.99,118.732c-0.074,0.957-0.123,2.084-0.123,3.899v7.7c0,2.697-0.221,7.675-6.621,7.675
			c-1.569,0-3.212-0.343-4.267-0.98l0.637-2.207c0.834,0.49,2.133,0.957,3.654,0.957c2.207,0,3.776-1.226,3.776-4.292v-1.299h-0.049
			c-0.687,1.152-2.011,1.986-3.751,1.986c-3.188,0-5.37-2.82-5.37-6.596c0-4.585,2.771-7.135,5.713-7.135
			c2.011,0,3.139,1.03,3.703,2.109h0.049l0.123-1.815H59.99z M57.023,123.955c0-1.79-1.177-3.261-2.918-3.261
			c-1.961,0-3.334,1.864-3.334,4.757c0,2.648,1.201,4.537,3.31,4.537c1.471,0,2.942-1.128,2.942-3.384V123.955z"/>
		<path fill="#FFFFFF" d="M74.65,132.243h-2.845v-7.896c0-1.938-0.662-3.556-2.575-3.556c-1.397,0-2.893,1.152-2.893,3.188v8.264
			h-2.845v-19.666h2.845v7.994h0.049c0.883-1.398,2.403-2.133,3.875-2.133c2.035,0,4.389,1.373,4.389,5.64V132.243z"/>
		<path fill="#FFFFFF" d="M92.814,131.826c-0.637,0.294-1.913,0.687-3.482,0.687c-3.898,0-6.449-2.672-6.449-6.89
			c0-4.095,2.648-7.185,6.988-7.185c1.3,0,2.428,0.319,3.016,0.613l-0.564,2.183c-0.49-0.245-1.275-0.54-2.428-0.54
			c-2.648,0-4.119,2.158-4.119,4.806c0,2.967,1.741,4.732,4.095,4.732c1.128,0,1.913-0.27,2.55-0.54L92.814,131.826z"/>
		<path fill="#FFFFFF" d="M107.008,125.377c0,5.051-3.286,7.135-6.326,7.135c-3.507,0-6.179-2.575-6.179-6.939
			c0-4.561,2.795-7.135,6.375-7.135C104.581,118.438,107.008,121.233,107.008,125.377z M100.78,120.571
			c-2.428,0-3.359,2.599-3.359,4.929c0,2.648,1.25,4.879,3.334,4.879c2.06,0,3.335-2.231,3.335-4.929
			C104.09,123.22,103.159,120.571,100.78,120.571z"/>
		<path fill="#FFFFFF" d="M120.981,132.243h-2.845v-7.92c0-1.913-0.637-3.531-2.575-3.531c-1.397,0-2.893,1.152-2.893,3.31v8.141
			h-2.845v-9.71c0-1.496-0.049-2.648-0.098-3.801h2.477l0.147,2.011h0.073c0.638-1.152,2.06-2.305,4.095-2.305
			c2.109,0,4.463,1.373,4.463,5.542V132.243z"/>
		<path fill="#FFFFFF" d="M135.837,128.639c0,1.226,0.049,2.673,0.098,3.604h-2.501l-0.147-2.109h-0.074
			c-0.711,1.373-2.182,2.378-4.095,2.378c-3.065,0-5.395-2.722-5.395-6.89c0-4.585,2.624-7.185,5.64-7.185
			c1.741,0,2.992,0.785,3.58,1.814h0.049v-7.675h2.845V128.639z M132.992,124.2c0-2.207-1.397-3.506-2.991-3.506
			c-2.183,0-3.384,2.158-3.384,4.831c0,2.648,1.177,4.684,3.334,4.684c1.839,0,3.041-1.619,3.041-3.506V124.2z"/>
		<path fill="#FFFFFF" d="M150.447,128.369c0,1.521,0.074,2.795,0.123,3.875h-2.501l-0.147-1.962h-0.074
			c-0.564,0.932-1.888,2.231-4.07,2.231c-2.33,0-4.365-1.446-4.365-5.762v-8.043h2.844v7.577c0,2.33,0.662,3.874,2.526,3.874
			c1.299,0,2.82-1.03,2.82-3.065v-8.362h2.844V128.369z"/>
		<path fill="#FFFFFF" d="M163.193,131.826c-0.637,0.294-1.913,0.687-3.482,0.687c-3.899,0-6.449-2.672-6.449-6.89
			c0-4.095,2.648-7.185,6.988-7.185c1.3,0,2.428,0.319,3.016,0.613l-0.564,2.183c-0.49-0.245-1.275-0.54-2.428-0.54
			c-2.648,0-4.119,2.158-4.119,4.806c0,2.967,1.741,4.732,4.095,4.732c1.128,0,1.913-0.27,2.55-0.54L163.193,131.826z"/>
		<path fill="#FFFFFF" d="M166.304,116.28l2.82-0.883v3.334h3.212v2.133h-3.212v6.842c0,1.667,0.515,2.477,1.717,2.477
			c0.564,0,0.907-0.074,1.25-0.172l0.098,2.183c-0.491,0.196-1.25,0.318-2.207,0.318c-1.128,0-2.084-0.368-2.673-1.03
			c-0.687-0.735-1.005-1.863-1.005-3.629v-6.989h-1.913v-2.133h1.913V116.28z"/>
		<path fill="#FFFFFF" d="M176.208,116.648c-0.981,0-1.643-0.736-1.643-1.643c0-0.956,0.687-1.667,1.667-1.667
			s1.643,0.711,1.643,1.667C177.875,115.912,177.238,116.648,176.208,116.648z M177.63,132.243h-2.845v-13.536h2.845V132.243z"/>
		<path fill="#FFFFFF" d="M192.096,118.732l-4.855,13.511h-2.722l-4.732-13.511h3.065l2.207,7.185
			c0.368,1.177,0.662,2.305,0.907,3.433h0.074c0.245-1.128,0.564-2.231,0.907-3.408l2.182-7.209H192.096z"/>
		<path fill="#FFFFFF" d="M195.623,116.648c-0.981,0-1.643-0.736-1.643-1.643c0-0.956,0.687-1.667,1.667-1.667
			s1.643,0.711,1.643,1.667C197.291,115.912,196.653,116.648,195.623,116.648z M197.045,132.243h-2.845v-13.536h2.845V132.243z"/>
		<path fill="#FFFFFF" d="M201.261,116.28l2.82-0.883v3.334h3.212v2.133h-3.212v6.842c0,1.667,0.515,2.477,1.717,2.477
			c0.564,0,0.907-0.074,1.25-0.172l0.098,2.183c-0.491,0.196-1.25,0.318-2.207,0.318c-1.128,0-2.084-0.368-2.673-1.03
			c-0.687-0.735-1.005-1.863-1.005-3.629v-6.989h-1.913v-2.133h1.913V116.28z"/>
		<path fill="#FFFFFF" d="M220.434,118.732l-3.262,9.367c-1.594,4.438-2.722,6.939-4.34,8.509c-1.226,1.128-2.477,1.594-3.139,1.741
			l-0.736-2.403c2.942-1.054,3.997-3.801,3.997-4.168c0-0.147-0.024-0.319-0.147-0.588l-4.635-12.457h3.114l2.452,7.602
			c0.27,0.883,0.54,1.913,0.735,2.697h0.074c0.196-0.785,0.466-1.79,0.711-2.697l2.183-7.602H220.434z"/>
		<path fill="#FFFFFF" d="M225.824,128.442c-0.711,2.452-1.937,5.493-2.869,7.038l-1.962,0.196c0.687-1.864,1.422-4.806,1.741-6.964
			L225.824,128.442z"/>
		<path fill="#FFFFFF" d="M36.947,155.368c0,1.153,0.024,2.33,0.196,3.212h-2.575l-0.196-1.569h-0.074
			c-0.76,1.054-2.084,1.839-3.776,1.839c-2.525,0-3.972-1.863-3.972-3.948c0-3.359,2.918-5.027,7.552-5.027
			c0-1.005,0-3.016-2.722-3.016c-1.202,0-2.428,0.368-3.286,0.932l-0.589-1.888c0.957-0.613,2.55-1.128,4.365-1.128
			c3.973,0,5.076,2.624,5.076,5.493V155.368z M34.176,151.788c-2.231,0-4.806,0.417-4.806,2.82c0,1.496,0.932,2.158,1.986,2.158
			c1.545,0,2.82-1.177,2.82-2.747V151.788z"/>
		<path fill="#FFFFFF" d="M43.368,158.581h-2.845v-19.666h2.845V158.581z"/>
		<path fill="#FFFFFF" d="M49.839,158.581h-2.845v-19.666h2.845V158.581z"/>
		<path fill="#FFFFFF" d="M65.114,151.715c0,5.051-3.286,7.135-6.326,7.135c-3.507,0-6.179-2.575-6.179-6.939
			c0-4.561,2.795-7.136,6.375-7.136C62.686,144.775,65.114,147.571,65.114,151.715z M58.886,146.909
			c-2.428,0-3.359,2.599-3.359,4.929c0,2.648,1.25,4.879,3.334,4.879c2.06,0,3.335-2.231,3.335-4.929
			C62.196,149.557,61.264,146.909,58.886,146.909z"/>
		<path fill="#FFFFFF" d="M85.364,145.069l-4.095,13.511h-2.575l-1.741-5.983c-0.417-1.422-0.711-2.722-1.005-4.316h-0.074
			c-0.27,1.619-0.638,2.992-1.054,4.34l-1.839,5.958h-2.575l-3.874-13.511h2.942l1.496,6.474c0.319,1.447,0.638,2.894,0.883,4.316
			h0.049c0.27-1.398,0.687-2.894,1.079-4.292l1.864-6.498h2.33l1.765,6.351c0.417,1.569,0.785,3.016,1.055,4.438h0.073
			c0.221-1.398,0.54-2.845,0.908-4.414l1.569-6.375H85.364z"/>
		<path fill="#FFFFFF" d="M94.26,147.62c-0.54-0.343-1.471-0.76-2.575-0.76c-1.275,0-1.961,0.736-1.961,1.643
			c0,0.932,0.613,1.398,2.256,2.109c2.231,0.907,3.408,2.133,3.408,4.095c0,2.6-1.986,4.144-5.051,4.144
			c-1.422,0-2.771-0.368-3.678-0.907l0.638-2.109c0.687,0.417,1.937,0.908,3.09,0.908c1.52,0,2.256-0.736,2.256-1.766
			s-0.564-1.594-2.183-2.281c-2.403-0.956-3.458-2.305-3.458-3.874c0-2.256,1.839-4.046,4.684-4.046
			c1.324,0,2.477,0.368,3.212,0.785L94.26,147.62z"/>
		<path fill="#FFFFFF" d="M112.744,158.164c-0.637,0.294-1.913,0.687-3.482,0.687c-3.899,0-6.449-2.672-6.449-6.89
			c0-4.095,2.648-7.185,6.988-7.185c1.3,0,2.428,0.319,3.016,0.613l-0.564,2.183c-0.49-0.245-1.275-0.54-2.428-0.54
			c-2.648,0-4.119,2.158-4.119,4.806c0,2.967,1.741,4.732,4.095,4.732c1.128,0,1.913-0.27,2.55-0.54L112.744,158.164z"/>
		<path fill="#FFFFFF" d="M122.083,147.571c-0.245-0.049-0.515-0.074-0.834-0.074c-1.913,0-3.114,1.569-3.114,3.923v7.16h-2.845
			v-9.392c0-1.569-0.024-2.869-0.098-4.12h2.477l0.098,2.477h0.098c0.613-1.717,2.035-2.771,3.506-2.771
			c0.27,0,0.466,0.024,0.711,0.073V147.571z"/>
		<path fill="#FFFFFF" d="M134.169,158.041c-0.956,0.441-2.452,0.809-4.291,0.809c-4.07,0-6.424-2.722-6.424-6.841
			c0-4.021,2.256-7.233,6.081-7.233c3.801,0,5.321,3.163,5.321,6.498c0,0.466-0.024,0.858-0.073,1.202H126.2
			c0.074,3.041,1.962,4.193,4.095,4.193c1.496,0,2.525-0.27,3.408-0.638L134.169,158.041z M132.159,150.439
			c0.025-1.618-0.637-3.629-2.82-3.629c-2.084,0-2.967,2.06-3.114,3.629H132.159z"/>
		<path fill="#FFFFFF" d="M147.064,155.368c0,1.153,0.024,2.33,0.196,3.212h-2.575l-0.196-1.569h-0.074
			c-0.76,1.054-2.084,1.839-3.776,1.839c-2.525,0-3.972-1.863-3.972-3.948c0-3.359,2.918-5.027,7.552-5.027
			c0-1.005,0-3.016-2.722-3.016c-1.202,0-2.428,0.368-3.286,0.932l-0.589-1.888c0.957-0.613,2.55-1.128,4.365-1.128
			c3.973,0,5.076,2.624,5.076,5.493V155.368z M144.293,151.788c-2.231,0-4.806,0.417-4.806,2.82c0,1.496,0.932,2.158,1.986,2.158
			c1.545,0,2.82-1.177,2.82-2.747V151.788z"/>
		<path fill="#FFFFFF" d="M151.205,142.618l2.82-0.883v3.334h3.212v2.134h-3.212v6.841c0,1.667,0.515,2.477,1.717,2.477
			c0.564,0,0.907-0.074,1.25-0.172l0.098,2.183c-0.491,0.196-1.25,0.318-2.207,0.318c-1.128,0-2.084-0.368-2.673-1.03
			c-0.687-0.735-1.005-1.863-1.005-3.629v-6.988h-1.913v-2.134h1.913V142.618z"/>
		<path fill="#FFFFFF" d="M161.108,142.985c-0.981,0-1.643-0.736-1.643-1.643c0-0.956,0.687-1.667,1.667-1.667
			s1.643,0.711,1.643,1.667C162.776,142.25,162.138,142.985,161.108,142.985z M162.531,158.581h-2.845v-13.536h2.845V158.581z"/>
		<path fill="#FFFFFF" d="M176.996,145.069l-4.855,13.511h-2.722l-4.732-13.511h3.065l2.207,7.185
			c0.368,1.177,0.662,2.305,0.907,3.433h0.074c0.245-1.128,0.564-2.231,0.907-3.408l2.182-7.209H176.996z"/>
		<path fill="#FFFFFF" d="M188.983,158.041c-0.956,0.441-2.452,0.809-4.291,0.809c-4.07,0-6.424-2.722-6.424-6.841
			c0-4.021,2.256-7.233,6.081-7.233c3.801,0,5.321,3.163,5.321,6.498c0,0.466-0.024,0.858-0.073,1.202h-8.583
			c0.074,3.041,1.962,4.193,4.095,4.193c1.496,0,2.525-0.27,3.408-0.638L188.983,158.041z M186.972,150.439
			c0.025-1.618-0.637-3.629-2.82-3.629c-2.084,0-2.967,2.06-3.114,3.629H186.972z"/>
		<path fill="#FFFFFF" d="M215.338,145.069l-4.095,13.511h-2.575l-1.741-5.983c-0.417-1.422-0.711-2.722-1.005-4.316h-0.074
			c-0.27,1.619-0.638,2.992-1.054,4.34l-1.839,5.958h-2.575l-3.874-13.511h2.942l1.496,6.474c0.319,1.447,0.638,2.894,0.883,4.316
			h0.049c0.27-1.398,0.687-2.894,1.079-4.292l1.864-6.498h2.33l1.765,6.351c0.417,1.569,0.785,3.016,1.055,4.438h0.073
			c0.221-1.398,0.54-2.845,0.908-4.414l1.569-6.375H215.338z"/>
		<path fill="#FFFFFF" d="M218.938,142.985c-0.981,0-1.643-0.736-1.643-1.643c0-0.956,0.687-1.667,1.667-1.667
			s1.643,0.711,1.643,1.667C220.605,142.25,219.967,142.985,218.938,142.985z M220.36,158.581h-2.845v-13.536h2.845V158.581z"/>
		<path fill="#FFFFFF" d="M230.804,147.571c-0.245-0.049-0.515-0.074-0.834-0.074c-1.913,0-3.114,1.569-3.114,3.923v7.16h-2.845
			v-9.392c0-1.569-0.024-2.869-0.098-4.12h2.477l0.098,2.477h0.098c0.613-1.717,2.035-2.771,3.506-2.771
			c0.27,0,0.466,0.024,0.711,0.073V147.571z"/>
		<path fill="#FFFFFF" d="M234.43,142.985c-0.981,0-1.643-0.736-1.643-1.643c0-0.956,0.687-1.667,1.667-1.667
			s1.643,0.711,1.643,1.667C236.098,142.25,235.46,142.985,234.43,142.985z M235.853,158.581h-2.845v-13.536h2.845V158.581z"/>
		<path fill="#FFFFFF" d="M250.661,158.581h-2.845v-7.92c0-1.913-0.637-3.531-2.575-3.531c-1.397,0-2.893,1.152-2.893,3.31v8.141
			h-2.845v-9.71c0-1.496-0.049-2.648-0.098-3.801h2.477l0.147,2.011h0.073c0.638-1.152,2.06-2.305,4.095-2.305
			c2.109,0,4.463,1.373,4.463,5.542V158.581z"/>
		<path fill="#FFFFFF" d="M265.517,145.069c-0.074,0.957-0.123,2.084-0.123,3.899v7.7c0,2.697-0.221,7.675-6.621,7.675
			c-1.569,0-3.212-0.343-4.267-0.98l0.637-2.207c0.834,0.49,2.133,0.956,3.654,0.956c2.207,0,3.776-1.226,3.776-4.291v-1.299h-0.049
			c-0.687,1.152-2.011,1.986-3.751,1.986c-3.188,0-5.37-2.82-5.37-6.596c0-4.585,2.771-7.136,5.713-7.136
			c2.011,0,3.139,1.03,3.703,2.109h0.049l0.123-1.815H265.517z M262.549,150.292c0-1.79-1.177-3.261-2.918-3.261
			c-1.961,0-3.334,1.864-3.334,4.757c0,2.648,1.201,4.537,3.31,4.537c1.471,0,2.942-1.128,2.942-3.384V150.292z"/>
		<path fill="#FFFFFF" d="M28.904,169.322c-0.981,0-1.643-0.736-1.643-1.643c0-0.956,0.687-1.667,1.667-1.667
			s1.643,0.711,1.643,1.667C30.571,168.586,29.934,169.322,28.904,169.322z M30.326,184.917h-2.845v-13.536h2.845V184.917z"/>
		<path fill="#FFFFFF" d="M45.135,184.917H42.29v-7.92c0-1.913-0.637-3.531-2.575-3.531c-1.397,0-2.893,1.152-2.893,3.31v8.141
			h-2.845v-9.71c0-1.496-0.049-2.648-0.098-3.801h2.477l0.147,2.011h0.073c0.638-1.152,2.06-2.305,4.095-2.305
			c2.109,0,4.463,1.373,4.463,5.542V184.917z"/>
		<path fill="#FFFFFF" d="M57.046,184.917h-2.845v-19.666h2.845V184.917z"/>
		<path fill="#FFFFFF" d="M62.096,169.322c-0.981,0-1.643-0.736-1.643-1.643c0-0.956,0.687-1.667,1.667-1.667
			s1.643,0.711,1.643,1.667C63.763,168.586,63.125,169.322,62.096,169.322z M63.518,184.917h-2.845v-13.536h2.845V184.917z"/>
		<path fill="#FFFFFF" d="M85.708,184.917h-2.795v-7.724c0-2.256-0.736-3.751-2.452-3.751c-1.3,0-2.624,1.177-2.624,3.139v8.337
			h-2.795v-8.141c0-1.888-0.711-3.334-2.354-3.334c-1.275,0-2.722,1.152-2.722,3.286v8.19h-2.795v-9.71
			c0-1.52-0.049-2.648-0.098-3.801h2.452l0.147,1.986h0.073c0.662-1.128,1.888-2.28,3.948-2.28c1.717,0,3.016,0.956,3.58,2.477
			h0.049c0.907-1.496,2.231-2.477,4.168-2.477c2.011,0,4.218,1.373,4.218,5.64V184.917z"/>
		<path fill="#FFFFFF" d="M90.679,169.322c-0.981,0-1.643-0.736-1.643-1.643c0-0.956,0.687-1.667,1.667-1.667
			s1.643,0.711,1.643,1.667C92.346,168.586,91.708,169.322,90.679,169.322z M92.101,184.917h-2.845v-13.536h2.845V184.917z"/>
		<path fill="#FFFFFF" d="M96.316,168.955l2.82-0.883v3.334h3.212v2.134h-3.212v6.841c0,1.667,0.515,2.477,1.717,2.477
			c0.564,0,0.907-0.074,1.25-0.172l0.098,2.183c-0.491,0.196-1.25,0.318-2.207,0.318c-1.128,0-2.084-0.368-2.673-1.03
			c-0.687-0.735-1.005-1.863-1.005-3.629v-6.988h-1.913v-2.134h1.913V168.955z"/>
		<path fill="#FFFFFF" d="M114.68,184.378c-0.956,0.441-2.452,0.809-4.291,0.809c-4.07,0-6.424-2.722-6.424-6.841
			c0-4.021,2.256-7.233,6.081-7.233c3.801,0,5.321,3.163,5.321,6.498c0,0.466-0.024,0.858-0.073,1.202h-8.583
			c0.074,3.041,1.962,4.193,4.095,4.193c1.496,0,2.525-0.27,3.408-0.638L114.68,184.378z M112.669,176.776
			c0.025-1.618-0.637-3.629-2.82-3.629c-2.084,0-2.967,2.06-3.114,3.629H112.669z"/>
		<path fill="#FFFFFF" d="M129.389,181.313c0,1.226,0.049,2.673,0.098,3.604h-2.501l-0.147-2.109h-0.074
			c-0.711,1.373-2.182,2.378-4.095,2.378c-3.065,0-5.395-2.722-5.395-6.89c0-4.585,2.624-7.185,5.64-7.185
			c1.741,0,2.992,0.785,3.58,1.814h0.049v-7.675h2.845V181.313z M126.544,176.875c0-2.207-1.397-3.506-2.991-3.506
			c-2.183,0-3.384,2.158-3.384,4.831c0,2.648,1.177,4.684,3.334,4.684c1.839,0,3.041-1.619,3.041-3.506V176.875z"/>
		<path fill="#FFFFFF" d="M145.224,173.957c-0.54-0.343-1.471-0.76-2.575-0.76c-1.275,0-1.961,0.736-1.961,1.643
			c0,0.932,0.613,1.398,2.256,2.109c2.231,0.907,3.408,2.133,3.408,4.095c0,2.6-1.986,4.144-5.051,4.144
			c-1.422,0-2.771-0.368-3.678-0.907l0.638-2.109c0.687,0.417,1.937,0.908,3.09,0.908c1.52,0,2.256-0.736,2.256-1.766
			s-0.564-1.594-2.183-2.281c-2.403-0.956-3.458-2.305-3.458-3.874c0-2.256,1.839-4.046,4.684-4.046
			c1.324,0,2.477,0.368,3.212,0.785L145.224,173.957z"/>
		<path fill="#FFFFFF" d="M151.719,173.466c0.932-1.521,2.403-2.354,4.292-2.354c3.041,0,5.321,2.697,5.321,6.89
			c0,4.954-2.869,7.185-5.713,7.185c-1.618,0-2.942-0.76-3.604-1.863h-0.049v7.062h-2.845v-14.615c0-1.765-0.049-3.163-0.098-4.365
			h2.501l0.147,2.06H151.719z M151.964,179.474c0,2.428,1.667,3.458,3.065,3.458c2.207,0,3.408-2.035,3.408-4.831
			c0-2.575-1.152-4.708-3.334-4.708c-1.692,0-3.139,1.594-3.139,3.58V179.474z"/>
		<path fill="#FFFFFF" d="M173.588,181.705c0,1.153,0.024,2.33,0.196,3.212h-2.575l-0.196-1.569h-0.074
			c-0.76,1.054-2.084,1.839-3.776,1.839c-2.525,0-3.972-1.863-3.972-3.948c0-3.359,2.918-5.027,7.552-5.027
			c0-1.005,0-3.016-2.722-3.016c-1.202,0-2.428,0.368-3.286,0.932l-0.589-1.888c0.957-0.613,2.55-1.128,4.365-1.128
			c3.973,0,5.076,2.624,5.076,5.493V181.705z M170.817,178.125c-2.231,0-4.806,0.417-4.806,2.82c0,1.496,0.932,2.158,1.986,2.158
			c1.545,0,2.82-1.177,2.82-2.747V178.125z"/>
		<path fill="#FFFFFF" d="M186.261,184.5c-0.637,0.294-1.913,0.687-3.482,0.687c-3.898,0-6.449-2.672-6.449-6.89
			c0-4.095,2.648-7.185,6.988-7.185c1.3,0,2.428,0.319,3.016,0.613l-0.564,2.183c-0.49-0.245-1.275-0.54-2.428-0.54
			c-2.648,0-4.119,2.158-4.119,4.806c0,2.967,1.741,4.732,4.095,4.732c1.128,0,1.913-0.27,2.55-0.54L186.261,184.5z"/>
		<path fill="#FFFFFF" d="M198.69,184.378c-0.956,0.441-2.452,0.809-4.291,0.809c-4.07,0-6.424-2.722-6.424-6.841
			c0-4.021,2.256-7.233,6.081-7.233c3.801,0,5.321,3.163,5.321,6.498c0,0.466-0.024,0.858-0.073,1.202h-8.583
			c0.074,3.041,1.962,4.193,4.095,4.193c1.496,0,2.525-0.27,3.408-0.638L198.69,184.378z M196.679,176.776
			c0.025-1.618-0.637-3.629-2.82-3.629c-2.084,0-2.967,2.06-3.114,3.629H196.679z"/>
		<path fill="#FFFFFF" d="M201.728,183.25c0-1.128,0.785-1.961,1.839-1.961c1.079,0,1.814,0.809,1.814,1.961
			c0,1.128-0.711,1.937-1.839,1.937S201.728,184.329,201.728,183.25z"/>
	</g>
</g>
<g>
	<g>
		<path fill="#FFFFFF" d="M538.154,52.255c0,5.566-2.771,7.92-6.768,7.92c-3.85,0-6.449-2.256-6.449-7.847V41.147h2.845V52.5
			c0,3.751,1.544,5.346,3.703,5.346c2.354,0,3.825-1.619,3.825-5.346V41.147h2.844V52.255z"/>
		<path fill="#FFFFFF" d="M548.595,48.945c-0.54-0.343-1.471-0.76-2.575-0.76c-1.275,0-1.961,0.736-1.961,1.643
			c0,0.932,0.613,1.398,2.256,2.109c2.231,0.907,3.408,2.133,3.408,4.095c0,2.6-1.986,4.144-5.051,4.144
			c-1.422,0-2.771-0.368-3.678-0.907l0.638-2.108c0.687,0.417,1.937,0.907,3.09,0.907c1.52,0,2.256-0.736,2.256-1.766
			s-0.564-1.594-2.183-2.28c-2.403-0.957-3.458-2.305-3.458-3.875c0-2.256,1.839-4.046,4.684-4.046c1.324,0,2.477,0.368,3.212,0.785
			L548.595,48.945z"/>
		<path fill="#FFFFFF" d="M562.373,59.366c-0.956,0.441-2.452,0.809-4.291,0.809c-4.07,0-6.424-2.722-6.424-6.841
			c0-4.021,2.256-7.233,6.081-7.233c3.8,0,5.321,3.163,5.321,6.498c0,0.466-0.024,0.858-0.073,1.202h-8.583
			c0.074,3.041,1.962,4.193,4.095,4.193c1.496,0,2.525-0.27,3.408-0.638L562.373,59.366z M560.362,51.765
			c0.025-1.618-0.637-3.629-2.82-3.629c-2.084,0-2.967,2.06-3.114,3.629H560.362z"/>
		<path fill="#FFFFFF" d="M572.521,48.945c-0.539-0.343-1.471-0.76-2.574-0.76c-1.275,0-1.962,0.736-1.962,1.643
			c0,0.932,0.612,1.398,2.256,2.109c2.231,0.907,3.408,2.133,3.408,4.095c0,2.6-1.986,4.144-5.052,4.144
			c-1.422,0-2.771-0.368-3.678-0.907l0.638-2.108c0.687,0.417,1.937,0.907,3.09,0.907c1.521,0,2.256-0.736,2.256-1.766
			s-0.563-1.594-2.183-2.28c-2.402-0.957-3.457-2.305-3.457-3.875c0-2.256,1.839-4.046,4.684-4.046c1.324,0,2.477,0.368,3.212,0.785
			L572.521,48.945z"/>
		<path fill="#FFFFFF" d="M588.627,48.945c-0.539-0.343-1.471-0.76-2.574-0.76c-1.275,0-1.961,0.736-1.961,1.643
			c0,0.932,0.612,1.398,2.256,2.109c2.23,0.907,3.408,2.133,3.408,4.095c0,2.6-1.986,4.144-5.052,4.144
			c-1.423,0-2.771-0.368-3.679-0.907l0.639-2.108c0.686,0.417,1.937,0.907,3.09,0.907c1.52,0,2.256-0.736,2.256-1.766
			s-0.564-1.594-2.184-2.28c-2.402-0.957-3.457-2.305-3.457-3.875c0-2.256,1.84-4.046,4.684-4.046c1.324,0,2.477,0.368,3.213,0.785
			L588.627,48.945z"/>
		<path fill="#FFFFFF" d="M593.945,44.311c-0.98,0-1.643-0.736-1.643-1.643c0-0.956,0.687-1.667,1.668-1.667
			c0.98,0,1.643,0.711,1.643,1.667C595.613,43.575,594.976,44.311,593.945,44.311z M595.368,59.906h-2.845V46.37h2.845V59.906z"/>
		<path fill="#FFFFFF" d="M601.864,59.906h-2.845V40.24h2.845V59.906z"/>
		<path fill="#FFFFFF" d="M606.914,44.311c-0.981,0-1.644-0.736-1.644-1.643c0-0.956,0.687-1.667,1.667-1.667
			c0.981,0,1.644,0.711,1.644,1.667C608.581,43.575,607.943,44.311,606.914,44.311z M608.336,59.906h-2.845V46.37h2.845V59.906z"/>
		<path fill="#FFFFFF" d="M621.084,59.489c-0.637,0.294-1.912,0.687-3.481,0.687c-3.898,0-6.448-2.672-6.448-6.89
			c0-4.095,2.647-7.185,6.988-7.185c1.299,0,2.428,0.319,3.016,0.613l-0.564,2.183c-0.49-0.245-1.274-0.54-2.428-0.54
			c-2.647,0-4.119,2.158-4.119,4.806c0,2.967,1.741,4.732,4.096,4.732c1.127,0,1.912-0.27,2.55-0.54L621.084,59.489z"/>
		<path fill="#FFFFFF" d="M635.279,53.04c0,5.051-3.286,7.135-6.326,7.135c-3.508,0-6.18-2.575-6.18-6.939
			c0-4.561,2.795-7.135,6.375-7.135C632.852,46.101,635.279,48.896,635.279,53.04z M629.051,48.234
			c-2.428,0-3.359,2.599-3.359,4.929c0,2.648,1.25,4.879,3.334,4.879c2.061,0,3.336-2.231,3.336-4.929
			C632.361,50.882,631.43,48.234,629.051,48.234z"/>
		<path fill="#FFFFFF" d="M649.252,59.906h-2.845v-7.92c0-1.913-0.638-3.531-2.575-3.531c-1.396,0-2.893,1.152-2.893,3.31v8.141
			h-2.845v-9.71c0-1.496-0.049-2.648-0.099-3.801h2.477l0.148,2.011h0.072c0.639-1.152,2.061-2.305,4.096-2.305
			c2.109,0,4.463,1.373,4.463,5.542V59.906z"/>
		<path fill="#FFFFFF" d="M662.709,59.366c-0.955,0.441-2.451,0.809-4.291,0.809c-4.07,0-6.424-2.722-6.424-6.841
			c0-4.021,2.256-7.233,6.081-7.233c3.801,0,5.321,3.163,5.321,6.498c0,0.466-0.025,0.858-0.074,1.202h-8.582
			c0.074,3.041,1.962,4.193,4.096,4.193c1.495,0,2.525-0.27,3.408-0.638L662.709,59.366z M660.699,51.765
			c0.024-1.618-0.638-3.629-2.82-3.629c-2.084,0-2.967,2.06-3.114,3.629H660.699z"/>
		<path fill="#FFFFFF" d="M673.053,44.311c-0.98,0-1.643-0.736-1.643-1.643c0-0.956,0.686-1.667,1.667-1.667
			s1.644,0.711,1.644,1.667C674.721,43.575,674.082,44.311,673.053,44.311z M674.475,59.906h-2.844V46.37h2.844V59.906z"/>
		<path fill="#FFFFFF" d="M689.283,59.906h-2.844v-7.92c0-1.913-0.638-3.531-2.575-3.531c-1.397,0-2.894,1.152-2.894,3.31v8.141
			h-2.844v-9.71c0-1.496-0.049-2.648-0.099-3.801h2.477l0.147,2.011h0.073c0.638-1.152,2.06-2.305,4.095-2.305
			c2.109,0,4.463,1.373,4.463,5.542V59.906z"/>
		<path fill="#FFFFFF" d="M699.578,48.945c-0.539-0.343-1.471-0.76-2.574-0.76c-1.275,0-1.962,0.736-1.962,1.643
			c0,0.932,0.612,1.398,2.256,2.109c2.231,0.907,3.408,2.133,3.408,4.095c0,2.6-1.986,4.144-5.052,4.144
			c-1.422,0-2.771-0.368-3.678-0.907l0.638-2.108c0.687,0.417,1.937,0.907,3.09,0.907c1.521,0,2.256-0.736,2.256-1.766
			s-0.563-1.594-2.183-2.28c-2.402-0.957-3.457-2.305-3.457-3.875c0-2.256,1.839-4.046,4.684-4.046c1.324,0,2.477,0.368,3.212,0.785
			L699.578,48.945z"/>
		<path fill="#FFFFFF" d="M714.459,56.031c0,1.521,0.074,2.795,0.123,3.875h-2.501l-0.147-1.962h-0.073
			c-0.563,0.932-1.888,2.231-4.07,2.231c-2.329,0-4.364-1.446-4.364-5.762V46.37h2.844v7.577c0,2.33,0.662,3.874,2.525,3.874
			c1.3,0,2.82-1.03,2.82-3.065v-8.362h2.844V56.031z"/>
		<path fill="#FFFFFF" d="M720.953,59.906h-2.844V40.24h2.844V59.906z"/>
		<path fill="#FFFFFF" d="M734.046,56.693c0,1.153,0.024,2.33,0.196,3.212h-2.575l-0.196-1.569h-0.073
			c-0.761,1.054-2.085,1.839-3.776,1.839c-2.525,0-3.973-1.863-3.973-3.948c0-3.359,2.918-5.027,7.553-5.027
			c0-1.005,0-3.016-2.722-3.016c-1.202,0-2.428,0.368-3.286,0.932l-0.588-1.888c0.956-0.613,2.55-1.128,4.364-1.128
			c3.973,0,5.076,2.624,5.076,5.493V56.693z M731.275,53.113c-2.232,0-4.807,0.417-4.807,2.82c0,1.496,0.932,2.158,1.986,2.158
			c1.545,0,2.82-1.177,2.82-2.747V53.113z"/>
		<path fill="#FFFFFF" d="M738.186,43.943l2.82-0.883v3.334h3.213v2.133h-3.213v6.842c0,1.667,0.516,2.477,1.717,2.477
			c0.564,0,0.907-0.074,1.25-0.172l0.099,2.183c-0.491,0.196-1.251,0.318-2.207,0.318c-1.128,0-2.085-0.368-2.673-1.03
			c-0.687-0.735-1.006-1.863-1.006-3.629v-6.989h-1.912v-2.133h1.912V43.943z"/>
		<path fill="#FFFFFF" d="M748.09,44.311c-0.98,0-1.643-0.736-1.643-1.643c0-0.956,0.686-1.667,1.667-1.667s1.644,0.711,1.644,1.667
			C749.758,43.575,749.119,44.311,748.09,44.311z M749.512,59.906h-2.844V46.37h2.844V59.906z"/>
		<path fill="#FFFFFF" d="M764.811,53.04c0,5.051-3.285,7.135-6.326,7.135c-3.506,0-6.179-2.575-6.179-6.939
			c0-4.561,2.795-7.135,6.375-7.135C762.383,46.101,764.811,48.896,764.811,53.04z M758.583,48.234
			c-2.428,0-3.359,2.599-3.359,4.929c0,2.648,1.251,4.879,3.335,4.879c2.06,0,3.334-2.231,3.334-4.929
			C761.893,50.882,760.961,48.234,758.583,48.234z"/>
		<path fill="#FFFFFF" d="M778.784,59.906h-2.845v-7.92c0-1.913-0.637-3.531-2.574-3.531c-1.398,0-2.894,1.152-2.894,3.31v8.141
			h-2.845v-9.71c0-1.496-0.049-2.648-0.098-3.801h2.477l0.146,2.011h0.074c0.637-1.152,2.06-2.305,4.095-2.305
			c2.108,0,4.463,1.373,4.463,5.542V59.906z"/>
		<path fill="#FFFFFF" d="M785.744,56.105c-0.711,2.452-1.938,5.493-2.869,7.038l-1.962,0.196c0.687-1.864,1.423-4.806,1.741-6.964
			L785.744,56.105z"/>
		<path fill="#FFFFFF" d="M535.972,86.243h-2.845v-7.92c0-1.913-0.637-3.531-2.575-3.531c-1.397,0-2.893,1.152-2.893,3.31v8.141
			h-2.845v-9.71c0-1.496-0.049-2.648-0.098-3.801h2.477l0.147,2.011h0.073c0.638-1.152,2.06-2.305,4.095-2.305
			c2.109,0,4.463,1.373,4.463,5.542V86.243z"/>
		<path fill="#FFFFFF" d="M551.195,79.377c0,5.051-3.286,7.135-6.326,7.135c-3.507,0-6.179-2.575-6.179-6.939
			c0-4.561,2.795-7.135,6.375-7.135C548.767,72.438,551.195,75.233,551.195,79.377z M544.967,74.571
			c-2.428,0-3.359,2.599-3.359,4.929c0,2.648,1.25,4.879,3.334,4.879c2.06,0,3.335-2.231,3.335-4.929
			C548.277,77.219,547.345,74.571,544.967,74.571z"/>
		<path fill="#FFFFFF" d="M565.168,86.243h-2.845v-7.92c0-1.913-0.638-3.531-2.575-3.531c-1.397,0-2.893,1.152-2.893,3.31v8.141
			h-2.845v-9.71c0-1.496-0.049-2.648-0.098-3.801h2.477l0.147,2.011h0.073c0.638-1.152,2.06-2.305,4.095-2.305
			c2.109,0,4.463,1.373,4.463,5.542V86.243z"/>
		<path fill="#FFFFFF" d="M567.763,77.783h6.743v2.035h-6.743V77.783z"/>
		<path fill="#FFFFFF" d="M577.716,70.28l2.819-0.883v3.334h3.213v2.133h-3.213v6.842c0,1.667,0.516,2.477,1.717,2.477
			c0.564,0,0.908-0.074,1.251-0.172l0.099,2.183c-0.491,0.196-1.251,0.318-2.207,0.318c-1.129,0-2.085-0.368-2.674-1.03
			c-0.686-0.735-1.005-1.863-1.005-3.629v-6.989h-1.913v-2.133h1.913V70.28z"/>
		<path fill="#FFFFFF" d="M597.845,79.377c0,5.051-3.286,7.135-6.326,7.135c-3.507,0-6.179-2.575-6.179-6.939
			c0-4.561,2.795-7.135,6.375-7.135C595.417,72.438,597.845,75.233,597.845,79.377z M591.617,74.571
			c-2.428,0-3.359,2.599-3.359,4.929c0,2.648,1.25,4.879,3.334,4.879c2.061,0,3.335-2.231,3.335-4.929
			C594.927,77.219,593.995,74.571,591.617,74.571z"/>
		<path fill="#FFFFFF" d="M611.033,72.731l-4.242,6.523l4.315,6.988h-3.212l-1.668-2.894c-0.416-0.735-0.809-1.447-1.201-2.256
			h-0.049c-0.393,0.785-0.785,1.496-1.227,2.28l-1.594,2.869h-3.09l4.365-6.866l-4.193-6.646h3.139l1.619,2.722
			c0.441,0.76,0.809,1.447,1.201,2.182h0.049c0.393-0.76,0.785-1.496,1.178-2.207l1.544-2.698H611.033z"/>
		<path fill="#FFFFFF" d="M614.609,70.647c-0.98,0-1.643-0.736-1.643-1.643c0-0.956,0.686-1.667,1.667-1.667
			s1.644,0.711,1.644,1.667C616.277,69.912,615.639,70.647,614.609,70.647z M616.031,86.243h-2.844V72.707h2.844V86.243z"/>
		<path fill="#FFFFFF" d="M628.78,85.826c-0.638,0.294-1.913,0.687-3.481,0.687c-3.899,0-6.449-2.672-6.449-6.89
			c0-4.095,2.648-7.185,6.988-7.185c1.3,0,2.428,0.319,3.016,0.613l-0.563,2.183c-0.49-0.245-1.274-0.54-2.428-0.54
			c-2.647,0-4.119,2.158-4.119,4.806c0,2.967,1.741,4.732,4.095,4.732c1.128,0,1.912-0.27,2.551-0.54L628.78,85.826z"/>
		<path fill="#FFFFFF" d="M654.253,72.731l-4.095,13.511h-2.575l-1.741-5.983c-0.416-1.422-0.711-2.722-1.005-4.316h-0.073
			c-0.27,1.619-0.639,2.992-1.055,4.34l-1.84,5.958h-2.574l-3.874-13.511h2.942l1.496,6.474c0.318,1.447,0.637,2.894,0.883,4.316
			h0.049c0.27-1.398,0.687-2.894,1.078-4.292l1.864-6.498h2.329l1.766,6.351c0.417,1.569,0.785,3.016,1.055,4.438h0.073
			c0.221-1.398,0.54-2.845,0.907-4.414l1.57-6.375H654.253z"/>
		<path fill="#FFFFFF" d="M657.852,70.647c-0.98,0-1.643-0.736-1.643-1.643c0-0.956,0.687-1.667,1.668-1.667
			c0.98,0,1.643,0.711,1.643,1.667C659.52,69.912,658.882,70.647,657.852,70.647z M659.274,86.243h-2.845V72.707h2.845V86.243z"/>
		<path fill="#FFFFFF" d="M663.49,70.28l2.819-0.883v3.334h3.212v2.133h-3.212v6.842c0,1.667,0.515,2.477,1.717,2.477
			c0.563,0,0.907-0.074,1.251-0.172l0.098,2.183c-0.49,0.196-1.25,0.318-2.207,0.318c-1.128,0-2.084-0.368-2.673-1.03
			c-0.687-0.735-1.005-1.863-1.005-3.629v-6.989h-1.913v-2.133h1.913V70.28z"/>
		<path fill="#FFFFFF" d="M683.129,86.243h-2.846v-7.896c0-1.938-0.662-3.556-2.574-3.556c-1.397,0-2.893,1.152-2.893,3.188v8.264
			h-2.846V66.577h2.846v7.994h0.049c0.883-1.398,2.402-2.133,3.874-2.133c2.035,0,4.39,1.373,4.39,5.64V86.243z"/>
		<path fill="#FFFFFF" d="M703.475,72.731c-0.073,0.957-0.122,2.084-0.122,3.899v7.7c0,2.697-0.221,7.675-6.62,7.675
			c-1.57,0-3.213-0.343-4.268-0.98l0.638-2.207c0.834,0.49,2.134,0.957,3.653,0.957c2.207,0,3.777-1.226,3.777-4.292v-1.299h-0.05
			c-0.687,1.152-2.011,1.986-3.751,1.986c-3.188,0-5.371-2.82-5.371-6.596c0-4.585,2.771-7.135,5.714-7.135
			c2.011,0,3.139,1.03,3.702,2.109h0.049l0.123-1.815H703.475z M700.508,77.955c0-1.79-1.177-3.261-2.918-3.261
			c-1.961,0-3.334,1.864-3.334,4.757c0,2.648,1.201,4.537,3.31,4.537c1.472,0,2.942-1.128,2.942-3.384V77.955z"/>
		<path fill="#FFFFFF" d="M713.77,75.233c-0.244-0.049-0.515-0.074-0.834-0.074c-1.912,0-3.113,1.569-3.113,3.923v7.16h-2.845
			v-9.392c0-1.569-0.024-2.869-0.099-4.12h2.477l0.099,2.477h0.099c0.613-1.717,2.035-2.771,3.506-2.771
			c0.27,0,0.467,0.024,0.711,0.074V75.233z"/>
		<path fill="#FFFFFF" d="M725.855,85.703c-0.955,0.441-2.451,0.809-4.291,0.809c-4.07,0-6.424-2.722-6.424-6.841
			c0-4.021,2.256-7.233,6.081-7.233c3.801,0,5.321,3.163,5.321,6.498c0,0.466-0.025,0.858-0.074,1.202h-8.582
			c0.074,3.041,1.962,4.193,4.096,4.193c1.495,0,2.525-0.27,3.408-0.638L725.855,85.703z M723.846,78.102
			c0.024-1.618-0.638-3.629-2.82-3.629c-2.084,0-2.967,2.06-3.114,3.629H723.846z"/>
		<path fill="#FFFFFF" d="M738.751,83.03c0,1.153,0.024,2.33,0.196,3.212h-2.575l-0.196-1.569h-0.073
			c-0.761,1.054-2.085,1.839-3.776,1.839c-2.525,0-3.973-1.863-3.973-3.948c0-3.359,2.918-5.027,7.553-5.027
			c0-1.005,0-3.016-2.722-3.016c-1.202,0-2.428,0.368-3.286,0.932l-0.588-1.888c0.956-0.613,2.55-1.128,4.364-1.128
			c3.973,0,5.076,2.624,5.076,5.493V83.03z M735.98,79.45c-2.232,0-4.807,0.417-4.807,2.82c0,1.496,0.932,2.158,1.986,2.158
			c1.545,0,2.82-1.177,2.82-2.747V79.45z"/>
		<path fill="#FFFFFF" d="M742.891,70.28l2.82-0.883v3.334h3.213v2.133h-3.213v6.842c0,1.667,0.516,2.477,1.717,2.477
			c0.564,0,0.907-0.074,1.25-0.172l0.099,2.183c-0.491,0.196-1.251,0.318-2.207,0.318c-1.128,0-2.085-0.368-2.673-1.03
			c-0.687-0.735-1.006-1.863-1.006-3.629v-6.989h-1.912v-2.133h1.912V70.28z"/>
		<path fill="#FFFFFF" d="M525.378,96.617l2.82-0.883v3.334h3.212v2.134h-3.212v6.841c0,1.667,0.515,2.477,1.717,2.477
			c0.564,0,0.907-0.074,1.25-0.172l0.098,2.183c-0.491,0.196-1.25,0.318-2.207,0.318c-1.128,0-2.084-0.368-2.673-1.03
			c-0.687-0.735-1.005-1.863-1.005-3.629v-6.988h-1.913v-2.134h1.913V96.617z"/>
		<path fill="#FFFFFF" d="M543.742,112.041c-0.956,0.441-2.452,0.809-4.291,0.809c-4.07,0-6.424-2.722-6.424-6.841
			c0-4.021,2.256-7.233,6.081-7.233c3.801,0,5.321,3.163,5.321,6.498c0,0.466-0.024,0.858-0.073,1.202h-8.583
			c0.074,3.041,1.962,4.193,4.095,4.193c1.496,0,2.525-0.27,3.408-0.638L543.742,112.041z M541.731,104.439
			c0.025-1.618-0.637-3.629-2.82-3.629c-2.084,0-2.967,2.06-3.114,3.629H541.731z"/>
		<path fill="#FFFFFF" d="M565.709,112.58h-2.795v-7.724c0-2.256-0.736-3.751-2.452-3.751c-1.3,0-2.624,1.177-2.624,3.139v8.337
			h-2.795v-8.141c0-1.888-0.711-3.334-2.354-3.334c-1.275,0-2.722,1.152-2.722,3.286v8.19h-2.795v-9.71
			c0-1.52-0.049-2.648-0.098-3.801h2.452l0.147,1.986h0.073c0.662-1.128,1.888-2.28,3.948-2.28c1.717,0,3.016,0.956,3.58,2.477
			h0.049c0.907-1.496,2.231-2.477,4.169-2.477c2.01,0,4.217,1.373,4.217,5.64V112.58z"/>
		<path fill="#FFFFFF" d="M571.857,101.129c0.932-1.521,2.403-2.354,4.291-2.354c3.041,0,5.321,2.697,5.321,6.89
			c0,4.954-2.868,7.185-5.714,7.185c-1.617,0-2.941-0.76-3.604-1.863h-0.049v7.062h-2.846v-14.615c0-1.765-0.049-3.163-0.098-4.365
			h2.502l0.146,2.06H571.857z M572.104,107.136c0,2.428,1.666,3.458,3.064,3.458c2.207,0,3.408-2.035,3.408-4.831
			c0-2.575-1.152-4.708-3.334-4.708c-1.693,0-3.139,1.594-3.139,3.58V107.136z"/>
		<path fill="#FFFFFF" d="M594.143,112.041c-0.955,0.441-2.451,0.809-4.291,0.809c-4.07,0-6.424-2.722-6.424-6.841
			c0-4.021,2.256-7.233,6.081-7.233c3.801,0,5.321,3.163,5.321,6.498c0,0.466-0.025,0.858-0.074,1.202h-8.582
			c0.074,3.041,1.962,4.193,4.096,4.193c1.495,0,2.525-0.27,3.408-0.638L594.143,112.041z M592.133,104.439
			c0.024-1.618-0.638-3.629-2.82-3.629c-2.084,0-2.967,2.06-3.114,3.629H592.133z"/>
		<path fill="#FFFFFF" d="M604.365,101.57c-0.245-0.049-0.516-0.074-0.834-0.074c-1.912,0-3.113,1.569-3.113,3.923v7.16h-2.846
			v-9.392c0-1.569-0.023-2.869-0.098-4.12h2.477l0.098,2.477h0.099c0.613-1.717,2.035-2.771,3.507-2.771
			c0.27,0,0.466,0.024,0.711,0.073V101.57z"/>
		<path fill="#FFFFFF" d="M616.035,109.368c0,1.153,0.023,2.33,0.195,3.212h-2.574l-0.196-1.569h-0.073
			c-0.761,1.054-2.085,1.839-3.777,1.839c-2.525,0-3.972-1.863-3.972-3.948c0-3.359,2.918-5.027,7.552-5.027
			c0-1.005,0-3.016-2.721-3.016c-1.202,0-2.428,0.368-3.286,0.932l-0.589-1.888c0.957-0.613,2.551-1.128,4.365-1.128
			c3.973,0,5.076,2.624,5.076,5.493V109.368z M613.264,105.788c-2.231,0-4.807,0.417-4.807,2.82c0,1.496,0.932,2.158,1.986,2.158
			c1.545,0,2.82-1.177,2.82-2.747V105.788z"/>
		<path fill="#FFFFFF" d="M620.175,96.617l2.819-0.883v3.334h3.213v2.134h-3.213v6.841c0,1.667,0.516,2.477,1.717,2.477
			c0.564,0,0.908-0.074,1.251-0.172l0.099,2.183c-0.491,0.196-1.251,0.318-2.207,0.318c-1.129,0-2.085-0.368-2.674-1.03
			c-0.686-0.735-1.005-1.863-1.005-3.629v-6.988h-1.913v-2.134h1.913V96.617z"/>
		<path fill="#FFFFFF" d="M639.642,108.706c0,1.521,0.073,2.795,0.122,3.875h-2.5l-0.147-1.961h-0.073
			c-0.564,0.932-1.889,2.231-4.07,2.231c-2.33,0-4.365-1.447-4.365-5.762v-8.043h2.844v7.577c0,2.33,0.662,3.874,2.526,3.874
			c1.3,0,2.819-1.03,2.819-3.065v-8.362h2.845V108.706z"/>
		<path fill="#FFFFFF" d="M650.084,101.57c-0.246-0.049-0.516-0.074-0.834-0.074c-1.913,0-3.114,1.569-3.114,3.923v7.16h-2.845
			v-9.392c0-1.569-0.024-2.869-0.098-4.12h2.477l0.098,2.477h0.098c0.613-1.717,2.035-2.771,3.507-2.771
			c0.271,0,0.466,0.024,0.712,0.073V101.57z"/>
		<path fill="#FFFFFF" d="M662.17,112.041c-0.957,0.441-2.453,0.809-4.291,0.809c-4.07,0-6.425-2.722-6.425-6.841
			c0-4.021,2.256-7.233,6.081-7.233c3.801,0,5.32,3.163,5.32,6.498c0,0.466-0.023,0.858-0.072,1.202H654.2
			c0.073,3.041,1.962,4.193,4.095,4.193c1.496,0,2.525-0.27,3.408-0.638L662.17,112.041z M660.158,104.439
			c0.025-1.618-0.637-3.629-2.819-3.629c-2.084,0-2.967,2.06-3.114,3.629H660.158z"/>
		<path fill="#FFFFFF" d="M677.883,101.57c-0.245-0.049-0.516-0.074-0.834-0.074c-1.912,0-3.113,1.569-3.113,3.923v7.16h-2.846
			v-9.392c0-1.569-0.023-2.869-0.098-4.12h2.477l0.098,2.477h0.099c0.613-1.717,2.035-2.771,3.507-2.771
			c0.27,0,0.466,0.024,0.711,0.073V101.57z"/>
		<path fill="#FFFFFF" d="M689.969,112.041c-0.956,0.441-2.452,0.809-4.291,0.809c-4.07,0-6.424-2.722-6.424-6.841
			c0-4.021,2.256-7.233,6.08-7.233c3.801,0,5.321,3.163,5.321,6.498c0,0.466-0.024,0.858-0.073,1.202H682
			c0.073,3.041,1.961,4.193,4.095,4.193c1.495,0,2.525-0.27,3.408-0.638L689.969,112.041z M687.958,104.439
			c0.024-1.618-0.638-3.629-2.819-3.629c-2.084,0-2.967,2.06-3.115,3.629H687.958z"/>
		<path fill="#FFFFFF" d="M700.117,101.619c-0.539-0.343-1.471-0.76-2.574-0.76c-1.275,0-1.962,0.736-1.962,1.643
			c0,0.932,0.612,1.398,2.256,2.109c2.231,0.907,3.408,2.133,3.408,4.095c0,2.6-1.986,4.144-5.052,4.144
			c-1.422,0-2.771-0.368-3.678-0.907l0.638-2.109c0.687,0.417,1.937,0.908,3.09,0.908c1.521,0,2.256-0.736,2.256-1.766
			s-0.563-1.594-2.183-2.281c-2.402-0.956-3.457-2.305-3.457-3.874c0-2.256,1.839-4.046,4.684-4.046
			c1.324,0,2.477,0.368,3.212,0.785L700.117,101.619z"/>
		<path fill="#FFFFFF" d="M705.436,96.985c-0.98,0-1.643-0.736-1.643-1.643c0-0.956,0.686-1.667,1.667-1.667
			s1.644,0.711,1.644,1.667C707.104,96.249,706.465,96.985,705.436,96.985z M706.857,112.58h-2.844V99.044h2.844V112.58z"/>
		<path fill="#FFFFFF" d="M717.229,101.619c-0.54-0.343-1.472-0.76-2.575-0.76c-1.274,0-1.962,0.736-1.962,1.643
			c0,0.932,0.613,1.398,2.256,2.109c2.232,0.907,3.408,2.133,3.408,4.095c0,2.6-1.986,4.144-5.051,4.144
			c-1.422,0-2.771-0.368-3.678-0.907l0.637-2.109c0.688,0.417,1.938,0.908,3.09,0.908c1.521,0,2.256-0.736,2.256-1.766
			s-0.563-1.594-2.182-2.281c-2.403-0.956-3.458-2.305-3.458-3.874c0-2.256,1.839-4.046,4.684-4.046
			c1.324,0,2.477,0.368,3.212,0.785L717.229,101.619z"/>
		<path fill="#FFFFFF" d="M721.688,96.617l2.82-0.883v3.334h3.213v2.134h-3.213v6.841c0,1.667,0.516,2.477,1.717,2.477
			c0.564,0,0.907-0.074,1.25-0.172l0.099,2.183c-0.491,0.196-1.251,0.318-2.207,0.318c-1.128,0-2.085-0.368-2.673-1.03
			c-0.687-0.735-1.006-1.863-1.006-3.629v-6.988h-1.912v-2.134h1.912V96.617z"/>
		<path fill="#FFFFFF" d="M739.635,109.368c0,1.153,0.024,2.33,0.195,3.212h-2.574l-0.195-1.569h-0.074
			c-0.76,1.054-2.084,1.839-3.776,1.839c-2.525,0-3.972-1.863-3.972-3.948c0-3.359,2.918-5.027,7.552-5.027
			c0-1.005,0-3.016-2.722-3.016c-1.201,0-2.428,0.368-3.285,0.932l-0.59-1.888c0.957-0.613,2.551-1.128,4.365-1.128
			c3.973,0,5.076,2.624,5.076,5.493V109.368z M736.863,105.788c-2.23,0-4.806,0.417-4.806,2.82c0,1.496,0.932,2.158,1.986,2.158
			c1.545,0,2.819-1.177,2.819-2.747V105.788z"/>
		<path fill="#FFFFFF" d="M754.368,112.58h-2.845v-7.92c0-1.913-0.637-3.531-2.574-3.531c-1.398,0-2.894,1.152-2.894,3.31v8.141
			h-2.845v-9.71c0-1.496-0.049-2.648-0.098-3.801h2.477l0.146,2.011h0.074c0.637-1.152,2.06-2.305,4.095-2.305
			c2.108,0,4.463,1.373,4.463,5.542V112.58z"/>
		<path fill="#FFFFFF" d="M767.041,112.163c-0.637,0.294-1.912,0.687-3.482,0.687c-3.898,0-6.448-2.672-6.448-6.89
			c0-4.095,2.647-7.185,6.988-7.185c1.3,0,2.428,0.319,3.017,0.613l-0.564,2.183c-0.49-0.245-1.275-0.54-2.428-0.54
			c-2.648,0-4.119,2.158-4.119,4.806c0,2.967,1.74,4.732,4.095,4.732c1.128,0,1.913-0.27,2.55-0.54L767.041,112.163z"/>
		<path fill="#FFFFFF" d="M779.47,112.041c-0.956,0.441-2.452,0.809-4.291,0.809c-4.07,0-6.425-2.722-6.425-6.841
			c0-4.021,2.256-7.233,6.082-7.233c3.801,0,5.32,3.163,5.32,6.498c0,0.466-0.024,0.858-0.073,1.202H771.5
			c0.074,3.041,1.963,4.193,4.096,4.193c1.496,0,2.525-0.27,3.408-0.638L779.47,112.041z M777.459,104.439
			c0.025-1.618-0.637-3.629-2.82-3.629c-2.084,0-2.967,2.06-3.113,3.629H777.459z"/>
		<path fill="#FFFFFF" d="M524.422,137.25c0-1.128,0.785-1.961,1.839-1.961c1.079,0,1.814,0.809,1.814,1.961
			c0,1.128-0.711,1.937-1.839,1.937S524.422,138.329,524.422,137.25z"/>
	</g>
</g>
</svg>
