<?xml version="1.0" encoding="utf-8"?>
<!-- Generator: Adobe Illustrator 16.0.0, SVG Export Plug-In . SVG Version: 6.00 Build 0)  -->
<!DOCTYPE svg PUBLIC "-//W3C//DTD SVG 1.1//EN" "http://www.w3.org/Graphics/SVG/1.1/DTD/svg11.dtd">
<svg version="1.1" id="圖層_1" xmlns="http://www.w3.org/2000/svg" xmlns:xlink="http://www.w3.org/1999/xlink" x="0px" y="0px"
	 width="320px" height="320px" viewBox="0 0 320 320" enable-background="new 0 0 320 320" xml:space="preserve">
<line fill="none" stroke="#000000" stroke-width="2" stroke-linecap="round" stroke-linejoin="round" stroke-miterlimit="10" x1="47.106" y1="270.489" x2="258.221" y2="270.489"/>
<polyline fill="none" stroke="#000000" stroke-width="2" stroke-linecap="round" stroke-linejoin="round" stroke-miterlimit="10" points="
	81.723,268.104 81.723,89.038 126.615,89.038 126.615,55.199 158.829,55.199 "/>
<polyline fill="none" stroke="#000000" stroke-width="2" stroke-linecap="round" stroke-linejoin="round" stroke-miterlimit="10" points="
	225.568,268.104 225.568,89.038 180.678,89.038 180.678,55.199 148.464,55.199 "/>
<rect x="131.46" y="108.049" width="18.445" height="18.452"/>
<rect x="160.512" y="108.049" width="18.452" height="18.452"/>
<rect x="133.09" y="65.56" width="18.452" height="18.456"/>
<rect x="155.2" y="65.56" width="18.446" height="18.456"/>
<rect x="189.557" y="108.049" width="18.455" height="18.452"/>
<rect x="131.46" y="131.187" width="18.445" height="18.452"/>
<rect x="160.512" y="131.187" width="18.452" height="18.452"/>
<rect x="189.557" y="131.187" width="18.455" height="18.452"/>
<rect x="131.46" y="154.326" width="18.445" height="18.456"/>
<rect x="160.512" y="154.326" width="18.452" height="18.456"/>
<rect x="189.557" y="154.326" width="18.455" height="18.456"/>
<rect x="131.46" y="177.469" width="18.445" height="18.451"/>
<rect x="160.512" y="177.469" width="18.452" height="18.451"/>
<rect x="189.557" y="177.469" width="18.455" height="18.451"/>
<rect x="189.557" y="224.837" width="18.455" height="18.452"/>
<rect x="131.46" y="200.602" width="18.445" height="18.453"/>
<rect x="134.311" y="228" width="41.802" height="42.489"/>
<rect x="160.512" y="200.602" width="18.452" height="18.453"/>
<rect x="189.557" y="200.602" width="18.455" height="18.453"/>
<rect x="102.832" y="108.049" width="18.452" height="18.452"/>
<rect x="102.832" y="131.187" width="18.452" height="18.452"/>
<rect x="102.832" y="154.326" width="18.452" height="18.456"/>
<rect x="102.832" y="177.469" width="18.452" height="18.451"/>
<rect x="102.832" y="224.837" width="18.452" height="18.452"/>
<rect x="102.832" y="200.602" width="18.452" height="18.453"/>
</svg>
