<?xml version="1.0" encoding="utf-8"?>
<!-- Generator: Adobe Illustrator 16.0.0, SVG Export Plug-In . SVG Version: 6.00 Build 0)  -->
<!DOCTYPE svg PUBLIC "-//W3C//DTD SVG 1.1//EN" "http://www.w3.org/Graphics/SVG/1.1/DTD/svg11.dtd">
<svg version="1.1" xmlns="http://www.w3.org/2000/svg" xmlns:xlink="http://www.w3.org/1999/xlink" x="0px" y="0px" width="320px"
	 height="320px" viewBox="0 0 320 320" enable-background="new 0 0 320 320" xml:space="preserve">
<g id="鐵氟龍線">
	
		<text transform="matrix(1 0 0 1 35.8809 356.5293)" display="none" fill="#231815" font-family="'MicrosoftYaHei'" font-size="41.1597">鐵氟龍線系列</text>
	<g>
		<path fill="none" stroke="#231815" stroke-width="2" stroke-miterlimit="10" d="M249.653,270.959
			c0.99,0.991,1.969,1.62,2.184,1.407l3.041-3.036c0.213-0.222-0.414-1.198-1.408-2.19l-52.111-52.104l-3.813,3.814L249.653,270.959
			z"/>
		<path fill="none" stroke="#231815" stroke-width="2" stroke-miterlimit="10" d="M50.954,81.78
			c-1.507-1.506-2.109-3.333-1.358-4.085l10.611-10.608c0.748-0.751,2.577-0.146,4.084,1.361l139.104,139.106
			c1.508,1.503,2.11,3.333,1.359,4.084l-10.603,10.608c-0.759,0.752-2.587,0.142-4.087-1.361L50.954,81.78z"/>
	</g>
	<g>
		<path fill="none" stroke="#231815" stroke-miterlimit="10" d="M213.839,196.895c0.684,0.683,1.354,1.119,1.5,0.97l2.09-2.089
			c0.148-0.148-0.286-0.822-0.971-1.506l-35.842-35.842l-2.624,2.625L213.839,196.895z"/>
		<path fill="#231815" stroke="#231815" stroke-miterlimit="10" d="M77.162,66.766c-1.038-1.034-1.453-2.293-0.937-2.812
			l7.293-7.295c0.518-0.519,1.777-0.099,2.814,0.936l95.685,95.686c1.03,1.035,1.455,2.293,0.937,2.811l-7.294,7.295
			c-0.524,0.52-1.781,0.099-2.813-0.936L77.162,66.766z"/>
	</g>
	
		<text transform="matrix(1 0 0 1 145.917 163.748)" fill="#595757" stroke="#FFFFFF" stroke-width="2" stroke-miterlimit="10" font-family="'Adobe Fan Heiti Std', Helvetica, Arial, Verdana, sans-serif" font-size="72.0295">T</text>
	
		<rect x="0.737" y="23.475" display="none" fill="none" stroke="#000000" stroke-miterlimit="10" width="318.525" height="368.484"/>
</g>
</svg>
