<?xml version="1.0" encoding="utf-8"?>
<!-- Generator: Adobe Illustrator 16.0.0, SVG Export Plug-In . SVG Version: 6.00 Build 0)  -->
<!DOCTYPE svg PUBLIC "-//W3C//DTD SVG 1.1//EN" "http://www.w3.org/Graphics/SVG/1.1/DTD/svg11.dtd">
<svg version="1.1" id="圖層_1" xmlns="http://www.w3.org/2000/svg" xmlns:xlink="http://www.w3.org/1999/xlink" x="0px" y="0px"
	 width="320px" height="320px" viewBox="0 0 320 320" enable-background="new 0 0 320 320" xml:space="preserve">
<g>
	<rect x="221.685" y="134.682" fill="#231815" width="13.67" height="40.396"/>
	<polygon fill="#231815" points="205.498,146.189 228.519,123.177 251.54,146.189 	"/>
</g>
<path fill="#231815" d="M251.359,236.203c-2.563-5.875-0.459-27.833-1.281-26.075c-2.563,5.507-5.758,6.923-11.604,12.004
	c0.031-4.847-3.713-25.647-9.518-30.854c1.843,28.767-6.973,33.332-6.973,33.332s-9.366-13.748-11.577-13.269
	c2.211,6.868,1.655,13.269-3.482,19.927c-4.448,5.758-10.466,10.147-8.866,21.354c2.07,14.623,20.965,17.973,20.965,17.973
	C253.225,275.468,257.971,251.309,251.359,236.203z M221.417,268.333c0,0-18.75-2.333-20.417-17.583
	c-0.649-4.55,2.055-10.591,5.584-15.167c4.098-5.305,9.084-13.444,7.333-18.916c2.142,1.584,7.833,11.25,7.833,11.25
	s9.584-5.917,10.084-28.417c3.094,9.311,5.369,22.64,5.333,26.5c4.25-4.917,8.785-5.618,10.833-10c0.642-1.398-2.25,13,1.583,20.917
	C254.917,250.25,250.25,272.417,221.417,268.333z"/>
<path fill="#231815" d="M238.72,249.498c-0.71-3.365,2.781-14.678,2.158-13.843c-1.944,2.615-3.778,3.014-7.402,5.049
	c0.543-2.544,0.833-13.882-1.651-17.249c-2.155,15.318-7.283,16.761-7.283,16.761s-3.43-8.242-4.645-8.23
	c0.417,3.85-0.57,7.152-3.993,10.095c-2.963,2.543-6.603,4.196-6.979,10.26c-0.499,7.91,9.067,11.722,9.067,11.722
	C235.437,270.336,240.554,258.154,238.72,249.498z M219.875,262.875c0,0-9.423-3.2-8.688-10.938
	c0.145-2.323,1.654-4.654,3.875-6.563c2.577-2.213,6.633-5.568,6.324-8.463c0.9,1.005,2.734,6.385,2.734,6.385
	s5.362-1.953,7.917-13.066c0.579,4.937-0.063,11.608-0.476,13.52c2.612-2.004,5.34-1.711,6.805-3.675
	c0.462-0.628-2.449,6.22-1.358,10.541C238.289,257.778,233.763,267.857,219.875,262.875z"/>
<g>
	<path fill="#231815" d="M94.399,148.073c0,0,18.895-3.35,20.965-17.973c1.6-11.207-4.418-15.597-8.866-21.354
		c-5.138-6.658-5.693-13.059-3.482-19.927c-2.211-0.479-11.577,13.269-11.577,13.269s-8.815-4.565-6.973-33.332
		c-5.805,5.207-9.549,26.008-9.518,30.854c-5.846-5.081-9.041-6.497-11.604-12.004c-0.822-1.758,1.282,20.2-1.281,26.075
		C55.452,128.787,60.198,152.946,94.399,148.073z M63.839,114.396c3.833-7.917,0.941-22.315,1.583-20.917
		c2.048,4.382,6.583,5.083,10.833,10c-0.036-3.86,2.239-17.189,5.333-26.5c0.5,22.5,10.084,28.417,10.084,28.417
		s5.691-9.666,7.833-11.25c-1.751,5.472,3.235,13.611,7.333,18.916c3.529,4.576,6.233,10.617,5.584,15.167
		c-1.667,15.25-20.417,17.583-20.417,17.583C63.172,149.896,58.505,127.729,63.839,114.396z"/>
	<path fill="#231815" d="M95.43,141.54c0,0,9.566-3.812,9.067-11.722c-0.376-6.063-4.016-7.717-6.979-10.26
		c-3.423-2.942-4.41-6.245-3.993-10.095c-1.215-0.012-4.645,8.23-4.645,8.23s-5.128-1.442-7.283-16.761
		c-2.484,3.367-2.194,14.705-1.651,17.249c-3.624-2.035-5.458-2.434-7.402-5.049c-0.623-0.835,2.868,10.478,2.158,13.843
		C72.869,135.633,77.986,147.814,95.43,141.54z M76.414,128.095c1.091-4.321-1.82-11.169-1.358-10.541
		c1.465,1.964,4.192,1.671,6.805,3.675c-0.413-1.911-1.055-8.583-0.476-13.52c2.555,11.113,7.917,13.066,7.917,13.066
		s1.834-5.38,2.734-6.385c-0.309,2.895,3.747,6.25,6.324,8.463c2.221,1.908,3.73,4.239,3.875,6.563
		c0.735,7.737-8.688,10.938-8.688,10.938C79.66,145.336,75.133,135.257,76.414,128.095z"/>
</g>
<path fill="#FFFFFF" d="M168.092,235.055c0,2.094-1.699,3.782-3.787,3.782c-2.103,0-3.799-1.688-3.799-3.782
	c0-2.102,1.696-3.796,3.799-3.796C166.393,231.259,168.092,232.953,168.092,235.055z"/>
<g>
	<g>
		<path fill="none" stroke="#000000" stroke-width="2" stroke-miterlimit="10" d="M186.695,242.807
			c0,15.459-12.532,27.994-27.988,27.994l0,0c-15.465,0-28-12.535-28-27.994V83.547c0-15.468,12.535-27.997,28-27.997l0,0
			c15.456,0,27.988,12.528,27.988,27.997V242.807z"/>
		<path d="M174.904,241.166c0,8.949-7.25,16.21-16.201,16.21l0,0c-8.945,0-16.205-7.261-16.205-16.21l0,0
			c0-8.947,7.26-16.202,16.205-16.202l0,0C167.654,224.964,174.904,232.219,174.904,241.166L174.904,241.166z"/>
		<path d="M164.305,227.991c0,3.095-2.506,5.603-5.597,5.603l0,0c-3.101,0-5.607-2.508-5.607-5.603V81.821
			c0-3.093,2.507-5.596,5.607-5.596l0,0c3.091,0,5.597,2.503,5.597,5.596V227.991z"/>
		<line fill="none" stroke="#000000" stroke-width="2" stroke-miterlimit="10" x1="174.904" y1="94.743" x2="186.695" y2="94.743"/>
		
			<line fill="none" stroke="#000000" stroke-width="2" stroke-miterlimit="10" x1="174.904" y1="103.354" x2="186.695" y2="103.354"/>
		
			<line fill="none" stroke="#000000" stroke-width="2" stroke-miterlimit="10" x1="174.904" y1="111.974" x2="186.695" y2="111.974"/>
		
			<line fill="none" stroke="#000000" stroke-width="2" stroke-miterlimit="10" x1="174.904" y1="120.587" x2="186.695" y2="120.587"/>
		
			<line fill="none" stroke="#000000" stroke-width="2" stroke-miterlimit="10" x1="174.904" y1="129.202" x2="186.695" y2="129.202"/>
		
			<line fill="none" stroke="#000000" stroke-width="2" stroke-miterlimit="10" x1="174.904" y1="137.818" x2="186.695" y2="137.818"/>
		
			<line fill="none" stroke="#000000" stroke-width="2" stroke-miterlimit="10" x1="174.904" y1="146.436" x2="186.695" y2="146.436"/>
		
			<line fill="none" stroke="#000000" stroke-width="2" stroke-miterlimit="10" x1="174.904" y1="155.052" x2="186.695" y2="155.052"/>
		<line fill="none" stroke="#000000" stroke-width="2" stroke-miterlimit="10" x1="174.904" y1="163.67" x2="186.695" y2="163.67"/>
		
			<line fill="none" stroke="#000000" stroke-width="2" stroke-miterlimit="10" x1="174.904" y1="172.285" x2="186.695" y2="172.285"/>
		
			<line fill="none" stroke="#000000" stroke-width="2" stroke-miterlimit="10" x1="174.904" y1="180.905" x2="186.695" y2="180.905"/>
		<line fill="none" stroke="#000000" stroke-width="2" stroke-miterlimit="10" x1="174.904" y1="189.52" x2="186.695" y2="189.52"/>
		
			<line fill="none" stroke="#000000" stroke-width="2" stroke-miterlimit="10" x1="174.904" y1="198.139" x2="186.695" y2="198.139"/>
		
			<line fill="none" stroke="#000000" stroke-width="2" stroke-miterlimit="10" x1="174.904" y1="206.752" x2="186.695" y2="206.752"/>
		
			<line fill="none" stroke="#000000" stroke-width="2" stroke-miterlimit="10" x1="174.904" y1="215.367" x2="186.695" y2="215.367"/>
	</g>
	<path fill="#FFFFFF" d="M168.092,235.055c0,2.094-1.699,3.782-3.787,3.782c-2.103,0-3.799-1.688-3.799-3.782
		c0-2.102,1.696-3.796,3.799-3.796C166.393,231.259,168.092,232.953,168.092,235.055z"/>
</g>
</svg>
