<?xml version="1.0" encoding="utf-8"?>
<!-- Generator: Adobe Illustrator 16.0.0, SVG Export Plug-In . SVG Version: 6.00 Build 0)  -->
<!DOCTYPE svg PUBLIC "-//W3C//DTD SVG 1.1//EN" "http://www.w3.org/Graphics/SVG/1.1/DTD/svg11.dtd">
<svg version="1.1" id="圖層_1" xmlns="http://www.w3.org/2000/svg" xmlns:xlink="http://www.w3.org/1999/xlink" x="0px" y="0px"
	 width="800px" height="226.83px" viewBox="0 0 800 226.83" enable-background="new 0 0 800 226.83" xml:space="preserve">
<g>
	<g>
		<g>
			<circle fill="#B2C1D8" stroke="#304068" stroke-width="4" stroke-miterlimit="10" cx="385.362" cy="123.952" r="91.594"/>
			<circle fill="#B2C1D8" stroke="#304068" stroke-width="4" stroke-miterlimit="10" cx="385.363" cy="123.952" r="66.678"/>
			<g>
				<circle fill="#B2C1D8" stroke="#304068" stroke-width="4" stroke-miterlimit="10" cx="384.61" cy="89.026" r="28.865"/>
				<circle fill="#B2C1D8" stroke="#304068" stroke-width="4" stroke-miterlimit="10" cx="384.61" cy="89.026" r="17.746"/>
			</g>
			<g>
				<circle fill="#B2C1D8" stroke="#304068" stroke-width="4" stroke-miterlimit="10" cx="355.745" cy="143.931" r="28.865"/>
				<circle fill="#B2C1D8" stroke="#304068" stroke-width="4" stroke-miterlimit="10" cx="355.746" cy="143.931" r="17.746"/>
			</g>
			<g>
				<circle fill="#B2C1D8" stroke="#304068" stroke-width="4" stroke-miterlimit="10" cx="413.475" cy="145.663" r="28.865"/>
				<circle fill="#B2C1D8" stroke="#304068" stroke-width="4" stroke-miterlimit="10" cx="413.475" cy="145.663" r="17.745"/>
			</g>
		</g>
	</g>
	<polyline fill="none" stroke="#304068" stroke-width="2" stroke-miterlimit="10" points="427.672,57.276 491.426,16.238 
		759.836,16.238 	"/>
	<polyline fill="none" stroke="#304068" stroke-width="2" stroke-miterlimit="10" points="355.745,84.574 263.381,29.976 
		39.196,29.976 	"/>
	<g>
		<rect x="36.98" y="47.073" fill="none" width="243.416" height="150.606"/>
		<g enable-background="new    ">
			<path fill="#304068" d="M38.781,49.664h2.61v17.218h-2.61V49.664z"/>
			<path fill="#304068" d="M55.076,66.882h-2.611v-7.27c0-1.756-0.585-3.241-2.363-3.241c-1.283,0-2.656,1.058-2.656,3.038v7.473
				h-2.611v-8.913c0-1.372-0.045-2.431-0.09-3.488h2.273l0.135,1.846h0.067c0.585-1.058,1.891-2.115,3.759-2.115
				c1.936,0,4.096,1.26,4.096,5.086V66.882z"/>
			<path fill="#304068" d="M68.604,66.882h-2.611v-7.27c0-1.756-0.585-3.241-2.363-3.241c-1.283,0-2.656,1.058-2.656,3.038v7.473
				h-2.611v-8.913c0-1.372-0.045-2.431-0.09-3.488h2.273l0.135,1.846h0.067c0.585-1.058,1.891-2.115,3.759-2.115
				c1.936,0,4.096,1.26,4.096,5.086V66.882z"/>
			<path fill="#304068" d="M80.96,66.387c-0.878,0.405-2.251,0.743-3.939,0.743c-3.736,0-5.896-2.499-5.896-6.28
				c0-3.69,2.07-6.639,5.582-6.639c3.489,0,4.884,2.903,4.884,5.964c0,0.428-0.022,0.788-0.067,1.103h-7.877
				c0.068,2.791,1.801,3.849,3.759,3.849c1.373,0,2.318-0.247,3.128-0.585L80.96,66.387z M79.115,59.409
				c0.022-1.485-0.585-3.33-2.588-3.33c-1.913,0-2.723,1.89-2.858,3.33H79.115z"/>
			<path fill="#304068" d="M90.347,56.776c-0.225-0.045-0.473-0.067-0.765-0.067c-1.756,0-2.858,1.44-2.858,3.601v6.572h-2.611
				v-8.62c0-1.44-0.022-2.633-0.09-3.781h2.273l0.09,2.273h0.09c0.563-1.575,1.868-2.543,3.218-2.543
				c0.248,0,0.428,0.022,0.653,0.067V56.776z"/>
			<path fill="#304068" d="M113.417,54.48l-3.759,12.401h-2.363l-1.598-5.491c-0.382-1.306-0.652-2.499-0.922-3.962h-0.068
				c-0.248,1.485-0.585,2.746-0.968,3.984l-1.688,5.469h-2.363L96.132,54.48h2.701l1.373,5.942c0.292,1.327,0.585,2.655,0.81,3.961
				h0.045c0.248-1.283,0.63-2.656,0.99-3.938l1.71-5.965h2.138l1.621,5.829c0.383,1.44,0.72,2.769,0.968,4.074h0.067
				c0.203-1.283,0.495-2.611,0.833-4.052l1.44-5.852H113.417z"/>
			<path fill="#304068" d="M116.726,52.567c-0.9,0-1.508-0.675-1.508-1.508c0-0.878,0.63-1.53,1.53-1.53
				c0.9,0,1.508,0.652,1.508,1.53C118.256,51.893,117.671,52.567,116.726,52.567z M118.031,66.882h-2.611V54.458h2.611V66.882z"/>
			<path fill="#304068" d="M127.62,56.776c-0.225-0.045-0.473-0.067-0.765-0.067c-1.756,0-2.858,1.44-2.858,3.601v6.572h-2.611
				v-8.62c0-1.44-0.022-2.633-0.09-3.781h2.273l0.09,2.273h0.09c0.563-1.575,1.868-2.543,3.218-2.543
				c0.248,0,0.428,0.022,0.653,0.067V56.776z"/>
			<path fill="#304068" d="M138.716,66.387c-0.878,0.405-2.251,0.743-3.939,0.743c-3.736,0-5.896-2.499-5.896-6.28
				c0-3.69,2.07-6.639,5.582-6.639c3.489,0,4.884,2.903,4.884,5.964c0,0.428-0.022,0.788-0.067,1.103h-7.877
				c0.068,2.791,1.801,3.849,3.759,3.849c1.373,0,2.318-0.247,3.128-0.585L138.716,66.387z M136.87,59.409
				c0.022-1.485-0.585-3.33-2.588-3.33c-1.913,0-2.723,1.89-2.858,3.33H136.87z"/>
			<path fill="#304068" d="M156.992,63.326c0,1.396,0.067,2.565,0.112,3.556h-2.295l-0.135-1.801h-0.067
				c-0.518,0.855-1.733,2.049-3.736,2.049c-2.138,0-4.006-1.328-4.006-5.289v-7.383h2.611v6.955c0,2.138,0.607,3.556,2.318,3.556
				c1.193,0,2.588-0.945,2.588-2.813V54.48h2.611V63.326z"/>
			<path fill="#304068" d="M166.513,56.821c-0.495-0.315-1.351-0.697-2.363-0.697c-1.17,0-1.801,0.675-1.801,1.508
				c0,0.855,0.563,1.282,2.071,1.936c2.048,0.832,3.128,1.958,3.128,3.759c0,2.386-1.823,3.804-4.636,3.804
				c-1.306,0-2.543-0.338-3.376-0.833l0.585-1.936c0.63,0.383,1.778,0.832,2.836,0.832c1.396,0,2.07-0.675,2.07-1.62
				s-0.518-1.463-2.003-2.093c-2.206-0.878-3.173-2.116-3.173-3.557c0-2.07,1.688-3.713,4.299-3.713c1.215,0,2.273,0.337,2.948,0.72
				L166.513,56.821z"/>
			<path fill="#304068" d="M179.163,66.387c-0.878,0.405-2.251,0.743-3.939,0.743c-3.736,0-5.896-2.499-5.896-6.28
				c0-3.69,2.07-6.639,5.582-6.639c3.489,0,4.884,2.903,4.884,5.964c0,0.428-0.022,0.788-0.067,1.103h-7.877
				c0.068,2.791,1.801,3.849,3.759,3.849c1.373,0,2.318-0.247,3.128-0.585L179.163,66.387z M177.317,59.409
				c0.022-1.485-0.585-3.33-2.588-3.33c-1.913,0-2.723,1.89-2.858,3.33H177.317z"/>
			<path fill="#304068" d="M188.481,56.821c-0.495-0.315-1.351-0.697-2.363-0.697c-1.17,0-1.801,0.675-1.801,1.508
				c0,0.855,0.563,1.282,2.071,1.936c2.048,0.832,3.128,1.958,3.128,3.759c0,2.386-1.823,3.804-4.636,3.804
				c-1.306,0-2.543-0.338-3.376-0.833l0.585-1.936c0.63,0.383,1.778,0.832,2.836,0.832c1.396,0,2.07-0.675,2.07-1.62
				s-0.518-1.463-2.003-2.093c-2.206-0.878-3.173-2.116-3.173-3.557c0-2.07,1.688-3.713,4.299-3.713c1.215,0,2.273,0.337,2.948,0.72
				L188.481,56.821z"/>
			<path fill="#304068" d="M206.623,66.882h-9.385V49.664h9.002v2.184h-6.392v4.974h6.032v2.161h-6.032v5.716h6.775V66.882z"/>
			<path fill="#304068" d="M219.519,51.893h-4.659v14.989h-2.611V51.893h-4.636v-2.229h11.906V51.893z"/>
			<path fill="#304068" d="M221.455,66.882V49.664h8.958v2.184h-6.347v5.312h5.897v2.16h-5.897v7.563H221.455z"/>
			<path fill="#304068" d="M242.725,66.882h-9.385V49.664h9.002v2.184h-6.392v4.974h6.032v2.161h-6.032v5.716h6.775V66.882z"/>
		</g>
		<g enable-background="new    ">
			<path fill="#304068" d="M55.661,95.721h-2.566v-7.09c0-2.07-0.675-3.443-2.25-3.443c-1.193,0-2.408,1.08-2.408,2.881v7.652
				h-2.566v-7.473c0-1.732-0.653-3.061-2.161-3.061c-1.17,0-2.498,1.058-2.498,3.016v7.518h-2.566v-8.913
				c0-1.395-0.045-2.431-0.09-3.488h2.25l0.135,1.823h0.068c0.607-1.035,1.733-2.093,3.624-2.093c1.575,0,2.768,0.877,3.286,2.272
				h0.045c0.833-1.373,2.048-2.272,3.826-2.272c1.845,0,3.871,1.26,3.871,5.176V95.721z"/>
			<path fill="#304068" d="M67.613,92.772c0,1.058,0.022,2.138,0.18,2.948H65.43l-0.18-1.44h-0.067
				c-0.698,0.968-1.913,1.688-3.466,1.688c-2.318,0-3.646-1.711-3.646-3.624c0-3.083,2.679-4.614,6.932-4.614
				c0-0.923,0-2.768-2.498-2.768c-1.103,0-2.228,0.337-3.016,0.854l-0.54-1.732c0.878-0.563,2.341-1.035,4.006-1.035
				c3.646,0,4.659,2.408,4.659,5.041V92.772z M65.07,89.486c-2.048,0-4.412,0.383-4.412,2.588c0,1.373,0.855,1.981,1.823,1.981
				c1.418,0,2.588-1.081,2.588-2.521V89.486z"/>
			<path fill="#304068" d="M71.417,81.068l2.588-0.81v3.061h2.948v1.958h-2.948v6.279c0,1.531,0.473,2.273,1.575,2.273
				c0.518,0,0.833-0.067,1.148-0.157l0.09,2.003c-0.45,0.18-1.148,0.293-2.026,0.293c-1.035,0-1.913-0.338-2.453-0.945
				c-0.63-0.676-0.923-1.711-0.923-3.331v-6.415h-1.755v-1.958h1.755V81.068z"/>
			<path fill="#304068" d="M88.275,95.226c-0.878,0.405-2.251,0.743-3.939,0.743c-3.736,0-5.896-2.499-5.896-6.28
				c0-3.69,2.07-6.639,5.582-6.639c3.489,0,4.884,2.903,4.884,5.964c0,0.428-0.022,0.788-0.067,1.103H80.96
				c0.068,2.791,1.801,3.849,3.759,3.849c1.373,0,2.318-0.247,3.128-0.585L88.275,95.226z M86.43,88.248
				c0.022-1.485-0.585-3.33-2.588-3.33c-1.913,0-2.723,1.89-2.858,3.33H86.43z"/>
			<path fill="#304068" d="M97.662,85.615c-0.225-0.045-0.473-0.067-0.765-0.067c-1.756,0-2.858,1.44-2.858,3.601v6.572h-2.611
				v-8.62c0-1.44-0.022-2.633-0.09-3.781h2.273l0.09,2.273h0.09c0.563-1.575,1.868-2.543,3.218-2.543
				c0.248,0,0.428,0.022,0.653,0.067V85.615z"/>
			<path fill="#304068" d="M100.993,81.406c-0.9,0-1.508-0.675-1.508-1.508c0-0.878,0.63-1.53,1.53-1.53
				c0.9,0,1.508,0.652,1.508,1.53C102.523,80.731,101.938,81.406,100.993,81.406z M102.298,95.721h-2.611V83.297h2.611V95.721z"/>
			<path fill="#304068" d="M114.339,92.772c0,1.058,0.022,2.138,0.18,2.948h-2.363l-0.18-1.44h-0.067
				c-0.698,0.968-1.913,1.688-3.466,1.688c-2.318,0-3.646-1.711-3.646-3.624c0-3.083,2.679-4.614,6.932-4.614
				c0-0.923,0-2.768-2.498-2.768c-1.103,0-2.228,0.337-3.016,0.854l-0.54-1.732c0.878-0.563,2.341-1.035,4.006-1.035
				c3.646,0,4.659,2.408,4.659,5.041V92.772z M111.796,89.486c-2.048,0-4.412,0.383-4.412,2.588c0,1.373,0.855,1.981,1.823,1.981
				c1.418,0,2.588-1.081,2.588-2.521V89.486z"/>
			<path fill="#304068" d="M120.237,95.721h-2.611V77.67h2.611V95.721z"/>
			<path fill="#304068" d="M126.674,92.232c-0.653,2.25-1.778,5.041-2.633,6.459l-1.801,0.181c0.63-1.711,1.306-4.412,1.598-6.393
				L126.674,92.232z"/>
			<path fill="#304068" d="M144.41,95.721h-2.611v-7.247c0-1.778-0.608-3.264-2.363-3.264c-1.283,0-2.656,1.058-2.656,2.926v7.585
				h-2.611V77.67h2.611v7.338h0.045c0.81-1.283,2.206-1.958,3.556-1.958c1.868,0,4.029,1.26,4.029,5.176V95.721z"/>
			<path fill="#304068" d="M156.384,92.772c0,1.058,0.022,2.138,0.18,2.948h-2.363l-0.18-1.44h-0.067
				c-0.698,0.968-1.913,1.688-3.466,1.688c-2.318,0-3.646-1.711-3.646-3.624c0-3.083,2.679-4.614,6.932-4.614
				c0-0.923,0-2.768-2.498-2.768c-1.103,0-2.228,0.337-3.016,0.854l-0.54-1.732c0.878-0.563,2.341-1.035,4.006-1.035
				c3.646,0,4.659,2.408,4.659,5.041V92.772z M153.841,89.486c-2.048,0-4.412,0.383-4.412,2.588c0,1.373,0.855,1.981,1.823,1.981
				c1.418,0,2.588-1.081,2.588-2.521V89.486z"/>
			<path fill="#304068" d="M165.838,85.66c-0.495-0.315-1.351-0.697-2.363-0.697c-1.17,0-1.801,0.675-1.801,1.508
				c0,0.855,0.563,1.282,2.071,1.936c2.048,0.832,3.128,1.958,3.128,3.759c0,2.386-1.823,3.804-4.636,3.804
				c-1.306,0-2.543-0.338-3.376-0.833l0.585-1.936c0.63,0.383,1.778,0.832,2.836,0.832c1.396,0,2.07-0.675,2.07-1.62
				s-0.518-1.463-2.003-2.093c-2.206-0.878-3.173-2.116-3.173-3.557c0-2.07,1.688-3.713,4.299-3.713c1.215,0,2.273,0.337,2.948,0.72
				L165.838,85.66z"/>
			<path fill="#304068" d="M183.529,95.226c-0.878,0.405-2.251,0.743-3.939,0.743c-3.736,0-5.896-2.499-5.896-6.28
				c0-3.69,2.07-6.639,5.582-6.639c3.489,0,4.884,2.903,4.884,5.964c0,0.428-0.022,0.788-0.067,1.103h-7.877
				c0.068,2.791,1.801,3.849,3.759,3.849c1.373,0,2.318-0.247,3.128-0.585L183.529,95.226z M181.684,88.248
				c0.022-1.485-0.585-3.33-2.588-3.33c-1.913,0-2.723,1.89-2.858,3.33H181.684z"/>
			<path fill="#304068" d="M196.201,83.319l-3.894,5.987l3.961,6.414h-2.948l-1.531-2.656c-0.382-0.675-0.743-1.327-1.103-2.07
				h-0.045c-0.36,0.721-0.72,1.373-1.125,2.094l-1.463,2.633h-2.836l4.006-6.302l-3.849-6.1h2.881l1.486,2.498
				c0.405,0.698,0.743,1.328,1.103,2.004h0.045c0.36-0.698,0.72-1.373,1.081-2.026l1.418-2.476H196.201z"/>
			<path fill="#304068" d="M198.7,81.068l2.588-0.81v3.061h2.948v1.958h-2.948v6.279c0,1.531,0.473,2.273,1.575,2.273
				c0.518,0,0.833-0.067,1.148-0.157l0.09,2.003c-0.45,0.18-1.148,0.293-2.026,0.293c-1.035,0-1.913-0.338-2.453-0.945
				c-0.63-0.676-0.923-1.711-0.923-3.331v-6.415h-1.755v-1.958h1.755V81.068z"/>
			<path fill="#304068" d="M212.722,85.615c-0.225-0.045-0.473-0.067-0.765-0.067c-1.756,0-2.858,1.44-2.858,3.601v6.572h-2.611
				v-8.62c0-1.44-0.022-2.633-0.09-3.781h2.273l0.09,2.273h0.09c0.563-1.575,1.868-2.543,3.218-2.543
				c0.248,0,0.428,0.022,0.653,0.067V85.615z"/>
			<path fill="#304068" d="M223.818,95.226c-0.878,0.405-2.251,0.743-3.939,0.743c-3.736,0-5.896-2.499-5.896-6.28
				c0-3.69,2.07-6.639,5.582-6.639c3.489,0,4.884,2.903,4.884,5.964c0,0.428-0.022,0.788-0.067,1.103h-7.877
				c0.068,2.791,1.801,3.849,3.759,3.849c1.373,0,2.318-0.247,3.128-0.585L223.818,95.226z M221.972,88.248
				c0.022-1.485-0.585-3.33-2.588-3.33c-1.913,0-2.723,1.89-2.858,3.33H221.972z"/>
			<path fill="#304068" d="M243.985,95.721h-2.566v-7.09c0-2.07-0.675-3.443-2.25-3.443c-1.193,0-2.408,1.08-2.408,2.881v7.652
				h-2.566v-7.473c0-1.732-0.653-3.061-2.161-3.061c-1.17,0-2.498,1.058-2.498,3.016v7.518h-2.566v-8.913
				c0-1.395-0.045-2.431-0.09-3.488h2.25l0.135,1.823h0.067c0.607-1.035,1.733-2.093,3.624-2.093c1.575,0,2.768,0.877,3.286,2.272
				h0.045c0.833-1.373,2.048-2.272,3.826-2.272c1.845,0,3.871,1.26,3.871,5.176V95.721z"/>
			<path fill="#304068" d="M256.319,95.226c-0.878,0.405-2.251,0.743-3.939,0.743c-3.736,0-5.896-2.499-5.896-6.28
				c0-3.69,2.07-6.639,5.582-6.639c3.489,0,4.884,2.903,4.884,5.964c0,0.428-0.022,0.788-0.067,1.103h-7.877
				c0.068,2.791,1.801,3.849,3.759,3.849c1.373,0,2.318-0.247,3.128-0.585L256.319,95.226z M254.474,88.248
				c0.022-1.485-0.585-3.33-2.588-3.33c-1.913,0-2.723,1.89-2.858,3.33H254.474z"/>
			<path fill="#304068" d="M262.082,95.721h-2.611V77.67h2.611V95.721z"/>
			<path fill="#304068" d="M275.226,83.319l-2.994,8.598c-1.463,4.074-2.498,6.369-3.983,7.81c-1.125,1.035-2.273,1.463-2.881,1.599
				l-0.675-2.206c2.701-0.968,3.668-3.488,3.668-3.826c0-0.135-0.022-0.293-0.135-0.54l-4.254-11.434h2.858l2.25,6.978
				c0.248,0.81,0.495,1.755,0.675,2.476h0.067c0.18-0.721,0.428-1.644,0.653-2.476l2.003-6.978H275.226z"/>
		</g>
		<g enable-background="new    ">
			<path fill="#304068" d="M48.999,121.251c0,1.125,0.045,2.453,0.09,3.309h-2.295l-0.135-1.936h-0.067
				c-0.653,1.261-2.003,2.184-3.759,2.184c-2.813,0-4.951-2.499-4.951-6.325c0-4.208,2.408-6.594,5.176-6.594
				c1.598,0,2.746,0.72,3.286,1.665h0.045v-7.045h2.611V121.251z M46.388,117.178c0-2.026-1.283-3.219-2.746-3.219
				c-2.003,0-3.106,1.98-3.106,4.434c0,2.431,1.08,4.299,3.061,4.299c1.688,0,2.791-1.485,2.791-3.219V117.178z"/>
			<path fill="#304068" d="M62.414,121.004c0,1.396,0.067,2.565,0.112,3.556H60.23l-0.135-1.801h-0.067
				c-0.518,0.855-1.733,2.049-3.736,2.049c-2.138,0-4.006-1.328-4.006-5.289v-7.383h2.611v6.955c0,2.138,0.607,3.556,2.318,3.556
				c1.193,0,2.588-0.945,2.588-2.813v-7.675h2.611V121.004z"/>
			<path fill="#304068" d="M72.002,114.454c-0.225-0.045-0.473-0.067-0.765-0.067c-1.756,0-2.858,1.44-2.858,3.601v6.572h-2.611
				v-8.62c0-1.44-0.022-2.633-0.09-3.781h2.273l0.09,2.273h0.09c0.563-1.575,1.868-2.543,3.218-2.543
				c0.248,0,0.428,0.022,0.653,0.067V114.454z"/>
			<path fill="#304068" d="M82.715,121.611c0,1.058,0.022,2.138,0.18,2.948h-2.363l-0.18-1.44h-0.067
				c-0.698,0.968-1.913,1.688-3.466,1.688c-2.318,0-3.646-1.711-3.646-3.624c0-3.083,2.679-4.614,6.932-4.614
				c0-0.923,0-2.768-2.498-2.768c-1.103,0-2.228,0.337-3.016,0.854l-0.54-1.732c0.878-0.563,2.341-1.035,4.006-1.035
				c3.646,0,4.659,2.408,4.659,5.041V121.611z M80.172,118.325c-2.048,0-4.412,0.383-4.412,2.588c0,1.373,0.855,1.981,1.823,1.981
				c1.418,0,2.588-1.081,2.588-2.521V118.325z"/>
			<path fill="#304068" d="M88.658,113.892c0.743-1.261,2.025-2.003,3.759-2.003c2.835,0,4.794,2.498,4.794,6.279
				c0,4.523-2.633,6.64-5.199,6.64c-1.598,0-2.836-0.653-3.668-2.116h-0.068l-0.135,1.868h-2.228c0.045-0.833,0.09-2.184,0.09-3.309
				v-14.742h2.611v7.383H88.658z M88.613,119.653c0,1.575,1.125,3.061,2.836,3.061c2.003,0,3.106-1.778,3.106-4.434
				c0-2.341-1.013-4.299-3.083-4.299c-1.643,0-2.858,1.598-2.858,3.241V119.653z"/>
			<path fill="#304068" d="M102.388,124.56h-2.611v-18.051h2.611V124.56z"/>
			<path fill="#304068" d="M114.79,124.064c-0.878,0.405-2.251,0.743-3.939,0.743c-3.736,0-5.896-2.499-5.896-6.28
				c0-3.69,2.07-6.639,5.582-6.639c3.489,0,4.884,2.903,4.884,5.964c0,0.428-0.022,0.788-0.067,1.103h-7.877
				c0.068,2.791,1.801,3.849,3.759,3.849c1.373,0,2.318-0.247,3.128-0.585L114.79,124.064z M112.944,117.087
				c0.022-1.485-0.585-3.33-2.588-3.33c-1.913,0-2.723,1.89-2.858,3.33H112.944z"/>
			<path fill="#304068" d="M131.333,124.177c-0.585,0.271-1.756,0.631-3.196,0.631c-3.578,0-5.919-2.454-5.919-6.325
				c0-3.758,2.431-6.594,6.414-6.594c1.193,0,2.229,0.292,2.769,0.563l-0.518,2.003c-0.45-0.226-1.17-0.495-2.228-0.495
				c-2.431,0-3.781,1.98-3.781,4.411c0,2.724,1.598,4.344,3.758,4.344c1.036,0,1.756-0.247,2.341-0.495L131.333,124.177z"/>
			<path fill="#304068" d="M144.365,118.258c0,4.637-3.016,6.55-5.807,6.55c-3.218,0-5.671-2.363-5.671-6.37
				c0-4.186,2.565-6.549,5.852-6.549C142.137,111.889,144.365,114.454,144.365,118.258z M138.648,113.847
				c-2.229,0-3.083,2.386-3.083,4.523c0,2.431,1.148,4.479,3.061,4.479c1.89,0,3.061-2.048,3.061-4.523
				C141.687,116.277,140.832,113.847,138.648,113.847z"/>
			<path fill="#304068" d="M156.879,112.158l-4.456,12.401h-2.499l-4.344-12.401h2.813l2.025,6.595
				c0.338,1.08,0.608,2.115,0.833,3.15h0.067c0.225-1.035,0.518-2.048,0.833-3.128l2.003-6.617H156.879z"/>
			<path fill="#304068" d="M167.886,124.064c-0.878,0.405-2.251,0.743-3.939,0.743c-3.736,0-5.896-2.499-5.896-6.28
				c0-3.69,2.07-6.639,5.582-6.639c3.489,0,4.884,2.903,4.884,5.964c0,0.428-0.022,0.788-0.067,1.103h-7.877
				c0.068,2.791,1.801,3.849,3.759,3.849c1.373,0,2.318-0.247,3.128-0.585L167.886,124.064z M166.04,117.087
				c0.022-1.485-0.585-3.33-2.588-3.33c-1.913,0-2.723,1.89-2.858,3.33H166.04z"/>
			<path fill="#304068" d="M177.272,114.454c-0.225-0.045-0.473-0.067-0.765-0.067c-1.756,0-2.858,1.44-2.858,3.601v6.572h-2.611
				v-8.62c0-1.44-0.022-2.633-0.09-3.781h2.273l0.09,2.273h0.09c0.563-1.575,1.868-2.543,3.218-2.543
				c0.248,0,0.428,0.022,0.653,0.067V114.454z"/>
			<path fill="#304068" d="M182.404,121.071c-0.653,2.25-1.778,5.041-2.633,6.459l-1.801,0.181c0.63-1.711,1.306-4.412,1.598-6.393
				L182.404,121.071z"/>
			<path fill="#304068" d="M205.901,112.158l-3.759,12.401h-2.363l-1.598-5.491c-0.382-1.306-0.652-2.499-0.922-3.962h-0.068
				c-0.248,1.485-0.585,2.746-0.968,3.984l-1.688,5.469h-2.363l-3.556-12.401h2.701l1.373,5.942c0.292,1.327,0.585,2.655,0.81,3.961
				h0.045c0.248-1.283,0.63-2.656,0.99-3.938l1.71-5.965h2.138l1.621,5.829c0.383,1.44,0.72,2.769,0.968,4.074h0.067
				c0.203-1.283,0.495-2.611,0.833-4.052l1.44-5.852H205.901z"/>
			<path fill="#304068" d="M209.21,110.245c-0.9,0-1.508-0.675-1.508-1.508c0-0.878,0.63-1.53,1.53-1.53
				c0.9,0,1.508,0.652,1.508,1.53C210.741,109.57,210.156,110.245,209.21,110.245z M210.516,124.56h-2.611v-12.424h2.611V124.56z"/>
			<path fill="#304068" d="M214.387,109.907l2.588-0.81v3.061h2.948v1.958h-2.948v6.279c0,1.531,0.473,2.273,1.575,2.273
				c0.518,0,0.833-0.067,1.148-0.157l0.09,2.003c-0.45,0.18-1.148,0.293-2.026,0.293c-1.035,0-1.913-0.338-2.453-0.945
				c-0.63-0.676-0.923-1.711-0.923-3.331v-6.415h-1.755v-1.958h1.755V109.907z"/>
			<path fill="#304068" d="M232.416,124.56h-2.611v-7.247c0-1.778-0.608-3.264-2.363-3.264c-1.283,0-2.656,1.058-2.656,2.926v7.585
				h-2.611v-18.051h2.611v7.338h0.045c0.81-1.283,2.206-1.958,3.556-1.958c1.868,0,4.029,1.26,4.029,5.176V124.56z"/>
		</g>
		<g enable-background="new    ">
			<path fill="#304068" d="M48.999,140.997c-0.067,0.878-0.112,1.913-0.112,3.579v7.066c0,2.477-0.203,7.045-6.077,7.045
				c-1.44,0-2.948-0.315-3.916-0.9l0.585-2.025c0.766,0.45,1.958,0.878,3.354,0.878c2.026,0,3.466-1.126,3.466-3.938v-1.193h-0.045
				c-0.63,1.058-1.846,1.823-3.444,1.823c-2.926,0-4.929-2.589-4.929-6.055c0-4.209,2.543-6.549,5.244-6.549
				c1.845,0,2.881,0.945,3.398,1.936h0.045l0.112-1.666H48.999z M46.276,145.791c0-1.643-1.081-2.993-2.678-2.993
				c-1.801,0-3.061,1.71-3.061,4.366c0,2.431,1.103,4.164,3.038,4.164c1.351,0,2.701-1.035,2.701-3.106V145.791z"/>
			<path fill="#304068" d="M58.453,143.293c-0.225-0.045-0.473-0.067-0.765-0.067c-1.756,0-2.858,1.44-2.858,3.601v6.572h-2.611
				v-8.62c0-1.44-0.022-2.633-0.09-3.781h2.273l0.09,2.273h0.09c0.563-1.575,1.868-2.543,3.218-2.543
				c0.248,0,0.428,0.022,0.653,0.067V143.293z"/>
			<path fill="#304068" d="M69.549,152.903c-0.878,0.405-2.251,0.743-3.939,0.743c-3.736,0-5.896-2.499-5.896-6.28
				c0-3.69,2.07-6.639,5.582-6.639c3.489,0,4.884,2.903,4.884,5.964c0,0.428-0.022,0.788-0.067,1.103h-7.877
				c0.068,2.791,1.801,3.849,3.759,3.849c1.373,0,2.318-0.247,3.128-0.585L69.549,152.903z M67.703,145.926
				c0.022-1.485-0.585-3.33-2.588-3.33c-1.913,0-2.723,1.89-2.858,3.33H67.703z"/>
			<path fill="#304068" d="M81.388,150.45c0,1.058,0.022,2.138,0.18,2.948h-2.363l-0.18-1.44h-0.067
				c-0.698,0.968-1.913,1.688-3.466,1.688c-2.318,0-3.646-1.711-3.646-3.624c0-3.083,2.679-4.614,6.932-4.614
				c0-0.923,0-2.768-2.498-2.768c-1.103,0-2.228,0.337-3.016,0.854l-0.54-1.732c0.878-0.563,2.341-1.035,4.006-1.035
				c3.646,0,4.659,2.408,4.659,5.041V150.45z M78.845,147.164c-2.048,0-4.412,0.383-4.412,2.588c0,1.373,0.855,1.981,1.823,1.981
				c1.418,0,2.588-1.081,2.588-2.521V147.164z"/>
			<path fill="#304068" d="M85.192,138.746l2.588-0.81v3.061h2.948v1.958h-2.948v6.279c0,1.531,0.473,2.273,1.575,2.273
				c0.518,0,0.833-0.067,1.148-0.157l0.09,2.003c-0.45,0.18-1.148,0.293-2.026,0.293c-1.035,0-1.913-0.338-2.453-0.945
				c-0.63-0.676-0.923-1.711-0.923-3.331v-6.415h-1.755v-1.958h1.755V138.746z"/>
			<path fill="#304068" d="M106.372,153.016c-0.585,0.271-1.756,0.631-3.196,0.631c-3.578,0-5.919-2.454-5.919-6.325
				c0-3.758,2.431-6.594,6.414-6.594c1.193,0,2.229,0.292,2.769,0.563l-0.518,2.003c-0.45-0.226-1.17-0.495-2.228-0.495
				c-2.431,0-3.781,1.98-3.781,4.411c0,2.724,1.598,4.344,3.758,4.344c1.036,0,1.756-0.247,2.341-0.495L106.372,153.016z"/>
			<path fill="#304068" d="M118.954,153.398h-2.611v-7.247c0-1.778-0.608-3.264-2.363-3.264c-1.283,0-2.656,1.058-2.656,2.926v7.585
				h-2.611v-18.051h2.611v7.338h0.045c0.81-1.283,2.206-1.958,3.556-1.958c1.868,0,4.029,1.26,4.029,5.176V153.398z"/>
			<path fill="#304068" d="M131.311,152.903c-0.878,0.405-2.251,0.743-3.939,0.743c-3.736,0-5.896-2.499-5.896-6.28
				c0-3.69,2.07-6.639,5.582-6.639c3.489,0,4.884,2.903,4.884,5.964c0,0.428-0.022,0.788-0.067,1.103h-7.877
				c0.068,2.791,1.801,3.849,3.759,3.849c1.373,0,2.318-0.247,3.128-0.585L131.311,152.903z M129.465,145.926
				c0.022-1.485-0.585-3.33-2.588-3.33c-1.913,0-2.723,1.89-2.858,3.33H129.465z"/>
			<path fill="#304068" d="M151.478,153.398h-2.566v-7.09c0-2.07-0.675-3.443-2.25-3.443c-1.193,0-2.408,1.08-2.408,2.881v7.652
				h-2.566v-7.473c0-1.732-0.653-3.061-2.161-3.061c-1.17,0-2.498,1.058-2.498,3.016v7.518h-2.566v-8.913
				c0-1.395-0.045-2.431-0.09-3.488h2.25l0.135,1.823h0.068c0.607-1.035,1.733-2.093,3.624-2.093c1.575,0,2.768,0.877,3.286,2.272
				h0.045c0.833-1.373,2.048-2.272,3.826-2.272c1.845,0,3.871,1.26,3.871,5.176V153.398z"/>
			<path fill="#304068" d="M156.047,139.084c-0.9,0-1.508-0.675-1.508-1.508c0-0.878,0.63-1.53,1.53-1.53
				c0.9,0,1.508,0.652,1.508,1.53C157.578,138.409,156.992,139.084,156.047,139.084z M157.353,153.398h-2.611v-12.424h2.611V153.398
				z"/>
			<path fill="#304068" d="M169.057,153.016c-0.585,0.271-1.756,0.631-3.196,0.631c-3.578,0-5.919-2.454-5.919-6.325
				c0-3.758,2.431-6.594,6.414-6.594c1.193,0,2.229,0.292,2.769,0.563l-0.518,2.003c-0.45-0.226-1.17-0.495-2.228-0.495
				c-2.431,0-3.781,1.98-3.781,4.411c0,2.724,1.598,4.344,3.758,4.344c1.036,0,1.756-0.247,2.341-0.495L169.057,153.016z"/>
			<path fill="#304068" d="M180.085,150.45c0,1.058,0.022,2.138,0.18,2.948h-2.363l-0.18-1.44h-0.067
				c-0.698,0.968-1.913,1.688-3.466,1.688c-2.318,0-3.646-1.711-3.646-3.624c0-3.083,2.679-4.614,6.932-4.614
				c0-0.923,0-2.768-2.498-2.768c-1.103,0-2.228,0.337-3.016,0.854l-0.54-1.732c0.878-0.563,2.341-1.035,4.006-1.035
				c3.646,0,4.659,2.408,4.659,5.041V150.45z M177.542,147.164c-2.048,0-4.412,0.383-4.412,2.588c0,1.373,0.855,1.981,1.823,1.981
				c1.418,0,2.588-1.081,2.588-2.521V147.164z"/>
			<path fill="#304068" d="M185.983,153.398h-2.611v-18.051h2.611V153.398z"/>
		</g>
		<g enable-background="new    ">
			<path fill="#304068" d="M44.88,172.131c-0.225-0.045-0.473-0.067-0.765-0.067c-1.756,0-2.858,1.44-2.858,3.601v6.572h-2.611
				v-8.62c0-1.44-0.022-2.633-0.09-3.781h2.273l0.09,2.273h0.09c0.563-1.575,1.868-2.543,3.218-2.543
				c0.248,0,0.428,0.022,0.653,0.067V172.131z"/>
			<path fill="#304068" d="M55.977,181.741c-0.878,0.405-2.251,0.743-3.939,0.743c-3.736,0-5.896-2.499-5.896-6.28
				c0-3.69,2.07-6.639,5.582-6.639c3.489,0,4.884,2.903,4.884,5.964c0,0.428-0.022,0.788-0.067,1.103h-7.877
				c0.068,2.791,1.801,3.849,3.759,3.849c1.373,0,2.318-0.247,3.128-0.585L55.977,181.741z M54.131,174.764
				c0.022-1.485-0.585-3.33-2.588-3.33c-1.913,0-2.723,1.89-2.858,3.33H54.131z"/>
			<path fill="#304068" d="M65.295,172.176c-0.495-0.315-1.351-0.697-2.363-0.697c-1.17,0-1.801,0.675-1.801,1.508
				c0,0.855,0.563,1.282,2.071,1.936c2.048,0.832,3.128,1.958,3.128,3.759c0,2.386-1.823,3.804-4.636,3.804
				c-1.306,0-2.543-0.338-3.376-0.833l0.585-1.936c0.63,0.383,1.778,0.832,2.836,0.832c1.396,0,2.07-0.675,2.07-1.62
				s-0.518-1.463-2.003-2.093c-2.206-0.878-3.173-2.116-3.173-3.557c0-2.07,1.688-3.713,4.299-3.713c1.215,0,2.273,0.337,2.948,0.72
				L65.295,172.176z"/>
			<path fill="#304068" d="M70.179,167.922c-0.9,0-1.508-0.675-1.508-1.508c0-0.878,0.63-1.53,1.53-1.53
				c0.9,0,1.508,0.652,1.508,1.53C71.71,167.247,71.125,167.922,70.179,167.922z M71.485,182.236h-2.611v-12.424h2.611V182.236z"/>
			<path fill="#304068" d="M81.006,172.176c-0.495-0.315-1.351-0.697-2.363-0.697c-1.17,0-1.801,0.675-1.801,1.508
				c0,0.855,0.563,1.282,2.071,1.936c2.048,0.832,3.128,1.958,3.128,3.759c0,2.386-1.823,3.804-4.636,3.804
				c-1.306,0-2.543-0.338-3.376-0.833l0.585-1.936c0.63,0.383,1.778,0.832,2.836,0.832c1.396,0,2.07-0.675,2.07-1.62
				s-0.518-1.463-2.003-2.093c-2.206-0.878-3.173-2.116-3.173-3.557c0-2.07,1.688-3.713,4.299-3.713c1.215,0,2.273,0.337,2.948,0.72
				L81.006,172.176z"/>
			<path fill="#304068" d="M85.103,167.584l2.588-0.81v3.061h2.948v1.958h-2.948v6.279c0,1.531,0.473,2.273,1.575,2.273
				c0.518,0,0.833-0.067,1.148-0.157l0.09,2.003c-0.45,0.18-1.148,0.293-2.026,0.293c-1.035,0-1.913-0.338-2.453-0.945
				c-0.63-0.676-0.923-1.711-0.923-3.331v-6.415h-1.755v-1.958h1.755V167.584z"/>
			<path fill="#304068" d="M101.578,179.288c0,1.058,0.022,2.138,0.18,2.948h-2.363l-0.18-1.44h-0.067
				c-0.698,0.968-1.913,1.688-3.466,1.688c-2.318,0-3.646-1.711-3.646-3.624c0-3.083,2.679-4.614,6.932-4.614
				c0-0.923,0-2.768-2.498-2.768c-1.103,0-2.228,0.337-3.016,0.854l-0.54-1.732c0.878-0.563,2.341-1.035,4.006-1.035
				c3.646,0,4.659,2.408,4.659,5.041V179.288z M99.035,176.002c-2.048,0-4.412,0.383-4.412,2.588c0,1.373,0.855,1.981,1.823,1.981
				c1.418,0,2.588-1.081,2.588-2.521V176.002z"/>
			<path fill="#304068" d="M115.105,182.236h-2.611v-7.27c0-1.756-0.585-3.241-2.363-3.241c-1.283,0-2.656,1.058-2.656,3.038v7.473
				h-2.611v-8.913c0-1.372-0.045-2.431-0.09-3.488h2.273l0.135,1.846h0.067c0.585-1.058,1.891-2.115,3.759-2.115
				c1.936,0,4.096,1.26,4.096,5.086V182.236z"/>
			<path fill="#304068" d="M126.742,181.854c-0.585,0.271-1.756,0.631-3.196,0.631c-3.579,0-5.919-2.454-5.919-6.325
				c0-3.758,2.431-6.594,6.414-6.594c1.193,0,2.229,0.292,2.769,0.563l-0.518,2.003c-0.45-0.226-1.17-0.495-2.228-0.495
				c-2.431,0-3.781,1.98-3.781,4.411c0,2.724,1.598,4.344,3.758,4.344c1.036,0,1.756-0.247,2.341-0.495L126.742,181.854z"/>
			<path fill="#304068" d="M138.153,181.741c-0.878,0.405-2.251,0.743-3.939,0.743c-3.736,0-5.896-2.499-5.896-6.28
				c0-3.69,2.07-6.639,5.582-6.639c3.489,0,4.884,2.903,4.884,5.964c0,0.428-0.022,0.788-0.067,1.103h-7.877
				c0.068,2.791,1.801,3.849,3.759,3.849c1.373,0,2.318-0.247,3.128-0.585L138.153,181.741z M136.308,174.764
				c0.022-1.485-0.585-3.33-2.588-3.33c-1.913,0-2.723,1.89-2.858,3.33H136.308z"/>
			<path fill="#304068" d="M140.944,180.706c0-1.035,0.72-1.801,1.688-1.801c0.991,0,1.666,0.743,1.666,1.801
				c0,1.035-0.652,1.778-1.688,1.778C141.575,182.484,140.944,181.696,140.944,180.706z"/>
		</g>
	</g>
	<g>
		<rect x="502.826" y="31.726" fill="none" width="257.01" height="168.736"/>
		<g enable-background="new    ">
			<path fill="#304068" d="M521.102,51.534h-2.521l-0.383-7.247c-0.112-2.341-0.247-4.997-0.226-7.135h-0.066
				c-0.518,2.025-1.193,4.231-1.914,6.414l-2.565,7.811h-1.958l-2.363-7.652c-0.697-2.251-1.305-4.502-1.732-6.572h-0.068
				c-0.045,2.138-0.18,4.861-0.314,7.27l-0.383,7.112h-2.431l1.17-17.24h3.241l2.431,7.585c0.63,2.115,1.147,4.028,1.575,5.919
				h0.068c0.428-1.846,0.967-3.804,1.643-5.941l2.498-7.563h3.264L521.102,51.534z"/>
			<path fill="#304068" d="M533.166,51.039c-0.877,0.405-2.25,0.743-3.938,0.743c-3.735,0-5.896-2.499-5.896-6.28
				c0-3.69,2.07-6.639,5.581-6.639c3.489,0,4.885,2.903,4.885,5.964c0,0.428-0.023,0.788-0.068,1.103h-7.877
				c0.068,2.791,1.801,3.849,3.759,3.849c1.373,0,2.318-0.247,3.128-0.585L533.166,51.039z M531.32,44.062
				c0.023-1.485-0.584-3.33-2.588-3.33c-1.913,0-2.723,1.89-2.858,3.33H531.32z"/>
			<path fill="#304068" d="M546.671,48.226c0,1.125,0.045,2.453,0.09,3.309h-2.296l-0.135-1.936h-0.067
				c-0.653,1.261-2.003,2.184-3.759,2.184c-2.813,0-4.951-2.499-4.951-6.325c0-4.208,2.408-6.594,5.176-6.594
				c1.599,0,2.746,0.72,3.287,1.665h0.045v-7.045h2.61V48.226z M544.061,44.152c0-2.026-1.283-3.219-2.746-3.219
				c-2.004,0-3.105,1.98-3.105,4.434c0,2.431,1.08,4.299,3.061,4.299c1.688,0,2.791-1.485,2.791-3.219V44.152z"/>
			<path fill="#304068" d="M551.308,37.22c-0.899,0-1.508-0.675-1.508-1.508c0-0.878,0.63-1.53,1.53-1.53s1.508,0.652,1.508,1.53
				C552.838,36.545,552.253,37.22,551.308,37.22z M552.613,51.534h-2.611V39.11h2.611V51.534z"/>
			<path fill="#304068" d="M564.317,51.151c-0.585,0.271-1.756,0.631-3.196,0.631c-3.578,0-5.919-2.454-5.919-6.325
				c0-3.758,2.431-6.594,6.414-6.594c1.192,0,2.229,0.292,2.769,0.563l-0.518,2.003c-0.45-0.226-1.17-0.495-2.229-0.495
				c-2.431,0-3.781,1.98-3.781,4.411c0,2.724,1.598,4.344,3.759,4.344c1.036,0,1.756-0.247,2.341-0.495L564.317,51.151z"/>
			<path fill="#304068" d="M575.346,48.586c0,1.058,0.023,2.138,0.181,2.948h-2.363l-0.181-1.44h-0.066
				c-0.698,0.968-1.914,1.688-3.467,1.688c-2.318,0-3.646-1.711-3.646-3.624c0-3.083,2.68-4.614,6.933-4.614
				c0-0.923,0-2.768-2.498-2.768c-1.103,0-2.228,0.337-3.017,0.854l-0.539-1.732c0.877-0.563,2.34-1.035,4.006-1.035
				c3.646,0,4.658,2.408,4.658,5.041V48.586z M572.803,45.3c-2.048,0-4.411,0.383-4.411,2.588c0,1.373,0.855,1.981,1.823,1.981
				c1.418,0,2.588-1.081,2.588-2.521V45.3z"/>
			<path fill="#304068" d="M581.244,51.534h-2.611V33.483h2.611V51.534z"/>
			<path fill="#304068" d="M599.97,39.133c-0.067,0.878-0.112,1.913-0.112,3.579v7.066c0,2.477-0.203,7.045-6.077,7.045
				c-1.44,0-2.948-0.315-3.916-0.9l0.585-2.025c0.766,0.45,1.959,0.878,3.354,0.878c2.025,0,3.467-1.126,3.467-3.938v-1.193h-0.045
				c-0.631,1.058-1.846,1.823-3.444,1.823c-2.926,0-4.929-2.589-4.929-6.055c0-4.209,2.543-6.549,5.244-6.549
				c1.846,0,2.881,0.945,3.398,1.936h0.045l0.112-1.666H599.97z M597.246,43.927c0-1.643-1.08-2.993-2.678-2.993
				c-1.801,0-3.061,1.71-3.061,4.366c0,2.431,1.102,4.164,3.037,4.164c1.352,0,2.701-1.035,2.701-3.106V43.927z"/>
			<path fill="#304068" d="M609.424,41.429c-0.226-0.045-0.473-0.067-0.766-0.067c-1.756,0-2.858,1.44-2.858,3.601v6.572h-2.61
				v-8.62c0-1.44-0.023-2.633-0.09-3.781h2.272l0.09,2.273h0.091c0.563-1.575,1.867-2.543,3.218-2.543
				c0.247,0,0.428,0.022,0.653,0.067V41.429z"/>
			<path fill="#304068" d="M620.137,48.586c0,1.058,0.022,2.138,0.18,2.948h-2.363l-0.18-1.44h-0.067
				c-0.698,0.968-1.913,1.688-3.466,1.688c-2.318,0-3.646-1.711-3.646-3.624c0-3.083,2.679-4.614,6.932-4.614
				c0-0.923,0-2.768-2.498-2.768c-1.103,0-2.228,0.337-3.016,0.854l-0.54-1.732c0.878-0.563,2.341-1.035,4.007-1.035
				c3.646,0,4.658,2.408,4.658,5.041V48.586z M617.594,45.3c-2.049,0-4.412,0.383-4.412,2.588c0,1.373,0.855,1.981,1.824,1.981
				c1.418,0,2.588-1.081,2.588-2.521V45.3z"/>
			<path fill="#304068" d="M633.776,48.226c0,1.125,0.045,2.453,0.09,3.309h-2.296l-0.135-1.936h-0.067
				c-0.653,1.261-2.003,2.184-3.759,2.184c-2.813,0-4.951-2.499-4.951-6.325c0-4.208,2.408-6.594,5.176-6.594
				c1.599,0,2.746,0.72,3.287,1.665h0.045v-7.045h2.61V48.226z M631.166,44.152c0-2.026-1.283-3.219-2.746-3.219
				c-2.004,0-3.105,1.98-3.105,4.434c0,2.431,1.08,4.299,3.061,4.299c1.688,0,2.791-1.485,2.791-3.219V44.152z"/>
			<path fill="#304068" d="M646.178,51.039c-0.877,0.405-2.25,0.743-3.938,0.743c-3.735,0-5.896-2.499-5.896-6.28
				c0-3.69,2.07-6.639,5.581-6.639c3.489,0,4.885,2.903,4.885,5.964c0,0.428-0.023,0.788-0.068,1.103h-7.877
				c0.068,2.791,1.801,3.849,3.759,3.849c1.373,0,2.318-0.247,3.128-0.585L646.178,51.039z M644.332,44.062
				c0.023-1.485-0.584-3.33-2.588-3.33c-1.913,0-2.723,1.89-2.858,3.33H644.332z"/>
			<path fill="#304068" d="M660.539,41.474c-0.495-0.315-1.351-0.697-2.363-0.697c-1.17,0-1.801,0.675-1.801,1.508
				c0,0.855,0.563,1.282,2.07,1.936c2.049,0.832,3.129,1.958,3.129,3.759c0,2.386-1.823,3.804-4.637,3.804
				c-1.305,0-2.543-0.338-3.375-0.833l0.584-1.936c0.631,0.383,1.778,0.832,2.836,0.832c1.396,0,2.07-0.675,2.07-1.62
				s-0.518-1.463-2.002-2.093c-2.206-0.878-3.174-2.116-3.174-3.557c0-2.07,1.688-3.713,4.299-3.713c1.215,0,2.273,0.337,2.948,0.72
				L660.539,41.474z"/>
			<path fill="#304068" d="M665.423,37.22c-0.899,0-1.508-0.675-1.508-1.508c0-0.878,0.63-1.53,1.53-1.53s1.508,0.652,1.508,1.53
				C666.953,36.545,666.368,37.22,665.423,37.22z M666.729,51.534h-2.611V39.11h2.611V51.534z"/>
			<path fill="#304068" d="M672.693,51.534h-2.611V33.483h2.611V51.534z"/>
			<path fill="#304068" d="M677.33,37.22c-0.9,0-1.508-0.675-1.508-1.508c0-0.878,0.63-1.53,1.529-1.53
				c0.9,0,1.509,0.652,1.509,1.53C678.86,36.545,678.275,37.22,677.33,37.22z M678.635,51.534h-2.61V39.11h2.61V51.534z"/>
			<path fill="#304068" d="M690.34,51.151c-0.586,0.271-1.756,0.631-3.197,0.631c-3.578,0-5.918-2.454-5.918-6.325
				c0-3.758,2.43-6.594,6.414-6.594c1.192,0,2.229,0.292,2.768,0.563l-0.518,2.003c-0.449-0.226-1.17-0.495-2.228-0.495
				c-2.431,0-3.781,1.98-3.781,4.411c0,2.724,1.598,4.344,3.759,4.344c1.035,0,1.756-0.247,2.34-0.495L690.34,51.151z"/>
			<path fill="#304068" d="M703.371,45.232c0,4.637-3.016,6.55-5.807,6.55c-3.219,0-5.672-2.363-5.672-6.37
				c0-4.186,2.565-6.549,5.852-6.549C701.143,38.863,703.371,41.429,703.371,45.232z M697.654,40.821
				c-2.229,0-3.084,2.386-3.084,4.523c0,2.431,1.148,4.479,3.062,4.479c1.89,0,3.061-2.048,3.061-4.523
				C700.692,43.252,699.838,40.821,697.654,40.821z"/>
			<path fill="#304068" d="M716.201,51.534h-2.611v-7.27c0-1.756-0.586-3.241-2.363-3.241c-1.283,0-2.656,1.058-2.656,3.038v7.473
				h-2.61v-8.913c0-1.372-0.045-2.431-0.09-3.488h2.272l0.136,1.846h0.067c0.585-1.058,1.891-2.115,3.759-2.115
				c1.936,0,4.097,1.26,4.097,5.086V51.534z"/>
			<path fill="#304068" d="M728.558,51.039c-0.878,0.405-2.251,0.743-3.938,0.743c-3.736,0-5.896-2.499-5.896-6.28
				c0-3.69,2.07-6.639,5.581-6.639c3.489,0,4.884,2.903,4.884,5.964c0,0.428-0.022,0.788-0.067,1.103h-7.878
				c0.068,2.791,1.801,3.849,3.76,3.849c1.373,0,2.318-0.247,3.128-0.585L728.558,51.039z M726.712,44.062
				c0.022-1.485-0.585-3.33-2.589-3.33c-1.912,0-2.723,1.89-2.857,3.33H726.712z"/>
		</g>
		<g enable-background="new    ">
			<path fill="#304068" d="M507.418,79.248c0,2.521-0.428,4.051-1.508,5.108c-0.99,0.945-2.566,1.351-3.85,1.351l-0.27-2.048
				c2.701-0.271,3.016-1.598,3.016-5.222V67.949h2.611V79.248z M506.09,66.059c-0.9,0-1.508-0.675-1.508-1.508
				c0-0.878,0.63-1.53,1.53-1.53c0.923,0,1.508,0.652,1.508,1.53C507.62,65.384,507.035,66.059,506.09,66.059z"/>
			<path fill="#304068" d="M519.391,77.425c0,1.058,0.023,2.138,0.181,2.948h-2.363l-0.181-1.44h-0.066
				c-0.698,0.968-1.914,1.688-3.467,1.688c-2.318,0-3.646-1.711-3.646-3.624c0-3.083,2.68-4.614,6.933-4.614
				c0-0.923,0-2.768-2.498-2.768c-1.103,0-2.228,0.337-3.017,0.854l-0.539-1.732c0.877-0.563,2.34-1.035,4.006-1.035
				c3.646,0,4.658,2.408,4.658,5.041V77.425z M516.848,74.139c-2.048,0-4.411,0.383-4.411,2.588c0,1.373,0.855,1.981,1.823,1.981
				c1.418,0,2.588-1.081,2.588-2.521V74.139z"/>
			<path fill="#304068" d="M531.027,79.99c-0.585,0.271-1.756,0.631-3.195,0.631c-3.579,0-5.92-2.454-5.92-6.325
				c0-3.758,2.432-6.594,6.414-6.594c1.193,0,2.229,0.292,2.77,0.563l-0.518,2.003c-0.451-0.226-1.171-0.495-2.229-0.495
				c-2.432,0-3.781,1.98-3.781,4.411c0,2.724,1.598,4.344,3.758,4.344c1.036,0,1.756-0.247,2.342-0.495L531.027,79.99z"/>
			<path fill="#304068" d="M543.699,80.373h-3.15l-3.557-5.694l-1.012,1.238v4.456h-2.611V62.322h2.611v11.231h0.045
				c0.292-0.473,0.63-1.013,0.945-1.44l3.083-4.142h3.083l-4.366,5.109L543.699,80.373z"/>
			<path fill="#304068" d="M554.233,79.878c-0.878,0.405-2.251,0.743-3.938,0.743c-3.736,0-5.896-2.499-5.896-6.28
				c0-3.69,2.07-6.639,5.581-6.639c3.489,0,4.884,2.903,4.884,5.964c0,0.428-0.022,0.788-0.067,1.103h-7.878
				c0.068,2.791,1.801,3.849,3.76,3.849c1.373,0,2.318-0.247,3.128-0.585L554.233,79.878z M552.388,72.9
				c0.022-1.485-0.585-3.33-2.589-3.33c-1.912,0-2.723,1.89-2.857,3.33H552.388z"/>
			<path fill="#304068" d="M557.902,65.721l2.589-0.81v3.061h2.948v1.958h-2.948v6.279c0,1.531,0.473,2.273,1.575,2.273
				c0.518,0,0.833-0.067,1.148-0.157l0.09,2.003c-0.45,0.18-1.148,0.293-2.025,0.293c-1.035,0-1.914-0.338-2.453-0.945
				c-0.631-0.676-0.924-1.711-0.924-3.331V69.93h-1.755v-1.958h1.755V65.721z"/>
			<path fill="#304068" d="M568.797,76.885c-0.653,2.25-1.779,5.041-2.634,6.459l-1.801,0.181c0.63-1.711,1.306-4.412,1.599-6.393
				L568.797,76.885z"/>
			<path fill="#304068" d="M592.294,67.972l-3.759,12.401h-2.363l-1.598-5.491c-0.383-1.306-0.652-2.499-0.923-3.962h-0.067
				c-0.248,1.485-0.586,2.746-0.969,3.984l-1.688,5.469h-2.363l-3.556-12.401h2.7l1.373,5.942c0.293,1.327,0.586,2.655,0.811,3.961
				h0.045c0.248-1.283,0.631-2.656,0.99-3.938l1.711-5.965h2.138l1.62,5.829c0.383,1.44,0.721,2.769,0.969,4.074h0.066
				c0.203-1.283,0.496-2.611,0.834-4.052l1.439-5.852H592.294z"/>
			<path fill="#304068" d="M595.604,66.059c-0.9,0-1.508-0.675-1.508-1.508c0-0.878,0.63-1.53,1.529-1.53
				c0.9,0,1.509,0.652,1.509,1.53C597.134,65.384,596.549,66.059,595.604,66.059z M596.908,80.373h-2.61V67.949h2.61V80.373z"/>
			<path fill="#304068" d="M600.779,65.721l2.589-0.81v3.061h2.948v1.958h-2.948v6.279c0,1.531,0.473,2.273,1.575,2.273
				c0.518,0,0.833-0.067,1.148-0.157l0.09,2.003c-0.45,0.18-1.148,0.293-2.025,0.293c-1.035,0-1.914-0.338-2.453-0.945
				c-0.631-0.676-0.924-1.711-0.924-3.331V69.93h-1.755v-1.958h1.755V65.721z"/>
			<path fill="#304068" d="M618.809,80.373h-2.611v-7.247c0-1.778-0.607-3.264-2.363-3.264c-1.282,0-2.655,1.058-2.655,2.926v7.585
				h-2.61V62.322h2.61v7.338h0.045c0.81-1.283,2.206-1.958,3.556-1.958c1.869,0,4.029,1.26,4.029,5.176V80.373z"/>
			<path fill="#304068" d="M637.377,80.373h-2.61v-7.247c0-1.778-0.608-3.264-2.363-3.264c-1.282,0-2.655,1.058-2.655,2.926v7.585
				h-2.611V62.322h2.611v7.338h0.045c0.81-1.283,2.205-1.958,3.556-1.958c1.868,0,4.028,1.26,4.028,5.176V80.373z"/>
			<path fill="#304068" d="M641.969,66.059c-0.899,0-1.508-0.675-1.508-1.508c0-0.878,0.631-1.53,1.531-1.53s1.508,0.652,1.508,1.53
				C643.5,65.384,642.914,66.059,641.969,66.059z M643.275,80.373h-2.611V67.949h2.611V80.373z"/>
			<path fill="#304068" d="M656.982,67.972c-0.068,0.878-0.113,1.913-0.113,3.579v7.066c0,2.477-0.202,7.045-6.076,7.045
				c-1.441,0-2.949-0.315-3.916-0.9l0.584-2.025c0.766,0.45,1.959,0.878,3.354,0.878c2.026,0,3.467-1.126,3.467-3.938v-1.193h-0.045
				c-0.631,1.058-1.846,1.823-3.443,1.823c-2.926,0-4.93-2.589-4.93-6.055c0-4.209,2.543-6.549,5.244-6.549
				c1.846,0,2.881,0.945,3.398,1.936h0.045l0.113-1.666H656.982z M654.259,72.766c0-1.643-1.081-2.993-2.679-2.993
				c-1.801,0-3.061,1.71-3.061,4.366c0,2.431,1.103,4.164,3.038,4.164c1.351,0,2.701-1.035,2.701-3.106V72.766z"/>
			<path fill="#304068" d="M670.441,80.373h-2.61v-7.247c0-1.778-0.608-3.264-2.363-3.264c-1.282,0-2.655,1.058-2.655,2.926v7.585
				h-2.611V62.322h2.611v7.338h0.045c0.81-1.283,2.205-1.958,3.556-1.958c1.868,0,4.028,1.26,4.028,5.176V80.373z"/>
		</g>
		<g enable-background="new    ">
			<path fill="#304068" d="M505.01,94.56l2.588-0.81v3.061h2.948v1.958h-2.948v6.279c0,1.531,0.473,2.273,1.575,2.273
				c0.519,0,0.833-0.067,1.147-0.157l0.091,2.003c-0.45,0.18-1.147,0.293-2.026,0.293c-1.035,0-1.912-0.338-2.453-0.945
				c-0.63-0.676-0.922-1.711-0.922-3.331v-6.415h-1.756v-1.958h1.756V94.56z"/>
			<path fill="#304068" d="M521.867,108.717c-0.878,0.405-2.251,0.743-3.939,0.743c-3.735,0-5.896-2.499-5.896-6.28
				c0-3.69,2.07-6.639,5.582-6.639c3.488,0,4.884,2.903,4.884,5.964c0,0.428-0.022,0.788-0.067,1.103h-7.877
				c0.067,2.791,1.801,3.849,3.758,3.849c1.373,0,2.318-0.247,3.129-0.585L521.867,108.717z M520.021,101.739
				c0.022-1.485-0.585-3.33-2.588-3.33c-1.914,0-2.724,1.89-2.859,3.33H520.021z"/>
			<path fill="#304068" d="M542.034,109.212h-2.565v-7.09c0-2.07-0.676-3.443-2.251-3.443c-1.192,0-2.408,1.08-2.408,2.881v7.652
				h-2.565v-7.473c0-1.732-0.653-3.061-2.161-3.061c-1.171,0-2.498,1.058-2.498,3.016v7.518h-2.565v-8.913
				c0-1.395-0.045-2.431-0.09-3.488h2.25l0.135,1.823h0.068c0.607-1.035,1.732-2.093,3.623-2.093c1.575,0,2.768,0.877,3.286,2.272
				h0.045c0.833-1.373,2.048-2.272,3.826-2.272c1.845,0,3.871,1.26,3.871,5.176V109.212z"/>
			<path fill="#304068" d="M547.684,98.701c0.855-1.396,2.206-2.16,3.939-2.16c2.791,0,4.884,2.476,4.884,6.324
				c0,4.546-2.634,6.595-5.244,6.595c-1.485,0-2.7-0.698-3.309-1.711h-0.045v6.481h-2.61v-13.413c0-1.621-0.045-2.904-0.09-4.007
				h2.295l0.135,1.891H547.684z M547.909,104.216c0,2.228,1.53,3.173,2.813,3.173c2.025,0,3.129-1.868,3.129-4.434
				c0-2.363-1.059-4.321-3.062-4.321c-1.554,0-2.881,1.463-2.881,3.286V104.216z"/>
			<path fill="#304068" d="M568.144,108.717c-0.878,0.405-2.251,0.743-3.938,0.743c-3.736,0-5.896-2.499-5.896-6.28
				c0-3.69,2.07-6.639,5.581-6.639c3.489,0,4.884,2.903,4.884,5.964c0,0.428-0.022,0.788-0.067,1.103h-7.878
				c0.068,2.791,1.801,3.849,3.76,3.849c1.373,0,2.318-0.247,3.128-0.585L568.144,108.717z M566.298,101.739
				c0.022-1.485-0.585-3.33-2.589-3.33c-1.912,0-2.723,1.89-2.857,3.33H566.298z"/>
			<path fill="#304068" d="M577.529,99.106c-0.225-0.045-0.473-0.067-0.765-0.067c-1.756,0-2.858,1.44-2.858,3.601v6.572h-2.611
				v-8.62c0-1.44-0.021-2.633-0.09-3.781h2.273l0.09,2.273h0.09c0.563-1.575,1.869-2.543,3.219-2.543
				c0.248,0,0.428,0.022,0.652,0.067V99.106z"/>
			<path fill="#304068" d="M588.243,106.264c0,1.058,0.022,2.138,0.181,2.948h-2.363l-0.181-1.44h-0.067
				c-0.697,0.968-1.913,1.688-3.466,1.688c-2.318,0-3.646-1.711-3.646-3.624c0-3.083,2.679-4.614,6.933-4.614
				c0-0.923,0-2.768-2.498-2.768c-1.104,0-2.229,0.337-3.017,0.854l-0.54-1.732c0.878-0.563,2.341-1.035,4.006-1.035
				c3.646,0,4.659,2.408,4.659,5.041V106.264z M585.7,102.978c-2.048,0-4.411,0.383-4.411,2.588c0,1.373,0.855,1.981,1.822,1.981
				c1.418,0,2.589-1.081,2.589-2.521V102.978z"/>
			<path fill="#304068" d="M592.047,94.56l2.589-0.81v3.061h2.948v1.958h-2.948v6.279c0,1.531,0.473,2.273,1.575,2.273
				c0.518,0,0.833-0.067,1.148-0.157l0.09,2.003c-0.45,0.18-1.148,0.293-2.025,0.293c-1.035,0-1.914-0.338-2.453-0.945
				c-0.631-0.676-0.924-1.711-0.924-3.331v-6.415h-1.755v-1.958h1.755V94.56z"/>
			<path fill="#304068" d="M609.918,105.656c0,1.396,0.067,2.565,0.112,3.556h-2.296l-0.135-1.801h-0.067
				c-0.518,0.855-1.733,2.049-3.736,2.049c-2.138,0-4.006-1.328-4.006-5.289v-7.383h2.61v6.955c0,2.138,0.607,3.556,2.318,3.556
				c1.193,0,2.588-0.945,2.588-2.813v-7.675h2.611V105.656z"/>
			<path fill="#304068" d="M619.506,99.106c-0.225-0.045-0.473-0.067-0.765-0.067c-1.756,0-2.858,1.44-2.858,3.601v6.572h-2.611
				v-8.62c0-1.44-0.021-2.633-0.09-3.781h2.273l0.09,2.273h0.09c0.563-1.575,1.869-2.543,3.219-2.543
				c0.248,0,0.428,0.022,0.652,0.067V99.106z"/>
			<path fill="#304068" d="M630.603,108.717c-0.878,0.405-2.251,0.743-3.938,0.743c-3.736,0-5.896-2.499-5.896-6.28
				c0-3.69,2.07-6.639,5.581-6.639c3.489,0,4.884,2.903,4.884,5.964c0,0.428-0.022,0.788-0.067,1.103h-7.878
				c0.068,2.791,1.801,3.849,3.76,3.849c1.373,0,2.318-0.247,3.128-0.585L630.603,108.717z M628.757,101.739
				c0.022-1.485-0.585-3.33-2.589-3.33c-1.912,0-2.723,1.89-2.857,3.33H628.757z"/>
			<path fill="#304068" d="M645.031,99.106c-0.226-0.045-0.473-0.067-0.766-0.067c-1.756,0-2.858,1.44-2.858,3.601v6.572h-2.61
				v-8.62c0-1.44-0.023-2.633-0.09-3.781h2.272l0.09,2.273h0.091c0.563-1.575,1.867-2.543,3.218-2.543
				c0.247,0,0.428,0.022,0.653,0.067V99.106z"/>
			<path fill="#304068" d="M656.127,108.717c-0.878,0.405-2.251,0.743-3.939,0.743c-3.735,0-5.896-2.499-5.896-6.28
				c0-3.69,2.07-6.639,5.582-6.639c3.488,0,4.884,2.903,4.884,5.964c0,0.428-0.022,0.788-0.067,1.103h-7.877
				c0.067,2.791,1.801,3.849,3.758,3.849c1.373,0,2.318-0.247,3.129-0.585L656.127,108.717z M654.281,101.739
				c0.022-1.485-0.585-3.33-2.588-3.33c-1.914,0-2.724,1.89-2.859,3.33H654.281z"/>
			<path fill="#304068" d="M665.445,99.151c-0.495-0.315-1.351-0.697-2.363-0.697c-1.17,0-1.801,0.675-1.801,1.508
				c0,0.855,0.563,1.282,2.07,1.936c2.049,0.832,3.129,1.958,3.129,3.759c0,2.386-1.823,3.804-4.637,3.804
				c-1.305,0-2.543-0.338-3.375-0.833l0.584-1.936c0.631,0.383,1.778,0.832,2.836,0.832c1.396,0,2.07-0.675,2.07-1.62
				s-0.518-1.463-2.002-2.093c-2.206-0.878-3.174-2.116-3.174-3.557c0-2.07,1.688-3.713,4.299-3.713c1.215,0,2.273,0.337,2.948,0.72
				L665.445,99.151z"/>
			<path fill="#304068" d="M670.33,94.897c-0.9,0-1.508-0.675-1.508-1.508c0-0.878,0.63-1.53,1.529-1.53
				c0.9,0,1.509,0.652,1.509,1.53C671.86,94.223,671.275,94.897,670.33,94.897z M671.635,109.212h-2.61V96.788h2.61V109.212z"/>
			<path fill="#304068" d="M681.156,99.151c-0.495-0.315-1.351-0.697-2.363-0.697c-1.17,0-1.801,0.675-1.801,1.508
				c0,0.855,0.563,1.282,2.07,1.936c2.049,0.832,3.129,1.958,3.129,3.759c0,2.386-1.823,3.804-4.637,3.804
				c-1.305,0-2.543-0.338-3.375-0.833l0.584-1.936c0.631,0.383,1.778,0.832,2.836,0.832c1.396,0,2.07-0.675,2.07-1.62
				s-0.518-1.463-2.002-2.093c-2.206-0.878-3.174-2.116-3.174-3.557c0-2.07,1.688-3.713,4.299-3.713c1.215,0,2.273,0.337,2.948,0.72
				L681.156,99.151z"/>
			<path fill="#304068" d="M685.252,94.56l2.589-0.81v3.061h2.948v1.958h-2.948v6.279c0,1.531,0.473,2.273,1.575,2.273
				c0.518,0,0.833-0.067,1.148-0.157l0.09,2.003c-0.45,0.18-1.148,0.293-2.025,0.293c-1.035,0-1.914-0.338-2.453-0.945
				c-0.631-0.676-0.924-1.711-0.924-3.331v-6.415h-1.755v-1.958h1.755V94.56z"/>
			<path fill="#304068" d="M701.729,106.264c0,1.058,0.021,2.138,0.18,2.948h-2.363l-0.18-1.44h-0.068
				c-0.697,0.968-1.912,1.688-3.465,1.688c-2.318,0-3.646-1.711-3.646-3.624c0-3.083,2.678-4.614,6.932-4.614
				c0-0.923,0-2.768-2.498-2.768c-1.104,0-2.229,0.337-3.016,0.854l-0.541-1.732c0.879-0.563,2.342-1.035,4.007-1.035
				c3.646,0,4.659,2.408,4.659,5.041V106.264z M699.186,102.978c-2.049,0-4.412,0.383-4.412,2.588c0,1.373,0.855,1.981,1.823,1.981
				c1.418,0,2.589-1.081,2.589-2.521V102.978z"/>
			<path fill="#304068" d="M715.256,109.212h-2.611v-7.27c0-1.756-0.586-3.241-2.363-3.241c-1.283,0-2.656,1.058-2.656,3.038v7.473
				h-2.61v-8.913c0-1.372-0.045-2.431-0.09-3.488h2.272l0.136,1.846h0.067c0.585-1.058,1.891-2.115,3.759-2.115
				c1.936,0,4.097,1.26,4.097,5.086V109.212z"/>
			<path fill="#304068" d="M726.893,108.829c-0.586,0.271-1.756,0.631-3.197,0.631c-3.578,0-5.918-2.454-5.918-6.325
				c0-3.758,2.43-6.594,6.414-6.594c1.192,0,2.229,0.292,2.768,0.563l-0.518,2.003c-0.449-0.226-1.17-0.495-2.228-0.495
				c-2.431,0-3.781,1.98-3.781,4.411c0,2.724,1.598,4.344,3.759,4.344c1.035,0,1.756-0.247,2.34-0.495L726.893,108.829z"/>
			<path fill="#304068" d="M738.303,108.717c-0.877,0.405-2.25,0.743-3.938,0.743c-3.735,0-5.896-2.499-5.896-6.28
				c0-3.69,2.07-6.639,5.581-6.639c3.489,0,4.885,2.903,4.885,5.964c0,0.428-0.023,0.788-0.068,1.103h-7.877
				c0.068,2.791,1.801,3.849,3.759,3.849c1.373,0,2.318-0.247,3.128-0.585L738.303,108.717z M736.457,101.739
				c0.023-1.485-0.584-3.33-2.588-3.33c-1.913,0-2.723,1.89-2.858,3.33H736.457z"/>
		</g>
		<g enable-background="new    ">
			<path fill="#304068" d="M513.18,135.103c0,1.058,0.021,2.138,0.18,2.948h-2.363l-0.18-1.44h-0.068
				c-0.697,0.968-1.912,1.688-3.465,1.688c-2.318,0-3.646-1.711-3.646-3.624c0-3.083,2.678-4.614,6.932-4.614
				c0-0.923,0-2.768-2.498-2.768c-1.104,0-2.229,0.337-3.016,0.854l-0.541-1.732c0.879-0.563,2.342-1.035,4.007-1.035
				c3.646,0,4.659,2.408,4.659,5.041V135.103z M510.637,131.816c-2.049,0-4.412,0.383-4.412,2.588c0,1.373,0.855,1.981,1.823,1.981
				c1.418,0,2.589-1.081,2.589-2.521V131.816z"/>
			<path fill="#304068" d="M526.707,138.051h-2.611v-7.27c0-1.756-0.586-3.241-2.363-3.241c-1.283,0-2.656,1.058-2.656,3.038v7.473
				h-2.61v-8.913c0-1.372-0.045-2.431-0.09-3.488h2.272l0.136,1.846h0.067c0.585-1.058,1.891-2.115,3.759-2.115
				c1.936,0,4.097,1.26,4.097,5.086V138.051z"/>
			<path fill="#304068" d="M540.346,134.742c0,1.125,0.045,2.453,0.09,3.309h-2.295l-0.135-1.936h-0.068
				c-0.652,1.261-2.002,2.184-3.758,2.184c-2.813,0-4.951-2.499-4.951-6.325c0-4.208,2.408-6.594,5.176-6.594
				c1.598,0,2.746,0.72,3.286,1.665h0.045V120h2.61V134.742z M537.735,130.669c0-2.026-1.282-3.219-2.745-3.219
				c-2.004,0-3.106,1.98-3.106,4.434c0,2.431,1.08,4.299,3.062,4.299c1.688,0,2.79-1.485,2.79-3.219V130.669z"/>
			<path fill="#304068" d="M557.07,137.668c-0.586,0.271-1.756,0.631-3.197,0.631c-3.578,0-5.918-2.454-5.918-6.325
				c0-3.758,2.43-6.594,6.414-6.594c1.192,0,2.229,0.292,2.768,0.563l-0.518,2.003c-0.449-0.226-1.17-0.495-2.228-0.495
				c-2.431,0-3.781,1.98-3.781,4.411c0,2.724,1.598,4.344,3.759,4.344c1.035,0,1.756-0.247,2.34-0.495L557.07,137.668z"/>
			<path fill="#304068" d="M570.102,131.749c0,4.637-3.016,6.55-5.807,6.55c-3.219,0-5.672-2.363-5.672-6.37
				c0-4.186,2.566-6.549,5.852-6.549C567.873,125.38,570.102,127.945,570.102,131.749z M564.385,127.338
				c-2.229,0-3.083,2.386-3.083,4.523c0,2.431,1.147,4.479,3.062,4.479c1.89,0,3.061-2.048,3.061-4.523
				C567.424,129.769,566.568,127.338,564.385,127.338z"/>
			<path fill="#304068" d="M582.932,138.051h-2.611v-7.27c0-1.756-0.585-3.241-2.363-3.241c-1.282,0-2.655,1.058-2.655,3.038v7.473
				h-2.61v-8.913c0-1.372-0.045-2.431-0.09-3.488h2.272l0.136,1.846h0.066c0.586-1.058,1.891-2.115,3.76-2.115
				c1.936,0,4.096,1.26,4.096,5.086V138.051z"/>
			<path fill="#304068" d="M592.385,127.99c-0.494-0.315-1.35-0.697-2.363-0.697c-1.17,0-1.801,0.675-1.801,1.508
				c0,0.855,0.563,1.282,2.071,1.936c2.048,0.832,3.128,1.958,3.128,3.759c0,2.386-1.822,3.804-4.636,3.804
				c-1.306,0-2.544-0.338-3.376-0.833l0.585-1.936c0.63,0.383,1.778,0.832,2.836,0.832c1.396,0,2.07-0.675,2.07-1.62
				s-0.518-1.463-2.003-2.093c-2.205-0.878-3.174-2.116-3.174-3.557c0-2.07,1.688-3.713,4.299-3.713c1.216,0,2.273,0.337,2.949,0.72
				L592.385,127.99z"/>
			<path fill="#304068" d="M597.27,123.736c-0.9,0-1.508-0.675-1.508-1.508c0-0.878,0.631-1.53,1.53-1.53
				c0.9,0,1.509,0.652,1.509,1.53C598.801,123.062,598.215,123.736,597.27,123.736z M598.575,138.051h-2.61v-12.424h2.61V138.051z"
				/>
			<path fill="#304068" d="M608.096,127.99c-0.495-0.315-1.351-0.697-2.363-0.697c-1.17,0-1.801,0.675-1.801,1.508
				c0,0.855,0.563,1.282,2.07,1.936c2.049,0.832,3.129,1.958,3.129,3.759c0,2.386-1.823,3.804-4.637,3.804
				c-1.305,0-2.543-0.338-3.375-0.833l0.584-1.936c0.631,0.383,1.778,0.832,2.836,0.832c1.396,0,2.07-0.675,2.07-1.62
				s-0.518-1.463-2.002-2.093c-2.206-0.878-3.174-2.116-3.174-3.557c0-2.07,1.688-3.713,4.299-3.713c1.215,0,2.273,0.337,2.948,0.72
				L608.096,127.99z"/>
			<path fill="#304068" d="M612.192,123.398l2.589-0.81v3.061h2.947v1.958h-2.947v6.279c0,1.531,0.473,2.273,1.574,2.273
				c0.519,0,0.834-0.067,1.148-0.157l0.09,2.003c-0.449,0.18-1.147,0.293-2.025,0.293c-1.035,0-1.913-0.338-2.453-0.945
				c-0.631-0.676-0.923-1.711-0.923-3.331v-6.415h-1.755v-1.958h1.755V123.398z"/>
			<path fill="#304068" d="M629.051,137.556c-0.879,0.405-2.252,0.743-3.939,0.743c-3.736,0-5.896-2.499-5.896-6.28
				c0-3.69,2.07-6.639,5.582-6.639c3.488,0,4.883,2.903,4.883,5.964c0,0.428-0.021,0.788-0.066,1.103h-7.878
				c0.067,2.791,1.801,3.849,3.759,3.849c1.373,0,2.318-0.247,3.129-0.585L629.051,137.556z M627.205,130.578
				c0.021-1.485-0.586-3.33-2.589-3.33c-1.913,0-2.724,1.89-2.858,3.33H627.205z"/>
			<path fill="#304068" d="M642.443,138.051h-2.611v-7.27c0-1.756-0.586-3.241-2.363-3.241c-1.283,0-2.656,1.058-2.656,3.038v7.473
				h-2.61v-8.913c0-1.372-0.045-2.431-0.09-3.488h2.272l0.136,1.846h0.067c0.585-1.058,1.891-2.115,3.759-2.115
				c1.936,0,4.097,1.26,4.097,5.086V138.051z"/>
			<path fill="#304068" d="M654.08,137.668c-0.586,0.271-1.756,0.631-3.197,0.631c-3.578,0-5.918-2.454-5.918-6.325
				c0-3.758,2.43-6.594,6.414-6.594c1.192,0,2.229,0.292,2.768,0.563l-0.518,2.003c-0.449-0.226-1.17-0.495-2.228-0.495
				c-2.431,0-3.781,1.98-3.781,4.411c0,2.724,1.598,4.344,3.759,4.344c1.035,0,1.756-0.247,2.34-0.495L654.08,137.668z"/>
			<path fill="#304068" d="M666.233,125.649l-2.993,8.598c-1.463,4.074-2.498,6.369-3.984,7.81
				c-1.125,1.035-2.273,1.463-2.881,1.599l-0.675-2.206c2.7-0.968,3.669-3.488,3.669-3.826c0-0.135-0.023-0.293-0.135-0.54
				l-4.254-11.434h2.857l2.251,6.978c0.247,0.81,0.495,1.755,0.675,2.476h0.068c0.18-0.721,0.428-1.644,0.652-2.476l2.003-6.978
				H666.233z"/>
			<path fill="#304068" d="M671.186,134.563c-0.652,2.25-1.778,5.041-2.633,6.459l-1.801,0.181c0.63-1.711,1.305-4.412,1.598-6.393
				L671.186,134.563z"/>
			<path fill="#304068" d="M688.922,138.051h-2.611v-7.247c0-1.778-0.607-3.264-2.363-3.264c-1.283,0-2.656,1.058-2.656,2.926v7.585
				h-2.61V120h2.61v7.338h0.045c0.811-1.283,2.206-1.958,3.557-1.958c1.868,0,4.029,1.26,4.029,5.176V138.051z"/>
			<path fill="#304068" d="M693.514,123.736c-0.9,0-1.508-0.675-1.508-1.508c0-0.878,0.63-1.53,1.529-1.53
				c0.9,0,1.509,0.652,1.509,1.53C695.044,123.062,694.459,123.736,693.514,123.736z M694.818,138.051h-2.61v-12.424h2.61V138.051z"
				/>
			<path fill="#304068" d="M708.525,125.649c-0.066,0.878-0.111,1.913-0.111,3.579v7.066c0,2.477-0.203,7.045-6.078,7.045
				c-1.439,0-2.947-0.315-3.916-0.9l0.586-2.025c0.766,0.45,1.958,0.878,3.354,0.878c2.025,0,3.466-1.126,3.466-3.938v-1.193h-0.045
				c-0.63,1.058-1.846,1.823-3.444,1.823c-2.926,0-4.928-2.589-4.928-6.055c0-4.209,2.543-6.549,5.244-6.549
				c1.845,0,2.881,0.945,3.398,1.936h0.045l0.111-1.666H708.525z M705.803,130.443c0-1.643-1.08-2.993-2.678-2.993
				c-1.801,0-3.062,1.71-3.062,4.366c0,2.431,1.103,4.164,3.038,4.164c1.351,0,2.701-1.035,2.701-3.106V130.443z"/>
			<path fill="#304068" d="M721.986,138.051h-2.611v-7.247c0-1.778-0.607-3.264-2.363-3.264c-1.283,0-2.656,1.058-2.656,2.926v7.585
				h-2.61V120h2.61v7.338h0.045c0.811-1.283,2.206-1.958,3.557-1.958c1.868,0,4.029,1.26,4.029,5.176V138.051z"/>
		</g>
		<g enable-background="new    ">
			<path fill="#304068" d="M513.563,166.394c-0.879,0.405-2.252,0.743-3.939,0.743c-3.736,0-5.896-2.499-5.896-6.28
				c0-3.69,2.07-6.639,5.582-6.639c3.488,0,4.883,2.903,4.883,5.964c0,0.428-0.021,0.788-0.066,1.103h-7.878
				c0.067,2.791,1.801,3.849,3.759,3.849c1.373,0,2.318-0.247,3.129-0.585L513.563,166.394z M511.717,159.416
				c0.021-1.485-0.586-3.33-2.589-3.33c-1.913,0-2.724,1.89-2.858,3.33H511.717z"/>
			<path fill="#304068" d="M519.324,166.889h-2.611v-18.051h2.611V166.889z"/>
			<path fill="#304068" d="M531.344,163.94c0,1.058,0.021,2.138,0.18,2.948h-2.363l-0.18-1.44h-0.068
				c-0.697,0.968-1.912,1.688-3.465,1.688c-2.318,0-3.646-1.711-3.646-3.624c0-3.083,2.678-4.614,6.932-4.614
				c0-0.923,0-2.768-2.498-2.768c-1.104,0-2.229,0.337-3.016,0.854l-0.541-1.732c0.879-0.563,2.342-1.035,4.007-1.035
				c3.646,0,4.659,2.408,4.659,5.041V163.94z M528.801,160.654c-2.049,0-4.412,0.383-4.412,2.588c0,1.373,0.855,1.981,1.823,1.981
				c1.418,0,2.589-1.081,2.589-2.521V160.654z"/>
			<path fill="#304068" d="M540.797,156.828c-0.495-0.315-1.351-0.697-2.363-0.697c-1.17,0-1.801,0.675-1.801,1.508
				c0,0.855,0.563,1.282,2.07,1.936c2.049,0.832,3.129,1.958,3.129,3.759c0,2.386-1.823,3.804-4.637,3.804
				c-1.305,0-2.543-0.338-3.375-0.833l0.584-1.936c0.631,0.383,1.778,0.832,2.836,0.832c1.396,0,2.07-0.675,2.07-1.62
				s-0.518-1.463-2.002-2.093c-2.206-0.878-3.174-2.116-3.174-3.557c0-2.07,1.688-3.713,4.299-3.713c1.215,0,2.273,0.337,2.948,0.72
				L540.797,156.828z"/>
			<path fill="#304068" d="M544.894,152.236l2.589-0.81v3.061h2.947v1.958h-2.947v6.279c0,1.531,0.473,2.273,1.574,2.273
				c0.519,0,0.834-0.067,1.148-0.157l0.09,2.003c-0.449,0.18-1.147,0.293-2.025,0.293c-1.035,0-1.913-0.338-2.453-0.945
				c-0.631-0.676-0.923-1.711-0.923-3.331v-6.415h-1.755v-1.958h1.755V152.236z"/>
			<path fill="#304068" d="M553.986,152.574c-0.9,0-1.508-0.675-1.508-1.508c0-0.878,0.631-1.53,1.53-1.53
				c0.9,0,1.509,0.652,1.509,1.53C555.518,151.899,554.932,152.574,553.986,152.574z M555.292,166.889h-2.61v-12.424h2.61V166.889z"
				/>
			<path fill="#304068" d="M566.996,166.506c-0.586,0.271-1.756,0.631-3.196,0.631c-3.578,0-5.919-2.454-5.919-6.325
				c0-3.758,2.431-6.594,6.414-6.594c1.193,0,2.229,0.292,2.769,0.563l-0.518,2.003c-0.45-0.226-1.171-0.495-2.228-0.495
				c-2.432,0-3.781,1.98-3.781,4.411c0,2.724,1.598,4.344,3.758,4.344c1.035,0,1.756-0.247,2.341-0.495L566.996,166.506z"/>
			<path fill="#304068" d="M570.643,152.574c-0.9,0-1.508-0.675-1.508-1.508c0-0.878,0.63-1.53,1.529-1.53
				c0.9,0,1.509,0.652,1.509,1.53C572.173,151.899,571.588,152.574,570.643,152.574z M571.947,166.889h-2.61v-12.424h2.61V166.889z"
				/>
			<path fill="#304068" d="M575.819,152.236l2.589-0.81v3.061h2.947v1.958h-2.947v6.279c0,1.531,0.473,2.273,1.574,2.273
				c0.519,0,0.834-0.067,1.148-0.157l0.09,2.003c-0.449,0.18-1.147,0.293-2.025,0.293c-1.035,0-1.913-0.338-2.453-0.945
				c-0.631-0.676-0.923-1.711-0.923-3.331v-6.415h-1.755v-1.958h1.755V152.236z"/>
			<path fill="#304068" d="M593.42,154.487l-2.994,8.598c-1.463,4.074-2.498,6.369-3.982,7.81c-1.126,1.035-2.273,1.463-2.881,1.599
				l-0.676-2.206c2.701-0.968,3.668-3.488,3.668-3.826c0-0.135-0.021-0.293-0.135-0.54l-4.254-11.434h2.859l2.25,6.978
				c0.248,0.81,0.495,1.755,0.676,2.476h0.066c0.181-0.721,0.428-1.644,0.653-2.476l2.003-6.978H593.42z"/>
			<path fill="#304068" d="M608.995,163.94c0,1.058,0.022,2.138,0.181,2.948h-2.363l-0.181-1.44h-0.067
				c-0.697,0.968-1.913,1.688-3.466,1.688c-2.318,0-3.646-1.711-3.646-3.624c0-3.083,2.679-4.614,6.933-4.614
				c0-0.923,0-2.768-2.498-2.768c-1.104,0-2.229,0.337-3.017,0.854l-0.54-1.732c0.878-0.563,2.341-1.035,4.006-1.035
				c3.646,0,4.659,2.408,4.659,5.041V163.94z M606.452,160.654c-2.048,0-4.411,0.383-4.411,2.588c0,1.373,0.855,1.981,1.822,1.981
				c1.418,0,2.589-1.081,2.589-2.521V160.654z"/>
			<path fill="#304068" d="M622.523,166.889h-2.611v-7.27c0-1.756-0.586-3.241-2.363-3.241c-1.283,0-2.656,1.058-2.656,3.038v7.473
				h-2.61v-8.913c0-1.372-0.045-2.431-0.09-3.488h2.272l0.136,1.846h0.067c0.585-1.058,1.891-2.115,3.759-2.115
				c1.936,0,4.097,1.26,4.097,5.086V166.889z"/>
			<path fill="#304068" d="M636.162,163.58c0,1.125,0.045,2.453,0.09,3.309h-2.295l-0.135-1.936h-0.068
				c-0.652,1.261-2.002,2.184-3.758,2.184c-2.813,0-4.951-2.499-4.951-6.325c0-4.208,2.408-6.594,5.176-6.594
				c1.598,0,2.746,0.72,3.286,1.665h0.045v-7.045h2.61V163.58z M633.552,159.507c0-2.026-1.282-3.219-2.745-3.219
				c-2.004,0-3.106,1.98-3.106,4.434c0,2.431,1.08,4.299,3.062,4.299c1.688,0,2.79-1.485,2.79-3.219V159.507z"/>
			<path fill="#304068" d="M654.461,154.487l-4.456,12.401h-2.499l-4.344-12.401h2.814l2.025,6.595
				c0.338,1.08,0.607,2.115,0.832,3.15h0.068c0.225-1.035,0.518-2.048,0.832-3.128l2.004-6.617H654.461z"/>
			<path fill="#304068" d="M667.088,160.587c0,4.637-3.016,6.55-5.807,6.55c-3.219,0-5.672-2.363-5.672-6.37
				c0-4.186,2.566-6.549,5.852-6.549C664.859,154.218,667.088,156.783,667.088,160.587z M661.371,156.176
				c-2.229,0-3.083,2.386-3.083,4.523c0,2.431,1.147,4.479,3.062,4.479c1.89,0,3.061-2.048,3.061-4.523
				C664.41,158.606,663.555,156.176,661.371,156.176z"/>
			<path fill="#304068" d="M672.288,166.889h-2.61v-18.051h2.61V166.889z"/>
			<path fill="#304068" d="M676.137,152.236l2.588-0.81v3.061h2.949v1.958h-2.949v6.279c0,1.531,0.473,2.273,1.576,2.273
				c0.518,0,0.832-0.067,1.147-0.157l0.091,2.003c-0.451,0.18-1.148,0.293-2.026,0.293c-1.035,0-1.913-0.338-2.453-0.945
				c-0.63-0.676-0.923-1.711-0.923-3.331v-6.415h-1.756v-1.958h1.756V152.236z"/>
			<path fill="#304068" d="M692.611,163.94c0,1.058,0.023,2.138,0.181,2.948h-2.363l-0.181-1.44h-0.066
				c-0.698,0.968-1.914,1.688-3.467,1.688c-2.318,0-3.646-1.711-3.646-3.624c0-3.083,2.68-4.614,6.933-4.614
				c0-0.923,0-2.768-2.498-2.768c-1.103,0-2.228,0.337-3.017,0.854l-0.539-1.732c0.877-0.563,2.34-1.035,4.006-1.035
				c3.646,0,4.658,2.408,4.658,5.041V163.94z M690.068,160.654c-2.048,0-4.411,0.383-4.411,2.588c0,1.373,0.855,1.981,1.823,1.981
				c1.418,0,2.588-1.081,2.588-2.521V160.654z"/>
			<path fill="#304068" d="M706.252,154.487c-0.067,0.878-0.112,1.913-0.112,3.579v7.066c0,2.477-0.202,7.045-6.077,7.045
				c-1.44,0-2.948-0.315-3.916-0.9l0.585-2.025c0.766,0.45,1.958,0.878,3.354,0.878c2.026,0,3.466-1.126,3.466-3.938v-1.193h-0.045
				c-0.63,1.058-1.846,1.823-3.443,1.823c-2.926,0-4.929-2.589-4.929-6.055c0-4.209,2.543-6.549,5.244-6.549
				c1.845,0,2.881,0.945,3.398,1.936h0.045l0.112-1.666H706.252z M703.529,159.281c0-1.643-1.081-2.993-2.679-2.993
				c-1.801,0-3.062,1.71-3.062,4.366c0,2.431,1.104,4.164,3.039,4.164c1.35,0,2.701-1.035,2.701-3.106V159.281z"/>
			<path fill="#304068" d="M718.541,166.394c-0.877,0.405-2.25,0.743-3.938,0.743c-3.735,0-5.896-2.499-5.896-6.28
				c0-3.69,2.07-6.639,5.581-6.639c3.489,0,4.885,2.903,4.885,5.964c0,0.428-0.023,0.788-0.068,1.103h-7.877
				c0.068,2.791,1.801,3.849,3.759,3.849c1.373,0,2.318-0.247,3.128-0.585L718.541,166.394z M716.695,159.416
				c0.023-1.485-0.584-3.33-2.588-3.33c-1.913,0-2.723,1.89-2.858,3.33H716.695z"/>
		</g>
		<g enable-background="new    ">
			<path fill="#304068" d="M510.727,185.622c-0.226-0.045-0.473-0.067-0.766-0.067c-1.756,0-2.858,1.44-2.858,3.601v6.572h-2.61
				v-8.62c0-1.44-0.023-2.633-0.09-3.781h2.272l0.09,2.273h0.091c0.563-1.575,1.867-2.543,3.218-2.543
				c0.247,0,0.428,0.022,0.653,0.067V185.622z"/>
			<path fill="#304068" d="M521.822,195.232c-0.878,0.405-2.251,0.743-3.939,0.743c-3.735,0-5.896-2.499-5.896-6.28
				c0-3.69,2.07-6.639,5.582-6.639c3.488,0,4.884,2.903,4.884,5.964c0,0.428-0.022,0.788-0.067,1.103h-7.877
				c0.067,2.791,1.801,3.849,3.758,3.849c1.373,0,2.318-0.247,3.129-0.585L521.822,195.232z M519.977,188.255
				c0.022-1.485-0.585-3.33-2.588-3.33c-1.914,0-2.724,1.89-2.859,3.33H519.977z"/>
			<path fill="#304068" d="M531.141,185.667c-0.494-0.315-1.35-0.697-2.363-0.697c-1.17,0-1.801,0.675-1.801,1.508
				c0,0.855,0.563,1.282,2.071,1.936c2.048,0.832,3.128,1.958,3.128,3.759c0,2.386-1.822,3.804-4.636,3.804
				c-1.306,0-2.544-0.338-3.376-0.833l0.585-1.936c0.63,0.383,1.778,0.832,2.836,0.832c1.396,0,2.07-0.675,2.07-1.62
				s-0.518-1.463-2.003-2.093c-2.205-0.878-3.174-2.116-3.174-3.557c0-2.07,1.688-3.713,4.299-3.713c1.216,0,2.273,0.337,2.949,0.72
				L531.141,185.667z"/>
			<path fill="#304068" d="M536.025,181.413c-0.9,0-1.508-0.675-1.508-1.508c0-0.878,0.63-1.53,1.529-1.53
				c0.9,0,1.509,0.652,1.509,1.53C537.556,180.738,536.971,181.413,536.025,181.413z M537.33,195.728h-2.61v-12.424h2.61V195.728z"
				/>
			<path fill="#304068" d="M546.852,185.667c-0.495-0.315-1.351-0.697-2.363-0.697c-1.17,0-1.801,0.675-1.801,1.508
				c0,0.855,0.563,1.282,2.07,1.936c2.049,0.832,3.129,1.958,3.129,3.759c0,2.386-1.823,3.804-4.637,3.804
				c-1.305,0-2.543-0.338-3.375-0.833l0.584-1.936c0.631,0.383,1.778,0.832,2.836,0.832c1.396,0,2.07-0.675,2.07-1.62
				s-0.518-1.463-2.002-2.093c-2.206-0.878-3.174-2.116-3.174-3.557c0-2.07,1.688-3.713,4.299-3.713c1.215,0,2.273,0.337,2.948,0.72
				L546.852,185.667z"/>
			<path fill="#304068" d="M550.948,181.075l2.589-0.81v3.061h2.947v1.958h-2.947v6.279c0,1.531,0.473,2.273,1.574,2.273
				c0.519,0,0.834-0.067,1.148-0.157l0.09,2.003c-0.449,0.18-1.147,0.293-2.025,0.293c-1.035,0-1.913-0.338-2.453-0.945
				c-0.631-0.676-0.923-1.711-0.923-3.331v-6.415h-1.755v-1.958h1.755V181.075z"/>
			<path fill="#304068" d="M567.424,192.779c0,1.058,0.021,2.138,0.18,2.948h-2.363l-0.18-1.44h-0.068
				c-0.697,0.968-1.912,1.688-3.465,1.688c-2.318,0-3.646-1.711-3.646-3.624c0-3.083,2.678-4.614,6.932-4.614
				c0-0.923,0-2.768-2.498-2.768c-1.104,0-2.229,0.337-3.016,0.854l-0.541-1.732c0.879-0.563,2.342-1.035,4.007-1.035
				c3.646,0,4.659,2.408,4.659,5.041V192.779z M564.881,189.493c-2.049,0-4.412,0.383-4.412,2.588c0,1.373,0.855,1.981,1.823,1.981
				c1.418,0,2.589-1.081,2.589-2.521V189.493z"/>
			<path fill="#304068" d="M580.951,195.728h-2.611v-7.27c0-1.756-0.586-3.241-2.363-3.241c-1.283,0-2.656,1.058-2.656,3.038v7.473
				h-2.61v-8.913c0-1.372-0.045-2.431-0.09-3.488h2.272l0.136,1.846h0.067c0.585-1.058,1.891-2.115,3.759-2.115
				c1.936,0,4.097,1.26,4.097,5.086V195.728z"/>
			<path fill="#304068" d="M592.588,195.345c-0.586,0.271-1.756,0.631-3.197,0.631c-3.578,0-5.918-2.454-5.918-6.325
				c0-3.758,2.43-6.594,6.414-6.594c1.192,0,2.229,0.292,2.768,0.563l-0.518,2.003c-0.449-0.226-1.17-0.495-2.228-0.495
				c-2.431,0-3.781,1.98-3.781,4.411c0,2.724,1.598,4.344,3.759,4.344c1.035,0,1.756-0.247,2.34-0.495L592.588,195.345z"/>
			<path fill="#304068" d="M603.999,195.232c-0.878,0.405-2.251,0.743-3.938,0.743c-3.736,0-5.896-2.499-5.896-6.28
				c0-3.69,2.07-6.639,5.581-6.639c3.489,0,4.884,2.903,4.884,5.964c0,0.428-0.022,0.788-0.067,1.103h-7.878
				c0.068,2.791,1.801,3.849,3.76,3.849c1.373,0,2.318-0.247,3.128-0.585L603.999,195.232z M602.153,188.255
				c0.022-1.485-0.585-3.33-2.589-3.33c-1.912,0-2.723,1.89-2.857,3.33H602.153z"/>
			<path fill="#304068" d="M606.79,194.197c0-1.035,0.72-1.801,1.688-1.801c0.99,0,1.665,0.743,1.665,1.801
				c0,1.035-0.652,1.778-1.688,1.778C607.42,195.976,606.79,195.188,606.79,194.197z"/>
		</g>
	</g>
</g>
</svg>
