<?xml version="1.0" encoding="utf-8"?>
<!-- Generator: Adobe Illustrator 16.0.0, SVG Export Plug-In . SVG Version: 6.00 Build 0)  -->
<!DOCTYPE svg PUBLIC "-//W3C//DTD SVG 1.1//EN" "http://www.w3.org/Graphics/SVG/1.1/DTD/svg11.dtd">
<svg version="1.1" id="圖層_1" xmlns="http://www.w3.org/2000/svg" xmlns:xlink="http://www.w3.org/1999/xlink" x="0px" y="0px"
	 width="800px" height="226.83px" viewBox="0 0 800 226.83" enable-background="new 0 0 800 226.83" xml:space="preserve">
<g id="圖層_1_1_" display="none">
	<g display="inline">
		<g>
			<g>
				<circle fill="#B2C1D8" stroke="#304068" stroke-width="4" stroke-miterlimit="10" cx="385.362" cy="123.952" r="91.594"/>
				<circle fill="#B2C1D8" stroke="#304068" stroke-width="4" stroke-miterlimit="10" cx="385.363" cy="123.952" r="66.678"/>
				<g>
					<circle fill="#B2C1D8" stroke="#304068" stroke-width="4" stroke-miterlimit="10" cx="384.61" cy="89.026" r="28.865"/>
					<circle fill="#B2C1D8" stroke="#304068" stroke-width="4" stroke-miterlimit="10" cx="384.61" cy="89.026" r="17.746"/>
				</g>
				<g>
					<circle fill="#B2C1D8" stroke="#304068" stroke-width="4" stroke-miterlimit="10" cx="355.745" cy="143.931" r="28.865"/>
					<circle fill="#B2C1D8" stroke="#304068" stroke-width="4" stroke-miterlimit="10" cx="355.746" cy="143.931" r="17.746"/>
				</g>
				<g>
					<circle fill="#B2C1D8" stroke="#304068" stroke-width="4" stroke-miterlimit="10" cx="413.475" cy="145.663" r="28.865"/>
					<circle fill="#B2C1D8" stroke="#304068" stroke-width="4" stroke-miterlimit="10" cx="413.475" cy="145.663" r="17.745"/>
				</g>
			</g>
		</g>
		<polyline fill="none" stroke="#304068" stroke-width="2" stroke-miterlimit="10" points="427.672,57.276 491.426,16.238 
			759.836,16.238 		"/>
		<polyline fill="none" stroke="#304068" stroke-width="2" stroke-miterlimit="10" points="355.745,84.574 263.381,29.976 
			39.196,29.976 		"/>
		<g>
			<rect x="36.98" y="47.073" fill="none" width="243.416" height="150.606"/>
			
				<text transform="matrix(1 0 0 1 36.9805 66.8818)" fill="#304068" font-family="'AdobeFanHeitiStd-Bold-B5pc-H'" font-size="22.5082">Inner wire uses ETFE </text>
			
				<text transform="matrix(1 0 0 1 36.9805 95.7207)" fill="#304068" font-family="'AdobeFanHeitiStd-Bold-B5pc-H'" font-size="22.5082">material, has extremely </text>
			
				<text transform="matrix(1 0 0 1 36.9805 124.5596)" fill="#304068" font-family="'AdobeFanHeitiStd-Bold-B5pc-H'" font-size="22.5082">durable cover, with </text>
			
				<text transform="matrix(1 0 0 1 36.9805 153.3984)" fill="#304068" font-family="'AdobeFanHeitiStd-Bold-B5pc-H'" font-size="22.5082">great chemical </text>
			
				<text transform="matrix(1 0 0 1 36.9805 182.2363)" fill="#304068" font-family="'AdobeFanHeitiStd-Bold-B5pc-H'" font-size="22.5082">resistance.</text>
		</g>
		<g>
			<rect x="502.826" y="31.726" fill="none" width="257.01" height="168.736"/>
			
				<text transform="matrix(1 0 0 1 502.8262 51.5342)" fill="#304068" font-family="'AdobeFanHeitiStd-Bold-B5pc-H'" font-size="22.5082">Medical grade silicone </text>
			
				<text transform="matrix(1 0 0 1 502.8262 80.373)" fill="#304068" font-family="'AdobeFanHeitiStd-Bold-B5pc-H'" font-size="22.5082">jacket, with high </text>
			
				<text transform="matrix(1 0 0 1 502.8262 109.2119)" fill="#304068" font-family="'AdobeFanHeitiStd-Bold-B5pc-H'" font-size="22.5082">temperature resistance </text>
			
				<text transform="matrix(1 0 0 1 502.8262 138.0508)" fill="#304068" font-family="'AdobeFanHeitiStd-Bold-B5pc-H'" font-size="22.5082">and consistency, high </text>
			
				<text transform="matrix(1 0 0 1 502.8262 166.8887)" fill="#304068" font-family="'AdobeFanHeitiStd-Bold-B5pc-H'" font-size="22.5082">elasticity and voltage </text>
			
				<text transform="matrix(1 0 0 1 502.8262 195.7275)" fill="#304068" font-family="'AdobeFanHeitiStd-Bold-B5pc-H'" font-size="22.5082">resistance.</text>
		</g>
	</g>
</g>
<g id="圖層_2">
	<g>
		<g>
			<g>
				<circle fill="#B2C1D8" stroke="#304068" stroke-width="4" stroke-miterlimit="10" cx="386.177" cy="123.609" r="91.594"/>
				<path fill="#B2C1D8" stroke="#304068" stroke-width="4" stroke-miterlimit="10" d="M452.855,123.608
					c0,36.826-29.853,66.68-66.676,66.68c-36.828,0-66.679-29.854-66.679-66.68c0-36.826,29.851-66.675,66.679-66.675
					C423.004,56.933,452.855,86.783,452.855,123.608z"/>
				<g>
					<circle fill="#B2C1D8" stroke="#304068" stroke-width="4" stroke-miterlimit="10" cx="385.425" cy="88.683" r="28.864"/>
					<circle fill="#B2C1D8" stroke="#304068" stroke-width="4" stroke-miterlimit="10" cx="385.426" cy="88.683" r="17.746"/>
				</g>
				<g>
					<circle fill="#B2C1D8" stroke="#304068" stroke-width="4" stroke-miterlimit="10" cx="356.56" cy="143.587" r="28.864"/>
					<circle fill="#B2C1D8" stroke="#304068" stroke-width="4" stroke-miterlimit="10" cx="356.561" cy="143.587" r="17.746"/>
				</g>
				<g>
					<circle fill="#B2C1D8" stroke="#304068" stroke-width="4" stroke-miterlimit="10" cx="414.289" cy="145.32" r="28.865"/>
					<circle fill="#B2C1D8" stroke="#304068" stroke-width="4" stroke-miterlimit="10" cx="414.29" cy="145.32" r="17.745"/>
				</g>
			</g>
		</g>
		<polyline fill="none" stroke="#304068" stroke-width="2" stroke-miterlimit="10" points="428.486,56.933 492.24,15.895 
			760.65,15.895 		"/>
		<polyline fill="none" stroke="#304068" stroke-width="2" stroke-miterlimit="10" points="356.561,84.231 264.197,29.632 
			40.012,29.632 		"/>
		<g>
			<rect x="37.796" y="46.73" fill="none" width="226.75" height="114.605"/>
			<g enable-background="new    ">
				<path fill="#304068" d="M52.493,50.414h-6.887v2.004h-1.913v-2.004h-4.974v-1.912h4.974v-1.981h1.913v1.981h6.887v-1.981h1.913
					v1.981h4.839v1.912h-4.839v2.273h-1.913V50.414z M38.719,65.291c1.013-4.613,1.553-8.35,1.575-11.23l1.913,0.18
					c-0.022,3.196-0.563,6.978-1.598,11.344L38.719,65.291z M43.963,53.295h1.913v10.533c-0.022,0.698,0.045,1.261,1.215,1.261
					h5.019c0.63,0,1.058-0.202,1.283-0.518c0.27-0.473,0.383-1.913,0.383-4.276l1.913,0.36c0,3.061-0.225,4.929-0.675,5.514
					c-0.608,0.676-0.9,0.833-2.273,0.833h-6.504c-1.17,0-2.363-0.675-2.273-2.858V53.295z M49.904,61.758
					c-0.495-3.826-1.125-6.864-1.89-9.093l1.89-0.45c0.855,2.476,1.463,5.537,1.891,9.205L49.904,61.758z M57.557,64.684
					c-0.675-4.456-1.485-7.944-2.431-10.488l1.868-0.518c1.058,2.836,1.868,6.37,2.453,10.623L57.557,64.684z"/>
				<path fill="#304068" d="M64.4,57.685l-2.948,0.404c-0.09-0.495-0.225-1.058-0.473-1.665l1.868-0.293l1.508-1.98
					c-1.103-0.99-2.206-1.8-3.354-2.386l0.788-1.53l0.9,0.495c0.675-1.237,1.328-2.655,1.936-4.164l1.53,0.811
					c-0.427,1.103-1.17,2.521-2.161,4.299l1.261,1.013c0.675-1.215,1.147-2.386,1.463-3.556l1.688,0.45
					c-0.405,1.665-1.531,3.736-3.421,6.212l1.936-0.315l-0.36-1.192l1.576-0.383c0.495,1.485,0.877,2.836,1.103,4.006l-1.598,0.271
					l-0.225-0.968l-1.193,0.202v9.79H64.4V57.685z M61.182,65.787c0.337-1.801,0.607-4.029,0.743-6.617l1.688,0.225
					c-0.09,2.251-0.36,4.502-0.743,6.752L61.182,65.787z M67.484,63.806c-0.135-1.305-0.383-2.79-0.72-4.344l1.621-0.247l0.72,4.479
					L67.484,63.806z M69.622,57.909h3.286l0.922,0.563c-0.72,2.746-1.598,4.524-4.141,7.563l-1.373-1.283
					c2.611-2.363,3.489-4.546,3.489-4.816c0-0.202-0.113-0.292-0.315-0.292h-1.868V57.909z M76.284,56.334
					c0.337,1.306,0.743,2.453,1.147,3.398c1.215-0.923,2.161-1.778,2.836-2.521l1.238,1.396c-0.81,0.877-1.868,1.8-3.151,2.768
					c0.833,1.283,2.048,2.656,3.601,4.052l-1.666,1.035c-1.666-1.644-3.083-3.533-4.208-5.649v4.502c0,0.63-0.292,2.138-2.229,2.138
					c-0.675,0-1.553-0.135-2.633-0.428l0.045-1.891c0.99,0.293,1.755,0.45,2.228,0.45s0.765-0.112,0.765-0.742v-8.508h-4.636
					c-0.158,0-0.248-0.09-0.248-0.248v-7.562c0-0.158,0.09-0.248,0.248-0.248h3.736c0.293-0.72,0.518-1.328,0.63-1.823l1.823,0.631
					l-0.36,1.192h5.154c0.18,0,0.27,0.09,0.27,0.248v7.562c0,0.158-0.09,0.248-0.27,0.248H76.284z M71.107,51.518h8.012v-1.53
					l-0.067-0.068h-7.877c-0.067,0-0.09,0.023-0.067,0.068V51.518z M79.12,53.183h-8.012v1.418l0.067,0.09h7.877l0.067-0.09V53.183z
					"/>
				<path fill="#304068" d="M87.944,58.63c-0.9,1.08-1.913,2.138-2.993,3.128l-1.485-1.192c3.083-2.656,5.469-5.762,7.089-9.229
					h-5.582v-1.845h3.668c-0.945-0.721-1.733-1.261-2.386-1.599l0.968-1.463c0.855,0.405,1.778,1.058,2.813,1.913l-0.855,1.148h2.07
					l0.945-2.994l1.823,0.563l-0.811,2.431h8.26c0.248,0,0.743,0.314,0.743,0.81c0,0.067,0,0.136-0.022,0.203l-0.811,2.7h1.103
					c0.315,0,0.788,0.338,0.788,0.811c0,0.067,0,0.135-0.022,0.202l-0.81,2.566h1.148c0.54,0.112,0.743,0.157,0.743,1.058
					c0,1.868-0.045,3.511-0.158,4.951c-0.067,1.463-0.383,2.521-0.9,3.151c-1.17,1.44-2.588,1.44-3.106,1.44
					c-0.765,0-1.71-0.135-2.791-0.405v-2.251c1.147,0.495,1.778,0.653,2.295,0.653c0.698,0,1.373-0.271,1.98-0.833
					c0.383-0.405,0.585-1.08,0.653-2.025c0.09-1.148,0.113-2.049,0.113-2.679c0-1.035-0.09-1.215-0.338-1.215H87.944z
					 M88.709,60.902c-0.72,2.611-1.756,4.704-3.039,6.302c-0.495-0.563-0.99-0.944-1.44-1.192c1.238-1.508,2.116-3.421,2.543-5.672
					L88.709,60.902z M89.362,56.807h11.073l0.563-1.778H90.532L89.362,56.807z M90.307,66.597c0-1.801-0.135-3.871-0.495-6.122
					l1.801-0.112c0.315,2.566,0.495,4.682,0.495,6.234H90.307z M91.59,53.205h7.787l0.563-1.868h-7.45L91.59,53.205z M94.809,65.696
					c-0.158-0.945-0.675-2.813-1.463-5.559l1.755-0.405c0.63,1.846,1.125,3.759,1.485,5.694L94.809,65.696z M98.995,63.941
					c-0.405-1.059-1.125-2.408-2.093-4.097l1.666-0.765c0.877,1.463,1.575,2.881,2.093,4.208L98.995,63.941z"/>
				<path fill="#304068" d="M116.506,65.539h-9.385V48.321h9.002v2.184h-6.392v4.974h6.032v2.161h-6.032v5.716h6.775V65.539z"/>
				<path fill="#304068" d="M129.403,50.55h-4.659v14.989h-2.611V50.55h-4.636v-2.229h11.906V50.55z"/>
				<path fill="#304068" d="M131.339,65.539V48.321h8.958v2.184h-6.347v5.312h5.897v2.16h-5.897v7.563H131.339z"/>
				<path fill="#304068" d="M152.609,65.539h-9.385V48.321h9.002v2.184h-6.392v4.974h6.032v2.161h-6.032v5.716h6.775V65.539z"/>
				<path fill="#304068" d="M162.468,58.247c-0.63-1.08-1.44-2.251-2.341-3.534v12.491h-1.913V56.356
					c-0.788,1.868-1.553,3.354-2.251,4.366l-1.8-0.63c2.543-3.512,3.173-5.694,3.804-7.923h-3.309v-1.913h3.556v-3.736h1.913v3.736
					h2.565v1.913h-2.431c1.351,1.575,2.588,3.219,3.736,4.951L162.468,58.247z M161.905,61.533c3.444-2.634,6.145-5.807,8.08-9.453
					h-5.739v-1.913h6.369v-3.488h1.913v3.488h2.543v1.913h-2.543v12.829c0,1.62-1.125,2.363-2.926,2.363
					c-1.013,0-2.341-0.226-3.938-0.653l0.045-2.003c1.553,0.473,2.746,0.698,3.579,0.698c1.17,0,1.328-0.383,1.328-0.9v-9.678
					c-2.161,3.556-4.569,6.279-7.112,8.124L161.905,61.533z"/>
				<path fill="#304068" d="M182.095,51.022h-2.386c-0.158,1.305-0.698,2.543-1.508,3.69l-1.62-1.237
					c0.855-1.013,1.328-2.116,1.373-3.331v-2.813c-0.022-0.405,0.135-0.63,0.54-0.63h1.306c2.183,0,4.096-0.09,5.717-0.315
					l0.54,1.778c-2.363,0.27-3.938,0.338-5.987,0.338c-0.292,0-0.292,0.09-0.292,0.787h7.787v1.733h-3.646v2.543h-1.823V51.022z
					 M190.872,64.392h-7.157l0.428,1.485c-1.823,0.697-4.119,1.26-6.865,1.665l-0.382-1.801c2.408-0.404,4.389-0.854,5.942-1.35
					h-3.646c-0.337,0-0.473-0.181-0.473-0.518v-9.453c0-0.315,0.135-0.473,0.473-0.473h8.71l-1.283-1.216
					c1.081-0.968,1.666-1.98,1.71-3.038v-2.453c0-0.405,0.158-0.607,0.518-0.607l2.048,0.022c1.801,0,3.511-0.067,5.109-0.271
					l0.496,1.778c-2.116,0.225-3.714,0.247-6.1,0.247c-0.248,0-0.248,0.091-0.248,0.878h7.427v1.733h-3.376v2.543h-1.823v-2.543
					h-2.363c-0.225,0.878-0.833,1.868-1.755,2.926h6.977c0.338,0,0.495,0.157,0.495,0.473v9.453c0,0.337-0.157,0.518-0.495,0.518
					h-3.196c1.576,0.225,3.331,0.697,5.312,1.372l-0.473,1.778c-2.588-0.833-4.704-1.328-6.347-1.508L190.872,64.392z
					 M180.631,57.099h13.189v-1.327c0-0.067-0.022-0.091-0.067-0.091h-13.076c-0.068,0-0.068,0.046-0.045,0.091V57.099z
					 M193.82,61.488h-13.189v1.058c-0.022,0.067,0,0.09,0.045,0.112h13.076l0.067-0.112V61.488z M180.631,59.912h13.189v-1.237
					h-13.189V59.912z"/>
				<path fill="#304068" d="M207.641,61.375c0.473-1.44,0.968-3.668,1.193-5.289l3.061-0.292c-0.585,1.868-1.531,4.186-2.296,5.379
					L207.641,61.375z"/>
				<path fill="#304068" d="M224.073,57.977v-5.559h-2.161v-1.913h2.161v-3.826h1.913v3.826h1.845v1.913h-1.845v4.568l1.396-0.855
					l1.013,1.621c-0.968,0.697-1.778,1.17-2.408,1.396v6.031c0,0.9-0.518,2.139-1.891,2.139c-0.585,0-1.351-0.158-2.273-0.45
					l0.113-2.003c0.585,0.247,1.351,0.563,1.666,0.563c0.27,0,0.473-0.271,0.473-0.766v-4.523l-1.396,0.63l-0.99-1.643
					L224.073,57.977z M228.574,64.977c0.9-0.585,1.778-1.44,2.543-2.543l-4.006,0.787c-0.113-0.518-0.293-1.058-0.541-1.643
					l1.396-0.293c0.675-0.878,1.396-2.003,2.161-3.376c-1.08-1.306-2.228-2.363-3.398-3.196l0.99-1.44l0.788,0.631
					c0.428-1.08,0.833-2.251,1.193-3.489l1.621,0.631c-0.292,0.99-0.81,2.318-1.553,4.028l1.125,1.148
					c0.563-1.373,0.968-2.701,1.193-3.939l1.71,0.293c-0.36,2.273-1.598,5.042-3.736,8.26l1.823-0.36l0.36-1.732l1.688,0.27v0.226
					l-0.833,3.173c-0.833,2.026-2.543,3.736-5.086,5.042l-1.283-1.53L228.574,64.977z M234.021,48.142v-1.463h1.913v1.463h6.595
					v1.732h-14.54v-1.732H234.021z M240.277,65.021h2.363v1.733h-7.337c-0.405,0-0.63-0.226-0.63-0.653v-9.115l-0.585,0.9
					c-0.518-0.518-0.968-0.878-1.396-1.058c1.373-1.846,2.25-4.029,2.588-6.505l1.778,0.45c-0.158,0.766-0.383,1.553-0.675,2.386
					h2.206c0.428-1.035,0.743-1.913,0.9-2.655l1.666,0.563l-0.653,2.093h2.071l-0.158,1.733h-2.138v2.205h2.251v1.756h-2.251v2.206
					h2.251v1.732h-2.251V65.021z M238.455,57.099v-2.205h-1.688c-0.18,0-0.27,0.09-0.27,0.247v1.958H238.455z M238.455,61.061
					v-2.206h-1.958v2.206H238.455z M238.455,65.021v-2.229h-1.958v1.958c0,0.181,0.09,0.271,0.27,0.271H238.455z"/>
			</g>
			<g enable-background="new    ">
				<path fill="#304068" d="M45.268,91.902v4.209h-1.913V83.979l-0.54,0.405c-0.99,0.721-2.026,1.396-3.151,1.98l-1.238-1.688
					c3.038-1.508,5.537-3.443,7.495-5.784h-7.112V76.98h8.462l1.081-1.756l1.71,1.058l-0.428,0.698h9.521v1.913H48.352
					c-0.72,0.968-1.508,1.913-2.341,2.745h10.894c0.337,0,0.495,0.158,0.495,0.473v11.771c0,0.766-0.27,2.296-3.106,2.296
					c-0.878,0-1.936-0.158-3.151-0.428v-2.139c1.283,0.383,2.273,0.563,2.948,0.563c1.328,0,1.396-0.9,1.396-1.059v-1.215H45.268z
					 M45.268,85.848h10.218V83.71c0-0.112-0.068-0.158-0.18-0.158h-9.903c-0.113,0-0.135,0.046-0.135,0.158V85.848z M45.268,89.989
					h10.218v-2.229H45.268V89.989z"/>
				<path fill="#304068" d="M70.612,76.845V75.27h1.891v1.575h9.16v1.823H61.317v-1.823H70.612z M77.094,93.973
					c0,0.112-0.022,0.181-0.09,0.226c0.473,0.112,0.855,0.157,1.147,0.157c0.945,0,0.968-0.9,0.968-0.99v-5.627
					c0-0.09-0.045-0.135-0.135-0.135H64.041c-0.09,0-0.135,0.045-0.135,0.135v8.373h-1.913V86.32c0-0.314,0.158-0.473,0.45-0.473
					h18.14c0.315,0,0.45,0.158,0.45,0.473v7.833c0,0.518-0.135,2.16-2.565,2.16c-0.653,0-1.418-0.09-2.318-0.293l-0.045-1.777
					h-9.926c-0.157,0-0.248-0.09-0.248-0.271v-4.839c0-0.157,0.09-0.247,0.248-0.247h10.646c0.18,0,0.27,0.09,0.27,0.247V93.973z
					 M78.67,84.655c0,0.18-0.09,0.27-0.271,0.27H64.603c-0.158,0-0.248-0.09-0.248-0.27v-4.479c0-0.157,0.09-0.247,0.248-0.247
					h13.796c0.18,0,0.271,0.09,0.271,0.247V84.655z M76.757,81.662c0-0.068-0.023-0.091-0.09-0.091H66.336
					c-0.067,0-0.09,0.022-0.067,0.091v1.485c-0.022,0.067,0,0.09,0.067,0.112h10.331l0.09-0.112V81.662z M75.271,90.552h-7.517
					c-0.067,0-0.09,0-0.067,0.045v1.891l0.067,0.09h7.517l0.068-0.09v-1.891L75.271,90.552z"/>
				<path fill="#304068" d="M89.587,82.359h-2.431v5.379c0,3.016-0.675,5.672-1.958,7.878l-1.71-0.743
					c1.485-2.679,1.8-4.366,1.845-7.697v-9.903c0-0.337,0.18-0.518,0.496-0.518h7.629V75.27h1.913v1.485h8.395v1.823h-3.286v1.958
					h3.241v1.823h-3.241v2.61c0,0.608-0.315,0.9-0.9,0.9h-9.115c-0.585,0-0.878-0.292-0.878-0.9V82.359z M103.474,96.201
					c-3.151-0.518-5.896-1.238-8.215-2.116c-2.656,1.059-5.379,1.801-8.125,2.184l-0.63-1.891c2.881-0.36,4.569-0.721,6.504-1.328
					c-1.485-0.72-2.791-1.508-3.983-2.273l0.675-1.822c1.891,1.373,3.758,2.431,5.559,3.173c2.971-1.553,4.344-3.173,4.344-3.286
					c0-0.09-0.158-0.067-0.248-0.067H88.484v-1.822h12.626l1.328,1.103c-1.013,1.868-2.701,3.511-4.974,4.906
					c2.138,0.585,4.434,1.035,6.887,1.283L103.474,96.201z M89.587,80.536v-1.958h-2.183c-0.158,0-0.248,0.09-0.248,0.248v1.71
					H89.587z M98.567,80.536v-1.958H91.5v1.958H98.567z M98.252,84.047c0.203,0,0.315-0.09,0.315-0.292v-1.396H91.5v1.396
					c0,0.202,0.113,0.292,0.315,0.292H98.252z"/>
				<path fill="#304068" d="M113.063,82.089h-1.328v11.839h-1.733V82.089h-1.17c-0.09,0-0.135,0.045-0.135,0.136v13.706h-1.823
					V80.919c0-0.428,0.225-0.652,0.63-0.652h2.746l0.63-2.296h-4.456v-1.823h11.906v1.823h-5.492l-0.607,2.296h5.131
					c0.428,0,0.653,0.225,0.653,0.652v13.076c0,0.788-0.292,1.373-0.855,1.801c-0.36,0.247-0.945,0.36-1.755,0.36
					c-0.518,0-1.125-0.045-1.823-0.136l-0.202-2.048c0.788,0.226,1.417,0.338,1.823,0.338c0.72,0,0.99-0.563,0.99-0.945V82.225
					c0-0.091-0.045-0.136-0.157-0.136h-1.238v11.659h-1.733V82.089z M123.528,80.604h-5.132v-1.822h5.132V75.45h1.913v3.331h1.418
					v1.822h-1.418v13.234c0,0.675-0.338,2.341-2.701,2.341c-0.788,0-1.756-0.158-2.926-0.45v-1.98l0.315,0.067
					c0.945,0.27,1.688,0.383,2.25,0.383c1.013,0,1.148-0.36,1.148-0.855V80.604z M120.557,91.002
					c-0.337-3.038-0.877-5.739-1.575-8.058l1.868-0.36c0.788,3.062,1.35,5.808,1.598,8.216L120.557,91.002z"/>
				<path fill="#304068" d="M132.308,89.449c-0.383,2.318-0.968,4.456-1.756,6.302l-2.003-0.585c1.26-3.264,1.98-6.189,2.025-8.71
					v-9.791c0-0.36,0.18-0.563,0.563-0.563h16.205c0.405,0,0.608,0.202,0.608,0.585v16.925c0,2.454-2.093,2.454-2.836,2.454
					c-0.788,0-1.755-0.091-2.903-0.271l-0.067-2.206c1.26,0.338,2.206,0.518,2.835,0.518c0.698,0,1.058-0.18,1.058-1.08v-3.578
					h-6.009v6.054h-1.891v-6.054H132.308z M132.465,87.536h5.672v-3.894h-5.672V87.536z M138.137,81.729v-3.714h-5.424
					c-0.157,0-0.225,0.09-0.225,0.247v3.467H138.137z M140.027,78.016v3.714h6.009v-3.467c0-0.157-0.09-0.247-0.248-0.247H140.027z
					 M140.027,87.536h6.009v-3.894h-6.009V87.536z"/>
				<path fill="#304068" d="M153.758,94.94v1.013h-1.913V78.601c-0.022-0.202,0.09-0.292,0.315-0.292h2.318l0.99-2.949l1.778,0.653
					l-0.765,2.296h3.354c0.292,0,0.427,0.112,0.427,0.382v17.263h-1.913V94.94H153.758z M153.758,85.78h4.591v-5.312
					c0-0.18-0.09-0.247-0.292-0.247h-4.029c-0.202,0-0.292,0.067-0.27,0.247V85.78z M158.349,87.693h-4.591v5.334h4.591V87.693z
					 M163.751,79.591c-0.383,1.396-0.923,2.566-1.508,3.512l-1.868-0.631c1.26-2.115,2.048-4.434,2.228-6.909l1.891,0.18
					l-0.27,1.913h6.392c0.518,0.112,0.698,0.158,0.698,1.103c0,3.331-0.045,6.234-0.135,8.823c-0.113,4.254-0.968,6.887-2.543,7.854
					c-0.428,0.315-1.058,0.45-1.868,0.45c-1.058,0-2.431-0.247-4.096-0.742v-2.251c1.666,0.585,2.971,0.878,3.849,0.878
					c0.855,0,1.44-0.181,2.229-1.936c0.563-1.554,0.675-6.393,0.675-10.038c0-1.508,0-2.206-0.338-2.206H163.751z M165.867,90.35
					c-0.675-2.611-1.553-5.02-2.611-7.247l1.8-0.608c1.261,3.174,2.183,5.627,2.633,7.36L165.867,90.35z"/>
				<path fill="#304068" d="M173.588,89.134c1.733-1.891,2.994-3.488,3.781-4.839l1.485,1.08c-0.9,1.508-2.183,3.174-3.849,4.952
					L173.588,89.134z M176.919,83.598c-1.283-1.036-2.408-1.778-3.309-2.251l0.99-1.553c1.036,0.495,2.138,1.282,3.398,2.295
					L176.919,83.598z M183.176,94.04v-1.53h-7.202v-1.733h7.202v-1.35h1.846v1.35h7.337v1.733h-7.337v1.53h9.093v1.733h-20.076
					V94.04H183.176z M177.594,79.344c-1.215-0.99-2.251-1.711-3.106-2.139l1.013-1.553c0.968,0.518,2.025,1.238,3.196,2.229
					L177.594,79.344z M178.179,88.054c1.666-1.171,2.926-2.184,3.759-3.084l1.17,1.328c-0.945,1.013-2.251,2.07-3.849,3.151
					L178.179,88.054z M185.921,84.61h-6.167v-1.733h6.167v-1.575h-4.051v-1.463l-2.611,0.99l-0.833-1.733
					c3.804-0.99,6.37-2.273,7.652-3.759l1.666,0.473l-0.203,0.271c2.026,1.306,4.389,2.251,7.067,2.791l-0.855,1.755l-2.273-0.742
					v1.418h-3.736v1.575h6.099v1.733h-6.099v2.317c0,1.081-0.675,2.229-2.521,2.229c-0.63,0-1.396-0.09-2.296-0.315l-0.067-1.89
					c0.855,0.202,1.53,0.314,2.025,0.314c0.878,0,1.035-0.314,1.035-0.787V84.61z M190.896,79.658
					c-1.53-0.607-3.038-1.418-4.456-2.386c-1.103,0.855-2.499,1.666-4.164,2.386H190.896z M193.326,89.674
					c-1.598-1.396-2.926-2.408-4.051-3.038l1.036-1.44c1.26,0.72,2.611,1.756,4.119,3.105L193.326,89.674z"/>
				<path fill="#304068" d="M215.204,88.459c0,0.157-0.09,0.225-0.225,0.225h-14.472c-0.157,0-0.225-0.067-0.225-0.225V84.61
					l-0.675,0.314v2.026c0,3.601-0.968,7.337-1.733,8.8l-1.778-0.833c1.125-2.408,1.688-5.312,1.688-8.643v-9.993
					c0-0.45,0.225-0.675,0.653-0.675h16.925c0.473,0,0.675,0.225,0.675,0.675v3.106c0,0.473-0.203,0.697-0.675,0.697h-15.754v2.948
					c0.923-0.45,2.003-1.26,3.196-2.363l1.035,1.486l-1.71,1.372h11.366l-1.373-1.08l-0.292-0.045h-7.045v-1.553h7.45l0.428,0.112
					c1.17,0.968,2.656,1.756,4.411,2.318l-0.855,1.575l-1.013-0.405V88.459z M199.877,77.272c-0.18,0-0.27,0.091-0.27,0.248v0.9
					h14.336c0.18,0,0.271-0.09,0.271-0.271c0-0.787,0-0.878-0.271-0.878H199.877z M202.69,95.639v0.585h-1.823v-6.055
					c0-0.383,0.18-0.563,0.563-0.563h12.784c0.405,0,0.607,0.18,0.607,0.563v6.055h-1.823v-0.585H202.69z M203.59,86.051
					l-0.495-1.059h-1.013c-0.067,0-0.09,0.022-0.067,0.068v2.07l0.067,0.09h1.936L203.59,86.051z M202.69,91.97h10.308
					c0-0.811,0-0.9-0.27-0.9h-9.813c-0.135,0-0.225,0.067-0.225,0.203V91.97z M212.998,93.433H202.69v0.743h10.308V93.433z
					 M204.761,84.992l0.9,2.229h1.305v-2.229H204.761z M210.658,85.533l0.203-0.541H208.7v2.229h1.215L210.658,85.533z
					 M212.008,86.275l-0.427,0.945h1.8l0.09-0.09v-2.07l-0.09-0.068h-0.878L212.008,86.275z"/>
				<path fill="#304068" d="M227.021,90.214c0.473-1.44,0.968-3.668,1.193-5.289l3.061-0.292c-0.585,1.868-1.53,4.186-2.296,5.379
					L227.021,90.214z"/>
				<path fill="#304068" d="M244.083,89.629V76.822c0-0.404,0.203-0.63,0.63-0.63H258.6c0.45,0,0.653,0.226,0.653,0.63v12.807h2.565
					v1.756h-20.436v-1.756H244.083z M241.54,94.355c2.161-0.293,4.231-1.125,6.167-2.476l1.08,1.575
					c-2.431,1.598-4.636,2.521-6.549,2.746L241.54,94.355z M245.996,79.523h11.344v-1.328c0-0.18-0.068-0.27-0.27-0.27h-10.826
					c-0.18,0-0.248,0.09-0.248,0.27V79.523z M245.996,83.034h11.344v-1.777h-11.344V83.034z M245.996,86.298h11.344V84.79h-11.344
					V86.298z M245.996,89.629h11.344v-1.598h-11.344V89.629z M260.986,96.291c-2.633-1.216-4.771-2.025-6.482-2.453l0.653-1.823
					c1.913,0.45,4.074,1.283,6.549,2.476L260.986,96.291z"/>
			</g>
			<g enable-background="new    ">
				<path fill="#304068" d="M45.268,120.741v4.209h-1.913v-12.132l-0.54,0.405c-0.99,0.721-2.026,1.396-3.151,1.98l-1.238-1.688
					c3.038-1.508,5.537-3.443,7.495-5.784h-7.112v-1.913h8.462l1.081-1.756l1.71,1.058l-0.428,0.698h9.521v1.913H48.352
					c-0.72,0.968-1.508,1.913-2.341,2.745h10.894c0.337,0,0.495,0.158,0.495,0.473v11.771c0,0.766-0.27,2.296-3.106,2.296
					c-0.878,0-1.936-0.158-3.151-0.428v-2.139c1.283,0.383,2.273,0.563,2.948,0.563c1.328,0,1.396-0.9,1.396-1.059v-1.215H45.268z
					 M45.268,114.687h10.218v-2.138c0-0.112-0.068-0.158-0.18-0.158h-9.903c-0.113,0-0.135,0.046-0.135,0.158V114.687z
					 M45.268,118.828h10.218V116.6H45.268V118.828z"/>
				<path fill="#304068" d="M70.612,121.619h-9.205v-1.913h9.205v-1.733h-7.067c-0.337,0-0.495-0.18-0.495-0.518v-7.563
					c0-0.337,0.158-0.518,0.495-0.518h6.437v-5.177h1.913v1.306h8.8v1.823h-8.8v2.048h7.743c0.36,0,0.518,0.181,0.518,0.518v7.563
					c0,0.338-0.158,0.518-0.518,0.518h-7.135v1.733h9.16v1.913h-9.16v3.421h-1.891V121.619z M64.963,112.729h13.279v-1.44
					c0-0.067-0.022-0.09-0.09-0.09H65.031c-0.068,0-0.09,0.045-0.068,0.09V112.729z M78.242,114.552H64.963v1.485l0.068,0.112
					h13.121l0.09-0.112V114.552z"/>
				<path fill="#304068" d="M97.329,124.522c-5.807-0.158-8.597-1.013-10.96-4.187c-0.292,1.463-0.743,2.903-1.373,4.366
					c-0.585-0.383-1.125-0.63-1.575-0.742c1.463-3.196,1.755-5.537,1.755-7.855c0-0.585-0.022-1.215-0.067-1.891l1.845,0.09
					c-0.022,1.126-0.09,2.273-0.225,3.489c0.428,0.765,0.878,1.485,1.418,2.093v-7.359h-4.141v-1.823h4.141v-2.408h-3.511v-1.823
					h3.511v-2.273h1.823v2.273h2.948v1.823H89.97v2.408h3.196v1.823H89.97v2.745h2.948v1.823H89.97v4.299h0.045
					c1.666,0.833,3.916,1.238,6.64,1.216h7.629l-0.495,1.913H97.329z M102.326,107.35v0.742h-2.588
					c0.271,2.679,0.698,5.109,1.216,7.271c0.652-1.283,1.215-2.972,1.598-5.087l1.688,0.45c-0.54,2.588-1.463,4.839-2.678,6.662
					l0.608,1.688c0.225,0.518,0.36,0.811,0.45,0.811c0.383,0,0.36-2.251,0.338-2.746l1.666,0.473
					c-0.09,1.733-0.338,3.017-0.698,3.804c-0.225,0.293-0.518,0.698-1.125,0.698c-1.373,0-2.206-2.521-2.431-3.174
					c-1.373,1.396-2.926,2.431-4.636,3.084l-1.081-1.531c2.048-0.652,3.759-1.777,5.109-3.354c-0.811-2.678-1.396-5.717-1.733-9.048
					h-2.025c-0.135,0-0.203,0.046-0.18,0.203v8.237l1.958-1.192l0.9,1.598c-1.621,1.125-3.691,2.206-6.234,3.241l-0.81-1.666
					l2.431-1.08v-10.668c0-0.293,0.112-0.428,0.405-0.428h3.354l-0.113-2.161l1.755,0.203l0.113,1.958h2.295l-0.607-1.193
					l1.575-0.765c0.608,0.99,1.17,2.25,1.666,3.759l-1.643,0.675L102.326,107.35z"/>
				<path fill="#304068" d="M108.741,123.779v1.013h-1.913v-17.353c-0.022-0.202,0.09-0.292,0.315-0.292h2.318l0.99-2.949
					l1.778,0.653l-0.765,2.296h3.354c0.292,0,0.427,0.112,0.427,0.382v17.263h-1.913v-1.013H108.741z M108.741,114.619h4.591v-5.312
					c0-0.18-0.09-0.247-0.292-0.247h-4.029c-0.202,0-0.292,0.067-0.27,0.247V114.619z M113.333,116.532h-4.591v5.334h4.591V116.532z
					 M118.734,108.43c-0.383,1.396-0.923,2.566-1.508,3.512l-1.868-0.631c1.26-2.115,2.048-4.434,2.228-6.909l1.891,0.18
					l-0.27,1.913h6.392c0.518,0.112,0.698,0.158,0.698,1.103c0,3.331-0.045,6.234-0.135,8.823c-0.113,4.254-0.968,6.887-2.543,7.854
					c-0.428,0.315-1.058,0.45-1.868,0.45c-1.058,0-2.431-0.247-4.096-0.742v-2.251c1.666,0.585,2.971,0.878,3.849,0.878
					c0.855,0,1.44-0.181,2.229-1.936c0.563-1.554,0.675-6.393,0.675-10.038c0-1.508,0-2.206-0.338-2.206H118.734z M120.85,119.188
					c-0.675-2.611-1.553-5.02-2.611-7.247l1.8-0.608c1.261,3.174,2.183,5.627,2.633,7.36L120.85,119.188z"/>
				<path fill="#304068" d="M135.571,110.928h-1.328v11.839h-1.733v-11.839h-1.17c-0.09,0-0.135,0.045-0.135,0.136v13.706h-1.823
					v-15.012c0-0.428,0.225-0.652,0.63-0.652h2.746l0.63-2.296h-4.456v-1.823h11.906v1.823h-5.492l-0.607,2.296h5.131
					c0.428,0,0.653,0.225,0.653,0.652v13.076c0,0.788-0.292,1.373-0.855,1.801c-0.36,0.247-0.945,0.36-1.755,0.36
					c-0.518,0-1.125-0.045-1.823-0.136l-0.202-2.048c0.788,0.226,1.417,0.338,1.823,0.338c0.72,0,0.99-0.563,0.99-0.945v-11.141
					c0-0.091-0.045-0.136-0.157-0.136h-1.238v11.659h-1.733V110.928z M146.037,109.442h-5.132v-1.822h5.132v-3.331h1.913v3.331
					h1.418v1.822h-1.418v13.234c0,0.675-0.338,2.341-2.701,2.341c-0.788,0-1.756-0.158-2.926-0.45v-1.98l0.315,0.067
					c0.945,0.27,1.688,0.383,2.25,0.383c1.013,0,1.148-0.36,1.148-0.855V109.442z M143.065,119.841
					c-0.337-3.038-0.877-5.739-1.575-8.058l1.868-0.36c0.788,3.062,1.35,5.808,1.598,8.216L143.065,119.841z"/>
				<path fill="#304068" d="M154.478,113.336c-0.518,0.9-1.08,1.711-1.621,2.408l-1.845-0.877c2.453-3.196,4.051-6.775,4.771-10.669
					l1.958,0.405c-0.428,1.733-0.855,3.286-1.351,4.614v15.664h-1.913V113.336z M171.088,108.564
					c-2.993,2.972-5.964,5.042-8.845,6.145v6.797c-0.022,0.698,0.022,1.328,1.238,1.328h4.321c0.607,0,1.08-0.202,1.305-0.563
					l0.27-0.697c0.068-0.315,0.068-1.418,0.045-3.264l2.003,0.314v0.968c0,2.206,0,3.534-0.585,4.39
					c-0.675,0.765-1.035,0.854-2.408,0.854h-5.807c-1.688,0-2.453-1.215-2.386-2.993v-17.623h2.003v8.396
					c2.926-1.396,5.401-3.219,7.427-5.446L171.088,108.564z"/>
				<path fill="#304068" d="M191.143,111.716v-0.9h-3.286v-1.575h3.286v-0.721h-3.286v-1.553h3.286v-0.72
					c0-0.113-0.067-0.181-0.225-0.181h-2.971v-1.575h4.524c0.27,0,0.405,0.135,0.405,0.405v6.819h0.158l1.576,0.788
					c-0.068,1.215-0.338,2.655-0.878,4.321l-1.733-0.518c0.382-1.351,0.563-2.229,0.563-2.589c0-0.18-0.067-0.27-0.225-0.27h-16.475
					c-0.113,0-0.18,0.067-0.18,0.18v2.858h-1.823v-4.456c0-0.203,0.113-0.315,0.338-0.315h1.035v-6.797
					c-0.022-0.428,0.135-0.428,1.035-0.428c1.44,0,2.791-0.157,4.051-0.428l0.675,1.62c-1.17,0.271-2.521,0.428-3.961,0.428
					c-0.067,0-0.09,0.068-0.067,0.158v0.697h3.173v1.553h-3.173v0.811h3.264v1.575h-3.264v0.811h8.868l-1.44-1.125
					c-0.788,0.45-1.733,0.81-2.746,1.013l-0.653-1.485c0.675-0.136,1.305-0.315,1.913-0.54l-0.945-0.608l0.765-1.058l-1.013,0.338
					l-0.765-1.396c0.675-0.226,1.283-0.473,1.845-0.721l-1.147-0.607l0.788-1.328l1.891,1.036l1.373-1.171l1.058,1.147l-0.99,0.833
					l1.125,0.676l-0.9,1.282l0.833,1.059l-0.99,0.697l1.148,0.923l-0.9,1.035H191.143z M180.205,122.406
					c1.103,0.676,2.138,0.968,3.061,0.968c0.36,0,1.576-0.18,1.576-1.44c0-0.359-0.09-0.765-0.248-1.237h-9.768v-1.823h8.8
					c-0.338-0.495-0.698-0.968-1.125-1.396h1.058l3.128-1.396h-8.103v-1.732h10.218l1.373,1.98l-4.681,2.093l0.292,0.45h7.63v1.823
					h-6.797c0.18,0.63,0.203,0.742,0.203,1.305c0,2.634-2.183,3.196-3.398,3.196c-1.238,0-2.431-0.405-3.556-0.923L180.205,122.406z
					 M182.973,107.8l1.485,1.013l1.373-0.923l-1.418-0.878L182.973,107.8z"/>
				<path fill="#304068" d="M196.073,117.185c0.45-2.768,0.698-5.648,0.698-8.574l1.71,0.18c-0.09,3.331-0.337,6.234-0.72,8.688
					L196.073,117.185z M199.179,104.289h1.823v20.751h-1.823V104.289z M203.208,108.317l0.652,5.941l-1.643,0.181l-0.63-5.807
					L203.208,108.317z M209.69,122.52v-5.739h-4.524v-1.913h4.524v-5.199h-3.083c-0.292,0.945-0.608,1.755-0.968,2.431l-1.891-0.54
					c1.08-2.116,1.688-4.321,1.733-6.572l1.913,0.09c-0.067,0.99-0.158,1.891-0.315,2.679h2.611v-3.466h1.913v3.466h4.929v1.913
					h-4.929v5.199h4.659v1.913h-4.659v5.739h5.446v1.913h-13.211v-1.913H209.69z"/>
				<path fill="#304068" d="M232.266,114.664c0,1.733-1.418,3.151-3.151,3.151s-3.151-1.418-3.151-3.151
					c0-1.732,1.418-3.15,3.151-3.15C230.893,111.514,232.266,112.977,232.266,114.664z M231.32,114.664
					c0-1.215-0.99-2.205-2.206-2.205c-1.238,0-2.228,0.99-2.228,2.205c0,1.238,0.99,2.229,2.228,2.229
					C230.375,116.893,231.32,115.857,231.32,114.664z"/>
			</g>
		</g>
		<g>
			<rect x="503.641" y="31.382" fill="none" width="257.011" height="168.736"/>
			<g enable-background="new    ">
				<path fill="#304068" d="M518.136,44.092h5.063c0.361,0,0.563,0.181,0.563,0.54v7.54h-1.733v-0.54h-14.27v0.54h-1.732v-7.54
					c0-0.359,0.18-0.54,0.54-0.54h5.401v-0.765h-7.314v-1.576h20.436v1.576h-6.954V44.092z M513.185,39.501
					c-0.653-0.495-1.44-0.99-2.386-1.53h-0.022v0.045c-0.608,0.563-1.554,1.035-2.836,1.44l-0.563-1.351
					c1.147-0.203,1.98-0.54,2.431-0.99h-2.588v-1.283h2.947v-0.945h-1.395l-0.788,0.833c-0.315-0.473-0.607-0.811-0.923-1.035
					c0.518-0.518,0.968-1.126,1.261-1.778h-1.418c-0.136,0-0.202,0.067-0.202,0.202v6.28c0,0.157,0.066,0.225,0.202,0.225h7.495
					v1.283h-8.756c-0.314,0-0.495-0.158-0.495-0.518v-8.261c0-0.337,0.181-0.518,0.495-0.518h8.936l-0.158,1.306h-4.996l0.428,0.202
					l-0.314,0.563h4.298v1.215h-2.296v0.945h2.994v1.283h-2.813l2.161,1.17L513.185,39.501z M517.101,47.716
					c-0.45,0-0.698-0.248-0.698-0.721v-1.44h-3.061c-0.293,1.104-0.766,2.071-4.321,2.499l-0.337-1.599
					c1.71-0.067,2.768-0.36,3.128-0.9h-3.804c-0.18,0-0.27,0.091-0.248,0.248v2.543h14.27v-0.63H517.101z M522.029,49.562h-14.27
					v0.585h14.27V49.562z M516.402,44.092v-0.765h-2.971v0.765H516.402z M518.136,32.951c-0.18,0-0.18,0.067-0.18,0.473
					c0,1.216-1.306,1.801-2.544,2.161l-0.539-1.418c0.765-0.158,1.282-0.405,1.529-0.631c0.113-0.157,0.181-0.337,0.181-0.563
					v-1.103l0.09-0.226l0.202-0.09h4.795l0.225,0.067l0.112,0.248v1.396l0.112,0.495c0.068,0.112,0.248,0.157,0.518,0.18
					c0.406,0,0.451-0.022,0.811-0.112c0.068-0.022,0.09-0.157,0.09-0.405v-0.833l1.351,0.181c-0.067,1.282-0.202,2.003-0.382,2.138
					c-0.315,0.271-0.631,0.405-0.969,0.405h-1.508c-1.013-0.045-1.463-0.766-1.418-1.373v-0.765
					c-0.021-0.158-0.067-0.226-0.225-0.226H518.136z M516.83,37.07h-1.17v-1.373h7.563l1.058,0.473
					c0.045,0.022,0.067,0.067,0.067,0.112c0,0.022-0.022,0.067-0.045,0.112c-0.428,0.923-1.328,1.891-2.656,2.858
					c0.945,0.271,2.025,0.45,3.241,0.54l-0.585,1.508c-1.44-0.202-2.836-0.563-4.141-1.103c-1.261,0.563-2.634,0.9-4.142,0.99
					l-0.563-1.508c1.059,0,2.049-0.135,2.926-0.405l-2.07-1.485L516.83,37.07z M517.775,37.07c0.788,0.63,1.508,1.103,2.184,1.485
					c0.585-0.315,1.17-0.631,1.666-1.126c0-0.27-0.113-0.382-0.293-0.359H517.775z M518.136,45.555c0,0.811,0,0.945,0.405,0.945
					h3.488v-0.72c0-0.158-0.09-0.226-0.247-0.226H518.136z"/>
				<path fill="#304068" d="M538.776,47.355h-5.019c-0.136,0-0.203-0.067-0.203-0.225v-5.38l-0.923,0.338l-0.855-1.575
					c0.968-0.293,1.868-0.607,2.656-0.968l-1.756-0.99l0.833-1.44c0.766,0.337,1.62,0.832,2.521,1.508
					c0.743-0.585,1.328-1.171,1.688-1.711h-5.087v-1.575h5.762l0.157-1.17v-0.203h-6.752c-0.135,0-0.202,0.067-0.202,0.203v7.359
					c0,3.983-1.058,7.449-3.151,10.33l-1.575-0.787c1.192-1.733,2.003-3.331,2.408-4.839l0.428-2.521l-1.62,1.396L526.78,43.8
					c1.08-0.833,2.115-1.756,3.083-2.769v-8.26c0-0.315,0.135-0.473,0.45-0.473h7.45v-1.035h1.912v1.035h7.878v1.665h-7.27
					c0,0.428,0,0.766-0.136,1.373h6.91v1.575h-1.711l0.811,1.148c-0.495,0.428-1.08,0.832-1.756,1.282
					c0.451,0.181,1.283,0.518,3.422,0.721l-0.676,1.665l-1.395-0.27v5.672c0,0.157-0.091,0.225-0.248,0.225H540.6v2.611
					c0,0.27,0,2.138-2.387,2.138c-0.629,0-1.418-0.09-2.363-0.315v-1.913c0.924,0.248,1.644,0.36,2.116,0.36
					c0.54,0,0.811-0.112,0.811-0.742V47.355z M527.658,38.825c-0.09-1.282-0.383-3.038-0.811-5.289l1.688-0.247
					c0.406,1.755,0.698,3.578,0.833,5.424L527.658,38.825z M535.85,49.358c-1.777,1.351-3.51,2.251-5.176,2.634
					c-0.067-0.721-0.225-1.306-0.428-1.756c1.598-0.383,3.105-1.215,4.457-2.431L535.85,49.358z M535.287,42.989h8.711v-1.283
					l-0.068-0.045h-8.574c-0.068,0-0.09,0-0.068,0.045V42.989z M543.998,44.542h-8.711v1.171l0.068,0.09h8.574l0.068-0.09V44.542z
					 M542.467,40.086c-0.967-0.697-2.002-1.666-3.038-2.903c-0.563,1.058-1.44,2.025-2.61,2.903H542.467z M541.162,36.912
					c0.359,0.383,0.9,0.9,1.598,1.463c0.9-0.54,1.643-1.035,2.205-1.463H541.162z M546.699,51.992
					c-1.756-1.104-3.174-1.868-4.345-2.318l0.811-1.643c1.327,0.472,2.791,1.26,4.456,2.34L546.699,51.992z"/>
				<path fill="#304068" d="M552.754,42.246l-2.902,0.36c-0.068-0.518-0.226-1.103-0.451-1.778l1.576-0.202l1.756-2.093
					c-1.126-1.035-2.251-1.846-3.422-2.453l0.833-1.621c0.112,0.022,0.428,0.203,0.99,0.585c0.698-1.17,1.373-2.476,2.048-3.894
					l1.576,0.923c-0.473,0.99-1.216,2.296-2.273,3.962l1.238,0.99c0.675-1.104,1.192-2.229,1.529-3.309l1.756,0.563
					c-0.449,1.598-1.71,3.601-3.668,6.009l2.678-0.404l-0.585-1.396l1.665-0.563c0.653,1.644,1.171,3.106,1.531,4.412l-1.666,0.404
					l-0.314-1.058l-2.07,0.293v9.971h-1.824V42.246z M549.445,50.349c0.406-1.936,0.698-4.118,0.834-6.549l1.71,0.27
					c-0.226,2.813-0.518,5.042-0.878,6.64L549.445,50.349z M564.03,47.333c-1.282-1.958-2.183-4.501-2.634-7.563
					c-0.27,2.139-0.518,3.691-0.675,4.569c-0.765,3.264-1.688,5.739-2.724,7.359l-1.891-0.495c0.451-0.9,0.924-1.846,1.352-2.881
					l-1.531,0.135l-0.473-4.726l1.711-0.271l0.428,4.501c1.463-3.961,2.205-7.854,2.16-11.681v-2.543h-2.07v-1.913h10.061
					c0.338-0.045,0.855,0.359,0.855,0.81c0,0.046,0,0.113-0.023,0.158l-1.035,4.839h1.373l1.215,0.787
					c-0.449,3.624-1.71,6.707-3.69,9.161c0.9,1.013,2.161,2.093,3.804,3.218l-1.598,1.283c-1.441-1.147-2.589-2.206-3.422-3.174
					c-1.192,1.193-2.768,2.273-4.681,3.241l-1.464-1.508c1.779-0.878,3.174-1.733,4.143-2.565L564.03,47.333z M561.577,37.633h4.006
					l0.855-3.894h-4.771v2.543L561.577,37.633z M563.242,39.546c0.338,2.926,1.238,5.063,2.025,6.392
					c1.352-1.936,2.252-4.073,2.701-6.392H563.242z"/>
				<path fill="#304068" d="M575.982,50.304v1.193h-1.913v-8.53l-0.518,0.878l-1.755-0.788c1.98-2.903,3.037-6.009,3.105-9.228
					h-2.633v-1.913h8.912v1.913h-4.389c-0.113,2.679-0.811,4.659-0.9,4.906h4.321c0.405,0,0.607,0.181,0.607,0.585v0.811
					c1.868-1.868,2.903-3.714,2.813-8.62l1.711-0.09v0.811h6.594c0.225-0.022,0.428,0.045,0.428,0.247
					c-0.022,3.916-0.203,6.819-0.563,8.71c-1.305,6.662-4.479,8.665-9.318,10.826l-1.574-1.688c1.98-0.765,3.668-1.643,5.108-2.678
					c1.418-1.081,2.272-2.498,2.386-2.724c-1.238-1.328-2.903-2.948-5.02-4.861c-0.359,0.518-0.81,0.99-1.305,1.508l-1.261-1.013
					v9.115c0,0.428-0.226,0.63-0.63,0.63H575.982z M578.908,40.852c0-0.181-0.112-0.293-0.314-0.293h-2.297
					c-0.201,0-0.314,0.112-0.314,0.293v7.629h2.566c0.225,0,0.359-0.135,0.359-0.359V40.852z M586.809,40.716l2.453,2.408
					c0.742-2.272,1.17-5.267,1.215-8.979h-5.199c-0.112,1.665-0.449,3.105-0.945,4.299L586.809,40.716z"/>
				<path fill="#304068" d="M597.006,44.632c0,1.801-0.136,4.209-0.676,7.271l-1.868-0.383c0.518-2.386,0.811-5.02,0.811-7.811
					V32.163c0-0.292,0.135-0.427,0.405-0.427h4.411l0.271,0.112l0.157,0.314v18.681c0,1.059-1.013,1.261-1.126,1.261l-2.115-0.067
					l-0.248-1.913c0.766,0.157,1.261,0.27,1.486,0.27c0.247,0,0.27-0.135,0.27-0.225v-5.537H597.006z M597.006,37.452h1.777v-3.803
					l-0.067-0.136l-0.136-0.045h-1.395c-0.113,0-0.18,0.067-0.18,0.181V37.452z M597.006,42.899h1.777v-3.714h-1.777V42.899z
					 M614.516,44.475c-2.498-0.968-4.704-2.183-6.549-3.646c-1.531,1.238-3.625,2.454-6.234,3.579l-0.945-1.711
					c3.465-1.125,5.738-2.408,6.752-3.804l1.529,0.383l-0.494-1.463c0.922-0.36,1.936-0.833,2.971-1.418l0.72,1.576
					c-1.372,0.697-2.431,1.17-3.128,1.44l-0.135,0.202c1.846,1.373,4.028,2.453,6.481,3.151L614.516,44.475z M601.079,35.27
					c1.013-0.405,1.958-0.9,2.813-1.418l0.721,1.553l-2.927,1.485L601.079,35.27z M601.146,31.826h5.694
					c0.292,0,0.45,0.157,0.45,0.45v6.842h-1.733v-5.312c0-0.157-0.067-0.248-0.225-0.248h-4.187V31.826z M601.214,38.668
					c0.9-0.428,1.936-1.013,3.038-1.733l0.811,1.509c-1.305,0.832-2.363,1.417-3.15,1.777L601.214,38.668z M601.416,45.285
					c2.521-0.607,4.66-1.688,6.46-3.196l1.103,1.351c-2.363,1.891-4.637,3.061-6.752,3.533L601.416,45.285z M603.082,47.761
					c2.521-0.585,4.975-2.003,7.314-4.187l1.148,1.283c-2.543,2.431-5.604,4.073-9.07,4.884l-0.631-1.71L603.082,47.761z
					 M602.271,50.439c3.332-0.45,7.27-0.945,10.309-5.313l1.62,0.9l-1.035,1.418c-2.07,2.408-5.47,4.007-10.195,4.771
					L602.271,50.439z M608.012,35.359c0.539-0.202,1.553-0.72,2.992-1.508l0.721,1.553c-0.811,0.518-1.868,1.035-3.084,1.575
					L608.012,35.359z M608.168,31.916h5.897c0.271,0,0.428,0.157,0.428,0.428v8.192h-1.733v-6.64c0-0.157-0.067-0.247-0.225-0.247
					h-4.367V31.916z"/>
				<path fill="#304068" d="M620.279,42.337l-2.949,0.404c-0.09-0.495-0.225-1.058-0.473-1.665l1.869-0.293l1.508-1.98
					c-1.104-0.99-2.206-1.8-3.354-2.386l0.787-1.53l0.9,0.495c0.676-1.237,1.328-2.655,1.936-4.164l1.53,0.811
					c-0.427,1.103-1.17,2.521-2.161,4.299l1.262,1.013c0.674-1.215,1.146-2.386,1.463-3.556l1.688,0.45
					c-0.405,1.665-1.531,3.736-3.421,6.212l1.936-0.315l-0.36-1.192l1.576-0.383c0.494,1.485,0.877,2.836,1.102,4.006l-1.598,0.271
					l-0.225-0.968l-1.193,0.202v9.79h-1.822V42.337z M617.061,50.439c0.338-1.801,0.607-4.029,0.742-6.617l1.688,0.225
					c-0.091,2.251-0.36,4.502-0.743,6.752L617.061,50.439z M623.362,48.458c-0.136-1.305-0.383-2.79-0.72-4.344l1.62-0.247
					l0.72,4.479L623.362,48.458z M625.5,42.562h3.286l0.923,0.563c-0.721,2.746-1.598,4.524-4.141,7.563l-1.373-1.283
					c2.61-2.363,3.488-4.546,3.488-4.816c0-0.202-0.113-0.292-0.314-0.292H625.5V42.562z M632.162,40.986
					c0.338,1.306,0.743,2.453,1.148,3.398c1.215-0.923,2.16-1.778,2.836-2.521l1.237,1.396c-0.81,0.877-1.868,1.8-3.151,2.768
					c0.834,1.283,2.049,2.656,3.602,4.052l-1.666,1.035c-1.665-1.644-3.083-3.533-4.208-5.649v4.502c0,0.63-0.293,2.138-2.229,2.138
					c-0.675,0-1.553-0.135-2.634-0.428l0.046-1.891c0.99,0.293,1.755,0.45,2.228,0.45s0.766-0.112,0.766-0.742v-8.508H625.5
					c-0.157,0-0.247-0.09-0.247-0.248v-7.562c0-0.158,0.09-0.248,0.247-0.248h3.736c0.293-0.72,0.518-1.328,0.631-1.823l1.822,0.631
					l-0.359,1.192h5.154c0.18,0,0.27,0.09,0.27,0.248v7.562c0,0.158-0.09,0.248-0.27,0.248H632.162z M626.986,36.17h8.012v-1.53
					l-0.067-0.068h-7.878c-0.066,0-0.09,0.023-0.066,0.068V36.17z M634.998,37.835h-8.012v1.418l0.066,0.09h7.878l0.067-0.09V37.835
					z"/>
				<path fill="#304068" d="M647.693,42.899c-0.63-1.08-1.44-2.251-2.34-3.534v12.491h-1.914V41.009
					c-0.787,1.868-1.553,3.354-2.25,4.366l-1.801-0.63c2.543-3.512,3.174-5.694,3.804-7.923h-3.309v-1.913h3.556v-3.736h1.914v3.736
					h2.564v1.913h-2.43c1.35,1.575,2.588,3.219,3.736,4.951L647.693,42.899z M647.131,46.186c3.443-2.634,6.145-5.807,8.08-9.453
					h-5.739v-1.913h6.369v-3.488h1.913v3.488h2.543v1.913h-2.543v12.829c0,1.62-1.125,2.363-2.926,2.363
					c-1.013,0-2.341-0.226-3.938-0.653l0.045-2.003c1.553,0.473,2.745,0.698,3.579,0.698c1.17,0,1.327-0.383,1.327-0.9v-9.678
					c-2.161,3.556-4.569,6.279-7.112,8.124L647.131,46.186z"/>
				<path fill="#304068" d="M670.359,46.027c0.473-1.44,0.967-3.668,1.192-5.289l3.062-0.292c-0.586,1.868-1.531,4.186-2.297,5.379
					L670.359,46.027z"/>
				<path fill="#304068" d="M686.791,42.629V37.07h-2.161v-1.913h2.161v-3.826h1.912v3.826h1.846v1.913h-1.846v4.568l1.396-0.855
					l1.012,1.621c-0.967,0.697-1.777,1.17-2.408,1.396v6.031c0,0.9-0.518,2.139-1.891,2.139c-0.585,0-1.35-0.158-2.273-0.45
					l0.113-2.003c0.585,0.247,1.351,0.563,1.666,0.563c0.27,0,0.473-0.271,0.473-0.766V44.79l-1.396,0.63l-0.99-1.643
					L686.791,42.629z M691.292,49.629c0.899-0.585,1.778-1.44,2.543-2.543l-4.006,0.787c-0.112-0.518-0.293-1.058-0.54-1.643
					l1.395-0.293c0.676-0.878,1.396-2.003,2.161-3.376c-1.08-1.306-2.228-2.363-3.398-3.196l0.99-1.44l0.788,0.631
					c0.428-1.08,0.832-2.251,1.192-3.489l1.62,0.631c-0.292,0.99-0.81,2.318-1.553,4.028l1.125,1.148
					c0.563-1.373,0.969-2.701,1.193-3.939l1.711,0.293c-0.36,2.273-1.598,5.042-3.736,8.26l1.822-0.36l0.361-1.732l1.688,0.27v0.226
					l-0.833,3.173c-0.833,2.026-2.543,3.736-5.087,5.042l-1.282-1.53L691.292,49.629z M696.738,32.794v-1.463h1.913v1.463h6.595
					v1.732h-14.539v-1.732H696.738z M702.995,49.674h2.363v1.733h-7.337c-0.405,0-0.631-0.226-0.631-0.653v-9.115l-0.584,0.9
					c-0.519-0.518-0.969-0.878-1.396-1.058c1.373-1.846,2.251-4.029,2.589-6.505l1.778,0.45c-0.158,0.766-0.383,1.553-0.676,2.386
					h2.205c0.428-1.035,0.743-1.913,0.9-2.655l1.666,0.563l-0.652,2.093h2.07l-0.158,1.733h-2.138v2.205h2.251v1.756h-2.251v2.206
					h2.251v1.732h-2.251V49.674z M701.172,41.751v-2.205h-1.688c-0.18,0-0.27,0.09-0.27,0.247v1.958H701.172z M701.172,45.713
					v-2.206h-1.957v2.206H701.172z M701.172,49.674v-2.229h-1.957v1.958c0,0.181,0.09,0.271,0.27,0.271H701.172z"/>
				<path fill="#304068" d="M713.688,47.716v4.209h-1.913V39.793l-0.54,0.405c-0.99,0.721-2.025,1.396-3.15,1.98l-1.238-1.688
					c3.038-1.508,5.537-3.443,7.494-5.784h-7.111v-1.913h8.462l1.081-1.756l1.71,1.058l-0.428,0.698h9.521v1.913h-10.803
					c-0.721,0.968-1.508,1.913-2.342,2.745h10.895c0.337,0,0.494,0.158,0.494,0.473v11.771c0,0.766-0.27,2.296-3.105,2.296
					c-0.878,0-1.936-0.158-3.15-0.428v-2.139c1.282,0.383,2.272,0.563,2.947,0.563c1.328,0,1.396-0.9,1.396-1.059v-1.215H713.688z
					 M713.688,41.661h10.219v-2.138c0-0.112-0.068-0.158-0.181-0.158h-9.903c-0.112,0-0.135,0.046-0.135,0.158V41.661z
					 M713.688,45.803h10.219v-2.229h-10.219V45.803z"/>
				<path fill="#304068" d="M733.855,40.986v10.961h-1.823v-9.769l-1.081,3.151l-1.598-0.63c1.216-3.039,2.049-5.582,2.498-7.675
					h-2.115v-1.823h2.296v-4.029h1.823v4.029h2.25v1.823h-2.25v0.607c0.9,1.53,1.71,3.105,2.476,4.771l-1.554,0.765L733.855,40.986z
					 M735.903,49.584h14.427v1.732h-14.427V49.584z M740.765,33.649h-4.524v-1.733h13.842v1.733h-7.359l-0.855,1.553
					c-0.021,0.045-0.045,0.09-0.045,0.135c0,0.067,0.045,0.09,0.09,0.112c0.788,0.09,1.328,0.383,1.688,0.855
					c0.473,0.698,0.585,0.878,0.585,3.916l-0.045,3.129c-0.203,3.511-1.035,5.717-3.264,5.717c-0.428,0-1.035-0.067-1.822-0.203
					l-0.315-1.755c0.607,0.112,1.103,0.157,1.53,0.157c0.99,0,1.418-0.203,1.891-1.418c0.248-0.585,0.314-2.881,0.314-5.132
					c0-2.115-0.111-3.309-0.337-3.533c-0.315-0.36-1.035-0.563-2.116-0.607l-0.383-0.811L740.765,33.649z M741.103,45.96
					c0,0.158-0.067,0.226-0.202,0.226h-4.232c-0.135,0-0.202-0.067-0.202-0.226V37.7c0-0.135,0.067-0.202,0.202-0.202h4.232
					c0.135,0,0.202,0.067,0.202,0.202V45.96z M739.459,38.961h-1.35c-0.068,0-0.09,0.022-0.068,0.067v5.581l0.068,0.091h1.35
					l0.09-0.091v-5.581L739.459,38.961z M747.291,46.163c-0.563,0.854-1.237,1.777-2.092,2.745l-1.621-0.99
					c1.058-0.9,2.025-2.07,2.881-3.421c-0.833-1.868-1.44-3.804-1.756-5.784l1.396-0.585c0.271,1.823,0.675,3.398,1.192,4.613
					c0.653-1.71,1.104-3.421,1.283-5.041c0-0.495-0.18-0.675-0.652-0.63h-3.084v-1.733h4.254l0.878,0.45
					c-0.202,3.376-0.81,6.324-1.823,8.732c0.383,0.855,1.193,1.98,2.318,3.443l-1.688,0.586L747.291,46.163z"/>
			</g>
			<g enable-background="new    ">
				<path fill="#304068" d="M508.773,72.121c-0.9,1.08-1.914,2.138-2.994,3.128l-1.484-1.192c3.083-2.656,5.469-5.762,7.089-9.229
					h-5.581v-1.845h3.668c-0.945-0.721-1.732-1.261-2.386-1.599l0.968-1.463c0.855,0.405,1.778,1.058,2.813,1.913l-0.854,1.148h2.07
					l0.945-2.994l1.822,0.563l-0.811,2.431h8.261c0.247,0,0.743,0.314,0.743,0.81c0,0.067,0,0.136-0.023,0.203l-0.811,2.7h1.104
					c0.314,0,0.787,0.338,0.787,0.811c0,0.067,0,0.135-0.021,0.202l-0.811,2.566h1.148c0.539,0.112,0.742,0.157,0.742,1.058
					c0,1.868-0.045,3.511-0.158,4.951c-0.066,1.463-0.383,2.521-0.9,3.151c-1.17,1.44-2.588,1.44-3.105,1.44
					c-0.766,0-1.711-0.135-2.791-0.405V78.22c1.148,0.495,1.778,0.653,2.296,0.653c0.698,0,1.373-0.271,1.98-0.833
					c0.383-0.405,0.585-1.08,0.653-2.025c0.09-1.148,0.112-2.049,0.112-2.679c0-1.035-0.091-1.215-0.338-1.215H508.773z
					 M509.539,74.394c-0.721,2.611-1.756,4.704-3.039,6.302c-0.495-0.563-0.99-0.944-1.44-1.192
					c1.237-1.508,2.116-3.421,2.543-5.672L509.539,74.394z M510.191,70.298h11.072l0.563-1.778h-10.466L510.191,70.298z
					 M511.137,80.088c0-1.801-0.135-3.871-0.496-6.122l1.801-0.112c0.315,2.566,0.496,4.682,0.496,6.234H511.137z M512.42,66.696
					h7.787l0.563-1.868h-7.45L512.42,66.696z M515.638,79.188c-0.157-0.945-0.675-2.813-1.463-5.559l1.755-0.405
					c0.631,1.846,1.126,3.759,1.486,5.694L515.638,79.188z M519.824,77.433c-0.405-1.059-1.125-2.408-2.094-4.097l1.666-0.765
					c0.877,1.463,1.575,2.881,2.093,4.208L519.824,77.433z"/>
				<path fill="#304068" d="M529.008,69.397l-0.383,0.607l-1.845-0.72c1.891-2.858,3.061-5.92,3.443-9.16l1.8,0.247
					c-0.292,1.936-0.697,3.602-1.192,5.02v15.395h-1.823V69.397z M534.838,77.072l-2.387,1.485l-1.057-1.328
					c2.183-1.035,3.578-2.07,4.727-3.646l-0.113-0.54v-1.936h-2.948c-0.112,0-0.157,0.045-0.157,0.157v1.643h-1.553v-3.083
					c0-0.203,0.09-0.271,0.292-0.271h1.733v-6.121c0-0.36,0.18-0.519,0.518-0.519h4.141l0.315-1.035h-5.627v-1.575h13.819v1.575
					h-6.393l-0.27,1.035h5.222c0.383,0,0.563,0.158,0.563,0.519v6.121h0.878l1.418,0.698c-0.067,0.9-0.314,2.003-0.766,3.24
					l-1.463-0.449c0.248-0.968,0.383-1.509,0.383-1.666c0-0.202-0.067-0.27-0.225-0.27h-6.077c0.428,0.292,0.878,0.675,1.351,1.192
					l-0.766,0.811h0.923c0.518,0,0.585-0.338,0.811-1.463l1.417,0.54c-0.247,1.103-0.449,1.71-0.518,1.801
					c-0.382,0.359-0.742,0.585-1.057,0.563h-4.614l-0.495,0.652h7.854l1.171,0.833c0.067,0.022,0.09,0.067,0.09,0.112
					c0,0.022-0.788,1.306-3.759,2.656c1.733,0.314,3.511,0.404,5.087,0.382l-0.496,1.733c-2.295-0.067-4.591-0.473-6.818-1.216
					c-2.297,0.743-4.816,1.171-7.518,1.261l-0.293-1.801c2.025,0,3.849-0.202,5.379-0.495L534.838,77.072z M535.445,72.346
					c-0.766,1.373-1.576,2.408-2.408,3.061c-0.338-0.54-0.697-0.968-1.059-1.237c0.789-0.676,1.463-1.553,1.891-2.656
					L535.445,72.346z M535.107,65.144h8.822v-0.72c0-0.158-0.09-0.226-0.247-0.226h-8.351c-0.156,0-0.225,0.067-0.225,0.226V65.144z
					 M535.107,67.35h8.822v-0.99h-8.822V67.35z M535.107,69.555h8.822v-0.99h-8.822V69.555z M537.111,76.689
					c0.945,0.563,1.845,1.035,2.655,1.373l2.971-1.216c0-0.112-0.09-0.18-0.247-0.157H537.111z M540.104,73.111
					c-0.518-0.518-0.945-0.878-1.327-1.126l0.72-0.877h-1.936v1.147c0,0.338,0.203,0.788,0.855,0.855H540.104z M545.146,75.204
					c-0.518-0.99-1.035-1.846-1.485-2.498l1.26-0.698c0.743,1.104,1.261,1.958,1.531,2.566L545.146,75.204z"/>
				<path fill="#304068" d="M563.175,80.336c-5.807-0.158-8.597-1.013-10.96-4.187c-0.293,1.463-0.743,2.903-1.373,4.366
					c-0.586-0.383-1.126-0.63-1.576-0.742c1.463-3.196,1.756-5.537,1.756-7.855c0-0.585-0.022-1.215-0.067-1.891l1.845,0.09
					c-0.021,1.126-0.09,2.273-0.225,3.489c0.428,0.765,0.878,1.485,1.418,2.093V68.34h-4.141v-1.823h4.141v-2.408h-3.511v-1.823
					h3.511v-2.273h1.823v2.273h2.948v1.823h-2.948v2.408h3.196v1.823h-3.196v2.745h2.948v1.823h-2.948v4.299h0.045
					c1.665,0.833,3.916,1.238,6.64,1.216h7.629l-0.494,1.913H563.175z M568.172,63.163v0.742h-2.589
					c0.271,2.679,0.698,5.109,1.216,7.271c0.652-1.283,1.215-2.972,1.598-5.087l1.688,0.45c-0.539,2.588-1.463,4.839-2.678,6.662
					l0.607,1.688c0.226,0.518,0.36,0.811,0.45,0.811c0.383,0,0.36-2.251,0.338-2.746l1.665,0.473
					c-0.09,1.733-0.338,3.017-0.697,3.804c-0.225,0.293-0.518,0.698-1.125,0.698c-1.373,0-2.206-2.521-2.432-3.174
					c-1.373,1.396-2.926,2.431-4.636,3.084l-1.081-1.531c2.049-0.652,3.76-1.777,5.109-3.354c-0.811-2.678-1.395-5.717-1.732-9.048
					h-2.025c-0.136,0-0.203,0.046-0.181,0.203v8.237l1.958-1.192l0.9,1.598c-1.621,1.125-3.691,2.206-6.234,3.241l-0.811-1.666
					l2.432-1.08V62.578c0-0.293,0.111-0.428,0.404-0.428h3.354l-0.112-2.161l1.755,0.203l0.113,1.958h2.295l-0.607-1.193
					l1.576-0.765c0.607,0.99,1.17,2.25,1.665,3.759l-1.643,0.675L568.172,63.163z"/>
				<path fill="#304068" d="M575.33,69.848c-1.351-1.216-2.521-2.116-3.467-2.656l1.126-1.553c1.058,0.607,2.272,1.508,3.578,2.724
					L575.33,69.848z M571.932,79.841c1.484-2.634,2.295-5.425,2.43-8.351l1.914,0.136c-0.271,3.601-1.08,6.549-2.363,8.822
					L571.932,79.841z M575.848,64.761c-1.351-1.26-2.521-2.183-3.488-2.768l1.17-1.554c1.08,0.676,2.273,1.621,3.557,2.836
					L575.848,64.761z M577.738,78.513v-6.955c0-0.404,0.18-0.607,0.607-0.607h12.874c0.427,0,0.63,0.203,0.63,0.607v6.955h1.104
					v1.733h-16.813v-1.733H577.738z M591.332,69.532c0,0.158-0.09,0.248-0.27,0.248h-12.559c-0.158,0-0.248-0.09-0.248-0.248v-8.62
					c0-0.157,0.09-0.247,0.248-0.247h12.559c0.18,0,0.27,0.09,0.27,0.247V69.532z M579.561,78.513h2.116v-5.829h-1.868
					c-0.18,0-0.248,0.09-0.248,0.27V78.513z M587.82,67.731c-0.945-0.854-2.115-1.8-3.488-2.813
					c-0.675,1.013-1.418,1.891-2.183,2.61l-1.351-1.125c1.238-0.99,2.251-2.341,2.994-4.007h-3.646c-0.068,0-0.09,0.022-0.068,0.068
					v5.491l0.068,0.09h9.272l0.09-0.09v-5.491l-0.09-0.068h-3.871l-0.495,1.216c1.283,0.833,2.566,1.756,3.804,2.746L587.82,67.731z
					 M583.5,78.513h2.318v-5.829H583.5V78.513z M587.641,78.513h2.387v-5.582c0-0.157-0.091-0.247-0.248-0.247h-2.139V78.513z"/>
				<path fill="#304068" d="M600.449,67.012h-2.432v5.379c0,3.016-0.675,5.672-1.957,7.878l-1.711-0.743
					c1.485-2.679,1.801-4.366,1.846-7.697v-9.903c0-0.337,0.18-0.518,0.495-0.518h7.63v-1.485h1.912v1.485h8.396v1.823h-3.286v1.958
					h3.241v1.823h-3.241v2.61c0,0.608-0.314,0.9-0.9,0.9h-9.115c-0.585,0-0.877-0.292-0.877-0.9V67.012z M614.336,80.854
					c-3.151-0.518-5.897-1.238-8.215-2.116c-2.656,1.059-5.38,1.801-8.125,2.184l-0.631-1.891c2.881-0.36,4.568-0.721,6.504-1.328
					c-1.484-0.72-2.79-1.508-3.982-2.273l0.675-1.822c1.891,1.373,3.759,2.431,5.56,3.173c2.971-1.553,4.344-3.173,4.344-3.286
					c0-0.09-0.158-0.067-0.248-0.067h-10.871v-1.822h12.627l1.328,1.103c-1.014,1.868-2.701,3.511-4.975,4.906
					c2.139,0.585,4.434,1.035,6.887,1.283L614.336,80.854z M600.449,65.188V63.23h-2.184c-0.158,0-0.248,0.09-0.248,0.248v1.71
					H600.449z M609.43,65.188V63.23h-7.068v1.958H609.43z M609.113,68.699c0.203,0,0.316-0.09,0.316-0.292v-1.396h-7.068v1.396
					c0,0.202,0.113,0.292,0.315,0.292H609.113z"/>
				<path fill="#304068" d="M626.49,61.497v-1.575h1.891v1.575h9.16v1.823h-20.346v-1.823H626.49z M632.973,78.625
					c0,0.112-0.022,0.181-0.09,0.226c0.473,0.112,0.855,0.157,1.147,0.157c0.945,0,0.968-0.9,0.968-0.99v-5.627
					c0-0.09-0.045-0.135-0.135-0.135h-14.944c-0.091,0-0.136,0.045-0.136,0.135v8.373h-1.912v-9.791
					c0-0.314,0.157-0.473,0.449-0.473h18.141c0.315,0,0.45,0.158,0.45,0.473v7.833c0,0.518-0.135,2.16-2.565,2.16
					c-0.652,0-1.418-0.09-2.318-0.293l-0.045-1.777h-9.926c-0.157,0-0.248-0.09-0.248-0.271v-4.839c0-0.157,0.091-0.247,0.248-0.247
					h10.646c0.18,0,0.27,0.09,0.27,0.247V78.625z M634.548,69.308c0,0.18-0.09,0.27-0.271,0.27h-13.796
					c-0.157,0-0.247-0.09-0.247-0.27v-4.479c0-0.157,0.09-0.247,0.247-0.247h13.796c0.181,0,0.271,0.09,0.271,0.247V69.308z
					 M632.635,66.314c0-0.068-0.022-0.091-0.09-0.091h-10.33c-0.068,0-0.09,0.022-0.068,0.091V67.8c-0.021,0.067,0,0.09,0.068,0.112
					h10.33l0.09-0.112V66.314z M631.149,75.204h-7.517c-0.068,0-0.09,0-0.068,0.045v1.891l0.068,0.09h7.517l0.067-0.09v-1.891
					L631.149,75.204z"/>
				<path fill="#304068" d="M644.093,70.298v10.488h-1.823v-8.485c-0.383,0.99-0.766,1.823-1.125,2.521l-1.778-0.45
					c1.261-2.115,2.138-4.411,2.589-6.774h-2.342v-1.755h2.656v-3.039l-1.868,0.271l-0.563-1.756
					c2.498-0.247,4.389-0.697,5.649-1.237l0.697,1.688l-2.093,0.63v3.444h1.89v1.755h-1.89v0.158
					c0.99,1.058,1.913,2.183,2.813,3.354l-0.315,0.247h10.759c0-0.54,0-0.607-0.158-0.607h-9.363v-1.373h10.736
					c0.338,0,0.518,0.157,0.518,0.473v1.508h1.215v1.463h-1.215v1.553c0,0.338-0.18,0.518-0.518,0.518h-10.646v-1.396h9.273
					c0.158,0,0.158-0.067,0.158-0.675h-10.871v-1.373l-1.014,0.811L644.093,70.298z M648.166,76.194
					c-0.428,1.801-1.08,3.309-1.936,4.501c-0.495-0.518-0.968-0.832-1.373-1.035c0.743-1.035,1.283-2.363,1.531-3.894
					L648.166,76.194z M649.787,62.195c-0.766,1.598-1.711,2.881-2.769,3.849c-0.383-0.585-0.788-1.013-1.147-1.283
					c0.967-0.878,1.732-2.003,2.25-3.376L649.787,62.195z M652.15,67.214v-0.945h-3.646v-1.395h9.16v1.395h-3.781v0.945h5.537v1.463
					h-12.401v-1.463H652.15z M649.156,75.632h1.733v2.453c0,0.607,0.382,0.9,0.945,0.945h3.061c0.157,0,0.338-0.067,0.495-0.157
					l0.113-0.226l0.225-1.463l1.53,0.473c-0.202,1.396-0.405,2.206-0.563,2.318c-0.405,0.405-0.81,0.63-1.103,0.63h-4.771
					c-0.855-0.045-1.666-0.9-1.666-1.665V75.632z M652.15,62.33l-1.553,0.045l-0.338-1.732c2.993,0.022,5.559-0.203,7.472-0.743
					l0.495,1.666l-4.275,0.63l0.427,1.913l-1.71,0.383L652.15,62.33z M653.5,78.333c-0.494-0.923-0.922-1.621-1.35-2.094
					l1.328-0.878c0.449,0.563,0.922,1.261,1.372,2.161L653.5,78.333z M658.744,80.133c-0.652-1.598-1.283-2.858-1.867-3.713
					l1.463-0.945c0.675,1.035,1.35,2.386,2.002,4.028L658.744,80.133z M658.768,65.842c-0.519-0.923-1.171-1.891-1.869-2.836
					l1.486-0.9c0.72,1.013,1.373,2.003,1.891,2.948L658.768,65.842z"/>
				<path fill="#304068" d="M676.908,80.471c-5.582-0.157-8.35-1.192-10.354-4.592c-0.765,1.778-1.755,3.467-3.016,4.93
					l-1.598-1.126c3.039-3.646,3.602-6.054,4.051-9.79l1.914,0.202c-0.136,1.216-0.338,2.341-0.586,3.376
					c1.059,2.318,2.498,3.804,4.344,4.479v-9.655h-6.1v-1.913h13.64v1.913h-5.626v3.713h7.651v1.913h-7.651v4.412
					c0.832,0.09,1.71,0.135,2.609,0.135h6.596l-0.518,2.003H676.908z M671.529,61.993v-1.891h2.003v1.891h7.563l1.733,0.877
					c-0.113,1.328-0.518,2.948-1.171,4.839l-1.8-0.652c0.427-1.463,0.675-2.431,0.72-2.858v-0.067c0-0.157-0.091-0.226-0.271-0.226
					h-15.688c-0.111,0-0.18,0.046-0.18,0.158v3.219h-1.912v-4.93c0-0.247,0.135-0.359,0.382-0.359H671.529z"/>
				<path fill="#304068" d="M684.428,72.998c0.449-2.768,0.697-5.648,0.697-8.574l1.711,0.18c-0.09,3.331-0.338,6.234-0.721,8.688
					L684.428,72.998z M687.533,60.103h1.823v20.751h-1.823V60.103z M691.563,64.131l0.652,5.941l-1.643,0.181l-0.631-5.807
					L691.563,64.131z M698.044,78.333v-5.739h-4.524v-1.913h4.524v-5.199h-3.083c-0.293,0.945-0.608,1.755-0.969,2.431l-1.891-0.54
					c1.08-2.116,1.688-4.321,1.733-6.572l1.913,0.09c-0.067,0.99-0.157,1.891-0.314,2.679h2.61v-3.466h1.913v3.466h4.929v1.913
					h-4.929v5.199h4.658v1.913h-4.658v5.739h5.446v1.913h-13.212v-1.913H698.044z"/>
				<path fill="#304068" d="M716.141,67.214c1.598,1.328,3.826,3.557,4.951,4.885l-1.846,1.688
					c-1.057-1.373-3.354-3.804-4.793-5.087L716.141,67.214z"/>
				<path fill="#304068" d="M736.466,66.741h-1.327V78.58h-1.733V66.741h-1.171c-0.09,0-0.135,0.045-0.135,0.136v13.706h-1.823
					V65.571c0-0.428,0.226-0.652,0.63-0.652h2.746l0.631-2.296h-4.457V60.8h11.906v1.823h-5.492l-0.607,2.296h5.132
					c0.428,0,0.653,0.225,0.653,0.652v13.076c0,0.788-0.293,1.373-0.855,1.801c-0.36,0.247-0.945,0.36-1.756,0.36
					c-0.518,0-1.125-0.045-1.823-0.136l-0.202-2.048c0.787,0.226,1.418,0.338,1.822,0.338c0.721,0,0.99-0.563,0.99-0.945V66.877
					c0-0.091-0.045-0.136-0.156-0.136h-1.238V78.4h-1.733V66.741z M746.932,65.256H741.8v-1.822h5.132v-3.331h1.913v3.331h1.418
					v1.822h-1.418V78.49c0,0.675-0.338,2.341-2.7,2.341c-0.789,0-1.756-0.158-2.927-0.45V78.4l0.315,0.067
					c0.945,0.27,1.688,0.383,2.25,0.383c1.014,0,1.148-0.36,1.148-0.855V65.256z M743.961,75.654
					c-0.338-3.038-0.878-5.739-1.576-8.058l1.869-0.36c0.787,3.062,1.35,5.808,1.598,8.216L743.961,75.654z"/>
			</g>
			<g enable-background="new    ">
				<path fill="#304068" d="M507.513,100.037v-4.839h-2.769v-1.913h2.769v-4.276h1.913v4.276h2.205v1.913h-2.205v3.938l1.576-0.878
					l0.99,1.62c-0.788,0.45-1.621,0.923-2.566,1.373v6.077c0,0.563-0.225,2.251-2.363,2.251c-0.652,0-1.44-0.136-2.386-0.36v-1.98
					c0.878,0.247,1.554,0.382,2.026,0.382c0.584,0,0.81-0.157,0.81-0.787v-4.704l-2.521,0.945l-0.631-1.823L507.513,100.037z
					 M519.217,106.991c0.473-1.936,0.922-4.096,1.327-6.526c0.405-2.927,0.675-4.816,0.743-5.672l1.867,0.337
					c-0.539,4.457-1.215,8.44-2.002,11.861h3.938v1.913h-13.998v-1.913H519.217z M516.92,91.259v-2.317h1.914v2.317h5.717v1.913
					h-12.672v-1.913H516.92z M514.197,105.686c-0.18-3.601-0.652-7.021-1.351-10.218l1.891-0.225
					c0.698,4.006,1.171,7.472,1.351,10.353L514.197,105.686z"/>
				<path fill="#304068" d="M536.075,96.053c1.599,1.328,3.826,3.557,4.952,4.885l-1.846,1.688
					c-1.059-1.373-3.354-3.804-4.795-5.087L536.075,96.053z"/>
				<path fill="#304068" d="M569.455,109.444c-3.062-0.832-5.942-2.138-8.598-3.849v4.097h-1.891v-4.007
					c-3.151,1.891-6.077,3.062-8.756,3.489l-0.742-1.823c3.195-0.518,6.1-1.598,8.688-3.196h-8.125v-1.913h8.936v-0.923h1.891v0.923
					h8.89v1.913h-7.989c2.362,1.621,5.266,2.813,8.688,3.579L569.455,109.444z M549.604,99.114c3.039-0.271,5.807-1.058,8.305-2.341
					h-7.404V95.04h8.574c-1.057-0.495-2.453-1.035-4.118-1.553l0.698-1.665c1.936,0.675,2.947,1.058,3.038,1.147
					c2.993-0.54,5.198-1.147,6.571-1.778h-13.525v-1.823h16.204l0.811,1.464l-0.045,0.045c-2.003,1.62-3.376,2.317-7.271,3.24
					l0.698,0.338l-0.337,0.585h7.382l1.192,1.216c-1.328,1.891-3.421,3.443-6.211,4.682l-1.036-1.621
					c1.868-0.811,3.376-1.665,4.524-2.543h-6.707v3.691h-1.914v-2.341c-3.263,1.688-6.234,2.655-8.822,2.881L549.604,99.114z"/>
				<path fill="#304068" d="M576.141,106.091h-4.052v-1.732h4.052v-1.328h-3.354c-0.158,0-0.248-0.09-0.248-0.271v-8.89
					c0-0.157,0.09-0.226,0.248-0.226h3.354v-1.44h-3.781v-1.732h3.781v-1.621h1.822v1.621h3.736v1.732h-3.736v1.44h3.264
					c0.18,0,0.27,0.068,0.27,0.226v8.89c0,0.181-0.09,0.271-0.27,0.271h-3.264v1.328h4.006v1.732h-4.006v3.534h-1.822V106.091z
					 M576.141,97.493v-2.115h-1.711c-0.068,0-0.09,0.022-0.068,0.067v2.048H576.141z M576.141,101.274v-2.025h-1.779v1.958
					l0.068,0.067H576.141z M577.963,95.378v2.115h1.688v-2.048l-0.066-0.067H577.963z M577.963,99.249v2.025h1.621l0.066-0.067
					v-1.958H577.963z M591.084,109.558c-2.025-3.129-3.33-5.875-3.916-8.216c-0.9,3.422-2.543,6.167-4.906,8.216l-1.575-1.238
					c3.624-2.634,5.491-7.247,5.56-13.819v-1.846h-0.969c-0.247,1.891-0.787,3.646-1.575,5.177l-1.823-0.428
					c1.328-2.746,1.959-5.581,1.891-8.484h1.846l-0.135,1.98h6.01l1.125,0.63c-0.18,2.791-0.586,5.379-1.104,7.72l-1.732-0.271
					c0.811-2.971,1.215-4.929,1.215-5.829c0-0.18-0.022-0.314-0.045-0.405l-0.202-0.09h-2.679V94.5l-0.045,1.711
					c0.203,4.389,1.846,8.575,4.816,12.446L591.084,109.558z"/>
				<path fill="#304068" d="M603.6,96.053c1.598,1.328,3.826,3.557,4.951,4.885l-1.846,1.688c-1.057-1.373-3.354-3.804-4.793-5.087
					L603.6,96.053z"/>
				<path fill="#304068" d="M623.925,95.58h-1.327v11.839h-1.733V95.58h-1.171c-0.09,0-0.135,0.045-0.135,0.136v13.706h-1.823V94.41
					c0-0.428,0.226-0.652,0.63-0.652h2.746l0.631-2.296h-4.457v-1.823h11.906v1.823h-5.492l-0.607,2.296h5.132
					c0.428,0,0.653,0.225,0.653,0.652v13.076c0,0.788-0.293,1.373-0.855,1.801c-0.36,0.247-0.945,0.36-1.756,0.36
					c-0.518,0-1.125-0.045-1.823-0.136l-0.202-2.048c0.787,0.226,1.418,0.338,1.822,0.338c0.721,0,0.99-0.563,0.99-0.945V95.716
					c0-0.091-0.045-0.136-0.156-0.136h-1.238v11.659h-1.733V95.58z M634.391,94.095h-5.132v-1.822h5.132v-3.331h1.913v3.331h1.418
					v1.822h-1.418v13.234c0,0.675-0.338,2.341-2.7,2.341c-0.789,0-1.756-0.158-2.927-0.45v-1.98l0.315,0.067
					c0.945,0.27,1.688,0.383,2.25,0.383c1.014,0,1.148-0.36,1.148-0.855V94.095z M631.42,104.493
					c-0.338-3.038-0.878-5.739-1.576-8.058l1.869-0.36c0.787,3.062,1.35,5.808,1.598,8.216L631.42,104.493z"/>
				<path fill="#304068" d="M641.729,99.767v-4.884h-2.116V93.06h2.116v-4.118h1.823v4.118h1.283v1.823h-1.283v3.871l0.63-0.405
					l1.126,1.53l-1.756,1.059v6.616c0,0.653-0.293,2.049-1.936,2.049c-0.541,0-1.261-0.113-2.116-0.338l0.046-1.891l1.598,0.428
					c0.383,0.045,0.585-0.271,0.585-0.721v-5.267l-1.351,0.563l-1.035-1.644L641.729,99.767z M652.982,104.516h-2.746
					c0,2.813-0.9,4.704-5.176,5.334l-0.788-1.958c3.826-0.247,4.142-1.733,4.142-3.376h-3.512v-1.733h15.395v1.733h-5.491v2.184
					c0,0.607,0.45,0.968,0.99,1.013h2.183c0.158,0,0.338-0.067,0.519-0.203c0.067-0.045,0.135-0.652,0.18-1.732l1.71,0.337
					c-0.09,1.599-0.225,2.499-0.404,2.634c-0.428,0.45-0.855,0.697-1.261,0.697h-3.961c-0.878-0.045-1.778-0.945-1.778-1.8V104.516z
					 M647.445,100.104v-1.733h-2.272v-1.755h2.272v-1.081h1.824v1.081h2.34v1.755h-2.34v1.463l2.273-0.337l0.247,1.732l-6.505,0.99
					l-0.404-1.777L647.445,100.104z M651.543,93.194v-1.26h-5.402v-1.733h5.402v-1.351h1.912v1.351h5.965v1.733h-5.965v1.26h6.775
					v1.733h-14.54v-1.733H651.543z M655.278,99.789v-1.351h-2.386v-1.732h2.386v-1.261h1.823v1.261h2.408v1.732h-2.408v1.351h2.768
					v1.733h-7.225v-1.733H655.278z"/>
				<path fill="#304068" d="M676.346,92.317h4.906c0.473,0,0.676,0.225,0.676,0.652v16.542h-1.914v-0.945h-15.395v0.945h-1.912
					V92.97c0-0.428,0.225-0.652,0.652-0.652h5.109v-3.376h2.003v3.376h3.871v-3.376h2.003V92.317z M668.469,99.339V94.23h-3.579
					c-0.226,0-0.292,0.112-0.271,0.27v4.839H668.469z M668.469,106.653v-5.401h-3.85v5.401H668.469z M674.343,99.339V94.23h-3.871
					v5.108H674.343z M674.343,106.653v-5.401h-3.871v5.401H674.343z M676.346,94.23v5.108h3.668V94.5c0-0.18-0.066-0.27-0.27-0.27
					H676.346z M676.346,101.252v5.401h3.668v-5.401H676.346z"/>
				<path fill="#304068" d="M693.633,96.053c1.598,1.328,3.826,3.557,4.951,4.885l-1.846,1.688
					c-1.058-1.373-3.354-3.804-4.794-5.087L693.633,96.053z"/>
				<path fill="#304068" d="M713.957,95.58h-1.327v11.839h-1.733V95.58h-1.17c-0.09,0-0.135,0.045-0.135,0.136v13.706h-1.824V94.41
					c0-0.428,0.226-0.652,0.631-0.652h2.746l0.63-2.296h-4.456v-1.823h11.906v1.823h-5.492l-0.607,2.296h5.131
					c0.428,0,0.653,0.225,0.653,0.652v13.076c0,0.788-0.292,1.373-0.855,1.801c-0.36,0.247-0.945,0.36-1.755,0.36
					c-0.518,0-1.126-0.045-1.824-0.136l-0.201-2.048c0.787,0.226,1.417,0.338,1.822,0.338c0.721,0,0.99-0.563,0.99-0.945V95.716
					c0-0.091-0.045-0.136-0.157-0.136h-1.238v11.659h-1.733V95.58z M724.424,94.095h-5.133v-1.822h5.133v-3.331h1.912v3.331h1.418
					v1.822h-1.418v13.234c0,0.675-0.338,2.341-2.7,2.341c-0.788,0-1.756-0.158-2.927-0.45v-1.98l0.316,0.067
					c0.945,0.27,1.688,0.383,2.25,0.383c1.013,0,1.148-0.36,1.148-0.855V94.095z M721.452,104.493
					c-0.337-3.038-0.878-5.739-1.575-8.058l1.868-0.36c0.788,3.062,1.351,5.808,1.598,8.216L721.452,104.493z"/>
				<path fill="#304068" d="M738.986,93.87h-7.066c-0.113,0-0.18,0.067-0.18,0.18v2.948h-1.824v-4.523
					c0-0.226,0.113-0.338,0.338-0.338h8.732v-0.945h-7.472v-1.643h16.813v1.643h-7.518v0.945h8.103l1.576,0.788
					c-0.023,1.17-0.271,2.565-0.766,4.164l-1.756-0.519c0.338-1.192,0.473-1.98,0.473-2.362c0-0.181,0-0.338-0.225-0.338h-7.405
					v4.749h-1.823V93.87z M738.896,106.451h-7.473c-0.156,0-0.225-0.09-0.225-0.247v-6.55c0-0.157,0.068-0.226,0.225-0.226h16.656
					c0.156,0,0.247,0.068,0.247,0.226v6.55c0,0.157-0.091,0.247-0.247,0.247h-7.36c0,0.315,0,1.08,0.99,1.17h6.302
					c0.158,0,0.338-0.067,0.518-0.202c0.045-0.045,0.135-0.563,0.203-1.508l1.71,0.428c-0.157,1.418-0.315,2.183-0.427,2.318
					c-0.428,0.45-0.855,0.697-1.262,0.697h-8.079c-0.833-0.045-1.778-0.833-1.778-1.801V106.451z M732.46,97.021h5.581v1.463h-5.581
					V97.021z M732.55,94.726h5.491v1.485h-5.491V94.726z M738.896,102.197v-1.192H733c-0.067,0-0.09,0.022-0.067,0.067v1.125
					H738.896z M738.896,104.898v-1.216h-5.964v1.126l0.067,0.09H738.896z M740.72,101.005v1.192h5.852v-1.125l-0.067-0.067H740.72z
					 M740.72,103.683v1.216h5.784l0.067-0.09v-1.126H740.72z M741.867,94.726h5.492v1.485h-5.492V94.726z M741.867,97.021h5.649
					v1.463h-5.649V97.021z"/>
			</g>
			<g enable-background="new    ">
				<path fill="#304068" d="M524.955,118.072v1.733H507.76c-0.157,0-0.225,0.067-0.225,0.225v7.045
					c0,4.546-0.473,8.372-1.418,11.434l-1.777-0.563c1.125-4.029,1.327-6.212,1.373-11.434v-7.945c0-0.337,0.156-0.495,0.494-0.495
					H524.955z M515.391,136.641v-1.125h-6.234v-1.486h6.234v-0.72c-0.496,0.022-1.148-0.045-1.936-0.226l-0.045-1.732
					c0.652,0.247,1.125,0.36,1.418,0.36c0.337,0,0.697-0.293,0.697-0.855h-5.469v2.386h-1.576v-6.933
					c0-0.202,0.113-0.314,0.338-0.314h7.922c0.226,0,0.338,0.112,0.338,0.314v5.222c0,0.631-0.225,1.126-0.676,1.44h0.811v1.058
					h6.122v1.486h-6.122v1.125h8.035v1.553h-17.6v-1.553H515.391z M517.123,125.229c0,0.135-0.067,0.203-0.225,0.203h-8.17
					c-0.135,0-0.203-0.068-0.203-0.203v-4.501c0-0.113,0.068-0.181,0.203-0.181h8.17c0.157,0,0.225,0.067,0.225,0.181V125.229z
					 M510.057,127.886h5.469V127.3c0-0.045-0.045-0.09-0.135-0.09h-5.223c-0.066,0-0.111,0.045-0.111,0.09V127.886z M510.057,129.73
					h5.469v-0.72h-5.469V129.73z M510.213,121.741c-0.021,0.067-0.021,0.135-0.021,0.697h5.289v-0.63l-0.068-0.067H510.213z
					 M515.48,123.542h-5.289c0,0.54,0,0.607,0.021,0.697h5.199l0.068-0.09V123.542z M523.875,132.882
					c-1.238-1.53-2.115-2.993-2.565-4.411l-0.046,0.112c-0.539,1.868-1.439,3.376-2.609,4.479l-1.373-1.035
					c1.62-1.192,2.61-3.309,2.926-6.279h-2.521v-1.643h2.588v-3.602h1.554v3.602H525v1.643h-2.926
					c0.383,2.161,0.945,3.781,3.332,6.392L523.875,132.882z M523.672,123.384c-0.494-0.832-0.967-1.463-1.35-1.868l1.238-0.968
					c0.473,0.473,0.922,1.126,1.439,1.958L523.672,123.384z"/>
				<path fill="#304068" d="M536.075,124.892c1.599,1.328,3.826,3.557,4.952,4.885l-1.846,1.688
					c-1.059-1.373-3.354-3.804-4.795-5.087L536.075,124.892z"/>
				<path fill="#304068" d="M552.057,124.487l-2.386,0.337c-0.067-0.405-0.157-0.9-0.36-1.44l1.193-0.157l1.058-0.9
					c-0.72-0.675-1.44-1.192-2.161-1.598l0.698-1.283c0.09,0,0.337,0.135,0.72,0.405c0.518-0.676,0.99-1.396,1.486-2.206l1.17,0.878
					c-0.338,0.563-0.878,1.283-1.575,2.184l0.675,0.585c0.652-0.721,1.148-1.485,1.553-2.206l1.283,0.676
					c-0.27,0.652-1.125,1.71-2.543,3.105l1.598-0.225l-0.27-0.811l1.305-0.383l0.99,3.039l-1.328,0.314l-0.18-0.697l-1.463,0.225
					v4.276h-1.463V124.487z M549.355,127.976c0.406-1.126,0.698-2.07,0.811-2.791l1.418,0.383c-0.112,0.81-0.405,1.777-0.832,2.858
					L549.355,127.976z M552.281,135.47l-0.111,0.653l-1.531-0.405l0.586-3.736c0.066-0.383,0.247-0.563,0.584-0.54h15.147v-0.72
					c0-0.113-0.067-0.181-0.202-0.181h-15.553v-1.553h16.926c0.247,0,0.383,0.135,0.383,0.36v4.208h-1.554v-0.563h-13.932
					c-0.292,0-0.315,0.09-0.473,0.9h16.587c0.406,0,0.608,0.181,0.608,0.563c-0.136,1.53-0.428,2.566-0.765,3.039l-0.473,0.428
					c-0.789,0.54-2.634,0.832-5.582,0.832c-2.477,0-5.717-0.202-9.701-0.607l-0.09-1.778c3.759,0.428,7.338,0.653,10.713,0.653
					c1.036,0,3.219,0,3.826-0.676l0.113-0.878H552.281z M554.532,128.021c-0.18-1.193-0.382-2.07-0.563-2.611l1.44-0.247
					c0.225,0.766,0.45,1.688,0.586,2.701L554.532,128.021z M556.018,119.535h7.495v1.463h-7.495V119.535z M562.748,128.155
					c0,0.112-0.046,0.181-0.181,0.181h-5.942c-0.111,0-0.18-0.068-0.18-0.181v-3.128c0-0.113,0.068-0.181,0.18-0.181h5.942
					c0.135,0,0.181,0.067,0.181,0.181V128.155z M556.896,121.471h5.739v1.104h-5.739V121.471z M556.986,118.027h5.648v1.125h-5.648
					V118.027z M556.986,123.137h5.648v1.125h-5.648V123.137z M561.217,126.063h-3.24l-0.045,0.067v0.923l0.045,0.09h3.24l0.068-0.09
					v-0.923L561.217,126.063z M563.13,127.66c0.495-1.08,0.811-1.98,0.968-2.678l1.418,0.45c-0.18,0.81-0.518,1.732-0.99,2.768
					L563.13,127.66z M565.943,124.51l-2.408,0.202c-0.022-0.405-0.135-0.9-0.314-1.44l1.822-0.157l0.766-0.698
					c-0.743-0.675-1.486-1.192-2.229-1.598l0.676-1.283l0.697,0.383l1.53-2.184l1.147,0.9c-0.359,0.54-0.9,1.261-1.598,2.116
					l0.742,0.63c0.631-0.766,1.104-1.53,1.464-2.273l1.327,0.631c-0.382,0.9-1.215,1.936-2.408,3.15l1.328-0.135l-0.225-0.63
					l1.283-0.428c0.449,1.147,0.765,2.048,0.922,2.723l-1.328,0.293l-0.135-0.473l-1.575,0.157v3.849h-1.485V124.51z
					 M568.621,128.223c-0.18-0.99-0.449-1.958-0.765-2.836l1.418-0.337c0.337,0.968,0.607,1.958,0.788,2.948L568.621,128.223z"/>
				<path fill="#304068" d="M575.668,128.763v-5.176h-3.219v-1.913h3.219v-3.894h1.912v3.894h2.813v1.913h-2.813v4.254
					c0.855-0.473,1.598-0.878,2.184-1.306l1.08,1.598c-0.855,0.54-1.846,1.058-2.971,1.598l-0.293,0.158v6.369
					c0,0.652-0.359,2.184-2.115,2.184c-0.652,0-1.553-0.158-2.656-0.495l0.09-1.981c1.531,0.563,2.026,0.608,2.139,0.608
					c0.314,0,0.631-0.203,0.631-0.833v-4.996l-2.859,1.103l-0.967-1.711L575.668,128.763z M587.483,126.152h-3.849v1.216
					c-0.045,3.308-0.585,6.437-3.557,10.601l-1.665-1.306c2.565-3.443,3.264-5.896,3.309-9.295v-7.9
					c-0.022-0.473,0.136-0.697,0.473-0.72c3.241-0.046,6.279-0.383,9.048-0.9l0.697,1.98c-2.25,0.428-4.929,0.72-7.99,0.833
					c-0.247,0-0.337,0.112-0.314,0.337v3.241h8.891v1.913h-3.039v12.131h-2.003V126.152z"/>
				<path fill="#304068" d="M603.6,124.892c1.598,1.328,3.826,3.557,4.951,4.885l-1.846,1.688c-1.057-1.373-3.354-3.804-4.793-5.087
					L603.6,124.892z"/>
				<path fill="#304068" d="M620.144,128.854v-4.997h-2.679v-1.913h2.679v-4.254h1.913v4.254h2.386v1.913h-2.386v4.029l2.07-1.351
					l1.148,1.575c-1.035,0.676-2.049,1.216-3.219,1.823v6.324c0,0.811-0.449,2.184-2.093,2.184c-0.675,0-1.575-0.158-2.679-0.495
					l0.09-1.981c1.352,0.495,1.936,0.608,2.161,0.608c0.36,0,0.607-0.293,0.607-0.833v-4.861l-2.272,0.968l-1.035-1.666
					L620.144,128.854z M628.381,125.973c-0.09,0-0.157,0.067-0.157,0.18v2.971c0,5.379-1.306,7.742-4.007,9.498l-1.463-1.463
					c2.273-1.508,3.557-3.398,3.557-7.135v-5.672c0-0.202,0.09-0.292,0.27-0.292h7.225c0.361,0,0.563,0.18,0.563,0.54v10.893
					c0,0.405,0.202,0.923,0.945,0.968c0.226,0,0.45-0.112,0.607-0.314c0.067-0.09,0.112-1.373,0.112-3.826l1.914,0.247l-0.046,3.264
					c-0.022,1.98-1.17,2.543-2.093,2.543h-1.396c-0.945,0-1.958-0.81-1.958-1.98v-10.038c0-0.247-0.135-0.382-0.405-0.382H628.381z
					 M630.092,120.278v-2.498h1.913v2.498h5.356v1.913h-12.424v-1.913H630.092z"/>
				<path fill="#304068" d="M648.954,128.921h-9.16v-2.003h9.16v-6.527h-7.833v-2.003h17.691v2.003h-7.878v6.527h9.115v2.003h-9.115
					v9.362h-1.98V128.921z"/>
				<path fill="#304068" d="M670.494,134.75l-2.273,1.485l-1.103-1.306c1.8-0.832,3.398-2.048,4.591-3.646
					c-0.09-0.203-0.135-0.36-0.135-0.563v-1.936h-2.678c-0.113,0-0.158,0.045-0.158,0.157v1.643h-1.553v-2.453l-1.373,1.125v7.135
					c0,0.631-0.338,2.026-1.801,2.026c-0.494,0-1.147-0.113-1.936-0.315l0.045-1.913l0.833,0.315
					c0.202,0.067,0.383,0.112,0.518,0.112c0.405,0,0.519-0.271,0.519-0.698v-5.312l-0.924,0.608l-1.192-1.328l2.116-1.261v-4.861
					h-1.779v-1.733h1.779v-4.253h1.822v4.253h1.801v1.733h-1.801v3.511l0.721-0.675l0.72,0.697l0.226-0.067h1.553v-6.121
					c0-0.36,0.18-0.519,0.54-0.519h3.938l0.315-1.035h-5.356v-1.575h13.211v1.575h-6.055l-0.27,1.035h4.884
					c0.383,0,0.563,0.158,0.563,0.519v6.121h0.787l1.418,0.698c-0.045,0.855-0.248,1.891-0.631,3.061l-1.508-0.428
					c0.181-0.742,0.36-1.485,0.293-1.53c0-0.157-0.067-0.247-0.225-0.247h-5.649c0.382,0.314,0.833,0.72,1.282,1.237l-0.787,0.766
					h0.855c0.135,0,0.293-0.067,0.449-0.181c0.068-0.045,0.181-0.495,0.361-1.282l1.418,0.54c-0.248,1.103-0.451,1.71-0.541,1.801
					c-0.359,0.359-0.721,0.585-1.058,0.563h-4.344l-0.45,0.652h7.473l1.305,1.035c-0.922,0.945-2.093,1.801-3.466,2.566
					c1.306,0.27,2.836,0.404,4.569,0.404l-0.496,1.711c-2.138-0.09-4.254-0.518-6.279-1.17l-2.791,0.854
					c-1.125,0.248-2.655,0.383-4.568,0.36l-0.314-1.778c2.857,0,3.871-0.225,5.199-0.54L670.494,134.75z M671.191,130.023
					c-0.742,1.373-1.553,2.408-2.408,3.061c-0.338-0.54-0.697-0.968-1.035-1.237c0.788-0.676,1.44-1.553,1.891-2.656
					L671.191,130.023z M670.764,122.821h8.283v-0.72c0-0.158-0.068-0.226-0.226-0.226h-7.832c-0.157,0-0.226,0.067-0.226,0.226
					V122.821z M670.764,125.027h8.283v-0.99h-8.283V125.027z M670.764,127.232h8.283v-0.99h-8.283V127.232z M672.723,134.367
					c0.9,0.54,1.732,0.99,2.521,1.328c1.147-0.45,2.115-0.9,2.858-1.328H672.723z M674.275,129.618l0.766-0.832h-1.891v1.147
					c0,0.157,0.066,0.788,0.854,0.855h1.463L674.275,129.618z M680.239,132.859c-0.518-1.147-1.013-1.98-1.351-2.498l1.283-0.676
					l0.676,1.148l0.742,1.44L680.239,132.859z"/>
				<path fill="#304068" d="M684.428,130.676c0.449-2.768,0.697-5.648,0.697-8.574l1.711,0.18c-0.09,3.331-0.338,6.234-0.721,8.688
					L684.428,130.676z M687.533,117.78h1.823v20.751h-1.823V117.78z M691.563,121.809l0.652,5.941l-1.643,0.181l-0.631-5.807
					L691.563,121.809z M698.044,136.011v-5.739h-4.524v-1.913h4.524v-5.199h-3.083c-0.293,0.945-0.608,1.755-0.969,2.431
					l-1.891-0.54c1.08-2.116,1.688-4.321,1.733-6.572l1.913,0.09c-0.067,0.99-0.157,1.891-0.314,2.679h2.61v-3.466h1.913v3.466
					h4.929v1.913h-4.929v5.199h4.658v1.913h-4.658v5.739h5.446v1.913h-13.212v-1.913H698.044z"/>
				<path fill="#304068" d="M715.781,122.866l-8.306,1.126l-0.585-1.868l1.125-0.113c0.855-1.35,1.643-2.813,2.318-4.411
					l1.643,0.788c-0.337,0.9-0.9,2.025-1.643,3.331l4.479-0.54l-0.877-1.44l1.665-0.9c1.282,2.115,2.206,3.736,2.724,4.839
					l-1.733,0.765L715.781,122.866z M709.727,134.098v4.163h-1.913v-12.964c0-0.45,0.226-0.675,0.652-0.675h7.788
					c0.449,0,0.675,0.225,0.675,0.675v10.894c0,0.833-0.315,1.463-0.9,1.891c-0.36,0.247-0.945,0.383-1.688,0.383
					c-0.652,0-1.418-0.091-2.318-0.271l-0.135-2.16c0.923,0.337,1.621,0.495,2.094,0.495c0.922,0,1.035-0.811,1.035-0.99v-1.44
					H709.727z M709.727,128.493h5.289v-1.891c0-0.112-0.068-0.157-0.18-0.157h-4.952c-0.112,0-0.157,0.045-0.157,0.157V128.493z
					 M709.727,132.274h5.289v-1.958h-5.289V132.274z M720.305,131.419c2.678-0.766,4.771-1.598,6.302-2.476l0.945,1.643
					c-1.508,0.833-3.938,1.778-7.247,2.791v1.868c0.045,0.742,0.09,1.238,1.26,1.192h2.926c1.418,0,1.554-0.404,1.599-2.723
					l1.823,0.292c-0.09,1.958-0.271,3.129-0.541,3.489c-0.584,0.697-0.81,0.854-2.272,0.854h-4.366c-1.508,0-2.318-1.013-2.251-2.79
					v-7.135h1.823V131.419z M720.484,120.773c2.566-0.653,4.502-1.373,5.875-2.116l0.922,1.666c-1.53,0.765-3.826,1.575-6.797,2.386
					v2.07c0.045,0.766,0.09,1.238,1.261,1.193h2.565c1.508,0,1.508-0.45,1.508-2.499l1.846,0.203
					c-0.045,1.846-0.202,2.993-0.473,3.354c-0.563,0.697-0.811,0.855-2.25,0.855h-4.029c-1.35,0-2.318-0.833-2.25-2.791v-7.292
					h1.822V120.773z"/>
				<path fill="#304068" d="M731.875,129.844v0.337l-1.914-0.09v-6.481c0-0.271,0.113-0.315,0.451-0.428h4.028v-2.813
					c0-0.202-0.091-0.293-0.292-0.293h-4.164v-1.913h6.054c0.202,0,0.315,0.113,0.315,0.315v6.842h-1.913v-0.225h-2.273
					l-0.202,0.067l-0.09,0.202v2.408h3.983c0.315,0.022,0.45,0.181,0.45,0.45c0,4.164-0.113,7.135-0.18,7.652
					c-0.248,2.025-2.273,2.341-2.949,2.341c-0.697,0-1.732-0.225-3.083-0.607l-0.067-2.093c1.305,0.427,2.34,0.63,3.061,0.63
					c0.878,0,1.125-0.293,1.26-0.766c0.113-0.36,0.158-2.138,0.181-5.334c0-0.135-0.112-0.225-0.271-0.202H731.875z
					 M748.012,137.158l-10.826,1.17l-0.337-1.891l5.694-0.607v-3.264h-4.996c-0.158,0-0.248-0.09-0.248-0.27v-6.595
					c0-0.157,0.09-0.247,0.248-0.247h4.996v-1.959l-5.154,0.36l-0.45-1.868l2.363-0.135c0.675-1.283,1.306-2.701,1.823-4.209
					l1.711,0.676c-0.293,0.923-0.788,2.07-1.418,3.398l5.626-0.315l-1.463-2.115l1.508-0.945c1.485,2.025,2.634,3.759,3.354,5.153
					l-1.575,0.878l-0.721-1.26l-3.69,0.27v2.071h4.794c0.157,0,0.248,0.09,0.248,0.247v6.595c0,0.18-0.091,0.27-0.248,0.27h-4.794
					v3.062l2.745-0.293l-0.81-1.643l1.755-0.743c1.148,2.408,1.869,4.074,2.161,4.975l-1.801,0.607L748.012,137.158z
					 M742.543,130.834v-3.624h-3.354c-0.068,0-0.09,0.022-0.068,0.045v3.489l0.068,0.09H742.543z M744.456,127.21v3.624h3.128
					l0.09-0.09v-3.489l-0.09-0.045H744.456z"/>
			</g>
			<g enable-background="new    ">
				<path fill="#304068" d="M509.516,151.794c-0.112-0.923-0.27-1.688-0.449-2.272h-1.307c-0.563,0.877-1.373,1.71-2.34,2.498
					c-0.383-0.63-0.766-1.126-1.125-1.463c1.327-1.013,2.408-2.386,3.173-4.119l1.688,0.945l-0.248,0.405h5.177v1.733h-3.174
					c0.181,0.54,0.315,1.215,0.405,2.048L509.516,151.794z M518.946,161.585h-13.571v-1.733h13.571v-1.958h-14.022v-1.756h8.936
					v-1.688h-7.27v-1.733h7.27v-1.103h0.945c-0.338-0.405-0.675-0.721-0.968-0.923c1.126-1.17,2.003-2.565,2.521-4.187l1.756,0.743
					l-0.338,0.72h7.135v1.733h-3.916l0.113,0.338l0.428,1.755l-1.779,0.315c-0.202-1.058-0.428-1.868-0.63-2.408h-2.251
					c-0.292,0.63-0.832,1.283-1.418,1.913h0.316v1.103h7.472v1.733h-7.472v1.688h9.047v1.756h-3.961v1.958h3.691v1.733h-3.691v3.331
					c0,1.62-1.148,2.363-2.926,2.363c-0.9,0-1.98-0.158-3.309-0.473v-1.981c1.283,0.338,2.295,0.496,2.993,0.496
					c1.237,0,1.328-0.45,1.328-0.9V161.585z M511.204,165.974c-0.563-0.811-1.351-1.733-2.363-2.746l1.463-1.192
					c0.923,0.923,1.755,1.868,2.453,2.836L511.204,165.974z"/>
				<path fill="#304068" d="M527.006,160.302c1.777-0.923,3.173-1.733,4.208-2.431v-5.132h-1.688
					c-0.27,1.531-0.584,2.656-0.922,3.331l-1.756-0.359c0.878-1.937,1.328-4.254,1.328-6.888v-1.08h1.732v1.08l-0.135,2.094h1.44
					v-4.39h1.823v4.39h2.25v1.822h-2.25v3.781l1.17-1.035l1.328,1.396c-0.721,0.63-1.553,1.261-2.498,1.936v8.553h-1.823v-7.337
					l-2.993,1.777L527.006,160.302z M543.3,159.289h-7.697v-1.913h7.697v-2.341h-8.124v-1.823h5.063v-2.678h-4.366v-1.823h4.366
					v-2.184h1.891v2.184h4.839v1.823h-4.839v2.678h5.626v1.823h-2.543v2.341h2.386v1.913h-2.386v5.627
					c0,0.652-0.202,2.386-2.948,2.386c-0.923,0-2.07-0.181-3.466-0.495v-1.981c1.756,0.405,2.543,0.608,3.15,0.608
					c0.271,0,1.351,0,1.351-1.013V159.289z M539.113,164.105c-1.035-1.351-1.936-2.341-2.7-2.971l1.306-1.283
					c0.877,0.743,1.801,1.756,2.791,3.038L539.113,164.105z"/>
				<path fill="#304068" d="M549.379,159.514c0.449-2.768,0.697-5.648,0.697-8.574l1.711,0.18c-0.09,3.331-0.338,6.234-0.721,8.688
					L549.379,159.514z M552.484,146.618h1.823v20.751h-1.823V146.618z M556.514,150.646l0.652,5.941l-1.643,0.181l-0.631-5.807
					L556.514,150.646z M562.995,164.849v-5.739h-4.524v-1.913h4.524v-5.199h-3.083c-0.293,0.945-0.608,1.755-0.969,2.431
					l-1.891-0.54c1.08-2.116,1.688-4.321,1.733-6.572l1.913,0.09c-0.067,0.99-0.157,1.891-0.314,2.679h2.61v-3.466h1.913v3.466
					h4.929v1.913h-4.929v5.199h4.658v1.913h-4.658v5.739h5.446v1.913h-13.212v-1.913H562.995z"/>
				<path fill="#304068" d="M585.57,156.993c0,1.733-1.418,3.151-3.15,3.151c-1.733,0-3.151-1.418-3.151-3.151
					c0-1.732,1.418-3.15,3.151-3.15C584.197,153.843,585.57,155.306,585.57,156.993z M584.625,156.993
					c0-1.215-0.99-2.205-2.205-2.205c-1.238,0-2.229,0.99-2.229,2.205c0,1.238,0.99,2.229,2.229,2.229
					C583.68,159.222,584.625,158.187,584.625,156.993z"/>
			</g>
		</g>
	</g>
</g>
</svg>
