<?xml version="1.0" encoding="utf-8"?>
<!-- Generator: Adobe Illustrator 16.0.0, SVG Export Plug-In . SVG Version: 6.00 Build 0)  -->
<!DOCTYPE svg PUBLIC "-//W3C//DTD SVG 1.1//EN" "http://www.w3.org/Graphics/SVG/1.1/DTD/svg11.dtd">
<svg version="1.1" id="圖層_1" xmlns="http://www.w3.org/2000/svg" xmlns:xlink="http://www.w3.org/1999/xlink" x="0px" y="0px"
	 width="800px" height="280.682px" viewBox="0 0 800 280.682" enable-background="new 0 0 800 280.682" xml:space="preserve">
<line fill="none" stroke="#F4E829" stroke-width="2.251" stroke-miterlimit="10" x1="89.198" y1="235.261" x2="207.267" y2="235.261"/>
<circle fill="#231815" stroke="#FFFFFF" stroke-width="6.753" stroke-miterlimit="10" cx="156.834" cy="139.326" r="123.661"/>
<circle fill="#C5B999" stroke="#FFFFFF" stroke-width="2.251" stroke-miterlimit="10" cx="156.835" cy="139.326" r="102.03"/>
<path fill="#231815" stroke="#FFFFFF" stroke-width="2.251" stroke-miterlimit="10" d="M245.943,139.326
	c0,49.216-39.896,89.111-89.107,89.111c-49.215,0-89.105-39.896-89.105-89.111c0-49.21,39.89-89.11,89.105-89.11
	C206.047,50.215,245.943,90.115,245.943,139.326z"/>
<circle fill="#231815" stroke="#FFFFFF" stroke-width="2.251" stroke-miterlimit="10" cx="156.837" cy="139.326" r="47.054"/>
<circle fill="#040000" stroke="#FFFFFF" stroke-width="2.251" stroke-miterlimit="10" cx="173.619" cy="121.948" r="20.271"/>
<circle fill="#040000" stroke="#FFFFFF" stroke-width="2.251" stroke-miterlimit="10" cx="133.337" cy="131.803" r="20.272"/>
<circle fill="#040000" stroke="#FFFFFF" stroke-width="2.251" stroke-miterlimit="10" cx="163.924" cy="162.39" r="20.272"/>
<line fill="none" stroke="#F4E829" stroke-width="2.251" stroke-miterlimit="10" x1="175.856" y1="119.359" x2="351.612" y2="119.359"/>
<line fill="none" stroke="#F4E829" stroke-width="2.251" stroke-miterlimit="10" x1="227.629" y1="155.694" x2="332.191" y2="155.694"/>
<line fill="none" stroke="#F4E829" stroke-width="2.251" stroke-miterlimit="10" x1="227.629" y1="232.602" x2="332.191" y2="232.602"/>
<g>
	<g enable-background="new    ">
		<path fill="#FFFFFF" d="M388.625,129.367h-3.416l-1.932-6.3h-6.552l-1.848,6.3h-3.332l6.552-21.42h3.976L388.625,129.367z
			 M382.746,120.575l-1.68-5.6c-0.392-1.4-0.756-2.912-1.064-4.229h-0.056c-0.308,1.316-0.644,2.884-1.008,4.2l-1.708,5.628H382.746
			z"/>
		<path fill="#FFFFFF" d="M404.166,129.367h-3.248v-9.044c0-2.184-0.729-4.032-2.94-4.032c-1.596,0-3.304,1.316-3.304,3.78v9.296
			h-3.248V118.28c0-1.708-0.056-3.024-0.112-4.34h2.828l0.168,2.296h0.084c0.728-1.316,2.352-2.632,4.676-2.632
			c2.408,0,5.097,1.567,5.097,6.328V129.367z"/>
		<path fill="#FFFFFF" d="M408.897,111.14l3.22-1.009v3.809h3.668v2.436h-3.668v7.813c0,1.903,0.588,2.828,1.961,2.828
			c0.644,0,1.035-0.084,1.428-0.196l0.111,2.492c-0.56,0.224-1.428,0.363-2.52,0.363c-1.288,0-2.38-0.42-3.053-1.176
			c-0.783-0.84-1.147-2.128-1.147-4.144v-7.98h-2.184v-2.436h2.184V111.14z"/>
		<path fill="#FFFFFF" d="M420.209,111.56c-1.119,0-1.876-0.84-1.876-1.876c0-1.093,0.784-1.904,1.904-1.904
			s1.876,0.812,1.876,1.904C422.113,110.72,421.385,111.56,420.209,111.56z M421.833,129.367h-3.248v-15.456h3.248V129.367z"/>
		<path fill="#FFFFFF" d="M424.885,119.707h7.7v2.324h-7.7V119.707z"/>
		<path fill="#FFFFFF" d="M456.776,129.367h-3.192v-8.82c0-2.575-0.84-4.283-2.799-4.283c-1.484,0-2.996,1.344-2.996,3.584v9.52
			h-3.192v-9.296c0-2.156-0.812-3.808-2.688-3.808c-1.455,0-3.107,1.315-3.107,3.752v9.352h-3.192V118.28
			c0-1.736-0.056-3.024-0.112-4.34h2.801l0.168,2.268h0.084c0.756-1.288,2.156-2.604,4.508-2.604c1.96,0,3.443,1.092,4.088,2.828
			h0.057c1.035-1.708,2.547-2.828,4.76-2.828c2.295,0,4.815,1.567,4.815,6.439V129.367z"/>
		<path fill="#FFFFFF" d="M471.645,125.699c0,1.316,0.027,2.66,0.225,3.668h-2.94l-0.224-1.792h-0.084
			c-0.869,1.204-2.381,2.1-4.313,2.1c-2.884,0-4.536-2.128-4.536-4.508c0-3.836,3.332-5.74,8.624-5.74c0-1.147,0-3.443-3.107-3.443
			c-1.373,0-2.772,0.42-3.752,1.063l-0.672-2.155c1.092-0.7,2.912-1.288,4.983-1.288c4.536,0,5.796,2.996,5.796,6.271V125.699z
			 M468.48,121.612c-2.548,0-5.488,0.476-5.488,3.22c0,1.708,1.064,2.464,2.269,2.464c1.764,0,3.22-1.344,3.22-3.136V121.612z"/>
		<path fill="#FFFFFF" d="M488.612,113.94c-0.084,1.092-0.14,2.38-0.14,4.452v8.792c0,3.08-0.252,8.764-7.561,8.764
			c-1.792,0-3.668-0.393-4.872-1.12l0.728-2.52c0.953,0.56,2.437,1.092,4.172,1.092c2.521,0,4.313-1.4,4.313-4.9v-1.483h-0.056
			c-0.784,1.315-2.296,2.268-4.284,2.268c-3.641,0-6.132-3.22-6.132-7.532c0-5.235,3.164-8.147,6.524-8.147
			c2.295,0,3.584,1.176,4.228,2.408h0.056l0.141-2.072H488.612z M485.225,119.904c0-2.044-1.345-3.724-3.332-3.724
			c-2.24,0-3.809,2.128-3.809,5.432c0,3.023,1.372,5.18,3.78,5.18c1.68,0,3.36-1.288,3.36-3.864V119.904z"/>
		<path fill="#FFFFFF" d="M505.356,129.367h-3.248v-9.044c0-2.184-0.728-4.032-2.94-4.032c-1.596,0-3.304,1.316-3.304,3.78v9.296
			h-3.248V118.28c0-1.708-0.056-3.024-0.112-4.34h2.828l0.168,2.296h0.084c0.729-1.316,2.353-2.632,4.676-2.632
			c2.408,0,5.097,1.567,5.097,6.328V129.367z"/>
		<path fill="#FFFFFF" d="M520.729,128.751c-1.092,0.504-2.801,0.924-4.9,0.924c-4.648,0-7.336-3.107-7.336-7.812
			c0-4.592,2.576-8.26,6.943-8.26c4.34,0,6.076,3.611,6.076,7.42c0,0.532-0.027,0.979-0.084,1.372h-9.8
			c0.084,3.472,2.24,4.788,4.677,4.788c1.707,0,2.883-0.309,3.891-0.729L520.729,128.751z M518.432,120.072
			c0.028-1.848-0.728-4.144-3.22-4.144c-2.38,0-3.388,2.352-3.556,4.144H518.432z"/>
		<path fill="#FFFFFF" d="M525.292,111.14l3.22-1.009v3.809h3.668v2.436h-3.668v7.813c0,1.903,0.588,2.828,1.961,2.828
			c0.644,0,1.035-0.084,1.428-0.196l0.111,2.492c-0.56,0.224-1.428,0.363-2.52,0.363c-1.288,0-2.38-0.42-3.053-1.176
			c-0.783-0.84-1.147-2.128-1.147-4.144v-7.98h-2.184v-2.436h2.184V111.14z"/>
		<path fill="#FFFFFF" d="M536.604,111.56c-1.119,0-1.876-0.84-1.876-1.876c0-1.093,0.784-1.904,1.904-1.904
			s1.876,0.812,1.876,1.904C538.508,110.72,537.779,111.56,536.604,111.56z M538.228,129.367h-3.248v-15.456h3.248V129.367z"/>
		<path fill="#FFFFFF" d="M552.787,128.892c-0.728,0.336-2.184,0.783-3.976,0.783c-4.452,0-7.364-3.052-7.364-7.867
			c0-4.677,3.024-8.204,7.98-8.204c1.484,0,2.771,0.363,3.443,0.7l-0.644,2.491c-0.56-0.279-1.456-0.615-2.772-0.615
			c-3.023,0-4.703,2.464-4.703,5.487c0,3.389,1.988,5.404,4.676,5.404c1.288,0,2.184-0.308,2.912-0.616L552.787,128.892z"/>
		<path fill="#FFFFFF" d="M581.879,113.94l-4.676,15.428h-2.939l-1.988-6.832c-0.477-1.624-0.813-3.108-1.148-4.928h-0.084
			c-0.308,1.848-0.728,3.416-1.203,4.956l-2.101,6.804h-2.94l-4.424-15.428h3.36l1.708,7.392c0.364,1.652,0.729,3.304,1.008,4.928
			h0.057c0.308-1.596,0.783-3.304,1.231-4.899l2.128-7.42h2.66l2.016,7.252c0.477,1.792,0.896,3.443,1.205,5.067h0.084
			c0.252-1.596,0.615-3.248,1.035-5.04l1.792-7.279H581.879z"/>
		<path fill="#FFFFFF" d="M585.995,111.56c-1.12,0-1.876-0.84-1.876-1.876c0-1.093,0.784-1.904,1.904-1.904
			c1.119,0,1.876,0.812,1.876,1.904C587.899,110.72,587.172,111.56,585.995,111.56z M587.619,129.367h-3.248v-15.456h3.248V129.367z
			"/>
		<path fill="#FFFFFF" d="M599.547,116.795c-0.279-0.056-0.588-0.084-0.951-0.084c-2.185,0-3.557,1.792-3.557,4.48v8.176h-3.248
			v-10.724c0-1.792-0.027-3.276-0.111-4.704h2.828l0.111,2.828h0.112c0.7-1.96,2.323-3.164,4.004-3.164
			c0.308,0,0.532,0.027,0.812,0.084V116.795z"/>
		<path fill="#FFFFFF" d="M613.352,128.751c-1.092,0.504-2.801,0.924-4.9,0.924c-4.648,0-7.336-3.107-7.336-7.812
			c0-4.592,2.576-8.26,6.943-8.26c4.34,0,6.076,3.611,6.076,7.42c0,0.532-0.027,0.979-0.084,1.372h-9.8
			c0.084,3.472,2.24,4.788,4.677,4.788c1.707,0,2.883-0.309,3.891-0.729L613.352,128.751z M611.055,120.072
			c0.028-1.848-0.728-4.144-3.22-4.144c-2.38,0-3.388,2.352-3.556,4.144H611.055z"/>
		<path fill="#FFFFFF" d="M627.295,133.175c-1.877-2.548-3.92-6.691-3.92-12.88c0.027-6.244,2.043-10.388,3.92-12.964h2.436
			c-2.1,3.024-3.668,7.225-3.668,12.992c0,5.656,1.624,9.771,3.668,12.852H627.295z"/>
		<path fill="#FFFFFF" d="M645.467,110.72h-5.797v18.647h-3.248V110.72h-5.768v-2.772h14.813V110.72z"/>
		<path fill="#FFFFFF" d="M655.463,116.795c-0.281-0.056-0.589-0.084-0.953-0.084c-2.184,0-3.556,1.792-3.556,4.48v8.176h-3.248
			v-10.724c0-1.792-0.028-3.276-0.112-4.704h2.828l0.112,2.828h0.112c0.699-1.96,2.324-3.164,4.004-3.164
			c0.308,0,0.531,0.027,0.813,0.084V116.795z"/>
		<path fill="#FFFFFF" d="M659.605,111.56c-1.119,0-1.876-0.84-1.876-1.876c0-1.093,0.784-1.904,1.904-1.904
			s1.876,0.812,1.876,1.904C661.51,110.72,660.781,111.56,659.605,111.56z M661.229,129.367h-3.248v-15.456h3.248V129.367z"/>
		<path fill="#FFFFFF" d="M664.282,119.707h7.7v2.324h-7.7V119.707z"/>
		<path fill="#FFFFFF" d="M689.033,128.78c-0.896,0.448-2.716,0.896-5.039,0.896c-5.965,0-9.969-3.947-9.969-10.779
			c0-7.28,4.592-11.256,10.528-11.256c2.464,0,3.976,0.531,4.563,0.84l-0.699,2.66c-0.896-0.42-2.156-0.784-3.752-0.784
			c-4.145,0-7.225,2.8-7.225,8.372c0,5.264,2.744,8.204,7.168,8.204c1.456,0,2.939-0.309,3.864-0.757L689.033,128.78z"/>
		<path fill="#FFFFFF" d="M705.385,121.528c0,5.768-3.752,8.147-7.224,8.147c-4.004,0-7.056-2.939-7.056-7.924
			c0-5.208,3.191-8.147,7.279-8.147C702.613,113.604,705.385,116.795,705.385,121.528z M698.273,116.039
			c-2.772,0-3.836,2.968-3.836,5.628c0,3.024,1.428,5.572,3.808,5.572c2.353,0,3.808-2.548,3.808-5.628
			C702.053,119.064,700.989,116.039,698.273,116.039z"/>
		<path fill="#FFFFFF" d="M716.361,116.795c-0.28-0.056-0.588-0.084-0.952-0.084c-2.185,0-3.556,1.792-3.556,4.48v8.176h-3.248
			v-10.724c0-1.792-0.028-3.276-0.112-4.704h2.828l0.112,2.828h0.111c0.7-1.96,2.324-3.164,4.004-3.164
			c0.309,0,0.532,0.027,0.813,0.084V116.795z"/>
		<path fill="#FFFFFF" d="M730.164,128.751c-1.092,0.504-2.799,0.924-4.899,0.924c-4.647,0-7.336-3.107-7.336-7.812
			c0-4.592,2.575-8.26,6.944-8.26c4.34,0,6.076,3.611,6.076,7.42c0,0.532-0.029,0.979-0.084,1.372h-9.801
			c0.084,3.472,2.24,4.788,4.676,4.788c1.709,0,2.885-0.309,3.893-0.729L730.164,128.751z M727.869,120.072
			c0.027-1.848-0.729-4.144-3.221-4.144c-2.38,0-3.388,2.352-3.556,4.144H727.869z"/>
		<path fill="#FFFFFF" d="M735.205,107.331c1.875,2.521,3.892,6.636,3.892,12.908c-0.028,6.244-2.017,10.332-3.892,12.936h-2.437
			c2.044-3.023,3.668-7.224,3.668-12.936s-1.596-9.856-3.668-12.908H735.205z"/>
	</g>
</g>
<g>
	<g enable-background="new    ">
		<path fill="#FFFFFF" d="M373.086,69.716v-21.42h11.144v2.716h-7.896v6.608h7.336v2.688h-7.336v9.408H373.086z"/>
		<path fill="#FFFFFF" d="M389.326,51.908c-1.12,0-1.876-0.84-1.876-1.876c0-1.093,0.784-1.904,1.904-1.904
			c1.12,0,1.876,0.812,1.876,1.904C391.23,51.069,390.502,51.908,389.326,51.908z M390.95,69.716h-3.248V54.26h3.248V69.716z"/>
		<path fill="#FFFFFF" d="M398.426,56.445c0.924-1.568,2.52-2.492,4.676-2.492c3.528,0,5.965,3.107,5.965,7.812
			c0,5.628-3.277,8.26-6.469,8.26c-1.988,0-3.528-0.812-4.564-2.632h-0.084l-0.168,2.324h-2.772
			c0.056-1.036,0.112-2.716,0.112-4.116V47.26h3.248v9.185H398.426z M398.37,63.613c0,1.96,1.4,3.808,3.529,3.808
			c2.491,0,3.863-2.212,3.863-5.516c0-2.912-1.26-5.349-3.836-5.349c-2.044,0-3.556,1.988-3.556,4.032V63.613z"/>
		<path fill="#FFFFFF" d="M423.541,69.1c-1.092,0.504-2.799,0.924-4.899,0.924c-4.647,0-7.336-3.107-7.336-7.812
			c0-4.592,2.575-8.26,6.944-8.26c4.34,0,6.076,3.611,6.076,7.42c0,0.532-0.029,0.979-0.084,1.372h-9.801
			c0.084,3.472,2.24,4.788,4.676,4.788c1.709,0,2.885-0.309,3.893-0.729L423.541,69.1z M421.246,60.42
			c0.027-1.848-0.729-4.144-3.221-4.144c-2.38,0-3.388,2.352-3.556,4.144H421.246z"/>
		<path fill="#FFFFFF" d="M435.218,57.144c-0.28-0.056-0.589-0.084-0.952-0.084c-2.184,0-3.557,1.792-3.557,4.48v8.176h-3.248
			V58.992c0-1.792-0.027-3.276-0.111-4.704h2.828l0.111,2.828h0.113c0.699-1.96,2.323-3.164,4.004-3.164
			c0.307,0,0.531,0.027,0.812,0.084V57.144z"/>
		<path fill="#FFFFFF" d="M450.617,54.288c-0.084,1.092-0.14,2.38-0.14,4.452v8.792c0,3.08-0.252,8.764-7.56,8.764
			c-1.793,0-3.668-0.393-4.873-1.12l0.729-2.52c0.952,0.56,2.436,1.092,4.172,1.092c2.52,0,4.313-1.4,4.313-4.9v-1.483h-0.057
			c-0.783,1.315-2.296,2.268-4.283,2.268c-3.641,0-6.133-3.22-6.133-7.532c0-5.235,3.164-8.147,6.524-8.147
			c2.296,0,3.584,1.176,4.228,2.408h0.057l0.14-2.072H450.617z M447.229,60.252c0-2.044-1.345-3.724-3.332-3.724
			c-2.239,0-3.808,2.128-3.808,5.432c0,3.023,1.371,5.18,3.779,5.18c1.68,0,3.36-1.288,3.36-3.864V60.252z"/>
		<path fill="#FFFFFF" d="M457.869,69.716h-3.248V47.26h3.248V69.716z"/>
		<path fill="#FFFFFF" d="M472.82,66.048c0,1.316,0.028,2.66,0.225,3.668h-2.939l-0.225-1.792h-0.084
			c-0.868,1.204-2.38,2.1-4.313,2.1c-2.883,0-4.535-2.128-4.535-4.508c0-3.836,3.332-5.74,8.623-5.74c0-1.147,0-3.443-3.107-3.443
			c-1.372,0-2.771,0.42-3.752,1.063l-0.672-2.155c1.092-0.7,2.912-1.288,4.984-1.288c4.535,0,5.795,2.996,5.795,6.271V66.048z
			 M469.656,61.96c-2.547,0-5.487,0.476-5.487,3.22c0,1.708,1.063,2.464,2.269,2.464c1.764,0,3.219-1.344,3.219-3.136V61.96z"/>
		<path fill="#FFFFFF" d="M484.581,57.2c-0.616-0.393-1.681-0.868-2.94-0.868c-1.455,0-2.24,0.84-2.24,1.876
			c0,1.063,0.701,1.596,2.576,2.408c2.549,1.035,3.893,2.436,3.893,4.676c0,2.968-2.268,4.731-5.768,4.731
			c-1.625,0-3.164-0.42-4.201-1.035l0.729-2.408c0.784,0.476,2.212,1.036,3.527,1.036c1.736,0,2.576-0.841,2.576-2.017
			s-0.644-1.819-2.492-2.604c-2.743-1.092-3.947-2.632-3.947-4.424c0-2.576,2.1-4.62,5.348-4.62c1.512,0,2.828,0.42,3.668,0.896
			L484.581,57.2z"/>
		<path fill="#FFFFFF" d="M496.705,57.2c-0.616-0.393-1.68-0.868-2.939-0.868c-1.457,0-2.24,0.84-2.24,1.876
			c0,1.063,0.699,1.596,2.576,2.408c2.547,1.035,3.891,2.436,3.891,4.676c0,2.968-2.268,4.731-5.768,4.731
			c-1.623,0-3.164-0.42-4.199-1.035l0.728-2.408c0.784,0.476,2.212,1.036,3.528,1.036c1.736,0,2.576-0.841,2.576-2.017
			s-0.645-1.819-2.492-2.604c-2.744-1.092-3.948-2.632-3.948-4.424c0-2.576,2.101-4.62,5.349-4.62c1.512,0,2.827,0.42,3.668,0.896
			L496.705,57.2z"/>
	</g>
</g>
<g>
	<g enable-background="new    ">
		<path fill="#FFFFFF" d="M373.086,166.877c1.54-0.252,3.444-0.448,5.46-0.448c9.128,0,11.032,5.628,11.032,10.388v0.028
			c0,3.892-1.204,6.72-3.08,8.54c-1.932,1.876-4.984,2.828-8.764,2.828c-1.904,0-3.444-0.084-4.648-0.252V166.877z M376.333,185.497
			c0.56,0.084,1.344,0.111,2.1,0.111c4.816,0.028,7.728-2.8,7.728-8.708c0-5.208-2.688-7.896-7.308-7.896
			c-1.12,0-1.96,0.111-2.52,0.224V185.497z"/>
		<path fill="#FFFFFF" d="M405.285,183.593c0,1.736,0.084,3.191,0.141,4.424h-2.856l-0.168-2.24h-0.084
			c-0.644,1.064-2.156,2.548-4.648,2.548c-2.66,0-4.984-1.651-4.984-6.579v-9.185h3.248v8.652c0,2.66,0.756,4.424,2.884,4.424
			c1.484,0,3.22-1.176,3.22-3.5v-9.548h3.248V183.593z"/>
		<path fill="#FFFFFF" d="M422.758,180.177c0,5.768-3.752,8.147-7.225,8.147c-4.004,0-7.057-2.939-7.057-7.924
			c0-5.208,3.193-8.147,7.281-8.147C419.985,172.253,422.758,175.445,422.758,180.177z M415.645,174.689
			c-2.771,0-3.836,2.968-3.836,5.628c0,3.024,1.429,5.572,3.809,5.572c2.352,0,3.809-2.548,3.809-5.628
			C419.426,177.713,418.361,174.689,415.645,174.689z"/>
		<path fill="#FFFFFF" d="M424.857,178.357h7.699v2.324h-7.699V178.357z"/>
		<path fill="#FFFFFF" d="M447.257,188.017h-11.508v-21.42h3.247v18.676h8.261V188.017z"/>
		<path fill="#FFFFFF" d="M460.78,184.349c0,1.316,0.028,2.66,0.224,3.668h-2.939l-0.225-1.792h-0.084
			c-0.867,1.204-2.379,2.1-4.312,2.1c-2.884,0-4.536-2.128-4.536-4.508c0-3.836,3.332-5.74,8.624-5.74c0-1.147,0-3.443-3.108-3.443
			c-1.371,0-2.771,0.42-3.752,1.063L450,173.541c1.092-0.7,2.912-1.288,4.984-1.288c4.536,0,5.796,2.996,5.796,6.271V184.349z
			 M457.616,180.261c-2.548,0-5.487,0.476-5.487,3.22c0,1.708,1.063,2.464,2.268,2.464c1.764,0,3.22-1.344,3.22-3.136V180.261z"/>
		<path fill="#FFFFFF" d="M477.076,172.589l-3.724,10.695c-1.82,5.068-3.108,7.925-4.956,9.717c-1.4,1.287-2.828,1.819-3.584,1.987
			l-0.84-2.744c3.359-1.203,4.563-4.34,4.563-4.76c0-0.168-0.028-0.364-0.168-0.672l-5.292-14.224h3.557l2.799,8.68
			c0.309,1.008,0.617,2.184,0.841,3.08h0.084c0.224-0.896,0.532-2.044,0.812-3.08l2.492-8.68H477.076z"/>
		<path fill="#FFFFFF" d="M490.656,187.401c-1.092,0.504-2.801,0.924-4.9,0.924c-4.648,0-7.336-3.107-7.336-7.812
			c0-4.592,2.576-8.26,6.943-8.26c4.34,0,6.076,3.611,6.076,7.42c0,0.532-0.027,0.979-0.084,1.372h-9.8
			c0.084,3.472,2.24,4.788,4.677,4.788c1.707,0,2.883-0.309,3.891-0.729L490.656,187.401z M488.359,178.721
			c0.028-1.848-0.728-4.144-3.22-4.144c-2.38,0-3.388,2.352-3.556,4.144H488.359z"/>
		<path fill="#FFFFFF" d="M502.332,175.445c-0.28-0.056-0.588-0.084-0.952-0.084c-2.185,0-3.556,1.792-3.556,4.48v8.176h-3.248
			v-10.724c0-1.792-0.028-3.276-0.112-4.704h2.828l0.112,2.828h0.111c0.7-1.96,2.324-3.164,4.004-3.164
			c0.309,0,0.532,0.027,0.813,0.084V175.445z"/>
		<path fill="#FFFFFF" d="M512.748,170.209c-1.12,0-1.877-0.84-1.877-1.876c0-1.093,0.785-1.904,1.904-1.904
			c1.12,0,1.877,0.812,1.877,1.904C514.652,169.369,513.924,170.209,512.748,170.209z M514.371,188.017h-3.248v-15.456h3.248
			V188.017z"/>
		<path fill="#FFFFFF" d="M531.283,188.017h-3.248v-9.044c0-2.184-0.728-4.032-2.939-4.032c-1.596,0-3.305,1.316-3.305,3.78v9.296
			h-3.248v-11.088c0-1.708-0.055-3.024-0.111-4.34h2.828l0.168,2.296h0.084c0.729-1.316,2.352-2.632,4.676-2.632
			c2.408,0,5.096,1.567,5.096,6.328V188.017z"/>
		<path fill="#FFFFFF" d="M543.044,175.501c-0.616-0.393-1.681-0.868-2.94-0.868c-1.455,0-2.24,0.84-2.24,1.876
			c0,1.063,0.701,1.596,2.576,2.408c2.549,1.035,3.893,2.436,3.893,4.676c0,2.968-2.268,4.731-5.768,4.731
			c-1.625,0-3.164-0.42-4.201-1.035l0.729-2.408c0.784,0.476,2.212,1.036,3.527,1.036c1.736,0,2.576-0.841,2.576-2.017
			s-0.644-1.819-2.492-2.604c-2.743-1.092-3.947-2.632-3.947-4.424c0-2.576,2.1-4.62,5.348-4.62c1.512,0,2.828,0.42,3.668,0.896
			L543.044,175.501z"/>
		<path fill="#FFFFFF" d="M560.039,183.593c0,1.736,0.084,3.191,0.141,4.424h-2.855l-0.168-2.24h-0.084
			c-0.645,1.064-2.156,2.548-4.648,2.548c-2.66,0-4.984-1.651-4.984-6.579v-9.185h3.248v8.652c0,2.66,0.756,4.424,2.885,4.424
			c1.483,0,3.22-1.176,3.22-3.5v-9.548h3.247V183.593z"/>
		<path fill="#FFFFFF" d="M567.459,188.017h-3.248v-22.456h3.248V188.017z"/>
		<path fill="#FFFFFF" d="M582.41,184.349c0,1.316,0.028,2.66,0.225,3.668h-2.939l-0.225-1.792h-0.084
			c-0.868,1.204-2.38,2.1-4.313,2.1c-2.883,0-4.535-2.128-4.535-4.508c0-3.836,3.332-5.74,8.623-5.74c0-1.147,0-3.443-3.107-3.443
			c-1.372,0-2.771,0.42-3.752,1.063l-0.672-2.155c1.092-0.7,2.912-1.288,4.984-1.288c4.535,0,5.795,2.996,5.795,6.271V184.349z
			 M579.246,180.261c-2.547,0-5.487,0.476-5.487,3.22c0,1.708,1.063,2.464,2.269,2.464c1.764,0,3.219-1.344,3.219-3.136V180.261z"/>
		<path fill="#FFFFFF" d="M587.143,169.789l3.221-1.009v3.809h3.668v2.436h-3.668v7.813c0,1.903,0.588,2.828,1.959,2.828
			c0.645,0,1.037-0.084,1.428-0.196l0.113,2.492c-0.561,0.224-1.429,0.363-2.521,0.363c-1.288,0-2.38-0.42-3.052-1.176
			c-0.784-0.84-1.148-2.128-1.148-4.144v-7.98h-2.184v-2.436h2.184V169.789z"/>
		<path fill="#FFFFFF" d="M598.455,170.209c-1.12,0-1.877-0.84-1.877-1.876c0-1.093,0.785-1.904,1.904-1.904
			c1.12,0,1.877,0.812,1.877,1.904C600.359,169.369,599.631,170.209,598.455,170.209z M600.078,188.017h-3.248v-15.456h3.248
			V188.017z"/>
		<path fill="#FFFFFF" d="M617.551,180.177c0,5.768-3.752,8.147-7.225,8.147c-4.004,0-7.056-2.939-7.056-7.924
			c0-5.208,3.192-8.147,7.28-8.147C614.779,172.253,617.551,175.445,617.551,180.177z M610.438,174.689
			c-2.772,0-3.836,2.968-3.836,5.628c0,3.024,1.429,5.572,3.808,5.572c2.353,0,3.809-2.548,3.809-5.628
			C614.219,177.713,613.154,174.689,610.438,174.689z"/>
		<path fill="#FFFFFF" d="M633.51,188.017h-3.248v-9.044c0-2.184-0.728-4.032-2.939-4.032c-1.596,0-3.305,1.316-3.305,3.78v9.296
			h-3.248v-11.088c0-1.708-0.055-3.024-0.111-4.34h2.828l0.168,2.296h0.084c0.729-1.316,2.352-2.632,4.676-2.632
			c2.408,0,5.096,1.567,5.096,6.328V188.017z"/>
		<path fill="#FFFFFF" d="M641.463,183.677c-0.813,2.8-2.213,6.271-3.276,8.036l-2.24,0.224c0.784-2.128,1.624-5.488,1.988-7.952
			L641.463,183.677z"/>
		<path fill="#FFFFFF" d="M653.754,174.941c1.064-1.735,2.744-2.688,4.9-2.688c3.473,0,6.076,3.08,6.076,7.868
			c0,5.655-3.276,8.203-6.523,8.203c-1.849,0-3.361-0.867-4.117-2.128h-0.056v8.064h-3.248v-16.688c0-2.016-0.056-3.611-0.112-4.983
			h2.856l0.168,2.352H653.754z M654.034,181.801c0,2.771,1.904,3.948,3.5,3.948c2.521,0,3.892-2.324,3.892-5.517
			c0-2.939-1.315-5.376-3.808-5.376c-1.932,0-3.584,1.82-3.584,4.088V181.801z"/>
		<path fill="#FFFFFF" d="M675.678,175.445c-0.279-0.056-0.588-0.084-0.951-0.084c-2.185,0-3.557,1.792-3.557,4.48v8.176h-3.248
			v-10.724c0-1.792-0.027-3.276-0.111-4.704h2.828l0.111,2.828h0.112c0.7-1.96,2.323-3.164,4.004-3.164
			c0.308,0,0.532,0.027,0.812,0.084V175.445z"/>
		<path fill="#FFFFFF" d="M691.498,180.177c0,5.768-3.752,8.147-7.225,8.147c-4.004,0-7.056-2.939-7.056-7.924
			c0-5.208,3.192-8.147,7.28-8.147C688.727,172.253,691.498,175.445,691.498,180.177z M684.386,174.689
			c-2.772,0-3.836,2.968-3.836,5.628c0,3.024,1.429,5.572,3.808,5.572c2.353,0,3.809-2.548,3.809-5.628
			C688.166,177.713,687.102,174.689,684.386,174.689z"/>
		<path fill="#FFFFFF" d="M695.361,169.789l3.221-1.009v3.809h3.668v2.436h-3.668v7.813c0,1.903,0.588,2.828,1.959,2.828
			c0.645,0,1.037-0.084,1.428-0.196l0.113,2.492c-0.561,0.224-1.429,0.363-2.521,0.363c-1.288,0-2.38-0.42-3.052-1.176
			c-0.784-0.84-1.148-2.128-1.148-4.144v-7.98h-2.184v-2.436h2.184V169.789z"/>
		<path fill="#FFFFFF" d="M716.334,187.401c-1.092,0.504-2.801,0.924-4.9,0.924c-4.648,0-7.336-3.107-7.336-7.812
			c0-4.592,2.576-8.26,6.943-8.26c4.34,0,6.076,3.611,6.076,7.42c0,0.532-0.027,0.979-0.084,1.372h-9.8
			c0.084,3.472,2.24,4.788,4.677,4.788c1.707,0,2.883-0.309,3.891-0.729L716.334,187.401z M714.037,178.721
			c0.028-1.848-0.728-4.144-3.22-4.144c-2.38,0-3.388,2.352-3.556,4.144H714.037z"/>
		<path fill="#FFFFFF" d="M730.642,187.541c-0.728,0.336-2.185,0.783-3.976,0.783c-4.452,0-7.364-3.052-7.364-7.867
			c0-4.677,3.024-8.204,7.979-8.204c1.484,0,2.772,0.363,3.444,0.7l-0.644,2.491c-0.561-0.279-1.457-0.615-2.772-0.615
			c-3.024,0-4.704,2.464-4.704,5.487c0,3.389,1.988,5.404,4.676,5.404c1.289,0,2.185-0.308,2.912-0.616L730.642,187.541z"/>
		<path fill="#FFFFFF" d="M734.197,169.789l3.22-1.009v3.809h3.668v2.436h-3.668v7.813c0,1.903,0.588,2.828,1.96,2.828
			c0.645,0,1.036-0.084,1.428-0.196l0.112,2.492c-0.56,0.224-1.429,0.363-2.521,0.363c-1.287,0-2.379-0.42-3.052-1.176
			c-0.784-0.84-1.147-2.128-1.147-4.144v-7.98h-2.184v-2.436h2.184V169.789z"/>
		<path fill="#FFFFFF" d="M745.509,170.209c-1.12,0-1.876-0.84-1.876-1.876c0-1.093,0.784-1.904,1.904-1.904
			c1.119,0,1.876,0.812,1.876,1.904C747.413,169.369,746.686,170.209,745.509,170.209z M747.133,188.017h-3.248v-15.456h3.248
			V188.017z"/>
		<path fill="#FFFFFF" d="M764.605,180.177c0,5.768-3.752,8.147-7.225,8.147c-4.004,0-7.057-2.939-7.057-7.924
			c0-5.208,3.193-8.147,7.281-8.147C761.833,172.253,764.605,175.445,764.605,180.177z M757.492,174.689
			c-2.771,0-3.836,2.968-3.836,5.628c0,3.024,1.429,5.572,3.809,5.572c2.352,0,3.809-2.548,3.809-5.628
			C761.273,177.713,760.209,174.689,757.492,174.689z"/>
		<path fill="#FFFFFF" d="M780.564,188.017h-3.248v-9.044c0-2.184-0.728-4.032-2.939-4.032c-1.596,0-3.305,1.316-3.305,3.78v9.296
			h-3.248v-11.088c0-1.708-0.055-3.024-0.111-4.34h2.828l0.168,2.296h0.084c0.729-1.316,2.352-2.632,4.676-2.632
			c2.408,0,5.096,1.567,5.096,6.328V188.017z"/>
		<path fill="#FFFFFF" d="M373.338,206.189c0-1.681,0-4.172,1.736-5.908c1.064-1.036,2.492-1.428,3.752-1.428
			c1.008,0,1.792,0.195,2.352,0.42l-0.336,2.492c-0.42-0.168-0.896-0.309-1.652-0.309c-2.016,0-2.632,1.82-2.632,3.893v0.84h3.388
			v2.436h-3.36v12.992h-3.248v-12.992h-2.072v-2.436H373.338z"/>
		<path fill="#FFFFFF" d="M395.513,213.777c0,5.768-3.752,8.147-7.224,8.147c-4.004,0-7.056-2.939-7.056-7.924
			c0-5.208,3.192-8.147,7.28-8.147C392.741,205.853,395.513,209.044,395.513,213.777z M388.401,208.288
			c-2.772,0-3.836,2.968-3.836,5.628c0,3.024,1.428,5.572,3.808,5.572c2.352,0,3.808-2.548,3.808-5.628
			C392.181,211.313,391.117,208.288,388.401,208.288z"/>
		<path fill="#FFFFFF" d="M406.489,209.044c-0.28-0.056-0.589-0.084-0.952-0.084c-2.184,0-3.557,1.792-3.557,4.48v8.176h-3.248
			v-10.724c0-1.792-0.028-3.276-0.112-4.704h2.828l0.111,2.828h0.113c0.699-1.96,2.323-3.164,4.004-3.164
			c0.307,0,0.531,0.027,0.812,0.084V209.044z"/>
		<path fill="#FFFFFF" d="M426.564,221c-1.092,0.504-2.799,0.924-4.899,0.924c-4.647,0-7.336-3.107-7.336-7.812
			c0-4.592,2.575-8.26,6.944-8.26c4.34,0,6.076,3.611,6.076,7.42c0,0.532-0.029,0.979-0.084,1.372h-9.801
			c0.084,3.472,2.24,4.788,4.676,4.788c1.709,0,2.885-0.309,3.893-0.729L426.564,221z M424.27,212.321
			c0.027-1.848-0.729-4.144-3.221-4.144c-2.38,0-3.388,2.352-3.556,4.144H424.27z"/>
		<path fill="#FFFFFF" d="M433.732,221.616h-3.248V199.16h3.248V221.616z"/>
		<path fill="#FFFFFF" d="M449.16,221c-1.092,0.504-2.799,0.924-4.899,0.924c-4.647,0-7.336-3.107-7.336-7.812
			c0-4.592,2.575-8.26,6.944-8.26c4.34,0,6.076,3.611,6.076,7.42c0,0.532-0.029,0.979-0.084,1.372h-9.801
			c0.084,3.472,2.24,4.788,4.676,4.788c1.709,0,2.885-0.309,3.893-0.729L449.16,221z M446.865,212.321
			c0.027-1.848-0.729-4.144-3.221-4.144c-2.38,0-3.388,2.352-3.556,4.144H446.865z"/>
		<path fill="#FFFFFF" d="M463.469,221.141c-0.729,0.336-2.184,0.783-3.977,0.783c-4.451,0-7.363-3.052-7.363-7.867
			c0-4.677,3.023-8.204,7.98-8.204c1.483,0,2.771,0.363,3.443,0.7l-0.645,2.491c-0.56-0.279-1.455-0.615-2.771-0.615
			c-3.023,0-4.704,2.464-4.704,5.487c0,3.389,1.988,5.404,4.677,5.404c1.287,0,2.184-0.308,2.911-0.616L463.469,221.141z"/>
		<path fill="#FFFFFF" d="M467.024,203.389l3.22-1.009v3.809h3.668v2.436h-3.668v7.813c0,1.903,0.588,2.828,1.961,2.828
			c0.644,0,1.035-0.084,1.428-0.196l0.111,2.492c-0.56,0.224-1.428,0.363-2.52,0.363c-1.288,0-2.38-0.42-3.053-1.176
			c-0.783-0.84-1.147-2.128-1.147-4.144v-7.98h-2.184v-2.436h2.184V203.389z"/>
		<path fill="#FFFFFF" d="M484.469,209.044c-0.281-0.056-0.589-0.084-0.953-0.084c-2.184,0-3.556,1.792-3.556,4.48v8.176h-3.248
			v-10.724c0-1.792-0.028-3.276-0.112-4.704h2.828l0.112,2.828h0.112c0.699-1.96,2.324-3.164,4.004-3.164
			c0.308,0,0.531,0.027,0.813,0.084V209.044z"/>
		<path fill="#FFFFFF" d="M488.611,203.809c-1.119,0-1.876-0.84-1.876-1.876c0-1.093,0.784-1.904,1.904-1.904
			s1.876,0.812,1.876,1.904C490.516,202.969,489.787,203.809,488.611,203.809z M490.235,221.616h-3.248V206.16h3.248V221.616z"/>
		<path fill="#FFFFFF" d="M504.796,221.141c-0.728,0.336-2.185,0.783-3.976,0.783c-4.452,0-7.364-3.052-7.364-7.867
			c0-4.677,3.024-8.204,7.979-8.204c1.484,0,2.772,0.363,3.444,0.7l-0.644,2.491c-0.561-0.279-1.457-0.615-2.772-0.615
			c-3.024,0-4.704,2.464-4.704,5.487c0,3.389,1.988,5.404,4.676,5.404c1.289,0,2.185-0.308,2.912-0.616L504.796,221.141z"/>
		<path fill="#FFFFFF" d="M524.367,221.141c-0.729,0.336-2.184,0.783-3.977,0.783c-4.451,0-7.363-3.052-7.363-7.867
			c0-4.677,3.023-8.204,7.98-8.204c1.483,0,2.771,0.363,3.443,0.7l-0.645,2.491c-0.56-0.279-1.455-0.615-2.771-0.615
			c-3.023,0-4.704,2.464-4.704,5.487c0,3.389,1.988,5.404,4.677,5.404c1.287,0,2.184-0.308,2.911-0.616L524.367,221.141z"/>
		<path fill="#FFFFFF" d="M539.822,217.193c0,1.736,0.084,3.191,0.141,4.424h-2.855l-0.168-2.24h-0.084
			c-0.645,1.064-2.156,2.548-4.648,2.548c-2.66,0-4.984-1.651-4.984-6.579v-9.185h3.248v8.652c0,2.66,0.756,4.424,2.885,4.424
			c1.483,0,3.22-1.176,3.22-3.5v-9.548h3.247V217.193z"/>
		<path fill="#FFFFFF" d="M551.751,209.044c-0.28-0.056-0.589-0.084-0.952-0.084c-2.184,0-3.557,1.792-3.557,4.48v8.176h-3.248
			v-10.724c0-1.792-0.027-3.276-0.111-4.704h2.828l0.111,2.828h0.113c0.699-1.96,2.323-3.164,4.004-3.164
			c0.307,0,0.531,0.027,0.812,0.084V209.044z"/>
		<path fill="#FFFFFF" d="M562.026,209.044c-0.28-0.056-0.589-0.084-0.952-0.084c-2.184,0-3.557,1.792-3.557,4.48v8.176h-3.248
			v-10.724c0-1.792-0.027-3.276-0.111-4.704h2.828l0.111,2.828h0.113c0.699-1.96,2.323-3.164,4.004-3.164
			c0.307,0,0.531,0.027,0.812,0.084V209.044z"/>
		<path fill="#FFFFFF" d="M575.83,221c-1.092,0.504-2.8,0.924-4.9,0.924c-4.647,0-7.336-3.107-7.336-7.812
			c0-4.592,2.576-8.26,6.944-8.26c4.34,0,6.076,3.611,6.076,7.42c0,0.532-0.028,0.979-0.084,1.372h-9.8
			c0.084,3.472,2.24,4.788,4.676,4.788c1.708,0,2.884-0.309,3.892-0.729L575.83,221z M573.534,212.321
			c0.028-1.848-0.728-4.144-3.22-4.144c-2.381,0-3.389,2.352-3.557,4.144H573.534z"/>
		<path fill="#FFFFFF" d="M592.49,221.616h-3.248v-9.044c0-2.184-0.729-4.032-2.939-4.032c-1.597,0-3.305,1.316-3.305,3.78v9.296
			h-3.248v-11.088c0-1.708-0.056-3.024-0.111-4.34h2.828l0.168,2.296h0.084c0.728-1.316,2.352-2.632,4.676-2.632
			c2.408,0,5.096,1.567,5.096,6.328V221.616z"/>
		<path fill="#FFFFFF" d="M597.222,203.389l3.22-1.009v3.809h3.668v2.436h-3.668v7.813c0,1.903,0.588,2.828,1.961,2.828
			c0.644,0,1.035-0.084,1.428-0.196l0.111,2.492c-0.56,0.224-1.428,0.363-2.52,0.363c-1.288,0-2.38-0.42-3.053-1.176
			c-0.783-0.84-1.147-2.128-1.147-4.144v-7.98h-2.184v-2.436h2.184V203.389z"/>
		<path fill="#FFFFFF" d="M616.15,208.54c1.063-1.735,2.744-2.688,4.899-2.688c3.472,0,6.076,3.08,6.076,7.868
			c0,5.655-3.276,8.203-6.524,8.203c-1.848,0-3.359-0.867-4.115-2.128h-0.057v8.064h-3.248v-16.688c0-2.016-0.056-3.611-0.111-4.983
			h2.855l0.168,2.352H616.15z M616.43,215.401c0,2.771,1.904,3.948,3.5,3.948c2.52,0,3.893-2.324,3.893-5.517
			c0-2.939-1.316-5.376-3.809-5.376c-1.932,0-3.584,1.82-3.584,4.088V215.401z"/>
		<path fill="#FFFFFF" d="M641.602,221c-1.092,0.504-2.8,0.924-4.9,0.924c-4.647,0-7.336-3.107-7.336-7.812
			c0-4.592,2.576-8.26,6.944-8.26c4.34,0,6.076,3.611,6.076,7.42c0,0.532-0.028,0.979-0.084,1.372h-9.8
			c0.084,3.472,2.24,4.788,4.676,4.788c1.708,0,2.884-0.309,3.892-0.729L641.602,221z M639.306,212.321
			c0.028-1.848-0.728-4.144-3.22-4.144c-2.381,0-3.389,2.352-3.557,4.144H639.306z"/>
		<path fill="#FFFFFF" d="M658.262,221.616h-3.248v-9.044c0-2.184-0.729-4.032-2.939-4.032c-1.597,0-3.305,1.316-3.305,3.78v9.296
			h-3.248v-11.088c0-1.708-0.056-3.024-0.111-4.34h2.828l0.168,2.296h0.084c0.728-1.316,2.352-2.632,4.676-2.632
			c2.408,0,5.096,1.567,5.096,6.328V221.616z"/>
		<path fill="#FFFFFF" d="M673.633,221c-1.092,0.504-2.799,0.924-4.899,0.924c-4.647,0-7.336-3.107-7.336-7.812
			c0-4.592,2.575-8.26,6.944-8.26c4.34,0,6.076,3.611,6.076,7.42c0,0.532-0.029,0.979-0.084,1.372h-9.801
			c0.084,3.472,2.24,4.788,4.676,4.788c1.709,0,2.885-0.309,3.893-0.729L673.633,221z M671.338,212.321
			c0.027-1.848-0.729-4.144-3.221-4.144c-2.38,0-3.388,2.352-3.556,4.144H671.338z"/>
		<path fill="#FFFFFF" d="M678.197,203.389l3.221-1.009v3.809h3.668v2.436h-3.668v7.813c0,1.903,0.588,2.828,1.959,2.828
			c0.645,0,1.037-0.084,1.428-0.196l0.113,2.492c-0.561,0.224-1.429,0.363-2.521,0.363c-1.288,0-2.38-0.42-3.052-1.176
			c-0.784-0.84-1.148-2.128-1.148-4.144v-7.98h-2.184v-2.436h2.184V203.389z"/>
		<path fill="#FFFFFF" d="M695.642,209.044c-0.28-0.056-0.589-0.084-0.952-0.084c-2.184,0-3.557,1.792-3.557,4.48v8.176h-3.248
			v-10.724c0-1.792-0.027-3.276-0.111-4.704h2.828l0.111,2.828h0.113c0.699-1.96,2.323-3.164,4.004-3.164
			c0.307,0,0.531,0.027,0.812,0.084V209.044z"/>
		<path fill="#FFFFFF" d="M708.969,217.948c0,1.316,0.027,2.66,0.225,3.668h-2.94l-0.224-1.792h-0.084
			c-0.869,1.204-2.381,2.1-4.313,2.1c-2.884,0-4.536-2.128-4.536-4.508c0-3.836,3.332-5.74,8.624-5.74c0-1.147,0-3.443-3.107-3.443
			c-1.373,0-2.772,0.42-3.752,1.063l-0.672-2.155c1.092-0.7,2.912-1.288,4.983-1.288c4.536,0,5.796,2.996,5.796,6.271V217.948z
			 M705.805,213.861c-2.548,0-5.488,0.476-5.488,3.22c0,1.708,1.064,2.464,2.269,2.464c1.764,0,3.22-1.344,3.22-3.136V213.861z"/>
		<path fill="#FFFFFF" d="M713.701,203.389l3.22-1.009v3.809h3.668v2.436h-3.668v7.813c0,1.903,0.588,2.828,1.96,2.828
			c0.645,0,1.036-0.084,1.428-0.196l0.112,2.492c-0.56,0.224-1.429,0.363-2.521,0.363c-1.287,0-2.379-0.42-3.052-1.176
			c-0.784-0.84-1.147-2.128-1.147-4.144v-7.98h-2.184v-2.436h2.184V203.389z"/>
		<path fill="#FFFFFF" d="M725.012,203.809c-1.119,0-1.875-0.84-1.875-1.876c0-1.093,0.783-1.904,1.904-1.904
			c1.119,0,1.875,0.812,1.875,1.904C726.916,202.969,726.188,203.809,725.012,203.809z M726.637,221.616h-3.248V206.16h3.248
			V221.616z"/>
		<path fill="#FFFFFF" d="M744.108,213.777c0,5.768-3.752,8.147-7.224,8.147c-4.004,0-7.057-2.939-7.057-7.924
			c0-5.208,3.192-8.147,7.28-8.147C741.336,205.853,744.108,209.044,744.108,213.777z M736.996,208.288
			c-2.771,0-3.836,2.968-3.836,5.628c0,3.024,1.428,5.572,3.809,5.572c2.352,0,3.808-2.548,3.808-5.628
			C740.776,211.313,739.713,208.288,736.996,208.288z"/>
		<path fill="#FFFFFF" d="M760.068,221.616h-3.248v-9.044c0-2.184-0.729-4.032-2.939-4.032c-1.597,0-3.305,1.316-3.305,3.78v9.296
			h-3.248v-11.088c0-1.708-0.056-3.024-0.111-4.34h2.828l0.168,2.296h0.084c0.728-1.316,2.352-2.632,4.676-2.632
			c2.408,0,5.096,1.567,5.096,6.328V221.616z"/>
	</g>
</g>
<line fill="none" stroke="#F4E829" stroke-width="2.251" stroke-miterlimit="10" x1="332.191" y1="155.694" x2="332.191" y2="233.573"/>
<line fill="none" stroke="#F4E829" stroke-width="2.251" stroke-miterlimit="10" x1="332.191" y1="196.265" x2="351.612" y2="196.265"/>
<line fill="none" stroke="#F4E829" stroke-width="2.251" stroke-miterlimit="10" x1="208.324" y1="56.489" x2="350.7" y2="56.489"/>
</svg>
