<?xml version="1.0" encoding="utf-8"?>
<!-- Generator: Adobe Illustrator 16.0.0, SVG Export Plug-In . SVG Version: 6.00 Build 0)  -->
<!DOCTYPE svg PUBLIC "-//W3C//DTD SVG 1.1//EN" "http://www.w3.org/Graphics/SVG/1.1/DTD/svg11.dtd">
<svg version="1.1" id="圖層_1" xmlns="http://www.w3.org/2000/svg" xmlns:xlink="http://www.w3.org/1999/xlink" x="0px" y="0px"
	 width="800px" height="280.682px" viewBox="0 0 800 280.682" enable-background="new 0 0 800 280.682" xml:space="preserve">
<g>
	
		<line fill="none" stroke="#F4E829" stroke-width="2.251" stroke-miterlimit="10" x1="89.198" y1="235.261" x2="207.267" y2="235.261"/>
	<circle fill="#231815" stroke="#FFFFFF" stroke-width="6.753" stroke-miterlimit="10" cx="156.834" cy="139.326" r="123.661"/>
	<circle fill="#C5B999" stroke="#FFFFFF" stroke-width="2.251" stroke-miterlimit="10" cx="156.835" cy="139.326" r="102.03"/>
	<path fill="#231815" stroke="#FFFFFF" stroke-width="2.251" stroke-miterlimit="10" d="M245.943,139.326
		c0,49.216-39.896,89.112-89.107,89.112c-49.215,0-89.105-39.896-89.105-89.112c0-49.21,39.89-89.11,89.105-89.11
		C206.047,50.215,245.943,90.116,245.943,139.326z"/>
	<circle fill="#231815" stroke="#FFFFFF" stroke-width="2.251" stroke-miterlimit="10" cx="156.837" cy="139.326" r="47.054"/>
	<circle fill="#040000" stroke="#FFFFFF" stroke-width="2.251" stroke-miterlimit="10" cx="173.619" cy="121.948" r="20.271"/>
	<circle fill="#040000" stroke="#FFFFFF" stroke-width="2.251" stroke-miterlimit="10" cx="133.337" cy="131.803" r="20.272"/>
	<circle fill="#040000" stroke="#FFFFFF" stroke-width="2.251" stroke-miterlimit="10" cx="163.924" cy="162.39" r="20.272"/>
	
		<line fill="none" stroke="#F4E829" stroke-width="2.251" stroke-miterlimit="10" x1="175.856" y1="119.359" x2="351.612" y2="119.359"/>
	
		<line fill="none" stroke="#F4E829" stroke-width="2.251" stroke-miterlimit="10" x1="227.629" y1="155.694" x2="332.191" y2="155.694"/>
	
		<line fill="none" stroke="#F4E829" stroke-width="2.251" stroke-miterlimit="10" x1="227.629" y1="232.602" x2="332.191" y2="232.602"/>
	<g>
		
			<text transform="matrix(1 0 0 1 370.8457 129.3677)" fill="#FFFFFF" font-family="'AdobeFanHeitiStd-Bold-B5pc-H'" font-size="29.7632" letter-spacing="1">防磁三芯電線</text>
	</g>
	<g>
		
			<text transform="matrix(1 0 0 1 370.8457 69.7163)" fill="#FFFFFF" font-family="'AdobeFanHeitiStd-Bold-B5pc-H'" font-size="29.7632" letter-spacing="1">玻璃纖維</text>
	</g>
	<g>
		
			<text transform="matrix(1 0 0 1 370.8457 207.0186)" fill="#FFFFFF" font-family="'AdobeFanHeitiStd-Bold-B5pc-H'" font-size="29.7632" letter-spacing="1">雙層絕緣包覆，防止電流穿刺</text>
	</g>
	
		<line fill="none" stroke="#F4E829" stroke-width="2.251" stroke-miterlimit="10" x1="332.191" y1="155.694" x2="332.191" y2="233.573"/>
	
		<line fill="none" stroke="#F4E829" stroke-width="2.251" stroke-miterlimit="10" x1="332.191" y1="196.265" x2="351.612" y2="196.265"/>
	
		<line fill="none" stroke="#F4E829" stroke-width="2.251" stroke-miterlimit="10" x1="208.324" y1="56.489" x2="350.7" y2="56.489"/>
</g>
</svg>
