<?xml version="1.0" encoding="utf-8"?>
<!-- Generator: Adobe Illustrator 16.0.0, SVG Export Plug-In . SVG Version: 6.00 Build 0)  -->
<!DOCTYPE svg PUBLIC "-//W3C//DTD SVG 1.1//EN" "http://www.w3.org/Graphics/SVG/1.1/DTD/svg11.dtd">
<svg version="1.1" id="圖層_1" xmlns="http://www.w3.org/2000/svg" xmlns:xlink="http://www.w3.org/1999/xlink" x="0px" y="0px"
	 width="320px" height="320px" viewBox="0 0 320 320" enable-background="new 0 0 320 320" xml:space="preserve">
<path fill="none" stroke="#231815" stroke-width="2" stroke-miterlimit="10" d="M164.141,166.666H89.075
	c0,0-6.342-1.335-11.347-11.678c-2.331-3.339-16.346-4.003-21.68-2.67c-5.341,1.336-10.01,17.015-3.338,20.021
	c6.674,3,23.02,2.332,23.02,2.332s1.999,2.667-0.333,4.67c-2.338,2.004-14.015,10.343-14.682,31.023
	c-0.666,20.686,1.669,52.378,13.013,55.716c11.342,3.344,18.682,0,18.682,0s3.003-0.331,2.001-7.007
	c4.339-7.003,4.38-7.003,12.365-7.003c7.987,0,57.365,0,57.365,0"/>
<path fill="none" stroke="#231815" stroke-width="2" stroke-miterlimit="10" d="M161.266,166.666h75.062
	c0,0,6.343-1.335,11.35-11.678c2.329-3.339,16.347-4.003,21.683-2.67c5.34,1.336,10.01,17.015,3.339,20.021
	c-6.677,3-23.021,2.332-23.021,2.332s-1.998,2.667,0.329,4.67c2.341,2.004,14.019,10.343,14.685,31.023
	c0.666,20.686-1.668,52.378-13.012,55.716c-11.347,3.344-18.685,0-18.685,0s-3.002-0.331-2.001-7.007
	c-4.337-7.003-4.383-7.003-12.364-7.003c-7.987,0-57.362,0-57.362,0"/>
<path fill="none" stroke="#231815" stroke-width="2" stroke-miterlimit="10" d="M106.776,205.877
	c0,8.573-6.948,15.521-15.522,15.521c-8.576,0-15.524-6.948-15.524-15.521c0-8.575,6.948-15.521,15.524-15.521
	C99.828,190.355,106.776,197.302,106.776,205.877z"/>
<path fill="none" stroke="#231815" stroke-width="2" stroke-miterlimit="10" d="M102.101,205.877
	c0,5.991-4.855,10.847-10.847,10.847c-5.993,0-10.848-4.855-10.848-10.847c0-5.992,4.855-10.847,10.848-10.847
	C97.245,195.03,102.101,199.885,102.101,205.877z"/>
<path fill="none" stroke="#231815" stroke-width="2" stroke-miterlimit="10" d="M245.157,205.877
	c0,8.573-6.955,15.521-15.523,15.521c-8.575,0-15.526-6.948-15.526-15.521c0-8.575,6.951-15.521,15.526-15.521
	C238.202,190.355,245.157,197.302,245.157,205.877z"/>
<path fill="none" stroke="#231815" stroke-width="2" stroke-miterlimit="10" d="M91.745,166.666c0,0,14.344,6.337,23.685,23.689
	c9.675,17.683,30.286,17.015,48.507,17.015"/>
<path fill="none" stroke="#231815" stroke-width="2" stroke-miterlimit="10" d="M233.456,166.666c0,0-14.351,6.337-23.687,23.689
	c-9.674,17.683-30.289,17.015-48.505,17.015"/>
<path fill="none" stroke="#231815" stroke-width="2" stroke-miterlimit="10" d="M87.822,166.213c0,0,14.929-34.908,37.615-34.908
	s35.828,0,35.828,0"/>
<path fill="none" stroke="#231815" stroke-width="2" stroke-miterlimit="10" d="M234.084,166.213c0,0-14.934-34.908-37.619-34.908
	s-35.825,0-35.825,0"/>
<rect x="124.546" y="230.382" fill="#231815" width="72.813" height="8.347"/>
<path fill="none" stroke="#000000" stroke-width="2" stroke-linecap="round" stroke-linejoin="round" stroke-miterlimit="10" d="
	M217.116,141.141c0,0-6.404-33.265-67.657-44.639c4.376-15.455,8.167-24.21,8.167-24.21s55.411,16.425,72.004,37.626
	c11.415,14.58,16.959,35.297,13.751,49.885"/>
<polygon fill="none" stroke="#000000" stroke-width="2" stroke-linecap="round" stroke-linejoin="round" stroke-miterlimit="10" points="
	151.998,88.021 115.166,76.408 117.646,67.899 154.531,80.428 "/>
<polygon fill="none" stroke="#000000" stroke-width="2" stroke-linecap="round" stroke-linejoin="round" stroke-miterlimit="10" points="
	149.372,95.846 111.343,91.833 112.269,83.019 151.998,88.021 "/>
<polygon fill="none" stroke="#000000" stroke-width="2" stroke-linecap="round" stroke-linejoin="round" stroke-miterlimit="10" points="
	154.531,80.428 120.34,61.53 124.587,53.751 158.14,72.091 "/>
<path fill="none" stroke="#000000" stroke-width="2" stroke-miterlimit="10" d="M99.5,166.213c0,0,12.667-26.713,26.667-26.713
	s62.195,0,68,0s21.666,6.833,29,26.713"/>
<polyline fill="none" stroke="#231815" stroke-width="2" stroke-miterlimit="10" points="95.28,195.809 90.167,205.877 
	102.101,205.877 "/>
<path fill="none" stroke="#231815" stroke-width="2" stroke-miterlimit="10" d="M240.48,205.877c0,5.991-4.855,10.847-10.848,10.847
	s-10.848-4.855-10.848-10.847c0-5.992,4.855-10.847,10.848-10.847S240.48,199.885,240.48,205.877z"/>
<polyline fill="none" stroke="#231815" stroke-width="2" stroke-miterlimit="10" points="233.66,195.809 228.547,205.877 
	240.48,205.877 "/>
</svg>
