<?xml version="1.0" encoding="utf-8"?>
<!-- Generator: Adobe Illustrator 16.0.0, SVG Export Plug-In . SVG Version: 6.00 Build 0)  -->
<!DOCTYPE svg PUBLIC "-//W3C//DTD SVG 1.1//EN" "http://www.w3.org/Graphics/SVG/1.1/DTD/svg11.dtd">
<svg version="1.1" id="圖層_1" xmlns="http://www.w3.org/2000/svg" xmlns:xlink="http://www.w3.org/1999/xlink" x="0px" y="0px"
	 width="800px" height="308.797px" viewBox="0 0 800 308.797" enable-background="new 0 0 800 308.797" xml:space="preserve">
<g>
	<circle fill="#023148" stroke="#FFFFFF" stroke-width="8.4085" stroke-miterlimit="10" cx="150.658" cy="154.515" r="130.152"/>
	<path fill="#023148" stroke="#FFFFFF" stroke-width="2.8028" stroke-miterlimit="10" d="M258.046,154.515
		c0,59.307-48.081,107.386-107.386,107.386c-59.311,0-107.386-48.079-107.386-107.386c0-59.31,48.075-107.386,107.386-107.386
		C209.965,47.129,258.046,95.205,258.046,154.515z"/>
	<g>
		<g>
			<defs>
				<path id="SVGID_1_" d="M258.046,154.515c0,59.307-48.081,107.386-107.386,107.386c-59.311,0-107.386-48.079-107.386-107.386
					c0-59.31,48.075-107.386,107.386-107.386C209.965,47.129,258.046,95.205,258.046,154.515z"/>
			</defs>
			<clipPath id="SVGID_2_">
				<use xlink:href="#SVGID_1_"  overflow="visible"/>
			</clipPath>
			<g clip-path="url(#SVGID_2_)">
				
					<line fill="none" stroke="#FFFFFF" stroke-width="2.8028" stroke-miterlimit="10" x1="152.485" y1="-63.434" x2="385.766" y2="169.846"/>
				
					<line fill="none" stroke="#FFFFFF" stroke-width="2.8028" stroke-miterlimit="10" x1="144.187" y1="-55.133" x2="377.464" y2="178.145"/>
				
					<line fill="none" stroke="#FFFFFF" stroke-width="2.8028" stroke-miterlimit="10" x1="135.887" y1="-46.834" x2="369.165" y2="186.445"/>
				
					<line fill="none" stroke="#FFFFFF" stroke-width="2.8028" stroke-miterlimit="10" x1="127.588" y1="-38.535" x2="360.866" y2="194.744"/>
				
					<line fill="none" stroke="#FFFFFF" stroke-width="2.8028" stroke-miterlimit="10" x1="119.289" y1="-30.235" x2="352.567" y2="203.043"/>
				
					<line fill="none" stroke="#FFFFFF" stroke-width="2.8028" stroke-miterlimit="10" x1="110.99" y1="-21.936" x2="344.268" y2="211.342"/>
				
					<line fill="none" stroke="#FFFFFF" stroke-width="2.8028" stroke-miterlimit="10" x1="102.691" y1="-13.637" x2="335.969" y2="219.642"/>
				
					<line fill="none" stroke="#FFFFFF" stroke-width="2.8028" stroke-miterlimit="10" x1="94.392" y1="-5.338" x2="327.67" y2="227.941"/>
				
					<line fill="none" stroke="#FFFFFF" stroke-width="2.8028" stroke-miterlimit="10" x1="86.093" y1="2.962" x2="319.371" y2="236.24"/>
				
					<line fill="none" stroke="#FFFFFF" stroke-width="2.8028" stroke-miterlimit="10" x1="77.792" y1="11.261" x2="311.072" y2="244.539"/>
				
					<line fill="none" stroke="#FFFFFF" stroke-width="2.8028" stroke-miterlimit="10" x1="69.493" y1="19.561" x2="302.773" y2="252.84"/>
				
					<line fill="none" stroke="#FFFFFF" stroke-width="2.8028" stroke-miterlimit="10" x1="61.193" y1="27.861" x2="294.472" y2="261.139"/>
				
					<line fill="none" stroke="#FFFFFF" stroke-width="2.8028" stroke-miterlimit="10" x1="52.895" y1="36.16" x2="286.172" y2="269.438"/>
				
					<line fill="none" stroke="#FFFFFF" stroke-width="2.8028" stroke-miterlimit="10" x1="44.596" y1="44.459" x2="277.874" y2="277.738"/>
				
					<line fill="none" stroke="#FFFFFF" stroke-width="2.8028" stroke-miterlimit="10" x1="36.296" y1="52.759" x2="269.574" y2="286.037"/>
				
					<line fill="none" stroke="#FFFFFF" stroke-width="2.8028" stroke-miterlimit="10" x1="27.998" y1="61.058" x2="261.275" y2="294.336"/>
				
					<line fill="none" stroke="#FFFFFF" stroke-width="2.8028" stroke-miterlimit="10" x1="19.696" y1="69.357" x2="252.977" y2="302.636"/>
				
					<line fill="none" stroke="#FFFFFF" stroke-width="2.8028" stroke-miterlimit="10" x1="11.397" y1="77.658" x2="244.678" y2="310.936"/>
				
					<line fill="none" stroke="#FFFFFF" stroke-width="2.8028" stroke-miterlimit="10" x1="3.098" y1="85.957" x2="236.376" y2="319.234"/>
				
					<line fill="none" stroke="#FFFFFF" stroke-width="2.8028" stroke-miterlimit="10" x1="-5.201" y1="94.255" x2="228.077" y2="327.534"/>
				
					<line fill="none" stroke="#FFFFFF" stroke-width="2.8028" stroke-miterlimit="10" x1="-13.5" y1="102.555" x2="219.778" y2="335.834"/>
				
					<line fill="none" stroke="#FFFFFF" stroke-width="2.8028" stroke-miterlimit="10" x1="-21.799" y1="110.855" x2="211.479" y2="344.133"/>
				
					<line fill="none" stroke="#FFFFFF" stroke-width="2.8028" stroke-miterlimit="10" x1="-31.256" y1="120.312" x2="202.022" y2="353.589"/>
				
					<line fill="none" stroke="#FFFFFF" stroke-width="2.8028" stroke-miterlimit="10" x1="-40.713" y1="129.767" x2="192.565" y2="363.046"/>
				
					<line fill="none" stroke="#FFFFFF" stroke-width="2.8028" stroke-miterlimit="10" x1="-50.169" y1="139.224" x2="183.108" y2="372.503"/>
				
					<line fill="none" stroke="#FFFFFF" stroke-width="2.8028" stroke-miterlimit="10" x1="-59.626" y1="148.681" x2="173.651" y2="381.96"/>
				
					<line fill="none" stroke="#FFFFFF" stroke-width="2.8028" stroke-miterlimit="10" x1="-69.086" y1="158.138" x2="164.195" y2="391.416"/>
				
					<line fill="none" stroke="#FFFFFF" stroke-width="2.8028" stroke-miterlimit="10" x1="385.766" y1="158.138" x2="152.488" y2="391.416"/>
				
					<line fill="none" stroke="#FFFFFF" stroke-width="2.8028" stroke-miterlimit="10" x1="377.467" y1="149.838" x2="144.189" y2="383.117"/>
				
					<line fill="none" stroke="#FFFFFF" stroke-width="2.8028" stroke-miterlimit="10" x1="369.168" y1="141.54" x2="135.887" y2="374.817"/>
				
					<line fill="none" stroke="#FFFFFF" stroke-width="2.8028" stroke-miterlimit="10" x1="360.866" y1="133.24" x2="127.588" y2="366.519"/>
				
					<line fill="none" stroke="#FFFFFF" stroke-width="2.8028" stroke-miterlimit="10" x1="352.567" y1="124.941" x2="119.289" y2="358.219"/>
				
					<line fill="none" stroke="#FFFFFF" stroke-width="2.8028" stroke-miterlimit="10" x1="344.268" y1="116.643" x2="110.99" y2="349.92"/>
				
					<line fill="none" stroke="#FFFFFF" stroke-width="2.8028" stroke-miterlimit="10" x1="335.969" y1="108.342" x2="102.691" y2="341.621"/>
				
					<line fill="none" stroke="#FFFFFF" stroke-width="2.8028" stroke-miterlimit="10" x1="327.67" y1="100.043" x2="94.392" y2="333.321"/>
				
					<line fill="none" stroke="#FFFFFF" stroke-width="2.8028" stroke-miterlimit="10" x1="319.371" y1="91.743" x2="86.093" y2="325.022"/>
				
					<line fill="none" stroke="#FFFFFF" stroke-width="2.8028" stroke-miterlimit="10" x1="311.072" y1="83.444" x2="77.794" y2="316.723"/>
				
					<line fill="none" stroke="#FFFFFF" stroke-width="2.8028" stroke-miterlimit="10" x1="302.773" y1="75.145" x2="69.495" y2="308.424"/>
				
					<line fill="none" stroke="#FFFFFF" stroke-width="2.8028" stroke-miterlimit="10" x1="294.474" y1="66.846" x2="61.193" y2="300.123"/>
				
					<line fill="none" stroke="#FFFFFF" stroke-width="2.8028" stroke-miterlimit="10" x1="286.175" y1="58.545" x2="52.895" y2="291.825"/>
				
					<line fill="none" stroke="#FFFFFF" stroke-width="2.8028" stroke-miterlimit="10" x1="277.876" y1="50.247" x2="44.596" y2="283.526"/>
				
					<line fill="none" stroke="#FFFFFF" stroke-width="2.8028" stroke-miterlimit="10" x1="269.574" y1="41.947" x2="36.296" y2="275.226"/>
				
					<line fill="none" stroke="#FFFFFF" stroke-width="2.8028" stroke-miterlimit="10" x1="261.275" y1="33.647" x2="27.998" y2="266.926"/>
				
					<line fill="none" stroke="#FFFFFF" stroke-width="2.8028" stroke-miterlimit="10" x1="252.977" y1="25.348" x2="19.699" y2="258.627"/>
				
					<line fill="none" stroke="#FFFFFF" stroke-width="2.8028" stroke-miterlimit="10" x1="244.678" y1="17.049" x2="11.399" y2="250.327"/>
				
					<line fill="none" stroke="#FFFFFF" stroke-width="2.8028" stroke-miterlimit="10" x1="236.378" y1="8.75" x2="3.098" y2="242.028"/>
				
					<line fill="none" stroke="#FFFFFF" stroke-width="2.8028" stroke-miterlimit="10" x1="228.08" y1="0.45" x2="-5.201" y2="233.729"/>
				
					<line fill="none" stroke="#FFFFFF" stroke-width="2.8028" stroke-miterlimit="10" x1="219.778" y1="-7.849" x2="-13.5" y2="225.429"/>
				
					<line fill="none" stroke="#FFFFFF" stroke-width="2.8028" stroke-miterlimit="10" x1="211.479" y1="-16.148" x2="-21.799" y2="217.129"/>
				
					<line fill="none" stroke="#FFFFFF" stroke-width="2.8028" stroke-miterlimit="10" x1="202.022" y1="-25.606" x2="-31.256" y2="207.673"/>
				
					<line fill="none" stroke="#FFFFFF" stroke-width="2.8028" stroke-miterlimit="10" x1="192.565" y1="-35.062" x2="-40.713" y2="198.216"/>
				
					<line fill="none" stroke="#FFFFFF" stroke-width="2.8028" stroke-miterlimit="10" x1="183.108" y1="-44.52" x2="-50.169" y2="188.759"/>
				
					<line fill="none" stroke="#FFFFFF" stroke-width="2.8028" stroke-miterlimit="10" x1="173.651" y1="-53.976" x2="-59.626" y2="179.304"/>
				
					<line fill="none" stroke="#FFFFFF" stroke-width="2.8028" stroke-miterlimit="10" x1="164.195" y1="-63.434" x2="-69.086" y2="169.846"/>
			</g>
		</g>
	</g>
	<path fill="#FFFFFF" stroke="#FFFFFF" stroke-width="2.8028" stroke-miterlimit="10" d="M236.151,154.515
		c0,47.22-38.276,85.496-85.492,85.496c-47.221,0-85.492-38.276-85.492-85.496c0-47.212,38.271-85.496,85.492-85.496
		C197.875,69.019,236.151,107.302,236.151,154.515z"/>
	<path fill="#023148" d="M229.908,154.515c0,43.771-35.481,79.252-79.248,79.252c-43.77,0-79.249-35.482-79.249-79.252
		c0-43.765,35.479-79.252,79.249-79.252C194.426,75.263,229.908,110.75,229.908,154.515z"/>
	<circle fill="#023148" stroke="#FFFFFF" stroke-width="2.8028" stroke-miterlimit="10" cx="112.701" cy="117.006" r="17.085"/>
	<circle fill="#023148" stroke="#FFFFFF" stroke-width="2.8028" stroke-miterlimit="10" cx="148.003" cy="98.788" r="17.084"/>
	<circle fill="#023148" stroke="#FFFFFF" stroke-width="2.8028" stroke-miterlimit="10" cx="184.707" cy="114.204" r="17.085"/>
	<circle fill="#023148" stroke="#FFFFFF" stroke-width="2.8028" stroke-miterlimit="10" cx="102.891" cy="186.917" r="17.085"/>
	<circle fill="#023148" stroke="#FFFFFF" stroke-width="2.8028" stroke-miterlimit="10" cx="171.126" cy="165.545" r="17.084"/>
	<path fill="#023148" stroke="#FFFFFF" stroke-width="2.8028" stroke-miterlimit="10" d="M152.397,209.987
		c0,9.437-7.65,17.083-17.085,17.083s-17.085-7.646-17.085-17.083c0-9.438,7.65-17.085,17.085-17.085
		S152.397,200.549,152.397,209.987z"/>
	<circle fill="#023148" stroke="#FFFFFF" stroke-width="2.8028" stroke-miterlimit="10" cx="173.851" cy="207.184" r="17.085"/>
	<circle fill="#023148" stroke="#FFFFFF" stroke-width="2.8028" stroke-miterlimit="10" cx="202.925" cy="184.114" r="17.085"/>
	<circle fill="#023148" stroke="#FFFFFF" stroke-width="2.8028" stroke-miterlimit="10" cx="97.532" cy="150.37" r="17.085"/>
	<circle fill="#023148" stroke="#FFFFFF" stroke-width="2.8028" stroke-miterlimit="10" cx="135.288" cy="170.69" r="17.085"/>
	<circle fill="#023148" stroke="#FFFFFF" stroke-width="2.8028" stroke-miterlimit="10" cx="148.169" cy="137.056" r="17.085"/>
	<circle fill="#023148" stroke="#FFFFFF" stroke-width="2.8028" stroke-miterlimit="10" cx="207.646" cy="146.165" r="17.084"/>
</g>
<line fill="none" stroke="#FFF000" stroke-width="4.2042" stroke-miterlimit="10" x1="191.213" y1="116.694" x2="352.375" y2="116.694"/>
<line fill="none" stroke="#FFF000" stroke-width="4.2042" stroke-miterlimit="10" x1="247.732" y1="199.378" x2="352.375" y2="199.378"/>
<g>
	<g enable-background="new    ">
		<path fill="#FFFFFF" d="M366.455,100.752c1.596-0.261,3.568-0.464,5.657-0.464c9.456,0,11.429,5.83,11.429,10.762v0.028
			c0,4.032-1.248,6.962-3.191,8.848c-2.001,1.943-5.163,2.93-9.079,2.93c-1.973,0-3.568-0.087-4.815-0.261V100.752z M369.82,120.042
			c0.58,0.087,1.392,0.116,2.175,0.116c4.989,0.028,8.006-2.901,8.006-9.021c0-5.396-2.785-8.18-7.571-8.18
			c-1.16,0-2.03,0.115-2.61,0.231V120.042z"/>
		<path fill="#FFFFFF" d="M398.01,118.853c0,1.363,0.029,2.756,0.232,3.8h-3.046l-0.232-1.856h-0.087
			c-0.899,1.247-2.466,2.176-4.467,2.176c-2.987,0-4.699-2.205-4.699-4.67c0-3.975,3.452-5.947,8.934-5.947
			c0-1.188,0-3.567-3.22-3.567c-1.421,0-2.872,0.435-3.887,1.103l-0.696-2.234c1.131-0.725,3.017-1.334,5.164-1.334
			c4.699,0,6.004,3.104,6.004,6.498V118.853z M394.732,114.617c-2.64,0-5.686,0.493-5.686,3.336c0,1.77,1.103,2.553,2.35,2.553
			c1.828,0,3.336-1.393,3.336-3.249V114.617z"/>
		<path fill="#FFFFFF" d="M402.908,103.769l3.336-1.044v3.945h3.8v2.523h-3.8v8.093c0,1.973,0.609,2.93,2.031,2.93
			c0.666,0,1.072-0.087,1.479-0.203l0.116,2.582c-0.58,0.231-1.479,0.377-2.61,0.377c-1.334,0-2.466-0.436-3.162-1.219
			c-0.813-0.87-1.189-2.204-1.189-4.293v-8.267h-2.262v-2.523h2.262V103.769z"/>
		<path fill="#FFFFFF" d="M424.139,118.853c0,1.363,0.028,2.756,0.231,3.8h-3.046l-0.232-1.856h-0.086
			c-0.9,1.247-2.467,2.176-4.468,2.176c-2.987,0-4.698-2.205-4.698-4.67c0-3.975,3.451-5.947,8.934-5.947
			c0-1.188,0-3.567-3.22-3.567c-1.421,0-2.872,0.435-3.888,1.103l-0.695-2.234c1.131-0.725,3.017-1.334,5.163-1.334
			c4.699,0,6.005,3.104,6.005,6.498V118.853z M420.86,114.617c-2.64,0-5.686,0.493-5.686,3.336c0,1.77,1.103,2.553,2.35,2.553
			c1.827,0,3.336-1.393,3.336-3.249V114.617z"/>
		<path fill="#FFFFFF" d="M435.242,123.987h-2.436l8.295-23.872h2.467L435.242,123.987z"/>
		<path fill="#FFFFFF" d="M463.781,122.015c-1.131,0.521-2.9,0.957-5.076,0.957c-4.815,0-7.6-3.22-7.6-8.093
			c0-4.758,2.668-8.558,7.193-8.558c4.496,0,6.295,3.742,6.295,7.687c0,0.552-0.029,1.016-0.088,1.422h-10.152
			c0.088,3.597,2.32,4.96,4.845,4.96c1.769,0,2.987-0.319,4.032-0.754L463.781,122.015z M461.402,113.023
			c0.029-1.915-0.754-4.294-3.336-4.294c-2.465,0-3.51,2.438-3.684,4.294H461.402z"/>
		<path fill="#FFFFFF" d="M471.203,122.653h-3.365V99.389h3.365V122.653z"/>
		<path fill="#FFFFFF" d="M487.184,122.015c-1.131,0.521-2.9,0.957-5.076,0.957c-4.814,0-7.6-3.22-7.6-8.093
			c0-4.758,2.669-8.558,7.193-8.558c4.496,0,6.295,3.742,6.295,7.687c0,0.552-0.029,1.016-0.087,1.422h-10.152
			c0.087,3.597,2.32,4.96,4.845,4.96c1.769,0,2.986-0.319,4.031-0.754L487.184,122.015z M484.805,113.023
			c0.029-1.915-0.754-4.294-3.335-4.294c-2.466,0-3.51,2.438-3.685,4.294H484.805z"/>
		<path fill="#FFFFFF" d="M502.003,122.159c-0.755,0.348-2.263,0.813-4.119,0.813c-4.612,0-7.629-3.162-7.629-8.151
			c0-4.844,3.133-8.499,8.267-8.499c1.538,0,2.872,0.377,3.568,0.726l-0.667,2.581c-0.58-0.29-1.509-0.638-2.872-0.638
			c-3.133,0-4.873,2.553-4.873,5.686c0,3.51,2.06,5.598,4.844,5.598c1.335,0,2.264-0.318,3.018-0.638L502.003,122.159z"/>
		<path fill="#FFFFFF" d="M505.683,103.769l3.336-1.044v3.945h3.8v2.523h-3.8v8.093c0,1.973,0.609,2.93,2.03,2.93
			c0.668,0,1.074-0.087,1.479-0.203l0.116,2.582c-0.58,0.231-1.479,0.377-2.611,0.377c-1.334,0-2.465-0.436-3.161-1.219
			c-0.812-0.87-1.189-2.204-1.189-4.293v-8.267h-2.263v-2.523h2.263V103.769z"/>
		<path fill="#FFFFFF" d="M523.752,109.628c-0.291-0.058-0.609-0.087-0.986-0.087c-2.264,0-3.685,1.856-3.685,4.642v8.47h-3.364
			v-11.109c0-1.856-0.029-3.395-0.117-4.873h2.93l0.117,2.93h0.115c0.726-2.031,2.408-3.278,4.148-3.278
			c0.318,0,0.551,0.029,0.842,0.087V109.628z"/>
		<path fill="#FFFFFF" d="M528.042,104.204c-1.161,0-1.944-0.87-1.944-1.943c0-1.132,0.813-1.973,1.973-1.973
			s1.943,0.841,1.943,1.973C530.014,103.334,529.26,104.204,528.042,104.204z M529.725,122.653h-3.365v-16.012h3.365V122.653z"/>
		<path fill="#FFFFFF" d="M544.806,122.159c-0.755,0.348-2.263,0.813-4.119,0.813c-4.612,0-7.629-3.162-7.629-8.151
			c0-4.844,3.133-8.499,8.267-8.499c1.538,0,2.872,0.377,3.568,0.726l-0.667,2.581c-0.58-0.29-1.509-0.638-2.872-0.638
			c-3.133,0-4.873,2.553-4.873,5.686c0,3.51,2.06,5.598,4.844,5.598c1.335,0,2.264-0.318,3.018-0.638L544.806,122.159z"/>
		<path fill="#FFFFFF" d="M567.658,118.389c0,1.45,0.059,3.161,0.116,4.264h-2.959l-0.174-2.494h-0.087
			c-0.842,1.624-2.582,2.813-4.844,2.813c-3.627,0-6.383-3.22-6.383-8.151c0-5.424,3.104-8.499,6.672-8.499
			c2.061,0,3.539,0.929,4.235,2.146h0.058v-9.079h3.365V118.389z M564.293,113.138c0-2.61-1.652-4.147-3.539-4.147
			c-2.581,0-4.002,2.553-4.002,5.714c0,3.133,1.393,5.541,3.944,5.541c2.176,0,3.597-1.915,3.597-4.148V113.138z"/>
		<path fill="#FFFFFF" d="M584.941,118.07c0,1.798,0.087,3.307,0.145,4.583h-2.958l-0.175-2.32h-0.086
			c-0.668,1.102-2.234,2.64-4.815,2.64c-2.756,0-5.163-1.712-5.163-6.817v-9.514h3.364v8.963c0,2.756,0.783,4.583,2.987,4.583
			c1.538,0,3.336-1.218,3.336-3.626v-9.891h3.365V118.07z"/>
		<path fill="#FFFFFF" d="M603.037,114.531c0,5.976-3.887,8.441-7.484,8.441c-4.147,0-7.309-3.046-7.309-8.209
			c0-5.396,3.307-8.441,7.541-8.441C600.166,106.322,603.037,109.628,603.037,114.531z M595.67,108.845
			c-2.872,0-3.975,3.075-3.975,5.831c0,3.133,1.479,5.772,3.945,5.772c2.437,0,3.945-2.64,3.945-5.831
			C599.586,111.978,598.482,108.845,595.67,108.845z"/>
		<path fill="#FFFFFF" d="M615.939,109.107c1.103-1.799,2.843-2.785,5.076-2.785c3.598,0,6.295,3.19,6.295,8.151
			c0,5.859-3.395,8.499-6.759,8.499c-1.915,0-3.481-0.899-4.265-2.205h-0.058v8.354h-3.364v-17.288c0-2.089-0.059-3.742-0.117-5.163
			h2.959l0.174,2.437H615.939z M616.229,116.213c0,2.872,1.973,4.09,3.626,4.09c2.611,0,4.031-2.407,4.031-5.714
			c0-3.046-1.363-5.569-3.944-5.569c-2.001,0-3.713,1.885-3.713,4.234V116.213z"/>
		<path fill="#FFFFFF" d="M643.607,118.07c0,1.798,0.088,3.307,0.146,4.583h-2.958l-0.175-2.32h-0.087
			c-0.667,1.102-2.233,2.64-4.814,2.64c-2.756,0-5.164-1.712-5.164-6.817v-9.514h3.365v8.963c0,2.756,0.783,4.583,2.987,4.583
			c1.538,0,3.336-1.218,3.336-3.626v-9.891h3.364V118.07z"/>
		<path fill="#FFFFFF" d="M655.961,109.628c-0.291-0.058-0.609-0.087-0.986-0.087c-2.264,0-3.685,1.856-3.685,4.642v8.47h-3.364
			v-11.109c0-1.856-0.029-3.395-0.117-4.873h2.93l0.117,2.93h0.115c0.726-2.031,2.408-3.278,4.148-3.278
			c0.318,0,0.551,0.029,0.842,0.087V109.628z"/>
		<path fill="#FFFFFF" d="M661.643,109.107c1.104-1.799,2.844-2.785,5.076-2.785c3.598,0,6.295,3.19,6.295,8.151
			c0,5.859-3.394,8.499-6.758,8.499c-1.915,0-3.481-0.899-4.265-2.205h-0.058v8.354h-3.365v-17.288c0-2.089-0.059-3.742-0.116-5.163
			h2.959l0.174,2.437H661.643z M661.934,116.213c0,2.872,1.973,4.09,3.625,4.09c2.611,0,4.032-2.407,4.032-5.714
			c0-3.046-1.363-5.569-3.944-5.569c-2.002,0-3.713,1.885-3.713,4.234V116.213z"/>
		<path fill="#FFFFFF" d="M690.094,114.531c0,5.976-3.887,8.441-7.483,8.441c-4.147,0-7.31-3.046-7.31-8.209
			c0-5.396,3.307-8.441,7.541-8.441C687.223,106.322,690.094,109.628,690.094,114.531z M682.727,108.845
			c-2.871,0-3.975,3.075-3.975,5.831c0,3.133,1.48,5.772,3.945,5.772c2.438,0,3.945-2.64,3.945-5.831
			C686.643,111.978,685.54,108.845,682.727,108.845z"/>
		<path fill="#FFFFFF" d="M701.373,109.687c-0.638-0.406-1.74-0.899-3.045-0.899c-1.508,0-2.32,0.87-2.32,1.943
			c0,1.103,0.725,1.653,2.668,2.494c2.641,1.074,4.032,2.524,4.032,4.845c0,3.074-2.35,4.902-5.976,4.902
			c-1.682,0-3.277-0.436-4.352-1.073l0.755-2.495c0.812,0.493,2.292,1.073,3.655,1.073c1.798,0,2.668-0.87,2.668-2.088
			c0-1.219-0.667-1.886-2.582-2.698c-2.842-1.131-4.09-2.727-4.09-4.583c0-2.669,2.176-4.786,5.541-4.786
			c1.566,0,2.93,0.436,3.8,0.929L701.373,109.687z"/>
		<path fill="#FFFFFF" d="M717.673,122.015c-1.132,0.521-2.901,0.957-5.076,0.957c-4.815,0-7.601-3.22-7.601-8.093
			c0-4.758,2.67-8.558,7.194-8.558c4.496,0,6.294,3.742,6.294,7.687c0,0.552-0.028,1.016-0.086,1.422h-10.152
			c0.086,3.597,2.32,4.96,4.844,4.96c1.77,0,2.987-0.319,4.031-0.754L717.673,122.015z M715.294,113.023
			c0.029-1.915-0.754-4.294-3.335-4.294c-2.467,0-3.51,2.438-3.685,4.294H715.294z"/>
		<path fill="#FFFFFF" d="M748.85,106.67l-4.844,15.982h-3.046l-2.06-7.078c-0.492-1.682-0.841-3.22-1.189-5.104h-0.086
			c-0.32,1.914-0.755,3.538-1.248,5.134l-2.176,7.049h-3.045l-4.584-15.982h3.481l1.769,7.657c0.378,1.712,0.755,3.423,1.045,5.105
			h0.059c0.318-1.653,0.812-3.423,1.275-5.076l2.205-7.687h2.756l2.088,7.513c0.493,1.856,0.928,3.567,1.248,5.25h0.086
			c0.262-1.653,0.639-3.365,1.074-5.222l1.855-7.541H748.85z"/>
		<path fill="#FFFFFF" d="M753.108,104.204c-1.161,0-1.944-0.87-1.944-1.943c0-1.132,0.813-1.973,1.973-1.973
			s1.943,0.841,1.943,1.973C755.08,103.334,754.326,104.204,753.108,104.204z M754.791,122.653h-3.365v-16.012h3.365V122.653z"/>
		<path fill="#FFFFFF" d="M767.146,109.628c-0.29-0.058-0.609-0.087-0.986-0.087c-2.263,0-3.685,1.856-3.685,4.642v8.47h-3.364
			v-11.109c0-1.856-0.028-3.395-0.116-4.873h2.93l0.116,2.93h0.116c0.725-2.031,2.407-3.278,4.148-3.278
			c0.318,0,0.551,0.029,0.841,0.087V109.628z"/>
		<path fill="#FFFFFF" d="M781.443,122.015c-1.131,0.521-2.9,0.957-5.076,0.957c-4.815,0-7.6-3.22-7.6-8.093
			c0-4.758,2.668-8.558,7.193-8.558c4.496,0,6.295,3.742,6.295,7.687c0,0.552-0.029,1.016-0.088,1.422h-10.152
			c0.088,3.597,2.32,4.96,4.845,4.96c1.769,0,2.987-0.319,4.032-0.754L781.443,122.015z M779.064,113.023
			c0.029-1.915-0.754-4.294-3.336-4.294c-2.465,0-3.51,2.438-3.684,4.294H779.064z"/>
	</g>
</g>
<g>
	<g enable-background="new    ">
		<path fill="#FFFFFF" d="M387.688,196.75h-3.249l-0.493-9.34c-0.145-3.018-0.319-6.439-0.29-9.195h-0.087
			c-0.667,2.61-1.537,5.453-2.465,8.267l-3.307,10.065h-2.523l-3.046-9.862c-0.899-2.9-1.682-5.802-2.233-8.47h-0.087
			c-0.058,2.756-0.232,6.266-0.406,9.369l-0.493,9.166h-3.133l1.509-22.22h4.177l3.133,9.775c0.812,2.727,1.479,5.192,2.03,7.629
			h0.087c0.551-2.378,1.247-4.902,2.117-7.657l3.22-9.747h4.206L387.688,196.75z"/>
		<path fill="#FFFFFF" d="M405.869,192.167c0,1.798,0.087,3.307,0.145,4.583h-2.958l-0.175-2.32h-0.086
			c-0.668,1.102-2.234,2.64-4.815,2.64c-2.756,0-5.164-1.712-5.164-6.817v-9.514h3.365v8.963c0,2.756,0.783,4.583,2.988,4.583
			c1.538,0,3.335-1.218,3.335-3.626v-9.891h3.365V192.167z"/>
		<path fill="#FFFFFF" d="M414.885,196.75h-3.364v-23.264h3.364V196.75z"/>
		<path fill="#FFFFFF" d="M421.178,177.866l3.336-1.044v3.945h3.799v2.523h-3.799v8.093c0,1.973,0.609,2.93,2.03,2.93
			c0.667,0,1.073-0.087,1.479-0.203l0.115,2.582c-0.58,0.231-1.479,0.377-2.61,0.377c-1.334,0-2.466-0.436-3.161-1.219
			c-0.813-0.87-1.189-2.204-1.189-4.293v-8.267h-2.263v-2.523h2.263V177.866z"/>
		<path fill="#FFFFFF" d="M434.228,178.302c-1.161,0-1.944-0.87-1.944-1.943c0-1.132,0.813-1.973,1.973-1.973
			s1.943,0.841,1.943,1.973C436.199,177.432,435.445,178.302,434.228,178.302z M435.91,196.75h-3.365v-16.012h3.365V196.75z"/>
		<path fill="#FFFFFF" d="M440.404,186.742h7.977v2.408h-7.977V186.742z"/>
		<path fill="#FFFFFF" d="M456.209,196.75h-3.365v-23.264h3.365V196.75z"/>
		<path fill="#FFFFFF" d="M473.031,192.95c0,1.363,0.029,2.756,0.232,3.8h-3.047l-0.231-1.856h-0.087
			c-0.899,1.247-2.466,2.176-4.467,2.176c-2.988,0-4.699-2.205-4.699-4.67c0-3.975,3.451-5.947,8.934-5.947
			c0-1.188,0-3.567-3.219-3.567c-1.422,0-2.873,0.435-3.888,1.103l-0.696-2.234c1.131-0.725,3.018-1.334,5.164-1.334
			c4.699,0,6.004,3.104,6.004,6.498V192.95z M469.754,188.715c-2.641,0-5.686,0.493-5.686,3.336c0,1.77,1.102,2.553,2.35,2.553
			c1.827,0,3.336-1.393,3.336-3.249V188.715z"/>
		<path fill="#FFFFFF" d="M491.243,180.768l-3.858,11.08c-1.885,5.25-3.219,8.209-5.134,10.065c-1.45,1.335-2.93,1.886-3.713,2.06
			l-0.87-2.843c3.48-1.247,4.729-4.496,4.729-4.931c0-0.175-0.029-0.377-0.174-0.696l-5.482-14.735h3.684l2.9,8.992
			c0.319,1.044,0.639,2.262,0.87,3.19h0.087c0.232-0.929,0.551-2.117,0.842-3.19l2.582-8.992H491.243z"/>
		<path fill="#FFFFFF" d="M506.642,196.113c-1.132,0.521-2.901,0.957-5.076,0.957c-4.815,0-7.601-3.22-7.601-8.093
			c0-4.758,2.67-8.558,7.194-8.558c4.496,0,6.294,3.742,6.294,7.687c0,0.552-0.028,1.016-0.086,1.422h-10.152
			c0.086,3.597,2.32,4.96,4.844,4.96c1.77,0,2.987-0.319,4.031-0.754L506.642,196.113z M504.263,187.12
			c0.029-1.915-0.754-4.294-3.335-4.294c-2.467,0-3.51,2.438-3.685,4.294H504.263z"/>
		<path fill="#FFFFFF" d="M520.068,183.726c-0.291-0.058-0.609-0.087-0.986-0.087c-2.264,0-3.685,1.856-3.685,4.642v8.47h-3.364
			v-11.109c0-1.856-0.029-3.395-0.117-4.873h2.93l0.117,2.93h0.115c0.726-2.031,2.408-3.278,4.148-3.278
			c0.318,0,0.551,0.029,0.842,0.087V183.726z"/>
		<path fill="#FFFFFF" d="M543.036,192.95c0,1.363,0.028,2.756,0.231,3.8h-3.045l-0.232-1.856h-0.087
			c-0.899,1.247-2.466,2.176-4.468,2.176c-2.986,0-4.698-2.205-4.698-4.67c0-3.975,3.452-5.947,8.935-5.947
			c0-1.188,0-3.567-3.221-3.567c-1.421,0-2.871,0.435-3.887,1.103l-0.696-2.234c1.132-0.725,3.017-1.334,5.163-1.334
			c4.699,0,6.005,3.104,6.005,6.498V192.95z M539.758,188.715c-2.639,0-5.686,0.493-5.686,3.336c0,1.77,1.104,2.553,2.35,2.553
			c1.828,0,3.336-1.393,3.336-3.249V188.715z"/>
		<path fill="#FFFFFF" d="M561.8,196.75h-3.364v-9.369c0-2.263-0.755-4.177-3.047-4.177c-1.652,0-3.422,1.363-3.422,3.916v9.63
			h-3.365v-11.486c0-1.77-0.059-3.133-0.116-4.496h2.93l0.175,2.378h0.086c0.755-1.363,2.438-2.727,4.845-2.727
			c2.495,0,5.279,1.625,5.279,6.556V196.75z"/>
		<path fill="#FFFFFF" d="M568.031,177.866l3.336-1.044v3.945h3.8v2.523h-3.8v8.093c0,1.973,0.609,2.93,2.031,2.93
			c0.666,0,1.072-0.087,1.479-0.203l0.116,2.582c-0.58,0.231-1.479,0.377-2.61,0.377c-1.334,0-2.466-0.436-3.162-1.219
			c-0.813-0.87-1.189-2.204-1.189-4.293v-8.267h-2.262v-2.523h2.262V177.866z"/>
		<path fill="#FFFFFF" d="M581.082,178.302c-1.161,0-1.944-0.87-1.944-1.943c0-1.132,0.813-1.973,1.973-1.973
			s1.943,0.841,1.943,1.973C583.054,177.432,582.3,178.302,581.082,178.302z M582.764,196.75h-3.365v-16.012h3.365V196.75z"/>
		<path fill="#FFFFFF" d="M587.258,186.742h7.977v2.408h-7.977V186.742z"/>
		<path fill="#FFFFFF" d="M601.381,178.302c-1.16,0-1.943-0.87-1.943-1.943c0-1.132,0.813-1.973,1.973-1.973
			s1.943,0.841,1.943,1.973C603.354,177.432,602.6,178.302,601.381,178.302z M603.063,196.75h-3.364v-16.012h3.364V196.75z"/>
		<path fill="#FFFFFF" d="M621.916,196.75h-3.365v-9.369c0-2.263-0.754-4.177-3.045-4.177c-1.654,0-3.424,1.363-3.424,3.916v9.63
			h-3.364v-11.486c0-1.77-0.058-3.133-0.116-4.496h2.93l0.174,2.378h0.088c0.754-1.363,2.436-2.727,4.844-2.727
			c2.494,0,5.279,1.625,5.279,6.556V196.75z"/>
		<path fill="#FFFFFF" d="M628.147,177.866l3.336-1.044v3.945h3.8v2.523h-3.8v8.093c0,1.973,0.609,2.93,2.03,2.93
			c0.668,0,1.074-0.087,1.479-0.203l0.116,2.582c-0.58,0.231-1.479,0.377-2.611,0.377c-1.334,0-2.465-0.436-3.161-1.219
			c-0.812-0.87-1.189-2.204-1.189-4.293v-8.267h-2.263v-2.523h2.263V177.866z"/>
		<path fill="#FFFFFF" d="M651.205,196.113c-1.131,0.521-2.9,0.957-5.076,0.957c-4.815,0-7.6-3.22-7.6-8.093
			c0-4.758,2.668-8.558,7.193-8.558c4.496,0,6.295,3.742,6.295,7.687c0,0.552-0.029,1.016-0.088,1.422h-10.152
			c0.088,3.597,2.32,4.96,4.845,4.96c1.769,0,2.987-0.319,4.032-0.754L651.205,196.113z M648.826,187.12
			c0.029-1.915-0.754-4.294-3.336-4.294c-2.465,0-3.51,2.438-3.684,4.294H648.826z"/>
		<path fill="#FFFFFF" d="M664.631,183.726c-0.289-0.058-0.609-0.087-0.986-0.087c-2.262,0-3.684,1.856-3.684,4.642v8.47h-3.365
			v-11.109c0-1.856-0.028-3.395-0.115-4.873h2.93l0.115,2.93h0.117c0.725-2.031,2.406-3.278,4.147-3.278
			c0.319,0,0.552,0.029,0.841,0.087V183.726z"/>
		<path fill="#FFFFFF" d="M669.008,180.768c0-1.741,0-4.322,1.799-6.121c1.102-1.073,2.581-1.479,3.887-1.479
			c1.044,0,1.856,0.203,2.437,0.436l-0.349,2.581c-0.435-0.174-0.928-0.318-1.711-0.318c-2.088,0-2.727,1.885-2.727,4.031v0.871
			h3.51v2.523h-3.48v13.459h-3.365v-13.459h-2.146v-2.523H669.008z"/>
		<path fill="#FFFFFF" d="M691.225,196.113c-1.131,0.521-2.9,0.957-5.076,0.957c-4.815,0-7.6-3.22-7.6-8.093
			c0-4.758,2.668-8.558,7.193-8.558c4.496,0,6.295,3.742,6.295,7.687c0,0.552-0.029,1.016-0.088,1.422h-10.152
			c0.088,3.597,2.32,4.96,4.845,4.96c1.769,0,2.987-0.319,4.032-0.754L691.225,196.113z M688.846,187.12
			c0.029-1.915-0.754-4.294-3.336-4.294c-2.465,0-3.51,2.438-3.684,4.294H688.846z"/>
		<path fill="#FFFFFF" d="M704.65,183.726c-0.29-0.058-0.609-0.087-0.986-0.087c-2.263,0-3.684,1.856-3.684,4.642v8.47h-3.365
			v-11.109c0-1.856-0.029-3.395-0.116-4.873h2.93l0.116,2.93h0.116c0.726-2.031,2.407-3.278,4.147-3.278
			c0.319,0,0.552,0.029,0.842,0.087V183.726z"/>
		<path fill="#FFFFFF" d="M720.282,196.113c-1.132,0.521-2.901,0.957-5.076,0.957c-4.815,0-7.601-3.22-7.601-8.093
			c0-4.758,2.67-8.558,7.194-8.558c4.496,0,6.294,3.742,6.294,7.687c0,0.552-0.028,1.016-0.086,1.422h-10.152
			c0.086,3.597,2.32,4.96,4.844,4.96c1.77,0,2.987-0.319,4.031-0.754L720.282,196.113z M717.903,187.12
			c0.029-1.915-0.754-4.294-3.335-4.294c-2.467,0-3.51,2.438-3.685,4.294H717.903z"/>
		<path fill="#FFFFFF" d="M738.871,196.75h-3.365v-9.369c0-2.263-0.754-4.177-3.045-4.177c-1.654,0-3.424,1.363-3.424,3.916v9.63
			h-3.364v-11.486c0-1.77-0.058-3.133-0.116-4.496h2.93l0.174,2.378h0.088c0.754-1.363,2.436-2.727,4.844-2.727
			c2.494,0,5.279,1.625,5.279,6.556V196.75z"/>
		<path fill="#FFFFFF" d="M755.197,196.257c-0.754,0.348-2.262,0.813-4.119,0.813c-4.611,0-7.629-3.162-7.629-8.151
			c0-4.844,3.133-8.499,8.268-8.499c1.537,0,2.871,0.377,3.568,0.726l-0.668,2.581c-0.58-0.29-1.508-0.638-2.871-0.638
			c-3.133,0-4.873,2.553-4.873,5.686c0,3.51,2.059,5.598,4.844,5.598c1.334,0,2.263-0.318,3.017-0.638L755.197,196.257z"/>
		<path fill="#FFFFFF" d="M771.234,196.113c-1.131,0.521-2.9,0.957-5.076,0.957c-4.814,0-7.6-3.22-7.6-8.093
			c0-4.758,2.669-8.558,7.193-8.558c4.496,0,6.295,3.742,6.295,7.687c0,0.552-0.029,1.016-0.087,1.422h-10.152
			c0.087,3.597,2.32,4.96,4.845,4.96c1.769,0,2.986-0.319,4.031-0.754L771.234,196.113z M768.855,187.12
			c0.029-1.915-0.754-4.294-3.335-4.294c-2.466,0-3.51,2.438-3.685,4.294H768.855z"/>
		<path fill="#FFFFFF" d="M367.964,207.302c-1.161,0-1.944-0.87-1.944-1.943c0-1.132,0.813-1.973,1.973-1.973
			s1.943,0.841,1.943,1.973C369.936,206.432,369.182,207.302,367.964,207.302z M369.646,225.75h-3.365v-16.012h3.365V225.75z"/>
		<path fill="#FFFFFF" d="M388.499,225.75h-3.365v-9.369c0-2.263-0.754-4.177-3.046-4.177c-1.653,0-3.423,1.363-3.423,3.916v9.63
			H375.3v-11.486c0-1.77-0.058-3.133-0.116-4.496h2.93l0.174,2.378h0.087c0.754-1.363,2.437-2.727,4.844-2.727
			c2.495,0,5.279,1.625,5.279,6.556V225.75z"/>
		<path fill="#FFFFFF" d="M402.011,212.784c-0.638-0.406-1.74-0.899-3.045-0.899c-1.508,0-2.321,0.87-2.321,1.943
			c0,1.103,0.725,1.653,2.669,2.494c2.64,1.074,4.032,2.524,4.032,4.845c0,3.074-2.35,4.902-5.976,4.902
			c-1.682,0-3.278-0.436-4.351-1.073l0.754-2.495c0.812,0.493,2.292,1.073,3.655,1.073c1.798,0,2.669-0.87,2.669-2.088
			c0-1.219-0.667-1.886-2.582-2.698c-2.842-1.131-4.09-2.727-4.09-4.583c0-2.669,2.176-4.786,5.541-4.786
			c1.566,0,2.929,0.436,3.8,0.929L402.011,212.784z"/>
		<path fill="#FFFFFF" d="M420.949,221.167c0,1.798,0.087,3.307,0.145,4.583h-2.958l-0.175-2.32h-0.086
			c-0.668,1.102-2.234,2.64-4.815,2.64c-2.756,0-5.163-1.712-5.163-6.817v-9.514h3.364v8.963c0,2.756,0.783,4.583,2.987,4.583
			c1.538,0,3.336-1.218,3.336-3.626v-9.891h3.365V221.167z"/>
		<path fill="#FFFFFF" d="M429.965,225.75h-3.364v-23.264h3.364V225.75z"/>
		<path fill="#FFFFFF" d="M446.787,221.95c0,1.363,0.029,2.756,0.232,3.8h-3.047l-0.231-1.856h-0.087
			c-0.899,1.247-2.466,2.176-4.467,2.176c-2.988,0-4.699-2.205-4.699-4.67c0-3.975,3.451-5.947,8.934-5.947
			c0-1.188,0-3.567-3.219-3.567c-1.422,0-2.873,0.435-3.888,1.103l-0.696-2.234c1.131-0.725,3.018-1.334,5.164-1.334
			c4.699,0,6.004,3.104,6.004,6.498V221.95z M443.51,217.715c-2.641,0-5.686,0.493-5.686,3.336c0,1.77,1.102,2.553,2.35,2.553
			c1.827,0,3.336-1.393,3.336-3.249V217.715z"/>
		<path fill="#FFFFFF" d="M453.02,206.866l3.336-1.044v3.945h3.8v2.523h-3.8v8.093c0,1.973,0.609,2.93,2.031,2.93
			c0.666,0,1.072-0.087,1.479-0.203l0.116,2.582c-0.58,0.231-1.479,0.377-2.61,0.377c-1.334,0-2.466-0.436-3.162-1.219
			c-0.813-0.87-1.189-2.204-1.189-4.293v-8.267h-2.262v-2.523h2.262V206.866z"/>
		<path fill="#FFFFFF" d="M466.07,207.302c-1.161,0-1.944-0.87-1.944-1.943c0-1.132,0.813-1.973,1.973-1.973
			s1.943,0.841,1.943,1.973C468.042,206.432,467.288,207.302,466.07,207.302z M467.752,225.75h-3.365v-16.012h3.365V225.75z"/>
		<path fill="#FFFFFF" d="M487.185,217.628c0,5.976-3.887,8.441-7.483,8.441c-4.148,0-7.311-3.046-7.311-8.209
			c0-5.396,3.307-8.441,7.542-8.441C484.313,209.419,487.185,212.726,487.185,217.628z M479.816,211.943
			c-2.871,0-3.974,3.075-3.974,5.831c0,3.133,1.479,5.772,3.944,5.772c2.438,0,3.945-2.64,3.945-5.831
			C483.732,215.075,482.631,211.943,479.816,211.943z"/>
		<path fill="#FFFFFF" d="M505.049,225.75h-3.365v-9.369c0-2.263-0.754-4.177-3.046-4.177c-1.653,0-3.423,1.363-3.423,3.916v9.63
			h-3.365v-11.486c0-1.77-0.058-3.133-0.115-4.496h2.93l0.174,2.378h0.087c0.755-1.363,2.437-2.727,4.845-2.727
			c2.494,0,5.279,1.625,5.279,6.556V225.75z"/>
	</g>
</g>
</svg>
