<?xml version="1.0" encoding="utf-8"?>
<!-- Generator: Adobe Illustrator 16.0.0, SVG Export Plug-In . SVG Version: 6.00 Build 0)  -->
<!DOCTYPE svg PUBLIC "-//W3C//DTD SVG 1.1//EN" "http://www.w3.org/Graphics/SVG/1.1/DTD/svg11.dtd">
<svg version="1.1" id="圖層_1" xmlns="http://www.w3.org/2000/svg" xmlns:xlink="http://www.w3.org/1999/xlink" x="0px" y="0px"
	 width="800px" height="246px" viewBox="0 0 800 246" enable-background="new 0 0 800 246" xml:space="preserve">
<g>
	<g>
		<path fill="#2D3E56" d="M283.966,178.473c-0.675-0.378-1.97-0.918-3.671-0.918c-2.456,0-3.481,1.431-3.481,2.754
			c0,1.754,1.16,2.618,3.778,3.752c3.32,1.457,4.913,3.266,4.913,6.101c0,3.455-2.564,6.046-7.207,6.046
			c-1.943,0-3.995-0.566-4.994-1.241l0.702-2.619c1.106,0.675,2.78,1.215,4.48,1.215c2.457,0,3.833-1.269,3.833-3.131
			c0-1.755-1.053-2.834-3.509-3.86c-3.077-1.241-5.155-3.104-5.155-5.911c0-3.266,2.618-5.723,6.721-5.723
			c1.971,0,3.455,0.486,4.346,0.945L283.966,178.473z"/>
		<path fill="#2D3E56" d="M291.609,178.743c-1.08,0-1.809-0.811-1.809-1.809c0-1.053,0.756-1.836,1.835-1.836
			c1.08,0,1.809,0.783,1.809,1.836C293.444,177.933,292.743,178.743,291.609,178.743z M293.175,195.91h-3.131v-14.9h3.131V195.91z"
			/>
		<path fill="#2D3E56" d="M310.965,181.037c-0.081,1.053-0.135,2.294-0.135,4.292v8.476c0,2.969-0.243,8.449-7.288,8.449
			c-1.728,0-3.536-0.378-4.696-1.08l0.701-2.43c0.918,0.54,2.349,1.053,4.022,1.053c2.429,0,4.156-1.35,4.156-4.724v-1.431h-0.054
			c-0.756,1.269-2.213,2.187-4.13,2.187c-3.509,0-5.911-3.104-5.911-7.261c0-5.048,3.05-7.855,6.289-7.855
			c2.214,0,3.455,1.134,4.076,2.321h0.054l0.135-1.997H310.965z M307.699,186.786c0-1.97-1.296-3.59-3.212-3.59
			c-2.16,0-3.672,2.052-3.672,5.237c0,2.915,1.323,4.993,3.645,4.993c1.619,0,3.239-1.241,3.239-3.725V186.786z"/>
		<path fill="#2D3E56" d="M328.461,195.91h-3.131v-8.719c0-2.105-0.702-3.887-2.834-3.887c-1.539,0-3.186,1.269-3.186,3.644v8.962
			h-3.131v-10.689c0-1.646-0.055-2.915-0.108-4.184h2.727l0.162,2.214h0.081c0.701-1.27,2.267-2.538,4.508-2.538
			c2.321,0,4.912,1.512,4.912,6.101V195.91z"/>
		<path fill="#2D3E56" d="M344.175,192.374c0,1.269,0.027,2.564,0.217,3.536h-2.835l-0.216-1.728h-0.081
			c-0.837,1.161-2.294,2.024-4.156,2.024c-2.78,0-4.373-2.052-4.373-4.346c0-3.698,3.212-5.533,8.313-5.533
			c0-1.107,0-3.32-2.996-3.32c-1.322,0-2.672,0.404-3.617,1.025l-0.647-2.078c1.053-0.675,2.807-1.242,4.805-1.242
			c4.373,0,5.587,2.889,5.587,6.047V192.374z M341.125,188.434c-2.456,0-5.291,0.458-5.291,3.104c0,1.646,1.026,2.376,2.187,2.376
			c1.701,0,3.104-1.296,3.104-3.023V188.434z"/>
		<path fill="#2D3E56" d="M352.602,195.91h-3.131v-21.648h3.131V195.91z"/>
		<path fill="#2D3E56" d="M358.299,197.151h-2.268l7.72-22.215h2.295L358.299,197.151z"/>
		<path fill="#2D3E56" d="M380.706,195.91H369.45v-20.649h10.797v2.618h-7.666v5.966h7.234v2.591h-7.234v6.856h8.125V195.91z"/>
		<path fill="#2D3E56" d="M388.214,195.91h-3.131v-21.648h3.131V195.91z"/>
		<path fill="#2D3E56" d="M404.438,195.316c-1.053,0.485-2.699,0.891-4.724,0.891c-4.481,0-7.072-2.996-7.072-7.531
			c0-4.427,2.483-7.963,6.694-7.963c4.184,0,5.857,3.482,5.857,7.153c0,0.513-0.027,0.945-0.081,1.322h-9.447
			c0.081,3.348,2.159,4.616,4.508,4.616c1.646,0,2.78-0.297,3.752-0.702L404.438,195.316z M402.225,186.948
			c0.027-1.781-0.701-3.995-3.104-3.995c-2.295,0-3.267,2.268-3.429,3.995H402.225z"/>
		<path fill="#2D3E56" d="M419.586,195.451c-0.702,0.324-2.105,0.756-3.833,0.756c-4.292,0-7.1-2.942-7.1-7.585
			c0-4.508,2.916-7.909,7.693-7.909c1.431,0,2.672,0.352,3.32,0.675l-0.621,2.402c-0.54-0.27-1.403-0.594-2.672-0.594
			c-2.916,0-4.535,2.376-4.535,5.291c0,3.266,1.916,5.209,4.508,5.209c1.241,0,2.105-0.297,2.808-0.594L419.586,195.451z"/>
		<path fill="#2D3E56" d="M424.367,178.338l3.104-0.972v3.671h3.535v2.349h-3.535v7.53c0,1.836,0.566,2.727,1.889,2.727
			c0.621,0,0.999-0.081,1.377-0.188l0.108,2.402c-0.54,0.216-1.377,0.351-2.43,0.351c-1.241,0-2.294-0.405-2.942-1.134
			c-0.756-0.81-1.106-2.052-1.106-3.995v-7.692h-2.105v-2.349h2.105V178.338z"/>
		<path fill="#2D3E56" d="M442.536,183.79c-0.271-0.054-0.567-0.081-0.918-0.081c-2.105,0-3.429,1.728-3.429,4.319v7.882h-3.131
			v-10.338c0-1.728-0.026-3.158-0.107-4.535h2.726l0.108,2.727h0.107c0.675-1.89,2.241-3.051,3.86-3.051
			c0.297,0,0.513,0.027,0.783,0.081V183.79z"/>
		<path fill="#2D3E56" d="M447.883,178.743c-1.079,0-1.809-0.811-1.809-1.809c0-1.053,0.756-1.836,1.836-1.836
			s1.809,0.783,1.809,1.836C449.719,177.933,449.017,178.743,447.883,178.743z M449.448,195.91h-3.131v-14.9h3.131V195.91z"/>
		<path fill="#2D3E56" d="M464.837,195.451c-0.702,0.324-2.105,0.756-3.833,0.756c-4.292,0-7.1-2.942-7.1-7.585
			c0-4.508,2.916-7.909,7.693-7.909c1.431,0,2.673,0.352,3.32,0.675l-0.621,2.402c-0.54-0.27-1.403-0.594-2.672-0.594
			c-2.915,0-4.535,2.376-4.535,5.291c0,3.266,1.917,5.209,4.508,5.209c1.242,0,2.105-0.297,2.808-0.594L464.837,195.451z"/>
		<path fill="#2D3E56" d="M479.417,192.374c0,1.269,0.026,2.564,0.216,3.536h-2.834l-0.217-1.728h-0.08
			c-0.837,1.161-2.295,2.024-4.157,2.024c-2.78,0-4.373-2.052-4.373-4.346c0-3.698,3.212-5.533,8.313-5.533
			c0-1.107,0-3.32-2.996-3.32c-1.322,0-2.672,0.404-3.617,1.025l-0.647-2.078c1.053-0.675,2.808-1.242,4.805-1.242
			c4.373,0,5.588,2.889,5.588,6.047V192.374z M476.366,188.434c-2.456,0-5.29,0.458-5.29,3.104c0,1.646,1.025,2.376,2.187,2.376
			c1.7,0,3.104-1.296,3.104-3.023V188.434z"/>
		<path fill="#2D3E56" d="M487.843,195.91h-3.132v-21.648h3.132V195.91z"/>
		<path fill="#2D3E56" d="M513.004,191.942c0,1.35,0.054,2.942,0.108,3.968h-2.754l-0.162-2.321h-0.08
			c-0.783,1.512-2.402,2.618-4.508,2.618c-3.375,0-5.938-2.996-5.938-7.585c0-5.048,2.888-7.909,6.208-7.909
			c1.916,0,3.293,0.864,3.94,1.998h0.055v-8.449h3.131V191.942z M509.873,187.057c0-2.43-1.539-3.86-3.293-3.86
			c-2.402,0-3.726,2.376-3.726,5.317c0,2.916,1.296,5.156,3.671,5.156c2.024,0,3.348-1.781,3.348-3.86V187.057z"/>
		<path fill="#2D3E56" d="M530.445,191.646c0,1.673,0.081,3.077,0.136,4.265h-2.754l-0.162-2.159h-0.081
			c-0.62,1.025-2.078,2.456-4.48,2.456c-2.564,0-4.805-1.593-4.805-6.344v-8.854h3.131v8.341c0,2.564,0.729,4.266,2.78,4.266
			c1.431,0,3.104-1.134,3.104-3.375v-9.204h3.131V191.646z"/>
		<path fill="#2D3E56" d="M548.644,188.353c0,5.561-3.617,7.854-6.965,7.854c-3.859,0-6.802-2.834-6.802-7.639
			c0-5.021,3.077-7.855,7.019-7.855C545.971,180.713,548.644,183.79,548.644,188.353z M541.787,183.062
			c-2.672,0-3.698,2.861-3.698,5.426c0,2.915,1.377,5.371,3.671,5.371c2.268,0,3.671-2.456,3.671-5.425
			C545.431,185.977,544.405,183.062,541.787,183.062z"/>
		<path fill="#2D3E56" d="M563.36,183.305c1.026-1.674,2.646-2.592,4.724-2.592c3.348,0,5.857,2.97,5.857,7.585
			c0,5.453-3.158,7.909-6.289,7.909c-1.781,0-3.239-0.837-3.968-2.052h-0.054v7.774h-3.132v-16.088c0-1.943-0.054-3.482-0.107-4.805
			h2.753l0.162,2.268H563.36z M563.631,189.918c0,2.672,1.835,3.806,3.374,3.806c2.429,0,3.752-2.24,3.752-5.317
			c0-2.834-1.269-5.183-3.671-5.183c-1.862,0-3.455,1.755-3.455,3.94V189.918z"/>
		<path fill="#2D3E56" d="M590.466,191.646c0,1.673,0.081,3.077,0.136,4.265h-2.754l-0.162-2.159h-0.08
			c-0.621,1.025-2.079,2.456-4.481,2.456c-2.564,0-4.805-1.593-4.805-6.344v-8.854h3.131v8.341c0,2.564,0.729,4.266,2.78,4.266
			c1.431,0,3.104-1.134,3.104-3.375v-9.204h3.131V191.646z"/>
		<path fill="#2D3E56" d="M603.319,183.79c-0.271-0.054-0.567-0.081-0.918-0.081c-2.105,0-3.428,1.728-3.428,4.319v7.882h-3.132
			v-10.338c0-1.728-0.026-3.158-0.107-4.535h2.727l0.107,2.727h0.108c0.675-1.89,2.24-3.051,3.859-3.051
			c0.297,0,0.513,0.027,0.783,0.081V183.79z"/>
		<path fill="#2D3E56" d="M609.962,183.305c1.026-1.674,2.646-2.592,4.724-2.592c3.348,0,5.857,2.97,5.857,7.585
			c0,5.453-3.158,7.909-6.289,7.909c-1.781,0-3.239-0.837-3.968-2.052h-0.054v7.774h-3.132v-16.088c0-1.943-0.054-3.482-0.107-4.805
			h2.753l0.162,2.268H609.962z M610.232,189.918c0,2.672,1.835,3.806,3.374,3.806c2.429,0,3.752-2.24,3.752-5.317
			c0-2.834-1.269-5.183-3.671-5.183c-1.862,0-3.455,1.755-3.455,3.94V189.918z"/>
		<path fill="#2D3E56" d="M637.796,188.353c0,5.561-3.617,7.854-6.965,7.854c-3.859,0-6.802-2.834-6.802-7.639
			c0-5.021,3.077-7.855,7.019-7.855C635.123,180.713,637.796,183.79,637.796,188.353z M630.939,183.062
			c-2.672,0-3.698,2.861-3.698,5.426c0,2.915,1.377,5.371,3.671,5.371c2.268,0,3.671-2.456,3.671-5.425
			C634.583,185.977,633.558,183.062,630.939,183.062z"/>
		<path fill="#2D3E56" d="M649.65,183.845c-0.594-0.378-1.619-0.837-2.834-0.837c-1.404,0-2.16,0.81-2.16,1.809
			c0,1.025,0.675,1.538,2.483,2.321c2.457,0.999,3.752,2.349,3.752,4.508c0,2.861-2.186,4.562-5.561,4.562
			c-1.565,0-3.05-0.405-4.049-0.999l0.702-2.321c0.756,0.459,2.133,0.999,3.401,0.999c1.673,0,2.483-0.81,2.483-1.943
			s-0.621-1.755-2.402-2.511c-2.646-1.053-3.807-2.537-3.807-4.265c0-2.483,2.024-4.454,5.156-4.454
			c1.457,0,2.726,0.405,3.536,0.864L649.65,183.845z"/>
		<path fill="#2D3E56" d="M666.174,195.316c-1.053,0.485-2.699,0.891-4.725,0.891c-4.48,0-7.071-2.996-7.071-7.531
			c0-4.427,2.483-7.963,6.694-7.963c4.184,0,5.857,3.482,5.857,7.153c0,0.513-0.027,0.945-0.081,1.322H657.4
			c0.081,3.348,2.16,4.616,4.508,4.616c1.646,0,2.78-0.297,3.752-0.702L666.174,195.316z M663.96,186.948
			c0.027-1.781-0.702-3.995-3.104-3.995c-2.294,0-3.266,2.268-3.428,3.995H663.96z"/>
		<path fill="#2D3E56" d="M688.719,195.451c-0.702,0.324-2.105,0.756-3.833,0.756c-4.292,0-7.099-2.942-7.099-7.585
			c0-4.508,2.915-7.909,7.692-7.909c1.431,0,2.673,0.352,3.32,0.675l-0.621,2.402c-0.54-0.27-1.403-0.594-2.672-0.594
			c-2.915,0-4.535,2.376-4.535,5.291c0,3.266,1.917,5.209,4.508,5.209c1.242,0,2.105-0.297,2.808-0.594L688.719,195.451z"/>
		<path fill="#2D3E56" d="M703.299,192.374c0,1.269,0.026,2.564,0.216,3.536h-2.834l-0.217-1.728h-0.081
			c-0.836,1.161-2.294,2.024-4.156,2.024c-2.78,0-4.373-2.052-4.373-4.346c0-3.698,3.212-5.533,8.313-5.533
			c0-1.107,0-3.32-2.996-3.32c-1.322,0-2.672,0.404-3.617,1.025l-0.647-2.078c1.053-0.675,2.808-1.242,4.805-1.242
			c4.373,0,5.588,2.889,5.588,6.047V192.374z M700.248,188.434c-2.456,0-5.29,0.458-5.29,3.104c0,1.646,1.025,2.376,2.187,2.376
			c1.7,0,3.104-1.296,3.104-3.023V188.434z"/>
		<path fill="#2D3E56" d="M711.778,183.115c0.891-1.512,2.43-2.402,4.508-2.402c3.401,0,5.749,2.996,5.749,7.531
			c0,5.426-3.158,7.963-6.235,7.963c-1.916,0-3.4-0.783-4.399-2.537h-0.081l-0.162,2.24h-2.672c0.054-0.999,0.107-2.618,0.107-3.968
			v-17.681h3.132v8.854H711.778z M711.725,190.025c0,1.89,1.35,3.671,3.4,3.671c2.402,0,3.726-2.132,3.726-5.317
			c0-2.807-1.215-5.155-3.698-5.155c-1.971,0-3.428,1.916-3.428,3.887V190.025z"/>
		<path fill="#2D3E56" d="M729.599,195.91h-3.132v-21.648h3.132V195.91z"/>
		<path fill="#2D3E56" d="M745.823,195.316c-1.053,0.485-2.699,0.891-4.725,0.891c-4.48,0-7.071-2.996-7.071-7.531
			c0-4.427,2.483-7.963,6.693-7.963c4.185,0,5.858,3.482,5.858,7.153c0,0.513-0.027,0.945-0.081,1.322h-9.448
			c0.081,3.348,2.16,4.616,4.508,4.616c1.646,0,2.78-0.297,3.752-0.702L745.823,195.316z M743.609,186.948
			c0.027-1.781-0.702-3.995-3.104-3.995c-2.294,0-3.266,2.268-3.428,3.995H743.609z"/>
	</g>
</g>
<path fill="#023148" stroke="#FFFFFF" stroke-width="3.5899" stroke-miterlimit="10" d="M222.88,123.744
	c0,58.78-47.652,106.433-106.432,106.433c-58.782,0-106.437-47.652-106.437-106.433c0-58.782,47.654-106.438,106.437-106.438
	C175.228,17.307,222.88,64.962,222.88,123.744z"/>
<path fill="#023148" stroke="#FFFFFF" stroke-width="4.4752" stroke-miterlimit="10" d="M204.263,123.744
	c0,48.497-39.318,87.814-87.815,87.814c-48.505,0-87.817-39.317-87.817-87.814c0-48.502,39.312-87.818,87.817-87.818
	C164.945,35.926,204.263,75.242,204.263,123.744z"/>
<path fill="#023148" d="M181.253,123.744c0,35.791-29.016,64.809-64.805,64.809c-35.795,0-64.808-29.018-64.808-64.809
	c0-35.792,29.013-64.811,64.808-64.811C152.237,58.934,181.253,87.953,181.253,123.744z"/>
<path fill="#023148" stroke="#FFFFFF" stroke-width="1.6331" stroke-miterlimit="10" d="M93.568,80.265
	c0,10.531-8.538,19.065-19.068,19.065c-10.529,0-19.067-8.534-19.067-19.065c0-10.535,8.538-19.069,19.067-19.069
	C85.031,61.196,93.568,69.73,93.568,80.265z"/>
<path fill="#023148" stroke="#FFFFFF" stroke-width="1.6331" stroke-miterlimit="10" d="M132.967,59.932
	c0,10.53-8.538,19.064-19.066,19.064c-10.531,0-19.067-8.534-19.067-19.064c0-10.533,8.537-19.069,19.067-19.069
	C124.429,40.863,132.967,49.399,132.967,59.932z"/>
<circle fill="#023148" stroke="#FFFFFF" stroke-width="1.6331" stroke-miterlimit="10" cx="154.862" cy="77.135" r="19.067"/>
<path fill="#023148" stroke="#FFFFFF" stroke-width="1.6331" stroke-miterlimit="10" d="M82.621,158.288
	c0,10.531-8.539,19.066-19.069,19.066c-10.529,0-19.068-8.535-19.068-19.066c0-10.533,8.54-19.068,19.068-19.068
	C74.083,139.22,82.621,147.755,82.621,158.288z"/>
<circle fill="#023148" stroke="#FFFFFF" stroke-width="1.6331" stroke-miterlimit="10" cx="139.707" cy="134.435" r="19.067"/>
<path fill="#023148" stroke="#FFFFFF" stroke-width="1.6331" stroke-miterlimit="10" d="M118.805,184.035
	c0,10.531-8.538,19.066-19.069,19.066c-10.53,0-19.066-8.535-19.066-19.066c0-10.534,8.537-19.069,19.066-19.069
	C110.268,164.966,118.805,173.501,118.805,184.035z"/>
<path fill="#023148" stroke="#FFFFFF" stroke-width="1.6331" stroke-miterlimit="10" d="M161.814,180.906
	c0,10.531-8.535,19.065-19.068,19.065c-10.528,0-19.067-8.534-19.067-19.065c0-10.533,8.539-19.067,19.067-19.067
	C153.279,161.839,161.814,170.373,161.814,180.906z"/>
<path fill="#023148" stroke="#FFFFFF" stroke-width="1.6331" stroke-miterlimit="10" d="M194.262,155.162
	c0,10.528-8.536,19.064-19.067,19.064c-10.53,0-19.067-8.536-19.067-19.064c0-10.535,8.537-19.069,19.067-19.069
	C185.727,136.093,194.262,144.627,194.262,155.162z"/>
<circle fill="#023148" stroke="#FFFFFF" stroke-width="1.6331" stroke-miterlimit="10" cx="57.571" cy="117.5" r="19.067"/>
<path fill="#023148" stroke="#FFFFFF" stroke-width="1.6331" stroke-miterlimit="10" d="M118.777,140.177
	c0,10.534-8.539,19.068-19.068,19.068c-10.53,0-19.067-8.534-19.067-19.068c0-10.529,8.537-19.066,19.067-19.066
	C110.238,121.11,118.777,129.647,118.777,140.177z"/>
<circle fill="#023148" stroke="#FFFFFF" stroke-width="1.6331" stroke-miterlimit="10" cx="114.084" cy="102.641" r="19.068"/>
<circle fill="#023148" stroke="#FFFFFF" stroke-width="1.6331" stroke-miterlimit="10" cx="180.464" cy="112.808" r="19.068"/>
<line fill="none" stroke="#E95513" stroke-width="2" stroke-miterlimit="10" x1="185.848" y1="60.855" x2="266.403" y2="60.855"/>
<line fill="none" stroke="#E95513" stroke-width="2" stroke-miterlimit="10" x1="102.628" y1="183.844" x2="266.403" y2="183.844"/>
<g>
	<g>
		<path fill="#2D3E56" d="M291.108,43.146c0,6.127-3.051,8.719-7.45,8.719c-4.238,0-7.1-2.483-7.1-8.638V30.919h3.132v12.498
			c0,4.13,1.7,5.884,4.075,5.884c2.592,0,4.211-1.781,4.211-5.884V30.919h3.132V43.146z"/>
		<path fill="#2D3E56" d="M303.962,39.502c-0.594-0.378-1.619-0.836-2.834-0.836c-1.403,0-2.159,0.81-2.159,1.808
			c0,1.026,0.675,1.539,2.483,2.322c2.456,0.999,3.752,2.348,3.752,4.508c0,2.861-2.187,4.562-5.561,4.562
			c-1.565,0-3.051-0.405-4.049-0.999l0.701-2.322c0.756,0.459,2.133,0.999,3.401,0.999c1.674,0,2.483-0.81,2.483-1.943
			c0-1.134-0.621-1.755-2.402-2.511c-2.646-1.052-3.806-2.537-3.806-4.265c0-2.483,2.024-4.454,5.155-4.454
			c1.458,0,2.727,0.405,3.536,0.864L303.962,39.502z"/>
		<path fill="#2D3E56" d="M320.485,50.975c-1.053,0.486-2.699,0.891-4.724,0.891c-4.481,0-7.072-2.996-7.072-7.531
			c0-4.427,2.483-7.963,6.694-7.963c4.184,0,5.857,3.482,5.857,7.153c0,0.513-0.027,0.945-0.081,1.323h-9.447
			c0.081,3.347,2.159,4.616,4.508,4.616c1.646,0,2.78-0.297,3.752-0.702L320.485,50.975z M318.271,42.607
			c0.027-1.782-0.701-3.995-3.104-3.995c-2.295,0-3.267,2.268-3.429,3.995H318.271z"/>
		<path fill="#2D3E56" d="M333.014,39.502c-0.594-0.378-1.619-0.836-2.834-0.836c-1.403,0-2.159,0.81-2.159,1.808
			c0,1.026,0.675,1.539,2.483,2.322c2.456,0.999,3.752,2.348,3.752,4.508c0,2.861-2.187,4.562-5.561,4.562
			c-1.565,0-3.051-0.405-4.049-0.999l0.701-2.322c0.756,0.459,2.133,0.999,3.401,0.999c1.674,0,2.483-0.81,2.483-1.943
			c0-1.134-0.621-1.755-2.402-2.511c-2.646-1.052-3.806-2.537-3.806-4.265c0-2.483,2.024-4.454,5.155-4.454
			c1.458,0,2.727,0.405,3.536,0.864L333.014,39.502z"/>
		<path fill="#2D3E56" d="M356.935,50.975c-1.053,0.486-2.699,0.891-4.724,0.891c-4.48,0-7.072-2.996-7.072-7.531
			c0-4.427,2.483-7.963,6.694-7.963c4.185,0,5.857,3.482,5.857,7.153c0,0.513-0.026,0.945-0.081,1.323h-9.447
			c0.081,3.347,2.159,4.616,4.508,4.616c1.646,0,2.78-0.297,3.752-0.702L356.935,50.975z M354.722,42.607
			c0.026-1.782-0.702-3.995-3.104-3.995c-2.294,0-3.266,2.268-3.428,3.995H354.722z"/>
		<path fill="#2D3E56" d="M374.35,51.568h-3.131V42.85c0-2.105-0.702-3.887-2.834-3.887c-1.539,0-3.186,1.269-3.186,3.644v8.961
			h-3.131V40.879c0-1.647-0.055-2.916-0.108-4.184h2.727l0.162,2.213h0.081c0.701-1.269,2.267-2.537,4.508-2.537
			c2.321,0,4.912,1.511,4.912,6.1V51.568z"/>
		<path fill="#2D3E56" d="M391.549,36.695l-5.345,14.873h-2.996l-5.21-14.873h3.374l2.43,7.909c0.404,1.296,0.729,2.538,0.999,3.779
			h0.08c0.271-1.242,0.621-2.457,0.999-3.752l2.402-7.936H391.549z"/>
		<path fill="#2D3E56" d="M396.789,34.401c-1.079,0-1.809-0.81-1.809-1.809c0-1.053,0.756-1.835,1.836-1.835
			s1.809,0.783,1.809,1.835C398.625,33.591,397.923,34.401,396.789,34.401z M398.354,51.568h-3.131v-14.9h3.131V51.568z"/>
		<path fill="#2D3E56" d="M411.206,39.449c-0.271-0.054-0.567-0.081-0.918-0.081c-2.105,0-3.429,1.728-3.429,4.319v7.882h-3.131
			V41.23c0-1.728-0.026-3.158-0.107-4.535h2.726l0.108,2.726h0.107c0.675-1.889,2.241-3.05,3.86-3.05
			c0.297,0,0.513,0.027,0.783,0.081V39.449z"/>
		<path fill="#2D3E56" d="M427.809,44.01c0,5.561-3.616,7.855-6.964,7.855c-3.859,0-6.802-2.834-6.802-7.639
			c0-5.021,3.077-7.855,7.018-7.855C425.137,36.372,427.809,39.449,427.809,44.01z M420.953,38.72c-2.673,0-3.698,2.861-3.698,5.426
			c0,2.915,1.377,5.372,3.671,5.372c2.268,0,3.671-2.457,3.671-5.426C424.597,41.635,423.571,38.72,420.953,38.72z"/>
		<path fill="#2D3E56" d="M444.549,51.568h-3.131V42.85c0-2.105-0.702-3.887-2.834-3.887c-1.539,0-3.186,1.269-3.186,3.644v8.961
			h-3.131V40.879c0-1.647-0.055-2.916-0.108-4.184h2.727l0.162,2.213h0.081c0.701-1.269,2.267-2.537,4.508-2.537
			c2.321,0,4.912,1.511,4.912,6.1V51.568z"/>
		<path fill="#2D3E56" d="M470.251,51.568h-3.077v-8.503c0-2.483-0.811-4.13-2.699-4.13c-1.431,0-2.889,1.296-2.889,3.455v9.178
			h-3.077v-8.961c0-2.079-0.783-3.671-2.592-3.671c-1.403,0-2.996,1.269-2.996,3.617v9.016h-3.077V40.879
			c0-1.674-0.054-2.916-0.107-4.184h2.699l0.162,2.187h0.08c0.729-1.242,2.079-2.51,4.347-2.51c1.89,0,3.32,1.053,3.94,2.726h0.055
			c0.998-1.646,2.456-2.726,4.589-2.726c2.213,0,4.643,1.511,4.643,6.208V51.568z"/>
		<path fill="#2D3E56" d="M486.399,50.975c-1.053,0.486-2.699,0.891-4.725,0.891c-4.48,0-7.071-2.996-7.071-7.531
			c0-4.427,2.483-7.963,6.693-7.963c4.185,0,5.858,3.482,5.858,7.153c0,0.513-0.027,0.945-0.081,1.323h-9.448
			c0.081,3.347,2.16,4.616,4.508,4.616c1.646,0,2.78-0.297,3.752-0.702L486.399,50.975z M484.186,42.607
			c0.027-1.782-0.702-3.995-3.104-3.995c-2.294,0-3.266,2.268-3.428,3.995H484.186z"/>
		<path fill="#2D3E56" d="M503.813,51.568h-3.131V42.85c0-2.105-0.702-3.887-2.835-3.887c-1.538,0-3.185,1.269-3.185,3.644v8.961
			h-3.132V40.879c0-1.647-0.054-2.916-0.107-4.184h2.727l0.161,2.213h0.081c0.702-1.269,2.268-2.537,4.508-2.537
			c2.321,0,4.913,1.511,4.913,6.1V51.568z"/>
		<path fill="#2D3E56" d="M509.729,33.996l3.104-0.972v3.671h3.536v2.349h-3.536v7.531c0,1.835,0.566,2.726,1.89,2.726
			c0.62,0,0.998-0.081,1.376-0.189l0.108,2.402c-0.54,0.216-1.377,0.351-2.43,0.351c-1.241,0-2.294-0.405-2.942-1.134
			c-0.756-0.81-1.106-2.051-1.106-3.995v-7.693h-2.105v-2.349h2.105V33.996z"/>
		<path fill="#2D3E56" d="M530.841,48.032c0,1.269,0.026,2.564,0.216,3.536h-2.834l-0.217-1.728h-0.08
			c-0.837,1.161-2.295,2.024-4.157,2.024c-2.78,0-4.373-2.051-4.373-4.346c0-3.698,3.212-5.534,8.313-5.534
			c0-1.106,0-3.32-2.996-3.32c-1.322,0-2.672,0.405-3.617,1.025l-0.647-2.078c1.053-0.675,2.808-1.242,4.805-1.242
			c4.373,0,5.588,2.888,5.588,6.046V48.032z M527.79,44.091c-2.456,0-5.29,0.459-5.29,3.104c0,1.647,1.025,2.375,2.187,2.375
			c1.7,0,3.104-1.295,3.104-3.023V44.091z"/>
		<path fill="#2D3E56" d="M539.267,51.568h-3.132V29.92h3.132V51.568z"/>
		<path fill="#2D3E56" d="M547.745,51.568h-3.132V29.92h3.132V51.568z"/>
		<path fill="#2D3E56" d="M564.86,36.695l-3.59,10.311c-1.755,4.886-2.997,7.639-4.778,9.367c-1.35,1.242-2.727,1.754-3.455,1.917
			l-0.81-2.646c3.239-1.161,4.399-4.184,4.399-4.588c0-0.162-0.026-0.351-0.162-0.648l-5.102-13.712h3.429l2.699,8.368
			c0.297,0.972,0.594,2.105,0.81,2.969h0.081c0.216-0.864,0.513-1.97,0.783-2.969l2.402-8.368H564.86z"/>
		<path fill="#2D3E56" d="M576.229,36.695c0-1.62,0-4.022,1.674-5.695c1.025-0.999,2.402-1.377,3.617-1.377
			c0.972,0,1.728,0.189,2.267,0.405l-0.323,2.402c-0.405-0.162-0.864-0.297-1.593-0.297c-1.943,0-2.537,1.754-2.537,3.752v0.81
			h3.266v2.349h-3.239v12.524h-3.131V39.044h-1.997v-2.349H576.229z"/>
		<path fill="#2D3E56" d="M593.615,39.449c-0.271-0.054-0.567-0.081-0.918-0.081c-2.105,0-3.428,1.728-3.428,4.319v7.882h-3.132
			V41.23c0-1.728-0.026-3.158-0.107-4.535h2.727l0.107,2.726h0.108c0.675-1.889,2.24-3.05,3.859-3.05
			c0.297,0,0.513,0.027,0.783,0.081V39.449z"/>
		<path fill="#2D3E56" d="M598.963,34.401c-1.08,0-1.809-0.81-1.809-1.809c0-1.053,0.756-1.835,1.835-1.835
			c1.08,0,1.809,0.783,1.809,1.835C600.798,33.591,600.096,34.401,598.963,34.401z M600.528,51.568h-3.132v-14.9h3.132V51.568z"/>
		<path fill="#2D3E56" d="M616.78,50.975c-1.053,0.486-2.699,0.891-4.725,0.891c-4.48,0-7.071-2.996-7.071-7.531
			c0-4.427,2.483-7.963,6.693-7.963c4.185,0,5.858,3.482,5.858,7.153c0,0.513-0.027,0.945-0.081,1.323h-9.448
			c0.081,3.347,2.16,4.616,4.508,4.616c1.646,0,2.78-0.297,3.752-0.702L616.78,50.975z M614.566,42.607
			c0.027-1.782-0.702-3.995-3.104-3.995c-2.294,0-3.266,2.268-3.428,3.995H614.566z"/>
		<path fill="#2D3E56" d="M634.195,51.568h-3.131V42.85c0-2.105-0.702-3.887-2.835-3.887c-1.538,0-3.185,1.269-3.185,3.644v8.961
			h-3.132V40.879c0-1.647-0.054-2.916-0.107-4.184h2.727l0.161,2.213h0.081c0.702-1.269,2.268-2.537,4.508-2.537
			c2.321,0,4.913,1.511,4.913,6.1V51.568z"/>
		<path fill="#2D3E56" d="M651.906,47.601c0,1.35,0.054,2.942,0.108,3.968h-2.754l-0.162-2.321h-0.08
			c-0.783,1.512-2.402,2.618-4.508,2.618c-3.375,0-5.938-2.996-5.938-7.585c0-5.048,2.888-7.909,6.208-7.909
			c1.916,0,3.293,0.864,3.94,1.997h0.055V29.92h3.131V47.601z M648.775,42.715c0-2.43-1.539-3.86-3.293-3.86
			c-2.402,0-3.726,2.375-3.726,5.317c0,2.915,1.296,5.156,3.671,5.156c2.024,0,3.348-1.782,3.348-3.86V42.715z"/>
		<path fill="#2D3E56" d="M660.387,51.568h-3.132V29.92h3.132V51.568z"/>
		<path fill="#2D3E56" d="M677.503,36.695l-3.59,10.311c-1.755,4.886-2.997,7.639-4.778,9.367c-1.35,1.242-2.727,1.754-3.455,1.917
			l-0.81-2.646c3.239-1.161,4.399-4.184,4.399-4.588c0-0.162-0.026-0.351-0.162-0.648l-5.102-13.712h3.429l2.699,8.368
			c0.297,0.972,0.594,2.105,0.81,2.969h0.081c0.216-0.864,0.513-1.97,0.783-2.969l2.402-8.368H677.503z"/>
		<path fill="#2D3E56" d="M695.863,39.502c-0.594-0.378-1.619-0.836-2.834-0.836c-1.404,0-2.16,0.81-2.16,1.808
			c0,1.026,0.675,1.539,2.483,2.322c2.457,0.999,3.752,2.348,3.752,4.508c0,2.861-2.186,4.562-5.561,4.562
			c-1.565,0-3.05-0.405-4.049-0.999l0.702-2.322c0.756,0.459,2.133,0.999,3.401,0.999c1.673,0,2.483-0.81,2.483-1.943
			c0-1.134-0.621-1.755-2.402-2.511c-2.646-1.052-3.807-2.537-3.807-4.265c0-2.483,2.024-4.454,5.156-4.454
			c1.457,0,2.726,0.405,3.536,0.864L695.863,39.502z"/>
		<path fill="#2D3E56" d="M703.074,34.401c-1.08,0-1.809-0.81-1.809-1.809c0-1.053,0.756-1.835,1.835-1.835
			c1.08,0,1.809,0.783,1.809,1.835C704.909,33.591,704.207,34.401,703.074,34.401z M704.64,51.568h-3.132v-14.9h3.132V51.568z"/>
		<path fill="#2D3E56" d="M713.145,51.568h-3.132V29.92h3.132V51.568z"/>
		<path fill="#2D3E56" d="M720.057,34.401c-1.08,0-1.809-0.81-1.809-1.809c0-1.053,0.756-1.835,1.835-1.835
			c1.08,0,1.809,0.783,1.809,1.835C721.892,33.591,721.189,34.401,720.057,34.401z M721.622,51.568h-3.132v-14.9h3.132V51.568z"/>
		<path fill="#2D3E56" d="M737.01,51.109c-0.702,0.324-2.105,0.756-3.833,0.756c-4.292,0-7.099-2.942-7.099-7.585
			c0-4.508,2.915-7.909,7.692-7.909c1.431,0,2.673,0.351,3.32,0.675l-0.621,2.402c-0.54-0.27-1.403-0.594-2.672-0.594
			c-2.915,0-4.535,2.375-4.535,5.291c0,3.266,1.917,5.209,4.508,5.209c1.242,0,2.105-0.297,2.808-0.594L737.01,51.109z"/>
		<path fill="#2D3E56" d="M753.992,44.01c0,5.561-3.617,7.855-6.965,7.855c-3.859,0-6.802-2.834-6.802-7.639
			c0-5.021,3.077-7.855,7.019-7.855C751.319,36.372,753.992,39.449,753.992,44.01z M747.136,38.72c-2.672,0-3.698,2.861-3.698,5.426
			c0,2.915,1.377,5.372,3.671,5.372c2.268,0,3.671-2.457,3.671-5.426C750.779,41.635,749.754,38.72,747.136,38.72z"/>
		<path fill="#2D3E56" d="M770.732,51.568h-3.131V42.85c0-2.105-0.702-3.887-2.835-3.887c-1.538,0-3.185,1.269-3.185,3.644v8.961
			h-3.132V40.879c0-1.647-0.054-2.916-0.107-4.184h2.727l0.161,2.213h0.081c0.702-1.269,2.268-2.537,4.508-2.537
			c2.321,0,4.913,1.511,4.913,6.1V51.568z"/>
		<path fill="#2D3E56" d="M786.906,50.975c-1.053,0.486-2.699,0.891-4.725,0.891c-4.48,0-7.071-2.996-7.071-7.531
			c0-4.427,2.483-7.963,6.694-7.963c4.184,0,5.857,3.482,5.857,7.153c0,0.513-0.027,0.945-0.081,1.323h-9.448
			c0.081,3.347,2.16,4.616,4.508,4.616c1.646,0,2.78-0.297,3.752-0.702L786.906,50.975z M784.692,42.607
			c0.027-1.782-0.702-3.995-3.104-3.995c-2.294,0-3.266,2.268-3.428,3.995H784.692z"/>
		<path fill="#2D3E56" d="M277.989,65.026c-1.079,0-1.809-0.81-1.809-1.809c0-1.053,0.756-1.835,1.836-1.835
			s1.809,0.783,1.809,1.835C279.825,64.216,279.123,65.026,277.989,65.026z M279.555,82.193h-3.131v-14.9h3.131V82.193z"/>
		<path fill="#2D3E56" d="M297.211,82.193h-3.132v-8.719c0-2.105-0.701-3.887-2.834-3.887c-1.538,0-3.186,1.269-3.186,3.644v8.961
			h-3.131V71.504c0-1.647-0.054-2.916-0.107-4.184h2.726l0.162,2.213h0.081c0.702-1.269,2.268-2.537,4.508-2.537
			c2.321,0,4.913,1.511,4.913,6.1V82.193z"/>
		<path fill="#2D3E56" d="M309.902,70.127c-0.594-0.378-1.62-0.836-2.835-0.836c-1.403,0-2.159,0.81-2.159,1.808
			c0,1.026,0.675,1.539,2.483,2.322c2.456,0.999,3.752,2.348,3.752,4.508c0,2.861-2.187,4.562-5.561,4.562
			c-1.565,0-3.05-0.405-4.049-0.999l0.702-2.322c0.756,0.459,2.132,0.999,3.4,0.999c1.674,0,2.483-0.81,2.483-1.943
			c0-1.134-0.62-1.755-2.402-2.511c-2.645-1.052-3.806-2.537-3.806-4.265c0-2.483,2.024-4.454,5.155-4.454
			c1.458,0,2.727,0.405,3.536,0.864L309.902,70.127z"/>
		<path fill="#2D3E56" d="M327.64,77.929c0,1.673,0.081,3.077,0.135,4.265h-2.753l-0.162-2.159h-0.081
			c-0.62,1.025-2.078,2.456-4.48,2.456c-2.564,0-4.805-1.593-4.805-6.343v-8.854h3.131v8.341c0,2.564,0.729,4.265,2.78,4.265
			c1.431,0,3.104-1.134,3.104-3.374V67.32h3.131V77.929z"/>
		<path fill="#2D3E56" d="M336.146,82.193h-3.131V60.545h3.131V82.193z"/>
		<path fill="#2D3E56" d="M351.912,78.657c0,1.269,0.027,2.564,0.217,3.536h-2.835l-0.216-1.728h-0.081
			c-0.837,1.161-2.294,2.024-4.156,2.024c-2.78,0-4.373-2.051-4.373-4.346c0-3.698,3.212-5.534,8.313-5.534
			c0-1.106,0-3.32-2.996-3.32c-1.322,0-2.672,0.405-3.617,1.025l-0.647-2.078c1.053-0.675,2.807-1.242,4.805-1.242
			c4.373,0,5.587,2.888,5.587,6.046V78.657z M348.862,74.716c-2.456,0-5.291,0.459-5.291,3.104c0,1.647,1.026,2.375,2.187,2.375
			c1.701,0,3.104-1.295,3.104-3.023V74.716z"/>
		<path fill="#2D3E56" d="M357.828,64.621l3.104-0.972v3.671h3.535v2.349h-3.535V77.2c0,1.835,0.566,2.726,1.889,2.726
			c0.621,0,0.999-0.081,1.377-0.189l0.108,2.402c-0.54,0.216-1.377,0.351-2.43,0.351c-1.241,0-2.294-0.405-2.942-1.134
			c-0.756-0.81-1.106-2.051-1.106-3.995v-7.693h-2.105V67.32h2.105V64.621z"/>
		<path fill="#2D3E56" d="M370.085,65.026c-1.079,0-1.809-0.81-1.809-1.809c0-1.053,0.756-1.835,1.836-1.835
			s1.809,0.783,1.809,1.835C371.921,64.216,371.219,65.026,370.085,65.026z M371.65,82.193h-3.131v-14.9h3.131V82.193z"/>
		<path fill="#2D3E56" d="M389.847,74.635c0,5.561-3.617,7.855-6.964,7.855c-3.86,0-6.803-2.834-6.803-7.639
			c0-5.021,3.077-7.855,7.019-7.855C387.175,66.997,389.847,70.074,389.847,74.635z M382.99,69.345
			c-2.672,0-3.698,2.861-3.698,5.426c0,2.915,1.377,5.372,3.672,5.372c2.267,0,3.671-2.457,3.671-5.426
			C386.635,72.26,385.608,69.345,382.99,69.345z"/>
		<path fill="#2D3E56" d="M406.587,82.193h-3.132v-8.719c0-2.105-0.701-3.887-2.834-3.887c-1.538,0-3.186,1.269-3.186,3.644v8.961
			h-3.131V71.504c0-1.647-0.054-2.916-0.107-4.184h2.726l0.162,2.213h0.081c0.702-1.269,2.268-2.537,4.508-2.537
			c2.321,0,4.913,1.511,4.913,6.1V82.193z"/>
		<path fill="#2D3E56" d="M419.685,67.32c0-1.62,0-4.022,1.673-5.695c1.026-0.999,2.403-1.377,3.617-1.377
			c0.972,0,1.728,0.189,2.268,0.405l-0.324,2.402c-0.404-0.162-0.863-0.297-1.592-0.297c-1.943,0-2.538,1.754-2.538,3.752v0.81
			h3.267v2.349h-3.239v12.524h-3.131V69.669h-1.998V67.32H419.685z"/>
		<path fill="#2D3E56" d="M442.415,74.635c0,5.561-3.617,7.855-6.964,7.855c-3.86,0-6.803-2.834-6.803-7.639
			c0-5.021,3.077-7.855,7.019-7.855C439.743,66.997,442.415,70.074,442.415,74.635z M435.559,69.345
			c-2.672,0-3.698,2.861-3.698,5.426c0,2.915,1.377,5.372,3.672,5.372c2.267,0,3.671-2.457,3.671-5.426
			C439.203,72.26,438.177,69.345,435.559,69.345z"/>
		<path fill="#2D3E56" d="M454.351,70.074c-0.271-0.054-0.567-0.081-0.918-0.081c-2.105,0-3.429,1.728-3.429,4.319v7.882h-3.131
			V71.855c0-1.728-0.026-3.158-0.107-4.535h2.726l0.108,2.726h0.107c0.675-1.889,2.241-3.05,3.86-3.05
			c0.297,0,0.513,0.027,0.783,0.081V70.074z"/>
		<path fill="#2D3E56" d="M467.096,65.026c-1.08,0-1.809-0.81-1.809-1.809c0-1.053,0.756-1.835,1.835-1.835
			c1.08,0,1.809,0.783,1.809,1.835C468.931,64.216,468.229,65.026,467.096,65.026z M468.661,82.193h-3.132v-14.9h3.132V82.193z"/>
		<path fill="#2D3E56" d="M474.656,64.621l3.104-0.972v3.671h3.536v2.349h-3.536V77.2c0,1.835,0.566,2.726,1.89,2.726
			c0.62,0,0.998-0.081,1.376-0.189l0.108,2.402c-0.54,0.216-1.377,0.351-2.43,0.351c-1.241,0-2.294-0.405-2.942-1.134
			c-0.756-0.81-1.106-2.051-1.106-3.995v-7.693h-2.105V67.32h2.105V64.621z"/>
		<path fill="#2D3E56" d="M492.744,70.127c-0.594-0.378-1.619-0.836-2.834-0.836c-1.404,0-2.16,0.81-2.16,1.808
			c0,1.026,0.675,1.539,2.483,2.322c2.457,0.999,3.752,2.348,3.752,4.508c0,2.861-2.186,4.562-5.561,4.562
			c-1.565,0-3.05-0.405-4.049-0.999l0.702-2.322c0.756,0.459,2.133,0.999,3.401,0.999c1.673,0,2.483-0.81,2.483-1.943
			c0-1.134-0.621-1.755-2.402-2.511c-2.646-1.052-3.807-2.537-3.807-4.265c0-2.483,2.024-4.454,5.156-4.454
			c1.457,0,2.726,0.405,3.536,0.864L492.744,70.127z"/>
		<path fill="#2D3E56" d="M513.183,70.127c-0.594-0.378-1.62-0.836-2.834-0.836c-1.404,0-2.16,0.81-2.16,1.808
			c0,1.026,0.675,1.539,2.483,2.322c2.457,0.999,3.752,2.348,3.752,4.508c0,2.861-2.186,4.562-5.561,4.562
			c-1.565,0-3.05-0.405-4.049-0.999l0.702-2.322c0.756,0.459,2.133,0.999,3.401,0.999c1.673,0,2.483-0.81,2.483-1.943
			c0-1.134-0.621-1.755-2.402-2.511c-2.646-1.052-3.807-2.537-3.807-4.265c0-2.483,2.024-4.454,5.156-4.454
			c1.457,0,2.726,0.405,3.536,0.864L513.183,70.127z"/>
		<path fill="#2D3E56" d="M530.92,77.929c0,1.673,0.081,3.077,0.136,4.265h-2.754l-0.162-2.159h-0.081
			c-0.62,1.025-2.078,2.456-4.48,2.456c-2.564,0-4.805-1.593-4.805-6.343v-8.854h3.131v8.341c0,2.564,0.729,4.265,2.78,4.265
			c1.431,0,3.104-1.134,3.104-3.374V67.32h3.131V77.929z"/>
		<path fill="#2D3E56" d="M539.157,69.588c1.026-1.674,2.646-2.591,4.724-2.591c3.348,0,5.857,2.969,5.857,7.585
			c0,5.453-3.158,7.909-6.289,7.909c-1.781,0-3.239-0.837-3.968-2.051h-0.054v7.774h-3.132V72.125c0-1.943-0.054-3.482-0.107-4.805
			h2.753l0.162,2.268H539.157z M539.428,76.201c0,2.672,1.835,3.806,3.374,3.806c2.429,0,3.752-2.24,3.752-5.317
			c0-2.834-1.269-5.183-3.671-5.183c-1.862,0-3.455,1.754-3.455,3.941V76.201z"/>
		<path fill="#2D3E56" d="M565.049,81.6c-1.053,0.486-2.699,0.891-4.725,0.891c-4.48,0-7.071-2.996-7.071-7.531
			c0-4.427,2.483-7.963,6.694-7.963c4.184,0,5.857,3.482,5.857,7.153c0,0.513-0.027,0.945-0.081,1.323h-9.448
			c0.081,3.347,2.16,4.616,4.508,4.616c1.646,0,2.78-0.297,3.752-0.702L565.049,81.6z M562.835,73.232
			c0.027-1.782-0.702-3.995-3.104-3.995c-2.294,0-3.266,2.268-3.428,3.995H562.835z"/>
		<path fill="#2D3E56" d="M577.658,70.074c-0.271-0.054-0.567-0.081-0.918-0.081c-2.105,0-3.428,1.728-3.428,4.319v7.882h-3.132
			V71.855c0-1.728-0.026-3.158-0.107-4.535h2.727l0.107,2.726h0.108c0.675-1.889,2.24-3.05,3.859-3.05
			c0.297,0,0.513,0.027,0.783,0.081V70.074z"/>
		<path fill="#2D3E56" d="M583.006,65.026c-1.08,0-1.809-0.81-1.809-1.809c0-1.053,0.756-1.835,1.835-1.835
			c1.08,0,1.809,0.783,1.809,1.835C584.841,64.216,584.139,65.026,583.006,65.026z M584.571,82.193h-3.132v-14.9h3.132V82.193z"/>
		<path fill="#2D3E56" d="M602.767,74.635c0,5.561-3.617,7.855-6.965,7.855c-3.859,0-6.802-2.834-6.802-7.639
			c0-5.021,3.077-7.855,7.019-7.855C600.094,66.997,602.767,70.074,602.767,74.635z M595.91,69.345
			c-2.672,0-3.698,2.861-3.698,5.426c0,2.915,1.377,5.372,3.671,5.372c2.268,0,3.671-2.457,3.671-5.426
			C599.554,72.26,598.528,69.345,595.91,69.345z"/>
		<path fill="#2D3E56" d="M614.702,70.074c-0.271-0.054-0.567-0.081-0.918-0.081c-2.105,0-3.428,1.728-3.428,4.319v7.882h-3.132
			V71.855c0-1.728-0.026-3.158-0.107-4.535h2.727l0.107,2.726h0.108c0.675-1.889,2.24-3.05,3.859-3.05
			c0.297,0,0.513,0.027,0.783,0.081V70.074z"/>
		<path fill="#2D3E56" d="M626.286,67.32c0-1.62,0-4.022,1.674-5.695c1.025-0.999,2.402-1.377,3.617-1.377
			c0.972,0,1.728,0.189,2.267,0.405l-0.323,2.402c-0.405-0.162-0.864-0.297-1.593-0.297c-1.943,0-2.537,1.754-2.537,3.752v0.81
			h3.266v2.349h-3.239v12.524h-3.131V69.669h-1.997V67.32H626.286z"/>
		<path fill="#2D3E56" d="M639.326,82.193h-3.132V60.545h3.132V82.193z"/>
		<path fill="#2D3E56" d="M655.552,81.6c-1.053,0.486-2.699,0.891-4.725,0.891c-4.48,0-7.071-2.996-7.071-7.531
			c0-4.427,2.483-7.963,6.693-7.963c4.185,0,5.858,3.482,5.858,7.153c0,0.513-0.027,0.945-0.081,1.323h-9.448
			c0.081,3.347,2.16,4.616,4.508,4.616c1.646,0,2.78-0.297,3.752-0.702L655.552,81.6z M653.338,73.232
			c0.027-1.782-0.702-3.995-3.104-3.995c-2.294,0-3.266,2.268-3.428,3.995H653.338z"/>
		<path fill="#2D3E56" d="M672.102,67.32l-4.669,7.18l4.75,7.693h-3.536l-1.835-3.185c-0.459-0.81-0.891-1.593-1.323-2.483h-0.054
			c-0.432,0.864-0.863,1.646-1.35,2.51l-1.755,3.158h-3.4l4.805-7.558l-4.616-7.315h3.455l1.782,2.996
			c0.485,0.837,0.891,1.593,1.322,2.402h0.054c0.432-0.836,0.864-1.646,1.296-2.429l1.7-2.969H672.102z"/>
		<path fill="#2D3E56" d="M677.396,65.026c-1.08,0-1.809-0.81-1.809-1.809c0-1.053,0.756-1.835,1.835-1.835
			c1.08,0,1.809,0.783,1.809,1.835C679.231,64.216,678.529,65.026,677.396,65.026z M678.962,82.193h-3.132v-14.9h3.132V82.193z"/>
		<path fill="#2D3E56" d="M687.521,69.399c0.891-1.512,2.43-2.402,4.508-2.402c3.401,0,5.749,2.996,5.749,7.531
			c0,5.426-3.158,7.963-6.235,7.963c-1.916,0-3.4-0.783-4.399-2.537h-0.081l-0.162,2.24h-2.672c0.054-0.999,0.107-2.618,0.107-3.968
			V60.545h3.132v8.854H687.521z M687.467,76.309c0,1.889,1.35,3.671,3.4,3.671c2.402,0,3.726-2.132,3.726-5.317
			c0-2.808-1.215-5.156-3.698-5.156c-1.971,0-3.428,1.917-3.428,3.887V76.309z"/>
		<path fill="#2D3E56" d="M703.775,65.026c-1.08,0-1.809-0.81-1.809-1.809c0-1.053,0.756-1.835,1.835-1.835
			c1.08,0,1.809,0.783,1.809,1.835C705.61,64.216,704.908,65.026,703.775,65.026z M705.341,82.193h-3.132v-14.9h3.132V82.193z"/>
		<path fill="#2D3E56" d="M713.846,82.193h-3.132V60.545h3.132V82.193z"/>
		<path fill="#2D3E56" d="M720.759,65.026c-1.08,0-1.809-0.81-1.809-1.809c0-1.053,0.756-1.835,1.835-1.835
			c1.08,0,1.809,0.783,1.809,1.835C722.594,64.216,721.892,65.026,720.759,65.026z M722.324,82.193h-3.132v-14.9h3.132V82.193z"/>
		<path fill="#2D3E56" d="M728.318,64.621l3.104-0.972v3.671h3.536v2.349h-3.536V77.2c0,1.835,0.566,2.726,1.89,2.726
			c0.62,0,0.998-0.081,1.376-0.189l0.108,2.402c-0.54,0.216-1.377,0.351-2.43,0.351c-1.241,0-2.294-0.405-2.942-1.134
			c-0.756-0.81-1.106-2.051-1.106-3.995v-7.693h-2.105V67.32h2.105V64.621z"/>
		<path fill="#2D3E56" d="M750.779,67.32l-3.59,10.311c-1.755,4.886-2.997,7.639-4.778,9.367c-1.35,1.242-2.727,1.754-3.455,1.917
			l-0.81-2.646c3.239-1.161,4.399-4.184,4.399-4.588c0-0.162-0.026-0.351-0.162-0.648l-5.102-13.712h3.429l2.699,8.368
			c0.297,0.972,0.594,2.105,0.81,2.969h0.081c0.216-0.864,0.513-1.97,0.783-2.969l2.402-8.368H750.779z"/>
		<path fill="#2D3E56" d="M758.071,78.009c-0.783,2.7-2.133,6.046-3.158,7.747l-2.159,0.216c0.756-2.051,1.565-5.291,1.916-7.666
			L758.071,78.009z"/>
		<path fill="#2D3E56" d="M286.438,112.359c-0.702,0.324-2.105,0.756-3.833,0.756c-4.292,0-7.1-2.942-7.1-7.585
			c0-4.508,2.916-7.909,7.693-7.909c1.431,0,2.672,0.351,3.32,0.675l-0.621,2.402c-0.54-0.27-1.403-0.594-2.672-0.594
			c-2.916,0-4.535,2.375-4.535,5.291c0,3.266,1.916,5.209,4.508,5.209c1.241,0,2.105-0.297,2.808-0.594L286.438,112.359z"/>
		<path fill="#2D3E56" d="M302.881,112.818h-3.132v-8.692c0-2.132-0.729-3.914-2.834-3.914c-1.538,0-3.186,1.269-3.186,3.509v9.097
			h-3.131V91.17h3.131v8.8h0.055c0.972-1.539,2.646-2.348,4.265-2.348c2.24,0,4.832,1.511,4.832,6.208V112.818z"/>
		<path fill="#2D3E56" d="M319.054,112.225c-1.053,0.486-2.699,0.891-4.724,0.891c-4.481,0-7.072-2.996-7.072-7.531
			c0-4.427,2.483-7.963,6.694-7.963c4.184,0,5.857,3.482,5.857,7.153c0,0.513-0.027,0.945-0.081,1.323h-9.447
			c0.081,3.347,2.159,4.616,4.508,4.616c1.646,0,2.78-0.297,3.752-0.702L319.054,112.225z M316.84,103.857
			c0.027-1.782-0.701-3.995-3.104-3.995c-2.295,0-3.267,2.268-3.429,3.995H316.84z"/>
		<path fill="#2D3E56" d="M344.593,112.818h-3.077v-8.503c0-2.483-0.81-4.13-2.699-4.13c-1.431,0-2.888,1.296-2.888,3.455v9.178
			h-3.077v-8.961c0-2.079-0.783-3.671-2.592-3.671c-1.403,0-2.996,1.269-2.996,3.617v9.016h-3.077v-10.689
			c0-1.674-0.054-2.916-0.107-4.184h2.699l0.162,2.187h0.08c0.729-1.242,2.079-2.51,4.347-2.51c1.889,0,3.319,1.053,3.94,2.726
			h0.054c0.999-1.646,2.457-2.726,4.589-2.726c2.214,0,4.643,1.511,4.643,6.208V112.818z"/>
		<path fill="#2D3E56" d="M351.429,95.651c-1.079,0-1.809-0.81-1.809-1.809c0-1.053,0.756-1.835,1.836-1.835
			s1.809,0.783,1.809,1.835C353.265,94.841,352.563,95.651,351.429,95.651z M352.994,112.818h-3.131v-14.9h3.131V112.818z"/>
		<path fill="#2D3E56" d="M368.383,112.359c-0.702,0.324-2.105,0.756-3.833,0.756c-4.292,0-7.1-2.942-7.1-7.585
			c0-4.508,2.916-7.909,7.693-7.909c1.431,0,2.672,0.351,3.32,0.675l-0.621,2.402c-0.54-0.27-1.403-0.594-2.672-0.594
			c-2.916,0-4.535,2.375-4.535,5.291c0,3.266,1.916,5.209,4.508,5.209c1.241,0,2.105-0.297,2.808-0.594L368.383,112.359z"/>
		<path fill="#2D3E56" d="M382.962,109.282c0,1.269,0.027,2.564,0.217,3.536h-2.835l-0.216-1.728h-0.081
			c-0.837,1.161-2.294,2.024-4.156,2.024c-2.78,0-4.373-2.051-4.373-4.346c0-3.698,3.212-5.534,8.313-5.534
			c0-1.106,0-3.32-2.996-3.32c-1.322,0-2.672,0.405-3.617,1.025l-0.647-2.078c1.053-0.675,2.807-1.242,4.805-1.242
			c4.373,0,5.587,2.888,5.587,6.046V109.282z M379.912,105.341c-2.456,0-5.291,0.459-5.291,3.104c0,1.647,1.026,2.375,2.187,2.375
			c1.701,0,3.104-1.295,3.104-3.023V105.341z"/>
		<path fill="#2D3E56" d="M391.388,112.818h-3.131V91.17h3.131V112.818z"/>
		<path fill="#2D3E56" d="M411.528,100.752c-0.594-0.378-1.619-0.836-2.834-0.836c-1.403,0-2.159,0.81-2.159,1.808
			c0,1.026,0.675,1.539,2.483,2.322c2.456,0.999,3.752,2.348,3.752,4.508c0,2.861-2.187,4.562-5.561,4.562
			c-1.565,0-3.051-0.405-4.049-0.999l0.701-2.322c0.756,0.459,2.133,0.999,3.401,0.999c1.674,0,2.483-0.81,2.483-1.943
			c0-1.134-0.621-1.755-2.402-2.511c-2.646-1.052-3.806-2.537-3.806-4.265c0-2.483,2.024-4.454,5.155-4.454
			c1.458,0,2.727,0.405,3.536,0.864L411.528,100.752z"/>
		<path fill="#2D3E56" d="M417.794,95.246l3.104-0.972v3.671h3.536v2.349h-3.536v7.531c0,1.835,0.567,2.726,1.89,2.726
			c0.621,0,0.999-0.081,1.377-0.189l0.107,2.402c-0.54,0.216-1.377,0.351-2.43,0.351c-1.241,0-2.294-0.405-2.941-1.134
			c-0.756-0.81-1.107-2.051-1.107-3.995v-7.693h-2.105v-2.349h2.105V95.246z"/>
		<path fill="#2D3E56" d="M438.905,109.282c0,1.269,0.027,2.564,0.217,3.536h-2.835l-0.216-1.728h-0.081
			c-0.837,1.161-2.294,2.024-4.156,2.024c-2.78,0-4.373-2.051-4.373-4.346c0-3.698,3.212-5.534,8.313-5.534
			c0-1.106,0-3.32-2.996-3.32c-1.322,0-2.672,0.405-3.617,1.025l-0.647-2.078c1.053-0.675,2.807-1.242,4.805-1.242
			c4.373,0,5.587,2.888,5.587,6.046V109.282z M435.855,105.341c-2.456,0-5.291,0.459-5.291,3.104c0,1.647,1.026,2.375,2.187,2.375
			c1.701,0,3.104-1.295,3.104-3.023V105.341z"/>
		<path fill="#2D3E56" d="M447.386,100.024c0.891-1.512,2.429-2.402,4.508-2.402c3.4,0,5.749,2.996,5.749,7.531
			c0,5.426-3.158,7.963-6.235,7.963c-1.916,0-3.401-0.783-4.399-2.537h-0.081l-0.162,2.24h-2.672
			c0.054-0.999,0.107-2.618,0.107-3.968V91.17h3.131v8.854H447.386z M447.331,106.934c0,1.889,1.351,3.671,3.401,3.671
			c2.402,0,3.726-2.132,3.726-5.317c0-2.808-1.215-5.156-3.698-5.156c-1.971,0-3.429,1.917-3.429,3.887V106.934z"/>
		<path fill="#2D3E56" d="M463.641,95.651c-1.08,0-1.809-0.81-1.809-1.809c0-1.053,0.756-1.835,1.835-1.835
			c1.08,0,1.809,0.783,1.809,1.835C465.476,94.841,464.773,95.651,463.641,95.651z M465.206,112.818h-3.132v-14.9h3.132V112.818z"/>
		<path fill="#2D3E56" d="M473.711,112.818h-3.132V91.17h3.132V112.818z"/>
		<path fill="#2D3E56" d="M480.623,95.651c-1.08,0-1.809-0.81-1.809-1.809c0-1.053,0.756-1.835,1.835-1.835
			c1.08,0,1.809,0.783,1.809,1.835C482.458,94.841,481.756,95.651,480.623,95.651z M482.188,112.818h-3.132v-14.9h3.132V112.818z"/>
		<path fill="#2D3E56" d="M488.183,95.246l3.104-0.972v3.671h3.536v2.349h-3.536v7.531c0,1.835,0.566,2.726,1.89,2.726
			c0.62,0,0.998-0.081,1.376-0.189l0.108,2.402c-0.54,0.216-1.377,0.351-2.43,0.351c-1.241,0-2.294-0.405-2.942-1.134
			c-0.756-0.81-1.106-2.051-1.106-3.995v-7.693h-2.105v-2.349h2.105V95.246z"/>
		<path fill="#2D3E56" d="M510.645,97.945l-3.59,10.311c-1.755,4.886-2.997,7.639-4.778,9.367c-1.35,1.242-2.727,1.754-3.455,1.917
			l-0.81-2.646c3.239-1.161,4.399-4.184,4.399-4.588c0-0.162-0.026-0.351-0.162-0.648l-5.102-13.712h3.429l2.699,8.368
			c0.297,0.972,0.594,2.105,0.81,2.969h0.081c0.216-0.864,0.513-1.97,0.783-2.969l2.402-8.368H510.645z"/>
		<path fill="#2D3E56" d="M517.936,108.634c-0.783,2.7-2.133,6.046-3.158,7.747l-2.159,0.216c0.756-2.051,1.565-5.291,1.916-7.666
			L517.936,108.634z"/>
		<path fill="#2D3E56" d="M541.531,97.945l-5.345,14.873h-2.996l-5.21-14.873h3.374l2.43,7.909c0.405,1.296,0.729,2.538,0.999,3.779
			h0.081c0.27-1.242,0.62-2.457,0.998-3.752l2.402-7.936H541.531z"/>
		<path fill="#2D3E56" d="M558.028,105.26c0,5.561-3.617,7.855-6.965,7.855c-3.859,0-6.802-2.834-6.802-7.639
			c0-5.021,3.077-7.855,7.019-7.855C555.355,97.622,558.028,100.699,558.028,105.26z M551.172,99.97
			c-2.672,0-3.698,2.861-3.698,5.426c0,2.915,1.377,5.372,3.671,5.372c2.268,0,3.671-2.457,3.671-5.426
			C554.815,102.885,553.79,99.97,551.172,99.97z"/>
		<path fill="#2D3E56" d="M565.617,112.818h-3.132V91.17h3.132V112.818z"/>
		<path fill="#2D3E56" d="M571.585,95.246l3.104-0.972v3.671h3.536v2.349h-3.536v7.531c0,1.835,0.566,2.726,1.89,2.726
			c0.62,0,0.998-0.081,1.376-0.189l0.108,2.402c-0.54,0.216-1.377,0.351-2.43,0.351c-1.241,0-2.294-0.405-2.942-1.134
			c-0.756-0.81-1.106-2.051-1.106-3.995v-7.693h-2.105v-2.349h2.105V95.246z"/>
		<path fill="#2D3E56" d="M592.696,109.282c0,1.269,0.026,2.564,0.216,3.536h-2.834l-0.217-1.728h-0.08
			c-0.837,1.161-2.295,2.024-4.157,2.024c-2.78,0-4.373-2.051-4.373-4.346c0-3.698,3.212-5.534,8.313-5.534
			c0-1.106,0-3.32-2.996-3.32c-1.322,0-2.672,0.405-3.617,1.025l-0.647-2.078c1.053-0.675,2.808-1.242,4.805-1.242
			c4.373,0,5.588,2.888,5.588,6.046V109.282z M589.646,105.341c-2.456,0-5.29,0.459-5.29,3.104c0,1.647,1.025,2.375,2.187,2.375
			c1.7,0,3.104-1.295,3.104-3.023V105.341z"/>
		<path fill="#2D3E56" d="M610.407,97.945c-0.081,1.053-0.135,2.294-0.135,4.292v8.476c0,2.969-0.243,8.449-7.288,8.449
			c-1.728,0-3.536-0.378-4.697-1.08l0.702-2.429c0.918,0.54,2.349,1.052,4.022,1.052c2.429,0,4.156-1.35,4.156-4.724v-1.431h-0.054
			c-0.756,1.269-2.214,2.187-4.13,2.187c-3.509,0-5.911-3.104-5.911-7.261c0-5.048,3.05-7.855,6.289-7.855
			c2.213,0,3.455,1.133,4.076,2.321h0.054l0.135-1.998H610.407z M607.142,103.695c0-1.971-1.296-3.59-3.213-3.59
			c-2.159,0-3.671,2.051-3.671,5.236c0,2.915,1.323,4.994,3.645,4.994c1.619,0,3.239-1.242,3.239-3.725V103.695z"/>
		<path fill="#2D3E56" d="M626.5,112.225c-1.053,0.486-2.699,0.891-4.725,0.891c-4.48,0-7.071-2.996-7.071-7.531
			c0-4.427,2.483-7.963,6.694-7.963c4.184,0,5.857,3.482,5.857,7.153c0,0.513-0.027,0.945-0.081,1.323h-9.448
			c0.081,3.347,2.16,4.616,4.508,4.616c1.646,0,2.78-0.297,3.752-0.702L626.5,112.225z M624.286,103.857
			c0.027-1.782-0.702-3.995-3.104-3.995c-2.294,0-3.266,2.268-3.428,3.995H624.286z"/>
		<path fill="#2D3E56" d="M646.508,100.699c-0.271-0.054-0.567-0.081-0.918-0.081c-2.105,0-3.428,1.728-3.428,4.319v7.882h-3.132
			V102.48c0-1.728-0.026-3.158-0.107-4.535h2.727l0.107,2.726h0.108c0.675-1.889,2.24-3.05,3.859-3.05
			c0.297,0,0.513,0.027,0.783,0.081V100.699z"/>
		<path fill="#2D3E56" d="M661.168,112.225c-1.053,0.486-2.699,0.891-4.725,0.891c-4.48,0-7.071-2.996-7.071-7.531
			c0-4.427,2.483-7.963,6.694-7.963c4.184,0,5.857,3.482,5.857,7.153c0,0.513-0.027,0.945-0.081,1.323h-9.448
			c0.081,3.347,2.16,4.616,4.508,4.616c1.646,0,2.78-0.297,3.752-0.702L661.168,112.225z M658.954,103.857
			c0.027-1.782-0.702-3.995-3.104-3.995c-2.294,0-3.266,2.268-3.428,3.995H658.954z"/>
		<path fill="#2D3E56" d="M673.696,100.752c-0.594-0.378-1.62-0.836-2.834-0.836c-1.404,0-2.16,0.81-2.16,1.808
			c0,1.026,0.675,1.539,2.483,2.322c2.457,0.999,3.752,2.348,3.752,4.508c0,2.861-2.186,4.562-5.561,4.562
			c-1.565,0-3.05-0.405-4.049-0.999l0.702-2.322c0.756,0.459,2.133,0.999,3.401,0.999c1.673,0,2.483-0.81,2.483-1.943
			c0-1.134-0.621-1.755-2.402-2.511c-2.646-1.052-3.807-2.537-3.807-4.265c0-2.483,2.024-4.454,5.156-4.454
			c1.457,0,2.726,0.405,3.536,0.864L673.696,100.752z"/>
		<path fill="#2D3E56" d="M680.907,95.651c-1.08,0-1.809-0.81-1.809-1.809c0-1.053,0.756-1.835,1.835-1.835
			c1.08,0,1.809,0.783,1.809,1.835C682.742,94.841,682.04,95.651,680.907,95.651z M682.473,112.818h-3.132v-14.9h3.132V112.818z"/>
		<path fill="#2D3E56" d="M695.242,100.752c-0.594-0.378-1.619-0.836-2.834-0.836c-1.404,0-2.16,0.81-2.16,1.808
			c0,1.026,0.675,1.539,2.483,2.322c2.457,0.999,3.752,2.348,3.752,4.508c0,2.861-2.186,4.562-5.561,4.562
			c-1.565,0-3.05-0.405-4.049-0.999l0.702-2.322c0.756,0.459,2.133,0.999,3.401,0.999c1.673,0,2.483-0.81,2.483-1.943
			c0-1.134-0.621-1.755-2.402-2.511c-2.646-1.052-3.807-2.537-3.807-4.265c0-2.483,2.024-4.454,5.156-4.454
			c1.457,0,2.726,0.405,3.536,0.864L695.242,100.752z"/>
		<path fill="#2D3E56" d="M701.508,95.246l3.104-0.972v3.671h3.536v2.349h-3.536v7.531c0,1.835,0.566,2.726,1.89,2.726
			c0.62,0,0.998-0.081,1.376-0.189l0.108,2.402c-0.54,0.216-1.377,0.351-2.43,0.351c-1.241,0-2.294-0.405-2.942-1.134
			c-0.756-0.81-1.106-2.051-1.106-3.995v-7.693h-2.105v-2.349h2.105V95.246z"/>
		<path fill="#2D3E56" d="M722.619,109.282c0,1.269,0.026,2.564,0.216,3.536h-2.834l-0.217-1.728h-0.081
			c-0.836,1.161-2.294,2.024-4.156,2.024c-2.78,0-4.373-2.051-4.373-4.346c0-3.698,3.212-5.534,8.313-5.534
			c0-1.106,0-3.32-2.996-3.32c-1.322,0-2.672,0.405-3.617,1.025l-0.647-2.078c1.053-0.675,2.808-1.242,4.805-1.242
			c4.373,0,5.588,2.888,5.588,6.046V109.282z M719.568,105.341c-2.456,0-5.29,0.459-5.29,3.104c0,1.647,1.025,2.375,2.187,2.375
			c1.7,0,3.104-1.295,3.104-3.023V105.341z"/>
		<path fill="#2D3E56" d="M740.195,112.818h-3.131V104.1c0-2.105-0.702-3.887-2.835-3.887c-1.538,0-3.185,1.269-3.185,3.644v8.961
			h-3.132v-10.689c0-1.647-0.054-2.916-0.107-4.184h2.727l0.161,2.213h0.081c0.702-1.269,2.268-2.537,4.508-2.537
			c2.321,0,4.913,1.511,4.913,6.1V112.818z"/>
		<path fill="#2D3E56" d="M755.505,112.359c-0.702,0.324-2.105,0.756-3.833,0.756c-4.292,0-7.099-2.942-7.099-7.585
			c0-4.508,2.915-7.909,7.692-7.909c1.431,0,2.673,0.351,3.32,0.675l-0.621,2.402c-0.54-0.27-1.403-0.594-2.672-0.594
			c-2.915,0-4.535,2.375-4.535,5.291c0,3.266,1.917,5.209,4.508,5.209c1.242,0,2.105-0.297,2.808-0.594L755.505,112.359z"/>
		<path fill="#2D3E56" d="M770.544,112.225c-1.053,0.486-2.699,0.891-4.725,0.891c-4.48,0-7.071-2.996-7.071-7.531
			c0-4.427,2.483-7.963,6.693-7.963c4.185,0,5.858,3.482,5.858,7.153c0,0.513-0.027,0.945-0.081,1.323h-9.448
			c0.081,3.347,2.16,4.616,4.508,4.616c1.646,0,2.78-0.297,3.752-0.702L770.544,112.225z M768.33,103.857
			c0.027-1.782-0.702-3.995-3.104-3.995c-2.294,0-3.266,2.268-3.428,3.995H768.33z"/>
		<path fill="#2D3E56" d="M779.401,108.634c-0.783,2.7-2.133,6.046-3.158,7.747l-2.159,0.216c0.756-2.051,1.565-5.291,1.916-7.666
			L779.401,108.634z"/>
		<path fill="#2D3E56" d="M286.843,139.907c0,1.269,0.027,2.564,0.217,3.536h-2.835l-0.216-1.728h-0.081
			c-0.837,1.161-2.294,2.024-4.156,2.024c-2.78,0-4.373-2.052-4.373-4.346c0-3.698,3.212-5.533,8.313-5.533
			c0-1.107,0-3.32-2.996-3.32c-1.322,0-2.672,0.404-3.617,1.025l-0.647-2.078c1.053-0.675,2.807-1.242,4.805-1.242
			c4.373,0,5.587,2.889,5.587,6.047V139.907z M283.793,135.967c-2.456,0-5.291,0.458-5.291,3.104c0,1.646,1.026,2.376,2.187,2.376
			c1.701,0,3.104-1.296,3.104-3.023V135.967z"/>
		<path fill="#2D3E56" d="M304.42,143.443h-3.132v-8.719c0-2.105-0.701-3.887-2.834-3.887c-1.538,0-3.186,1.269-3.186,3.644v8.962
			h-3.131v-10.689c0-1.646-0.054-2.915-0.107-4.184h2.726l0.162,2.214h0.081c0.702-1.27,2.268-2.538,4.508-2.538
			c2.321,0,4.913,1.512,4.913,6.101V143.443z"/>
		<path fill="#2D3E56" d="M322.132,139.476c0,1.35,0.054,2.942,0.107,3.968h-2.753l-0.162-2.321h-0.081
			c-0.782,1.512-2.402,2.618-4.508,2.618c-3.374,0-5.938-2.996-5.938-7.585c0-5.048,2.889-7.909,6.209-7.909
			c1.916,0,3.293,0.864,3.94,1.998h0.055v-8.449h3.131V139.476z M319.001,134.59c0-2.43-1.539-3.86-3.294-3.86
			c-2.402,0-3.725,2.376-3.725,5.317c0,2.916,1.296,5.156,3.671,5.156c2.024,0,3.348-1.781,3.348-3.86V134.59z"/>
		<path fill="#2D3E56" d="M345.298,139.907c0,1.269,0.027,2.564,0.216,3.536h-2.834l-0.216-1.728h-0.081
			c-0.837,1.161-2.295,2.024-4.157,2.024c-2.78,0-4.373-2.052-4.373-4.346c0-3.698,3.213-5.533,8.314-5.533
			c0-1.107,0-3.32-2.996-3.32c-1.323,0-2.673,0.404-3.617,1.025l-0.648-2.078c1.053-0.675,2.808-1.242,4.805-1.242
			c4.373,0,5.588,2.889,5.588,6.047V139.907z M342.248,135.967c-2.457,0-5.291,0.458-5.291,3.104c0,1.646,1.025,2.376,2.187,2.376
			c1.7,0,3.104-1.296,3.104-3.023V135.967z"/>
		<path fill="#2D3E56" d="M362.874,143.443h-3.131v-8.719c0-2.105-0.702-3.887-2.834-3.887c-1.539,0-3.186,1.269-3.186,3.644v8.962
			h-3.131v-10.689c0-1.646-0.055-2.915-0.108-4.184h2.727l0.162,2.214h0.081c0.701-1.27,2.267-2.538,4.508-2.538
			c2.321,0,4.912,1.512,4.912,6.101V143.443z"/>
		<path fill="#2D3E56" d="M368.79,125.871l3.104-0.972v3.671h3.536v2.349h-3.536v7.53c0,1.836,0.567,2.727,1.89,2.727
			c0.621,0,0.999-0.081,1.377-0.188l0.107,2.402c-0.54,0.216-1.377,0.351-2.43,0.351c-1.241,0-2.294-0.405-2.941-1.134
			c-0.756-0.81-1.107-2.052-1.107-3.995v-7.692h-2.105v-2.349h2.105V125.871z"/>
		<path fill="#2D3E56" d="M381.048,126.276c-1.08,0-1.809-0.811-1.809-1.809c0-1.053,0.756-1.836,1.835-1.836
			c1.08,0,1.809,0.783,1.809,1.836C382.883,125.466,382.182,126.276,381.048,126.276z M382.613,143.443h-3.131v-14.9h3.131V143.443z
			"/>
		<path fill="#2D3E56" d="M386.907,134.131h7.423v2.24h-7.423V134.131z"/>
		<path fill="#2D3E56" d="M409.017,139.907c0,1.269,0.027,2.564,0.217,3.536h-2.835l-0.216-1.728h-0.081
			c-0.837,1.161-2.294,2.024-4.156,2.024c-2.78,0-4.373-2.052-4.373-4.346c0-3.698,3.212-5.533,8.313-5.533
			c0-1.107,0-3.32-2.996-3.32c-1.322,0-2.672,0.404-3.617,1.025l-0.647-2.078c1.053-0.675,2.807-1.242,4.805-1.242
			c4.373,0,5.587,2.889,5.587,6.047V139.907z M405.967,135.967c-2.456,0-5.291,0.458-5.291,3.104c0,1.646,1.026,2.376,2.187,2.376
			c1.701,0,3.104-1.296,3.104-3.023V135.967z"/>
		<path fill="#2D3E56" d="M426.729,128.57c-0.081,1.053-0.135,2.294-0.135,4.292v8.476c0,2.969-0.243,8.449-7.288,8.449
			c-1.728,0-3.536-0.378-4.697-1.08l0.702-2.43c0.918,0.54,2.349,1.053,4.021,1.053c2.43,0,4.157-1.35,4.157-4.724v-1.431h-0.054
			c-0.756,1.269-2.214,2.187-4.13,2.187c-3.51,0-5.912-3.104-5.912-7.261c0-5.048,3.051-7.855,6.29-7.855
			c2.213,0,3.455,1.134,4.075,2.321h0.055l0.135-1.997H426.729z M423.462,134.319c0-1.97-1.295-3.59-3.212-3.59
			c-2.159,0-3.671,2.052-3.671,5.237c0,2.915,1.322,4.993,3.644,4.993c1.62,0,3.239-1.241,3.239-3.725V134.319z"/>
		<path fill="#2D3E56" d="M433.508,126.276c-1.079,0-1.809-0.811-1.809-1.809c0-1.053,0.756-1.836,1.836-1.836
			s1.809,0.783,1.809,1.836C435.344,125.466,434.642,126.276,433.508,126.276z M435.073,143.443h-3.131v-14.9h3.131V143.443z"/>
		<path fill="#2D3E56" d="M452.729,143.443h-3.132v-8.719c0-2.105-0.701-3.887-2.834-3.887c-1.538,0-3.186,1.269-3.186,3.644v8.962
			h-3.131v-10.689c0-1.646-0.054-2.915-0.107-4.184h2.726l0.162,2.214h0.081c0.702-1.27,2.268-2.538,4.508-2.538
			c2.321,0,4.913,1.512,4.913,6.101V143.443z"/>
		<path fill="#2D3E56" d="M470.441,128.57c-0.081,1.053-0.135,2.294-0.135,4.292v8.476c0,2.969-0.243,8.449-7.288,8.449
			c-1.728,0-3.536-0.378-4.697-1.08l0.702-2.43c0.918,0.54,2.349,1.053,4.022,1.053c2.429,0,4.156-1.35,4.156-4.724v-1.431h-0.054
			c-0.756,1.269-2.214,2.187-4.13,2.187c-3.509,0-5.911-3.104-5.911-7.261c0-5.048,3.05-7.855,6.289-7.855
			c2.213,0,3.455,1.134,4.076,2.321h0.054l0.135-1.997H470.441z M467.176,134.319c0-1.97-1.296-3.59-3.213-3.59
			c-2.159,0-3.671,2.052-3.671,5.237c0,2.915,1.323,4.993,3.645,4.993c1.619,0,3.239-1.241,3.239-3.725V134.319z"/>
		<path fill="#2D3E56" d="M485.914,130.838c1.026-1.674,2.646-2.592,4.724-2.592c3.348,0,5.857,2.97,5.857,7.585
			c0,5.453-3.158,7.909-6.289,7.909c-1.781,0-3.239-0.837-3.968-2.052h-0.054v7.774h-3.132v-16.088c0-1.943-0.054-3.482-0.107-4.805
			h2.753l0.162,2.268H485.914z M486.185,137.451c0,2.672,1.835,3.806,3.374,3.806c2.429,0,3.752-2.24,3.752-5.317
			c0-2.834-1.269-5.183-3.671-5.183c-1.862,0-3.455,1.755-3.455,3.94V137.451z"/>
		<path fill="#2D3E56" d="M508.404,131.323c-0.271-0.054-0.567-0.081-0.918-0.081c-2.105,0-3.428,1.728-3.428,4.319v7.882h-3.132
			v-10.338c0-1.728-0.026-3.158-0.107-4.535h2.727l0.107,2.727h0.108c0.675-1.89,2.24-3.051,3.859-3.051
			c0.297,0,0.513,0.027,0.783,0.081V131.323z"/>
		<path fill="#2D3E56" d="M525.008,135.886c0,5.561-3.617,7.854-6.965,7.854c-3.859,0-6.802-2.834-6.802-7.639
			c0-5.021,3.077-7.855,7.019-7.855C522.335,128.246,525.008,131.323,525.008,135.886z M518.151,130.595
			c-2.672,0-3.698,2.861-3.698,5.426c0,2.915,1.377,5.371,3.671,5.371c2.268,0,3.671-2.456,3.671-5.425
			C521.795,133.51,520.77,130.595,518.151,130.595z"/>
		<path fill="#2D3E56" d="M532.327,130.838c1.026-1.674,2.646-2.592,4.724-2.592c3.348,0,5.857,2.97,5.857,7.585
			c0,5.453-3.158,7.909-6.289,7.909c-1.781,0-3.239-0.837-3.968-2.052h-0.054v7.774h-3.132v-16.088c0-1.943-0.054-3.482-0.107-4.805
			h2.753l0.162,2.268H532.327z M532.598,137.451c0,2.672,1.835,3.806,3.374,3.806c2.429,0,3.752-2.24,3.752-5.317
			c0-2.834-1.269-5.183-3.671-5.183c-1.862,0-3.455,1.755-3.455,3.94V137.451z"/>
		<path fill="#2D3E56" d="M558.219,142.85c-1.053,0.485-2.699,0.891-4.725,0.891c-4.48,0-7.071-2.996-7.071-7.531
			c0-4.427,2.483-7.963,6.694-7.963c4.184,0,5.857,3.482,5.857,7.153c0,0.513-0.027,0.945-0.081,1.322h-9.448
			c0.081,3.348,2.16,4.616,4.508,4.616c1.646,0,2.78-0.297,3.752-0.702L558.219,142.85z M556.005,134.481
			c0.027-1.781-0.702-3.995-3.104-3.995c-2.294,0-3.266,2.268-3.428,3.995H556.005z"/>
		<path fill="#2D3E56" d="M570.828,131.323c-0.271-0.054-0.567-0.081-0.918-0.081c-2.105,0-3.428,1.728-3.428,4.319v7.882h-3.132
			v-10.338c0-1.728-0.026-3.158-0.107-4.535h2.727l0.107,2.727h0.108c0.675-1.89,2.24-3.051,3.859-3.051
			c0.297,0,0.513,0.027,0.783,0.081V131.323z"/>
		<path fill="#2D3E56" d="M575.23,125.871l3.104-0.972v3.671h3.536v2.349h-3.536v7.53c0,1.836,0.566,2.727,1.89,2.727
			c0.62,0,0.998-0.081,1.376-0.188l0.108,2.402c-0.54,0.216-1.377,0.351-2.43,0.351c-1.241,0-2.294-0.405-2.942-1.134
			c-0.756-0.81-1.106-2.052-1.106-3.995v-7.692h-2.105v-2.349h2.105V125.871z"/>
		<path fill="#2D3E56" d="M597.691,128.57l-3.59,10.312c-1.755,4.886-2.997,7.639-4.778,9.366c-1.35,1.242-2.727,1.755-3.455,1.917
			l-0.81-2.646c3.239-1.161,4.399-4.185,4.399-4.589c0-0.162-0.026-0.351-0.162-0.648l-5.102-13.712h3.429l2.699,8.368
			c0.297,0.972,0.594,2.105,0.81,2.969h0.081c0.216-0.863,0.513-1.971,0.783-2.969l2.402-8.368H597.691z"/>
	</g>
</g>
</svg>
