<?xml version="1.0" encoding="utf-8"?>
<!-- Generator: Adobe Illustrator 16.0.0, SVG Export Plug-In . SVG Version: 6.00 Build 0)  -->
<!DOCTYPE svg PUBLIC "-//W3C//DTD SVG 1.1//EN" "http://www.w3.org/Graphics/SVG/1.1/DTD/svg11.dtd">
<svg version="1.1" id="圖層_1" xmlns="http://www.w3.org/2000/svg" xmlns:xlink="http://www.w3.org/1999/xlink" x="0px" y="0px"
	 width="320px" height="320px" viewBox="0 0 320 320" enable-background="new 0 0 320 320" xml:space="preserve">
<g>
	<path fill="none" stroke="#231815" stroke-width="3" stroke-miterlimit="10" d="M189.133,95.283
		c0,13.845-11.222,25.071-25.072,25.071c-13.854,0-25.079-11.226-25.079-25.071c0-13.856,11.226-25.079,25.079-25.079
		C177.911,70.204,189.133,81.427,189.133,95.283z"/>
	<line fill="none" stroke="#231815" stroke-width="3" stroke-miterlimit="10" x1="164.061" y1="44.292" x2="164.061" y2="63.104"/>
	<line fill="none" stroke="#231815" stroke-width="3" stroke-miterlimit="10" x1="215.151" y1="95.283" x2="196.354" y2="95.283"/>
	
		<line fill="none" stroke="#231815" stroke-width="3" stroke-miterlimit="10" x1="164.531" y1="147.089" x2="164.531" y2="128.282"/>
	<line fill="none" stroke="#231815" stroke-width="3" stroke-miterlimit="10" x1="113.433" y1="96.095" x2="132.239" y2="96.095"/>
	<line fill="none" stroke="#231815" stroke-width="3" stroke-miterlimit="10" x1="200.47" y1="59.183" x2="187.166" y2="72.477"/>
	
		<line fill="none" stroke="#231815" stroke-width="3" stroke-miterlimit="10" x1="200.552" y1="131.372" x2="187.257" y2="118.068"/>
	
		<line fill="none" stroke="#231815" stroke-width="3" stroke-miterlimit="10" x1="128.114" y1="132.203" x2="141.412" y2="118.901"/>
	<line fill="none" stroke="#231815" stroke-width="3" stroke-miterlimit="10" x1="128.046" y1="60.011" x2="141.344" y2="73.315"/>
</g>
<g>
	<g>
		<g>
			
				<polygon fill="none" stroke="#000000" stroke-width="1.4849" stroke-linecap="round" stroke-linejoin="round" stroke-miterlimit="10" points="
				47.701,153.716 105.552,153.716 148.426,246.424 90.917,246.424 			"/>
			
				<polygon fill="none" stroke="#000000" stroke-width="1.4849" stroke-linecap="round" stroke-linejoin="round" stroke-miterlimit="10" points="
				33.357,143.023 109.968,143.023 162.665,257.117 86.611,257.117 			"/>
			
				<line fill="none" stroke="#000000" stroke-width="1.4849" stroke-linecap="round" stroke-linejoin="round" stroke-miterlimit="10" x1="137.094" y1="246.424" x2="94.153" y2="153.716"/>
			
				<line fill="none" stroke="#000000" stroke-width="1.4849" stroke-linecap="round" stroke-linejoin="round" stroke-miterlimit="10" x1="125.489" y1="246.424" x2="82.479" y2="153.716"/>
			
				<line fill="none" stroke="#000000" stroke-width="1.4849" stroke-linecap="round" stroke-linejoin="round" stroke-miterlimit="10" x1="113.876" y1="246.424" x2="70.797" y2="153.716"/>
			
				<line fill="none" stroke="#000000" stroke-width="1.4849" stroke-linecap="round" stroke-linejoin="round" stroke-miterlimit="10" x1="102.273" y1="246.424" x2="59.126" y2="153.716"/>
			
				<line fill="none" stroke="#000000" stroke-width="1.4849" stroke-linecap="round" stroke-linejoin="round" stroke-miterlimit="10" x1="52.393" y1="163.783" x2="108.52" y2="163.783"/>
			
				<line fill="none" stroke="#000000" stroke-width="1.4849" stroke-linecap="round" stroke-linejoin="round" stroke-miterlimit="10" x1="57.17" y1="174.029" x2="113.26" y2="174.029"/>
			
				<line fill="none" stroke="#000000" stroke-width="1.4849" stroke-linecap="round" stroke-linejoin="round" stroke-miterlimit="10" x1="61.949" y1="184.281" x2="118.003" y2="184.281"/>
			
				<line fill="none" stroke="#000000" stroke-width="1.4849" stroke-linecap="round" stroke-linejoin="round" stroke-miterlimit="10" x1="66.726" y1="194.529" x2="122.742" y2="194.529"/>
			
				<line fill="none" stroke="#000000" stroke-width="1.4849" stroke-linecap="round" stroke-linejoin="round" stroke-miterlimit="10" x1="71.503" y1="204.773" x2="127.481" y2="204.773"/>
			
				<line fill="none" stroke="#000000" stroke-width="1.4849" stroke-linecap="round" stroke-linejoin="round" stroke-miterlimit="10" x1="76.279" y1="215.021" x2="132.221" y2="215.021"/>
			
				<line fill="none" stroke="#000000" stroke-width="1.4849" stroke-linecap="round" stroke-linejoin="round" stroke-miterlimit="10" x1="81.058" y1="225.271" x2="136.962" y2="225.271"/>
			
				<line fill="none" stroke="#000000" stroke-width="1.4849" stroke-linecap="round" stroke-linejoin="round" stroke-miterlimit="10" x1="85.833" y1="235.518" x2="141.703" y2="235.518"/>
		</g>
	</g>
	<polyline fill="none" stroke="#000000" stroke-width="1.4849" stroke-miterlimit="10" points="161.509,257.117 161.509,261.029 
		82.771,261.029 32.201,151.146 32.201,143.023 	"/>
</g>
<g>
	<g>
		<g>
			
				<polygon fill="none" stroke="#000000" stroke-width="1.4849" stroke-linecap="round" stroke-linejoin="round" stroke-miterlimit="10" points="
				233.333,246.459 175.823,246.162 219.177,153.678 277.026,153.977 			"/>
			
				<polygon fill="none" stroke="#000000" stroke-width="1.4849" stroke-linecap="round" stroke-linejoin="round" stroke-miterlimit="10" points="
				237.583,257.176 161.528,256.783 214.815,142.962 291.425,143.358 			"/>
			
				<line fill="none" stroke="#000000" stroke-width="1.4849" stroke-linecap="round" stroke-linejoin="round" stroke-miterlimit="10" x1="230.577" y1="153.737" x2="187.157" y2="246.221"/>
			
				<line fill="none" stroke="#000000" stroke-width="1.4849" stroke-linecap="round" stroke-linejoin="round" stroke-miterlimit="10" x1="242.249" y1="153.797" x2="198.761" y2="246.281"/>
			
				<line fill="none" stroke="#000000" stroke-width="1.4849" stroke-linecap="round" stroke-linejoin="round" stroke-miterlimit="10" x1="253.931" y1="153.857" x2="210.372" y2="246.34"/>
			
				<line fill="none" stroke="#000000" stroke-width="1.4849" stroke-linecap="round" stroke-linejoin="round" stroke-miterlimit="10" x1="265.601" y1="153.918" x2="221.976" y2="246.4"/>
			
				<line fill="none" stroke="#000000" stroke-width="1.4849" stroke-linecap="round" stroke-linejoin="round" stroke-miterlimit="10" x1="216.157" y1="163.729" x2="272.282" y2="164.02"/>
			
				<line fill="none" stroke="#000000" stroke-width="1.4849" stroke-linecap="round" stroke-linejoin="round" stroke-miterlimit="10" x1="211.364" y1="173.951" x2="267.452" y2="174.24"/>
			
				<line fill="none" stroke="#000000" stroke-width="1.4849" stroke-linecap="round" stroke-linejoin="round" stroke-miterlimit="10" x1="206.567" y1="184.178" x2="262.62" y2="184.469"/>
			
				<line fill="none" stroke="#000000" stroke-width="1.4849" stroke-linecap="round" stroke-linejoin="round" stroke-miterlimit="10" x1="201.776" y1="194.4" x2="257.79" y2="194.691"/>
			
				<line fill="none" stroke="#000000" stroke-width="1.4849" stroke-linecap="round" stroke-linejoin="round" stroke-miterlimit="10" x1="196.983" y1="204.621" x2="252.962" y2="204.91"/>
			
				<line fill="none" stroke="#000000" stroke-width="1.4849" stroke-linecap="round" stroke-linejoin="round" stroke-miterlimit="10" x1="192.19" y1="214.844" x2="248.132" y2="215.133"/>
			
				<line fill="none" stroke="#000000" stroke-width="1.4849" stroke-linecap="round" stroke-linejoin="round" stroke-miterlimit="10" x1="187.397" y1="225.07" x2="243.302" y2="225.357"/>
			
				<line fill="none" stroke="#000000" stroke-width="1.4849" stroke-linecap="round" stroke-linejoin="round" stroke-miterlimit="10" x1="182.603" y1="235.291" x2="238.474" y2="235.58"/>
		</g>
	</g>
	<polyline fill="none" stroke="#000000" stroke-width="1.4849" stroke-miterlimit="10" points="161.528,256.783 161.509,260.695 
		240.247,261.102 291.384,151.481 291.425,143.358 	"/>
</g>
</svg>
