<?xml version="1.0" encoding="utf-8"?>
<!-- Generator: Adobe Illustrator 16.0.0, SVG Export Plug-In . SVG Version: 6.00 Build 0)  -->
<!DOCTYPE svg PUBLIC "-//W3C//DTD SVG 1.1//EN" "http://www.w3.org/Graphics/SVG/1.1/DTD/svg11.dtd">

<svg version="1.1" xmlns="http://www.w3.org/2000/svg" xmlns:xlink="http://www.w3.org/1999/xlink" x="0px" y="0px" width="500px"
	 height="500px" viewBox="0 0 500 500" enable-background="new 0 0 500 500" xml:space="preserve">
<g id="圖層_2" display="none">
	<rect x="-0.5" y="0.5" display="inline" stroke="#FFFFFF" stroke-width="10" stroke-miterlimit="10" width="500" height="500"/>
</g>
<g id="圖層_1">
	<g id="RSGE">
		<path display="inline" fill="none" stroke="#FFFFFF" stroke-width="10" stroke-miterlimit="10" d="M259.623,28.638
			c0-2.242-0.792-4.061-1.766-4.061h-13.719c-0.974,0-1.765,1.819-1.765,4.061v117.71h17.25V28.638z"/>
		<path display="inline" fill="none" stroke="#FFFFFF" stroke-width="10" stroke-miterlimit="10" d="M281.115,466.741
			c0,3.403-2.755,6.153-6.146,6.153H227.03c-3.395,0-6.15-2.75-6.15-6.153V152.502c0-3.398,2.755-6.154,6.15-6.154h47.938
			c3.392,0,6.146,2.756,6.146,6.154V466.741z"/>
		<g display="inline">
			<defs>
				<path id="SVGID_1_" d="M281.121,466.741c0,3.403-2.761,6.153-6.152,6.153H227.03c-3.392,0-6.148-2.75-6.148-6.153V152.502
					c0-3.398,2.756-6.154,6.148-6.154h47.938c3.392,0,6.152,2.756,6.152,6.154V466.741z"/>
			</defs>
			<clipPath id="SVGID_2_">
				<use xlink:href="#SVGID_1_"  overflow="visible"/>
			</clipPath>
			<g clip-path="url(#SVGID_2_)">
				<polygon fill="none" stroke="#FFFFFF" stroke-width="3" stroke-miterlimit="10" points="58.097,308.907 249.21,117.788 
					453.824,322.396 262.705,513.516 				"/>
				
					<line fill="none" stroke="#FFFFFF" stroke-width="3" stroke-miterlimit="10" x1="239.976" y1="490.786" x2="431.095" y2="299.668"/>
				
					<line fill="none" stroke="#FFFFFF" stroke-width="3" stroke-miterlimit="10" x1="217.25" y1="468.058" x2="408.366" y2="276.938"/>
				
					<line fill="none" stroke="#FFFFFF" stroke-width="3" stroke-miterlimit="10" x1="194.521" y1="445.328" x2="385.638" y2="254.215"/>
				
					<line fill="none" stroke="#FFFFFF" stroke-width="3" stroke-miterlimit="10" x1="171.792" y1="422.6" x2="362.908" y2="231.48"/>
				
					<line fill="none" stroke="#FFFFFF" stroke-width="3" stroke-miterlimit="10" x1="149.015" y1="399.823" x2="340.137" y2="208.704"/>
				
					<line fill="none" stroke="#FFFFFF" stroke-width="3" stroke-miterlimit="10" x1="126.284" y1="377.095" x2="317.408" y2="185.976"/>
				
					<line fill="none" stroke="#FFFFFF" stroke-width="3" stroke-miterlimit="10" x1="103.554" y1="354.365" x2="294.68" y2="163.246"/>
				
					<line fill="none" stroke="#FFFFFF" stroke-width="3" stroke-miterlimit="10" x1="80.826" y1="331.636" x2="271.939" y2="140.517"/>
				
					<line fill="none" stroke="#FFFFFF" stroke-width="3" stroke-miterlimit="10" x1="227.988" y1="139.019" x2="432.594" y2="343.627"/>
				
					<line fill="none" stroke="#FFFFFF" stroke-width="3" stroke-miterlimit="10" x1="206.757" y1="160.25" x2="411.363" y2="364.858"/>
				
					<line fill="none" stroke="#FFFFFF" stroke-width="3" stroke-miterlimit="10" x1="185.527" y1="181.48" x2="390.132" y2="386.089"/>
				
					<line fill="none" stroke="#FFFFFF" stroke-width="3" stroke-miterlimit="10" x1="164.296" y1="202.711" x2="368.9" y2="407.319"/>
				
					<line fill="none" stroke="#FFFFFF" stroke-width="3" stroke-miterlimit="10" x1="143.02" y1="223.984" x2="347.628" y2="428.598"/>
				
					<line fill="none" stroke="#FFFFFF" stroke-width="3" stroke-miterlimit="10" x1="121.786" y1="245.215" x2="326.396" y2="449.823"/>
				
					<line fill="none" stroke="#FFFFFF" stroke-width="3" stroke-miterlimit="10" x1="100.559" y1="266.446" x2="305.166" y2="471.055"/>
				
					<line fill="none" stroke="#FFFFFF" stroke-width="3" stroke-miterlimit="10" x1="79.328" y1="287.682" x2="283.936" y2="492.285"/>
			</g>
		</g>
	</g>
</g>
</svg>
