<?xml version="1.0" encoding="utf-8"?>
<!-- Generator: Adobe Illustrator 16.0.0, SVG Export Plug-In . SVG Version: 6.00 Build 0)  -->
<!DOCTYPE svg PUBLIC "-//W3C//DTD SVG 1.1//EN" "http://www.w3.org/Graphics/SVG/1.1/DTD/svg11.dtd">
<svg version="1.1" xmlns="http://www.w3.org/2000/svg" xmlns:xlink="http://www.w3.org/1999/xlink" x="0px" y="0px" width="500px"
	 height="500px" viewBox="0 0 500 500" enable-background="new 0 0 500 500" xml:space="preserve">
<g id="圖層_2" display="none">
	<rect x="-0.5" y="0.5" display="inline" stroke="#FFFFFF" stroke-miterlimit="10" width="500" height="500"/>
</g>
<g id="圖層_1">		
	<g id="發熱線">
		<path fill="none" stroke="#FFFFFF" stroke-width="10" stroke-miterlimit="10" d="M107.521,427.306
			c4.565-6.431,14.222-10.106,33.462-5.414c17.091,4.173,25.956,0.631,30.349-5.426"/>
		<path fill="none" stroke="#FFFFFF" stroke-width="10" stroke-miterlimit="10" d="M137.271,397.553
			c4.563-6.432,14.222-10.102,33.468-5.41c17.088,4.168,25.949,0.626,30.342-5.431"/>
		<path fill="none" stroke="#FFFFFF" stroke-width="10" stroke-miterlimit="10" d="M166.891,368.114
			c4.564-6.432,14.221-10.112,33.463-5.415c17.088,4.173,25.953,0.626,30.347-5.431"/>
		<path fill="none" stroke="#FFFFFF" stroke-width="10" stroke-miterlimit="10" d="M195.088,339.654
			c4.559-6.432,14.215-10.112,33.468-5.409c17.083,4.169,25.948,0.62,30.341-5.431"/>
		<path fill="none" stroke="#FFFFFF" stroke-width="10" stroke-miterlimit="10" d="M224.836,309.9
			c4.569-6.431,14.222-10.112,33.473-5.415c17.09,4.174,25.939,0.632,30.343-5.425"/>
		<path fill="none" stroke="#FFFFFF" stroke-width="10" stroke-miterlimit="10" d="M254.456,280.451
			c4.564-6.426,14.223-10.106,33.463-5.408c17.094,4.167,25.955,0.631,30.354-5.426"/>
		<path fill="none" stroke="#FFFFFF" stroke-width="10" stroke-miterlimit="10" d="M280.497,254.153
			c4.563-6.426,14.228-10.102,33.462-5.403c17.096,4.168,25.955,0.62,30.343-5.431"/>
		<path fill="none" stroke="#FFFFFF" stroke-width="10" stroke-miterlimit="10" d="M310.252,224.405
			c4.559-6.431,14.222-10.107,33.461-5.416c17.096,4.174,25.955,0.632,30.348-5.424"/>
		<path fill="none" stroke="#FFFFFF" stroke-width="10" stroke-miterlimit="10" d="M339.867,194.956
			c4.563-6.426,14.221-10.102,33.466-5.405c17.101,4.168,25.95,0.622,30.349-5.43"/>
		<path fill="none" stroke="#FFFFFF" stroke-width="10" stroke-miterlimit="10" d="M411.391,173.372L126.885,457.879l-23.467-23.473
			l284.501-284.501c0,0,8.518,2.589,14.612,8.689C408.625,164.694,411.391,173.372,411.391,173.372z"/>
		<path fill="#231815" stroke="#FFFFFF" stroke-width="10" stroke-miterlimit="10" d="M122.24,439.061
			c6.479,6.475,8.4,15.068,4.28,19.188c-4.114,4.115-12.707,2.193-19.186-4.285c-6.48-6.48-8.405-15.073-4.286-19.188
			C107.168,430.655,115.757,432.571,122.24,439.061z"/>
		<path opacity="0.7" fill="#FFFFFF" stroke="#FFFFFF" stroke-width="10" stroke-miterlimit="10" d="M204.735,380.024
			c10.956,4.644,22.418,3.777,29.528-3.328c10.3-10.306,7.502-29.823-6.271-43.596c-13.771-13.768-33.284-16.576-43.596-6.267
			c-7.158,7.166-7.992,18.765-3.22,29.803l9.497-9.4c0.277-2.805,1.354-5.356,3.301-7.298c5.602-5.608,16.201-4.077,23.676,3.401
			c7.475,7.476,9.01,18.075,3.408,23.683c-1.755,1.749-4.007,2.803-6.496,3.199L204.735,380.024z"/>
		<path opacity="0.5" fill="#FFFFFF" stroke="#231815" stroke-width="10" stroke-miterlimit="10" d="M408.69,202.078L233.285,377.482
			l0.268-0.262c10.31-10.316,7.506-29.834-6.271-43.597c-13.766-13.772-33.279-16.58-43.591-6.271l-0.267,0.263l175.404-175.4
			c10.312-10.305,29.824-7.501,43.59,6.271C416.186,172.254,419,191.768,408.69,202.078z"/>
		<g>
			<path fill="none" stroke="#FFFFFF" stroke-width="10" stroke-miterlimit="10" d="M204.639,379.933
				c10.947,4.65,22.435,3.772,29.523-3.333c10.31-10.305,7.501-29.824-6.266-43.596c-13.767-13.762-33.285-16.57-43.596-6.26
				c-7.153,7.158-7.988,18.764-3.211,29.803l9.487-9.396c0.278-2.814,1.37-5.361,3.306-7.31c5.598-5.596,16.202-4.076,23.678,3.409
				c7.479,7.475,9.004,18.074,3.401,23.676c-1.755,1.755-3.997,2.81-6.483,3.2L204.639,379.933z"/>
			<path fill="none" stroke="#FFFFFF" stroke-width="10" stroke-miterlimit="10" d="M408.802,202.19
				c10.3-10.316,7.496-29.829-6.271-43.596c-13.767-13.772-33.285-16.576-43.596-6.271l0.085,0.08l-175.404,175.4l0.263-0.269
				c10.31-10.305,29.822-7.496,43.59,6.271c13.767,13.773,16.586,33.286,6.266,43.596l-0.269,0.269l175.415-175.405L408.802,202.19z
				"/>
		</g>
	</g>
</g>
</svg>
