<?xml version="1.0" encoding="utf-8"?>
<!-- Generator: Adobe Illustrator 16.0.0, SVG Export Plug-In . SVG Version: 6.00 Build 0)  -->
<!DOCTYPE svg PUBLIC "-//W3C//DTD SVG 1.1//EN" "http://www.w3.org/Graphics/SVG/1.1/DTD/svg11.dtd">
<svg version="1.1" xmlns="http://www.w3.org/2000/svg" xmlns:xlink="http://www.w3.org/1999/xlink" x="0px" y="0px" width="500px"
	 height="500px" viewBox="0 0 500 500" enable-background="new 0 0 500 500" xml:space="preserve">
<g id="圖層_2" display="none">
	<rect x="-0.5" y="0.5" display="inline" stroke="#FFFFFF" stroke-miterlimit="10" width="500" height="500"/>
</g>
<g id="圖層_1">	
	<g id="高溫線">
		<path fill="none" stroke="#FFFFFF" stroke-width="10" stroke-miterlimit="10" d="M259.623,28.638c0-2.241-0.788-4.061-1.761-4.061
			h-13.729c-0.968,0-1.756,1.819-1.756,4.061v117.716h17.246V28.638z"/>
		<path fill="none" stroke="#FFFFFF" stroke-width="10" stroke-miterlimit="10" d="M281.115,466.748c0,3.391-2.756,6.146-6.153,6.146h-47.929
			c-3.398,0-6.153-2.756-6.153-6.146V152.502c0-3.397,2.755-6.147,6.153-6.147h47.929c3.397,0,6.153,2.75,6.153,6.147V466.748z"/>
		<g>
			<defs>
				<path id="SVGID_3_" d="M281.115,466.748c0,3.391-2.75,6.146-6.143,6.146h-47.939c-3.394,0-6.153-2.756-6.153-6.146V152.502
					c0-3.397,2.76-6.147,6.153-6.147h47.939c3.393,0,6.143,2.75,6.143,6.147V466.748z"/>
			</defs>
			<clipPath id="SVGID_4_">
				<use xlink:href="#SVGID_3_"  overflow="visible"/>
			</clipPath>
			<g clip-path="url(#SVGID_4_)">
				
					<rect x="120.82" y="170.972" transform="matrix(-0.7071 0.7071 -0.7071 -0.7071 660.1569 357.8626)" fill="none" stroke="#FFFFFF" stroke-width="10" stroke-miterlimit="10" width="270.284" height="289.366"/>
				<line fill="none" stroke="#FFFFFF" stroke-width="10" stroke-miterlimit="10" x1="239.98" y1="490.792" x2="431.1" y2="299.673"/>
				<line fill="none" stroke="#FFFFFF" stroke-width="10" stroke-miterlimit="10" x1="217.252" y1="468.059" x2="408.371" y2="276.938"/>
				<line fill="none" stroke="#FFFFFF" stroke-width="10" stroke-miterlimit="10" x1="194.522" y1="445.335" x2="385.643" y2="254.21"/>
				<line fill="none" stroke="#FFFFFF" stroke-width="10" stroke-miterlimit="10" x1="171.794" y1="422.6" x2="362.903" y2="231.481"/>
				<line fill="none" stroke="#FFFFFF" stroke-width="10" stroke-miterlimit="10" x1="149.011" y1="399.823" x2="340.131" y2="208.704"/>
				<line fill="none" stroke="#FFFFFF" stroke-width="10" stroke-miterlimit="10" x1="126.282" y1="377.095" x2="317.401" y2="185.975"/>
				<line fill="none" stroke="#FFFFFF" stroke-width="5" stroke-miterlimit="10" x1="103.554" y1="354.365" x2="294.673" y2="163.246"/>
				<line fill="none" stroke="#FFFFFF" stroke-width="5" stroke-miterlimit="10" x1="80.825" y1="331.637" x2="271.944" y2="140.518"/>
				<line fill="none" stroke="#FFFFFF" stroke-width="5" stroke-miterlimit="10" x1="227.985" y1="139.019" x2="432.598" y2="343.632"/>
				<line fill="none" stroke="#FFFFFF" stroke-width="5" stroke-miterlimit="10" x1="206.754" y1="160.25" x2="411.367" y2="364.863"/>
				<line fill="none" stroke="#FFFFFF" stroke-width="5" stroke-miterlimit="10" x1="185.523" y1="181.481" x2="390.136" y2="386.088"/>
				<line fill="none" stroke="#FFFFFF" stroke-width="5" stroke-miterlimit="10" x1="164.293" y1="202.706" x2="368.905" y2="407.319"/>
				<line fill="none" stroke="#FFFFFF" stroke-width="5" stroke-miterlimit="10" x1="143.02" y1="223.991" x2="347.632" y2="428.598"/>
				<line fill="none" stroke="#FFFFFF" stroke-width="5" stroke-miterlimit="10" x1="121.789" y1="245.216" x2="326.401" y2="449.828"/>
				<line fill="none" stroke="#FFFFFF" stroke-width="5" stroke-miterlimit="10" x1="100.558" y1="266.447" x2="305.171" y2="471.054"/>
				<line fill="none" stroke="#FFFFFF" stroke-width="5" stroke-miterlimit="10" x1="79.327" y1="287.678" x2="283.939" y2="492.29"/>
			</g>
		</g>
		<g>
			<defs>
				<path id="SVGID_5_" d="M281.115,464.682c0,3.393-2.75,6.147-6.143,6.147h-47.946c-3.392,0-6.142-2.755-6.142-6.147V150.437
					c0-3.397,2.75-6.147,6.142-6.147h47.946c3.393,0,6.143,2.75,6.143,6.147V464.682z"/>
			</defs>
			<clipPath id="SVGID_6_">
				<use xlink:href="#SVGID_5_"  overflow="visible"/>
			</clipPath>
			<g clip-path="url(#SVGID_6_)">
				
					<rect x="120.821" y="168.906" transform="matrix(-0.7071 0.7071 -0.7071 -0.7071 658.6963 354.3383)" fill="none" stroke="#FFFFFF" stroke-width="10" stroke-miterlimit="10" width="270.283" height="289.367"/>
				
					<line fill="none" stroke="#FFFFFF" stroke-width="10" stroke-miterlimit="10" x1="239.98" y1="488.728" x2="431.1" y2="297.607"/>
				
					<line fill="none" stroke="#FFFFFF" stroke-width="10" stroke-miterlimit="10" x1="217.246" y1="465.993" x2="408.371" y2="274.874"/>
				
					<line fill="none" stroke="#FFFFFF" stroke-width="10" stroke-miterlimit="10" x1="194.518" y1="443.269" x2="385.643" y2="252.146"/>
				
					<line fill="none" stroke="#FFFFFF" stroke-width="10" stroke-miterlimit="10" x1="171.789" y1="420.534" x2="362.903" y2="229.415"/>
				
					<line fill="none" stroke="#FFFFFF" stroke-width="10" stroke-miterlimit="10" x1="149.017" y1="397.758" x2="340.131" y2="206.639"/>
				
					<line fill="none" stroke="#FFFFFF" stroke-width="10" stroke-miterlimit="10" x1="126.282" y1="375.029" x2="317.401" y2="183.91"/>
				
					<line fill="none" stroke="#FFFFFF" stroke-width="10" stroke-miterlimit="10" x1="103.554" y1="352.3" x2="294.673" y2="161.181"/>
				
					<line fill="none" stroke="#FFFFFF" stroke-width="10" stroke-miterlimit="10" x1="80.825" y1="329.57" x2="271.944" y2="138.452"/>
			</g>
		</g>
	</g>	
</g>
</svg>
