<?xml version="1.0" encoding="utf-8"?>
<!-- Generator: Adobe Illustrator 16.0.0, SVG Export Plug-In . SVG Version: 6.00 Build 0)  -->
<!DOCTYPE svg PUBLIC "-//W3C//DTD SVG 1.1//EN" "http://www.w3.org/Graphics/SVG/1.1/DTD/svg11.dtd">
<svg version="1.1" xmlns="http://www.w3.org/2000/svg" xmlns:xlink="http://www.w3.org/1999/xlink" x="0px" y="0px" width="500px"
	 height="500px" viewBox="0 0 500 500" enable-background="new 0 0 500 500" xml:space="preserve">
<g id="圖層_2" display="none">
	<rect x="-0.5" y="0.5" display="inline" stroke="#FFFFFF" stroke-miterlimit="10" width="500" height="500"/>
</g>
<g id="圖層_1">
	<g id="PVC">
		<text transform="matrix(1 0 0 1 250.9951 264.3506)" fill="#FFFFFF" font-family="'Arial-BoldMT'" font-size="98.6201">P</text>
		<g>
			<path fill="none" stroke="#FFFFFF" stroke-width="10" stroke-miterlimit="10" d="M259.623,31.033c0-2.241-0.787-4.061-1.761-4.061
				h-13.729c-0.968,0-1.756,1.819-1.756,4.061v117.716h17.246V31.033z"/>
			<path fill="none" stroke="#FFFFFF" stroke-width="10" stroke-miterlimit="10" d="M281.115,469.143
				c0,3.391-2.755,6.146-6.153,6.146h-47.929c-3.398,0-6.153-2.756-6.153-6.146V154.896c0-3.397,2.755-6.147,6.153-6.147h47.929
				c3.398,0,6.153,2.75,6.153,6.147V469.143z"/>
		</g>
	</g>
</g>
</svg>
