<?xml version="1.0" encoding="utf-8"?>
<!-- Generator: Adobe Illustrator 16.0.0, SVG Export Plug-In . SVG Version: 6.00 Build 0)  -->
<!DOCTYPE svg PUBLIC "-//W3C//DTD SVG 1.1//EN" "http://www.w3.org/Graphics/SVG/1.1/DTD/svg11.dtd">
<svg version="1.1" xmlns="http://www.w3.org/2000/svg" xmlns:xlink="http://www.w3.org/1999/xlink" x="0px" y="0px" width="500px"
	 height="500px" viewBox="0 0 500 500" enable-background="new 0 0 500 500" xml:space="preserve">
<g id="圖層_2" display="none">
	<rect x="-0.5" y="0.5" display="inline" stroke="#FFFFFF" stroke-miterlimit="10" width="500" height="500"/>
</g>
<g id="圖層_1">	
	<g id="TEF">
		<g>
			<path fill="none" stroke="#FFFFFF" stroke-width="10" stroke-miterlimit="10" d="M265.924,34.367c0-2.237-0.391-4.056-0.878-4.056
				h-6.865c-0.486,0-0.878,1.819-0.878,4.056v117.716h8.621V34.367z"/>
			<path fill="none" stroke="#FFFFFF" stroke-width="10" stroke-miterlimit="10" d="M276.672,472.476
				c0,3.396-1.374,6.146-3.075,6.146h-23.965c-1.697,0-3.077-2.75-3.077-6.146V158.23c0-3.392,1.38-6.148,3.077-6.148h23.965
				c1.701,0,3.075,2.756,3.075,6.148V472.476z"/>
		</g>
		<g>
			<path fill="none" stroke="#FFFFFF" stroke-width="10" stroke-miterlimit="10" d="M228.203,163.956
				c0-1.542-0.269-2.793-0.605-2.793h-4.72c-0.336,0-0.604,1.251-0.604,2.793v80.974h5.93V163.956z"/>
			<path fill="none" stroke="#FFFFFF" stroke-width="10" stroke-miterlimit="10" d="M235.597,465.316
				c0,2.338-0.947,4.232-2.119,4.232h-16.479c-1.171,0-2.118-1.895-2.118-4.232v-216.16c0-2.333,0.947-4.227,2.118-4.227h16.479
				c1.172,0,2.119,1.894,2.119,4.227V465.316z"/>
		</g>
		<text transform="matrix(1 0 0 1 265.9189 267.6885)" fill="#FFFFFF" font-family="'Arial-BoldMT'" font-size="98.6201">T</text>
	</g>	
</g>
</svg>
