<?xml version="1.0" encoding="utf-8"?>
<!-- Generator: Adobe Illustrator 16.0.0, SVG Export Plug-In . SVG Version: 6.00 Build 0)  -->
<!DOCTYPE svg PUBLIC "-//W3C//DTD SVG 1.1//EN" "http://www.w3.org/Graphics/SVG/1.1/DTD/svg11.dtd">
<svg version="1.1" xmlns="http://www.w3.org/2000/svg" xmlns:xlink="http://www.w3.org/1999/xlink" x="0px" y="0px" width="500px"
	 height="500px" viewBox="0 0 500 500" enable-background="new 0 0 500 500" xml:space="preserve">
<g id="圖層_2" display="none">
	<rect x="-0.5" y="0.5" display="inline" stroke="#FFFFFF" stroke-width="10" stroke-miterlimit="10" width="500" height="500"/>
</g>
<g id="圖層_1">
	<g id="TC">
		<text transform="matrix(1 0 0 1 226.835 280.708)" fill="#FFFFFF" font-family="'Arial-BoldMT'" font-size="98.6201">TC</text>
		<path fill="none" stroke="#FFFFFF" stroke-width="10" stroke-miterlimit="10" d="M257.376,30.953c0-2.242-0.793-4.061-1.767-4.061
			h-13.719c-0.974,0-1.767,1.819-1.767,4.061v117.71h17.252V30.953z"/>
		<path fill="none" stroke="#FFFFFF" stroke-width="10" stroke-miterlimit="10" d="M279.29,30.953c0-2.242-0.791-4.061-1.765-4.061
			h-13.719c-0.975,0-1.767,1.819-1.767,4.061v117.71h17.25V30.953z"/>
		<path fill="none" stroke="#FFFFFF" stroke-width="10" stroke-miterlimit="10" d="M298.537,469.061c0,3.398-3.554,6.148-7.931,6.148
			H228.81c-4.377,0-7.93-2.75-7.93-6.148V154.817c0-3.403,3.553-6.154,7.93-6.154h61.797c4.377,0,7.931,2.75,7.931,6.154V469.061z"
			/>
	</g>
</g>
</svg>
