<?xml version="1.0" encoding="utf-8"?>
<!-- Generator: Adobe Illustrator 16.0.0, SVG Export Plug-In . SVG Version: 6.00 Build 0)  -->
<!DOCTYPE svg PUBLIC "-//W3C//DTD SVG 1.1//EN" "http://www.w3.org/Graphics/SVG/1.1/DTD/svg11.dtd">
<svg version="1.1" xmlns="http://www.w3.org/2000/svg" xmlns:xlink="http://www.w3.org/1999/xlink" x="0px" y="0px" width="500px"
	 height="500px" viewBox="0 0 500 500" enable-background="new 0 0 500 500" xml:space="preserve">
<g id="圖層_2" display="none">
	<rect x="-0.5" y="0.5" display="inline" stroke="#FFFFFF" stroke-width="10" stroke-miterlimit="10" width="500" height="500"/>
</g>
<g id="圖層_1">
	<g id="XL">
		<text transform="matrix(1 0 0 1 250.9961 264.2715)" fill="#FFFFFF" font-family="'Arial-BoldMT'" font-size="98.6201">XL</text>
		<g>
			<path fill="none" stroke="#FFFFFF" stroke-width="10" stroke-miterlimit="10" d="M259.622,30.953c0-2.242-0.792-4.061-1.766-4.061
				h-13.718c-0.974,0-1.767,1.819-1.767,4.061v117.71h17.25V30.953z"/>
			<path fill="none" stroke="#FFFFFF" stroke-width="10" stroke-miterlimit="10" d="M281.115,469.056
				c0,3.403-2.755,6.153-6.148,6.153h-47.94c-3.392,0-6.146-2.75-6.146-6.153V154.817c0-3.398,2.755-6.154,6.146-6.154h47.94
				c3.394,0,6.148,2.756,6.148,6.154V469.056z"/>
		</g>
	</g>
</g>
</svg>
