<?xml version="1.0" encoding="utf-8"?>
<!-- Generator: Adobe Illustrator 16.0.0, SVG Export Plug-In . SVG Version: 6.00 Build 0)  -->
<!DOCTYPE svg PUBLIC "-//W3C//DTD SVG 1.1//EN" "http://www.w3.org/Graphics/SVG/1.1/DTD/svg11.dtd">
<svg version="1.1" xmlns="http://www.w3.org/2000/svg" xmlns:xlink="http://www.w3.org/1999/xlink" x="0px" y="0px" width="800px"
	 height="273.879px" viewBox="0 0 800 273.879" enable-background="new 0 0 800 273.879" xml:space="preserve">
<g id="圖層_1" display="none">
	<g display="inline">
		<circle fill="#231815" stroke="#FFFFFF" stroke-width="3" stroke-miterlimit="10" cx="386.08" cy="148.014" r="103.665"/>
		<circle fill="#231815" stroke="#FFFFFF" stroke-width="3" stroke-miterlimit="10" cx="386.081" cy="148.014" r="79.711"/>
		<g>
			<defs>
				<circle id="SVGID_1_" cx="386.081" cy="148.014" r="79.711"/>
			</defs>
			<clipPath id="SVGID_2_">
				<use xlink:href="#SVGID_1_"  overflow="visible"/>
			</clipPath>
			<g clip-path="url(#SVGID_2_)">
				<line fill="none" stroke="#FFFFFF" stroke-width="2" stroke-miterlimit="10" x1="378.535" y1="3.357" x2="241.292" y2="140.6"/>
				
					<line fill="none" stroke="#FFFFFF" stroke-width="2" stroke-miterlimit="10" x1="384.874" y1="9.696" x2="247.63" y2="146.939"/>
				
					<line fill="none" stroke="#FFFFFF" stroke-width="2" stroke-miterlimit="10" x1="391.212" y1="16.034" x2="253.969" y2="153.276"/>
				
					<line fill="none" stroke="#FFFFFF" stroke-width="2" stroke-miterlimit="10" x1="397.55" y1="22.373" x2="260.307" y2="159.616"/>
				
					<line fill="none" stroke="#FFFFFF" stroke-width="2" stroke-miterlimit="10" x1="403.888" y1="28.71" x2="266.645" y2="165.953"/>
				
					<line fill="none" stroke="#FFFFFF" stroke-width="2" stroke-miterlimit="10" x1="410.227" y1="35.047" x2="272.982" y2="172.291"/>
				
					<line fill="none" stroke="#FFFFFF" stroke-width="2" stroke-miterlimit="10" x1="416.563" y1="41.386" x2="279.321" y2="178.629"/>
				
					<line fill="none" stroke="#FFFFFF" stroke-width="2" stroke-miterlimit="10" x1="422.9" y1="47.724" x2="285.658" y2="184.967"/>
				
					<line fill="none" stroke="#FFFFFF" stroke-width="2" stroke-miterlimit="10" x1="429.24" y1="54.061" x2="291.997" y2="191.304"/>
				
					<line fill="none" stroke="#FFFFFF" stroke-width="2" stroke-miterlimit="10" x1="435.577" y1="60.4" x2="298.335" y2="197.644"/>
				
					<line fill="none" stroke="#FFFFFF" stroke-width="2" stroke-miterlimit="10" x1="441.916" y1="66.738" x2="304.673" y2="203.98"/>
				
					<line fill="none" stroke="#FFFFFF" stroke-width="2" stroke-miterlimit="10" x1="448.254" y1="73.077" x2="311.011" y2="210.32"/>
				
					<line fill="none" stroke="#FFFFFF" stroke-width="2" stroke-miterlimit="10" x1="454.591" y1="79.414" x2="317.349" y2="216.657"/>
				
					<line fill="none" stroke="#FFFFFF" stroke-width="2" stroke-miterlimit="10" x1="460.931" y1="85.751" x2="323.687" y2="222.995"/>
				
					<line fill="none" stroke="#FFFFFF" stroke-width="2" stroke-miterlimit="10" x1="467.268" y1="92.091" x2="330.025" y2="229.333"/>
				
					<line fill="none" stroke="#FFFFFF" stroke-width="2" stroke-miterlimit="10" x1="473.604" y1="98.428" x2="336.362" y2="235.671"/>
				
					<line fill="none" stroke="#FFFFFF" stroke-width="2" stroke-miterlimit="10" x1="479.944" y1="104.765" x2="342.701" y2="242.008"/>
				
					<line fill="none" stroke="#FFFFFF" stroke-width="2" stroke-miterlimit="10" x1="486.281" y1="111.104" x2="349.039" y2="248.348"/>
				
					<line fill="none" stroke="#FFFFFF" stroke-width="2" stroke-miterlimit="10" x1="492.618" y1="117.442" x2="355.376" y2="254.685"/>
				
					<line fill="none" stroke="#FFFFFF" stroke-width="2" stroke-miterlimit="10" x1="498.958" y1="123.779" x2="361.714" y2="261.022"/>
				
					<line fill="none" stroke="#FFFFFF" stroke-width="2" stroke-miterlimit="10" x1="505.295" y1="130.118" x2="368.053" y2="267.361"/>
				
					<line fill="none" stroke="#FFFFFF" stroke-width="2" stroke-miterlimit="10" x1="511.635" y1="136.456" x2="374.391" y2="273.699"/>
				<line fill="none" stroke="#FFFFFF" stroke-width="2" stroke-miterlimit="10" x1="511.633" y1="140.6" x2="374.39" y2="3.357"/>
				
					<line fill="none" stroke="#FFFFFF" stroke-width="2" stroke-miterlimit="10" x1="505.295" y1="146.939" x2="368.053" y2="9.696"/>
				
					<line fill="none" stroke="#FFFFFF" stroke-width="2" stroke-miterlimit="10" x1="498.958" y1="153.276" x2="361.714" y2="16.034"/>
				
					<line fill="none" stroke="#FFFFFF" stroke-width="2" stroke-miterlimit="10" x1="492.618" y1="159.616" x2="355.376" y2="22.373"/>
				
					<line fill="none" stroke="#FFFFFF" stroke-width="2" stroke-miterlimit="10" x1="486.281" y1="165.953" x2="349.039" y2="28.71"/>
				
					<line fill="none" stroke="#FFFFFF" stroke-width="2" stroke-miterlimit="10" x1="479.944" y1="172.291" x2="342.701" y2="35.047"/>
				
					<line fill="none" stroke="#FFFFFF" stroke-width="2" stroke-miterlimit="10" x1="473.604" y1="178.629" x2="336.362" y2="41.386"/>
				
					<line fill="none" stroke="#FFFFFF" stroke-width="2" stroke-miterlimit="10" x1="467.268" y1="184.967" x2="330.025" y2="47.724"/>
				
					<line fill="none" stroke="#FFFFFF" stroke-width="2" stroke-miterlimit="10" x1="460.931" y1="191.304" x2="323.687" y2="54.061"/>
				
					<line fill="none" stroke="#FFFFFF" stroke-width="2" stroke-miterlimit="10" x1="454.591" y1="197.644" x2="317.349" y2="60.4"/>
				
					<line fill="none" stroke="#FFFFFF" stroke-width="2" stroke-miterlimit="10" x1="448.254" y1="203.98" x2="311.011" y2="66.738"/>
				
					<line fill="none" stroke="#FFFFFF" stroke-width="2" stroke-miterlimit="10" x1="441.915" y1="210.318" x2="304.672" y2="73.075"/>
				
					<line fill="none" stroke="#FFFFFF" stroke-width="2" stroke-miterlimit="10" x1="435.577" y1="216.657" x2="298.335" y2="79.414"/>
				
					<line fill="none" stroke="#FFFFFF" stroke-width="2" stroke-miterlimit="10" x1="429.24" y1="222.995" x2="291.997" y2="85.751"/>
				
					<line fill="none" stroke="#FFFFFF" stroke-width="2" stroke-miterlimit="10" x1="422.9" y1="229.333" x2="285.658" y2="92.091"/>
				
					<line fill="none" stroke="#FFFFFF" stroke-width="2" stroke-miterlimit="10" x1="416.563" y1="235.671" x2="279.321" y2="98.428"/>
				
					<line fill="none" stroke="#FFFFFF" stroke-width="2" stroke-miterlimit="10" x1="410.227" y1="242.008" x2="272.982" y2="104.765"/>
				
					<line fill="none" stroke="#FFFFFF" stroke-width="2" stroke-miterlimit="10" x1="403.888" y1="248.348" x2="266.645" y2="111.104"/>
				
					<line fill="none" stroke="#FFFFFF" stroke-width="2" stroke-miterlimit="10" x1="397.55" y1="254.685" x2="260.307" y2="117.442"/>
			</g>
		</g>
		<path fill="#717071" stroke="#FFFFFF" stroke-width="3" stroke-miterlimit="10" d="M449.54,148.014
			c0,35.049-28.412,63.463-63.459,63.463c-35.05,0-63.458-28.414-63.458-63.463c0-35.046,28.408-63.462,63.458-63.462
			C421.128,84.552,449.54,112.967,449.54,148.014z"/>
		<path fill="#231815" stroke="#FFFFFF" stroke-width="3" stroke-miterlimit="10" d="M434.212,148.014
			c0,26.584-21.548,48.135-48.131,48.135c-26.584,0-48.13-21.551-48.13-48.135c0-26.581,21.546-48.134,48.13-48.134
			C412.664,99.88,434.212,121.433,434.212,148.014z"/>
		<g>
			<circle fill="#231815" stroke="#FFFFFF" stroke-width="3" stroke-miterlimit="10" cx="390.709" cy="172.861" r="22.154"/>
			<circle fill="#231815" stroke="#FFFFFF" stroke-width="3" stroke-miterlimit="10" cx="390.709" cy="172.861" r="14.246"/>
		</g>
		<g>
			<circle fill="#231815" stroke="#FFFFFF" stroke-width="3" stroke-miterlimit="10" cx="361.925" cy="138.527" r="22.154"/>
			<circle fill="#231815" stroke="#FFFFFF" stroke-width="3" stroke-miterlimit="10" cx="361.925" cy="138.527" r="14.246"/>
		</g>
		<g>
			<circle fill="#231815" stroke="#FFFFFF" stroke-width="3" stroke-miterlimit="10" cx="406.232" cy="130.62" r="22.153"/>
			<circle fill="#231815" stroke="#FFFFFF" stroke-width="3" stroke-miterlimit="10" cx="406.231" cy="130.62" r="14.246"/>
		</g>
		<g>
			<text transform="matrix(1 0 0 1 543.0352 64.9922)"><tspan x="0" y="0" fill="#FFFFFF" font-family="'AdobeFanHeitiStd-Bold-B5pc-H'" font-size="25.4746">具有更高的連續使用</tspan><tspan x="0" y="32.079" fill="#FFFFFF" font-family="'AdobeFanHeitiStd-Bold-B5pc-H'" font-size="25.4746">溫度260℃，並擁有</tspan><tspan x="0" y="64.158" fill="#FFFFFF" font-family="'AdobeFanHeitiStd-Bold-B5pc-H'" font-size="25.4746">更強的剛韌度耐腐、</tspan><tspan x="0" y="96.237" fill="#FFFFFF" font-family="'AdobeFanHeitiStd-Bold-B5pc-H'" font-size="25.4746">耐高溫、耐絕緣性</tspan><tspan x="0" y="128.316" fill="#FFFFFF" font-family="'AdobeFanHeitiStd-Bold-B5pc-H'" font-size="25.4746">PFA材質</tspan></text>
		</g>
		<polyline fill="none" stroke="#FFFFFF" stroke-width="2.1002" stroke-miterlimit="10" points="426.66,68.302 506.121,15.916 
			775.661,15.916 		"/>
		<g>
			
				<text transform="matrix(1 0 0 1 36.1641 53.0264)" fill="#FFFFFF" font-family="'AdobeFanHeitiStd-Bold-B5pc-H'" font-size="25.4746">多重防雜訊隔離</text>
		</g>
		<polyline fill="none" stroke="#FFFFFF" stroke-width="2.1002" stroke-miterlimit="10" points="361.924,84.756 276.686,15.916 
			36.165,15.916 		"/>
		
			<line fill="none" stroke="#FFFFFF" stroke-width="2.1002" stroke-miterlimit="10" x1="238.01" y1="15.916" x2="349.03" y2="108.465"/>
		
			<line fill="none" stroke="#FFFFFF" stroke-width="2.1002" stroke-miterlimit="10" x1="408.173" y1="112.64" x2="543.037" y2="15.916"/>
	</g>
</g>
<g id="圖層_1_拷貝">
	<g>
		<circle fill="#231815" stroke="#FFFFFF" stroke-width="3" stroke-miterlimit="10" cx="386.08" cy="148.014" r="103.665"/>
		<circle fill="#231815" stroke="#FFFFFF" stroke-width="3" stroke-miterlimit="10" cx="386.081" cy="148.014" r="79.711"/>
		<g>
			<defs>
				<circle id="SVGID_3_" cx="386.081" cy="148.014" r="79.711"/>
			</defs>
			<clipPath id="SVGID_4_">
				<use xlink:href="#SVGID_3_"  overflow="visible"/>
			</clipPath>
			<g clip-path="url(#SVGID_4_)">
				<line fill="none" stroke="#FFFFFF" stroke-width="2" stroke-miterlimit="10" x1="378.535" y1="3.357" x2="241.292" y2="140.6"/>
				
					<line fill="none" stroke="#FFFFFF" stroke-width="2" stroke-miterlimit="10" x1="384.874" y1="9.696" x2="247.63" y2="146.939"/>
				
					<line fill="none" stroke="#FFFFFF" stroke-width="2" stroke-miterlimit="10" x1="391.212" y1="16.034" x2="253.969" y2="153.276"/>
				
					<line fill="none" stroke="#FFFFFF" stroke-width="2" stroke-miterlimit="10" x1="397.55" y1="22.373" x2="260.307" y2="159.616"/>
				
					<line fill="none" stroke="#FFFFFF" stroke-width="2" stroke-miterlimit="10" x1="403.888" y1="28.71" x2="266.645" y2="165.953"/>
				
					<line fill="none" stroke="#FFFFFF" stroke-width="2" stroke-miterlimit="10" x1="410.227" y1="35.047" x2="272.982" y2="172.291"/>
				
					<line fill="none" stroke="#FFFFFF" stroke-width="2" stroke-miterlimit="10" x1="416.563" y1="41.386" x2="279.321" y2="178.629"/>
				
					<line fill="none" stroke="#FFFFFF" stroke-width="2" stroke-miterlimit="10" x1="422.9" y1="47.724" x2="285.658" y2="184.967"/>
				
					<line fill="none" stroke="#FFFFFF" stroke-width="2" stroke-miterlimit="10" x1="429.24" y1="54.061" x2="291.997" y2="191.304"/>
				
					<line fill="none" stroke="#FFFFFF" stroke-width="2" stroke-miterlimit="10" x1="435.577" y1="60.4" x2="298.335" y2="197.644"/>
				
					<line fill="none" stroke="#FFFFFF" stroke-width="2" stroke-miterlimit="10" x1="441.916" y1="66.738" x2="304.673" y2="203.98"/>
				
					<line fill="none" stroke="#FFFFFF" stroke-width="2" stroke-miterlimit="10" x1="448.254" y1="73.077" x2="311.011" y2="210.32"/>
				
					<line fill="none" stroke="#FFFFFF" stroke-width="2" stroke-miterlimit="10" x1="454.591" y1="79.414" x2="317.349" y2="216.657"/>
				
					<line fill="none" stroke="#FFFFFF" stroke-width="2" stroke-miterlimit="10" x1="460.931" y1="85.751" x2="323.687" y2="222.995"/>
				
					<line fill="none" stroke="#FFFFFF" stroke-width="2" stroke-miterlimit="10" x1="467.268" y1="92.091" x2="330.025" y2="229.333"/>
				
					<line fill="none" stroke="#FFFFFF" stroke-width="2" stroke-miterlimit="10" x1="473.604" y1="98.428" x2="336.362" y2="235.671"/>
				
					<line fill="none" stroke="#FFFFFF" stroke-width="2" stroke-miterlimit="10" x1="479.944" y1="104.765" x2="342.701" y2="242.008"/>
				
					<line fill="none" stroke="#FFFFFF" stroke-width="2" stroke-miterlimit="10" x1="486.281" y1="111.104" x2="349.039" y2="248.348"/>
				
					<line fill="none" stroke="#FFFFFF" stroke-width="2" stroke-miterlimit="10" x1="492.618" y1="117.442" x2="355.376" y2="254.685"/>
				
					<line fill="none" stroke="#FFFFFF" stroke-width="2" stroke-miterlimit="10" x1="498.958" y1="123.779" x2="361.714" y2="261.022"/>
				
					<line fill="none" stroke="#FFFFFF" stroke-width="2" stroke-miterlimit="10" x1="505.295" y1="130.118" x2="368.053" y2="267.361"/>
				
					<line fill="none" stroke="#FFFFFF" stroke-width="2" stroke-miterlimit="10" x1="511.635" y1="136.456" x2="374.391" y2="273.699"/>
				<line fill="none" stroke="#FFFFFF" stroke-width="2" stroke-miterlimit="10" x1="511.633" y1="140.6" x2="374.39" y2="3.357"/>
				
					<line fill="none" stroke="#FFFFFF" stroke-width="2" stroke-miterlimit="10" x1="505.295" y1="146.939" x2="368.053" y2="9.696"/>
				
					<line fill="none" stroke="#FFFFFF" stroke-width="2" stroke-miterlimit="10" x1="498.958" y1="153.276" x2="361.714" y2="16.034"/>
				
					<line fill="none" stroke="#FFFFFF" stroke-width="2" stroke-miterlimit="10" x1="492.618" y1="159.616" x2="355.376" y2="22.373"/>
				
					<line fill="none" stroke="#FFFFFF" stroke-width="2" stroke-miterlimit="10" x1="486.281" y1="165.953" x2="349.039" y2="28.71"/>
				
					<line fill="none" stroke="#FFFFFF" stroke-width="2" stroke-miterlimit="10" x1="479.944" y1="172.291" x2="342.701" y2="35.047"/>
				
					<line fill="none" stroke="#FFFFFF" stroke-width="2" stroke-miterlimit="10" x1="473.604" y1="178.629" x2="336.362" y2="41.386"/>
				
					<line fill="none" stroke="#FFFFFF" stroke-width="2" stroke-miterlimit="10" x1="467.268" y1="184.967" x2="330.025" y2="47.724"/>
				
					<line fill="none" stroke="#FFFFFF" stroke-width="2" stroke-miterlimit="10" x1="460.931" y1="191.304" x2="323.687" y2="54.061"/>
				
					<line fill="none" stroke="#FFFFFF" stroke-width="2" stroke-miterlimit="10" x1="454.591" y1="197.644" x2="317.349" y2="60.4"/>
				
					<line fill="none" stroke="#FFFFFF" stroke-width="2" stroke-miterlimit="10" x1="448.254" y1="203.98" x2="311.011" y2="66.738"/>
				
					<line fill="none" stroke="#FFFFFF" stroke-width="2" stroke-miterlimit="10" x1="441.915" y1="210.318" x2="304.672" y2="73.075"/>
				
					<line fill="none" stroke="#FFFFFF" stroke-width="2" stroke-miterlimit="10" x1="435.577" y1="216.657" x2="298.335" y2="79.414"/>
				
					<line fill="none" stroke="#FFFFFF" stroke-width="2" stroke-miterlimit="10" x1="429.24" y1="222.995" x2="291.997" y2="85.751"/>
				
					<line fill="none" stroke="#FFFFFF" stroke-width="2" stroke-miterlimit="10" x1="422.9" y1="229.333" x2="285.658" y2="92.091"/>
				
					<line fill="none" stroke="#FFFFFF" stroke-width="2" stroke-miterlimit="10" x1="416.563" y1="235.671" x2="279.321" y2="98.428"/>
				
					<line fill="none" stroke="#FFFFFF" stroke-width="2" stroke-miterlimit="10" x1="410.227" y1="242.008" x2="272.982" y2="104.765"/>
				
					<line fill="none" stroke="#FFFFFF" stroke-width="2" stroke-miterlimit="10" x1="403.888" y1="248.348" x2="266.645" y2="111.104"/>
				
					<line fill="none" stroke="#FFFFFF" stroke-width="2" stroke-miterlimit="10" x1="397.55" y1="254.685" x2="260.307" y2="117.442"/>
			</g>
		</g>
		<path fill="#717071" stroke="#FFFFFF" stroke-width="3" stroke-miterlimit="10" d="M449.54,148.014
			c0,35.049-28.412,63.463-63.459,63.463c-35.05,0-63.458-28.414-63.458-63.463c0-35.046,28.408-63.462,63.458-63.462
			C421.128,84.552,449.54,112.967,449.54,148.014z"/>
		<path fill="#231815" stroke="#FFFFFF" stroke-width="3" stroke-miterlimit="10" d="M434.212,148.014
			c0,26.584-21.548,48.135-48.131,48.135c-26.584,0-48.13-21.551-48.13-48.135c0-26.581,21.546-48.134,48.13-48.134
			C412.664,99.88,434.212,121.433,434.212,148.014z"/>
		<g>
			<circle fill="#231815" stroke="#FFFFFF" stroke-width="3" stroke-miterlimit="10" cx="390.709" cy="172.861" r="22.154"/>
			<circle fill="#231815" stroke="#FFFFFF" stroke-width="3" stroke-miterlimit="10" cx="390.709" cy="172.861" r="14.246"/>
		</g>
		<g>
			<circle fill="#231815" stroke="#FFFFFF" stroke-width="3" stroke-miterlimit="10" cx="361.925" cy="138.527" r="22.154"/>
			<circle fill="#231815" stroke="#FFFFFF" stroke-width="3" stroke-miterlimit="10" cx="361.925" cy="138.527" r="14.246"/>
		</g>
		<g>
			<circle fill="#231815" stroke="#FFFFFF" stroke-width="3" stroke-miterlimit="10" cx="406.232" cy="130.62" r="22.153"/>
			<circle fill="#231815" stroke="#FFFFFF" stroke-width="3" stroke-miterlimit="10" cx="406.231" cy="130.62" r="14.246"/>
		</g>
		<g>
			<g>
				<path fill="#FFFFFF" d="M547.239,59.615V45.116c0-0.459,0.229-0.714,0.714-0.714h15.723c0.51,0,0.739,0.255,0.739,0.714v14.499
					h2.904v1.988h-23.138v-1.988H547.239z M544.36,64.967c2.446-0.332,4.791-1.274,6.982-2.803l1.223,1.784
					c-2.752,1.81-5.249,2.854-7.415,3.109L544.36,64.967z M549.405,48.174h12.844V46.67c0-0.204-0.077-0.306-0.306-0.306h-12.258
					c-0.203,0-0.28,0.102-0.28,0.306V48.174z M549.405,52.149h12.844v-2.013h-12.844V52.149z M549.405,55.844h12.844v-1.708h-12.844
					V55.844z M549.405,59.615h12.844v-1.809h-12.844V59.615z M566.377,67.158c-2.981-1.376-5.402-2.293-7.339-2.777l0.739-2.064
					c2.166,0.51,4.612,1.453,7.415,2.803L566.377,67.158z"/>
				<path fill="#FFFFFF" d="M576.97,62.189v4.765h-2.166V53.219l-0.611,0.459c-1.121,0.815-2.294,1.58-3.567,2.242l-1.401-1.911
					c3.439-1.707,6.269-3.899,8.485-6.549h-8.053v-2.166h9.581l1.224-1.988l1.937,1.198l-0.484,0.79h10.779v2.166h-12.231
					c-0.815,1.096-1.707,2.166-2.65,3.109h12.334c0.382,0,0.561,0.178,0.561,0.535v13.327c0,0.866-0.306,2.599-3.517,2.599
					c-0.994,0-2.191-0.178-3.567-0.484v-2.42c1.452,0.433,2.573,0.637,3.338,0.637c1.503,0,1.58-1.019,1.58-1.197v-1.376H576.97z
					 M576.97,55.334h11.569v-2.421c0-0.127-0.077-0.178-0.204-0.178h-11.212c-0.128,0-0.153,0.051-0.153,0.178V55.334z
					 M576.97,60.023h11.569V57.5H576.97V60.023z"/>
				<path fill="#FFFFFF" d="M599.438,59.667c0.917,1.223,2.115,2.242,3.567,3.007c1.504-0.943,2.421-2.319,2.676-4.077h-8.689
					c-0.204,0-0.306-0.077-0.306-0.28v-9.734c0-0.204,0.102-0.306,0.306-0.306h8.843v-1.911h-10.193v-2.166h22.118v2.166H608v1.911
					h8.46c0.203,0,0.306,0.102,0.306,0.306v9.734c0,0.204-0.103,0.28-0.306,0.28h-8.613c-0.356,2.013-1.197,3.695-2.472,5.02
					c2.191,0.535,5.147,0.815,8.842,0.79h4.077l-0.637,2.37h-2.548l-2.829-0.102c-3.567-0.204-6.6-0.713-9.097-1.554
					c-1.962,0.841-4.408,1.478-7.263,1.886l-0.765-2.396c1.886-0.102,3.695-0.382,5.453-0.841c-0.993-0.739-1.911-1.682-2.752-2.854
					L599.438,59.667z M605.834,52.557v-2.319h-6.906c-0.076,0-0.102,0.026-0.076,0.102v2.217H605.834z M605.834,56.634v-2.115
					h-6.982v1.988c-0.025,0.076,0,0.102,0.076,0.127H605.834z M608,50.238v2.319h6.6V50.34c0-0.076-0.025-0.102-0.103-0.102H608z
					 M608,54.519v2.115h6.497l0.103-0.127v-1.988H608z"/>
				<path fill="#FFFFFF" d="M631.13,45.142v-1.784h2.141v1.784h10.371v2.064h-23.036v-2.064H631.13z M638.469,64.534
					c0,0.127-0.025,0.204-0.102,0.254c0.535,0.127,0.968,0.179,1.299,0.179c1.07,0,1.096-1.02,1.096-1.121v-6.371
					c0-0.102-0.051-0.153-0.152-0.153h-16.92c-0.103,0-0.153,0.051-0.153,0.153v9.479h-2.166V55.87c0-0.357,0.179-0.535,0.51-0.535
					h20.538c0.357,0,0.51,0.178,0.51,0.535v8.868c0,0.586-0.152,2.446-2.904,2.446c-0.739,0-1.605-0.102-2.625-0.331l-0.051-2.013
					h-11.238c-0.178,0-0.28-0.102-0.28-0.306v-5.479c0-0.178,0.103-0.28,0.28-0.28h12.054c0.204,0,0.306,0.102,0.306,0.28V64.534z
					 M640.253,53.984c0,0.204-0.103,0.306-0.307,0.306h-15.62c-0.179,0-0.28-0.102-0.28-0.306v-5.071c0-0.179,0.102-0.28,0.28-0.28
					h15.62c0.204,0,0.307,0.102,0.307,0.28V53.984z M638.087,50.595c0-0.076-0.026-0.102-0.103-0.102h-11.696
					c-0.076,0-0.102,0.026-0.076,0.102v1.682c-0.025,0.077,0,0.102,0.076,0.127h11.696l0.103-0.127V50.595z M636.404,60.66h-8.511
					c-0.076,0-0.102,0-0.076,0.051v2.141l0.076,0.102h8.511l0.077-0.102v-2.141L636.404,60.66z"/>
				<path fill="#FFFFFF" d="M648.807,65.629v1.146h-2.166V47.129c-0.025-0.229,0.103-0.332,0.357-0.332h2.624l1.121-3.338
					l2.014,0.739l-0.866,2.599h3.797c0.331,0,0.483,0.127,0.483,0.433v19.545h-2.166v-1.146H648.807z M648.807,55.258h5.198v-6.014
					c0-0.204-0.102-0.28-0.331-0.28h-4.562c-0.229,0-0.331,0.077-0.306,0.28V55.258z M654.005,57.424h-5.198v6.04h5.198V57.424z
					 M660.121,48.25c-0.434,1.58-1.045,2.905-1.707,3.975l-2.115-0.713c1.427-2.396,2.318-5.02,2.522-7.823l2.141,0.204
					l-0.306,2.166h7.236c0.587,0.127,0.79,0.178,0.79,1.249c0,3.771-0.051,7.059-0.152,9.989c-0.128,4.816-1.096,7.798-2.88,8.894
					c-0.484,0.356-1.197,0.51-2.115,0.51c-1.197,0-2.752-0.281-4.638-0.841v-2.548c1.886,0.662,3.364,0.994,4.357,0.994
					c0.969,0,1.631-0.204,2.523-2.191c0.637-1.758,0.764-7.237,0.764-11.365c0-1.707,0-2.497-0.382-2.497H660.121z M662.517,60.431
					c-0.765-2.956-1.759-5.682-2.956-8.205l2.038-0.688c1.428,3.593,2.472,6.371,2.981,8.333L662.517,60.431z"/>
				<path fill="#FFFFFF" d="M671.147,65.094c2.446-0.943,3.211-1.733,3.542-3.44V57.22c0-0.204-0.077-0.306-0.255-0.306h-2.446
					v-2.166h4.332c0.382,0,0.535,0.178,0.535,0.561v5.988c0.102,0.484,0.382,1.019,0.866,1.529c0.382,0.586,1.58,1.86,5.045,1.86
					c4.052,0,9.098-0.127,12.104-0.255l-0.561,2.421L682.283,66.7c-3.135-0.179-5.225-1.172-6.243-2.931
					c-0.383,0.917-2.064,2.701-3.848,3.287L671.147,65.094z M675.581,53.423c-1.656-1.172-3.032-2.013-4.128-2.498l1.07-1.911
					c1.273,0.586,2.676,1.427,4.255,2.574L675.581,53.423z M676.447,48.556c-1.732-1.274-3.134-2.191-4.307-2.752l1.122-1.86
					c1.324,0.637,2.777,1.555,4.408,2.803L676.447,48.556z M685.392,61.501h-6.753v-1.962h6.753v-1.376h-5.988
					c-0.179,0-0.28-0.102-0.28-0.306v-9.25c0-0.178,0.102-0.28,0.28-0.28h5.988v-1.478h-6.65v-1.962h6.65v-1.249h2.064v1.249h6.523
					v1.962h-6.523v1.478h5.784c0.204,0,0.306,0.102,0.306,0.28v9.25c0,0.204-0.102,0.306-0.306,0.306h-5.784v1.376h7.033v1.962
					h-7.033v2.37h-2.064V61.501z M685.392,52.302v-2.115h-4.128c-0.076,0-0.102,0.025-0.076,0.077v2.039H685.392z M685.392,56.303
					v-2.115h-4.204v2.013l0.076,0.102H685.392z M687.456,50.187v2.115h4.026v-2.039l-0.103-0.077H687.456z M687.456,54.188v2.115
					h3.924l0.103-0.102v-2.013H687.456z"/>
				<path fill="#FFFFFF" d="M699.985,56.048l-2.777,0.433c-0.128-0.561-0.28-1.172-0.561-1.885l1.427-0.255
					c0.663-0.739,1.351-1.708,2.09-2.88c-1.146-1.121-2.319-2.039-3.517-2.701l0.968-1.733l0.739,0.458
					c0.586-1.274,1.146-2.65,1.682-4.153l1.784,0.815c-0.383,1.121-1.045,2.625-2.014,4.459l1.3,1.122
					c0.586-1.274,1.045-2.498,1.3-3.695l1.937,0.484c-0.356,1.937-1.656,4.434-3.822,7.39l2.115-0.382l-0.408-1.402l1.708-0.484
					c0.458,1.274,0.841,2.829,1.121,4.714l-1.733,0.357l-0.229-1.223l-1.147,0.229V66.98h-1.962V56.048z M696.698,65.477
					c0.611-3.16,0.892-5.734,0.866-7.696l1.86,0.153c0.025,2.191-0.255,4.791-0.866,7.797L696.698,65.477z M703.4,64.33
					c-0.128-2.293-0.459-4.434-0.918-6.345l1.86-0.229c0.459,2.599,0.79,4.765,0.918,6.472L703.4,64.33z M704.547,65.222
					c2.268-0.204,4.052-0.484,5.325-0.892l0.562,1.886c-1.529,0.484-3.44,0.815-5.734,0.968L704.547,65.222z M719.861,54.825
					c0,0.178-0.076,0.255-0.255,0.255h-14.04c-0.128,0-0.204-0.077-0.204-0.255v-5.376c0-0.153,0.076-0.229,0.204-0.229h14.04
					c0.179,0,0.255,0.076,0.255,0.229V54.825z M711.631,46.925v-0.968h-6.142v-1.555h6.142V43.46h1.962v0.942h5.759v1.555h-5.759
					v0.968h5.275v1.478h-12.461v-1.478H711.631z M719.275,63.871c0,0.178-0.076,0.255-0.255,0.255h-12.639
					c-0.153,0-0.229-0.077-0.229-0.255v-7.849c0-0.153,0.076-0.229,0.229-0.229h12.639c0.179,0,0.255,0.077,0.255,0.229V63.871z
					 M714.128,52.99c-0.459,0-0.713-0.255-0.713-0.765v-1.529h-1.529l-0.28,0.764c-0.611,0.994-1.835,1.657-3.645,1.86l-0.535-1.503
					c1.377-0.102,2.294-0.484,2.753-1.07v-0.051h-3.007l-0.052,0.076V53.5l0.052,0.102h10.854c0.077-0.102,0.077-0.153,0.077-0.611
					H714.128z M708.114,58.291h9.174v-0.943l-0.077-0.077h-9.046l-0.051,0.077V58.291z M708.114,60.584h9.174v-1.02h-9.174V60.584z
					 M717.288,61.833h-9.174c0,0.663,0,0.739,0.051,0.841h9.046l0.077-0.102V61.833z M719.76,67.184
					c-2.191-0.535-3.95-0.841-5.326-0.866l0.103-1.962c1.579,0.051,3.517,0.357,5.733,0.917L719.76,67.184z M715.173,50.697
					c0,0.892,0,1.019,0.434,1.019h2.497v-0.943l-0.077-0.076H715.173z"/>
				<path fill="#FFFFFF" d="M724.849,54.29l-0.714,1.07l-2.063-0.841c2.344-3.389,3.745-7.109,4.255-11.085l2.141,0.332
					c-0.407,2.268-0.866,4.23-1.452,5.861v17.149h-2.166V54.29z M745.693,66.98c-5.225-0.077-9.021-0.663-11.34-1.657
					c-1.3,0.79-3.186,1.427-5.632,1.81l-0.994-2.166c1.274-0.077,3.236-0.408,4.46-0.968c-1.249-1.02-2.421-2.345-3.517-3.95
					l1.656-1.351c1.3,1.962,2.573,3.313,3.721,4.103c1.096-1.096,1.682-2.803,1.732-5.045h-6.753c-0.204,0-0.28-0.102-0.28-0.306
					v-7.517c0-0.204,0.076-0.306,0.28-0.306h6.778v-2.319h-7.109v-2.064h7.109v-1.733h2.166v1.733h7.568v2.064h-7.568v2.319h6.829
					c0.229,0,0.331,0.102,0.331,0.306v7.517c0,0.204-0.102,0.306-0.331,0.306h-6.854c-0.051,2.472-0.662,4.485-1.81,6.039
					c1.683,0.459,4.129,0.713,7.313,0.713c0.79,0,1.656-0.025,2.549-0.051L745.693,66.98z M735.806,55.691V51.69h-4.842
					c-0.076,0-0.076,0.051-0.051,0.102v3.771c-0.025,0.076,0,0.102,0.051,0.127H735.806z M737.972,51.69v4.001h4.893l0.102-0.127
					v-3.771c0-0.077-0.025-0.102-0.102-0.102H737.972z"/>
				<path fill="#FFFFFF" d="M751.903,59.412c-0.434,2.625-1.096,5.045-1.988,7.135l-2.268-0.662
					c1.427-3.695,2.242-7.008,2.293-9.862V44.938c0-0.408,0.204-0.637,0.638-0.637h18.347c0.459,0,0.688,0.229,0.688,0.663v19.163
					c0,2.777-2.37,2.777-3.211,2.777c-0.892,0-1.987-0.102-3.287-0.306l-0.076-2.498c1.427,0.382,2.497,0.586,3.21,0.586
					c0.79,0,1.198-0.204,1.198-1.223v-4.052h-6.804v6.854h-2.141v-6.854H751.903z M752.081,57.246h6.422v-4.408h-6.422V57.246z
					 M758.503,50.671v-4.205h-6.142c-0.178,0-0.255,0.102-0.255,0.28v3.924H758.503z M760.644,46.467v4.205h6.804v-3.924
					c0-0.179-0.103-0.28-0.28-0.28H760.644z M760.644,57.246h6.804v-4.408h-6.804V57.246z"/>
				<path fill="#FFFFFF" d="M547.749,86.675c-1.528-1.376-2.854-2.396-3.924-3.007l1.274-1.758c1.197,0.688,2.573,1.708,4.052,3.083
					L547.749,86.675z M543.901,97.989c1.682-2.981,2.6-6.141,2.752-9.454l2.166,0.153c-0.306,4.077-1.223,7.416-2.676,9.989
					L543.901,97.989z M548.335,80.916c-1.528-1.427-2.854-2.472-3.949-3.134l1.325-1.758c1.223,0.765,2.573,1.835,4.026,3.211
					L548.335,80.916z M550.476,96.485v-7.874c0-0.459,0.204-0.688,0.688-0.688h14.576c0.483,0,0.713,0.229,0.713,0.688v7.874h1.249
					v1.962h-19.035v-1.962H550.476z M565.867,86.318c0,0.178-0.102,0.28-0.306,0.28h-14.219c-0.179,0-0.28-0.102-0.28-0.28v-9.76
					c0-0.178,0.102-0.28,0.28-0.28h14.219c0.204,0,0.306,0.102,0.306,0.28V86.318z M552.54,96.485h2.396v-6.6h-2.115
					c-0.204,0-0.28,0.102-0.28,0.306V96.485z M561.892,84.279c-1.07-0.968-2.395-2.039-3.949-3.186
					c-0.765,1.147-1.605,2.141-2.472,2.956l-1.529-1.274c1.401-1.121,2.548-2.65,3.39-4.536h-4.129
					c-0.076,0-0.102,0.026-0.076,0.077v6.218l0.076,0.102h10.499l0.102-0.102v-6.218l-0.102-0.077h-4.383l-0.561,1.376
					c1.452,0.942,2.905,1.987,4.307,3.108L561.892,84.279z M556.999,96.485h2.625v-6.6h-2.625V96.485z M561.688,96.485h2.701v-6.32
					c0-0.178-0.103-0.28-0.28-0.28h-2.421V96.485z"/>
				<path fill="#FFFFFF" d="M576.18,83.464h-2.752v6.09c0,3.415-0.765,6.421-2.217,8.918l-1.937-0.841
					c1.682-3.032,2.038-4.943,2.09-8.715V77.705c0-0.382,0.203-0.586,0.561-0.586h8.638v-1.682h2.166v1.682h9.505v2.064h-3.72V81.4
					h3.669v2.064h-3.669v2.956c0,0.688-0.357,1.019-1.02,1.019h-10.32c-0.663,0-0.994-0.331-0.994-1.019V83.464z M591.902,99.135
					c-3.567-0.586-6.677-1.401-9.301-2.395c-3.007,1.197-6.091,2.039-9.199,2.472l-0.714-2.141c3.262-0.408,5.173-0.815,7.364-1.503
					c-1.682-0.815-3.159-1.708-4.51-2.574l0.765-2.064c2.141,1.554,4.255,2.752,6.294,3.593c3.363-1.758,4.918-3.593,4.918-3.72
					c0-0.102-0.179-0.077-0.28-0.077h-12.308v-2.064h14.295l1.504,1.249c-1.146,2.115-3.058,3.976-5.632,5.555
					c2.421,0.663,5.02,1.172,7.798,1.453L591.902,99.135z M576.18,81.4v-2.217h-2.472c-0.179,0-0.28,0.102-0.28,0.28V81.4H576.18z
					 M586.348,81.4v-2.217h-8.002V81.4H586.348z M585.99,85.375c0.229,0,0.357-0.102,0.357-0.331v-1.58h-8.002v1.58
					c0,0.229,0.128,0.331,0.356,0.331H585.99z"/>
				<path fill="#FFFFFF" d="M606.827,97.071h-11.671v-1.809l2.014-2.115c4.052-4.153,6.294-6.804,6.294-9.683
					c0-1.86-0.892-3.491-3.313-3.491c-1.479,0-2.804,0.79-3.695,1.503l-0.892-2.115c1.172-0.968,3.032-1.784,5.173-1.784
					c3.949,0,5.683,2.675,5.683,5.581c0,3.517-2.396,6.447-5.733,9.811l-1.58,1.605v0.051h7.721V97.071z"/>
				<path fill="#FFFFFF" d="M612.251,86.496c0.892-1.121,2.318-1.987,4.179-1.987c3.083,0,5.325,2.319,5.325,6.09
					c0,3.568-2.268,6.753-6.064,6.753c-4.077,0-6.473-3.338-6.473-8.104c0-3.746,1.249-6.727,3.084-8.664
					c1.987-2.09,4.994-2.981,7.695-2.981l0.025,2.344c-5.453,0-7.415,3.72-7.823,6.549H612.251z M618.8,90.777
					c0-2.498-1.274-4.154-3.287-4.154c-1.708,0-3.364,1.605-3.364,3.338c0.051,3.007,1.3,5.173,3.542,5.173
					C617.627,95.135,618.8,93.3,618.8,90.777z"/>
				<path fill="#FFFFFF" d="M623.561,87.516c0-6.269,2.37-9.938,6.346-9.938c4.052,0,6.09,3.924,6.09,9.734
					c0,6.498-2.344,10.04-6.294,10.04C625.701,97.352,623.561,93.402,623.561,87.516z M633.015,87.414
					c0-4.562-0.968-7.492-3.211-7.492c-1.937,0-3.262,2.701-3.262,7.492c0,4.765,1.173,7.568,3.211,7.568
					C632.25,94.982,633.015,91.389,633.015,87.414z"/>
				<path fill="#FFFFFF" d="M641.139,81.604c-1.554,0-2.573-1.096-2.573-2.522c0-1.376,0.994-2.574,2.573-2.574
					c1.274,0,2.498,0.994,2.498,2.548C643.637,80.278,642.643,81.604,641.139,81.604z M641.139,77.552
					c-0.892,0-1.528,0.637-1.528,1.529c0,0.815,0.688,1.478,1.528,1.478c0.893,0,1.453-0.739,1.453-1.503
					C642.592,78.214,641.98,77.552,641.139,77.552z M660.403,90.217c-1.732,4.561-4.612,5.988-7.517,5.988
					c-7.263,0-8.129-5.785-8.129-8.511c0-2.854,0.79-5.071,2.421-6.651c1.605-1.605,3.363-2.396,5.224-2.396
					c2.013,0,3.669,0.408,4.969,1.274c1.325,0.866,2.217,1.937,2.752,3.21l-1.732,1.402c-0.586-1.376-2.039-3.669-5.504-3.669
					c-2.115,0-5.912,1.198-5.912,6.982c0,2.752,1.605,6.141,5.912,6.141c1.172,0,2.268-0.382,3.262-1.172
					c0.942-0.739,1.707-1.962,2.268-3.619L660.403,90.217z"/>
				<path fill="#FFFFFF" d="M672.78,92.357c0.535-1.631,1.096-4.153,1.351-5.988l3.466-0.331c-0.663,2.115-1.732,4.74-2.6,6.09
					L672.78,92.357z"/>
				<path fill="#FFFFFF" d="M696.854,96.383V81.935h-7.109v-2.166h6.243c-0.714-1.325-1.376-2.345-1.962-3.058l1.809-1.198
					c0.714,0.867,1.479,2.013,2.217,3.415l-1.401,0.841h6.778c0.943-1.708,1.605-3.109,2.039-4.281l1.987,0.892
					c-0.356,1.019-0.841,2.166-1.504,3.389h5.505v2.166h-7.059v14.448h7.466v2.166h-22.628v-2.166H696.854z M692.93,93.988
					c-0.943-3.848-1.938-6.88-2.956-9.046l2.038-0.739c1.173,2.396,2.166,5.453,3.007,9.174L692.93,93.988z M699.02,96.383h3.211
					V81.935h-3.211V96.383z M706.18,93.427c1.479-3.848,2.396-6.982,2.804-9.428l2.114,0.535c-0.458,2.752-1.401,5.937-2.828,9.556
					L706.18,93.427z"/>
				<path fill="#FFFFFF" d="M716.85,88.509v-6.294h-2.446v-2.166h2.446v-4.332h2.166v4.332h2.089v2.166h-2.089v5.173l1.58-0.968
					l1.146,1.834c-1.096,0.79-2.014,1.325-2.727,1.58v6.829c0,1.019-0.586,2.421-2.141,2.421c-0.663,0-1.529-0.178-2.574-0.51
					l0.128-2.268c0.662,0.28,1.529,0.637,1.886,0.637c0.306,0,0.535-0.306,0.535-0.866v-5.122l-1.58,0.713l-1.121-1.86
					L716.85,88.509z M721.946,96.434c1.019-0.663,2.013-1.631,2.879-2.879l-4.535,0.892c-0.128-0.586-0.332-1.198-0.612-1.86
					l1.58-0.331c0.765-0.994,1.58-2.268,2.446-3.823c-1.223-1.478-2.522-2.675-3.848-3.618l1.121-1.631l0.892,0.713
					c0.484-1.223,0.943-2.548,1.351-3.95l1.835,0.713c-0.331,1.122-0.917,2.625-1.758,4.562l1.273,1.299
					c0.638-1.554,1.096-3.058,1.351-4.459l1.937,0.331c-0.407,2.574-1.809,5.708-4.229,9.352l2.063-0.408l0.408-1.962l1.911,0.306
					v0.255l-0.943,3.593c-0.942,2.293-2.879,4.23-5.759,5.708l-1.452-1.733L721.946,96.434z M728.112,77.374v-1.656h2.166v1.656
					h7.467v1.962h-16.462v-1.962H728.112z M735.196,96.485h2.676v1.962h-8.307c-0.459,0-0.714-0.255-0.714-0.739v-10.32
					l-0.662,1.019c-0.587-0.586-1.096-0.994-1.58-1.198c1.554-2.089,2.548-4.561,2.931-7.364l2.013,0.51
					c-0.179,0.866-0.434,1.758-0.765,2.701h2.497c0.484-1.172,0.841-2.166,1.02-3.007l1.886,0.637l-0.739,2.37h2.345l-0.179,1.962
					h-2.421v2.498h2.549v1.987h-2.549V92h2.549v1.962h-2.549V96.485z M733.133,87.516v-2.498h-1.911
					c-0.204,0-0.306,0.102-0.306,0.28v2.217H733.133z M733.133,92v-2.498h-2.217V92H733.133z M733.133,96.485v-2.523h-2.217v2.217
					c0,0.204,0.102,0.306,0.306,0.306H733.133z"/>
				<path fill="#FFFFFF" d="M747.293,94.268v4.765h-2.166V85.298l-0.611,0.459c-1.121,0.815-2.294,1.58-3.567,2.242l-1.401-1.911
					c3.439-1.707,6.269-3.899,8.485-6.549h-8.053v-2.166h9.581l1.224-1.988l1.937,1.198l-0.484,0.79h10.779v2.166h-12.231
					c-0.815,1.096-1.707,2.166-2.65,3.109h12.334c0.382,0,0.561,0.178,0.561,0.535v13.327c0,0.866-0.306,2.599-3.517,2.599
					c-0.994,0-2.191-0.178-3.567-0.484v-2.42c1.452,0.433,2.573,0.637,3.338,0.637c1.503,0,1.58-1.019,1.58-1.197v-1.376H747.293z
					 M747.293,87.414h11.569v-2.421c0-0.127-0.077-0.178-0.204-0.178h-11.212c-0.128,0-0.153,0.051-0.153,0.178V87.414z
					 M747.293,92.102h11.569V89.58h-11.569V92.102z"/>
				<path fill="#FFFFFF" d="M548.488,123.825c0.917,1.223,2.115,2.242,3.567,3.007c1.504-0.943,2.421-2.319,2.676-4.077h-8.689
					c-0.204,0-0.306-0.077-0.306-0.28v-9.734c0-0.204,0.102-0.306,0.306-0.306h8.843v-1.911h-10.193v-2.166h22.118v2.166h-9.759
					v1.911h8.46c0.203,0,0.306,0.102,0.306,0.306v9.734c0,0.204-0.103,0.28-0.306,0.28h-8.613c-0.356,2.013-1.197,3.695-2.472,5.02
					c2.191,0.535,5.147,0.815,8.842,0.79h4.077l-0.637,2.37h-2.548l-2.829-0.102c-3.567-0.204-6.6-0.713-9.097-1.554
					c-1.962,0.841-4.408,1.478-7.263,1.886l-0.765-2.396c1.886-0.102,3.695-0.382,5.453-0.841c-0.993-0.739-1.911-1.682-2.752-2.854
					L548.488,123.825z M554.885,116.715v-2.319h-6.906c-0.076,0-0.102,0.026-0.076,0.102v2.217H554.885z M554.885,120.792v-2.115
					h-6.982v1.988c-0.025,0.076,0,0.102,0.076,0.127H554.885z M557.051,114.396v2.319h6.6v-2.217c0-0.076-0.025-0.102-0.103-0.102
					H557.051z M557.051,118.677v2.115h6.497l0.103-0.127v-1.988H557.051z"/>
				<path fill="#FFFFFF" d="M572.077,121.378v0.382l-2.166-0.102v-7.339c0-0.306,0.128-0.357,0.51-0.484h4.562v-3.185
					c0-0.229-0.103-0.332-0.331-0.332h-4.715v-2.166h6.854c0.229,0,0.357,0.127,0.357,0.356v7.747h-2.166v-0.255h-2.574
					l-0.229,0.077l-0.102,0.229v2.727h4.511c0.356,0.025,0.51,0.204,0.51,0.509c0,4.714-0.128,8.078-0.204,8.664
					c-0.28,2.293-2.574,2.65-3.338,2.65c-0.79,0-1.963-0.255-3.491-0.688l-0.077-2.37c1.479,0.484,2.65,0.713,3.466,0.713
					c0.994,0,1.274-0.331,1.427-0.866c0.128-0.408,0.179-2.421,0.204-6.04c0-0.153-0.127-0.254-0.306-0.229H572.077z
					 M590.348,129.66l-12.257,1.325l-0.382-2.141l6.447-0.688v-3.695h-5.657c-0.179,0-0.28-0.102-0.28-0.306v-7.466
					c0-0.178,0.102-0.28,0.28-0.28h5.657v-2.217l-5.836,0.408l-0.51-2.115l2.676-0.153c0.765-1.452,1.478-3.058,2.064-4.765
					l1.937,0.765c-0.331,1.044-0.893,2.344-1.605,3.848l6.37-0.357l-1.656-2.395l1.708-1.07c1.682,2.293,2.98,4.255,3.796,5.835
					l-1.783,0.994l-0.815-1.427l-4.179,0.306v2.344h5.427c0.179,0,0.281,0.102,0.281,0.28v7.466c0,0.204-0.103,0.306-0.281,0.306
					h-5.427v3.465l3.108-0.331l-0.917-1.86l1.987-0.841c1.3,2.727,2.115,4.612,2.446,5.631l-2.039,0.688L590.348,129.66z
					 M584.156,122.5v-4.103h-3.797c-0.077,0-0.103,0.025-0.077,0.051v3.95l0.077,0.102H584.156z M586.322,118.397v4.103h3.542
					l0.102-0.102v-3.95l-0.102-0.051H586.322z"/>
				<path fill="#FFFFFF" d="M597.857,129.788v1.146h-2.166v-19.646c-0.025-0.229,0.103-0.332,0.357-0.332h2.624l1.121-3.338
					l2.014,0.739l-0.866,2.599h3.797c0.331,0,0.483,0.127,0.483,0.433v19.545h-2.166v-1.146H597.857z M597.857,119.416h5.198v-6.014
					c0-0.204-0.102-0.28-0.331-0.28h-4.562c-0.229,0-0.331,0.077-0.306,0.28V119.416z M603.056,121.582h-5.198v6.04h5.198V121.582z
					 M609.172,112.409c-0.434,1.58-1.045,2.905-1.707,3.975l-2.115-0.713c1.427-2.396,2.318-5.02,2.522-7.823l2.141,0.204
					l-0.306,2.166h7.236c0.587,0.127,0.79,0.178,0.79,1.249c0,3.771-0.051,7.059-0.152,9.989c-0.128,4.816-1.096,7.798-2.88,8.894
					c-0.484,0.356-1.197,0.51-2.115,0.51c-1.197,0-2.752-0.281-4.638-0.841v-2.548c1.886,0.662,3.364,0.994,4.357,0.994
					c0.969,0,1.631-0.204,2.523-2.191c0.637-1.758,0.764-7.237,0.764-11.365c0-1.707,0-2.497-0.382-2.497H609.172z M611.567,124.589
					c-0.765-2.956-1.759-5.682-2.956-8.205l2.038-0.688c1.428,3.593,2.472,6.371,2.981,8.333L611.567,124.589z"/>
				<path fill="#FFFFFF" d="M627.435,125.175v-7.976h-4.459v13.812h-2.064v-22.017c0-0.306,0.179-0.484,0.51-0.484h13.685
					c0.331,0,0.509,0.178,0.509,0.484v19.749c0,1.554-1.07,2.421-3.185,2.421c-0.841,0-1.835-0.127-3.007-0.408v-2.293
					c1.223,0.382,2.166,0.561,2.803,0.561c1.197,0,1.325-0.841,1.325-1.096v-10.728h-4.357v7.976h1.121
					c0.204,0,0.306-0.102,0.306-0.306v-6.676h1.759v7.874c0,0.586-0.28,0.867-0.867,0.867h-6.421c-0.561,0-0.841-0.28-0.841-0.867
					v-7.874h1.758v6.676c0,0.204,0.102,0.306,0.28,0.306H627.435z M632.327,112.001c-0.255,0.968-0.662,2.064-1.197,3.236h2.421
					v-4.511c0-0.102-0.051-0.153-0.179-0.153h-10.244c-0.102,0-0.152,0.051-0.152,0.153v4.511h5.963
					c0.739-1.58,1.248-2.88,1.529-3.95L632.327,112.001z M625.728,115.008c-0.407-1.07-0.841-2.013-1.274-2.803l1.784-0.739
					c0.51,0.917,0.969,1.911,1.325,2.93L625.728,115.008z M637.348,109.198h2.063v16.461h-2.063V109.198z M640.915,107.796h2.064
					v20.997c0,0.306,0,2.37-2.473,2.37c-0.764,0-1.758-0.127-2.93-0.433l0.051-2.141l1.555,0.458
					c0.28,0.051,0.535,0.077,0.764,0.077c0.739,0,0.969-0.204,0.969-0.867V107.796z"/>
				<path fill="#FFFFFF" d="M648.654,112.638l0.433-1.911h-2.369v-1.784h2.675l0.204-1.401l1.911,0.382l-0.178,1.019h4.51
					c0.331,0,0.484,0.179,0.484,0.51v3.185h1.529v1.758H645.8v-1.758H648.654z M652.502,127.851h-6.6v-1.962h1.631v-1.886h-1.351
					v-1.86h6.319v-1.376h-5.606c-0.178,0-0.255-0.102-0.255-0.255v-4.638c0-0.178,0.077-0.255,0.255-0.255h9.785
					c0.179,0,0.28,0.077,0.28,0.255v4.638c0,0.153-0.102,0.255-0.28,0.255h-2.191v1.376h2.574v1.86h-2.574v1.886h2.981v1.962h-2.981
					v3.288h-1.987V127.851z M654.897,117.377h-6.218c-0.077,0-0.103,0.026-0.077,0.077v1.453l0.077,0.102h6.218l0.102-0.102v-1.453
					L654.897,117.377z M652.502,125.889v-1.886h-3.007v1.886H652.502z M650.642,112.638h3.618v-1.656
					c0-0.153-0.076-0.255-0.255-0.255h-2.955L650.642,112.638z M661.931,110.37h-3.568v-2.09h9.505l0.434,0.102
					c0.204,0.153,0.331,0.535,0.331,1.096l-0.102,11.034c-0.076,5.326-0.714,8.588-1.911,9.785
					c-0.383,0.434-1.096,0.637-2.115,0.637c-0.714,0-1.529-0.102-2.522-0.28l-0.357-2.396c1.147,0.229,2.039,0.332,2.65,0.332
					c0.969,0,1.401,0,1.911-2.548c0.331-2.115,0.356-5.376,0.356-11.391c0-2.65-0.025-4.026-0.076-4.128s-0.127-0.153-0.255-0.153
					h-2.217v4.128c-0.127,6.88-2.522,13.582-4.739,16.309l-2.141-0.663c3.262-4.586,4.842-9.811,4.816-15.646V110.37z
					 M657.854,120.919c0.713-2.956,1.069-5.351,1.121-7.16l1.886,0.229c-0.052,2.064-0.434,4.459-1.122,7.288L657.854,120.919z"/>
				<path fill="#FFFFFF" d="M678.078,115.543h-2.752v6.09c0,3.415-0.765,6.421-2.217,8.918l-1.937-0.841
					c1.682-3.032,2.038-4.943,2.09-8.715v-11.212c0-0.382,0.203-0.586,0.561-0.586h8.638v-1.682h2.166v1.682h9.505v2.064h-3.72
					v2.217h3.669v2.064h-3.669v2.956c0,0.688-0.357,1.019-1.02,1.019h-10.32c-0.663,0-0.994-0.331-0.994-1.019V115.543z
					 M693.801,131.214c-3.567-0.586-6.677-1.401-9.301-2.395c-3.007,1.197-6.091,2.039-9.199,2.472l-0.714-2.141
					c3.262-0.408,5.173-0.815,7.364-1.503c-1.682-0.815-3.159-1.708-4.51-2.574l0.765-2.064c2.141,1.554,4.255,2.752,6.294,3.593
					c3.363-1.758,4.918-3.593,4.918-3.72c0-0.102-0.179-0.077-0.28-0.077H676.83v-2.064h14.295l1.504,1.249
					c-1.146,2.115-3.058,3.976-5.632,5.555c2.421,0.663,5.02,1.172,7.798,1.453L693.801,131.214z M678.078,113.479v-2.217h-2.472
					c-0.179,0-0.28,0.102-0.28,0.28v1.937H678.078z M688.246,113.479v-2.217h-8.002v2.217H688.246z M687.889,117.454
					c0.229,0,0.357-0.102,0.357-0.331v-1.58h-8.002v1.58c0,0.229,0.128,0.331,0.356,0.331H687.889z"/>
				<path fill="#FFFFFF" d="M704.648,115.237h-1.503v13.403h-1.963v-13.403h-1.324c-0.103,0-0.153,0.051-0.153,0.153v15.519h-2.064
					v-16.997c0-0.484,0.255-0.739,0.714-0.739h3.109l0.713-2.599h-5.045v-2.064h13.479v2.064h-6.218l-0.688,2.599h5.81
					c0.484,0,0.739,0.255,0.739,0.739v14.805c0,0.892-0.331,1.554-0.969,2.039c-0.407,0.28-1.07,0.408-1.987,0.408
					c-0.586,0-1.274-0.051-2.064-0.153l-0.229-2.319c0.892,0.254,1.604,0.382,2.063,0.382c0.815,0,1.121-0.637,1.121-1.07V115.39
					c0-0.102-0.051-0.153-0.178-0.153h-1.402v13.2h-1.962V115.237z M716.498,113.555h-5.811v-2.064h5.811v-3.771h2.166v3.771h1.605
					v2.064h-1.605v14.984c0,0.764-0.383,2.65-3.058,2.65c-0.893,0-1.988-0.178-3.313-0.51v-2.242l0.357,0.076
					c1.07,0.306,1.911,0.433,2.548,0.433c1.146,0,1.3-0.407,1.3-0.968V113.555z M713.134,125.328
					c-0.382-3.44-0.993-6.498-1.783-9.123l2.115-0.408c0.892,3.465,1.528,6.574,1.809,9.301L713.134,125.328z"/>
				<path fill="#FFFFFF" d="M741.183,114.243h-8.919v-1.86h8.919v-1.555h-9.098l-1.096,1.809v6.447h-1.962v-3.899
					c-0.611,0.663-1.248,1.223-1.809,1.682l-1.249-1.02v3.593c0,4.459-0.586,8.282-1.732,11.365l-2.014-0.663
					c1.198-3.491,1.631-5.708,1.682-11.339v-9.403c0-0.382,0.179-0.535,0.561-0.535h9.148v-1.351h2.166v1.351h9.913v1.962h-2.549
					v1.555h2.396v1.86h-2.396v2.446c0,1.3-0.866,2.421-2.777,2.421c-0.688,0-1.529-0.102-2.497-0.356l-0.077-2.039
					c0.943,0.229,1.683,0.332,2.218,0.332c0.892,0,1.172-0.229,1.172-0.841V114.243z M725.97,115.186
					c1.274-1.07,2.421-2.191,3.771-4.357h-3.517c-0.179,0-0.255,0.077-0.255,0.229V115.186z M741.387,125.659
					c-2.294-0.611-4.256-1.682-5.861-3.21c-1.045,1.351-2.752,2.446-5.122,3.262l-1.07-1.758c2.191-0.637,3.695-1.402,4.383-2.293
					h-4.51c-0.102,0-0.153,0.051-0.153,0.153v9.199h-2.063v-10.626c0-0.332,0.152-0.484,0.484-0.484h7.007l0.153-1.351l1.962,0.127
					l-0.153,1.223h8.053c0.306,0,0.484,0.153,0.484,0.484v8.46c0,1.401-0.994,2.472-3.083,2.472c-0.815,0-1.759-0.127-2.854-0.331
					l-0.076-2.293c1.07,0.28,1.937,0.433,2.548,0.433c1.351,0,1.401-0.892,1.401-1.121v-6.192c0-0.102-0.051-0.153-0.178-0.153
					h-5.428c1.273,1.045,2.956,1.784,4.994,2.166L741.387,125.659z M741.132,128.845c-2.039-0.408-3.976-1.121-5.733-2.166
					c-1.045,1.019-2.676,1.911-4.893,2.65l-0.969-1.809c1.707-0.484,4.077-1.172,5.581-3.848l1.809,0.713l-0.484,0.892
					c1.708,0.892,3.568,1.503,5.53,1.707L741.132,128.845z M735.959,117.964c-0.866-0.79-1.708-1.453-2.446-1.86l1.248-1.529
					c0.994,0.663,1.835,1.325,2.549,1.962L735.959,117.964z"/>
				<path fill="#FFFFFF" d="M758.069,115.772c1.81,1.503,4.332,4.026,5.606,5.529l-2.09,1.911c-1.197-1.554-3.797-4.306-5.428-5.759
					L758.069,115.772z"/>
				<path fill="#FFFFFF" d="M551.801,147.316h-1.503v13.403h-1.963v-13.403h-1.324c-0.103,0-0.153,0.051-0.153,0.153v15.519h-2.064
					v-16.997c0-0.484,0.255-0.739,0.714-0.739h3.109l0.713-2.599h-5.045v-2.064h13.479v2.064h-6.218l-0.688,2.599h5.81
					c0.484,0,0.739,0.255,0.739,0.739v14.805c0,0.892-0.331,1.554-0.969,2.039c-0.407,0.28-1.07,0.408-1.987,0.408
					c-0.586,0-1.274-0.051-2.064-0.153l-0.229-2.319c0.892,0.254,1.604,0.382,2.063,0.382c0.815,0,1.121-0.637,1.121-1.07v-12.614
					c0-0.102-0.051-0.153-0.178-0.153h-1.402v13.2h-1.962V147.316z M563.65,145.634h-5.811v-2.064h5.811v-3.771h2.166v3.771h1.605
					v2.064h-1.605v14.984c0,0.764-0.383,2.65-3.058,2.65c-0.893,0-1.988-0.178-3.313-0.51v-2.242l0.357,0.076
					c1.07,0.306,1.911,0.433,2.548,0.433c1.146,0,1.3-0.407,1.3-0.968V145.634z M560.286,157.407
					c-0.382-3.44-0.993-6.498-1.783-9.123l2.115-0.408c0.892,3.465,1.528,6.574,1.809,9.301L560.286,157.407z"/>
				<path fill="#FFFFFF" d="M580.181,141.379v-1.784h2.141v1.784h10.371v2.064h-23.036v-2.064H580.181z M587.52,160.771
					c0,0.127-0.025,0.204-0.102,0.254c0.535,0.127,0.968,0.179,1.299,0.179c1.07,0,1.096-1.02,1.096-1.121v-6.371
					c0-0.102-0.051-0.153-0.152-0.153h-16.92c-0.103,0-0.153,0.051-0.153,0.153v9.479h-2.166v-11.084
					c0-0.357,0.179-0.535,0.51-0.535h20.538c0.357,0,0.51,0.178,0.51,0.535v8.868c0,0.586-0.152,2.446-2.904,2.446
					c-0.739,0-1.605-0.102-2.625-0.331l-0.051-2.013H575.16c-0.178,0-0.28-0.102-0.28-0.306v-5.479c0-0.178,0.103-0.28,0.28-0.28
					h12.054c0.204,0,0.306,0.102,0.306,0.28V160.771z M589.304,150.221c0,0.204-0.103,0.306-0.307,0.306h-15.62
					c-0.179,0-0.28-0.102-0.28-0.306v-5.071c0-0.179,0.102-0.28,0.28-0.28h15.62c0.204,0,0.307,0.102,0.307,0.28V150.221z
					 M587.138,146.832c0-0.076-0.026-0.102-0.103-0.102h-11.696c-0.076,0-0.102,0.026-0.076,0.102v1.682
					c-0.025,0.077,0,0.102,0.076,0.127h11.696l0.103-0.127V146.832z M585.455,156.897h-8.511c-0.076,0-0.102,0-0.076,0.051v2.141
					l0.076,0.102h8.511l0.077-0.102v-2.141L585.455,156.897z"/>
				<path fill="#FFFFFF" d="M598.698,150.833c-1.528-1.376-2.854-2.396-3.924-3.007l1.274-1.758
					c1.197,0.688,2.573,1.708,4.052,3.083L598.698,150.833z M594.851,162.147c1.682-2.981,2.6-6.141,2.752-9.454l2.166,0.153
					c-0.306,4.077-1.223,7.416-2.676,9.989L594.851,162.147z M599.284,145.074c-1.528-1.427-2.854-2.472-3.949-3.134l1.325-1.758
					c1.223,0.765,2.573,1.835,4.026,3.211L599.284,145.074z M601.425,160.644v-7.874c0-0.459,0.204-0.688,0.688-0.688h14.576
					c0.483,0,0.713,0.229,0.713,0.688v7.874h1.249v1.962h-19.035v-1.962H601.425z M616.816,150.476c0,0.178-0.102,0.28-0.306,0.28
					h-14.219c-0.179,0-0.28-0.102-0.28-0.28v-9.76c0-0.178,0.102-0.28,0.28-0.28h14.219c0.204,0,0.306,0.102,0.306,0.28V150.476z
					 M603.489,160.644h2.396v-6.6h-2.115c-0.204,0-0.28,0.102-0.28,0.306V160.644z M612.841,148.438
					c-1.07-0.968-2.395-2.039-3.949-3.186c-0.765,1.147-1.605,2.141-2.472,2.956l-1.529-1.274c1.401-1.121,2.548-2.65,3.39-4.536
					h-4.129c-0.076,0-0.102,0.026-0.076,0.077v6.218l0.076,0.102h10.499l0.102-0.102v-6.218l-0.102-0.077h-4.383l-0.561,1.376
					c1.452,0.942,2.905,1.987,4.307,3.108L612.841,148.438z M607.948,160.644h2.625v-6.6h-2.625V160.644z M612.638,160.644h2.701
					v-6.32c0-0.178-0.103-0.28-0.28-0.28h-2.421V160.644z"/>
				<path fill="#FFFFFF" d="M630.696,147.852c1.81,1.503,4.332,4.026,5.606,5.529l-2.09,1.911c-1.197-1.554-3.797-4.306-5.428-5.759
					L630.696,147.852z"/>
				<path fill="#FFFFFF" d="M653.699,147.316h-1.503v13.403h-1.963v-13.403h-1.324c-0.103,0-0.153,0.051-0.153,0.153v15.519h-2.064
					v-16.997c0-0.484,0.255-0.739,0.714-0.739h3.109l0.713-2.599h-5.045v-2.064h13.479v2.064h-6.218l-0.688,2.599h5.81
					c0.484,0,0.739,0.255,0.739,0.739v14.805c0,0.892-0.331,1.554-0.969,2.039c-0.407,0.28-1.07,0.408-1.987,0.408
					c-0.586,0-1.274-0.051-2.064-0.153l-0.229-2.319c0.892,0.254,1.604,0.382,2.063,0.382c0.815,0,1.121-0.637,1.121-1.07v-12.614
					c0-0.102-0.051-0.153-0.178-0.153h-1.402v13.2h-1.962V147.316z M665.549,145.634h-5.811v-2.064h5.811v-3.771h2.166v3.771h1.605
					v2.064h-1.605v14.984c0,0.764-0.383,2.65-3.058,2.65c-0.893,0-1.988-0.178-3.313-0.51v-2.242l0.357,0.076
					c1.07,0.306,1.911,0.433,2.548,0.433c1.146,0,1.3-0.407,1.3-0.968V145.634z M662.185,157.407
					c-0.382-3.44-0.993-6.498-1.783-9.123l2.115-0.408c0.892,3.465,1.528,6.574,1.809,9.301L662.185,157.407z"/>
				<path fill="#FFFFFF" d="M675.046,152.515l-3.389,0.382c-0.077-0.561-0.204-1.223-0.459-1.911l1.146-0.127
					c0.714-0.765,1.529-1.758,2.396-2.981c-1.172-1.096-2.396-1.962-3.644-2.65l0.917-1.732c0.102,0,0.382,0.153,0.79,0.458
					c0.739-1.325,1.452-2.752,2.115-4.307l1.732,0.917c-0.484,1.146-1.249,2.625-2.345,4.459l1.479,1.223
					c0.892-1.529,1.503-2.981,1.911-4.383l1.886,0.535c-0.663,2.396-2.243,5.122-4.791,8.129l3.466-0.433l-0.765-1.784l1.835-0.663
					c0.739,1.605,1.376,3.236,1.86,4.867l-1.86,0.51l-0.357-0.994l-1.859,0.255v10.83h-2.064V152.515z M671.198,161.408
					c0.382-1.987,0.688-4.434,0.841-7.288l1.911,0.255c-0.102,2.472-0.382,4.943-0.841,7.44L671.198,161.408z M679.888,154.12
					l1.045,6.09l-1.963,0.332l-0.993-5.938L679.888,154.12z M681.62,146.501c0-0.306,0.179-0.484,0.484-0.484h4.612
					c2.013-1.988,2.65-3.185,2.65-3.262c0-0.076-0.051-0.102-0.128-0.102h-4.943c-1.248,1.605-2.497,2.981-3.695,4.052l-1.579-1.503
					c2.114-1.707,3.745-3.542,4.79-5.428l1.86,0.561l-0.204,0.382h5.632l1.427,1.045c-0.764,1.325-1.809,2.752-3.032,4.255h4.23
					c0.331,0,0.51,0.178,0.51,0.484v8.027c0,0.331-0.179,0.509-0.51,0.509h-10.04v3.976c0,0.586,0,1.86,1.197,1.937h6.192
					c1.656,0,1.86-1.045,1.86-3.619l2.141,0.357c-0.128,1.86-0.484,3.236-1.096,4.077c-0.612,0.739-1.325,1.146-2.141,1.146H684.5
					c-0.969,0-1.707-0.28-2.269-0.79c-0.407-0.434-0.611-1.096-0.611-2.064V146.501z M686.793,153.075v-5.097h-2.879
					c-0.153,0-0.229,0.077-0.229,0.229v4.867H686.793z M688.857,147.979v5.097h3.058c0.179,0,0.255-0.077,0.255-0.255v-4.612
					c0-0.153-0.076-0.229-0.255-0.229H688.857z"/>
				<path fill="#FFFFFF" d="M700.316,152.413l-3.159,0.382c-0.077-0.561-0.229-1.198-0.484-1.911l2.09-0.28
					c0.561-0.663,1.172-1.453,1.809-2.396c-1.248-1.121-2.522-2.013-3.797-2.676l0.893-1.732c0.127,0,0.433,0.204,1.019,0.586
					c0.714-1.401,1.428-3.007,2.064-4.714l1.758,0.841c-0.458,1.249-1.248,2.879-2.369,4.918l1.427,1.121
					c0.714-1.351,1.248-2.625,1.58-3.899l1.911,0.51c-0.459,1.937-1.759,4.307-3.899,7.109l1.81-0.254l-0.434-1.147l1.81-0.561
					c0.51,1.172,0.943,2.676,1.274,4.434l-1.81,0.484l-0.306-1.249l-1.121,0.153v10.983h-2.064V152.413z M696.953,161.434
					c0.484-2.6,0.739-5.046,0.739-7.288l1.937,0.229c-0.128,2.879-0.408,5.376-0.739,7.415L696.953,161.434z M703.63,159.089
					c-0.077-2.141-0.255-3.72-0.459-4.688l1.758-0.127c0.255,2.089,0.408,3.72,0.459,4.816H703.63z M706.942,145.736
					c-0.28,0-0.867,0-0.714-0.765l1.401-4.357c0.128-0.28,0.357-0.408,0.663-0.331h8.664c0.509-0.051,0.713,0.204,0.637,0.739
					l-1.58,6.141h4.052v2.064h-6.523l-0.662,0.688c1.478,1.351,2.42,3.007,2.803,4.918c0.841,1.708,2.446,3.619,4.714,5.708
					l-1.937,1.121c-1.146-1.223-2.013-2.268-2.6-3.109c-0.076,0.968-0.28,1.81-0.611,2.548c-0.356,0.943-1.121,2.191-3.058,2.191
					c-0.51,0-1.401-0.153-2.625-0.484l-0.051-2.166c1.045,0.28,1.86,0.433,2.421,0.433c0.229,0,0.408-0.025,0.535-0.077
					c0.917-0.408,1.401-2.37,1.452-3.822c-2.395,1.988-5.121,3.593-8.103,4.689l-1.224-1.758c3.618-1.147,6.625-2.981,9.021-5.402
					c-0.178-0.535-0.203-0.586-0.433-1.045c-2.141,1.937-4.18,3.236-6.116,3.874l-1.07-1.708c2.345-0.866,4.408-2.115,6.142-3.822
					l-0.765-0.765c-1.3,0.943-2.701,1.758-4.103,2.421l-1.274-1.631c2.014-0.764,3.695-1.707,4.943-2.803h-5.733v-2.064h8.74
					l0.357-1.427H706.942z M708.675,143.876h6.142l0.458-1.732h-6.064L708.675,143.876z M715.428,152.311
					c1.096-0.994,1.911-1.86,2.472-2.599l1.452,1.351c-0.611,0.815-1.452,1.708-2.548,2.65L715.428,152.311z"/>
				<path fill="#FFFFFF" d="M722.173,154.4c0.51-3.134,0.79-6.396,0.79-9.709l1.937,0.204c-0.102,3.771-0.382,7.059-0.815,9.836
					L722.173,154.4z M725.689,139.799h2.064v23.495h-2.064V139.799z M730.251,144.36l0.738,6.727l-1.859,0.204l-0.714-6.575
					L730.251,144.36z M737.59,160.439v-6.498h-5.122v-2.166h5.122v-5.886h-3.491c-0.331,1.07-0.688,1.988-1.096,2.752l-2.141-0.611
					c1.223-2.396,1.911-4.893,1.962-7.441l2.166,0.102c-0.076,1.121-0.179,2.141-0.356,3.032h2.956v-3.924h2.166v3.924h5.58v2.166
					h-5.58v5.886h5.274v2.166h-5.274v6.498h6.166v2.166h-14.958v-2.166H737.59z"/>
				<path fill="#FFFFFF" d="M545.073,174.044c1.173-0.204,2.728-0.382,4.74-0.382c2.396,0,4.204,0.51,5.377,1.555
					c1.096,0.943,1.758,2.421,1.758,4.205c0,4.74-3.771,6.371-7.288,6.371c-0.611,0-1.172-0.026-1.656-0.127v7.645h-2.931V174.044z
					 M548.004,183.294c0.434,0.127,0.969,0.153,1.656,0.153c2.701,0,4.332-1.401,4.332-3.898c0-2.37-1.631-3.568-4-3.568
					c-0.918,0-1.605,0.102-1.988,0.179V183.294z"/>
				<path fill="#FFFFFF" d="M559.976,193.309v-19.494h10.143v2.472h-7.187v6.014h6.677v2.446h-6.677v8.562H559.976z"/>
				<path fill="#FFFFFF" d="M587.569,193.309h-3.109l-1.758-5.733h-5.963l-1.682,5.733h-3.033l5.963-19.494h3.619L587.569,193.309z
					 M582.218,185.307l-1.529-5.096c-0.356-1.274-0.688-2.65-0.968-3.848h-0.052c-0.28,1.198-0.586,2.625-0.917,3.822l-1.555,5.122
					H582.218z"/>
				<path fill="#FFFFFF" d="M598.419,185.052c-0.713-1.223-1.631-2.548-2.649-4v14.143h-2.166v-12.282
					c-0.892,2.115-1.759,3.796-2.549,4.943l-2.038-0.713c2.879-3.976,3.593-6.447,4.307-8.97h-3.746v-2.166h4.026v-4.23h2.166v4.23
					h2.904v2.166h-2.752c1.529,1.784,2.931,3.644,4.23,5.606L598.419,185.052z M597.782,188.773
					c3.898-2.981,6.957-6.575,9.148-10.703h-6.498v-2.166h7.211v-3.95h2.166v3.95h2.88v2.166h-2.88v14.525
					c0,1.834-1.273,2.675-3.313,2.675c-1.146,0-2.65-0.254-4.459-0.739l0.051-2.268c1.758,0.535,3.108,0.79,4.052,0.79
					c1.325,0,1.503-0.433,1.503-1.019v-10.958c-2.446,4.026-5.173,7.109-8.052,9.199L597.782,188.773z"/>
				<path fill="#FFFFFF" d="M620.632,176.873h-2.7c-0.179,1.478-0.79,2.879-1.708,4.179l-1.834-1.401
					c0.968-1.147,1.503-2.396,1.554-3.771v-3.186c-0.025-0.458,0.153-0.713,0.612-0.713h1.478c2.472,0,4.638-0.102,6.473-0.357
					l0.611,2.013c-2.676,0.306-4.459,0.382-6.778,0.382c-0.331,0-0.331,0.102-0.331,0.892h8.816v1.962h-4.128v2.879h-2.064V176.873z
					 M630.57,192.009h-8.104l0.484,1.682c-2.064,0.79-4.663,1.427-7.772,1.886l-0.433-2.039c2.727-0.459,4.969-0.968,6.728-1.529
					h-4.129c-0.382,0-0.535-0.204-0.535-0.586V180.72c0-0.356,0.153-0.535,0.535-0.535h9.862l-1.453-1.376
					c1.224-1.096,1.886-2.242,1.937-3.44v-2.777c0-0.459,0.179-0.688,0.587-0.688l2.318,0.026c2.039,0,3.976-0.077,5.784-0.306
					l0.561,2.013c-2.395,0.255-4.204,0.28-6.905,0.28c-0.28,0-0.28,0.102-0.28,0.994h8.409v1.962h-3.822v2.879h-2.064v-2.879h-2.675
					c-0.255,0.994-0.943,2.115-1.988,3.313h7.899c0.383,0,0.561,0.179,0.561,0.535v10.703c0,0.382-0.178,0.586-0.561,0.586h-3.618
					c1.783,0.255,3.771,0.79,6.014,1.555l-0.535,2.013c-2.931-0.943-5.326-1.503-7.186-1.708L630.57,192.009z M618.976,183.753
					h14.933v-1.503c0-0.077-0.025-0.102-0.076-0.102h-14.805c-0.077,0-0.077,0.051-0.052,0.102V183.753z M633.908,188.722h-14.933
					v1.198c-0.025,0.077,0,0.102,0.052,0.127h14.805l0.076-0.127V188.722z M618.976,186.938h14.933v-1.401h-14.933V186.938z"/>
			</g>
		</g>
		<polyline fill="none" stroke="#FFFFFF" stroke-width="2.1002" stroke-miterlimit="10" points="426.66,68.302 506.121,15.916 
			775.661,15.916 		"/>
		<g>
			<g>
				<path fill="#FFFFFF" d="M39.222,52.593c0.637,0.025,1.249,0.025,1.86,0.025c4.179,0,7.492-0.458,9.938-1.376
					c-1.146-1.07-2.829-2.472-4.969-4.103c-1.402,0.509-3.109,0.943-5.122,1.274l-0.815-2.115c4.714-0.561,8.078-2.166,10.015-4.816
					c-3.109,1.325-7.161,2.243-12.129,2.752l-0.637-2.344c4.281-0.127,7.823-0.688,10.499-1.682c-1.682-1.3-3.44-2.548-5.275-3.695
					l-2.981,0.867l-0.943-2.115c3.669-0.637,6.269-1.937,7.798-3.822l2.344,0.841l-0.229,0.255h8.664l1.554,1.223
					c-0.637,1.172-1.758,2.625-3.363,4.23c-1.02,0.943-2.752,2.09-5.173,3.415l2.089,0.612l-0.306,0.535H59.2l1.401,0.841
					c-0.51,2.166-1.427,4.001-2.676,5.402c-1.427,1.631-2.625,2.574-4.765,3.822c-2.854,1.453-7.313,2.268-13.302,2.37
					L39.222,52.593z M46.663,36.692c1.274,0.866,2.421,1.733,3.415,2.548c2.396-1.274,4.154-2.676,5.199-4.154
					c0.025-0.077,0.025-0.153,0.025-0.204c0-0.127-0.051-0.204-0.153-0.204H46.28L44.93,35.52L46.663,36.692z M49.976,47.573
					c1.146,0.943,2.191,1.834,3.108,2.701c2.217-1.3,3.874-3.109,4.867-5.453c0.025-0.026,0.025-0.026,0.025-0.051
					s-0.076-0.051-0.254-0.051h-7.466c-0.561,0.484-1.274,0.917-2.064,1.401L49.976,47.573z"/>
				<path fill="#FFFFFF" d="M73.31,52.746v-1.223h-9.225v-1.962h9.225v-1.427h-8.154c-0.178,0-0.28-0.102-0.28-0.306v-8.46
					c0-0.179,0.102-0.255,0.28-0.255h8.154v-1.325H62.684v-1.962H73.31v-1.197c-3.236,0.127-5.963,0.178-8.18,0.127L64.9,32.59
					c5.198,0.102,14.015-0.306,18.118-1.045l0.306,2.141c-2.293,0.433-5.071,0.637-7.874,0.841v1.299h10.575v1.962H75.45v1.325
					h8.128c0.204,0,0.306,0.076,0.306,0.255v8.46c0,0.204-0.102,0.306-0.306,0.306H75.45v1.427h9.173v1.962H75.45v1.223h10.371
					v1.962H62.887v-1.962H73.31z M73.31,42.681v-1.605h-6.294c-0.077,0-0.077,0.025-0.077,0.077v1.529H73.31z M73.31,46.172v-1.529
					h-6.371v1.427l0.077,0.102H73.31z M75.45,41.075v1.605h6.37v-1.529l-0.102-0.077H75.45z M75.45,44.643v1.529h6.269l0.102-0.102
					v-1.427H75.45z"/>
				<path fill="#FFFFFF" d="M94.707,39.394c-0.051,0.127-0.051,0.255-0.051,0.356c0,0.179,0.025,0.357,0.127,0.484
					c0.612,0.841,2.293,3.134,2.293,6.064c0,0.561-0.102,1.224-0.739,2.243c-0.917,1.121-1.758,1.351-2.956,1.351
					c-0.739,0-1.529-0.127-2.396-0.382v5.504h-2.166V32.437l0.076-0.254l0.229-0.051h6.116l1.427,0.917L94.707,39.394z
					 M94.146,34.603c0.025-0.076,0.051-0.153,0.051-0.229c0-0.28-0.255-0.28-0.458-0.28h-2.574l-0.127,0.051l-0.051,0.127v12.919
					c0.688,0.408,1.376,0.612,2.064,0.612c0.764,0,1.834-0.179,1.834-1.886c0-1.274-0.815-3.186-2.446-5.733
					c0-0.077,0-0.102,0.051-0.229L94.146,34.603z M101.485,42.069c-0.357,5.759-2.268,10.117-5.708,12.971l-1.886-1.555l0.204-0.127
					c3.415-2.548,5.173-6.727,5.275-12.486v-3.797h-2.65v-2.166h6.039v-3.415h2.166v3.415h6.473v2.166h-9.862v2.803h8.537
					l0.433,0.102l0.255,0.306l0.051,4.867c-0.102,4.077-0.382,6.651-0.892,7.645c-0.968,2.039-2.548,2.243-3.644,2.243
					c-1.198,0-2.727-0.306-4.562-0.892v-2.522c1.758,0.713,3.16,1.07,4.154,1.07c0.458,0,0.841-0.051,1.121-0.204
					c1.402-0.739,1.58-2.625,1.631-4.562c0.051-1.707,0.102-3.032,0.102-3.975c0-1.733-0.102-1.886-0.382-1.886H101.485z"/>
				<path fill="#FFFFFF" d="M123.8,51.727c-0.866-1.044-1.911-2.166-3.108-3.363v6.651h-2.064v-6.371
					c-1.172,1.58-2.42,2.854-3.695,3.797l-1.656-1.453c1.886-1.325,3.44-2.981,4.612-4.842h-4.332v-1.962h5.071v-1.453h2.064v1.453
					h4.714v1.962h-4.281c1.453,1.274,2.854,2.599,4.179,4.001L123.8,51.727z M116.436,40.667c-0.484,0.713-1.044,1.453-1.732,2.141
					c-0.459-0.612-0.943-1.096-1.376-1.402c1.351-1.35,2.396-3.134,3.033-5.224l1.911,0.815l-0.917,2.039l1.911,1.937l-1.478,1.402
					L116.436,40.667z M118.423,33.634v-1.962h2.064v1.962h4.74v1.962h-11.594v-1.962H118.423z M121.94,40.897l-1.147,1.682
					c-0.535-0.586-1.044-1.019-1.529-1.274c1.147-1.427,1.911-3.109,2.268-4.944l1.987,0.612l-0.79,2.242l2.319,2.064l-1.427,1.503
					L121.94,40.897z M133.381,48.924v3.822h3.72v1.962h-9.734c-0.484,0-0.739-0.255-0.739-0.739V39.317l-0.968,1.376
					c-0.51-0.586-1.045-1.019-1.503-1.274c1.733-2.166,2.956-4.816,3.542-7.925l1.988,0.586c-0.306,1.223-0.739,2.472-1.223,3.746
					h3.364c0.739-1.732,1.223-3.134,1.503-4.281l1.86,0.586c-0.229,1.096-0.611,2.319-1.197,3.695h3.21l-0.178,1.962h-3.644v3.593
					h3.593v1.988h-3.593v3.593h3.491v1.962H133.381z M128.591,41.381h2.829v-3.593h-2.548c-0.179,0-0.28,0.102-0.28,0.28V41.381z
					 M128.591,46.961h2.829v-3.593h-2.829V46.961z M131.419,48.924h-2.829v3.517c0,0.204,0.102,0.306,0.28,0.306h2.548V48.924z"/>
				<path fill="#FFFFFF" d="M139.107,35.673h9.581v2.064h-9.581V35.673z M142.089,53.511v0.892h-2.064v-8.485
					c0-0.408,0.204-0.637,0.637-0.637h6.523c0.433,0,0.663,0.229,0.663,0.637v6.905c0,0.459-0.229,0.688-0.688,0.688H142.089z
					 M140.305,38.909h7.11v1.962h-7.11V38.909z M140.305,42.095h7.11v1.962h-7.11V42.095z M140.407,32.386h6.906v2.064h-6.906
					V32.386z M145.784,47.573c0-0.229-0.127-0.332-0.332-0.332h-3.058c-0.204,0-0.306,0.102-0.306,0.332v3.975h3.287
					c0.255,0,0.408-0.153,0.408-0.433V47.573z M151.721,42.63v-8.129h-2.675v-2.166h9.556c0.382-0.051,0.739,0.025,0.739,0.408
					c-0.026,2.089-0.026,4-0.026,5.759c0,7.39,0.204,11.722,0.663,12.971c0.051,0.153,0.153,0.254,0.332,0.254
					c0.076,0,0.127,0,0.127-0.28l0.051-3.058l2.141,0.433c-0.204,3.72-0.663,6.294-2.268,6.294c-0.458,0-0.841-0.153-1.146-0.484
					l-0.561-0.867c-0.994-1.987-1.478-7.39-1.478-16.155c0-0.408,0.051-2.396,0.051-2.829c0-0.153-0.102-0.229-0.331-0.28h-3.007
					v7.517l2.039-0.713l0.714,2.039c-0.586,0.255-1.555,0.586-2.829,0.968l-0.535,3.695c-0.688,3.058-1.656,5.326-2.854,6.728
					l-2.217-0.714c2.039-2.752,3.185-5.81,3.44-9.148l-2.803,0.637l-0.663-2.09L151.721,42.63z"/>
				<path fill="#FFFFFF" d="M170.749,39.241c-0.102,0.28-0.127,0.535-0.127,0.713c0,0.127,0,0.229,0.051,0.28
					c1.096,2.013,1.682,3.822,1.682,5.733c0,1.223-0.28,2.191-0.841,2.879c-0.688,0.815-1.249,0.943-2.115,0.943
					c-0.663,0-1.401-0.127-2.191-0.408v5.53h-1.962V32.31l0.076-0.229l0.204-0.051h5.453l1.427,0.892L170.749,39.241z
					 M169.933,34.552c0.025-0.102,0.051-0.178,0.051-0.255c0-0.229-0.178-0.331-0.509-0.306h-2.09l-0.127,0.051l-0.051,0.127v13.021
					c0.637,0.458,1.274,0.688,1.86,0.688c0.586,0,0.79-0.178,0.917-0.382c0.332-0.484,0.434-1.146,0.434-1.732
					c0-1.555-0.867-3.644-1.886-5.861L169.933,34.552z M180.967,43.853h-1.732l-0.102,0.841c-0.306,1.503-1.427,2.701-3.364,3.542
					l-0.841-1.147v7.696h-2.064v-12.41c0-0.306,0.178-0.484,0.484-0.484h13.302c0.331,0,0.51,0.178,0.51,0.484v10.346
					c0,0.484-0.127,2.293-2.625,2.293c-0.611,0-1.376-0.102-2.268-0.28V52.44c0.866,0.331,1.503,0.458,1.911,0.458
					c0.586,0,0.917-0.561,0.917-1.019v-4.001h-3.313c-0.535,0-0.815-0.255-0.815-0.841V43.853z M173.246,32.233h13.684v1.962
					h-13.684V32.233z M185.961,40.336c0,0.178-0.102,0.28-0.255,0.28h-11.416c-0.153,0-0.229-0.102-0.229-0.28v-4.612
					c0-0.179,0.077-0.255,0.229-0.255h11.416c0.153,0,0.255,0.076,0.255,0.255V40.336z M174.928,46.656
					c1.376-0.586,2.217-1.223,2.446-1.886l0.102-0.917h-2.396c-0.102,0-0.153,0.051-0.153,0.153V46.656z M178.979,50.682h-2.931
					v-1.886h7.976v1.886h-3.083V54.3h-1.962V50.682z M183.795,37.125h-7.594c-0.076,0-0.102,0.025-0.076,0.077v1.656l0.076,0.102
					h7.594l0.102-0.102v-1.656L183.795,37.125z M182.725,45.764c0,0.306,0.153,0.458,0.484,0.458h1.886v-2.217
					c0-0.102-0.051-0.153-0.179-0.153h-2.191V45.764z"/>
				<path fill="#FFFFFF" d="M210.111,48.924v3.822h3.338v1.962h-9.174c-0.458,0-0.713-0.255-0.713-0.739V39.113l-0.739,1.07
					c-0.459-0.484-0.892-0.841-1.274-1.07v3.185c0,0.535-0.28,0.815-0.841,0.815h-3.797l-0.255,1.172h4.816
					c0.306,0,0.458,0.153,0.458,0.433v8.23c0,0.714-0.229,2.243-2.65,2.243c-0.637,0-1.376-0.102-2.217-0.28l-0.051-2.191
					c0.892,0.28,1.554,0.433,1.988,0.433c0.688,0,0.968-0.586,0.968-0.994v-5.963c0-0.102-0.051-0.153-0.179-0.153h-3.517
					l-1.044,3.644l2.039-0.382l-0.739-1.962l1.682-0.535c0.688,1.886,1.223,3.517,1.554,4.867l-1.682,0.382l-0.28-0.994
					l-4.842,0.994l-0.765-1.835l0.969-0.178l1.146-4h-2.089c-0.077,0-0.127,0.051-0.127,0.153v8.791h-1.988V44.719
					c0-0.28,0.153-0.433,0.458-0.433h4.154l0.255-1.172h-3.669c-0.51,0-0.79-0.28-0.79-0.815v-6.396h1.758v5.25
					c0,0.178,0.102,0.28,0.28,0.28h6.931c0.178,0,0.28-0.102,0.28-0.28v-5.25h1.784v2.676c1.402-1.937,2.37-4.332,2.879-7.084
					l1.988,0.561c-0.331,1.223-0.713,2.497-1.223,3.771h3.338c0.662-1.707,1.07-3.108,1.274-4.255l1.911,0.535
					c-0.204,1.096-0.535,2.344-1.045,3.72h2.854l-0.153,1.962h-3.262v3.593h3.083v1.988h-3.083v3.593h3.083v1.962H210.111z
					 M194.949,32.921v-1.427h2.064v1.427h4.74v1.962H190.26v-1.962H194.949z M196.325,39.368c-0.867,0.662-1.784,1.223-2.778,1.707
					c-0.178-0.663-0.408-1.146-0.688-1.529c0.79-0.382,1.503-0.765,2.141-1.223l-2.064-1.478l1.121-1.376l2.293,1.733
					c0.561-0.535,1.146-1.198,1.708-1.937l1.299,1.198l-1.758,1.784l1.682,1.427l-1.198,1.274L196.325,39.368z M205.524,41.381
					h2.625v-3.593h-2.344c-0.179,0-0.28,0.102-0.28,0.28V41.381z M205.524,46.961h2.625v-3.593h-2.625V46.961z M208.149,48.924
					h-2.625v3.517c0,0.204,0.102,0.306,0.28,0.306h2.344V48.924z"/>
			</g>
		</g>
		<polyline fill="none" stroke="#FFFFFF" stroke-width="2.1002" stroke-miterlimit="10" points="361.924,84.756 276.686,15.916 
			36.165,15.916 		"/>
		
			<line fill="none" stroke="#FFFFFF" stroke-width="2.1002" stroke-miterlimit="10" x1="238.01" y1="15.916" x2="349.03" y2="108.465"/>
		
			<line fill="none" stroke="#FFFFFF" stroke-width="2.1002" stroke-miterlimit="10" x1="408.173" y1="112.64" x2="543.037" y2="15.916"/>
	</g>
</g>
</svg>
