<?xml version="1.0" encoding="utf-8"?>
<!-- Generator: Adobe Illustrator 16.0.0, SVG Export Plug-In . SVG Version: 6.00 Build 0)  -->
<!DOCTYPE svg PUBLIC "-//W3C//DTD SVG 1.1//EN" "http://www.w3.org/Graphics/SVG/1.1/DTD/svg11.dtd">
<svg version="1.1" id="圖層_1" xmlns="http://www.w3.org/2000/svg" xmlns:xlink="http://www.w3.org/1999/xlink" x="0px" y="0px"
	 width="800px" height="291px" viewBox="0 0 800 291" enable-background="new 0 0 800 291" xml:space="preserve">
<circle fill="#013047" stroke="#FFFFFF" stroke-width="6" stroke-miterlimit="10" cx="149.789" cy="143.898" r="121.779"/>
<path fill="#DBDCDC" stroke="#FFFFFF" stroke-width="2" stroke-miterlimit="10" d="M250.267,143.898
	c0,55.488-44.985,100.479-100.477,100.479c-55.496,0-100.479-44.991-100.479-100.479c0-55.496,44.982-100.482,100.479-100.482
	C205.281,43.416,250.267,88.403,250.267,143.898z"/>
<path fill="#013047" stroke="#FFFFFF" stroke-width="2" stroke-miterlimit="10" d="M239.924,143.898
	c0,49.785-40.353,90.143-90.135,90.143c-49.786,0-90.138-40.357-90.138-90.143c0-49.782,40.352-90.144,90.138-90.144
	C199.571,53.755,239.924,94.117,239.924,143.898z"/>
<path fill="#EFEEEF" stroke="#FFFFFF" stroke-width="2" stroke-miterlimit="10" d="M167.555,163.082
	c-9.95,9.95-26.082,9.95-36.032,0c-9.948-9.945-9.948-26.077,0.002-36.027c9.948-9.949,26.08-9.949,36.029,0
	C177.502,137.004,177.502,153.136,167.555,163.082z"/>
<path fill="#EFEEEF" stroke="#FFFFFF" stroke-width="2" stroke-miterlimit="10" d="M167.555,107.057
	c-9.95,9.949-26.082,9.949-36.032,0c-9.948-9.946-9.948-26.079,0.002-36.028c9.948-9.949,26.08-9.949,36.029,0
	C177.502,80.978,177.502,97.11,167.555,107.057z"/>
<path fill="#EFEEEF" stroke="#FFFFFF" stroke-width="2" stroke-miterlimit="10" d="M220.759,163.082
	c-9.948,9.95-26.081,9.95-36.028,0c-9.95-9.945-9.95-26.082,0-36.03c9.948-9.946,26.081-9.946,36.028,0
	C230.709,137.004,230.709,153.136,220.759,163.082z"/>
<path fill="#717071" stroke="#FFFFFF" stroke-width="2" stroke-miterlimit="10" d="M205.077,108.198
	c-5.618,5.62-14.729,5.62-20.347,0c-5.62-5.619-5.62-14.73,0-20.351c5.618-5.617,14.729-5.617,20.347,0
	C210.698,93.471,210.698,102.579,205.077,108.198z"/>
<path fill="#EFEEEF" stroke="#FFFFFF" stroke-width="2" stroke-miterlimit="10" d="M111.04,163.08
	c-9.95,9.952-26.083,9.952-36.031,0.004c-9.947-9.949-9.947-26.086,0.003-36.031c9.947-9.949,26.081-9.949,36.028,0
	C120.992,136.998,120.989,153.135,111.04,163.08z"/>
<circle fill="#717071" stroke="#FFFFFF" stroke-width="2" stroke-miterlimit="10" cx="149.539" cy="200.554" r="25.478"/>
<circle fill="#EFEEEF" cx="149.54" cy="200.554" r="17.651"/>
<circle fill="#717071" cx="149.54" cy="200.555" r="11.781"/>
<line fill="none" stroke="#339CD1" stroke-width="2" stroke-miterlimit="10" x1="213.054" y1="215.582" x2="325.065" y2="215.582"/>
<g>
	<g enable-background="new    ">
		<path fill="#FFFFFF" d="M354.084,80.868c-0.875-0.49-2.555-1.19-4.76-1.19c-3.186,0-4.516,1.855-4.516,3.57
			c0,2.275,1.505,3.396,4.9,4.866c4.306,1.89,6.371,4.235,6.371,7.91c0,4.48-3.325,7.841-9.346,7.841
			c-2.521,0-5.181-0.734-6.476-1.61l0.91-3.395c1.436,0.875,3.605,1.575,5.811,1.575c3.185,0,4.97-1.646,4.97-4.061
			c0-2.275-1.365-3.676-4.55-5.006c-3.991-1.61-6.686-4.025-6.686-7.666c0-4.235,3.396-7.421,8.716-7.421
			c2.555,0,4.48,0.631,5.635,1.226L354.084,80.868z"/>
		<path fill="#FFFFFF" d="M363.148,81.218c-1.4,0-2.345-1.05-2.345-2.345c0-1.365,0.98-2.381,2.38-2.381
			c1.4,0,2.346,1.016,2.346,2.381C365.528,80.168,364.618,81.218,363.148,81.218z M365.178,103.48h-4.061V84.158h4.061V103.48z"/>
		<path fill="#FFFFFF" d="M375.363,103.48h-4.061V75.407h4.061V103.48z"/>
		<path fill="#FFFFFF" d="M383.483,81.218c-1.4,0-2.345-1.05-2.345-2.345c0-1.365,0.98-2.381,2.38-2.381
			c1.4,0,2.346,1.016,2.346,2.381C385.863,80.168,384.953,81.218,383.483,81.218z M385.513,103.48h-4.061V84.158h4.061V103.48z"/>
		<path fill="#FFFFFF" d="M404.624,102.886c-0.91,0.42-2.73,0.979-4.971,0.979c-5.565,0-9.206-3.815-9.206-9.836
			c0-5.846,3.781-10.256,9.976-10.256c1.856,0,3.465,0.455,4.305,0.875l-0.805,3.115c-0.7-0.35-1.82-0.77-3.465-0.77
			c-3.78,0-5.88,3.08-5.88,6.86c0,4.235,2.485,6.756,5.845,6.756c1.61,0,2.731-0.385,3.641-0.771L404.624,102.886z"/>
		<path fill="#FFFFFF" d="M425.799,93.68c0,7.211-4.69,10.186-9.031,10.186c-5.005,0-8.82-3.675-8.82-9.906
			c0-6.51,3.99-10.186,9.102-10.186C422.334,83.773,425.799,87.764,425.799,93.68z M416.908,86.818
			c-3.465,0-4.795,3.711-4.795,7.036c0,3.78,1.785,6.966,4.76,6.966c2.94,0,4.761-3.186,4.761-7.036
			C421.634,90.6,420.304,86.818,416.908,86.818z"/>
		<path fill="#FFFFFF" d="M446.658,103.48h-4.061V92.174c0-2.729-0.91-5.04-3.675-5.04c-1.995,0-4.13,1.646-4.13,4.726v11.621
			h-4.061V89.619c0-2.136-0.07-3.78-0.141-5.426h3.535l0.211,2.87h0.104c0.91-1.645,2.94-3.29,5.846-3.29
			c3.011,0,6.37,1.96,6.37,7.911V103.48z"/>
		<path fill="#FFFFFF" d="M466.783,102.71c-1.365,0.631-3.5,1.155-6.125,1.155c-5.812,0-9.172-3.885-9.172-9.766
			c0-5.74,3.221-10.326,8.682-10.326c5.426,0,7.596,4.516,7.596,9.276c0,0.665-0.035,1.225-0.105,1.715h-12.251
			c0.104,4.341,2.8,5.985,5.845,5.985c2.136,0,3.605-0.385,4.866-0.91L466.783,102.71z M463.913,91.859
			c0.034-2.311-0.91-5.181-4.025-5.181c-2.976,0-4.235,2.94-4.446,5.181H463.913z"/>
		<path fill="#FFFFFF" d="M497.443,98.335c0,1.75,0.07,3.815,0.141,5.146h-3.57l-0.211-3.011h-0.104
			c-1.015,1.961-3.116,3.396-5.846,3.396c-4.376,0-7.701-3.885-7.701-9.836c0-6.546,3.745-10.256,8.052-10.256
			c2.484,0,4.27,1.12,5.109,2.59h0.07V75.407h4.061V98.335z M493.383,91.999c0-3.15-1.995-5.005-4.271-5.005
			c-3.115,0-4.83,3.08-4.83,6.896c0,3.78,1.681,6.686,4.761,6.686c2.625,0,4.34-2.311,4.34-5.006V91.999z"/>
		<path fill="#FFFFFF" d="M517.043,98.895c0,1.646,0.035,3.326,0.279,4.586h-3.675l-0.28-2.24h-0.105
			c-1.084,1.505-2.975,2.625-5.391,2.625c-3.605,0-5.67-2.66-5.67-5.636c0-4.795,4.166-7.176,10.781-7.176
			c0-1.435,0-4.305-3.886-4.305c-1.715,0-3.466,0.524-4.69,1.33l-0.84-2.695c1.365-0.875,3.641-1.61,6.23-1.61
			c5.67,0,7.246,3.745,7.246,7.841V98.895z M513.088,93.784c-3.186,0-6.861,0.596-6.861,4.025c0,2.136,1.33,3.081,2.835,3.081
			c2.206,0,4.026-1.681,4.026-3.921V93.784z"/>
		<path fill="#FFFFFF" d="M523.867,80.693l4.025-1.261v4.761h4.585v3.045h-4.585v9.767c0,2.38,0.734,3.535,2.449,3.535
			c0.806,0,1.295-0.104,1.785-0.245l0.141,3.115c-0.7,0.28-1.785,0.455-3.15,0.455c-1.61,0-2.976-0.524-3.815-1.47
			c-0.979-1.05-1.435-2.66-1.435-5.181v-9.977h-2.73v-3.045h2.73V80.693z"/>
		<path fill="#FFFFFF" d="M550.396,98.895c0,1.646,0.035,3.326,0.281,4.586h-3.676l-0.28-2.24h-0.104
			c-1.086,1.505-2.976,2.625-5.391,2.625c-3.605,0-5.671-2.66-5.671-5.636c0-4.795,4.165-7.176,10.781-7.176
			c0-1.435,0-4.305-3.886-4.305c-1.715,0-3.465,0.524-4.69,1.33l-0.84-2.695c1.364-0.875,3.64-1.61,6.23-1.61
			c5.671,0,7.245,3.745,7.245,7.841V98.895z M546.441,93.784c-3.186,0-6.86,0.596-6.86,4.025c0,2.136,1.33,3.081,2.835,3.081
			c2.205,0,4.025-1.681,4.025-3.921V93.784z"/>
		<path fill="#FFFFFF" d="M565.621,105.091h-2.94l10.011-28.809h2.976L565.621,105.091z"/>
		<path fill="#FFFFFF" d="M355.45,141.71c-1.365,0.631-3.5,1.155-6.125,1.155c-5.811,0-9.171-3.885-9.171-9.766
			c0-5.74,3.22-10.326,8.681-10.326c5.426,0,7.596,4.516,7.596,9.276c0,0.665-0.035,1.225-0.105,1.715h-12.251
			c0.105,4.341,2.801,5.985,5.846,5.985c2.135,0,3.605-0.385,4.866-0.91L355.45,141.71z M352.58,130.859
			c0.035-2.311-0.91-5.181-4.026-5.181c-2.975,0-4.235,2.94-4.445,5.181H352.58z"/>
		<path fill="#FFFFFF" d="M365.319,142.48h-4.061v-28.073h4.061V142.48z"/>
		<path fill="#FFFFFF" d="M385.515,141.71c-1.365,0.631-3.5,1.155-6.125,1.155c-5.811,0-9.171-3.885-9.171-9.766
			c0-5.74,3.221-10.326,8.681-10.326c5.426,0,7.596,4.516,7.596,9.276c0,0.665-0.035,1.225-0.105,1.715h-12.251
			c0.105,4.341,2.8,5.985,5.845,5.985c2.135,0,3.605-0.385,4.866-0.91L385.515,141.71z M382.645,130.859
			c0.035-2.311-0.91-5.181-4.025-5.181c-2.976,0-4.236,2.94-4.446,5.181H382.645z"/>
		<path fill="#FFFFFF" d="M404.309,141.886c-0.91,0.42-2.73,0.979-4.97,0.979c-5.565,0-9.206-3.815-9.206-9.836
			c0-5.846,3.78-10.256,9.976-10.256c1.855,0,3.466,0.455,4.306,0.875l-0.805,3.115c-0.701-0.35-1.82-0.77-3.466-0.77
			c-3.78,0-5.88,3.08-5.88,6.86c0,4.235,2.485,6.756,5.845,6.756c1.61,0,2.73-0.385,3.641-0.771L404.309,141.886z"/>
		<path fill="#FFFFFF" d="M409.662,119.693l4.025-1.261v4.761h4.586v3.045h-4.586v9.767c0,2.38,0.735,3.535,2.451,3.535
			c0.805,0,1.295-0.104,1.785-0.245l0.14,3.115c-0.7,0.28-1.785,0.455-3.15,0.455c-1.61,0-2.976-0.524-3.815-1.47
			c-0.98-1.05-1.436-2.66-1.436-5.181v-9.977h-2.73v-3.045h2.73V119.693z"/>
		<path fill="#FFFFFF" d="M432.378,126.764c-0.351-0.07-0.735-0.104-1.19-0.104c-2.73,0-4.445,2.24-4.445,5.601v10.221h-4.061
			v-13.406c0-2.24-0.035-4.096-0.14-5.881h3.536l0.139,3.535h0.141c0.875-2.45,2.905-3.955,5.006-3.955
			c0.385,0,0.664,0.035,1.015,0.105V126.764z"/>
		<path fill="#FFFFFF" d="M438.467,120.218c-1.4,0-2.345-1.05-2.345-2.345c0-1.365,0.979-2.381,2.38-2.381s2.346,1.016,2.346,2.381
			C440.848,119.168,439.938,120.218,438.467,120.218z M440.498,142.48h-4.061v-19.322h4.061V142.48z"/>
		<path fill="#FFFFFF" d="M459.607,141.886c-0.91,0.42-2.73,0.979-4.971,0.979c-5.564,0-9.205-3.815-9.205-9.836
			c0-5.846,3.78-10.256,9.976-10.256c1.855,0,3.466,0.455,4.306,0.875l-0.805,3.115c-0.701-0.35-1.82-0.77-3.466-0.77
			c-3.78,0-5.88,3.08-5.88,6.86c0,4.235,2.484,6.756,5.845,6.756c1.61,0,2.73-0.385,3.641-0.771L459.607,141.886z"/>
		<path fill="#FFFFFF" d="M489.008,137.335c0,1.75,0.07,3.815,0.141,5.146h-3.57l-0.211-3.011h-0.104
			c-1.015,1.961-3.116,3.396-5.846,3.396c-4.376,0-7.701-3.885-7.701-9.836c0-6.546,3.745-10.256,8.052-10.256
			c2.484,0,4.27,1.12,5.109,2.59h0.07v-10.956h4.061V137.335z M484.947,130.999c0-3.15-1.995-5.005-4.271-5.005
			c-3.115,0-4.83,3.08-4.83,6.896c0,3.78,1.681,6.686,4.761,6.686c2.625,0,4.34-2.311,4.34-5.006V130.999z"/>
		<path fill="#FFFFFF" d="M510.777,136.95c0,2.17,0.105,3.99,0.176,5.53h-3.57l-0.211-2.801h-0.104
			c-0.806,1.331-2.695,3.186-5.811,3.186c-3.325,0-6.23-2.064-6.23-8.226v-11.481h4.06v10.816c0,3.325,0.945,5.53,3.605,5.53
			c1.855,0,4.025-1.47,4.025-4.375v-11.937h4.061V136.95z"/>
		<path fill="#FFFFFF" d="M533.527,132.68c0,7.211-4.691,10.186-9.031,10.186c-5.006,0-8.82-3.675-8.82-9.906
			c0-6.51,3.99-10.186,9.101-10.186C530.062,122.773,533.527,126.764,533.527,132.68z M524.637,125.818
			c-3.466,0-4.796,3.711-4.796,7.036c0,3.78,1.785,6.966,4.761,6.966c2.939,0,4.76-3.186,4.76-7.036
			C529.361,129.6,528.031,125.818,524.637,125.818z"/>
		<path fill="#FFFFFF" d="M550.921,126.134c1.33-2.17,3.431-3.36,6.126-3.36c4.34,0,7.596,3.851,7.596,9.836
			c0,7.07-4.096,10.256-8.156,10.256c-2.311,0-4.2-1.085-5.146-2.66h-0.069v10.081h-4.061v-20.862c0-2.52-0.07-4.516-0.141-6.23
			h3.57l0.21,2.94H550.921z M551.271,134.71c0,3.465,2.379,4.936,4.375,4.936c3.15,0,4.865-2.905,4.865-6.896
			c0-3.675-1.645-6.721-4.76-6.721c-2.416,0-4.48,2.275-4.48,5.111V134.71z"/>
		<path fill="#FFFFFF" d="M585.222,136.95c0,2.17,0.104,3.99,0.175,5.53h-3.57l-0.21-2.801h-0.104
			c-0.806,1.331-2.695,3.186-5.811,3.186c-3.326,0-6.231-2.064-6.231-8.226v-11.481h4.061v10.816c0,3.325,0.945,5.53,3.605,5.53
			c1.855,0,4.025-1.47,4.025-4.375v-11.937h4.061V136.95z"/>
		<path fill="#FFFFFF" d="M601.041,126.764c-0.351-0.07-0.735-0.104-1.19-0.104c-2.73,0-4.445,2.24-4.445,5.601v10.221h-4.061
			v-13.406c0-2.24-0.035-4.096-0.14-5.881h3.535l0.14,3.535h0.14c0.875-2.45,2.906-3.955,5.006-3.955
			c0.385,0,0.665,0.035,1.016,0.105V126.764z"/>
		<path fill="#FFFFFF" d="M608.81,126.134c1.33-2.17,3.431-3.36,6.126-3.36c4.34,0,7.596,3.851,7.596,9.836
			c0,7.07-4.096,10.256-8.156,10.256c-2.311,0-4.2-1.085-5.146-2.66h-0.069v10.081H605.1v-20.862c0-2.52-0.07-4.516-0.141-6.23h3.57
			l0.21,2.94H608.81z M609.16,134.71c0,3.465,2.379,4.936,4.375,4.936c3.15,0,4.865-2.905,4.865-6.896
			c0-3.675-1.645-6.721-4.76-6.721c-2.416,0-4.48,2.275-4.48,5.111V134.71z"/>
		<path fill="#FFFFFF" d="M644.056,132.68c0,7.211-4.69,10.186-9.03,10.186c-5.006,0-8.821-3.675-8.821-9.906
			c0-6.51,3.99-10.186,9.101-10.186C640.59,122.773,644.056,126.764,644.056,132.68z M635.165,125.818
			c-3.466,0-4.796,3.711-4.796,7.036c0,3.78,1.785,6.966,4.761,6.966c2.94,0,4.761-3.186,4.761-7.036
			C639.891,129.6,638.561,125.818,635.165,125.818z"/>
		<path fill="#FFFFFF" d="M658.58,126.834c-0.77-0.49-2.1-1.085-3.676-1.085c-1.82,0-2.8,1.05-2.8,2.345
			c0,1.33,0.875,1.995,3.22,3.011c3.186,1.295,4.866,3.045,4.866,5.846c0,3.71-2.835,5.915-7.211,5.915
			c-2.03,0-3.955-0.524-5.251-1.295l0.91-3.01c0.98,0.595,2.766,1.295,4.411,1.295c2.17,0,3.22-1.051,3.22-2.521
			s-0.805-2.275-3.115-3.255c-3.43-1.365-4.936-3.291-4.936-5.531c0-3.22,2.625-5.775,6.686-5.775c1.891,0,3.536,0.525,4.586,1.12
			L658.58,126.834z"/>
		<path fill="#FFFFFF" d="M679.16,141.71c-1.365,0.631-3.5,1.155-6.125,1.155c-5.811,0-9.171-3.885-9.171-9.766
			c0-5.74,3.22-10.326,8.681-10.326c5.426,0,7.596,4.516,7.596,9.276c0,0.665-0.035,1.225-0.105,1.715h-12.251
			c0.105,4.341,2.801,5.985,5.846,5.985c2.136,0,3.605-0.385,4.866-0.91L679.16,141.71z M676.291,130.859
			c0.034-2.311-0.91-5.181-4.026-5.181c-2.976,0-4.235,2.94-4.445,5.181H676.291z"/>
		<path fill="#FFFFFF" d="M718.607,123.193l-5.846,19.287h-3.676l-2.485-8.541c-0.595-2.03-1.015-3.886-1.435-6.16h-0.105
			c-0.385,2.31-0.91,4.271-1.506,6.195l-2.625,8.506h-3.676l-5.529-19.287h4.199l2.136,9.241c0.455,2.065,0.91,4.13,1.261,6.16
			h0.069c0.386-1.995,0.98-4.13,1.54-6.125l2.66-9.276h3.326l2.52,9.066c0.596,2.24,1.121,4.305,1.506,6.335h0.104
			c0.315-1.995,0.771-4.061,1.296-6.301l2.24-9.101H718.607z"/>
		<path fill="#FFFFFF" d="M724.658,120.218c-1.4,0-2.345-1.05-2.345-2.345c0-1.365,0.979-2.381,2.38-2.381s2.346,1.016,2.346,2.381
			C727.039,119.168,726.129,120.218,724.658,120.218z M726.689,142.48h-4.061v-19.322h4.061V142.48z"/>
		<path fill="#FFFFFF" d="M742.51,126.764c-0.351-0.07-0.735-0.104-1.19-0.104c-2.73,0-4.445,2.24-4.445,5.601v10.221h-4.061
			v-13.406c0-2.24-0.035-4.096-0.14-5.881h3.535l0.14,3.535h0.14c0.875-2.45,2.906-3.955,5.006-3.955
			c0.385,0,0.665,0.035,1.016,0.105V126.764z"/>
		<path fill="#FFFFFF" d="M760.675,141.71c-1.365,0.631-3.501,1.155-6.126,1.155c-5.811,0-9.171-3.885-9.171-9.766
			c0-5.74,3.221-10.326,8.681-10.326c5.426,0,7.596,4.516,7.596,9.276c0,0.665-0.034,1.225-0.104,1.715h-12.251
			c0.105,4.341,2.8,5.985,5.846,5.985c2.135,0,3.605-0.385,4.865-0.91L760.675,141.71z M757.805,130.859
			c0.035-2.311-0.91-5.181-4.025-5.181c-2.976,0-4.236,2.94-4.445,5.181H757.805z"/>
	</g>
</g>
<g>
	<g>
		<g enable-background="new    ">
			<path fill="#FFFFFF" d="M359.619,203.392c-0.875-0.49-2.555-1.19-4.76-1.19c-3.186,0-4.516,1.855-4.516,3.57
				c0,2.275,1.505,3.396,4.9,4.866c4.306,1.89,6.371,4.235,6.371,7.91c0,4.48-3.325,7.841-9.346,7.841
				c-2.521,0-5.181-0.734-6.476-1.61l0.91-3.395c1.436,0.875,3.605,1.575,5.811,1.575c3.185,0,4.97-1.646,4.97-4.061
				c0-2.275-1.365-3.676-4.55-5.006c-3.991-1.61-6.686-4.025-6.686-7.666c0-4.235,3.396-7.421,8.716-7.421
				c2.555,0,4.48,0.631,5.635,1.226L359.619,203.392z"/>
			<path fill="#FFFFFF" d="M368.683,203.741c-1.4,0-2.345-1.05-2.345-2.345c0-1.365,0.98-2.381,2.38-2.381
				c1.4,0,2.346,1.016,2.346,2.381C371.063,202.691,370.153,203.741,368.683,203.741z M370.713,226.004h-4.061v-19.322h4.061
				V226.004z"/>
			<path fill="#FFFFFF" d="M392.939,206.717c-0.105,1.365-0.175,2.976-0.175,5.565v10.991c0,3.851-0.315,10.956-9.451,10.956
				c-2.24,0-4.585-0.49-6.091-1.399l0.91-3.15c1.19,0.699,3.045,1.365,5.216,1.365c3.15,0,5.391-1.751,5.391-6.126v-1.855h-0.07
				c-0.98,1.646-2.87,2.835-5.355,2.835c-4.55,0-7.666-4.025-7.666-9.416c0-6.545,3.956-10.186,8.156-10.186
				c2.87,0,4.48,1.47,5.285,3.011h0.07l0.175-2.591H392.939z M388.704,214.173c0-2.556-1.68-4.655-4.166-4.655
				c-2.8,0-4.76,2.66-4.76,6.79c0,3.78,1.715,6.476,4.725,6.476c2.101,0,4.201-1.609,4.201-4.83V214.173z"/>
			<path fill="#FFFFFF" d="M414.779,226.004h-4.061v-11.307c0-2.729-0.91-5.04-3.676-5.04c-1.994,0-4.13,1.646-4.13,4.726v11.621
				h-4.061v-13.861c0-2.136-0.07-3.78-0.14-5.426h3.536l0.21,2.87h0.104c0.91-1.645,2.941-3.29,5.846-3.29
				c3.011,0,6.371,1.96,6.371,7.911V226.004z"/>
			<path fill="#FFFFFF" d="M434.309,221.418c0,1.646,0.035,3.326,0.28,4.586h-3.675l-0.281-2.24h-0.104
				c-1.085,1.505-2.976,2.625-5.391,2.625c-3.605,0-5.671-2.66-5.671-5.636c0-4.795,4.166-7.176,10.781-7.176
				c0-1.435,0-4.305-3.885-4.305c-1.715,0-3.466,0.524-4.691,1.33l-0.84-2.695c1.365-0.875,3.641-1.61,6.23-1.61
				c5.671,0,7.246,3.745,7.246,7.841V221.418z M430.354,216.308c-3.186,0-6.861,0.596-6.861,4.025c0,2.136,1.33,3.081,2.836,3.081
				c2.205,0,4.025-1.681,4.025-3.921V216.308z"/>
			<path fill="#FFFFFF" d="M444.388,226.004h-4.061v-28.073h4.061V226.004z"/>
			<path fill="#FFFFFF" d="M468.818,210.357c-0.771-0.49-2.101-1.085-3.676-1.085c-1.82,0-2.801,1.05-2.801,2.345
				c0,1.33,0.875,1.995,3.221,3.011c3.186,1.295,4.865,3.045,4.865,5.846c0,3.71-2.835,5.915-7.211,5.915
				c-2.029,0-3.955-0.524-5.25-1.295l0.91-3.01c0.98,0.595,2.766,1.295,4.41,1.295c2.17,0,3.221-1.051,3.221-2.521
				s-0.805-2.275-3.115-3.255c-3.431-1.365-4.936-3.291-4.936-5.531c0-3.22,2.625-5.775,6.686-5.775c1.891,0,3.535,0.525,4.586,1.12
				L468.818,210.357z"/>
			<path fill="#FFFFFF" d="M491.219,226.004h-4.061v-11.271c0-2.765-0.945-5.075-3.676-5.075c-1.994,0-4.13,1.646-4.13,4.551v11.796
				h-4.061v-28.073h4.061v11.411h0.069c1.261-1.995,3.431-3.045,5.531-3.045c2.905,0,6.266,1.96,6.266,8.051V226.004z"/>
			<path fill="#FFFFFF" d="M499.268,203.741c-1.4,0-2.346-1.05-2.346-2.345c0-1.365,0.98-2.381,2.38-2.381
				c1.4,0,2.345,1.016,2.345,2.381C501.646,202.691,500.737,203.741,499.268,203.741z M501.297,226.004h-4.061v-19.322h4.061
				V226.004z"/>
			<path fill="#FFFFFF" d="M521.528,225.233c-1.365,0.631-3.501,1.155-6.126,1.155c-5.811,0-9.17-3.885-9.17-9.766
				c0-5.74,3.22-10.326,8.68-10.326c5.426,0,7.596,4.516,7.596,9.276c0,0.665-0.035,1.225-0.104,1.715h-12.251
				c0.105,4.341,2.801,5.985,5.846,5.985c2.135,0,3.605-0.385,4.865-0.91L521.528,225.233z M518.658,214.383
				c0.035-2.311-0.91-5.181-4.025-5.181c-2.976,0-4.236,2.94-4.445,5.181H518.658z"/>
			<path fill="#FFFFFF" d="M531.397,226.004h-4.061v-28.073h4.061V226.004z"/>
			<path fill="#FFFFFF" d="M553.588,220.858c0,1.75,0.07,3.815,0.141,5.146h-3.57l-0.211-3.011h-0.104
				c-1.015,1.961-3.116,3.396-5.846,3.396c-4.376,0-7.7-3.885-7.7-9.836c0-6.546,3.744-10.256,8.051-10.256
				c2.484,0,4.27,1.12,5.109,2.59h0.07v-10.956h4.061V220.858z M549.527,214.522c0-3.15-1.995-5.005-4.27-5.005
				c-3.116,0-4.831,3.08-4.831,6.896c0,3.78,1.681,6.686,4.761,6.686c2.625,0,4.34-2.311,4.34-5.006V214.522z"/>
			<path fill="#FFFFFF" d="M561.706,203.741c-1.4,0-2.345-1.05-2.345-2.345c0-1.365,0.979-2.381,2.379-2.381
				c1.4,0,2.346,1.016,2.346,2.381C564.086,202.691,563.176,203.741,561.706,203.741z M563.736,226.004h-4.061v-19.322h4.061
				V226.004z"/>
			<path fill="#FFFFFF" d="M585.787,226.004h-4.061v-11.307c0-2.729-0.91-5.04-3.675-5.04c-1.995,0-4.13,1.646-4.13,4.726v11.621
				h-4.061v-13.861c0-2.136-0.07-3.78-0.141-5.426h3.535l0.211,2.87h0.104c0.91-1.645,2.94-3.29,5.846-3.29
				c3.011,0,6.37,1.96,6.37,7.911V226.004z"/>
			<path fill="#FFFFFF" d="M607.907,206.717c-0.104,1.365-0.175,2.976-0.175,5.565v10.991c0,3.851-0.314,10.956-9.451,10.956
				c-2.24,0-4.586-0.49-6.091-1.399l0.91-3.15c1.19,0.699,3.046,1.365,5.216,1.365c3.15,0,5.391-1.751,5.391-6.126v-1.855h-0.07
				c-0.98,1.646-2.87,2.835-5.355,2.835c-4.551,0-7.666-4.025-7.666-9.416c0-6.545,3.955-10.186,8.156-10.186
				c2.87,0,4.48,1.47,5.285,3.011h0.07l0.175-2.591H607.907z M603.672,214.173c0-2.556-1.68-4.655-4.166-4.655
				c-2.8,0-4.76,2.66-4.76,6.79c0,3.78,1.715,6.476,4.725,6.476c2.102,0,4.201-1.609,4.201-4.83V214.173z"/>
			<path fill="#FFFFFF" d="M626.631,226.004h-4.061v-28.073h4.061V226.004z"/>
			<path fill="#FFFFFF" d="M646.232,221.418c0,1.646,0.035,3.326,0.279,4.586h-3.675l-0.28-2.24h-0.105
				c-1.084,1.505-2.975,2.625-5.391,2.625c-3.605,0-5.67-2.66-5.67-5.636c0-4.795,4.166-7.176,10.781-7.176
				c0-1.435,0-4.305-3.886-4.305c-1.716,0-3.466,0.524-4.69,1.33l-0.84-2.695c1.365-0.875,3.641-1.61,6.23-1.61
				c5.67,0,7.246,3.745,7.246,7.841V221.418z M642.277,216.308c-3.186,0-6.861,0.596-6.861,4.025c0,2.136,1.33,3.081,2.836,3.081
				c2.205,0,4.025-1.681,4.025-3.921V216.308z"/>
			<path fill="#FFFFFF" d="M667.512,206.717l-4.655,13.371c-2.274,6.336-3.886,9.906-6.196,12.146
				c-1.75,1.61-3.535,2.275-4.48,2.485l-1.049-3.431c4.199-1.505,5.705-5.425,5.705-5.95c0-0.21-0.035-0.455-0.21-0.84
				l-6.616-17.782h4.445l3.501,10.852c0.386,1.26,0.771,2.729,1.05,3.85h0.105c0.279-1.12,0.665-2.555,1.016-3.85l3.115-10.852
				H667.512z"/>
			<path fill="#FFFFFF" d="M685.396,225.233c-1.365,0.631-3.5,1.155-6.125,1.155c-5.811,0-9.172-3.885-9.172-9.766
				c0-5.74,3.221-10.326,8.682-10.326c5.426,0,7.596,4.516,7.596,9.276c0,0.665-0.035,1.225-0.105,1.715H674.02
				c0.105,4.341,2.801,5.985,5.846,5.985c2.136,0,3.605-0.385,4.866-0.91L685.396,225.233z M682.526,214.383
				c0.034-2.311-0.91-5.181-4.026-5.181c-2.975,0-4.234,2.94-4.445,5.181H682.526z"/>
			<path fill="#FFFFFF" d="M700.9,210.287c-0.35-0.07-0.734-0.104-1.189-0.104c-2.73,0-4.445,2.24-4.445,5.601v10.221h-4.061
				v-13.406c0-2.24-0.035-4.096-0.141-5.881h3.536l0.14,3.535h0.141c0.875-2.45,2.904-3.955,5.005-3.955
				c0.386,0,0.665,0.035,1.015,0.105V210.287z"/>
		</g>
	</g>
</g>
<polyline fill="none" stroke="#339CD1" stroke-width="2" stroke-miterlimit="10" points="145.949,153.104 304.632,153.104 
	309.215,153.104 309.215,97.761 301.865,97.761 251.041,97.761 "/>
<line fill="none" stroke="#339CD1" stroke-width="2" stroke-miterlimit="10" x1="309.734" y1="124.74" x2="331.699" y2="124.74"/>
</svg>
