<?xml version="1.0" encoding="utf-8"?>
<!-- Generator: Adobe Illustrator 16.0.0, SVG Export Plug-In . SVG Version: 6.00 Build 0)  -->
<!DOCTYPE svg PUBLIC "-//W3C//DTD SVG 1.1//EN" "http://www.w3.org/Graphics/SVG/1.1/DTD/svg11.dtd">
<svg version="1.1" id="圖層_1" xmlns="http://www.w3.org/2000/svg" xmlns:xlink="http://www.w3.org/1999/xlink" x="0px" y="0px"
	 width="800px" height="326px" viewBox="0 0 800 326" enable-background="new 0 0 800 326" xml:space="preserve">
<g>
	<circle fill="#023148" stroke="#FFFFFF" stroke-width="6" stroke-miterlimit="10" cx="160.242" cy="161.787" r="133.498"/>
	<path fill="#717071" stroke="#FFFFFF" stroke-width="2" stroke-miterlimit="10" d="M270.388,161.787
		c0,60.83-49.315,110.146-110.146,110.146c-60.834,0-110.147-49.315-110.147-110.146c0-60.834,49.313-110.147,110.147-110.147
		C221.073,51.64,270.388,100.953,270.388,161.787z"/>
	<path fill="#023148" stroke="#FFFFFF" stroke-width="2" stroke-miterlimit="10" d="M261.903,161.787
		c0,56.15-45.516,101.666-101.66,101.666c-56.15,0-101.66-45.516-101.66-101.666c0-56.145,45.51-101.667,101.66-101.667
		C216.387,60.12,261.903,105.642,261.903,161.787z"/>
	<circle fill="#023148" stroke="#FFFFFF" stroke-width="2" stroke-miterlimit="10" cx="90.292" cy="184.408" r="20.316"/>
	<circle fill="#023148" stroke="#FFFFFF" stroke-width="2" stroke-miterlimit="10" cx="184.482" cy="184.591" r="20.316"/>
	<path fill="#023148" stroke="#FFFFFF" stroke-width="2" stroke-miterlimit="10" d="M202.279,141.708
		c0,11.222-9.095,20.316-20.316,20.316c-11.224,0-20.317-9.094-20.317-20.316c0-11.22,9.093-20.316,20.317-20.316
		C193.185,121.392,202.279,130.488,202.279,141.708z"/>
	<path fill="#023148" stroke="#FFFFFF" stroke-width="2" stroke-miterlimit="10" d="M250.206,140.049
		c0,11.222-9.095,20.318-20.314,20.318c-11.223,0-20.316-9.096-20.316-20.318c0-11.22,9.093-20.316,20.316-20.316
		C241.111,119.733,250.206,128.829,250.206,140.049z"/>
	<circle fill="#023148" stroke="#FFFFFF" stroke-width="2" stroke-miterlimit="10" cx="90.264" cy="141.822" r="20.316"/>
	<circle fill="#023148" stroke="#FFFFFF" stroke-width="2" stroke-miterlimit="10" cx="137.597" cy="141.559" r="20.316"/>
	<path fill="#023148" stroke="#FFFFFF" stroke-width="2" stroke-miterlimit="10" d="M225.879,102.383
		c0,11.223-9.095,20.319-20.316,20.319s-20.314-9.096-20.314-20.319c0-11.22,9.093-20.313,20.314-20.313
		S225.879,91.163,225.879,102.383z"/>
	<path fill="#023148" stroke="#FFFFFF" stroke-width="2" stroke-miterlimit="10" d="M137.334,102.651
		c0,11.224-9.097,20.317-20.317,20.317c-11.221,0-20.316-9.093-20.316-20.317c0-11.22,9.095-20.316,20.316-20.316
		C128.237,82.335,137.334,91.431,137.334,102.651z"/>
	<circle fill="#023148" stroke="#FFFFFF" stroke-width="2" stroke-miterlimit="10" cx="160.889" cy="89.794" r="20.316"/>
	<circle fill="#023148" stroke="#FFFFFF" stroke-width="2" stroke-miterlimit="10" cx="139.168" cy="185.632" r="20.317"/>
	<circle fill="#023148" stroke="#FFFFFF" stroke-width="2" stroke-miterlimit="10" cx="161.512" cy="234.603" r="20.316"/>
	<circle fill="#023148" stroke="#FFFFFF" stroke-width="2" stroke-miterlimit="10" cx="207.71" cy="222.475" r="20.317"/>
	<circle fill="#023148" stroke="#FFFFFF" stroke-width="2" stroke-miterlimit="10" cx="115.675" cy="224.006" r="20.316"/>
	<path fill="#023148" stroke="#FFFFFF" stroke-width="2" stroke-miterlimit="10" d="M252.782,184.974
		c0,11.222-9.095,20.32-20.317,20.32c-11.221,0-20.315-9.098-20.315-20.32c0-11.22,9.094-20.313,20.315-20.313
		C243.688,164.661,252.782,173.754,252.782,184.974z"/>
	<g>
		<text transform="matrix(1 0 0 1 363.7363 144.1406)"><tspan x="0" y="0" fill="#FFFFFF" font-family="'AdobeFanHeitiStd-Bold-B5pc-H'" font-size="38.881" letter-spacing="2">外被使用Silicone環保</tspan><tspan x="0" y="46.171" fill="#FFFFFF" font-family="'AdobeFanHeitiStd-Bold-B5pc-H'" font-size="38.881" letter-spacing="2">材質，訊號結合電力</tspan><tspan x="0" y="92.342" fill="#FFFFFF" font-family="'AdobeFanHeitiStd-Bold-B5pc-H'" font-size="38.881" letter-spacing="2">多芯線</tspan></text>
	</g>
	
		<line fill="none" stroke="#FFF000" stroke-width="2" stroke-miterlimit="10" x1="276.943" y1="135.714" x2="331.727" y2="135.714"/>
	
		<line fill="none" stroke="#FFF000" stroke-width="2" stroke-miterlimit="10" x1="205.315" y1="219.791" x2="331.727" y2="219.791"/>
	
		<line fill="none" stroke="#FFF000" stroke-width="2" stroke-miterlimit="10" x1="331.727" y1="135.714" x2="331.727" y2="219.791"/>
	
		<line fill="none" stroke="#FFF000" stroke-width="2" stroke-miterlimit="10" x1="331.727" y1="179.512" x2="352.693" y2="179.512"/>
</g>
</svg>
