<?xml version="1.0" encoding="utf-8"?>
<!-- Generator: Adobe Illustrator 16.0.0, SVG Export Plug-In . SVG Version: 6.00 Build 0)  -->
<!DOCTYPE svg PUBLIC "-//W3C//DTD SVG 1.1//EN" "http://www.w3.org/Graphics/SVG/1.1/DTD/svg11.dtd">
<svg version="1.1" id="圖層_1" xmlns="http://www.w3.org/2000/svg" xmlns:xlink="http://www.w3.org/1999/xlink" x="0px" y="0px"
	 width="800px" height="326px" viewBox="0 0 800 326" enable-background="new 0 0 800 326" xml:space="preserve">
<g>
	<circle fill="#023148" stroke="#FFFFFF" stroke-width="6" stroke-miterlimit="10" cx="160.242" cy="161.787" r="133.498"/>
	<path fill="#717071" stroke="#FFFFFF" stroke-width="2" stroke-miterlimit="10" d="M270.388,161.787
		c0,60.83-49.315,110.146-110.146,110.146c-60.834,0-110.147-49.314-110.147-110.146c0-60.834,49.313-110.147,110.147-110.147
		C221.073,51.64,270.388,100.953,270.388,161.787z"/>
	<path fill="#023148" stroke="#FFFFFF" stroke-width="2" stroke-miterlimit="10" d="M261.903,161.787
		c0,56.149-45.516,101.666-101.66,101.666c-56.15,0-101.66-45.517-101.66-101.666c0-56.146,45.51-101.667,101.66-101.667
		C216.387,60.12,261.903,105.642,261.903,161.787z"/>
	<circle fill="#023148" stroke="#FFFFFF" stroke-width="2" stroke-miterlimit="10" cx="90.292" cy="184.408" r="20.316"/>
	<circle fill="#023148" stroke="#FFFFFF" stroke-width="2" stroke-miterlimit="10" cx="184.482" cy="184.591" r="20.316"/>
	<path fill="#023148" stroke="#FFFFFF" stroke-width="2" stroke-miterlimit="10" d="M202.279,141.708
		c0,11.222-9.095,20.315-20.316,20.315c-11.224,0-20.317-9.094-20.317-20.315c0-11.221,9.093-20.316,20.317-20.316
		C193.185,121.392,202.279,130.488,202.279,141.708z"/>
	<path fill="#023148" stroke="#FFFFFF" stroke-width="2" stroke-miterlimit="10" d="M250.206,140.049
		c0,11.222-9.095,20.318-20.314,20.318c-11.223,0-20.316-9.097-20.316-20.318c0-11.22,9.093-20.316,20.316-20.316
		C241.111,119.733,250.206,128.829,250.206,140.049z"/>
	<circle fill="#023148" stroke="#FFFFFF" stroke-width="2" stroke-miterlimit="10" cx="90.264" cy="141.822" r="20.316"/>
	<circle fill="#023148" stroke="#FFFFFF" stroke-width="2" stroke-miterlimit="10" cx="137.597" cy="141.559" r="20.316"/>
	<path fill="#023148" stroke="#FFFFFF" stroke-width="2" stroke-miterlimit="10" d="M225.879,102.383
		c0,11.223-9.095,20.319-20.316,20.319s-20.314-9.097-20.314-20.319c0-11.22,9.093-20.313,20.314-20.313
		S225.879,91.163,225.879,102.383z"/>
	<path fill="#023148" stroke="#FFFFFF" stroke-width="2" stroke-miterlimit="10" d="M137.334,102.651
		c0,11.225-9.097,20.317-20.317,20.317c-11.221,0-20.316-9.093-20.316-20.317c0-11.22,9.095-20.315,20.316-20.315
		C128.237,82.335,137.334,91.431,137.334,102.651z"/>
	<circle fill="#023148" stroke="#FFFFFF" stroke-width="2" stroke-miterlimit="10" cx="160.889" cy="89.794" r="20.316"/>
	<circle fill="#023148" stroke="#FFFFFF" stroke-width="2" stroke-miterlimit="10" cx="139.168" cy="185.632" r="20.317"/>
	<circle fill="#023148" stroke="#FFFFFF" stroke-width="2" stroke-miterlimit="10" cx="161.512" cy="234.603" r="20.316"/>
	<circle fill="#023148" stroke="#FFFFFF" stroke-width="2" stroke-miterlimit="10" cx="207.71" cy="222.475" r="20.317"/>
	<circle fill="#023148" stroke="#FFFFFF" stroke-width="2" stroke-miterlimit="10" cx="115.675" cy="224.006" r="20.316"/>
	<path fill="#023148" stroke="#FFFFFF" stroke-width="2" stroke-miterlimit="10" d="M252.782,184.974
		c0,11.222-9.095,20.32-20.317,20.32c-11.221,0-20.315-9.099-20.315-20.32c0-11.22,9.094-20.313,20.315-20.313
		C243.688,164.661,252.782,173.754,252.782,184.974z"/>
	
		<line fill="none" stroke="#FFF000" stroke-width="2" stroke-miterlimit="10" x1="276.943" y1="135.714" x2="331.727" y2="135.714"/>
	
		<line fill="none" stroke="#FFF000" stroke-width="2" stroke-miterlimit="10" x1="205.315" y1="219.791" x2="331.727" y2="219.791"/>
	
		<line fill="none" stroke="#FFF000" stroke-width="2" stroke-miterlimit="10" x1="331.727" y1="135.714" x2="331.727" y2="219.791"/>
	
		<line fill="none" stroke="#FFF000" stroke-width="2" stroke-miterlimit="10" x1="331.727" y1="179.512" x2="352.693" y2="179.512"/>
</g>
<g>
	<path fill="#FFFFFF" d="M384.403,127.993h-13.343v-24.478h12.799v3.104h-9.087v7.072h8.576v3.072h-8.576v8.127h9.631V127.993z"/>
	<path fill="#FFFFFF" d="M402.547,127.993h-3.712v-10.335c0-2.496-0.832-4.607-3.359-4.607c-1.824,0-3.776,1.504-3.776,4.32v10.623
		h-3.712v-12.671c0-1.952-0.064-3.456-0.128-4.96h3.232l0.192,2.624h0.096c0.832-1.504,2.688-3.008,5.343-3.008
		c2.752,0,5.824,1.792,5.824,7.231V127.993z"/>
	<path fill="#FFFFFF" d="M421.331,110.362l-6.336,17.631h-3.552l-6.176-17.631h4l2.88,9.375c0.48,1.536,0.864,3.008,1.184,4.479
		h0.097c0.319-1.472,0.735-2.912,1.184-4.448l2.848-9.407H421.331z"/>
	<path fill="#FFFFFF" d="M425.939,107.642c-1.28,0-2.144-0.96-2.144-2.144c0-1.248,0.896-2.176,2.176-2.176
		c1.279,0,2.144,0.928,2.144,2.176C428.115,106.682,427.283,107.642,425.939,107.642z M427.795,127.993h-3.711V110.33h3.711V127.993
		z"/>
	<path fill="#FFFFFF" d="M441.428,113.626c-0.32-0.064-0.672-0.096-1.088-0.096c-2.496,0-4.064,2.048-4.064,5.12v9.343h-3.711
		v-12.255c0-2.048-0.032-3.744-0.128-5.376h3.231l0.128,3.232h0.128c0.8-2.24,2.656-3.616,4.576-3.616
		c0.352,0,0.607,0.032,0.928,0.096V113.626z"/>
	<path fill="#FFFFFF" d="M459.507,119.033c0,6.592-4.287,9.312-8.255,9.312c-4.576,0-8.063-3.36-8.063-9.056
		c0-5.951,3.647-9.311,8.319-9.311C456.34,109.978,459.507,113.626,459.507,119.033z M451.38,112.762
		c-3.168,0-4.384,3.392-4.384,6.432c0,3.456,1.632,6.368,4.352,6.368c2.688,0,4.352-2.912,4.352-6.432
		C455.699,116.218,454.483,112.762,451.38,112.762z"/>
	<path fill="#FFFFFF" d="M477.747,127.993h-3.712v-10.335c0-2.496-0.832-4.607-3.359-4.607c-1.824,0-3.776,1.504-3.776,4.32v10.623
		h-3.711v-12.671c0-1.952-0.064-3.456-0.128-4.96h3.231l0.192,2.624h0.096c0.832-1.504,2.688-3.008,5.344-3.008
		c2.752,0,5.823,1.792,5.823,7.231V127.993z"/>
	<path fill="#FFFFFF" d="M506.609,127.993h-3.647v-10.079c0-2.944-0.96-4.896-3.199-4.896c-1.696,0-3.424,1.536-3.424,4.096v10.879
		h-3.648V117.37c0-2.464-0.928-4.352-3.071-4.352c-1.664,0-3.552,1.504-3.552,4.288v10.687h-3.647v-12.671
		c0-1.984-0.064-3.456-0.128-4.96h3.199l0.192,2.592h0.096c0.864-1.472,2.464-2.976,5.151-2.976c2.24,0,3.936,1.248,4.672,3.232
		h0.064c1.184-1.952,2.911-3.232,5.439-3.232c2.624,0,5.503,1.792,5.503,7.359V127.993z"/>
	<path fill="#FFFFFF" d="M524.146,127.289c-1.248,0.576-3.199,1.056-5.6,1.056c-5.312,0-8.383-3.552-8.383-8.927
		c0-5.248,2.943-9.439,7.935-9.439c4.96,0,6.944,4.127,6.944,8.479c0,0.608-0.032,1.12-0.097,1.568h-11.199
		c0.097,3.968,2.561,5.472,5.344,5.472c1.952,0,3.296-0.352,4.448-0.832L524.146,127.289z M521.522,117.37
		c0.032-2.112-0.831-4.736-3.68-4.736c-2.72,0-3.871,2.688-4.063,4.736H521.522z"/>
	<path fill="#FFFFFF" d="M543.187,127.993h-3.712v-10.335c0-2.496-0.832-4.607-3.359-4.607c-1.824,0-3.776,1.504-3.776,4.32v10.623
		h-3.711v-12.671c0-1.952-0.064-3.456-0.128-4.96h3.231l0.192,2.624h0.096c0.832-1.504,2.688-3.008,5.344-3.008
		c2.752,0,5.823,1.792,5.823,7.231V127.993z"/>
	<path fill="#FFFFFF" d="M548.595,107.162l3.68-1.152v4.352h4.192v2.784h-4.192v8.928c0,2.176,0.672,3.231,2.24,3.231
		c0.736,0,1.184-0.096,1.632-0.224l0.128,2.848c-0.64,0.256-1.632,0.416-2.88,0.416c-1.472,0-2.72-0.48-3.487-1.344
		c-0.896-0.96-1.313-2.432-1.313-4.736v-9.12H546.1v-2.784h2.495V107.162z"/>
	<path fill="#FFFFFF" d="M572.018,123.801c0,1.504,0.032,3.04,0.256,4.192h-3.359l-0.256-2.048h-0.097
		c-0.991,1.376-2.72,2.4-4.927,2.4c-3.296,0-5.184-2.432-5.184-5.152c0-4.383,3.808-6.56,9.854-6.56c0-1.312,0-3.936-3.552-3.936
		c-1.567,0-3.167,0.48-4.287,1.216l-0.769-2.464c1.248-0.8,3.328-1.472,5.696-1.472c5.184,0,6.623,3.424,6.623,7.167V123.801z
		 M568.402,119.13c-2.912,0-6.271,0.544-6.271,3.68c0,1.952,1.216,2.816,2.592,2.816c2.016,0,3.68-1.536,3.68-3.584V119.13z"/>
	<path fill="#FFFFFF" d="M580.402,127.993h-3.711v-25.662h3.711V127.993z"/>
	<path fill="#FFFFFF" d="M588.85,127.993h-3.711v-25.662h3.711V127.993z"/>
	<path fill="#FFFFFF" d="M607.536,110.362l-4.255,12.223c-2.08,5.792-3.552,9.056-5.664,11.104c-1.6,1.472-3.231,2.08-4.096,2.271
		l-0.96-3.136c3.84-1.376,5.216-4.959,5.216-5.439c0-0.192-0.032-0.416-0.192-0.768l-6.047-16.255h4.063l3.199,9.919
		c0.353,1.152,0.704,2.496,0.96,3.52h0.097c0.256-1.024,0.607-2.335,0.928-3.52l2.848-9.919H607.536z"/>
	<path fill="#FFFFFF" d="M617.81,110.362c0-1.92,0-4.768,1.984-6.751c1.216-1.184,2.848-1.632,4.287-1.632
		c1.152,0,2.048,0.224,2.688,0.48l-0.385,2.848c-0.479-0.192-1.023-0.352-1.888-0.352c-2.304,0-3.008,2.08-3.008,4.448v0.96h3.872
		v2.784h-3.84v14.847h-3.712v-14.847h-2.368v-2.784H617.81z"/>
	<path fill="#FFFFFF" d="M636.816,113.626c-0.32-0.064-0.672-0.096-1.088-0.096c-2.496,0-4.064,2.048-4.064,5.12v9.343h-3.711
		v-12.255c0-2.048-0.032-3.744-0.128-5.376h3.231l0.128,3.232h0.128c0.8-2.24,2.656-3.616,4.576-3.616
		c0.352,0,0.607,0.032,0.928,0.096V113.626z"/>
	<path fill="#FFFFFF" d="M641.553,107.642c-1.28,0-2.144-0.96-2.144-2.144c0-1.248,0.896-2.176,2.176-2.176
		c1.279,0,2.144,0.928,2.144,2.176C643.729,106.682,642.896,107.642,641.553,107.642z M643.408,127.993h-3.711V110.33h3.711V127.993
		z"/>
	<path fill="#FFFFFF" d="M661.072,127.289c-1.248,0.576-3.199,1.056-5.6,1.056c-5.312,0-8.383-3.552-8.383-8.927
		c0-5.248,2.943-9.439,7.935-9.439c4.96,0,6.944,4.127,6.944,8.479c0,0.608-0.032,1.12-0.097,1.568h-11.199
		c0.097,3.968,2.561,5.472,5.344,5.472c1.952,0,3.296-0.352,4.448-0.832L661.072,127.289z M658.448,117.37
		c0.032-2.112-0.831-4.736-3.68-4.736c-2.72,0-3.871,2.688-4.063,4.736H658.448z"/>
	<path fill="#FFFFFF" d="M680.112,127.993H676.4v-10.335c0-2.496-0.832-4.607-3.359-4.607c-1.824,0-3.776,1.504-3.776,4.32v10.623
		h-3.711v-12.671c0-1.952-0.064-3.456-0.128-4.96h3.231l0.192,2.624h0.096c0.832-1.504,2.688-3.008,5.344-3.008
		c2.752,0,5.823,1.792,5.823,7.231V127.993z"/>
	<path fill="#FFFFFF" d="M699.504,123.289c0,1.6,0.063,3.488,0.128,4.704h-3.264l-0.192-2.752h-0.096
		c-0.928,1.792-2.848,3.104-5.344,3.104c-4,0-7.039-3.552-7.039-8.991c0-5.984,3.424-9.375,7.359-9.375
		c2.271,0,3.903,1.024,4.671,2.368h0.064v-10.015h3.712V123.289z M695.792,117.498c0-2.88-1.824-4.576-3.903-4.576
		c-2.849,0-4.416,2.816-4.416,6.303c0,3.456,1.536,6.112,4.352,6.112c2.4,0,3.968-2.112,3.968-4.576V117.498z"/>
	<path fill="#FFFFFF" d="M707.951,127.993h-3.711v-25.662h3.711V127.993z"/>
	<path fill="#FFFFFF" d="M726.638,110.362l-4.255,12.223c-2.08,5.792-3.552,9.056-5.664,11.104c-1.6,1.472-3.231,2.08-4.096,2.271
		l-0.96-3.136c3.84-1.376,5.216-4.959,5.216-5.439c0-0.192-0.032-0.416-0.192-0.768l-6.047-16.255h4.063l3.199,9.919
		c0.353,1.152,0.704,2.496,0.96,3.52h0.097c0.256-1.024,0.607-2.335,0.928-3.52l2.848-9.919H726.638z"/>
	<path fill="#FFFFFF" d="M379.636,152.09c-0.704-0.448-1.92-0.992-3.36-0.992c-1.664,0-2.56,0.96-2.56,2.144
		c0,1.216,0.8,1.824,2.943,2.751c2.912,1.184,4.448,2.784,4.448,5.344c0,3.392-2.592,5.407-6.591,5.407
		c-1.856,0-3.616-0.479-4.8-1.184l0.832-2.752c0.896,0.544,2.528,1.184,4.032,1.184c1.984,0,2.944-0.959,2.944-2.303
		s-0.736-2.08-2.848-2.976c-3.136-1.248-4.512-3.007-4.512-5.055c0-2.944,2.399-5.28,6.111-5.28c1.728,0,3.232,0.48,4.192,1.024
		L379.636,152.09z"/>
	<path fill="#FFFFFF" d="M386.58,146.042c-1.28,0-2.144-0.96-2.144-2.144c0-1.248,0.896-2.176,2.176-2.176
		c1.28,0,2.144,0.928,2.144,2.176C388.756,145.082,387.924,146.042,386.58,146.042z M388.436,166.393h-3.712V148.73h3.712V166.393z"
		/>
	<path fill="#FFFFFF" d="M396.916,166.393h-3.712v-25.662h3.712V166.393z"/>
	<path fill="#FFFFFF" d="M403.508,146.042c-1.279,0-2.144-0.96-2.144-2.144c0-1.248,0.896-2.176,2.176-2.176
		s2.144,0.928,2.144,2.176C405.684,145.082,404.852,146.042,403.508,146.042z M405.363,166.393h-3.711V148.73h3.711V166.393z"/>
	<path fill="#FFFFFF" d="M422.004,165.849c-0.832,0.384-2.496,0.896-4.544,0.896c-5.088,0-8.415-3.487-8.415-8.991
		c0-5.344,3.455-9.375,9.119-9.375c1.695,0,3.168,0.416,3.936,0.8l-0.736,2.848c-0.64-0.32-1.663-0.704-3.167-0.704
		c-3.456,0-5.376,2.816-5.376,6.271c0,3.872,2.271,6.175,5.344,6.175c1.472,0,2.496-0.352,3.327-0.704L422.004,165.849z"/>
	<path fill="#FFFFFF" d="M440.53,157.433c0,6.592-4.287,9.311-8.255,9.311c-4.576,0-8.063-3.359-8.063-9.055
		c0-5.952,3.647-9.312,8.319-9.312C437.363,148.378,440.53,152.026,440.53,157.433z M432.403,151.162
		c-3.168,0-4.384,3.392-4.384,6.432c0,3.456,1.632,6.368,4.352,6.368c2.688,0,4.352-2.912,4.352-6.432
		C436.723,154.617,435.507,151.162,432.403,151.162z"/>
	<path fill="#FFFFFF" d="M458.771,166.393h-3.712v-10.335c0-2.496-0.832-4.607-3.359-4.607c-1.824,0-3.776,1.504-3.776,4.32v10.623
		h-3.711v-12.671c0-1.952-0.064-3.456-0.128-4.96h3.231l0.192,2.624h0.096c0.832-1.504,2.688-3.008,5.344-3.008
		c2.752,0,5.823,1.792,5.823,7.231V166.393z"/>
	<path fill="#FFFFFF" d="M476.338,165.689c-1.248,0.576-3.199,1.056-5.6,1.056c-5.312,0-8.383-3.551-8.383-8.927
		c0-5.248,2.943-9.439,7.935-9.439c4.96,0,6.944,4.127,6.944,8.479c0,0.608-0.032,1.12-0.097,1.568h-11.199
		c0.097,3.968,2.561,5.471,5.344,5.471c1.952,0,3.296-0.352,4.448-0.832L476.338,165.689z M473.714,155.77
		c0.032-2.112-0.831-4.736-3.68-4.736c-2.72,0-3.871,2.688-4.063,4.736H473.714z"/>
	<path fill="#FFFFFF" d="M489.843,146.042c-1.28,0-2.144-0.96-2.144-2.144c0-1.248,0.896-2.176,2.176-2.176
		c1.279,0,2.144,0.928,2.144,2.176C492.019,145.082,491.187,146.042,489.843,146.042z M491.698,166.393h-3.711V148.73h3.711V166.393
		z"/>
	<path fill="#FFFFFF" d="M511.025,166.393h-3.712v-10.335c0-2.496-0.832-4.607-3.359-4.607c-1.824,0-3.776,1.504-3.776,4.32v10.623
		h-3.711v-12.671c0-1.952-0.064-3.456-0.128-4.96h3.231l0.192,2.624h0.096c0.832-1.504,2.688-3.008,5.344-3.008
		c2.752,0,5.823,1.792,5.823,7.231V166.393z"/>
	<path fill="#FFFFFF" d="M524.466,152.09c-0.703-0.448-1.92-0.992-3.359-0.992c-1.664,0-2.56,0.96-2.56,2.144
		c0,1.216,0.8,1.824,2.943,2.751c2.912,1.184,4.448,2.784,4.448,5.344c0,3.392-2.592,5.407-6.592,5.407
		c-1.855,0-3.616-0.479-4.8-1.184l0.832-2.752c0.896,0.544,2.527,1.184,4.031,1.184c1.984,0,2.944-0.959,2.944-2.303
		s-0.736-2.08-2.848-2.976c-3.136-1.248-4.512-3.007-4.512-5.055c0-2.944,2.399-5.28,6.111-5.28c1.728,0,3.231,0.48,4.191,1.024
		L524.466,152.09z"/>
	<path fill="#FFFFFF" d="M543.89,161.337c0,1.984,0.096,3.647,0.159,5.056h-3.264l-0.191-2.56h-0.097
		c-0.735,1.216-2.463,2.911-5.312,2.911c-3.039,0-5.695-1.888-5.695-7.519V148.73h3.712v9.887c0,3.04,0.864,5.056,3.296,5.056
		c1.695,0,3.68-1.344,3.68-4v-10.911h3.712V161.337z"/>
	<path fill="#FFFFFF" d="M552.369,166.393h-3.711v-25.662h3.711V166.393z"/>
	<path fill="#FFFFFF" d="M569.456,162.201c0,1.504,0.032,3.04,0.256,4.192h-3.359l-0.256-2.048h-0.096
		c-0.992,1.376-2.721,2.399-4.928,2.399c-3.296,0-5.184-2.432-5.184-5.151c0-4.383,3.808-6.56,9.854-6.56
		c0-1.312,0-3.936-3.552-3.936c-1.567,0-3.167,0.48-4.287,1.216l-0.769-2.464c1.248-0.8,3.328-1.472,5.696-1.472
		c5.184,0,6.623,3.424,6.623,7.167V162.201z M565.841,157.53c-2.912,0-6.271,0.544-6.271,3.68c0,1.952,1.216,2.816,2.592,2.816
		c2.016,0,3.68-1.537,3.68-3.584V157.53z"/>
	<path fill="#FFFFFF" d="M574.864,145.562l3.68-1.152v4.352h4.192v2.784h-4.192v8.927c0,2.176,0.672,3.232,2.24,3.232
		c0.736,0,1.184-0.096,1.632-0.224l0.128,2.847c-0.64,0.256-1.632,0.416-2.88,0.416c-1.472,0-2.72-0.479-3.487-1.344
		c-0.896-0.959-1.313-2.432-1.313-4.735v-9.119h-2.495v-2.784h2.495V145.562z"/>
	<path fill="#FFFFFF" d="M587.792,146.042c-1.28,0-2.144-0.96-2.144-2.144c0-1.248,0.896-2.176,2.176-2.176
		c1.279,0,2.144,0.928,2.144,2.176C589.968,145.082,589.136,146.042,587.792,146.042z M589.647,166.393h-3.711V148.73h3.711V166.393
		z"/>
	<path fill="#FFFFFF" d="M609.614,157.433c0,6.592-4.287,9.311-8.255,9.311c-4.576,0-8.063-3.359-8.063-9.055
		c0-5.952,3.647-9.312,8.319-9.312C606.447,148.378,609.614,152.026,609.614,157.433z M601.487,151.162
		c-3.168,0-4.384,3.392-4.384,6.432c0,3.456,1.632,6.368,4.352,6.368c2.688,0,4.352-2.912,4.352-6.432
		C605.807,154.617,604.591,151.162,601.487,151.162z"/>
	<path fill="#FFFFFF" d="M627.854,166.393h-3.712v-10.335c0-2.496-0.832-4.607-3.359-4.607c-1.824,0-3.776,1.504-3.776,4.32v10.623
		h-3.711v-12.671c0-1.952-0.064-3.456-0.128-4.96h3.231l0.192,2.624h0.096c0.832-1.504,2.688-3.008,5.344-3.008
		c2.752,0,5.823,1.792,5.823,7.231V166.393z"/>
	<path fill="#FFFFFF" d="M636.942,161.433c-0.928,3.2-2.527,7.167-3.743,9.183l-2.561,0.256c0.896-2.432,1.856-6.271,2.272-9.087
		L636.942,161.433z"/>
	<path fill="#FFFFFF" d="M670.35,148.762l-5.344,17.631h-3.359l-2.272-7.808c-0.544-1.855-0.928-3.552-1.312-5.631h-0.096
		c-0.353,2.112-0.832,3.904-1.376,5.664l-2.4,7.775h-3.359l-5.056-17.631h3.84l1.952,8.448c0.416,1.888,0.832,3.775,1.151,5.631
		h0.064c0.352-1.824,0.896-3.776,1.407-5.6l2.433-8.479h3.039l2.304,8.288c0.544,2.048,1.024,3.936,1.376,5.792h0.097
		c0.288-1.824,0.703-3.712,1.184-5.76l2.048-8.319H670.35z"/>
	<path fill="#FFFFFF" d="M675.055,146.042c-1.28,0-2.144-0.96-2.144-2.144c0-1.248,0.896-2.176,2.176-2.176
		c1.279,0,2.144,0.928,2.144,2.176C677.23,145.082,676.398,146.042,675.055,146.042z M676.91,166.393h-3.711V148.73h3.711V166.393z"
		/>
	<path fill="#FFFFFF" d="M682.415,145.562l3.68-1.152v4.352h4.192v2.784h-4.192v8.927c0,2.176,0.672,3.232,2.24,3.232
		c0.736,0,1.184-0.096,1.632-0.224l0.128,2.847c-0.64,0.256-1.632,0.416-2.88,0.416c-1.472,0-2.72-0.479-3.487-1.344
		c-0.896-0.959-1.313-2.432-1.313-4.735v-9.119h-2.495v-2.784h2.495V145.562z"/>
	<path fill="#FFFFFF" d="M708.046,166.393h-3.712V156.09c0-2.528-0.863-4.64-3.359-4.64c-1.824,0-3.776,1.504-3.776,4.16v10.783
		h-3.711v-25.662h3.711v10.431h0.064c1.152-1.824,3.136-2.784,5.056-2.784c2.656,0,5.728,1.792,5.728,7.359V166.393z"/>
	<path fill="#FFFFFF" d="M385.587,200.089c0,1.6,0.064,3.487,0.128,4.704h-3.264l-0.192-2.752h-0.096
		c-0.928,1.791-2.848,3.104-5.344,3.104c-4,0-7.04-3.552-7.04-8.991c0-5.983,3.424-9.376,7.359-9.376
		c2.272,0,3.904,1.024,4.672,2.368h0.064v-10.015h3.712V200.089z M381.875,194.297c0-2.879-1.824-4.575-3.904-4.575
		c-2.848,0-4.416,2.815-4.416,6.304c0,3.455,1.536,6.111,4.352,6.111c2.4,0,3.968-2.111,3.968-4.576V194.297z"/>
	<path fill="#FFFFFF" d="M402.675,200.601c0,1.504,0.032,3.04,0.257,4.192h-3.36l-0.256-2.049h-0.096
		c-0.992,1.377-2.72,2.4-4.928,2.4c-3.296,0-5.184-2.432-5.184-5.152c0-4.383,3.808-6.559,9.855-6.559c0-1.313,0-3.936-3.552-3.936
		c-1.568,0-3.168,0.479-4.288,1.215l-0.768-2.463c1.248-0.801,3.328-1.473,5.695-1.473c5.183,0,6.624,3.424,6.624,7.168V200.601z
		 M399.059,195.93c-2.912,0-6.271,0.543-6.271,3.68c0,1.951,1.216,2.815,2.592,2.815c2.016,0,3.68-1.536,3.68-3.584V195.93z"/>
	<path fill="#FFFFFF" d="M408.084,183.962l3.68-1.151v4.352h4.191v2.783h-4.191v8.928c0,2.176,0.672,3.231,2.239,3.231
		c0.736,0,1.185-0.096,1.632-0.224l0.129,2.848c-0.641,0.256-1.633,0.416-2.88,0.416c-1.473,0-2.72-0.48-3.488-1.344
		c-0.896-0.96-1.312-2.432-1.312-4.736v-9.119h-2.496v-2.783h2.496V183.962z"/>
	<path fill="#FFFFFF" d="M431.507,200.601c0,1.504,0.032,3.04,0.256,4.192h-3.359l-0.256-2.049h-0.096
		c-0.992,1.377-2.721,2.4-4.928,2.4c-3.296,0-5.184-2.432-5.184-5.152c0-4.383,3.808-6.559,9.854-6.559c0-1.313,0-3.936-3.552-3.936
		c-1.567,0-3.167,0.479-4.287,1.215l-0.769-2.463c1.248-0.801,3.328-1.473,5.696-1.473c5.184,0,6.623,3.424,6.623,7.168V200.601z
		 M427.892,195.93c-2.912,0-6.271,0.543-6.271,3.68c0,1.951,1.216,2.815,2.592,2.815c2.016,0,3.68-1.536,3.68-3.584V195.93z"/>
	<path fill="#FFFFFF" d="M436.596,206.264h-2.688l9.151-26.334h2.72L436.596,206.264z"/>
	<path fill="#FFFFFF" d="M460.914,204.088c-1.248,0.576-3.199,1.057-5.6,1.057c-5.312,0-8.383-3.552-8.383-8.928
		c0-5.247,2.943-9.439,7.935-9.439c4.96,0,6.944,4.128,6.944,8.48c0,0.607-0.032,1.119-0.097,1.567h-11.199
		c0.097,3.968,2.561,5.472,5.344,5.472c1.952,0,3.296-0.352,4.448-0.832L460.914,204.088z M458.29,194.17
		c0.032-2.112-0.831-4.736-3.68-4.736c-2.72,0-3.871,2.688-4.063,4.736H458.29z"/>
	<path fill="#FFFFFF" d="M469.106,204.793h-3.711v-25.662h3.711V204.793z"/>
	<path fill="#FFFFFF" d="M486.738,204.088c-1.248,0.576-3.199,1.057-5.6,1.057c-5.312,0-8.383-3.552-8.383-8.928
		c0-5.247,2.943-9.439,7.935-9.439c4.96,0,6.944,4.128,6.944,8.48c0,0.607-0.032,1.119-0.097,1.567h-11.199
		c0.097,3.968,2.561,5.472,5.344,5.472c1.952,0,3.296-0.352,4.448-0.832L486.738,204.088z M484.114,194.17
		c0.032-2.112-0.831-4.736-3.68-4.736c-2.72,0-3.871,2.688-4.063,4.736H484.114z"/>
	<path fill="#FFFFFF" d="M503.091,204.248c-0.832,0.385-2.496,0.896-4.544,0.896c-5.088,0-8.415-3.488-8.415-8.991
		c0-5.344,3.455-9.376,9.119-9.376c1.695,0,3.168,0.416,3.936,0.801l-0.736,2.848c-0.64-0.32-1.663-0.704-3.167-0.704
		c-3.456,0-5.376,2.815-5.376,6.271c0,3.872,2.271,6.175,5.344,6.175c1.472,0,2.496-0.352,3.327-0.703L503.091,204.248z"/>
	<path fill="#FFFFFF" d="M507.155,183.962l3.68-1.151v4.352h4.192v2.783h-4.192v8.928c0,2.176,0.672,3.231,2.24,3.231
		c0.736,0,1.184-0.096,1.632-0.224l0.128,2.848c-0.64,0.256-1.632,0.416-2.88,0.416c-1.472,0-2.72-0.48-3.487-1.344
		c-0.896-0.96-1.313-2.432-1.313-4.736v-9.119h-2.495v-2.783h2.495V183.962z"/>
	<path fill="#FFFFFF" d="M527.091,190.426c-0.32-0.064-0.672-0.096-1.088-0.096c-2.496,0-4.064,2.047-4.064,5.119v9.344h-3.711
		v-12.256c0-2.047-0.032-3.744-0.128-5.375h3.231l0.128,3.231h0.128c0.8-2.239,2.656-3.616,4.576-3.616
		c0.352,0,0.607,0.032,0.928,0.097V190.426z"/>
	<path fill="#FFFFFF" d="M531.826,184.442c-1.28,0-2.144-0.959-2.144-2.143c0-1.248,0.896-2.177,2.176-2.177
		c1.279,0,2.144,0.929,2.144,2.177C534.002,183.483,533.17,184.442,531.826,184.442z M533.682,204.793h-3.711V187.13h3.711V204.793z
		"/>
	<path fill="#FFFFFF" d="M550.322,204.248c-0.832,0.385-2.496,0.896-4.544,0.896c-5.088,0-8.415-3.488-8.415-8.991
		c0-5.344,3.455-9.376,9.119-9.376c1.695,0,3.168,0.416,3.936,0.801l-0.736,2.848c-0.64-0.32-1.663-0.704-3.167-0.704
		c-3.456,0-5.376,2.815-5.376,6.271c0,3.872,2.271,6.175,5.344,6.175c1.472,0,2.496-0.352,3.327-0.703L550.322,204.248z"/>
	<path fill="#FFFFFF" d="M575.537,200.089c0,1.6,0.063,3.487,0.128,4.704h-3.264l-0.192-2.752h-0.096
		c-0.928,1.791-2.848,3.104-5.344,3.104c-4,0-7.039-3.552-7.039-8.991c0-5.983,3.424-9.376,7.359-9.376
		c2.271,0,3.903,1.024,4.671,2.368h0.064v-10.015h3.712V200.089z M571.825,194.297c0-2.879-1.824-4.575-3.903-4.575
		c-2.849,0-4.416,2.815-4.416,6.304c0,3.455,1.536,6.111,4.352,6.111c2.4,0,3.968-2.111,3.968-4.576V194.297z"/>
	<path fill="#FFFFFF" d="M594.608,199.737c0,1.984,0.096,3.648,0.159,5.057h-3.264l-0.191-2.561h-0.097
		c-0.735,1.217-2.463,2.912-5.312,2.912c-3.039,0-5.695-1.888-5.695-7.52V187.13h3.712v9.888c0,3.039,0.864,5.055,3.296,5.055
		c1.695,0,3.68-1.344,3.68-4v-10.91h3.712V199.737z"/>
	<path fill="#FFFFFF" d="M614.575,195.833c0,6.592-4.287,9.312-8.255,9.312c-4.576,0-8.063-3.359-8.063-9.056
		c0-5.951,3.647-9.312,8.319-9.312C611.408,186.778,614.575,190.426,614.575,195.833z M606.448,189.562
		c-3.168,0-4.384,3.392-4.384,6.432c0,3.456,1.632,6.368,4.352,6.368c2.688,0,4.352-2.912,4.352-6.432
		C610.768,193.018,609.552,189.562,606.448,189.562z"/>
	<path fill="#FFFFFF" d="M628.816,189.85c1.216-1.984,3.136-3.072,5.6-3.072c3.968,0,6.943,3.52,6.943,8.992
		c0,6.463-3.744,9.375-7.455,9.375c-2.112,0-3.84-0.992-4.704-2.432h-0.064v9.215h-3.711v-19.07c0-2.304-0.064-4.128-0.128-5.695
		h3.264l0.191,2.688H628.816z M629.136,197.69c0,3.168,2.177,4.512,4,4.512c2.88,0,4.448-2.656,4.448-6.305
		c0-3.359-1.504-6.143-4.353-6.143c-2.207,0-4.096,2.08-4.096,4.672V197.69z"/>
	<path fill="#FFFFFF" d="M659.344,199.737c0,1.984,0.096,3.648,0.159,5.057h-3.264l-0.191-2.561h-0.096
		c-0.736,1.217-2.464,2.912-5.313,2.912c-3.039,0-5.695-1.888-5.695-7.52V187.13h3.712v9.888c0,3.039,0.864,5.055,3.296,5.055
		c1.695,0,3.68-1.344,3.68-4v-10.91h3.712V199.737z"/>
	<path fill="#FFFFFF" d="M672.976,190.426c-0.32-0.064-0.672-0.096-1.088-0.096c-2.496,0-4.064,2.047-4.064,5.119v9.344h-3.711
		v-12.256c0-2.047-0.032-3.744-0.128-5.375h3.231l0.128,3.231h0.128c0.8-2.239,2.656-3.616,4.576-3.616
		c0.352,0,0.607,0.032,0.928,0.097V190.426z"/>
	<path fill="#FFFFFF" d="M679.247,189.85c1.216-1.984,3.136-3.072,5.6-3.072c3.968,0,6.943,3.52,6.943,8.992
		c0,6.463-3.744,9.375-7.455,9.375c-2.112,0-3.84-0.992-4.704-2.432h-0.064v9.215h-3.711v-19.07c0-2.304-0.064-4.128-0.128-5.695
		h3.264l0.191,2.688H679.247z M679.566,197.69c0,3.168,2.177,4.512,4,4.512c2.88,0,4.448-2.656,4.448-6.305
		c0-3.359-1.504-6.143-4.353-6.143c-2.207,0-4.096,2.08-4.096,4.672V197.69z"/>
	<path fill="#FFFFFF" d="M710.638,195.833c0,6.592-4.287,9.312-8.255,9.312c-4.576,0-8.063-3.359-8.063-9.056
		c0-5.951,3.647-9.312,8.319-9.312C707.471,186.778,710.638,190.426,710.638,195.833z M702.511,189.562
		c-3.168,0-4.384,3.392-4.384,6.432c0,3.456,1.632,6.368,4.352,6.368c2.688,0,4.352-2.912,4.352-6.432
		C706.83,193.018,705.614,189.562,702.511,189.562z"/>
	<path fill="#FFFFFF" d="M723.086,190.49c-0.703-0.449-1.919-0.992-3.359-0.992c-1.664,0-2.56,0.959-2.56,2.144
		c0,1.216,0.8,1.823,2.943,2.751c2.912,1.185,4.448,2.785,4.448,5.344c0,3.393-2.592,5.408-6.592,5.408
		c-1.855,0-3.616-0.48-4.8-1.184l0.832-2.752c0.896,0.544,2.527,1.184,4.031,1.184c1.984,0,2.944-0.96,2.944-2.304
		s-0.736-2.08-2.848-2.976c-3.136-1.248-4.512-3.008-4.512-5.056c0-2.944,2.399-5.28,6.111-5.28c1.728,0,3.231,0.48,4.191,1.024
		L723.086,190.49z"/>
	<path fill="#FFFFFF" d="M741.07,204.088c-1.248,0.576-3.199,1.057-5.6,1.057c-5.312,0-8.383-3.552-8.383-8.928
		c0-5.247,2.943-9.439,7.935-9.439c4.96,0,6.944,4.128,6.944,8.48c0,0.607-0.032,1.119-0.097,1.567h-11.199
		c0.097,3.968,2.561,5.472,5.344,5.472c1.952,0,3.296-0.352,4.448-0.832L741.07,204.088z M738.446,194.17
		c0.032-2.112-0.831-4.736-3.68-4.736c-2.72,0-3.871,2.688-4.063,4.736H738.446z"/>
	<path fill="#FFFFFF" d="M382.739,242.649c-0.832,0.384-2.496,0.896-4.543,0.896c-5.087,0-8.416-3.487-8.416-8.991
		c0-5.344,3.456-9.375,9.12-9.375c1.696,0,3.167,0.416,3.936,0.8l-0.736,2.848c-0.64-0.319-1.664-0.704-3.168-0.704
		c-3.456,0-5.375,2.816-5.375,6.271c0,3.872,2.272,6.176,5.344,6.176c1.472,0,2.496-0.352,3.328-0.704L382.739,242.649z"/>
	<path fill="#FFFFFF" d="M401.268,234.234c0,6.591-4.289,9.311-8.256,9.311c-4.576,0-8.063-3.359-8.063-9.055
		c0-5.952,3.647-9.312,8.319-9.312C398.099,225.178,401.268,228.825,401.268,234.234z M393.14,227.961
		c-3.168,0-4.384,3.393-4.384,6.432c0,3.456,1.632,6.368,4.352,6.368c2.688,0,4.352-2.912,4.352-6.432
		C397.459,231.417,396.243,227.961,393.14,227.961z"/>
	<path fill="#FFFFFF" d="M413.812,228.825c-0.32-0.063-0.672-0.096-1.088-0.096c-2.496,0-4.064,2.048-4.064,5.119v9.344h-3.712
		v-12.255c0-2.048-0.031-3.744-0.127-5.376h3.231l0.128,3.231h0.128c0.8-2.239,2.656-3.615,4.576-3.615
		c0.352,0,0.607,0.031,0.928,0.096V228.825z"/>
	<path fill="#FFFFFF" d="M429.586,242.489c-1.248,0.576-3.199,1.056-5.6,1.056c-5.312,0-8.383-3.552-8.383-8.927
		c0-5.248,2.943-9.439,7.935-9.439c4.96,0,6.944,4.127,6.944,8.479c0,0.607-0.032,1.12-0.097,1.567h-11.199
		c0.097,3.968,2.561,5.472,5.344,5.472c1.952,0,3.296-0.352,4.448-0.832L429.586,242.489z M426.962,232.57
		c0.032-2.112-0.831-4.735-3.68-4.735c-2.72,0-3.871,2.688-4.063,4.735H426.962z"/>
	<path fill="#FFFFFF" d="M453.106,242.649c-0.832,0.384-2.496,0.896-4.544,0.896c-5.088,0-8.415-3.487-8.415-8.991
		c0-5.344,3.455-9.375,9.119-9.375c1.695,0,3.168,0.416,3.936,0.8l-0.736,2.848c-0.64-0.319-1.663-0.704-3.167-0.704
		c-3.456,0-5.376,2.816-5.376,6.271c0,3.872,2.271,6.176,5.344,6.176c1.472,0,2.496-0.352,3.327-0.704L453.106,242.649z"/>
	<path fill="#FFFFFF" d="M468.786,239.001c0,1.504,0.032,3.039,0.256,4.191h-3.359l-0.256-2.048h-0.096
		c-0.992,1.376-2.721,2.399-4.928,2.399c-3.296,0-5.184-2.432-5.184-5.151c0-4.384,3.808-6.56,9.854-6.56
		c0-1.312,0-3.936-3.552-3.936c-1.567,0-3.167,0.479-4.287,1.216l-0.769-2.464c1.248-0.8,3.328-1.472,5.696-1.472
		c5.184,0,6.623,3.424,6.623,7.168V239.001z M465.171,234.329c-2.912,0-6.271,0.544-6.271,3.68c0,1.952,1.216,2.815,2.592,2.815
		c2.016,0,3.68-1.535,3.68-3.583V234.329z"/>
	<path fill="#FFFFFF" d="M477.234,228.026c1.056-1.792,2.88-2.848,5.344-2.848c4.031,0,6.815,3.552,6.815,8.928
		c0,6.431-3.744,9.438-7.392,9.438c-2.271,0-4.031-0.928-5.216-3.008h-0.096l-0.192,2.656h-3.167
		c0.063-1.184,0.128-3.104,0.128-4.704v-20.958h3.711v10.495H477.234z M477.17,236.217c0,2.24,1.601,4.352,4.032,4.352
		c2.848,0,4.416-2.527,4.416-6.304c0-3.327-1.44-6.111-4.384-6.111c-2.336,0-4.064,2.272-4.064,4.608V236.217z"/>
	<path fill="#FFFFFF" d="M496.754,243.193h-3.711v-25.662h3.711V243.193z"/>
	<path fill="#FFFFFF" d="M514.385,242.489c-1.248,0.576-3.199,1.056-5.6,1.056c-5.312,0-8.383-3.552-8.383-8.927
		c0-5.248,2.943-9.439,7.935-9.439c4.96,0,6.944,4.127,6.944,8.479c0,0.607-0.032,1.12-0.097,1.567h-11.199
		c0.097,3.968,2.561,5.472,5.344,5.472c1.952,0,3.296-0.352,4.448-0.832L514.385,242.489z M511.761,232.57
		c0.032-2.112-0.831-4.735-3.68-4.735c-2.72,0-3.871,2.688-4.063,4.735H511.761z"/>
</g>
</svg>
