<?xml version="1.0" encoding="utf-8"?>
<!-- Generator: Adobe Illustrator 16.0.0, SVG Export Plug-In . SVG Version: 6.00 Build 0)  -->
<!DOCTYPE svg PUBLIC "-//W3C//DTD SVG 1.1//EN" "http://www.w3.org/Graphics/SVG/1.1/DTD/svg11.dtd">
<svg version="1.1" id="圖層_1" xmlns="http://www.w3.org/2000/svg" xmlns:xlink="http://www.w3.org/1999/xlink" x="0px" y="0px"
	 width="320px" height="320px" viewBox="0 0 320 320" enable-background="new 0 0 320 320" xml:space="preserve">
<path fill="none" stroke="#000000" stroke-width="2" stroke-miterlimit="10" d="M257.047,264.643c0.998,0.99,2.151,1.452,2.58,1.019
	l6.074-6.077c0.43-0.429-0.025-1.58-1.018-2.57l-26.371-26.764l-7.636,7.637L257.047,264.643z"/>
<path fill="none" stroke="#000000" stroke-width="2" stroke-miterlimit="10" d="M53.599,80.222
	c-1.506-1.506-1.505-3.945-0.003-5.447l21.22-21.219c1.505-1.502,3.941-1.506,5.447,0.001l139.108,139.106
	c1.5,1.503,1.5,3.942,0,5.444l-21.223,21.219c-1.504,1.505-3.941,1.505-5.445,0L53.599,80.222z"/>
<g>
	<g>
		<defs>
			<path id="SVGID_3_" d="M53.596,80.223c-1.505-1.507-1.503-3.943-0.001-5.444l21.221-21.223c1.502-1.501,3.939-1.505,5.447,0.003
				l139.108,139.104c1.5,1.504,1.5,3.942,0,5.442l-21.225,21.224c-1.502,1.501-3.939,1.503-5.443-0.003L53.596,80.223z"/>
		</defs>
		<clipPath id="SVGID_4_">
			<use xlink:href="#SVGID_3_"  overflow="visible"/>
		</clipPath>
		<g clip-path="url(#SVGID_4_)">
			<rect x="41.042" y="51.368" fill="none" stroke="#000000" stroke-miterlimit="10" width="181.149" height="169.204"/>
			<line fill="none" stroke="#000000" stroke-miterlimit="10" x1="61.165" y1="51.367" x2="61.163" y2="220.572"/>
			<line fill="none" stroke="#000000" stroke-miterlimit="10" x1="81.288" y1="51.367" x2="81.288" y2="220.574"/>
			<line fill="none" stroke="#000000" stroke-miterlimit="10" x1="101.41" y1="51.367" x2="101.409" y2="220.572"/>
			<line fill="none" stroke="#000000" stroke-miterlimit="10" x1="121.534" y1="51.367" x2="121.536" y2="220.57"/>
			<line fill="none" stroke="#000000" stroke-miterlimit="10" x1="141.699" y1="51.367" x2="141.699" y2="220.574"/>
			<line fill="none" stroke="#000000" stroke-miterlimit="10" x1="161.823" y1="51.367" x2="161.823" y2="220.574"/>
			<line fill="none" stroke="#000000" stroke-miterlimit="10" x1="181.948" y1="51.367" x2="181.943" y2="220.574"/>
			<line fill="none" stroke="#000000" stroke-miterlimit="10" x1="202.066" y1="51.367" x2="202.074" y2="220.57"/>
			<line fill="none" stroke="#000000" stroke-miterlimit="10" x1="222.191" y1="201.777" x2="41.042" y2="201.775"/>
			<line fill="none" stroke="#000000" stroke-miterlimit="10" x1="222.191" y1="182.98" x2="41.042" y2="182.98"/>
			<line fill="none" stroke="#000000" stroke-miterlimit="10" x1="222.191" y1="164.186" x2="41.042" y2="164.186"/>
			<line fill="none" stroke="#000000" stroke-miterlimit="10" x1="222.191" y1="145.389" x2="41.042" y2="145.388"/>
			<line fill="none" stroke="#000000" stroke-miterlimit="10" x1="222.191" y1="126.552" x2="41.039" y2="126.552"/>
			<line fill="none" stroke="#000000" stroke-miterlimit="10" x1="222.191" y1="107.755" x2="41.042" y2="107.756"/>
			<line fill="none" stroke="#000000" stroke-miterlimit="10" x1="222.191" y1="88.959" x2="41.042" y2="88.961"/>
			<line fill="none" stroke="#000000" stroke-miterlimit="10" x1="222.191" y1="70.161" x2="41.042" y2="70.164"/>
		</g>
	</g>
	<g>
		<path id="SVGID_1_" fill="none" stroke="#000000" stroke-miterlimit="10" d="M53.596,80.223c-1.505-1.507-1.503-3.943-0.001-5.444
			l21.221-21.223c1.502-1.501,3.939-1.505,5.447,0.003l139.108,139.104c1.5,1.504,1.5,3.942,0,5.442l-21.225,21.224
			c-1.502,1.501-3.939,1.503-5.443-0.003L53.596,80.223z"/>
	</g>
</g>
<text transform="matrix(1 0 0 1 17.2241 356.5293)" display="none" fill="#231815" enable-background="new    " font-family="'MicrosoftYaHei'" font-size="41.1597">矽膠編織線系列</text>
<rect y="23.165" display="none" fill="none" stroke="#000000" stroke-miterlimit="10" width="318.525" height="368.485"/>
<g>
	<defs>
		<polygon id="SVGID_5_" points="248.5,228.25 222.25,247 198.148,219.326 219.371,198.107 		"/>
	</defs>
	<clipPath id="SVGID_6_">
		<use xlink:href="#SVGID_5_"  overflow="visible"/>
	</clipPath>
	<g clip-path="url(#SVGID_6_)">
		<path fill="none" stroke="#000000" stroke-width="2" stroke-miterlimit="10" d="M141.758,157.689
			c-0.898-0.899-0.898-2.353-0.002-3.248l12.656-12.656c0.896-0.896,2.35-0.898,3.248,0l82.963,82.961
			c0.895,0.897,0.895,2.352,0,3.247l-12.656,12.654c-0.898,0.898-2.352,0.898-3.249,0L141.758,157.689z"/>
		<g>
			<g>
				<defs>
					<path id="SVGID_7_" d="M141.756,157.69c-0.898-0.9-0.896-2.353,0-3.247l12.656-12.658c0.896-0.895,2.349-0.897,3.248,0.002
						l82.963,82.959c0.895,0.897,0.895,2.352,0,3.246l-12.659,12.657c-0.896,0.896-2.349,0.896-3.246-0.002L141.756,157.69z"/>
				</defs>
				<clipPath id="SVGID_8_">
					<use xlink:href="#SVGID_7_"  overflow="visible"/>
				</clipPath>
				<g clip-path="url(#SVGID_8_)">
					<rect x="134.27" y="140.481" fill="none" stroke="#000000" stroke-miterlimit="10" width="108.035" height="100.911"/>
					<line fill="none" stroke="#000000" stroke-miterlimit="10" x1="146.271" y1="140.48" x2="146.269" y2="241.392"/>
					<line fill="none" stroke="#000000" stroke-miterlimit="10" x1="158.271" y1="140.48" x2="158.271" y2="241.394"/>
					<line fill="none" stroke="#000000" stroke-miterlimit="10" x1="170.271" y1="140.48" x2="170.271" y2="241.392"/>
					<line fill="none" stroke="#000000" stroke-miterlimit="10" x1="182.274" y1="140.48" x2="182.275" y2="241.391"/>
					<line fill="none" stroke="#000000" stroke-miterlimit="10" x1="194.3" y1="140.48" x2="194.3" y2="241.394"/>
					<line fill="none" stroke="#000000" stroke-miterlimit="10" x1="206.303" y1="140.48" x2="206.303" y2="241.394"/>
					<line fill="none" stroke="#000000" stroke-miterlimit="10" x1="218.305" y1="140.48" x2="218.301" y2="241.394"/>
					<line fill="none" stroke="#000000" stroke-miterlimit="10" x1="230.303" y1="140.48" x2="230.307" y2="241.391"/>
					<line fill="none" stroke="#000000" stroke-miterlimit="10" x1="242.305" y1="230.184" x2="134.27" y2="230.183"/>
					<line fill="none" stroke="#000000" stroke-miterlimit="10" x1="242.305" y1="218.973" x2="134.27" y2="218.973"/>
					<line fill="none" stroke="#000000" stroke-miterlimit="10" x1="242.305" y1="207.764" x2="134.27" y2="207.764"/>
					<line fill="none" stroke="#000000" stroke-miterlimit="10" x1="242.305" y1="196.554" x2="134.27" y2="196.553"/>
					<line fill="none" stroke="#000000" stroke-miterlimit="10" x1="242.305" y1="185.319" x2="134.268" y2="185.319"/>
					<line fill="none" stroke="#000000" stroke-miterlimit="10" x1="242.305" y1="174.109" x2="134.27" y2="174.109"/>
					<line fill="none" stroke="#000000" stroke-miterlimit="10" x1="242.305" y1="162.899" x2="134.27" y2="162.9"/>
					<line fill="none" stroke="#000000" stroke-miterlimit="10" x1="242.305" y1="151.688" x2="134.27" y2="151.69"/>
				</g>
			</g>
			<g>
				<path id="SVGID_2_" fill="none" stroke="#000000" stroke-miterlimit="10" d="M141.756,157.69c-0.898-0.9-0.896-2.353,0-3.247
					l12.656-12.658c0.896-0.895,2.349-0.897,3.248,0.002l82.963,82.959c0.895,0.897,0.895,2.352,0,3.246l-12.659,12.657
					c-0.896,0.896-2.349,0.896-3.246-0.002L141.756,157.69z"/>
			</g>
		</g>
	</g>
</g>
</svg>
