<?xml version="1.0" encoding="utf-8"?>
<!-- Generator: Adobe Illustrator 16.0.0, SVG Export Plug-In . SVG Version: 6.00 Build 0)  -->
<!DOCTYPE svg PUBLIC "-//W3C//DTD SVG 1.1//EN" "http://www.w3.org/Graphics/SVG/1.1/DTD/svg11.dtd">
<svg version="1.1" id="圖層_1" xmlns="http://www.w3.org/2000/svg" xmlns:xlink="http://www.w3.org/1999/xlink" x="0px" y="0px"
	 width="320px" height="320px" viewBox="0 0 320 320" enable-background="new 0 0 320 320" xml:space="preserve">
<g>
	<g>
		<path fill="none" stroke="#000000" stroke-width="2" stroke-miterlimit="10" d="M186.695,242.807
			c0,15.459-12.532,27.994-27.988,27.994l0,0c-15.465,0-28-12.535-28-27.994V83.547c0-15.468,12.535-27.997,28-27.997l0,0
			c15.456,0,27.988,12.528,27.988,27.997V242.807z"/>
		<path d="M174.904,241.166c0,8.949-7.25,16.21-16.201,16.21l0,0c-8.945,0-16.205-7.261-16.205-16.21l0,0
			c0-8.947,7.26-16.202,16.205-16.202l0,0C167.654,224.964,174.904,232.219,174.904,241.166L174.904,241.166z"/>
		<path d="M164.305,227.991c0,3.095-2.506,5.603-5.597,5.603l0,0c-3.101,0-5.607-2.508-5.607-5.603V81.821
			c0-3.093,2.507-5.596,5.607-5.596l0,0c3.091,0,5.597,2.503,5.597,5.596V227.991z"/>
		<line fill="none" stroke="#000000" stroke-width="2" stroke-miterlimit="10" x1="174.904" y1="94.743" x2="186.695" y2="94.743"/>
		
			<line fill="none" stroke="#000000" stroke-width="2" stroke-miterlimit="10" x1="174.904" y1="103.354" x2="186.695" y2="103.354"/>
		
			<line fill="none" stroke="#000000" stroke-width="2" stroke-miterlimit="10" x1="174.904" y1="111.974" x2="186.695" y2="111.974"/>
		
			<line fill="none" stroke="#000000" stroke-width="2" stroke-miterlimit="10" x1="174.904" y1="120.587" x2="186.695" y2="120.587"/>
		
			<line fill="none" stroke="#000000" stroke-width="2" stroke-miterlimit="10" x1="174.904" y1="129.202" x2="186.695" y2="129.202"/>
		
			<line fill="none" stroke="#000000" stroke-width="2" stroke-miterlimit="10" x1="174.904" y1="137.818" x2="186.695" y2="137.818"/>
		
			<line fill="none" stroke="#000000" stroke-width="2" stroke-miterlimit="10" x1="174.904" y1="146.436" x2="186.695" y2="146.436"/>
		
			<line fill="none" stroke="#000000" stroke-width="2" stroke-miterlimit="10" x1="174.904" y1="155.052" x2="186.695" y2="155.052"/>
		<line fill="none" stroke="#000000" stroke-width="2" stroke-miterlimit="10" x1="174.904" y1="163.67" x2="186.695" y2="163.67"/>
		
			<line fill="none" stroke="#000000" stroke-width="2" stroke-miterlimit="10" x1="174.904" y1="172.285" x2="186.695" y2="172.285"/>
		
			<line fill="none" stroke="#000000" stroke-width="2" stroke-miterlimit="10" x1="174.904" y1="180.905" x2="186.695" y2="180.905"/>
		<line fill="none" stroke="#000000" stroke-width="2" stroke-miterlimit="10" x1="174.904" y1="189.52" x2="186.695" y2="189.52"/>
		
			<line fill="none" stroke="#000000" stroke-width="2" stroke-miterlimit="10" x1="174.904" y1="198.139" x2="186.695" y2="198.139"/>
		
			<line fill="none" stroke="#000000" stroke-width="2" stroke-miterlimit="10" x1="174.904" y1="206.752" x2="186.695" y2="206.752"/>
		
			<line fill="none" stroke="#000000" stroke-width="2" stroke-miterlimit="10" x1="174.904" y1="215.367" x2="186.695" y2="215.367"/>
	</g>
	<path fill="#FFFFFF" d="M168.092,235.055c0,2.094-1.699,3.782-3.787,3.782c-2.103,0-3.799-1.688-3.799-3.782
		c0-2.102,1.696-3.796,3.799-3.796C166.393,231.259,168.092,232.953,168.092,235.055z"/>
</g>
<g>
	<g>
		<path fill="none" stroke="#000000" stroke-width="2" stroke-miterlimit="10" d="M186.695,242.807
			c0,15.459-12.532,27.994-27.988,27.994l0,0c-15.465,0-28-12.535-28-27.994V83.547c0-15.468,12.535-27.997,28-27.997l0,0
			c15.456,0,27.988,12.528,27.988,27.997V242.807z"/>
		<path d="M174.904,241.166c0,8.949-7.25,16.21-16.201,16.21l0,0c-8.945,0-16.205-7.261-16.205-16.21l0,0
			c0-8.947,7.26-16.202,16.205-16.202l0,0C167.654,224.964,174.904,232.219,174.904,241.166L174.904,241.166z"/>
		<path d="M164.305,227.991c0,3.095-2.506,5.603-5.597,5.603l0,0c-3.101,0-5.607-2.508-5.607-5.603V81.821
			c0-3.093,2.507-5.596,5.607-5.596l0,0c3.091,0,5.597,2.503,5.597,5.596V227.991z"/>
		<line fill="none" stroke="#000000" stroke-width="2" stroke-miterlimit="10" x1="174.904" y1="94.743" x2="186.695" y2="94.743"/>
		
			<line fill="none" stroke="#000000" stroke-width="2" stroke-miterlimit="10" x1="174.904" y1="103.354" x2="186.695" y2="103.354"/>
		
			<line fill="none" stroke="#000000" stroke-width="2" stroke-miterlimit="10" x1="174.904" y1="111.974" x2="186.695" y2="111.974"/>
		
			<line fill="none" stroke="#000000" stroke-width="2" stroke-miterlimit="10" x1="174.904" y1="120.587" x2="186.695" y2="120.587"/>
		
			<line fill="none" stroke="#000000" stroke-width="2" stroke-miterlimit="10" x1="174.904" y1="129.202" x2="186.695" y2="129.202"/>
		
			<line fill="none" stroke="#000000" stroke-width="2" stroke-miterlimit="10" x1="174.904" y1="137.818" x2="186.695" y2="137.818"/>
		
			<line fill="none" stroke="#000000" stroke-width="2" stroke-miterlimit="10" x1="174.904" y1="146.436" x2="186.695" y2="146.436"/>
		
			<line fill="none" stroke="#000000" stroke-width="2" stroke-miterlimit="10" x1="174.904" y1="155.052" x2="186.695" y2="155.052"/>
		<line fill="none" stroke="#000000" stroke-width="2" stroke-miterlimit="10" x1="174.904" y1="163.67" x2="186.695" y2="163.67"/>
		
			<line fill="none" stroke="#000000" stroke-width="2" stroke-miterlimit="10" x1="174.904" y1="172.285" x2="186.695" y2="172.285"/>
		
			<line fill="none" stroke="#000000" stroke-width="2" stroke-miterlimit="10" x1="174.904" y1="180.905" x2="186.695" y2="180.905"/>
		<line fill="none" stroke="#000000" stroke-width="2" stroke-miterlimit="10" x1="174.904" y1="189.52" x2="186.695" y2="189.52"/>
		
			<line fill="none" stroke="#000000" stroke-width="2" stroke-miterlimit="10" x1="174.904" y1="198.139" x2="186.695" y2="198.139"/>
		
			<line fill="none" stroke="#000000" stroke-width="2" stroke-miterlimit="10" x1="174.904" y1="206.752" x2="186.695" y2="206.752"/>
		
			<line fill="none" stroke="#000000" stroke-width="2" stroke-miterlimit="10" x1="174.904" y1="215.367" x2="186.695" y2="215.367"/>
	</g>
	<path fill="#FFFFFF" d="M168.092,235.055c0,2.094-1.699,3.782-3.787,3.782c-2.103,0-3.799-1.688-3.799-3.782
		c0-2.102,1.696-3.796,3.799-3.796C166.393,231.259,168.092,232.953,168.092,235.055z"/>
</g>
<path fill="#231815" d="M118.926,178.296c-5.414-0.739-11.396-1.165-18.145-1.165c-39.907,0-52.902,17.926-53.439,18.688
	l5.578,3.938c0.121-0.155,11.856-15.796,47.861-15.796c6.853,0,12.829,0.454,18.145,1.219V178.296z"/>
<path fill="#231815" d="M266.596,190.823c-0.145,0.161-14.26,16.413-50.037,16.413c-7.146,0-13.033-0.237-18.049-0.655v6.849
	c5.115,0.41,11.047,0.641,18.049,0.641c38.922,0,54.607-18.07,55.258-18.842L266.596,190.823z"/>
<path fill="#231815" d="M118.926,157.113c-5.414-0.734-11.396-1.168-18.145-1.168c-39.907,0-52.902,17.929-53.439,18.696
	l5.578,3.937c0.121-0.157,11.856-15.792,47.861-15.792c6.853,0,12.829,0.447,18.145,1.217V157.113z"/>
<path fill="#231815" d="M266.596,169.637c-0.145,0.168-14.26,16.417-50.037,16.417c-7.146,0-13.033-0.237-18.049-0.653v6.849
	c5.115,0.415,11.047,0.646,18.049,0.646c38.922,0,54.607-18.076,55.258-18.848L266.596,169.637z"/>
<path fill="#231815" d="M118.926,135.572c-5.414-0.742-11.396-1.17-18.145-1.17c-39.907,0-52.902,17.928-53.439,18.689l5.578,3.945
	c0.121-0.161,11.856-15.798,47.861-15.798c6.853,0,12.829,0.45,18.145,1.214V135.572z"/>
<path fill="#231815" d="M266.596,148.093c-0.145,0.167-14.26,16.417-50.037,16.417c-7.146,0-13.033-0.238-18.049-0.656v6.854
	c5.115,0.411,11.047,0.636,18.049,0.636c38.922,0,54.607-18.072,55.258-18.847L266.596,148.093z"/>
</svg>
