<?xml version="1.0" encoding="utf-8"?>
<!-- Generator: Adobe Illustrator 16.0.0, SVG Export Plug-In . SVG Version: 6.00 Build 0)  -->
<!DOCTYPE svg PUBLIC "-//W3C//DTD SVG 1.1//EN" "http://www.w3.org/Graphics/SVG/1.1/DTD/svg11.dtd">
<svg version="1.1" id="圖層_1" xmlns="http://www.w3.org/2000/svg" xmlns:xlink="http://www.w3.org/1999/xlink" x="0px" y="0px"
	 width="800px" height="313px" viewBox="0 0 800 313" enable-background="new 0 0 800 313" xml:space="preserve">
<g>
	<g>
		<path fill="#013047" stroke="#FFFFFF" stroke-width="6" stroke-miterlimit="10" d="M318.224,155.778
			c0,80.654-65.381,146.034-146.032,146.034c-80.649,0-146.033-65.38-146.033-146.034c0-80.649,65.384-146.034,146.033-146.034
			C252.842,9.745,318.224,75.129,318.224,155.778z"/>
		<circle fill="#013047" stroke="#FFFFFF" stroke-width="2" stroke-miterlimit="10" cx="172.191" cy="155.778" r="129.419"/>
		<circle fill="#013047" stroke="#FFFFFF" stroke-width="2" stroke-miterlimit="10" cx="172.191" cy="155.778" r="120.489"/>
		<g>
			<defs>
				<circle id="SVGID_1_" cx="172.191" cy="155.778" r="120.489"/>
			</defs>
			<clipPath id="SVGID_2_">
				<use xlink:href="#SVGID_1_"  overflow="visible"/>
			</clipPath>
			<g clip-path="url(#SVGID_2_)">
				
					<line fill="none" stroke="#FFFFFF" stroke-width="2" stroke-miterlimit="10" x1="174.243" y1="-88.759" x2="435.986" y2="172.981"/>
				
					<line fill="none" stroke="#FFFFFF" stroke-width="2" stroke-miterlimit="10" x1="164.932" y1="-79.447" x2="426.67" y2="182.293"/>
				
					<line fill="none" stroke="#FFFFFF" stroke-width="2" stroke-miterlimit="10" x1="155.62" y1="-70.137" x2="417.359" y2="191.604"/>
				
					<line fill="none" stroke="#FFFFFF" stroke-width="2" stroke-miterlimit="10" x1="146.306" y1="-60.825" x2="408.048" y2="200.917"/>
				
					<line fill="none" stroke="#FFFFFF" stroke-width="2" stroke-miterlimit="10" x1="136.994" y1="-51.51" x2="398.737" y2="210.228"/>
				
					<line fill="none" stroke="#FFFFFF" stroke-width="2" stroke-miterlimit="10" x1="127.683" y1="-42.2" x2="389.424" y2="219.54"/>
				
					<line fill="none" stroke="#FFFFFF" stroke-width="2" stroke-miterlimit="10" x1="118.372" y1="-32.888" x2="380.113" y2="228.854"/>
				
					<line fill="none" stroke="#FFFFFF" stroke-width="2" stroke-miterlimit="10" x1="109.06" y1="-23.576" x2="370.802" y2="238.166"/>
				
					<line fill="none" stroke="#FFFFFF" stroke-width="2" stroke-miterlimit="10" x1="99.747" y1="-14.266" x2="361.487" y2="247.477"/>
				
					<line fill="none" stroke="#FFFFFF" stroke-width="2" stroke-miterlimit="10" x1="90.434" y1="-4.954" x2="352.175" y2="256.789"/>
				<line fill="none" stroke="#FFFFFF" stroke-width="2" stroke-miterlimit="10" x1="81.121" y1="4.357" x2="342.864" y2="266.1"/>
				
					<line fill="none" stroke="#FFFFFF" stroke-width="2" stroke-miterlimit="10" x1="71.81" y1="13.671" x2="333.553" y2="275.412"/>
				<line fill="none" stroke="#FFFFFF" stroke-width="2" stroke-miterlimit="10" x1="62.5" y1="22.983" x2="324.241" y2="284.725"/>
				
					<line fill="none" stroke="#FFFFFF" stroke-width="2" stroke-miterlimit="10" x1="53.188" y1="32.296" x2="314.929" y2="294.039"/>
				
					<line fill="none" stroke="#FFFFFF" stroke-width="2" stroke-miterlimit="10" x1="43.875" y1="41.607" x2="305.615" y2="303.35"/>
				
					<line fill="none" stroke="#FFFFFF" stroke-width="2" stroke-miterlimit="10" x1="34.564" y1="50.919" x2="296.304" y2="312.662"/>
				<line fill="none" stroke="#FFFFFF" stroke-width="2" stroke-miterlimit="10" x1="25.25" y1="60.23" x2="286.992" y2="321.973"/>
				
					<line fill="none" stroke="#FFFFFF" stroke-width="2" stroke-miterlimit="10" x1="15.939" y1="69.544" x2="277.681" y2="331.285"/>
				<line fill="none" stroke="#FFFFFF" stroke-width="2" stroke-miterlimit="10" x1="6.627" y1="78.855" x2="268.37" y2="340.596"/>
				
					<line fill="none" stroke="#FFFFFF" stroke-width="2" stroke-miterlimit="10" x1="-2.685" y1="88.168" x2="259.057" y2="349.91"/>
				
					<line fill="none" stroke="#FFFFFF" stroke-width="2" stroke-miterlimit="10" x1="-11.996" y1="97.479" x2="249.745" y2="359.223"/>
				
					<line fill="none" stroke="#FFFFFF" stroke-width="2" stroke-miterlimit="10" x1="-21.309" y1="106.791" x2="240.431" y2="368.534"/>
				
					<line fill="none" stroke="#FFFFFF" stroke-width="2" stroke-miterlimit="10" x1="-31.919" y1="117.403" x2="229.822" y2="379.144"/>
				
					<line fill="none" stroke="#FFFFFF" stroke-width="2" stroke-miterlimit="10" x1="-42.53" y1="128.013" x2="219.212" y2="389.755"/>
				
					<line fill="none" stroke="#FFFFFF" stroke-width="2" stroke-miterlimit="10" x1="-53.142" y1="138.623" x2="208.6" y2="400.364"/>
				
					<line fill="none" stroke="#FFFFFF" stroke-width="2" stroke-miterlimit="10" x1="-63.75" y1="149.234" x2="197.991" y2="410.978"/>
				
					<line fill="none" stroke="#FFFFFF" stroke-width="2" stroke-miterlimit="10" x1="-74.363" y1="159.844" x2="187.379" y2="421.587"/>
				
					<line fill="none" stroke="#FFFFFF" stroke-width="2" stroke-miterlimit="10" x1="435.986" y1="159.844" x2="174.243" y2="421.587"/>
				
					<line fill="none" stroke="#FFFFFF" stroke-width="2" stroke-miterlimit="10" x1="426.672" y1="150.532" x2="164.932" y2="412.275"/>
				
					<line fill="none" stroke="#FFFFFF" stroke-width="2" stroke-miterlimit="10" x1="417.361" y1="141.22" x2="155.62" y2="402.964"/>
				
					<line fill="none" stroke="#FFFFFF" stroke-width="2" stroke-miterlimit="10" x1="408.048" y1="131.909" x2="146.308" y2="393.652"/>
				
					<line fill="none" stroke="#FFFFFF" stroke-width="2" stroke-miterlimit="10" x1="398.737" y1="122.597" x2="136.997" y2="384.338"/>
				
					<line fill="none" stroke="#FFFFFF" stroke-width="2" stroke-miterlimit="10" x1="389.424" y1="113.286" x2="127.683" y2="375.026"/>
				
					<line fill="none" stroke="#FFFFFF" stroke-width="2" stroke-miterlimit="10" x1="380.113" y1="103.972" x2="118.372" y2="365.713"/>
				
					<line fill="none" stroke="#FFFFFF" stroke-width="2" stroke-miterlimit="10" x1="370.802" y1="94.659" x2="109.06" y2="356.402"/>
				
					<line fill="none" stroke="#FFFFFF" stroke-width="2" stroke-miterlimit="10" x1="361.49" y1="85.348" x2="99.747" y2="347.091"/>
				
					<line fill="none" stroke="#FFFFFF" stroke-width="2" stroke-miterlimit="10" x1="352.179" y1="76.037" x2="90.436" y2="337.78"/>
				
					<line fill="none" stroke="#FFFFFF" stroke-width="2" stroke-miterlimit="10" x1="342.864" y1="66.725" x2="81.125" y2="328.467"/>
				
					<line fill="none" stroke="#FFFFFF" stroke-width="2" stroke-miterlimit="10" x1="333.553" y1="57.414" x2="71.813" y2="319.153"/>
				<line fill="none" stroke="#FFFFFF" stroke-width="2" stroke-miterlimit="10" x1="324.241" y1="48.1" x2="62.5" y2="309.842"/>
				
					<line fill="none" stroke="#FFFFFF" stroke-width="2" stroke-miterlimit="10" x1="314.929" y1="38.788" x2="53.188" y2="300.53"/>
				
					<line fill="none" stroke="#FFFFFF" stroke-width="2" stroke-miterlimit="10" x1="305.618" y1="29.477" x2="43.875" y2="291.218"/>
				
					<line fill="none" stroke="#FFFFFF" stroke-width="2" stroke-miterlimit="10" x1="296.306" y1="20.165" x2="34.564" y2="281.907"/>
				
					<line fill="none" stroke="#FFFFFF" stroke-width="2" stroke-miterlimit="10" x1="286.995" y1="10.854" x2="25.253" y2="272.595"/>
				
					<line fill="none" stroke="#FFFFFF" stroke-width="2" stroke-miterlimit="10" x1="277.681" y1="1.542" x2="15.941" y2="263.281"/>
				<line fill="none" stroke="#FFFFFF" stroke-width="2" stroke-miterlimit="10" x1="268.37" y1="-7.77" x2="6.627" y2="253.97"/>
				
					<line fill="none" stroke="#FFFFFF" stroke-width="2" stroke-miterlimit="10" x1="259.057" y1="-17.083" x2="-2.685" y2="244.657"/>
				
					<line fill="none" stroke="#FFFFFF" stroke-width="2" stroke-miterlimit="10" x1="249.745" y1="-26.396" x2="-11.996" y2="235.345"/>
				
					<line fill="none" stroke="#FFFFFF" stroke-width="2" stroke-miterlimit="10" x1="240.433" y1="-35.707" x2="-21.309" y2="226.033"/>
				
					<line fill="none" stroke="#FFFFFF" stroke-width="2" stroke-miterlimit="10" x1="229.822" y1="-46.319" x2="-31.919" y2="215.422"/>
				
					<line fill="none" stroke="#FFFFFF" stroke-width="2" stroke-miterlimit="10" x1="219.212" y1="-56.929" x2="-42.53" y2="204.812"/>
				<line fill="none" stroke="#FFFFFF" stroke-width="2" stroke-miterlimit="10" x1="208.6" y1="-67.542" x2="-53.142" y2="194.2"/>
				
					<line fill="none" stroke="#FFFFFF" stroke-width="2" stroke-miterlimit="10" x1="197.991" y1="-78.15" x2="-63.75" y2="183.59"/>
				
					<line fill="none" stroke="#FFFFFF" stroke-width="2" stroke-miterlimit="10" x1="187.379" y1="-88.759" x2="-74.363" y2="172.979"/>
			</g>
		</g>
		<path fill="#013047" stroke="#FFFFFF" stroke-width="2" stroke-miterlimit="10" d="M280.077,155.778
			c0,59.587-48.302,107.891-107.885,107.891c-59.586,0-107.884-48.304-107.884-107.891c0-59.578,48.298-107.891,107.884-107.891
			C231.774,47.887,280.077,96.201,280.077,155.778z"/>
		<path fill="#231815" stroke="#FFFFFF" stroke-width="2" stroke-miterlimit="10" d="M272.102,155.778
			c0,55.183-44.732,99.914-99.91,99.914c-55.183,0-99.909-44.731-99.909-99.914c0-55.174,44.726-99.914,99.909-99.914
			C227.37,55.865,272.102,100.604,272.102,155.778z"/>
		<g>
			<path fill="#013047" stroke="#FFFFFF" stroke-width="2" stroke-miterlimit="10" d="M196.27,74.808
				c0,7.397-5.997,13.395-13.395,13.395h-18.418c-7.397,0-13.394-5.998-13.394-13.395l0,0c0-7.398,5.997-13.396,13.394-13.396
				h18.418C190.273,61.412,196.27,67.41,196.27,74.808L196.27,74.808z"/>
			<path fill="#013047" stroke="#FFFFFF" stroke-width="2" stroke-miterlimit="10" d="M172.976,74.784
				c0,5.236-4.244,9.481-9.479,9.481l0,0c-5.233,0-9.48-4.245-9.48-9.481l0,0c0-5.237,4.247-9.481,9.48-9.481l0,0
				C168.732,65.302,172.976,69.546,172.976,74.784L172.976,74.784z"/>
			<path fill="#013047" stroke="#FFFFFF" stroke-width="2" stroke-miterlimit="10" d="M193.318,74.784
				c0,5.236-4.245,9.481-9.481,9.481l0,0c-5.236,0-9.482-4.245-9.482-9.481l0,0c0-5.237,4.246-9.481,9.482-9.481l0,0
				C189.074,65.302,193.318,69.546,193.318,74.784L193.318,74.784z"/>
		</g>
		<g>
			<path fill="#013047" stroke="#FFFFFF" stroke-width="2" stroke-miterlimit="10" d="M234.87,108.428
				c-4.793,5.635-13.249,6.319-18.883,1.526l-14.032-11.932c-5.635-4.792-6.317-13.247-1.526-18.883l0,0
				c4.793-5.635,13.249-6.318,18.882-1.525l14.033,11.931C238.978,94.337,239.662,102.792,234.87,108.428L234.87,108.428z"/>
			<path fill="#013047" stroke="#FFFFFF" stroke-width="2" stroke-miterlimit="10" d="M217.14,93.319
				c-3.392,3.989-9.375,4.475-13.366,1.081l0,0c-3.987-3.391-4.472-9.375-1.078-13.365l0,0c3.391-3.989,9.376-4.472,13.363-1.082
				l0,0C220.051,83.347,220.532,89.329,217.14,93.319L217.14,93.319z"/>
			<path fill="#013047" stroke="#FFFFFF" stroke-width="2" stroke-miterlimit="10" d="M232.635,106.496
				c-3.393,3.989-9.376,4.474-13.365,1.082l0,0c-3.987-3.392-4.473-9.375-1.079-13.366l0,0c3.392-3.988,9.375-4.472,13.363-1.078
				l0,0C235.543,96.523,236.027,102.506,232.635,106.496L232.635,106.496z"/>
		</g>
		<g>
			<path fill="#013047" stroke="#FFFFFF" stroke-width="2" stroke-miterlimit="10" d="M210.282,130.357
				c-4.794,5.636-13.249,6.32-18.883,1.527l-14.033-11.932c-5.635-4.792-6.317-13.247-1.525-18.882l0,0
				c4.792-5.636,13.248-6.318,18.882-1.526l14.032,11.932C214.39,116.268,215.073,124.722,210.282,130.357L210.282,130.357z"/>
			<path fill="#013047" stroke="#FFFFFF" stroke-width="2" stroke-miterlimit="10" d="M192.55,115.248
				c-3.39,3.99-9.375,4.476-13.365,1.083l0,0c-3.987-3.392-4.472-9.375-1.078-13.366l0,0c3.391-3.988,9.377-4.472,13.364-1.082l0,0
				C195.461,105.278,195.944,111.26,192.55,115.248L192.55,115.248z"/>
			<path fill="#013047" stroke="#FFFFFF" stroke-width="2" stroke-miterlimit="10" d="M208.046,128.425
				c-3.393,3.99-9.377,4.475-13.364,1.083l0,0c-3.988-3.393-4.474-9.375-1.08-13.366l0,0c3.391-3.988,9.374-4.471,13.364-1.079l0,0
				C210.955,118.455,211.439,124.437,208.046,128.425L208.046,128.425z"/>
		</g>
		<g>
			<path fill="#013047" stroke="#FFFFFF" stroke-width="2" stroke-miterlimit="10" d="M219.305,178.857
				c-7.397-0.003-13.394-6.001-13.392-13.399l0.003-18.421c0.002-7.395,6-13.393,13.398-13.393l0,0
				c7.397,0.004,13.394,6.004,13.392,13.4l-0.004,18.421C232.702,172.862,226.704,178.858,219.305,178.857L219.305,178.857z"/>
			<path fill="#013047" stroke="#FFFFFF" stroke-width="2" stroke-miterlimit="10" d="M219.334,155.562
				c-5.237-0.001-9.48-4.246-9.48-9.482l0,0c0.003-5.235,4.249-9.479,9.486-9.478l0,0c5.235,0,9.481,4.25,9.477,9.482l0,0
				C228.817,151.322,224.572,155.564,219.334,155.562L219.334,155.562z"/>
			<path fill="#013047" stroke="#FFFFFF" stroke-width="2" stroke-miterlimit="10" d="M219.331,175.902
				c-5.239,0-9.482-4.244-9.481-9.48l0,0c0.001-5.235,4.247-9.48,9.486-9.479l0,0c5.233,0,9.478,4.248,9.476,9.483l0,0
				C228.811,171.662,224.566,175.904,219.331,175.902L219.331,175.902z"/>
		</g>
		<g>
			<path fill="#013047" stroke="#FFFFFF" stroke-width="2" stroke-miterlimit="10" d="M124.939,178.855
				c-7.398-0.001-13.395-6.002-13.392-13.398l0.001-18.42c0.004-7.396,6.002-13.393,13.398-13.393l0,0
				c7.4,0.003,13.396,6.003,13.395,13.399l-0.004,18.421C138.335,172.86,132.337,178.858,124.939,178.855L124.939,178.855z"/>
			<path fill="#013047" stroke="#FFFFFF" stroke-width="2" stroke-miterlimit="10" d="M124.967,155.561
				c-5.235,0-9.479-4.245-9.479-9.482l0,0c0.001-5.234,4.248-9.479,9.485-9.477l0,0c5.236,0,9.48,4.25,9.478,9.482l0,0
				C134.45,151.321,130.205,155.563,124.967,155.561L124.967,155.561z"/>
			<path fill="#013047" stroke="#FFFFFF" stroke-width="2" stroke-miterlimit="10" d="M124.964,175.902
				c-5.239-0.001-9.481-4.244-9.481-9.48l0,0c0.002-5.236,4.248-9.482,9.486-9.48l0,0c5.234,0.001,9.479,4.248,9.475,9.484l0,0
				C134.444,171.662,130.2,175.904,124.964,175.902L124.964,175.902z"/>
		</g>
		<g>
			<path fill="#013047" stroke="#FFFFFF" stroke-width="2" stroke-miterlimit="10" d="M165.112,101.758
				c4.785,5.643,4.089,14.098-1.554,18.882l-14.049,11.912c-5.641,4.784-14.096,4.087-18.88-1.554l0,0
				c-4.785-5.643-4.088-14.098,1.555-18.88l14.047-11.913C151.872,95.421,160.328,96.117,165.112,101.758L165.112,101.758z"/>
			<path fill="#013047" stroke="#FFFFFF" stroke-width="2" stroke-miterlimit="10" d="M147.328,116.805
				c3.387,3.995,2.896,9.979-1.097,13.364l0,0c-3.993,3.385-9.978,2.895-13.364-1.1l0,0c-3.387-3.994-2.893-9.979,1.101-13.363l0,0
				C137.96,112.319,143.943,112.811,147.328,116.805L147.328,116.805z"/>
			<path fill="#013047" stroke="#FFFFFF" stroke-width="2" stroke-miterlimit="10" d="M162.843,103.65
				c3.387,3.995,2.896,9.977-1.098,13.364l0,0c-3.994,3.384-9.977,2.894-13.365-1.101l0,0c-3.385-3.995-2.892-9.977,1.1-13.363l0,0
				C153.475,99.166,159.457,99.656,162.843,103.65L162.843,103.65z"/>
		</g>
		<g>
			<path fill="#013047" stroke="#FFFFFF" stroke-width="2" stroke-miterlimit="10" d="M193.732,142.555
				c0.131,7.396-5.756,13.502-13.152,13.634l-18.417,0.332c-7.396,0.132-13.501-5.757-13.636-13.152l0,0
				c-0.131-7.398,5.758-13.502,13.154-13.634l18.417-0.333C187.493,129.269,193.599,135.157,193.732,142.555L193.732,142.555z"/>
			<path fill="#013047" stroke="#FFFFFF" stroke-width="2" stroke-miterlimit="10" d="M170.439,142.949
				c0.096,5.234-4.071,9.556-9.308,9.651l0,0c-5.233,0.094-9.556-4.077-9.649-9.312l0,0c-0.094-5.234,4.074-9.556,9.308-9.647l0,0
				C166.029,133.546,170.348,137.713,170.439,142.949L170.439,142.949z"/>
			<path fill="#013047" stroke="#FFFFFF" stroke-width="2" stroke-miterlimit="10" d="M190.778,142.583
				c0.094,5.237-4.073,9.557-9.308,9.651l0,0c-5.235,0.094-9.557-4.073-9.651-9.31l0,0c-0.093-5.235,4.074-9.554,9.31-9.649l0,0
				C186.362,133.18,190.684,137.347,190.778,142.583L190.778,142.583z"/>
		</g>
		<g>
			<path fill="#013047" stroke="#FFFFFF" stroke-width="2" stroke-miterlimit="10" d="M193.732,173.124
				c0.131,7.396-5.756,13.502-13.152,13.634l-18.417,0.332c-7.396,0.134-13.501-5.756-13.636-13.153l0,0
				c-0.131-7.396,5.758-13.499,13.154-13.633l18.417-0.333C187.493,159.839,193.599,165.728,193.732,173.124L193.732,173.124z"/>
			<path fill="#013047" stroke="#FFFFFF" stroke-width="2" stroke-miterlimit="10" d="M170.439,173.519
				c0.096,5.233-4.071,9.556-9.308,9.651l0,0c-5.233,0.094-9.556-4.075-9.649-9.311l0,0c-0.094-5.235,4.074-9.558,9.308-9.649l0,0
				C166.029,164.116,170.348,168.283,170.439,173.519L170.439,173.519z"/>
			<path fill="#013047" stroke="#FFFFFF" stroke-width="2" stroke-miterlimit="10" d="M190.778,173.152
				c0.094,5.236-4.073,9.558-9.308,9.651l0,0c-5.235,0.094-9.557-4.072-9.651-9.31l0,0c-0.093-5.235,4.074-9.553,9.31-9.649l0,0
				C186.362,163.751,190.684,167.917,190.778,173.152L190.778,173.152z"/>
		</g>
		<g>
			<path fill="#013047" stroke="#FFFFFF" stroke-width="2" stroke-miterlimit="10" d="M127.652,183.465
				c4.793-5.634,13.249-6.319,18.883-1.526l14.032,11.932c5.634,4.792,6.317,13.247,1.526,18.883l0,0
				c-4.792,5.635-13.248,6.318-18.883,1.525l-14.032-11.931C123.544,197.556,122.86,189.1,127.652,183.465L127.652,183.465z"/>
			<path fill="#013047" stroke="#FFFFFF" stroke-width="2" stroke-miterlimit="10" d="M145.381,198.574
				c3.392-3.989,9.375-4.475,13.365-1.082l0,0c3.988,3.391,4.473,9.376,1.08,13.366l0,0c-3.392,3.988-9.377,4.472-13.363,1.081l0,0
				C142.472,208.545,141.989,202.563,145.381,198.574L145.381,198.574z"/>
			<path fill="#013047" stroke="#FFFFFF" stroke-width="2" stroke-miterlimit="10" d="M129.886,185.397
				c3.394-3.989,9.376-4.475,13.364-1.082l0,0c3.989,3.392,4.475,9.375,1.082,13.366l0,0c-3.393,3.988-9.375,4.471-13.364,1.078l0,0
				C126.978,195.369,126.494,189.387,129.886,185.397L129.886,185.397z"/>
		</g>
		<g>
			<path fill="#013047" stroke="#FFFFFF" stroke-width="2" stroke-miterlimit="10" d="M181.127,211.732
				c-4.784-5.644-4.088-14.097,1.555-18.88l14.049-11.914c5.64-4.783,14.096-4.087,18.88,1.555l0,0
				c4.785,5.644,4.088,14.097-1.556,18.879l-14.047,11.914C194.368,218.068,185.912,217.375,181.127,211.732L181.127,211.732z"/>
			<path fill="#013047" stroke="#FFFFFF" stroke-width="2" stroke-miterlimit="10" d="M198.911,196.685
				c-3.386-3.993-2.896-9.975,1.098-13.364l0,0c3.993-3.385,9.977-2.892,13.364,1.103l0,0c3.386,3.993,2.893,9.979-1.101,13.361l0,0
				C208.278,201.173,202.296,200.679,198.911,196.685L198.911,196.685z"/>
			<path fill="#013047" stroke="#FFFFFF" stroke-width="2" stroke-miterlimit="10" d="M183.396,209.84
				c-3.387-3.994-2.896-9.977,1.097-13.362l0,0c3.995-3.386,9.979-2.896,13.366,1.101l0,0c3.384,3.992,2.891,9.975-1.102,13.361l0,0
				C192.765,214.327,186.782,213.834,183.396,209.84L183.396,209.84z"/>
		</g>
		<g>
			<path fill="#013047" stroke="#FFFFFF" stroke-width="2" stroke-miterlimit="10" d="M253.404,152.706
				c-7.15,1.898-14.486-2.36-16.384-9.511l-4.727-17.801c-1.899-7.15,2.359-14.485,9.508-16.385l0,0
				c7.15-1.897,14.488,2.361,16.386,9.511l4.727,17.802C264.812,143.472,260.555,150.807,253.404,152.706L253.404,152.706z"/>
			<path fill="#013047" stroke="#FFFFFF" stroke-width="2" stroke-miterlimit="10" d="M247.451,130.184
				c-5.061,1.345-10.254-1.667-11.597-6.729l0,0c-1.344-5.058,1.67-10.251,6.73-11.596l0,0c5.063-1.344,10.255,1.671,11.595,6.73
				l0,0C255.525,123.651,252.511,128.84,247.451,130.184L247.451,130.184z"/>
			<path fill="#013047" stroke="#FFFFFF" stroke-width="2" stroke-miterlimit="10" d="M252.67,149.844
				c-5.062,1.345-10.251-1.669-11.597-6.729l0,0c-1.343-5.06,1.668-10.254,6.732-11.598l0,0c5.061-1.344,10.251,1.671,11.596,6.73
				l0,0C260.745,143.311,257.732,148.502,252.67,149.844L252.67,149.844z"/>
		</g>
		<g>
			<path fill="#013047" stroke="#FFFFFF" stroke-width="2" stroke-miterlimit="10" d="M241.459,199.043
				c-6.982-2.446-10.66-10.088-8.211-17.073l6.087-17.381c2.445-6.982,10.089-10.659,17.07-8.215l0,0
				c6.982,2.448,10.661,10.092,8.216,17.074l-6.091,17.382C256.085,197.81,248.443,201.487,241.459,199.043L241.459,199.043z"/>
			<path fill="#013047" stroke="#FFFFFF" stroke-width="2" stroke-miterlimit="10" d="M249.183,177.066
				c-4.943-1.73-7.545-7.14-5.813-12.081l0,0c1.729-4.942,7.138-7.544,12.083-5.813l0,0c4.941,1.73,7.544,7.142,5.811,12.081l0,0
				C259.534,176.196,254.127,178.797,249.183,177.066L249.183,177.066z"/>
			<path fill="#013047" stroke="#FFFFFF" stroke-width="2" stroke-miterlimit="10" d="M242.461,196.263
				c-4.944-1.731-7.546-7.139-5.817-12.08l0,0c1.732-4.942,7.14-7.546,12.084-5.815l0,0c4.942,1.731,7.544,7.14,5.813,12.083l0,0
				C252.81,195.393,247.404,197.996,242.461,196.263L242.461,196.263z"/>
		</g>
		<g>
			<path fill="#013047" stroke="#FFFFFF" stroke-width="2" stroke-miterlimit="10" d="M151.063,234.757
				c0-7.399,5.999-13.395,13.394-13.395h18.418c7.398,0,13.395,5.996,13.395,13.395l0,0c0,7.398-5.997,13.395-13.395,13.395h-18.418
				C157.061,248.151,151.063,242.155,151.063,234.757L151.063,234.757z"/>
			<path fill="#013047" stroke="#FFFFFF" stroke-width="2" stroke-miterlimit="10" d="M174.355,234.781
				c0-5.237,4.244-9.482,9.48-9.482l0,0c5.233,0,9.48,4.245,9.48,9.482l0,0c0,5.235-4.247,9.481-9.48,9.481l0,0
				C178.599,244.263,174.355,240.017,174.355,234.781L174.355,234.781z"/>
			<path fill="#013047" stroke="#FFFFFF" stroke-width="2" stroke-miterlimit="10" d="M154.013,234.781
				c0-5.237,4.244-9.482,9.48-9.482l0,0c5.235,0,9.483,4.245,9.483,9.482l0,0c0,5.235-4.248,9.481-9.483,9.481l0,0
				C158.257,244.263,154.013,240.017,154.013,234.781L154.013,234.781z"/>
		</g>
		<g>
			<path fill="#013047" stroke="#FFFFFF" stroke-width="2" stroke-miterlimit="10" d="M240.856,204.126
				c-4.795-5.635-13.251-6.319-18.884-1.526l-14.031,11.932c-5.636,4.792-6.32,13.248-1.525,18.883l0,0
				c4.793,5.636,13.245,6.318,18.883,1.525l14.032-11.931C244.964,218.218,245.648,209.762,240.856,204.126L240.856,204.126z"/>
			<path fill="#013047" stroke="#FFFFFF" stroke-width="2" stroke-miterlimit="10" d="M223.127,219.236
				c-3.393-3.99-9.376-4.474-13.365-1.082l0,0c-3.987,3.391-4.471,9.375-1.081,13.366l0,0c3.391,3.988,9.378,4.471,13.363,1.081l0,0
				C226.036,229.208,226.519,223.225,223.127,219.236L223.127,219.236z"/>
			<path fill="#013047" stroke="#FFFFFF" stroke-width="2" stroke-miterlimit="10" d="M238.621,206.061
				c-3.392-3.991-9.375-4.476-13.364-1.083l0,0c-3.987,3.393-4.474,9.375-1.079,13.366l0,0c3.392,3.988,9.374,4.472,13.365,1.079
				l0,0C241.53,216.031,242.013,210.049,238.621,206.061L238.621,206.061z"/>
		</g>
		<g>
			<path fill="#013047" stroke="#FFFFFF" stroke-width="2" stroke-miterlimit="10" d="M110.449,108.428
				c4.794,5.635,13.25,6.319,18.883,1.526l14.033-11.932c5.634-4.792,6.317-13.247,1.526-18.883l0,0
				c-4.792-5.635-13.249-6.318-18.883-1.525l-14.032,11.931C106.341,94.337,105.658,102.792,110.449,108.428L110.449,108.428z"/>
			<path fill="#013047" stroke="#FFFFFF" stroke-width="2" stroke-miterlimit="10" d="M128.18,93.319
				c3.391,3.989,9.374,4.475,13.365,1.081l0,0c3.987-3.391,4.472-9.375,1.078-13.365l0,0c-3.39-3.989-9.377-4.472-13.363-1.082l0,0
				C125.271,83.347,124.787,89.329,128.18,93.319L128.18,93.319z"/>
			<path fill="#013047" stroke="#FFFFFF" stroke-width="2" stroke-miterlimit="10" d="M112.684,106.496
				c3.393,3.989,9.375,4.474,13.364,1.082l0,0c3.988-3.392,4.474-9.375,1.08-13.366l0,0c-3.391-3.988-9.375-4.472-13.363-1.078l0,0
				C109.776,96.523,109.292,102.506,112.684,106.496L112.684,106.496z"/>
		</g>
		<g>
			<path fill="#013047" stroke="#FFFFFF" stroke-width="2" stroke-miterlimit="10" d="M91.915,152.706
				c7.151,1.898,14.487-2.36,16.386-9.511l4.727-17.801c1.898-7.15-2.36-14.485-9.51-16.385l0,0
				c-7.15-1.897-14.488,2.361-16.385,9.511l-4.727,17.802C80.506,143.472,84.765,150.807,91.915,152.706L91.915,152.706z"/>
			<path fill="#013047" stroke="#FFFFFF" stroke-width="2" stroke-miterlimit="10" d="M97.869,130.184
				c5.063,1.345,10.254-1.667,11.597-6.729l0,0c1.345-5.058-1.67-10.251-6.731-11.596l0,0c-5.062-1.344-10.254,1.671-11.594,6.73
				l0,0C89.794,123.651,92.808,128.84,97.869,130.184L97.869,130.184z"/>
			<path fill="#013047" stroke="#FFFFFF" stroke-width="2" stroke-miterlimit="10" d="M92.648,149.844
				c5.063,1.345,10.253-1.669,11.598-6.729l0,0c1.344-5.06-1.669-10.254-6.732-11.598l0,0c-5.061-1.344-10.251,1.671-11.596,6.73
				l0,0C84.574,143.311,87.585,148.502,92.648,149.844L92.648,149.844z"/>
		</g>
		<g>
			<path fill="#013047" stroke="#FFFFFF" stroke-width="2" stroke-miterlimit="10" d="M103.86,199.043
				c6.982-2.446,10.66-10.088,8.212-17.073l-6.088-17.381c-2.445-6.982-10.089-10.659-17.07-8.215l0,0
				c-6.982,2.448-10.661,10.092-8.216,17.074l6.091,17.382C89.233,197.81,96.877,201.487,103.86,199.043L103.86,199.043z"/>
			<path fill="#013047" stroke="#FFFFFF" stroke-width="2" stroke-miterlimit="10" d="M96.137,177.066
				c4.941-1.73,7.544-7.14,5.813-12.081l0,0c-1.728-4.942-7.139-7.544-12.083-5.813l0,0c-4.941,1.73-7.543,7.142-5.811,12.081l0,0
				C85.785,176.196,91.194,178.797,96.137,177.066L96.137,177.066z"/>
			<path fill="#013047" stroke="#FFFFFF" stroke-width="2" stroke-miterlimit="10" d="M102.859,196.263
				c4.942-1.731,7.545-7.139,5.815-12.08l0,0c-1.73-4.942-7.14-7.546-12.083-5.815l0,0c-4.942,1.731-7.544,7.14-5.815,12.083l0,0
				C92.51,195.393,97.917,197.996,102.859,196.263L102.859,196.263z"/>
		</g>
		<g>
			<path fill="#013047" stroke="#FFFFFF" stroke-width="2" stroke-miterlimit="10" d="M104.464,204.126
				c4.794-5.635,13.25-6.319,18.883-1.526l14.032,11.932c5.635,4.792,6.318,13.248,1.525,18.883l0,0
				c-4.792,5.636-13.246,6.318-18.884,1.525l-14.03-11.931C100.356,218.218,99.671,209.762,104.464,204.126L104.464,204.126z"/>
			<path fill="#013047" stroke="#FFFFFF" stroke-width="2" stroke-miterlimit="10" d="M122.192,219.236
				c3.393-3.99,9.375-4.474,13.364-1.082l0,0c3.988,3.391,4.471,9.375,1.081,13.366l0,0c-3.39,3.988-9.377,4.471-13.362,1.081l0,0
				C119.284,229.208,118.801,223.225,122.192,219.236L122.192,219.236z"/>
			<path fill="#013047" stroke="#FFFFFF" stroke-width="2" stroke-miterlimit="10" d="M106.698,206.061
				c3.393-3.991,9.375-4.476,13.364-1.083l0,0c3.989,3.393,4.476,9.375,1.081,13.366l0,0c-3.393,3.988-9.375,4.472-13.366,1.079l0,0
				C103.789,216.031,103.306,210.049,106.698,206.061L106.698,206.061z"/>
		</g>
	</g>
	<line fill="none" stroke="#F4E829" stroke-width="2" stroke-miterlimit="10" x1="186.327" y1="79.88" x2="407.3" y2="79.88"/>
	
		<line fill="none" stroke="#F4E829" stroke-width="2" stroke-miterlimit="10" x1="299.167" y1="157.823" x2="384.365" y2="157.823"/>
	
		<line fill="none" stroke="#F4E829" stroke-width="2" stroke-miterlimit="10" x1="222.033" y1="247.132" x2="384.365" y2="247.132"/>
	<g>
		<text transform="matrix(1 0 0 1 430.0161 89.042)"><tspan x="0" y="0" fill="#FFFFFF" font-family="'AdobeFanHeitiStd-Bold-B5pc-H'" font-size="37.1063" letter-spacing="1">多對補償導線可對應</tspan><tspan x="0" y="44.978" fill="#FFFFFF" font-family="'AdobeFanHeitiStd-Bold-B5pc-H'" font-size="37.1063" letter-spacing="1">多組溫控系統</tspan></text>
	</g>
	<g>
		
			<text transform="matrix(1 0 0 1 430.0142 215.543)" fill="#FFFFFF" font-family="'AdobeFanHeitiStd-Bold-B5pc-H'" font-size="37.1063" letter-spacing="1">多重防雜訊隔離</text>
	</g>
	<line fill="none" stroke="#F4E829" stroke-width="2" stroke-miterlimit="10" x1="384.365" y1="156.521" x2="384.365" y2="248.49"/>
	
		<line fill="none" stroke="#F4E829" stroke-width="2" stroke-miterlimit="10" x1="385.085" y1="225.336" x2="265.673" y2="225.336"/>
	
		<line fill="none" stroke="#F4E829" stroke-width="2" stroke-miterlimit="10" x1="258.143" y1="181.032" x2="384.407" y2="181.032"/>
	
		<line fill="none" stroke="#F4E829" stroke-width="2" stroke-miterlimit="10" x1="384.991" y1="202.724" x2="408.323" y2="202.724"/>
</g>
</svg>
