<?xml version="1.0" encoding="utf-8"?>
<!-- Generator: Adobe Illustrator 16.0.0, SVG Export Plug-In . SVG Version: 6.00 Build 0)  -->
<!DOCTYPE svg PUBLIC "-//W3C//DTD SVG 1.1//EN" "http://www.w3.org/Graphics/SVG/1.1/DTD/svg11.dtd">
<svg version="1.1" id="圖層_1" xmlns="http://www.w3.org/2000/svg" xmlns:xlink="http://www.w3.org/1999/xlink" x="0px" y="0px"
	 width="800px" height="285px" viewBox="0 0 800 285" enable-background="new 0 0 800 285" xml:space="preserve">
<g>
	<g>
		<circle fill="#023148" stroke="#FFFFFF" stroke-width="6" stroke-miterlimit="10" cx="146.396" cy="142.901" r="130.889"/>
		<circle fill="#023148" stroke="#FFFFFF" stroke-width="2" stroke-miterlimit="10" cx="146.397" cy="142.901" r="107.994"/>
		<g>
			<defs>
				<circle id="SVGID_1_" cx="146.397" cy="142.901" r="107.994"/>
			</defs>
			<clipPath id="SVGID_2_">
				<use xlink:href="#SVGID_1_"  overflow="visible"/>
			</clipPath>
			<g clip-path="url(#SVGID_2_)">
				
					<line fill="none" stroke="#FFFFFF" stroke-width="2" stroke-miterlimit="10" x1="148.235" y1="-76.281" x2="382.836" y2="158.319"/>
				
					<line fill="none" stroke="#FFFFFF" stroke-width="2" stroke-miterlimit="10" x1="139.889" y1="-67.934" x2="374.487" y2="166.666"/>
				
					<line fill="none" stroke="#FFFFFF" stroke-width="2" stroke-miterlimit="10" x1="131.543" y1="-59.587" x2="366.142" y2="175.011"/>
				
					<line fill="none" stroke="#FFFFFF" stroke-width="2" stroke-miterlimit="10" x1="123.196" y1="-51.242" x2="357.795" y2="183.358"/>
				
					<line fill="none" stroke="#FFFFFF" stroke-width="2" stroke-miterlimit="10" x1="114.85" y1="-42.895" x2="349.45" y2="191.705"/>
				
					<line fill="none" stroke="#FFFFFF" stroke-width="2" stroke-miterlimit="10" x1="106.504" y1="-34.548" x2="341.103" y2="200.051"/>
				
					<line fill="none" stroke="#FFFFFF" stroke-width="2" stroke-miterlimit="10" x1="98.157" y1="-26.203" x2="332.757" y2="208.398"/>
				
					<line fill="none" stroke="#FFFFFF" stroke-width="2" stroke-miterlimit="10" x1="89.811" y1="-17.856" x2="324.411" y2="216.744"/>
				
					<line fill="none" stroke="#FFFFFF" stroke-width="2" stroke-miterlimit="10" x1="81.465" y1="-9.509" x2="316.063" y2="225.09"/>
				
					<line fill="none" stroke="#FFFFFF" stroke-width="2" stroke-miterlimit="10" x1="73.118" y1="-1.163" x2="307.718" y2="233.436"/>
				
					<line fill="none" stroke="#FFFFFF" stroke-width="2" stroke-miterlimit="10" x1="64.771" y1="7.183" x2="299.372" y2="241.783"/>
				
					<line fill="none" stroke="#FFFFFF" stroke-width="2" stroke-miterlimit="10" x1="56.425" y1="15.53" x2="291.024" y2="250.129"/>
				
					<line fill="none" stroke="#FFFFFF" stroke-width="2" stroke-miterlimit="10" x1="48.08" y1="23.876" x2="282.679" y2="258.475"/>
				
					<line fill="none" stroke="#FFFFFF" stroke-width="2" stroke-miterlimit="10" x1="39.732" y1="32.222" x2="274.333" y2="266.822"/>
				
					<line fill="none" stroke="#FFFFFF" stroke-width="2" stroke-miterlimit="10" x1="31.386" y1="40.569" x2="265.985" y2="275.168"/>
				
					<line fill="none" stroke="#FFFFFF" stroke-width="2" stroke-miterlimit="10" x1="23.041" y1="48.915" x2="257.639" y2="283.514"/>
				
					<line fill="none" stroke="#FFFFFF" stroke-width="2" stroke-miterlimit="10" x1="14.693" y1="57.261" x2="249.293" y2="291.861"/>
				
					<line fill="none" stroke="#FFFFFF" stroke-width="2" stroke-miterlimit="10" x1="6.347" y1="65.608" x2="240.947" y2="300.207"/>
				<line fill="none" stroke="#FFFFFF" stroke-width="2" stroke-miterlimit="10" x1="-1.999" y1="73.954" x2="232.6" y2="308.554"/>
				<line fill="none" stroke="#FFFFFF" stroke-width="2" stroke-miterlimit="10" x1="-10.346" y1="82.3" x2="224.254" y2="316.9"/>
				
					<line fill="none" stroke="#FFFFFF" stroke-width="2" stroke-miterlimit="10" x1="-18.692" y1="90.646" x2="215.908" y2="325.246"/>
				
					<line fill="none" stroke="#FFFFFF" stroke-width="2" stroke-miterlimit="10" x1="-27.038" y1="98.994" x2="207.561" y2="333.593"/>
				
					<line fill="none" stroke="#FFFFFF" stroke-width="2" stroke-miterlimit="10" x1="-36.548" y1="108.504" x2="198.05" y2="343.103"/>
				
					<line fill="none" stroke="#FFFFFF" stroke-width="2" stroke-miterlimit="10" x1="-46.059" y1="118.013" x2="188.541" y2="352.613"/>
				
					<line fill="none" stroke="#FFFFFF" stroke-width="2" stroke-miterlimit="10" x1="-55.57" y1="127.524" x2="179.031" y2="362.124"/>
				
					<line fill="none" stroke="#FFFFFF" stroke-width="2" stroke-miterlimit="10" x1="-65.08" y1="137.034" x2="169.52" y2="371.635"/>
				
					<line fill="none" stroke="#FFFFFF" stroke-width="2" stroke-miterlimit="10" x1="-74.591" y1="146.545" x2="160.009" y2="381.144"/>
				
					<line fill="none" stroke="#FFFFFF" stroke-width="2" stroke-miterlimit="10" x1="382.836" y1="146.545" x2="148.236" y2="381.144"/>
				
					<line fill="none" stroke="#FFFFFF" stroke-width="2" stroke-miterlimit="10" x1="374.49" y1="138.199" x2="139.89" y2="372.798"/>
				
					<line fill="none" stroke="#FFFFFF" stroke-width="2" stroke-miterlimit="10" x1="366.144" y1="129.852" x2="131.543" y2="364.452"/>
				
					<line fill="none" stroke="#FFFFFF" stroke-width="2" stroke-miterlimit="10" x1="357.795" y1="121.506" x2="123.197" y2="356.105"/>
				
					<line fill="none" stroke="#FFFFFF" stroke-width="2" stroke-miterlimit="10" x1="349.45" y1="113.16" x2="114.851" y2="347.759"/>
				
					<line fill="none" stroke="#FFFFFF" stroke-width="2" stroke-miterlimit="10" x1="341.104" y1="104.814" x2="106.504" y2="339.413"/>
				
					<line fill="none" stroke="#FFFFFF" stroke-width="2" stroke-miterlimit="10" x1="332.758" y1="96.467" x2="98.158" y2="331.066"/>
				
					<line fill="none" stroke="#FFFFFF" stroke-width="2" stroke-miterlimit="10" x1="324.411" y1="88.121" x2="89.812" y2="322.72"/>
				
					<line fill="none" stroke="#FFFFFF" stroke-width="2" stroke-miterlimit="10" x1="316.065" y1="79.773" x2="81.465" y2="314.374"/>
				
					<line fill="none" stroke="#FFFFFF" stroke-width="2" stroke-miterlimit="10" x1="307.719" y1="71.427" x2="73.119" y2="306.027"/>
				
					<line fill="none" stroke="#FFFFFF" stroke-width="2" stroke-miterlimit="10" x1="299.372" y1="63.082" x2="64.772" y2="297.682"/>
				
					<line fill="none" stroke="#FFFFFF" stroke-width="2" stroke-miterlimit="10" x1="291.026" y1="54.735" x2="56.427" y2="289.334"/>
				<line fill="none" stroke="#FFFFFF" stroke-width="2" stroke-miterlimit="10" x1="282.68" y1="46.388" x2="48.08" y2="280.988"/>
				
					<line fill="none" stroke="#FFFFFF" stroke-width="2" stroke-miterlimit="10" x1="274.333" y1="38.042" x2="39.733" y2="272.643"/>
				
					<line fill="none" stroke="#FFFFFF" stroke-width="2" stroke-miterlimit="10" x1="265.986" y1="29.696" x2="31.388" y2="264.295"/>
				
					<line fill="none" stroke="#FFFFFF" stroke-width="2" stroke-miterlimit="10" x1="257.641" y1="21.349" x2="23.041" y2="255.949"/>
				
					<line fill="none" stroke="#FFFFFF" stroke-width="2" stroke-miterlimit="10" x1="249.294" y1="13.003" x2="14.694" y2="247.603"/>
				<line fill="none" stroke="#FFFFFF" stroke-width="2" stroke-miterlimit="10" x1="240.947" y1="4.657" x2="6.348" y2="239.256"/>
				
					<line fill="none" stroke="#FFFFFF" stroke-width="2" stroke-miterlimit="10" x1="232.602" y1="-3.689" x2="-1.999" y2="230.91"/>
				
					<line fill="none" stroke="#FFFFFF" stroke-width="2" stroke-miterlimit="10" x1="224.255" y1="-12.036" x2="-10.345" y2="222.564"/>
				
					<line fill="none" stroke="#FFFFFF" stroke-width="2" stroke-miterlimit="10" x1="215.908" y1="-20.382" x2="-18.691" y2="214.217"/>
				
					<line fill="none" stroke="#FFFFFF" stroke-width="2" stroke-miterlimit="10" x1="207.562" y1="-28.728" x2="-27.037" y2="205.871"/>
				
					<line fill="none" stroke="#FFFFFF" stroke-width="2" stroke-miterlimit="10" x1="198.052" y1="-38.24" x2="-36.548" y2="196.36"/>
				
					<line fill="none" stroke="#FFFFFF" stroke-width="2" stroke-miterlimit="10" x1="188.541" y1="-47.749" x2="-46.058" y2="186.85"/>
				
					<line fill="none" stroke="#FFFFFF" stroke-width="2" stroke-miterlimit="10" x1="179.031" y1="-57.261" x2="-55.57" y2="177.339"/>
				
					<line fill="none" stroke="#FFFFFF" stroke-width="2" stroke-miterlimit="10" x1="169.521" y1="-66.77" x2="-65.079" y2="167.83"/>
				
					<line fill="none" stroke="#FFFFFF" stroke-width="2" stroke-miterlimit="10" x1="160.009" y1="-76.281" x2="-74.591" y2="158.318"/>
			</g>
		</g>
		<path fill="#023148" stroke="#FFFFFF" stroke-width="2" stroke-miterlimit="10" d="M232.373,142.901
			c0,47.486-38.493,85.98-85.976,85.98c-47.486,0-85.974-38.494-85.974-85.98c0-47.48,38.488-85.98,85.974-85.98
			C193.88,56.921,232.373,95.421,232.373,142.901z"/>
		<path fill="#EEEEEF" stroke="#FFFFFF" stroke-width="2" stroke-miterlimit="10" d="M223.276,142.901
			c0,42.46-34.419,76.882-76.879,76.882c-42.46,0-76.876-34.422-76.876-76.882c0-42.457,34.416-76.882,76.876-76.882
			C188.856,66.019,223.276,100.444,223.276,142.901z"/>
		<circle fill="#023148" stroke="#FFFFFF" stroke-width="2" stroke-miterlimit="10" cx="146.398" cy="142.901" r="69.461"/>
		<path fill="#EEEEEF" stroke="#FFFFFF" stroke-width="2" stroke-miterlimit="10" d="M165.283,121.661
			c-10.331,10.332-27.083,10.332-37.415,0.001c-10.331-10.331-10.331-27.084,0.001-37.416c10.331-10.33,27.084-10.33,37.414,0
			C175.615,94.577,175.614,111.33,165.283,121.661z"/>
		<circle fill="#EEEEEF" stroke="#FFFFFF" stroke-width="2" stroke-miterlimit="10" cx="186.496" cy="142.873" r="26.457"/>
		<circle fill="#EEEEEF" stroke="#FFFFFF" stroke-width="2" stroke-miterlimit="10" cx="107.504" cy="142.025" r="26.456"/>
		<circle fill="#EEEEEF" stroke="#FFFFFF" stroke-width="2" stroke-miterlimit="10" cx="147.423" cy="181.945" r="26.457"/>
	</g>
	<line fill="none" stroke="#FFF000" stroke-width="2" stroke-miterlimit="10" x1="244.244" y1="76.499" x2="335.086" y2="76.499"/>
	<line fill="none" stroke="#FFF000" stroke-width="2" stroke-miterlimit="10" x1="238.167" y1="117.338" x2="314.53" y2="117.338"/>
	<line fill="none" stroke="#FFF000" stroke-width="2" stroke-miterlimit="10" x1="190.588" y1="199.771" x2="314.53" y2="199.771"/>
	<text transform="matrix(1 0 0 1 355.4453 73.0918)"><tspan x="0" y="0" fill="#FFFFFF" font-family="'AdobeFanHeitiStd-Bold-B5pc-H'" font-size="29" letter-spacing="1">90A high density, prevents </tspan><tspan x="0" y="31" fill="#FFFFFF" font-family="'AdobeFanHeitiStd-Bold-B5pc-H'" font-size="29" letter-spacing="1">dissolving and tears.</tspan></text>
	<g>
		<text transform="matrix(1 0 0 1 355.4453 171.6646)"><tspan x="0" y="0" fill="#FFFFFF" font-family="'AdobeFanHeitiStd-Bold-B5pc-H'" font-size="29" letter-spacing="1">Multiple layers of noise </tspan><tspan x="0" y="31" fill="#FFFFFF" font-family="'AdobeFanHeitiStd-Bold-B5pc-H'" font-size="29" letter-spacing="1">cancellation installation with </tspan><tspan x="0" y="62" fill="#FFFFFF" font-family="'AdobeFanHeitiStd-Bold-B5pc-H'" font-size="29" letter-spacing="1">SUS and foils.</tspan></text>
	</g>
	<line fill="none" stroke="#FFF000" stroke-width="2" stroke-miterlimit="10" x1="314.53" y1="117.338" x2="314.53" y2="199.771"/>
	<line fill="none" stroke="#FFF000" stroke-width="2" stroke-miterlimit="10" x1="314.53" y1="160.281" x2="335.086" y2="160.281"/>
</g>
</svg>
