<?xml version="1.0" encoding="utf-8"?>
<!-- Generator: Adobe Illustrator 16.0.0, SVG Export Plug-In . SVG Version: 6.00 Build 0)  -->
<!DOCTYPE svg PUBLIC "-//W3C//DTD SVG 1.1//EN" "http://www.w3.org/Graphics/SVG/1.1/DTD/svg11.dtd">
<svg version="1.1" xmlns="http://www.w3.org/2000/svg" xmlns:xlink="http://www.w3.org/1999/xlink" x="0px" y="0px" width="320px"
	 height="320px" viewBox="0 0 320 320" enable-background="new 0 0 320 320" xml:space="preserve">
<g id="XLPE">
	
		<text transform="matrix(1 0 0 1 51.1699 354.0537)" display="none" fill="#231815" font-family="'MicrosoftYaHei'" font-size="41.1597">XLPE線系列</text>
	<path fill="none" stroke="#231815" stroke-width="2" stroke-miterlimit="10" d="M251.94,262.668
		c0.992,0.998,2.152,1.448,2.58,1.018l6.074-6.067c0.431-0.437-0.024-1.589-1.018-2.58l-52.104-52.111l-7.638,7.636L251.94,262.668z
		"/>
	<path fill="#231815" d="M50.919,80.676c-1.508-1.508-1.508-3.945-0.008-5.447l21.225-21.22c1.499-1.504,3.938-1.505,5.445,0.001
		l139.103,139.107c1.508,1.504,1.508,3.939,0.006,5.442l-21.222,21.221c-1.502,1.503-3.941,1.507-5.448,0L50.919,80.676z"/>
	
		<text transform="matrix(1 0 0 1 158.0732 161.2715)" fill="#595757" stroke="#FFFFFF" stroke-width="2" stroke-miterlimit="10" font-family="'Adobe Fan Heiti Std', Helvetica, Arial, Verdana, sans-serif" font-size="72.0295">XL</text>
	<rect x="1.238" y="21.16" display="none" fill="none" stroke="#000000" stroke-miterlimit="10" width="318.524" height="368.484"/>
</g>
<g id="圖層_13">
</g>
</svg>
