<?xml version="1.0" encoding="utf-8"?>
<!-- Generator: Adobe Illustrator 16.0.0, SVG Export Plug-In . SVG Version: 6.00 Build 0)  -->
<!DOCTYPE svg PUBLIC "-//W3C//DTD SVG 1.1//EN" "http://www.w3.org/Graphics/SVG/1.1/DTD/svg11.dtd">
<svg version="1.1" id="圖層_1" xmlns="http://www.w3.org/2000/svg" xmlns:xlink="http://www.w3.org/1999/xlink" x="0px" y="0px"
	 width="320px" height="320px" viewBox="0 0 320 320" enable-background="new 0 0 320 320" xml:space="preserve">
<rect x="164.784" y="238.686" fill="none" stroke="#231815" stroke-width="2" stroke-miterlimit="10" width="98.444" height="20.908"/>
<path fill="none" stroke="#231815" stroke-width="2" stroke-miterlimit="10" d="M263.113,238.686
	c0.031-0.381,0.115-0.766,0.115-1.149V84.507c0-7.697-6.244-13.941-13.945-13.941h-70.566c-7.695,0-13.933,6.244-13.933,13.941
	v153.027c0,0.386,0.086,0.771,0.11,1.149h98.219V238.686L263.113,238.686z"/>
<rect x="183.086" y="100.768" fill="none" stroke="#231815" stroke-width="2" stroke-miterlimit="10" width="62.428" height="69.919"/>
<path fill="none" stroke="#231815" stroke-width="2" stroke-miterlimit="10" d="M190.71,187.945c0,3.127-2.536,5.658-5.659,5.658
	c-3.129,0-5.658-2.531-5.658-5.658c0-3.129,2.529-5.663,5.658-5.663C188.174,182.283,190.71,184.816,190.71,187.945z"/>
<circle fill="none" stroke="#231815" stroke-width="2" stroke-miterlimit="10" cx="214.305" cy="187.945" r="5.663"/>
<path fill="none" stroke="#231815" stroke-width="2" stroke-miterlimit="10" d="M193.314,126.755c0,0,0.662-9.802,7.623-9.802
	c6.979,0,23.526,18.517,34.854,0"/>
<line fill="none" stroke="#231815" stroke-width="2" stroke-miterlimit="10" x1="190.71" y1="135.728" x2="235.792" y2="135.728"/>
<line fill="none" stroke="#231815" stroke-width="2" stroke-miterlimit="10" x1="190.71" y1="148.097" x2="235.792" y2="148.097"/>
<line fill="none" stroke="#231815" stroke-width="2" stroke-miterlimit="10" x1="190.71" y1="160.464" x2="235.792" y2="160.464"/>
<path fill="none" stroke="#231815" stroke-width="2" stroke-miterlimit="10" d="M164.784,211.205H66.646
	c-7.697,0-13.935,6.244-13.935,13.938v20.326c0,7.693,6.238,13.938,13.935,13.938h98.139L164.784,211.205L164.784,211.205z"/>
<path fill="none" stroke="#231815" stroke-width="2" stroke-miterlimit="10" d="M85.535,235.309c0,4.813-3.902,8.705-8.717,8.705
	c-4.813,0-8.708-3.895-8.708-8.705c0-4.814,3.896-8.711,8.708-8.711C81.633,226.598,85.535,230.492,85.535,235.309z"/>
<rect x="62.194" y="170.688" fill="none" stroke="#231815" stroke-width="2" stroke-miterlimit="10" width="40.521" height="40.52"/>
<rect x="76.709" y="170.688" fill="none" stroke="#231815" stroke-width="2" stroke-miterlimit="10" width="11.479" height="14.002"/>
<rect x="110.343" y="170.688" fill="none" stroke="#231815" stroke-width="2" stroke-miterlimit="10" width="40.523" height="40.52"/>
<rect x="124.868" y="170.688" fill="none" stroke="#231815" stroke-width="2" stroke-miterlimit="10" width="11.472" height="14.002"/>
<path fill="none" stroke="#231815" stroke-width="2" stroke-miterlimit="10" d="M140.372,116.447
	c0,19.954-16.175,36.127-36.134,36.127c-19.953,0-36.128-16.174-36.128-36.127c0-19.955,16.175-36.133,36.128-36.133
	C124.196,80.314,140.372,96.493,140.372,116.447z"/>
<polyline fill="none" stroke="#231815" stroke-width="2" stroke-miterlimit="10" points="86.256,114.14 100.784,129.815 
	122.113,102.662 "/>
<circle fill="none" stroke="#231815" stroke-width="2" stroke-miterlimit="10" cx="245.514" cy="187.945" r="5.663"/>
</svg>
