<?xml version="1.0" encoding="utf-8"?>
<!-- Generator: Adobe Illustrator 16.0.0, SVG Export Plug-In . SVG Version: 6.00 Build 0)  -->
<!DOCTYPE svg PUBLIC "-//W3C//DTD SVG 1.1//EN" "http://www.w3.org/Graphics/SVG/1.1/DTD/svg11.dtd">
<svg version="1.1" id="圖層_1" xmlns="http://www.w3.org/2000/svg" xmlns:xlink="http://www.w3.org/1999/xlink" x="0px" y="0px"
	 width="320px" height="320px" viewBox="0 0 320 320" enable-background="new 0 0 320 320" xml:space="preserve">
<g>
	<g>
		<g>
			<g>
				<defs>
					<path id="SVGID_1_" d="M240.96,169.268h-2.858h-21.135h-34.391v97.354h23.609v-73.749h10.778H238.1h2.859
						c1.825,0,3.311-1.537,3.311-3.452v-16.706C244.27,170.813,242.785,169.268,240.96,169.268z"/>
				</defs>
				<clipPath id="SVGID_2_">
					<use xlink:href="#SVGID_1_"  overflow="visible"/>
				</clipPath>
				<g clip-path="url(#SVGID_2_)">
					<polygon fill="none" stroke="#231815" stroke-width="2" stroke-miterlimit="10" points="332.871,227.716 223.332,337.26 
						106.049,219.982 215.598,110.43 					"/>
					
						<line fill="none" stroke="#231815" stroke-width="2" stroke-miterlimit="10" x1="228.627" y1="123.455" x2="119.079" y2="233.012"/>
					
						<line fill="none" stroke="#231815" stroke-width="2" stroke-miterlimit="10" x1="241.654" y1="136.488" x2="132.105" y2="246.033"/>
					
						<line fill="none" stroke="#231815" stroke-width="2" stroke-miterlimit="10" x1="254.684" y1="149.509" x2="145.134" y2="259.063"/>
					
						<line fill="none" stroke="#231815" stroke-width="2" stroke-miterlimit="10" x1="267.717" y1="162.542" x2="158.161" y2="272.093"/>
					
						<line fill="none" stroke="#231815" stroke-width="2" stroke-miterlimit="10" x1="280.771" y1="175.602" x2="171.227" y2="285.148"/>
					
						<line fill="none" stroke="#231815" stroke-width="2" stroke-miterlimit="10" x1="293.795" y1="188.63" x2="184.247" y2="298.179"/>
					
						<line fill="none" stroke="#231815" stroke-width="2" stroke-miterlimit="10" x1="306.831" y1="201.66" x2="197.27" y2="311.209"/>
					
						<line fill="none" stroke="#231815" stroke-width="2" stroke-miterlimit="10" x1="319.852" y1="214.684" x2="210.303" y2="324.232"/>
					
						<line fill="none" stroke="#231815" stroke-width="2" stroke-miterlimit="10" x1="235.51" y1="325.092" x2="118.211" y2="207.813"/>
					
						<line fill="none" stroke="#231815" stroke-width="2" stroke-miterlimit="10" x1="247.669" y1="312.924" x2="130.386" y2="195.639"/>
					
						<line fill="none" stroke="#231815" stroke-width="2" stroke-miterlimit="10" x1="259.837" y1="300.754" x2="142.555" y2="183.473"/>
					
						<line fill="none" stroke="#231815" stroke-width="2" stroke-miterlimit="10" x1="272.006" y1="288.586" x2="154.717" y2="171.305"/>
					
						<line fill="none" stroke="#231815" stroke-width="2" stroke-miterlimit="10" x1="284.206" y1="276.391" x2="166.917" y2="159.109"/>
					
						<line fill="none" stroke="#231815" stroke-width="2" stroke-miterlimit="10" x1="296.375" y1="264.223" x2="179.083" y2="146.94"/>
					
						<line fill="none" stroke="#231815" stroke-width="2" stroke-miterlimit="10" x1="308.543" y1="252.052" x2="191.264" y2="134.775"/>
					
						<line fill="none" stroke="#231815" stroke-width="2" stroke-miterlimit="10" x1="320.712" y1="239.885" x2="203.43" y2="122.595"/>
				</g>
			</g>
		</g>
	</g>
</g>
<rect x="244.848" y="141.111" fill="none" stroke="#000000" stroke-width="2" stroke-miterlimit="10" width="27.204" height="5.462"/>
<rect x="244.848" y="176.971" fill="none" stroke="#000000" stroke-width="2" stroke-miterlimit="10" width="27.204" height="5.459"/>
<rect x="55.854" y="68.378" fill="none" stroke="#000000" stroke-width="2" stroke-miterlimit="10" width="27.204" height="5.462"/>
<rect x="55.854" y="164.538" fill="none" stroke="#000000" stroke-width="2" stroke-miterlimit="10" width="27.204" height="5.459"/>
<path stroke="#000000" stroke-width="2" stroke-miterlimit="10" d="M92.897,58.065h-6.522c-1.833,0-3.317,1.542-3.317,3.452V78.22
	c0,1.911,1.484,3.457,3.317,3.457h23.993c0.26,0,0.478-0.094,0.719-0.152h33.039v184.53h23.61V57.917H92.897V58.065z"/>
<path fill="none" stroke="#000000" stroke-width="2" stroke-miterlimit="10" d="M240.96,132.011h-23.993
	c-0.055,0-0.094,0.026-0.15,0.031h-10.629V58.288h-23.608v97.358h55.522v-0.028h2.858c1.825,0,3.31-1.55,3.31-3.456v-16.699
	C244.27,133.549,242.785,132.011,240.96,132.011z"/>
<path fill="none" stroke="#000000" stroke-width="2" stroke-miterlimit="10" d="M92.897,155.828h-6.522
	c-1.833,0-3.317,1.539-3.317,3.448v16.703c0,1.91,1.484,3.455,3.317,3.455h6.522h12.528v86.692h23.611V155.828h-18.668H92.897z"/>
<path fill="none" stroke="#000000" stroke-width="2" stroke-miterlimit="10" d="M240.96,169.268h-2.858h-21.135h-34.391v97.354
	h23.609v-73.749h10.778H238.1h2.859c1.825,0,3.311-1.537,3.311-3.452v-16.706C244.27,170.813,242.785,169.268,240.96,169.268z"/>
</svg>
