<?xml version="1.0" encoding="utf-8"?>
<!-- Generator: Adobe Illustrator 16.0.0, SVG Export Plug-In . SVG Version: 6.00 Build 0)  -->
<!DOCTYPE svg PUBLIC "-//W3C//DTD SVG 1.1//EN" "http://www.w3.org/Graphics/SVG/1.1/DTD/svg11.dtd">
<svg version="1.1" id="圖層_1" xmlns="http://www.w3.org/2000/svg" xmlns:xlink="http://www.w3.org/1999/xlink" x="0px" y="0px"
	 width="320px" height="320px" viewBox="0 0 320 320" enable-background="new 0 0 320 320" xml:space="preserve">
<g id="LED">
	<g>
		<path fill="none" stroke="#000000" stroke-width="2" stroke-linecap="round" stroke-linejoin="round" stroke-miterlimit="10" d="
			M127.99,217.645c-26.549-11.186-45.18-37.44-45.18-68.047c0-40.759,33.039-73.806,73.8-73.806
			c40.757,0,73.795,33.047,73.795,73.806c0,30.572-18.577,56.794-45.067,67.999"/>
		<path fill="none" stroke="#000000" stroke-width="2" stroke-linecap="round" stroke-linejoin="round" stroke-miterlimit="10" d="
			M131.783,225.375v30.8c0,0,1.21,23.749,26.57,23.749"/>
		<path fill="none" stroke="#000000" stroke-width="2" stroke-linecap="round" stroke-linejoin="round" stroke-miterlimit="10" d="
			M184.923,225.375v30.8c0,0-1.205,23.749-26.571,23.749"/>
		
			<line fill="none" stroke="#000000" stroke-width="2" stroke-linecap="round" stroke-linejoin="round" stroke-miterlimit="10" x1="140.239" y1="226.345" x2="177.074" y2="226.345"/>
		
			<line fill="none" stroke="#000000" stroke-width="2" stroke-linecap="round" stroke-linejoin="round" stroke-miterlimit="10" x1="140.239" y1="234.623" x2="177.074" y2="234.623"/>
		
			<line fill="none" stroke="#000000" stroke-width="2" stroke-linecap="round" stroke-linejoin="round" stroke-miterlimit="10" x1="140.239" y1="242.884" x2="177.074" y2="242.884"/>
		
			<line fill="none" stroke="#000000" stroke-width="2" stroke-linecap="round" stroke-linejoin="round" stroke-miterlimit="10" x1="140.239" y1="251.159" x2="177.074" y2="251.159"/>
		
			<line fill="none" stroke="#000000" stroke-width="2" stroke-linecap="round" stroke-linejoin="round" stroke-miterlimit="10" x1="131.783" y1="199.916" x2="131.783" y2="161.333"/>
		
			<line fill="none" stroke="#000000" stroke-width="2" stroke-linecap="round" stroke-linejoin="round" stroke-miterlimit="10" x1="181.397" y1="199.916" x2="181.397" y2="161.333"/>
		<path fill="none" stroke="#000000" stroke-width="2" stroke-linecap="round" stroke-linejoin="round" stroke-miterlimit="10" d="
			M131.783,160.871c0,0,14.69-3.118,19.931,2.211c5.227,5.337-0.808,14.495-7.551,10.471c-5.339-4.029-3.75-8.208-0.604-10.766
			c3.149-2.569,6.947-3.833,9.36-3.935c2.416-0.096,7.546,0,7.546,0"/>
		<path fill="none" stroke="#000000" stroke-width="2" stroke-linecap="round" stroke-linejoin="round" stroke-miterlimit="10" d="
			M181.397,161.333c0,0-14.187-3.581-19.424,1.748c-5.228,5.337,0.811,14.494,7.55,10.471c5.336-4.029,3.744-8.208,0.604-10.766
			c-3.143-2.569-6.947-3.833-9.361-3.935c-2.415-0.096-7.549,0-7.549,0"/>
	</g>
</g>
<line fill="none" stroke="#000000" stroke-width="2" stroke-linecap="round" stroke-linejoin="round" stroke-miterlimit="10" x1="134.84" y1="217.645" x2="180.251" y2="217.645"/>
<path fill="none" stroke="#000000" stroke-width="2" stroke-linecap="round" stroke-linejoin="round" stroke-miterlimit="10" d="
	M120.905,93.139c0,0,22.843-16.23,50.732-9.851c40.569,10.091,49.459,44.689,50.42,49.735"/>
<path fill="none" stroke="#000000" stroke-width="2" stroke-linecap="round" stroke-linejoin="round" stroke-miterlimit="10" d="
	M222.777,141.312c0,0,3.604,16.698-3.123,27.991"/>
<line fill="none" stroke="#000000" stroke-width="2" stroke-linecap="round" stroke-linejoin="round" stroke-miterlimit="10" x1="74.16" y1="62.701" x2="98.827" y2="87.368"/>
<line fill="none" stroke="#000000" stroke-width="2" stroke-linecap="round" stroke-linejoin="round" stroke-miterlimit="10" x1="156.608" y1="34.75" x2="156.608" y2="65.744"/>
<line fill="none" stroke="#000000" stroke-width="2" stroke-linecap="round" stroke-linejoin="round" stroke-miterlimit="10" x1="118.048" y1="54.031" x2="124.776" y2="71.03"/>
<line fill="none" stroke="#000000" stroke-width="2" stroke-linecap="round" stroke-linejoin="round" stroke-miterlimit="10" x1="66.912" y1="104.77" x2="81.409" y2="110.056"/>
<line fill="none" stroke="#000000" stroke-width="2" stroke-linecap="round" stroke-linejoin="round" stroke-miterlimit="10" x1="238.36" y1="62.701" x2="213.693" y2="87.368"/>
<line fill="none" stroke="#000000" stroke-width="2" stroke-linecap="round" stroke-linejoin="round" stroke-miterlimit="10" x1="194.472" y1="54.031" x2="187.745" y2="71.03"/>
<line fill="none" stroke="#000000" stroke-width="2" stroke-linecap="round" stroke-linejoin="round" stroke-miterlimit="10" x1="245.608" y1="104.77" x2="231.111" y2="110.056"/>
</svg>
