<?xml version="1.0" encoding="utf-8"?>
<!-- Generator: Adobe Illustrator 16.0.0, SVG Export Plug-In . SVG Version: 6.00 Build 0)  -->
<!DOCTYPE svg PUBLIC "-//W3C//DTD SVG 1.1//EN" "http://www.w3.org/Graphics/SVG/1.1/DTD/svg11.dtd">
<svg version="1.1" xmlns="http://www.w3.org/2000/svg" xmlns:xlink="http://www.w3.org/1999/xlink" x="0px" y="0px" width="320px"
	 height="320px" viewBox="0 0 320 320" enable-background="new 0 0 320 320" xml:space="preserve">
<g id="圖層_13" display="none">
	<rect x="-5" y="21" display="inline" fill="#595757" width="375" height="332"/>
</g>
<g id="汽車花線">
	<g>
		<path fill="none" stroke="#231815" stroke-width="3" stroke-miterlimit="10" d="M246.324,266.623
			c0.99,0.998,2.142,1.448,2.578,1.018l6.069-6.067c0.429-0.437-0.021-1.589-1.018-2.58l-52.107-52.111l-7.637,7.636
			L246.324,266.623z"/>
		<path fill="#231815" d="M45.295,84.631c-1.507-1.508-1.502-3.945,0-5.447l21.222-21.22c1.499-1.504,3.94-1.505,5.44,0.001
			l139.107,139.107c1.501,1.504,1.501,3.941,0,5.442l-21.223,21.225c-1.501,1.499-3.939,1.503-5.439-0.004L45.295,84.631z"/>
	</g>
	
		<text transform="matrix(1 0 0 1 38.5742 358.0107)" display="none" fill="#231815" font-family="MicrosoftYaHei" font-size="41.1597">汽車花線系列</text>
	<rect x="0.736" y="26" display="none" fill="none" stroke="#000000" stroke-miterlimit="10" width="318.527" height="368.484"/>
</g>
</svg>
