<?xml version="1.0" encoding="utf-8"?>
<!-- Generator: Adobe Illustrator 16.0.0, SVG Export Plug-In . SVG Version: 6.00 Build 0)  -->
<!DOCTYPE svg PUBLIC "-//W3C//DTD SVG 1.1//EN" "http://www.w3.org/Graphics/SVG/1.1/DTD/svg11.dtd">
<svg version="1.1" id="圖層_1" xmlns="http://www.w3.org/2000/svg" xmlns:xlink="http://www.w3.org/1999/xlink" x="0px" y="0px"
	 width="320px" height="320px" viewBox="0 0 320 320" enable-background="new 0 0 320 320" xml:space="preserve">
<polygon fill="none" stroke="#000000" stroke-width="2.0622" stroke-linecap="round" stroke-linejoin="round" stroke-miterlimit="22.9256" points="
	159.626,87.249 86.711,132.525 78.994,120.099 151.913,74.83 "/>
<polygon fill="none" stroke="#000000" stroke-width="2.0622" stroke-linecap="round" stroke-linejoin="round" stroke-miterlimit="22.9256" points="
	140.455,56.377 67.533,101.643 59.824,89.223 132.742,43.95 "/>
<rect x="90.598" y="77.402" transform="matrix(0.8495 -0.5276 0.5276 0.8495 -30.0615 71.1442)" fill="none" stroke="#000000" stroke-width="2.0622" stroke-linecap="round" stroke-linejoin="round" stroke-miterlimit="22.9256" width="38.14" height="21.721"/>
<rect x="126.687" y="101.02" transform="matrix(0.8496 -0.5275 0.5275 0.8496 -61.1694 105.432)" fill="none" stroke="#000000" stroke-width="2.0622" stroke-linecap="round" stroke-linejoin="round" stroke-miterlimit="22.9256" width="55.136" height="117.872"/>
<polygon fill="none" stroke="#000000" stroke-width="2.0622" stroke-linecap="round" stroke-linejoin="round" stroke-miterlimit="22.9256" points="
	205.288,232.233 200.784,235.027 161.92,224.564 208.759,195.485 "/>
<line fill="none" stroke="#000000" stroke-width="2.0622" stroke-linecap="round" stroke-linejoin="round" stroke-miterlimit="22.9256" x1="148.163" y1="123.57" x2="159.672" y2="116.426"/>
<line fill="none" stroke="#000000" stroke-width="2.0622" stroke-linecap="round" stroke-linejoin="round" stroke-miterlimit="22.9256" x1="153.908" y1="132.831" x2="165.422" y2="125.68"/>
<line fill="none" stroke="#000000" stroke-width="2.0622" stroke-linecap="round" stroke-linejoin="round" stroke-miterlimit="22.9256" x1="159.659" y1="142.088" x2="171.172" y2="134.941"/>
<line fill="none" stroke="#000000" stroke-width="2.0622" stroke-linecap="round" stroke-linejoin="round" stroke-miterlimit="22.9256" x1="165.409" y1="151.339" x2="176.918" y2="144.202"/>
<line fill="none" stroke="#000000" stroke-width="2.0622" stroke-linecap="round" stroke-linejoin="round" stroke-miterlimit="22.9256" x1="171.154" y1="160.606" x2="182.668" y2="153.455"/>
<line fill="none" stroke="#000000" stroke-width="2.0622" stroke-linecap="round" stroke-linejoin="round" stroke-miterlimit="22.9256" x1="176.904" y1="169.864" x2="188.415" y2="162.717"/>
<line fill="none" stroke="#000000" stroke-width="2.0622" stroke-linecap="round" stroke-linejoin="round" stroke-miterlimit="22.9256" x1="182.652" y1="179.122" x2="194.162" y2="171.982"/>
<line fill="none" stroke="#000000" stroke-width="2.0622" stroke-linecap="round" stroke-linejoin="round" stroke-miterlimit="22.9256" x1="188.399" y1="188.386" x2="199.91" y2="181.231"/>
<rect x="210.681" y="69.26" width="16.51" height="52.177"/>
<rect x="192.848" y="87.097" width="52.179" height="16.511"/>
<line fill="none" stroke="#000000" stroke-width="2.0622" stroke-linecap="round" stroke-linejoin="round" stroke-miterlimit="22.9256" x1="103.947" y1="122.37" x2="142.414" y2="184.539"/>
<line fill="none" stroke="#000000" stroke-width="2.0622" stroke-linecap="round" stroke-linejoin="round" stroke-miterlimit="22.9256" x1="82.801" y1="117.735" x2="87.684" y2="125.68"/>
<line fill="none" stroke="#000000" stroke-width="2.0622" stroke-linecap="round" stroke-linejoin="round" stroke-miterlimit="22.9256" x1="91.366" y1="87.484" x2="98.647" y2="99.332"/>
<line fill="none" stroke="#000000" stroke-width="2.0622" stroke-linecap="round" stroke-linejoin="round" stroke-miterlimit="22.9256" x1="63.433" y1="87.484" x2="68.88" y2="96.347"/>
<polygon points="203.138,237.214 206.746,235.027 232.353,276.051 "/>
</svg>
