<?xml version="1.0" encoding="utf-8"?>
<!-- Generator: Adobe Illustrator 16.0.0, SVG Export Plug-In . SVG Version: 6.00 Build 0)  -->
<!DOCTYPE svg PUBLIC "-//W3C//DTD SVG 1.1//EN" "http://www.w3.org/Graphics/SVG/1.1/DTD/svg11.dtd">
<svg version="1.1" xmlns="http://www.w3.org/2000/svg" xmlns:xlink="http://www.w3.org/1999/xlink" x="0px" y="0px" width="320px"
	 height="320px" viewBox="0 0 320 320" enable-background="new 0 0 320 320" xml:space="preserve">
<g id="圖層_13" display="none">
	<rect x="-5" y="21" display="inline" fill="#595757" width="375" height="332"/>
</g>
<g id="特殊線">
	
		<text transform="matrix(1 0 0 1 55.1768 348.1699)" display="none" fill="#231815" font-family="'MicrosoftYaHei'" font-size="41.1597">特殊線系列</text>
	<path fill="none" stroke="#231815" stroke-width="3" stroke-miterlimit="10" d="M44.508,88.25
		c-1.166-1.162,0.142-4.352,2.901-7.112l38.997-39c2.768-2.761,5.947-4.06,7.105-2.897l107.543,107.539
		c1.16,1.162-0.137,4.346-2.9,7.107l-38.996,38.999c-2.76,2.763-5.949,4.065-7.115,2.903L44.508,88.25z"/>
	<g>
		<defs>
			<path id="SVGID_9_" d="M44.508,88.25c-1.166-1.162,0.142-4.352,2.901-7.112l38.997-39c2.768-2.761,5.947-4.06,7.105-2.897
				l107.543,107.539c1.16,1.162-0.137,4.346-2.9,7.107l-38.996,38.999c-2.76,2.763-5.949,4.065-7.115,2.903L44.508,88.25z"/>
		</defs>
		<clipPath id="SVGID_10_">
			<use xlink:href="#SVGID_9_"  overflow="visible"/>
		</clipPath>
		<g clip-path="url(#SVGID_10_)">
			<polygon fill="none" stroke="#231815" stroke-width="3" stroke-miterlimit="10" points="209.918,40.582 209.924,198.139 
				41.24,198.14 41.232,40.583 			"/>
			<line fill="none" stroke="#231815" stroke-width="3" stroke-miterlimit="10" x1="59.971" y1="40.579" x2="59.971" y2="198.144"/>
			<line fill="none" stroke="#231815" stroke-width="3" stroke-miterlimit="10" x1="78.714" y1="40.582" x2="78.706" y2="198.142"/>
			<line fill="none" stroke="#231815" stroke-width="3" stroke-miterlimit="10" x1="97.453" y1="40.579" x2="97.453" y2="198.144"/>
			
				<line fill="none" stroke="#231815" stroke-width="3" stroke-miterlimit="10" x1="116.188" y1="40.579" x2="116.188" y2="198.142"/>
			
				<line fill="none" stroke="#231815" stroke-width="3" stroke-miterlimit="10" x1="134.967" y1="40.579" x2="134.967" y2="198.144"/>
			
				<line fill="none" stroke="#231815" stroke-width="3" stroke-miterlimit="10" x1="153.706" y1="40.579" x2="153.706" y2="198.14"/>
			
				<line fill="none" stroke="#231815" stroke-width="3" stroke-miterlimit="10" x1="172.449" y1="40.579" x2="172.441" y2="198.145"/>
			<line fill="none" stroke="#231815" stroke-width="3" stroke-miterlimit="10" x1="191.18" y1="40.579" x2="191.18" y2="198.139"/>
			
				<line fill="none" stroke="#231815" stroke-width="3" stroke-miterlimit="10" x1="209.918" y1="180.638" x2="41.232" y2="180.641"/>
			
				<line fill="none" stroke="#231815" stroke-width="3" stroke-miterlimit="10" x1="209.918" y1="163.135" x2="41.24" y2="163.134"/>
			
				<line fill="none" stroke="#231815" stroke-width="3" stroke-miterlimit="10" x1="209.924" y1="145.632" x2="41.232" y2="145.632"/>
			
				<line fill="none" stroke="#231815" stroke-width="3" stroke-miterlimit="10" x1="209.918" y1="128.133" x2="41.232" y2="128.134"/>
			
				<line fill="none" stroke="#231815" stroke-width="3" stroke-miterlimit="10" x1="209.918" y1="110.594" x2="41.232" y2="110.588"/>
			<line fill="none" stroke="#231815" stroke-width="3" stroke-miterlimit="10" x1="209.918" y1="93.087" x2="41.232" y2="93.09"/>
			<line fill="none" stroke="#231815" stroke-width="3" stroke-miterlimit="10" x1="209.918" y1="75.588" x2="41.24" y2="75.585"/>
			<line fill="none" stroke="#231815" stroke-width="3" stroke-miterlimit="10" x1="209.918" y1="58.08" x2="41.232" y2="58.082"/>
		</g>
		<use xlink:href="#SVGID_9_"  overflow="visible" fill="none" stroke="#231815" stroke-width="3" stroke-miterlimit="10"/>
	</g>
	<polygon fill="none" stroke="#231815" stroke-width="3" stroke-miterlimit="10" points="173.662,177.219 173.439,177.166 
		173.486,177.393 	"/>
	<polygon fill="none" stroke="#231815" stroke-width="3" stroke-miterlimit="10" points="174.805,189.762 178.352,193.304 
		177.721,190.391 	"/>
	<polygon fill="none" stroke="#231815" stroke-width="3" stroke-miterlimit="10" points="177.6,189.834 177.721,190.391 
		178.277,190.512 	"/>
	<polygon fill="none" stroke="#231815" stroke-width="3" stroke-miterlimit="10" points="191.863,193.449 189.01,180.236 
		175.309,177.275 174.961,177.627 177.6,189.834 178.277,190.512 	"/>
	<polygon fill="none" stroke="#231815" stroke-width="3" stroke-miterlimit="10" points="175.309,177.275 174.867,177.178 
		174.961,177.627 	"/>
	<polygon fill="none" stroke="#231815" stroke-width="3" stroke-miterlimit="10" points="189.01,180.236 187.449,173.014 
		183.51,169.076 175.309,177.275 	"/>
	<polygon fill="none" stroke="#231815" stroke-width="3" stroke-miterlimit="10" points="196.229,181.795 187.449,173.014 
		189.01,180.236 	"/>
	<polygon fill="none" stroke="#231815" stroke-width="3" stroke-miterlimit="10" points="194.35,206.582 190.877,205.83 
		195.555,210.505 194.805,207.035 	"/>
	<polygon fill="none" stroke="#231815" stroke-width="3" stroke-miterlimit="10" points="194.805,207.035 195.555,210.505 
		206.951,221.9 210.42,222.654 	"/>
	<path fill="none" stroke="#231815" stroke-width="3" stroke-miterlimit="10" d="M235.453,228.064l2.023-2.021
		c0.049-0.048,0.055-0.129,0.096-0.182l-2.193,2.189L235.453,228.064z"/>
	<polygon fill="none" stroke="#231815" stroke-width="3" stroke-miterlimit="10" points="234.174,229.258 234.215,229.298 
		235.453,228.064 235.379,228.051 	"/>
	<polygon fill="none" stroke="#231815" stroke-width="3" stroke-miterlimit="10" points="227.932,235.501 227.945,235.575 
		230.404,233.116 230.363,233.069 	"/>
	<path fill="none" stroke="#231815" stroke-width="3" stroke-miterlimit="10" d="M236.646,222.212l-0.039-0.04
		c0.16,0.157,0.26,0.335,0.395,0.495C236.883,222.521,236.795,222.355,236.646,222.212z"/>
	<path fill="none" stroke="#231815" stroke-width="3" stroke-miterlimit="10" d="M226.967,236.465
		c-0.756,0.758-2.404,0.329-3.691-0.956l-11.268-11.27l0.75,3.472l9.197,9.196c1.287,1.287,3.002,1.655,3.826,0.824l2.164-2.156
		l-0.014-0.074L226.967,236.465z"/>
	<polygon fill="none" stroke="#231815" stroke-width="3" stroke-miterlimit="10" points="210.42,222.654 206.951,221.9 
		212.758,227.711 212.008,224.239 	"/>
	<path fill="#FFFFFF" stroke="#231815" stroke-width="3" stroke-miterlimit="10" d="M227.891,259.819
		c1.342,1.339,3.303,1.547,4.396,0.454c1.09-1.09,0.883-3.054-0.455-4.394l-67.562-67.563l-3.941,3.943L227.891,259.819z"/>
	<path fill="none" stroke="#231815" stroke-width="3" stroke-miterlimit="10" d="M274.9,277.605c0.842,0.85,1.699,1.366,1.922,1.151
		l3.033-3.034c0.221-0.22-0.301-1.077-1.143-1.93l-44.498-44.495l-3.811,3.818L274.9,277.605z"/>
	<polygon fill="none" stroke="#231815" stroke-width="3" stroke-miterlimit="10" points="230.363,233.069 230.404,233.116 
		234.215,229.298 234.174,229.258 	"/>
	<path fill="none" stroke="#231815" stroke-width="3" stroke-miterlimit="10" d="M237.512,223.436
		c0.322,0.631,0.461,1.267,0.361,1.803C237.994,224.729,237.854,224.093,237.512,223.436z"/>
	<path fill="none" stroke="#231815" stroke-width="3" stroke-miterlimit="10" d="M237.572,225.861c0-0.007,0-0.015,0.012-0.02
		C237.572,225.847,237.572,225.854,237.572,225.861L237.572,225.861z"/>
	<polygon fill="none" stroke="#231815" stroke-width="3" stroke-miterlimit="10" points="230.363,233.069 234.174,229.258 
		235.379,228.051 225.875,225.988 227.932,235.501 	"/>
	<polygon fill="none" stroke="#231815" stroke-width="3" stroke-miterlimit="10" points="194.35,206.582 194.805,207.035 
		194.723,206.662 	"/>
	<polygon fill="none" stroke="#231815" stroke-width="3" stroke-miterlimit="10" points="225.875,225.988 223.014,212.778 
		208.873,209.718 211.727,222.936 	"/>
	<polygon fill="none" stroke="#231815" stroke-width="3" stroke-miterlimit="10" points="208.873,209.718 206.012,196.506 
		191.863,193.449 194.723,206.662 	"/>
	<polygon fill="none" stroke="#231815" stroke-width="3" stroke-miterlimit="10" points="210.42,222.654 212.008,224.239 
		211.727,222.936 	"/>
	<polygon fill="none" stroke="#231815" stroke-width="3" stroke-miterlimit="10" points="208.873,209.718 223.014,212.778 
		221.861,207.425 212.303,197.863 206.012,196.506 	"/>
	<polygon fill="none" stroke="#231815" stroke-width="3" stroke-miterlimit="10" points="212.303,197.863 204.652,190.219 
		206.012,196.506 	"/>
	<polygon fill="none" stroke="#231815" stroke-width="3" stroke-miterlimit="10" points="191.863,193.449 206.012,196.506 
		204.652,190.219 196.229,181.795 189.01,180.236 	"/>
	<polygon fill="none" stroke="#231815" stroke-width="3" stroke-miterlimit="10" points="228.367,213.934 221.861,207.425 
		223.014,212.778 	"/>
	<path fill="none" stroke="#231815" stroke-width="3" stroke-miterlimit="10" d="M225.875,225.988l9.504,2.063l2.193-2.189
		c0-0.007,0-0.015,0.012-0.02c0.154-0.161,0.234-0.376,0.289-0.604c0.1-0.536-0.039-1.172-0.361-1.803
		c-0.035-0.073-0.055-0.146-0.094-0.22c-0.107-0.19-0.273-0.368-0.416-0.549c-0.135-0.16-0.234-0.338-0.395-0.495l-8.24-8.238
		l-5.354-1.155L225.875,225.988z"/>
	<path fill="none" stroke="#231815" stroke-width="3" stroke-miterlimit="10" d="M257.957,232.125
		c0.684,0.683,1.359,1.119,1.508,0.972l2.084-2.09c0.152-0.148-0.283-0.824-0.967-1.508l-35.838-35.842l-2.627,2.626
		L257.957,232.125z"/>
	<path fill="none" stroke="#231815" stroke-width="3" stroke-miterlimit="10" d="M219.779,198.619l2.338-2.336l2.627-2.626
		l2.33-2.335c0.516-0.515,0.1-1.775-0.93-2.811l-31.039-31.033l-9.172,9.172l31.039,31.032
		C218.002,198.718,219.264,199.14,219.779,198.619z"/>
	
		<rect x="0.738" y="16.161" display="none" fill="none" stroke="#000000" stroke-miterlimit="10" width="318.523" height="368.484"/>
	
		<line fill="none" stroke="#231815" stroke-width="3" stroke-miterlimit="10" x1="222.586" y1="237.434" x2="168.598" y2="183.445"/>
</g>
</svg>
