<?xml version="1.0" encoding="utf-8"?>
<!-- Generator: Adobe Illustrator 16.0.0, SVG Export Plug-In . SVG Version: 6.00 Build 0)  -->
<!DOCTYPE svg PUBLIC "-//W3C//DTD SVG 1.1//EN" "http://www.w3.org/Graphics/SVG/1.1/DTD/svg11.dtd">
<svg version="1.1" id="圖層_1" xmlns="http://www.w3.org/2000/svg" xmlns:xlink="http://www.w3.org/1999/xlink" x="0px" y="0px"
	 width="800px" height="288.71px" viewBox="0 0 800 288.71" enable-background="new 0 0 800 288.71" xml:space="preserve">
<path fill="#023148" stroke="#FFFFFF" stroke-width="2" stroke-miterlimit="10" d="M283.543,144.495
	c0,69.221-56.119,125.34-125.342,125.34c-69.228,0-125.342-56.119-125.342-125.34c0-69.226,56.115-125.343,125.342-125.343
	C227.424,19.152,283.543,75.269,283.543,144.495z"/>
<g>
	<g>
		<defs>
			<path id="SVGID_1_" d="M283.543,144.495c0,69.221-56.119,125.34-125.342,125.34c-69.228,0-125.342-56.119-125.342-125.34
				c0-69.226,56.115-125.343,125.342-125.343C227.424,19.152,283.543,75.269,283.543,144.495z"/>
		</defs>
		<clipPath id="SVGID_2_">
			<use xlink:href="#SVGID_1_"  overflow="visible"/>
		</clipPath>
		<g clip-path="url(#SVGID_2_)">
			
				<line fill="none" stroke="#FFFFFF" stroke-width="2" stroke-miterlimit="10" x1="160.335" y1="-109.896" x2="432.621" y2="162.389"/>
			
				<line fill="none" stroke="#FFFFFF" stroke-width="2" stroke-miterlimit="10" x1="150.648" y1="-100.208" x2="422.932" y2="172.076"/>
			
				<line fill="none" stroke="#FFFFFF" stroke-width="2" stroke-miterlimit="10" x1="140.961" y1="-90.521" x2="413.246" y2="181.761"/>
			
				<line fill="none" stroke="#FFFFFF" stroke-width="2" stroke-miterlimit="10" x1="131.273" y1="-80.834" x2="403.559" y2="191.451"/>
			
				<line fill="none" stroke="#FFFFFF" stroke-width="2" stroke-miterlimit="10" x1="121.586" y1="-71.147" x2="393.873" y2="201.139"/>
			
				<line fill="none" stroke="#FFFFFF" stroke-width="2" stroke-miterlimit="10" x1="111.899" y1="-61.46" x2="384.183" y2="210.826"/>
			
				<line fill="none" stroke="#FFFFFF" stroke-width="2" stroke-miterlimit="10" x1="102.212" y1="-51.773" x2="374.498" y2="220.512"/>
			
				<line fill="none" stroke="#FFFFFF" stroke-width="2" stroke-miterlimit="10" x1="92.525" y1="-42.087" x2="364.811" y2="230.198"/>
			
				<line fill="none" stroke="#FFFFFF" stroke-width="2" stroke-miterlimit="10" x1="82.839" y1="-32.398" x2="355.122" y2="239.884"/>
			
				<line fill="none" stroke="#FFFFFF" stroke-width="2" stroke-miterlimit="10" x1="73.15" y1="-22.711" x2="345.435" y2="249.572"/>
			<line fill="none" stroke="#FFFFFF" stroke-width="2" stroke-miterlimit="10" x1="63.463" y1="-13.025" x2="335.75" y2="259.26"/>
			
				<line fill="none" stroke="#FFFFFF" stroke-width="2" stroke-miterlimit="10" x1="53.777" y1="-3.338" x2="326.061" y2="268.948"/>
			<line fill="none" stroke="#FFFFFF" stroke-width="2" stroke-miterlimit="10" x1="44.09" y1="6.348" x2="316.375" y2="278.634"/>
			
				<line fill="none" stroke="#FFFFFF" stroke-width="2" stroke-miterlimit="10" x1="34.402" y1="16.036" x2="306.688" y2="288.319"/>
			<line fill="none" stroke="#FFFFFF" stroke-width="2" stroke-miterlimit="10" x1="24.715" y1="25.725" x2="297" y2="298.008"/>
			
				<line fill="none" stroke="#FFFFFF" stroke-width="2" stroke-miterlimit="10" x1="15.029" y1="35.412" x2="287.313" y2="307.695"/>
			<line fill="none" stroke="#FFFFFF" stroke-width="2" stroke-miterlimit="10" x1="5.341" y1="45.098" x2="277.627" y2="317.384"/>
			
				<line fill="none" stroke="#FFFFFF" stroke-width="2" stroke-miterlimit="10" x1="-4.346" y1="54.785" x2="267.939" y2="327.071"/>
			
				<line fill="none" stroke="#FFFFFF" stroke-width="2" stroke-miterlimit="10" x1="-14.033" y1="64.472" x2="258.251" y2="336.758"/>
			
				<line fill="none" stroke="#FFFFFF" stroke-width="2" stroke-miterlimit="10" x1="-23.721" y1="74.159" x2="248.565" y2="346.443"/>
			
				<line fill="none" stroke="#FFFFFF" stroke-width="2" stroke-miterlimit="10" x1="-33.407" y1="83.845" x2="238.878" y2="356.13"/>
			
				<line fill="none" stroke="#FFFFFF" stroke-width="2" stroke-miterlimit="10" x1="-43.094" y1="93.535" x2="229.19" y2="365.817"/>
			
				<line fill="none" stroke="#FFFFFF" stroke-width="2" stroke-miterlimit="10" x1="-54.132" y1="104.571" x2="218.152" y2="376.856"/>
			
				<line fill="none" stroke="#FFFFFF" stroke-width="2" stroke-miterlimit="10" x1="-65.17" y1="115.608" x2="207.115" y2="387.894"/>
			
				<line fill="none" stroke="#FFFFFF" stroke-width="2" stroke-miterlimit="10" x1="-76.209" y1="126.648" x2="196.077" y2="398.933"/>
			
				<line fill="none" stroke="#FFFFFF" stroke-width="2" stroke-miterlimit="10" x1="-87.247" y1="137.685" x2="185.039" y2="409.969"/>
			<line fill="none" stroke="#FFFFFF" stroke-width="2" stroke-miterlimit="10" x1="-98.285" y1="148.724" x2="174" y2="421.006"/>
			
				<line fill="none" stroke="#FFFFFF" stroke-width="2" stroke-miterlimit="10" x1="432.621" y1="148.724" x2="160.336" y2="421.006"/>
			
				<line fill="none" stroke="#FFFFFF" stroke-width="2" stroke-miterlimit="10" x1="422.934" y1="139.037" x2="150.649" y2="411.321"/>
			
				<line fill="none" stroke="#FFFFFF" stroke-width="2" stroke-miterlimit="10" x1="413.248" y1="129.348" x2="140.961" y2="401.634"/>
			
				<line fill="none" stroke="#FFFFFF" stroke-width="2" stroke-miterlimit="10" x1="403.559" y1="119.661" x2="131.274" y2="391.948"/>
			
				<line fill="none" stroke="#FFFFFF" stroke-width="2" stroke-miterlimit="10" x1="393.873" y1="109.975" x2="121.588" y2="382.26"/>
			
				<line fill="none" stroke="#FFFFFF" stroke-width="2" stroke-miterlimit="10" x1="384.185" y1="100.289" x2="111.899" y2="372.576"/>
			
				<line fill="none" stroke="#FFFFFF" stroke-width="2" stroke-miterlimit="10" x1="374.498" y1="90.602" x2="102.213" y2="362.888"/>
			
				<line fill="none" stroke="#FFFFFF" stroke-width="2" stroke-miterlimit="10" x1="364.811" y1="80.916" x2="92.526" y2="353.198"/>
			<line fill="none" stroke="#FFFFFF" stroke-width="2" stroke-miterlimit="10" x1="355.124" y1="71.225" x2="82.839" y2="343.51"/>
			
				<line fill="none" stroke="#FFFFFF" stroke-width="2" stroke-miterlimit="10" x1="345.437" y1="61.539" x2="73.151" y2="333.824"/>
			<line fill="none" stroke="#FFFFFF" stroke-width="2" stroke-miterlimit="10" x1="335.75" y1="51.852" x2="63.465" y2="324.137"/>
			
				<line fill="none" stroke="#FFFFFF" stroke-width="2" stroke-miterlimit="10" x1="326.063" y1="42.165" x2="53.778" y2="314.452"/>
			<line fill="none" stroke="#FFFFFF" stroke-width="2" stroke-miterlimit="10" x1="316.375" y1="32.479" x2="44.09" y2="304.765"/>
			<line fill="none" stroke="#FFFFFF" stroke-width="2" stroke-miterlimit="10" x1="306.69" y1="22.792" x2="34.403" y2="295.078"/>
			<line fill="none" stroke="#FFFFFF" stroke-width="2" stroke-miterlimit="10" x1="297" y1="13.105" x2="24.716" y2="285.389"/>
			<line fill="none" stroke="#FFFFFF" stroke-width="2" stroke-miterlimit="10" x1="287.314" y1="3.417" x2="15.029" y2="275.703"/>
			<line fill="none" stroke="#FFFFFF" stroke-width="2" stroke-miterlimit="10" x1="277.628" y1="-6.271" x2="5.343" y2="266.015"/>
			
				<line fill="none" stroke="#FFFFFF" stroke-width="2" stroke-miterlimit="10" x1="267.939" y1="-15.958" x2="-4.345" y2="256.332"/>
			
				<line fill="none" stroke="#FFFFFF" stroke-width="2" stroke-miterlimit="10" x1="258.253" y1="-25.644" x2="-14.033" y2="246.641"/>
			
				<line fill="none" stroke="#FFFFFF" stroke-width="2" stroke-miterlimit="10" x1="248.566" y1="-35.331" x2="-23.719" y2="236.955"/>
			
				<line fill="none" stroke="#FFFFFF" stroke-width="2" stroke-miterlimit="10" x1="238.878" y1="-45.017" x2="-33.406" y2="227.265"/>
			
				<line fill="none" stroke="#FFFFFF" stroke-width="2" stroke-miterlimit="10" x1="229.192" y1="-54.705" x2="-43.093" y2="217.58"/>
			
				<line fill="none" stroke="#FFFFFF" stroke-width="2" stroke-miterlimit="10" x1="218.153" y1="-65.744" x2="-54.132" y2="206.542"/>
			
				<line fill="none" stroke="#FFFFFF" stroke-width="2" stroke-miterlimit="10" x1="207.115" y1="-76.781" x2="-65.169" y2="195.503"/>
			
				<line fill="none" stroke="#FFFFFF" stroke-width="2" stroke-miterlimit="10" x1="196.077" y1="-87.82" x2="-76.209" y2="184.464"/>
			
				<line fill="none" stroke="#FFFFFF" stroke-width="2" stroke-miterlimit="10" x1="185.04" y1="-98.856" x2="-87.246" y2="173.427"/>
			<line fill="none" stroke="#FFFFFF" stroke-width="2" stroke-miterlimit="10" x1="174" y1="-109.896" x2="-98.285" y2="162.389"/>
		</g>
	</g>
</g>
<path fill="#023148" stroke="#FFFFFF" stroke-width="2" stroke-miterlimit="10" d="M257.989,144.495
	c0,55.115-44.677,99.792-99.788,99.792c-55.115,0-99.785-44.677-99.785-99.792c0-55.108,44.67-99.79,99.785-99.79
	C213.312,44.705,257.989,89.386,257.989,144.495z"/>
<path fill="#EEEEEF" stroke="#FFFFFF" stroke-width="2" stroke-miterlimit="10" d="M243.75,144.495
	c0,47.249-38.302,85.553-85.549,85.553c-47.25,0-85.546-38.305-85.546-85.553c0-47.245,38.297-85.552,85.546-85.552
	C205.448,58.943,243.75,97.25,243.75,144.495z"/>
<ellipse fill="#023148" stroke="#FFFFFF" stroke-width="2" stroke-miterlimit="10" cx="158.202" cy="144.495" rx="80.619" ry="80.624"/>
<line fill="none" stroke="#FFF000" stroke-width="2" stroke-miterlimit="10" x1="210.5" y1="49.431" x2="334.919" y2="49.431"/>
<g>
	<g enable-background="new    ">
		<path fill="#FFFFFF" d="M362.429,49.898h-2.806l-1.586-5.174h-5.381l-1.518,5.174h-2.737l5.381-17.591h3.266L362.429,49.898z
			 M357.6,42.678l-1.38-4.599c-0.322-1.149-0.621-2.392-0.874-3.473H355.3c-0.253,1.081-0.529,2.369-0.828,3.449l-1.403,4.622H357.6
			z"/>
		<path fill="#FFFFFF" d="M371.906,39.573c-0.23-0.046-0.483-0.068-0.782-0.068c-1.794,0-2.92,1.472-2.92,3.679v6.715h-2.667v-8.807
			c0-1.472-0.023-2.69-0.092-3.863h2.322l0.092,2.322h0.092c0.575-1.609,1.909-2.599,3.288-2.599c0.253,0,0.437,0.023,0.667,0.069
			V39.573z"/>
		<path fill="#FFFFFF" d="M392.166,49.898h-2.622v-7.243c0-2.116-0.69-3.519-2.299-3.519c-1.219,0-2.46,1.104-2.46,2.943v7.818
			h-2.622v-7.635c0-1.771-0.667-3.127-2.208-3.127c-1.196,0-2.552,1.081-2.552,3.081v7.681h-2.622v-9.106
			c0-1.425-0.046-2.483-0.092-3.563h2.299l0.138,1.862h0.069c0.621-1.058,1.771-2.139,3.702-2.139c1.609,0,2.828,0.896,3.357,2.322
			h0.046c0.851-1.402,2.092-2.322,3.909-2.322c1.885,0,3.955,1.288,3.955,5.289V49.898z"/>
		<path fill="#FFFFFF" d="M407.232,43.46c0,4.737-3.082,6.691-5.934,6.691c-3.288,0-5.794-2.414-5.794-6.508
			c0-4.276,2.621-6.691,5.979-6.691C404.955,36.952,407.232,39.573,407.232,43.46z M401.392,38.953c-2.277,0-3.15,2.438-3.15,4.622
			c0,2.483,1.173,4.575,3.128,4.575c1.931,0,3.127-2.092,3.127-4.621C404.496,41.437,403.622,38.953,401.392,38.953z"/>
		<path fill="#FFFFFF" d="M417.055,39.573c-0.23-0.046-0.483-0.068-0.782-0.068c-1.794,0-2.921,1.472-2.921,3.679v6.715h-2.667
			v-8.807c0-1.472-0.022-2.69-0.092-3.863h2.322l0.092,2.322h0.093c0.574-1.609,1.908-2.599,3.287-2.599
			c0.254,0,0.438,0.023,0.668,0.069V39.573z"/>
		<path fill="#FFFFFF" d="M429.197,49.393c-0.896,0.414-2.3,0.759-4.024,0.759c-3.817,0-6.024-2.553-6.024-6.416
			c0-3.771,2.115-6.783,5.703-6.783c3.564,0,4.989,2.967,4.989,6.094c0,0.437-0.022,0.805-0.069,1.127h-8.048
			c0.069,2.852,1.84,3.932,3.841,3.932c1.402,0,2.368-0.253,3.195-0.598L429.197,49.393z M427.312,42.264
			c0.022-1.518-0.598-3.402-2.645-3.402c-1.954,0-2.782,1.931-2.921,3.402H427.312z"/>
		<path fill="#FFFFFF" d="M443.802,46.519c0,1.149,0.046,2.506,0.092,3.38h-2.345l-0.139-1.978h-0.068
			c-0.668,1.288-2.047,2.23-3.841,2.23c-2.874,0-5.059-2.553-5.059-6.462c0-4.3,2.46-6.737,5.288-6.737
			c1.633,0,2.807,0.736,3.357,1.702h0.047v-7.198h2.667V46.519z M441.135,42.356c0-2.07-1.311-3.289-2.806-3.289
			c-2.047,0-3.173,2.024-3.173,4.53c0,2.483,1.104,4.393,3.127,4.393c1.725,0,2.852-1.518,2.852-3.289V42.356z"/>
		<path fill="#FFFFFF" d="M462.34,35.044c-0.574-0.322-1.679-0.782-3.127-0.782c-2.093,0-2.967,1.219-2.967,2.346
			c0,1.494,0.988,2.23,3.219,3.196c2.829,1.241,4.186,2.782,4.186,5.197c0,2.943-2.184,5.15-6.14,5.15
			c-1.655,0-3.403-0.482-4.254-1.058l0.598-2.23c0.942,0.574,2.368,1.034,3.817,1.034c2.093,0,3.266-1.08,3.266-2.667
			c0-1.495-0.896-2.414-2.99-3.288c-2.621-1.058-4.392-2.645-4.392-5.036c0-2.782,2.23-4.875,5.726-4.875
			c1.679,0,2.943,0.414,3.703,0.805L462.34,35.044z"/>
		<path fill="#FFFFFF" d="M467.701,34.929l2.645-0.828v3.128h3.012v2h-3.012v6.416c0,1.563,0.482,2.322,1.609,2.322
			c0.529,0,0.851-0.069,1.172-0.161l0.093,2.047c-0.46,0.184-1.173,0.299-2.069,0.299c-1.059,0-1.955-0.345-2.507-0.966
			c-0.644-0.689-0.942-1.748-0.942-3.403v-6.554h-1.794v-2h1.794V34.929z"/>
		<path fill="#FFFFFF" d="M485.34,46.886c0,1.081,0.022,2.185,0.184,3.013h-2.414l-0.185-1.472h-0.069
			c-0.713,0.989-1.954,1.725-3.541,1.725c-2.368,0-3.725-1.748-3.725-3.702c0-3.15,2.736-4.714,7.082-4.714
			c0-0.943,0-2.828-2.553-2.828c-1.127,0-2.275,0.345-3.081,0.873l-0.552-1.771c0.896-0.574,2.392-1.058,4.094-1.058
			c3.725,0,4.76,2.461,4.76,5.151V46.886z M482.741,43.529c-2.093,0-4.507,0.391-4.507,2.644c0,1.403,0.873,2.024,1.862,2.024
			c1.448,0,2.645-1.104,2.645-2.576V43.529z"/>
		<path fill="#FFFFFF" d="M490.838,35.273c-0.92,0-1.541-0.689-1.541-1.54c0-0.897,0.645-1.564,1.564-1.564s1.541,0.667,1.541,1.564
			C492.402,34.584,491.804,35.273,490.838,35.273z M492.172,49.898h-2.668V37.205h2.668V49.898z"/>
		<path fill="#FFFFFF" d="M506.867,49.898h-2.668v-7.428c0-1.793-0.598-3.311-2.414-3.311c-1.311,0-2.713,1.08-2.713,3.104v7.635
			h-2.668v-9.106c0-1.402-0.046-2.483-0.092-3.563h2.322l0.139,1.886h0.068c0.598-1.081,1.932-2.162,3.84-2.162
			c1.979,0,4.186,1.288,4.186,5.197V49.898z"/>
		<path fill="#FFFFFF" d="M513.699,49.898h-2.667V31.456h2.667V49.898z"/>
		<path fill="#FFFFFF" d="M527.176,49.393c-0.896,0.414-2.299,0.759-4.023,0.759c-3.817,0-6.025-2.553-6.025-6.416
			c0-3.771,2.115-6.783,5.703-6.783c3.564,0,4.99,2.967,4.99,6.094c0,0.437-0.023,0.805-0.069,1.127h-8.048
			c0.068,2.852,1.84,3.932,3.84,3.932c1.402,0,2.369-0.253,3.196-0.598L527.176,49.393z M525.291,42.264
			c0.022-1.518-0.598-3.402-2.645-3.402c-1.955,0-2.783,1.931-2.921,3.402H525.291z"/>
		<path fill="#FFFFFF" d="M537.504,39.62c-0.506-0.322-1.38-0.713-2.414-0.713c-1.196,0-1.84,0.689-1.84,1.54
			c0,0.874,0.574,1.311,2.115,1.978c2.092,0.851,3.196,2.001,3.196,3.841c0,2.438-1.862,3.886-4.737,3.886
			c-1.334,0-2.598-0.345-3.449-0.851l0.598-1.978c0.645,0.391,1.816,0.851,2.898,0.851c1.426,0,2.115-0.689,2.115-1.655
			s-0.529-1.495-2.047-2.139c-2.254-0.897-3.242-2.162-3.242-3.634c0-2.115,1.725-3.794,4.393-3.794
			c1.241,0,2.322,0.345,3.012,0.736L537.504,39.62z"/>
		<path fill="#FFFFFF" d="M548.268,39.62c-0.506-0.322-1.38-0.713-2.414-0.713c-1.196,0-1.84,0.689-1.84,1.54
			c0,0.874,0.574,1.311,2.115,1.978c2.092,0.851,3.196,2.001,3.196,3.841c0,2.438-1.862,3.886-4.737,3.886
			c-1.334,0-2.598-0.345-3.449-0.851l0.598-1.978c0.645,0.391,1.816,0.851,2.898,0.851c1.426,0,2.115-0.689,2.115-1.655
			s-0.529-1.495-2.047-2.139c-2.254-0.897-3.242-2.162-3.242-3.634c0-2.115,1.725-3.794,4.393-3.794
			c1.241,0,2.322,0.345,3.012,0.736L548.268,39.62z"/>
		<path fill="#FFFFFF" d="M567.059,35.044c-0.575-0.322-1.68-0.782-3.128-0.782c-2.093,0-2.966,1.219-2.966,2.346
			c0,1.494,0.988,2.23,3.219,3.196c2.828,1.241,4.186,2.782,4.186,5.197c0,2.943-2.186,5.15-6.141,5.15
			c-1.654,0-3.402-0.482-4.254-1.058l0.598-2.23c0.943,0.574,2.369,1.034,3.818,1.034c2.092,0,3.265-1.08,3.265-2.667
			c0-1.495-0.896-2.414-2.989-3.288c-2.621-1.058-4.393-2.645-4.393-5.036c0-2.782,2.23-4.875,5.727-4.875
			c1.678,0,2.943,0.414,3.702,0.805L567.059,35.044z"/>
		<path fill="#FFFFFF" d="M572.418,34.929l2.645-0.828v3.128h3.013v2h-3.013v6.416c0,1.563,0.483,2.322,1.609,2.322
			c0.529,0,0.852-0.069,1.174-0.161l0.092,2.047c-0.46,0.184-1.173,0.299-2.07,0.299c-1.057,0-1.954-0.345-2.506-0.966
			c-0.645-0.689-0.943-1.748-0.943-3.403v-6.554h-1.793v-2h1.793V34.929z"/>
		<path fill="#FFFFFF" d="M590.448,49.393c-0.897,0.414-2.3,0.759-4.024,0.759c-3.816,0-6.024-2.553-6.024-6.416
			c0-3.771,2.115-6.783,5.702-6.783c3.564,0,4.99,2.967,4.99,6.094c0,0.437-0.023,0.805-0.068,1.127h-8.049
			c0.069,2.852,1.84,3.932,3.84,3.932c1.403,0,2.369-0.253,3.197-0.598L590.448,49.393z M588.563,42.264
			c0.023-1.518-0.598-3.402-2.645-3.402c-1.955,0-2.782,1.931-2.92,3.402H588.563z"/>
		<path fill="#FFFFFF" d="M603.742,49.393c-0.896,0.414-2.299,0.759-4.023,0.759c-3.817,0-6.025-2.553-6.025-6.416
			c0-3.771,2.115-6.783,5.703-6.783c3.564,0,4.99,2.967,4.99,6.094c0,0.437-0.023,0.805-0.069,1.127h-8.048
			c0.068,2.852,1.84,3.932,3.84,3.932c1.402,0,2.369-0.253,3.196-0.598L603.742,49.393z M601.857,42.264
			c0.022-1.518-0.598-3.402-2.645-3.402c-1.955,0-2.783,1.931-2.921,3.402H601.857z"/>
		<path fill="#FFFFFF" d="M610.438,49.898h-2.668V31.456h2.668V49.898z"/>
		<path fill="#FFFFFF" d="M626.535,44.058c0,4.646-2.207,6.094-5.288,6.094c-0.806,0-1.748-0.138-2.3-0.345l0.322-2.208
			c0.437,0.161,1.035,0.276,1.748,0.276c1.77,0,2.851-0.782,2.851-3.909V32.284h2.667V44.058z"/>
		<path fill="#FFFFFF" d="M639.576,46.886c0,1.081,0.023,2.185,0.184,3.013h-2.414l-0.184-1.472h-0.069
			c-0.713,0.989-1.954,1.725-3.541,1.725c-2.368,0-3.726-1.748-3.726-3.702c0-3.15,2.736-4.714,7.082-4.714
			c0-0.943,0-2.828-2.552-2.828c-1.127,0-2.276,0.345-3.081,0.873l-0.553-1.771c0.897-0.574,2.393-1.058,4.094-1.058
			c3.725,0,4.76,2.461,4.76,5.151V46.886z M636.979,43.529c-2.094,0-4.508,0.391-4.508,2.644c0,1.403,0.874,2.024,1.863,2.024
			c1.448,0,2.645-1.104,2.645-2.576V43.529z"/>
		<path fill="#FFFFFF" d="M652.271,49.508c-0.598,0.275-1.793,0.644-3.266,0.644c-3.656,0-6.047-2.507-6.047-6.462
			c0-3.84,2.483-6.737,6.553-6.737c1.219,0,2.277,0.299,2.829,0.575l-0.528,2.046c-0.461-0.229-1.196-0.506-2.277-0.506
			c-2.483,0-3.863,2.024-3.863,4.508c0,2.782,1.633,4.438,3.84,4.438c1.059,0,1.795-0.253,2.393-0.506L652.271,49.508z"/>
		<path fill="#FFFFFF" d="M666.025,49.898h-3.219l-3.634-5.817l-1.034,1.265v4.553h-2.668V31.456h2.668v11.475h0.045
			c0.299-0.482,0.645-1.034,0.967-1.472l3.15-4.23h3.15l-4.462,5.22L666.025,49.898z"/>
		<path fill="#FFFFFF" d="M677.595,49.393c-0.897,0.414-2.3,0.759-4.024,0.759c-3.816,0-6.024-2.553-6.024-6.416
			c0-3.771,2.115-6.783,5.702-6.783c3.564,0,4.99,2.967,4.99,6.094c0,0.437-0.023,0.805-0.068,1.127h-8.049
			c0.069,2.852,1.84,3.932,3.84,3.932c1.403,0,2.369-0.253,3.197-0.598L677.595,49.393z M675.709,42.264
			c0.023-1.518-0.598-3.402-2.645-3.402c-1.955,0-2.782,1.931-2.92,3.402H675.709z"/>
		<path fill="#FFFFFF" d="M682.15,34.929l2.645-0.828v3.128h3.012v2h-3.012v6.416c0,1.563,0.482,2.322,1.609,2.322
			c0.529,0,0.852-0.069,1.173-0.161l0.093,2.047c-0.461,0.184-1.174,0.299-2.07,0.299c-1.058,0-1.955-0.345-2.506-0.966
			c-0.645-0.689-0.943-1.748-0.943-3.403v-6.554h-1.793v-2h1.793V34.929z"/>
		<path fill="#FFFFFF" d="M697.215,37.229c0-1.38,0-3.427,1.426-4.853c0.874-0.851,2.047-1.173,3.082-1.173
			c0.827,0,1.471,0.161,1.932,0.346l-0.277,2.046c-0.344-0.138-0.735-0.253-1.355-0.253c-1.656,0-2.162,1.495-2.162,3.196v0.69
			h2.782v2h-2.759v10.67h-2.668v-10.67h-1.701v-2H697.215z"/>
		<path fill="#FFFFFF" d="M716.232,43.46c0,4.737-3.08,6.691-5.932,6.691c-3.289,0-5.795-2.414-5.795-6.508
			c0-4.276,2.621-6.691,5.979-6.691C713.957,36.952,716.232,39.573,716.232,43.46z M710.393,38.953c-2.277,0-3.15,2.438-3.15,4.622
			c0,2.483,1.173,4.575,3.127,4.575c1.932,0,3.127-2.092,3.127-4.621C713.496,41.437,712.623,38.953,710.393,38.953z"/>
		<path fill="#FFFFFF" d="M726.055,39.573c-0.229-0.046-0.482-0.068-0.781-0.068c-1.794,0-2.92,1.472-2.92,3.679v6.715h-2.668
			v-8.807c0-1.472-0.023-2.69-0.092-3.863h2.322l0.092,2.322h0.092c0.575-1.609,1.909-2.599,3.289-2.599
			c0.252,0,0.437,0.023,0.666,0.069V39.573z"/>
		<path fill="#FFFFFF" d="M351.966,66.76c0.874-1.426,2.253-2.208,4.024-2.208c2.852,0,4.99,2.529,4.99,6.462
			c0,4.645-2.69,6.737-5.358,6.737c-1.518,0-2.759-0.713-3.38-1.748h-0.046v6.623h-2.667V68.921c0-1.655-0.046-2.967-0.092-4.093
			h2.345l0.138,1.932H351.966z M352.196,72.394c0,2.276,1.563,3.242,2.875,3.242c2.069,0,3.196-1.909,3.196-4.53
			c0-2.414-1.081-4.415-3.127-4.415c-1.587,0-2.943,1.495-2.943,3.357V72.394z"/>
		<path fill="#FFFFFF" d="M370.779,67.173c-0.23-0.046-0.483-0.068-0.782-0.068c-1.794,0-2.92,1.472-2.92,3.679v6.715h-2.667v-8.807
			c0-1.472-0.023-2.69-0.092-3.863h2.322l0.092,2.322h0.092c0.575-1.609,1.909-2.599,3.288-2.599c0.253,0,0.437,0.023,0.667,0.069
			V67.173z"/>
		<path fill="#FFFFFF" d="M384.578,71.06c0,4.737-3.081,6.691-5.933,6.691c-3.288,0-5.794-2.414-5.794-6.508
			c0-4.276,2.621-6.691,5.979-6.691C382.301,64.552,384.578,67.173,384.578,71.06z M378.737,66.553c-2.277,0-3.15,2.438-3.15,4.622
			c0,2.483,1.173,4.575,3.127,4.575c1.931,0,3.127-2.092,3.127-4.621C381.841,69.036,380.968,66.553,378.737,66.553z"/>
		<path fill="#FFFFFF" d="M388.559,62.528l2.645-0.828v3.128h3.012v2h-3.012v6.416c0,1.563,0.483,2.322,1.609,2.322
			c0.529,0,0.851-0.069,1.173-0.161l0.092,2.047c-0.46,0.184-1.173,0.299-2.07,0.299c-1.058,0-1.955-0.345-2.506-0.966
			c-0.644-0.689-0.943-1.748-0.943-3.403v-6.554h-1.793v-2h1.793V62.528z"/>
		<path fill="#FFFFFF" d="M406.589,76.992c-0.897,0.414-2.3,0.759-4.024,0.759c-3.817,0-6.024-2.553-6.024-6.416
			c0-3.771,2.115-6.783,5.702-6.783c3.564,0,4.99,2.967,4.99,6.094c0,0.437-0.023,0.805-0.068,1.127h-8.049
			c0.069,2.852,1.84,3.932,3.84,3.932c1.403,0,2.369-0.253,3.197-0.598L406.589,76.992z M404.703,69.863
			c0.023-1.518-0.598-3.402-2.645-3.402c-1.955,0-2.782,1.931-2.92,3.402H404.703z"/>
		<path fill="#FFFFFF" d="M419.146,77.107c-0.598,0.275-1.793,0.644-3.266,0.644c-3.656,0-6.047-2.507-6.047-6.462
			c0-3.84,2.483-6.737,6.553-6.737c1.219,0,2.277,0.299,2.829,0.575l-0.528,2.046c-0.461-0.229-1.196-0.506-2.277-0.506
			c-2.483,0-3.863,2.024-3.863,4.508c0,2.782,1.633,4.438,3.84,4.438c1.059,0,1.795-0.253,2.393-0.506L419.146,77.107z"/>
		<path fill="#FFFFFF" d="M422.875,62.528l2.645-0.828v3.128h3.012v2h-3.012v6.416c0,1.563,0.482,2.322,1.609,2.322
			c0.529,0,0.851-0.069,1.172-0.161l0.093,2.047c-0.46,0.184-1.173,0.299-2.069,0.299c-1.059,0-1.955-0.345-2.507-0.966
			c-0.644-0.689-0.942-1.748-0.942-3.403v-6.554h-1.794v-2h1.794V62.528z"/>
		<path fill="#FFFFFF" d="M432.971,62.873c-0.92,0-1.541-0.689-1.541-1.54c0-0.897,0.645-1.564,1.564-1.564s1.541,0.667,1.541,1.564
			C434.535,62.184,433.937,62.873,432.971,62.873z M434.305,77.498h-2.668V64.805h2.668V77.498z"/>
		<path fill="#FFFFFF" d="M449.459,71.06c0,4.737-3.08,6.691-5.932,6.691c-3.289,0-5.795-2.414-5.795-6.508
			c0-4.276,2.621-6.691,5.979-6.691C447.184,64.552,449.459,67.173,449.459,71.06z M443.619,66.553c-2.277,0-3.15,2.438-3.15,4.622
			c0,2.483,1.173,4.575,3.127,4.575c1.932,0,3.127-2.092,3.127-4.621C446.723,69.036,445.85,66.553,443.619,66.553z"/>
		<path fill="#FFFFFF" d="M463.375,77.498h-2.668V70.07c0-1.793-0.598-3.311-2.414-3.311c-1.311,0-2.713,1.08-2.713,3.104v7.635
			h-2.668v-9.106c0-1.402-0.046-2.483-0.092-3.563h2.322l0.139,1.886h0.068c0.598-1.081,1.932-2.162,3.84-2.162
			c1.979,0,4.186,1.288,4.186,5.197V77.498z"/>
		<path fill="#FFFFFF" d="M473.842,64.828c0-1.38,0-3.427,1.426-4.853c0.874-0.851,2.047-1.173,3.082-1.173
			c0.827,0,1.471,0.161,1.932,0.346l-0.277,2.046c-0.344-0.138-0.735-0.253-1.355-0.253c-1.656,0-2.162,1.495-2.162,3.196v0.69
			h2.782v2h-2.759v10.67h-2.668v-10.67h-1.701v-2H473.842z"/>
		<path fill="#FFFFFF" d="M488.307,67.173c-0.229-0.046-0.482-0.068-0.781-0.068c-1.794,0-2.92,1.472-2.92,3.679v6.715h-2.668
			v-8.807c0-1.472-0.023-2.69-0.092-3.863h2.322l0.092,2.322h0.092c0.575-1.609,1.909-2.599,3.289-2.599
			c0.252,0,0.437,0.023,0.666,0.069V67.173z"/>
		<path fill="#FFFFFF" d="M502.105,71.06c0,4.737-3.08,6.691-5.932,6.691c-3.289,0-5.795-2.414-5.795-6.508
			c0-4.276,2.621-6.691,5.979-6.691C499.83,64.552,502.105,67.173,502.105,71.06z M496.266,66.553c-2.277,0-3.15,2.438-3.15,4.622
			c0,2.483,1.173,4.575,3.127,4.575c1.932,0,3.127-2.092,3.127-4.621C499.369,69.036,498.496,66.553,496.266,66.553z"/>
		<path fill="#FFFFFF" d="M522.943,77.498h-2.622v-7.243c0-2.116-0.69-3.519-2.3-3.519c-1.219,0-2.46,1.104-2.46,2.943v7.818h-2.622
			v-7.635c0-1.771-0.666-3.127-2.207-3.127c-1.195,0-2.553,1.081-2.553,3.081v7.681h-2.621v-9.106c0-1.425-0.046-2.483-0.092-3.563
			h2.299l0.139,1.862h0.068c0.621-1.058,1.771-2.139,3.703-2.139c1.609,0,2.828,0.896,3.357,2.322h0.045
			c0.852-1.402,2.093-2.322,3.91-2.322c1.885,0,3.955,1.288,3.955,5.289V77.498z"/>
		<path fill="#FFFFFF" d="M539.344,67.22c-0.506-0.322-1.38-0.713-2.414-0.713c-1.196,0-1.84,0.689-1.84,1.54
			c0,0.874,0.574,1.311,2.115,1.978c2.092,0.851,3.196,2.001,3.196,3.841c0,2.438-1.862,3.886-4.737,3.886
			c-1.334,0-2.598-0.345-3.449-0.851l0.598-1.978c0.645,0.391,1.816,0.851,2.898,0.851c1.426,0,2.115-0.689,2.115-1.655
			s-0.529-1.495-2.047-2.139c-2.254-0.897-3.242-2.162-3.242-3.634c0-2.115,1.725-3.794,4.393-3.794
			c1.241,0,2.322,0.345,3.012,0.736L539.344,67.22z"/>
		<path fill="#FFFFFF" d="M545.141,62.873c-0.92,0-1.541-0.689-1.541-1.54c0-0.897,0.645-1.564,1.564-1.564s1.541,0.667,1.541,1.564
			C546.705,62.184,546.106,62.873,545.141,62.873z M546.475,77.498h-2.668V64.805h2.668V77.498z"/>
		<path fill="#FFFFFF" d="M561.285,64.828c-0.069,0.896-0.115,1.954-0.115,3.656v7.22c0,2.53-0.207,7.198-6.209,7.198
			c-1.472,0-3.012-0.322-4.001-0.92l0.598-2.07c0.782,0.46,2.001,0.897,3.427,0.897c2.069,0,3.541-1.15,3.541-4.024v-1.219h-0.046
			c-0.644,1.081-1.886,1.862-3.519,1.862c-2.989,0-5.035-2.645-5.035-6.186c0-4.3,2.598-6.691,5.357-6.691
			c1.885,0,2.943,0.966,3.473,1.978h0.045l0.115-1.701H561.285z M558.502,69.726c0-1.679-1.104-3.059-2.736-3.059
			c-1.84,0-3.127,1.748-3.127,4.462c0,2.483,1.127,4.254,3.104,4.254c1.381,0,2.76-1.058,2.76-3.174V69.726z"/>
		<path fill="#FFFFFF" d="M575.844,77.498h-2.668V70.07c0-1.793-0.598-3.311-2.414-3.311c-1.311,0-2.713,1.08-2.713,3.104v7.635
			h-2.668v-9.106c0-1.402-0.046-2.483-0.092-3.563h2.322l0.139,1.886h0.068c0.598-1.081,1.932-2.162,3.84-2.162
			c1.979,0,4.186,1.288,4.186,5.197V77.498z"/>
		<path fill="#FFFFFF" d="M588.885,74.485c0,1.081,0.023,2.185,0.184,3.013h-2.414l-0.184-1.472h-0.069
			c-0.713,0.989-1.954,1.725-3.541,1.725c-2.368,0-3.726-1.748-3.726-3.702c0-3.15,2.736-4.714,7.082-4.714
			c0-0.943,0-2.828-2.552-2.828c-1.127,0-2.276,0.345-3.081,0.873l-0.553-1.771c0.897-0.574,2.393-1.058,4.094-1.058
			c3.725,0,4.76,2.461,4.76,5.151V74.485z M586.287,71.129c-2.094,0-4.508,0.391-4.508,2.644c0,1.403,0.874,2.024,1.863,2.024
			c1.448,0,2.645-1.104,2.645-2.576V71.129z"/>
		<path fill="#FFFFFF" d="M595.717,77.498h-2.667V59.056h2.667V77.498z"/>
		<path fill="#FFFFFF" d="M607.217,62.873c-0.919,0-1.54-0.689-1.54-1.54c0-0.897,0.644-1.564,1.563-1.564s1.541,0.667,1.541,1.564
			C608.781,62.184,608.184,62.873,607.217,62.873z M608.551,77.498h-2.667V64.805h2.667V77.498z"/>
		<path fill="#FFFFFF" d="M623.246,77.498h-2.667V70.07c0-1.793-0.599-3.311-2.415-3.311c-1.311,0-2.713,1.08-2.713,3.104v7.635
			h-2.668v-9.106c0-1.402-0.045-2.483-0.092-3.563h2.322l0.139,1.886h0.068c0.598-1.081,1.932-2.162,3.841-2.162
			c1.978,0,4.185,1.288,4.185,5.197V77.498z"/>
		<path fill="#FFFFFF" d="M627.94,62.528l2.645-0.828v3.128h3.013v2h-3.013v6.416c0,1.563,0.483,2.322,1.609,2.322
			c0.529,0,0.851-0.069,1.173-0.161l0.092,2.047c-0.459,0.184-1.172,0.299-2.069,0.299c-1.058,0-1.954-0.345-2.507-0.966
			c-0.644-0.689-0.942-1.748-0.942-3.403v-6.554h-1.794v-2h1.794V62.528z"/>
		<path fill="#FFFFFF" d="M645.971,76.992c-0.897,0.414-2.301,0.759-4.025,0.759c-3.816,0-6.023-2.553-6.023-6.416
			c0-3.771,2.115-6.783,5.702-6.783c3.564,0,4.989,2.967,4.989,6.094c0,0.437-0.022,0.805-0.068,1.127h-8.049
			c0.07,2.852,1.84,3.932,3.841,3.932c1.403,0,2.368-0.253,3.196-0.598L645.971,76.992z M644.084,69.863
			c0.023-1.518-0.598-3.402-2.645-3.402c-1.954,0-2.781,1.931-2.92,3.402H644.084z"/>
		<path fill="#FFFFFF" d="M656.367,67.173c-0.23-0.046-0.483-0.068-0.782-0.068c-1.794,0-2.921,1.472-2.921,3.679v6.715h-2.667
			v-8.807c0-1.472-0.022-2.69-0.092-3.863h2.322l0.092,2.322h0.093c0.574-1.609,1.908-2.599,3.287-2.599
			c0.254,0,0.438,0.023,0.668,0.069V67.173z"/>
		<path fill="#FFFFFF" d="M659.588,64.828c0-1.38,0-3.427,1.426-4.853c0.874-0.851,2.047-1.173,3.082-1.173
			c0.827,0,1.471,0.161,1.932,0.346l-0.277,2.046c-0.344-0.138-0.735-0.253-1.355-0.253c-1.656,0-2.162,1.495-2.162,3.196v0.69
			h2.782v2h-2.759v10.67h-2.668v-10.67h-1.701v-2H659.588z"/>
		<path fill="#FFFFFF" d="M676.951,76.992c-0.897,0.414-2.301,0.759-4.025,0.759c-3.816,0-6.023-2.553-6.023-6.416
			c0-3.771,2.115-6.783,5.702-6.783c3.564,0,4.989,2.967,4.989,6.094c0,0.437-0.022,0.805-0.068,1.127h-8.049
			c0.07,2.852,1.84,3.932,3.841,3.932c1.403,0,2.368-0.253,3.196-0.598L676.951,76.992z M675.064,69.863
			c0.023-1.518-0.598-3.402-2.645-3.402c-1.954,0-2.781,1.931-2.92,3.402H675.064z"/>
		<path fill="#FFFFFF" d="M687.348,67.173c-0.23-0.046-0.483-0.068-0.782-0.068c-1.794,0-2.921,1.472-2.921,3.679v6.715h-2.667
			v-8.807c0-1.472-0.022-2.69-0.092-3.863h2.322l0.092,2.322h0.093c0.574-1.609,1.908-2.599,3.287-2.599
			c0.254,0,0.438,0.023,0.668,0.069V67.173z"/>
		<path fill="#FFFFFF" d="M699.49,76.992c-0.896,0.414-2.299,0.759-4.023,0.759c-3.817,0-6.025-2.553-6.025-6.416
			c0-3.771,2.115-6.783,5.703-6.783c3.564,0,4.99,2.967,4.99,6.094c0,0.437-0.023,0.805-0.069,1.127h-8.048
			c0.068,2.852,1.84,3.932,3.84,3.932c1.402,0,2.369-0.253,3.196-0.598L699.49,76.992z M697.605,69.863
			c0.022-1.518-0.598-3.402-2.645-3.402c-1.955,0-2.783,1.931-2.921,3.402H697.605z"/>
		<path fill="#FFFFFF" d="M713.98,77.498h-2.668V70.07c0-1.793-0.598-3.311-2.414-3.311c-1.311,0-2.713,1.08-2.713,3.104v7.635
			h-2.668v-9.106c0-1.402-0.046-2.483-0.092-3.563h2.322l0.139,1.886h0.068c0.598-1.081,1.932-2.162,3.84-2.162
			c1.979,0,4.186,1.288,4.186,5.197V77.498z"/>
		<path fill="#FFFFFF" d="M726.677,77.107c-0.599,0.275-1.794,0.644-3.266,0.644c-3.655,0-6.048-2.507-6.048-6.462
			c0-3.84,2.484-6.737,6.554-6.737c1.219,0,2.276,0.299,2.829,0.575l-0.529,2.046c-0.46-0.229-1.195-0.506-2.276-0.506
			c-2.483,0-3.863,2.024-3.863,4.508c0,2.782,1.632,4.438,3.84,4.438c1.058,0,1.794-0.253,2.392-0.506L726.677,77.107z"/>
		<path fill="#FFFFFF" d="M739.143,76.992c-0.897,0.414-2.301,0.759-4.025,0.759c-3.816,0-6.023-2.553-6.023-6.416
			c0-3.771,2.115-6.783,5.702-6.783c3.564,0,4.989,2.967,4.989,6.094c0,0.437-0.022,0.805-0.068,1.127h-8.049
			c0.07,2.852,1.84,3.932,3.841,3.932c1.403,0,2.368-0.253,3.196-0.598L739.143,76.992z M737.256,69.863
			c0.023-1.518-0.598-3.402-2.645-3.402c-1.954,0-2.781,1.931-2.92,3.402H737.256z"/>
	</g>
</g>
<g>
	<g enable-background="new    ">
		<path fill="#FFFFFF" d="M349.667,138.219c1.265-0.207,2.828-0.368,4.484-0.368c7.496,0,9.06,4.622,9.06,8.531v0.023
			c0,3.196-0.989,5.519-2.53,7.014c-1.586,1.54-4.093,2.322-7.197,2.322c-1.563,0-2.828-0.069-3.817-0.207V138.219z
			 M352.333,153.511c0.46,0.068,1.104,0.092,1.725,0.092c3.956,0.023,6.347-2.3,6.347-7.151c0-4.277-2.208-6.484-6.001-6.484
			c-0.92,0-1.61,0.092-2.07,0.184V153.511z"/>
		<path fill="#FFFFFF" d="M376.827,151.948c0,1.426,0.069,2.621,0.115,3.633h-2.345l-0.138-1.84h-0.069
			c-0.529,0.874-1.771,2.093-3.817,2.093c-2.184,0-4.093-1.356-4.093-5.403v-7.543h2.667v7.105c0,2.185,0.621,3.634,2.368,3.634
			c1.219,0,2.645-0.966,2.645-2.875v-7.841h2.667V151.948z"/>
		<path fill="#FFFFFF" d="M391.891,149.142c0,4.737-3.081,6.691-5.933,6.691c-3.288,0-5.794-2.414-5.794-6.508
			c0-4.276,2.621-6.691,5.979-6.691C389.615,142.634,391.891,145.255,391.891,149.142z M386.051,144.635
			c-2.277,0-3.15,2.438-3.15,4.622c0,2.483,1.173,4.575,3.127,4.575c1.931,0,3.127-2.092,3.127-4.621
			C389.155,147.119,388.281,144.635,386.051,144.635z"/>
		<path fill="#FFFFFF" d="M403.555,144.842c0.873-1.426,2.253-2.208,4.023-2.208c2.852,0,4.99,2.529,4.99,6.462
			c0,4.645-2.69,6.737-5.357,6.737c-1.518,0-2.76-0.713-3.381-1.748h-0.046v6.623h-2.667v-13.705c0-1.655-0.047-2.967-0.092-4.093
			h2.345l0.138,1.932H403.555z M403.784,150.476c0,2.276,1.563,3.242,2.874,3.242c2.07,0,3.197-1.909,3.197-4.53
			c0-2.414-1.082-4.415-3.128-4.415c-1.587,0-2.943,1.495-2.943,3.357V150.476z"/>
		<path fill="#FFFFFF" d="M426.207,151.948c0,1.426,0.069,2.621,0.115,3.633h-2.346l-0.138-1.84h-0.069
			c-0.528,0.874-1.77,2.093-3.816,2.093c-2.185,0-4.094-1.356-4.094-5.403v-7.543h2.668v7.105c0,2.185,0.621,3.634,2.368,3.634
			c1.219,0,2.645-0.966,2.645-2.875v-7.841h2.667V151.948z"/>
		<path fill="#FFFFFF" d="M436.719,145.255c-0.23-0.046-0.482-0.068-0.781-0.068c-1.795,0-2.921,1.472-2.921,3.679v6.715h-2.667
			v-8.807c0-1.472-0.023-2.69-0.092-3.863h2.322l0.092,2.322h0.092c0.574-1.609,1.908-2.599,3.288-2.599
			c0.253,0,0.437,0.023,0.667,0.069V145.255z"/>
		<path fill="#FFFFFF" d="M441.94,144.842c0.874-1.426,2.253-2.208,4.024-2.208c2.852,0,4.99,2.529,4.99,6.462
			c0,4.645-2.691,6.737-5.358,6.737c-1.518,0-2.759-0.713-3.38-1.748h-0.047v6.623h-2.667v-13.705c0-1.655-0.046-2.967-0.092-4.093
			h2.345l0.139,1.932H441.94z M442.17,150.476c0,2.276,1.564,3.242,2.875,3.242c2.069,0,3.196-1.909,3.196-4.53
			c0-2.414-1.081-4.415-3.128-4.415c-1.586,0-2.943,1.495-2.943,3.357V150.476z"/>
		<path fill="#FFFFFF" d="M465.215,149.142c0,4.737-3.082,6.691-5.934,6.691c-3.287,0-5.794-2.414-5.794-6.508
			c0-4.276,2.621-6.691,5.979-6.691C462.938,142.634,465.215,145.255,465.215,149.142z M459.374,144.635
			c-2.276,0-3.15,2.438-3.15,4.622c0,2.483,1.173,4.575,3.128,4.575c1.931,0,3.127-2.092,3.127-4.621
			C462.479,147.119,461.604,144.635,459.374,144.635z"/>
		<path fill="#FFFFFF" d="M474.876,145.302c-0.506-0.322-1.38-0.713-2.415-0.713c-1.195,0-1.84,0.689-1.84,1.54
			c0,0.874,0.576,1.311,2.116,1.978c2.093,0.851,3.196,2.001,3.196,3.841c0,2.438-1.863,3.886-4.736,3.886
			c-1.334,0-2.6-0.345-3.449-0.851l0.598-1.978c0.644,0.391,1.816,0.851,2.896,0.851c1.426,0,2.115-0.689,2.115-1.655
			s-0.528-1.495-2.046-2.139c-2.253-0.897-3.242-2.162-3.242-3.634c0-2.115,1.725-3.794,4.392-3.794
			c1.242,0,2.322,0.345,3.013,0.736L474.876,145.302z"/>
		<path fill="#FFFFFF" d="M488.514,155.075c-0.896,0.414-2.299,0.759-4.023,0.759c-3.817,0-6.025-2.553-6.025-6.416
			c0-3.771,2.115-6.783,5.703-6.783c3.564,0,4.99,2.967,4.99,6.094c0,0.437-0.023,0.805-0.069,1.127h-8.048
			c0.068,2.852,1.84,3.932,3.84,3.932c1.402,0,2.369-0.253,3.196-0.598L488.514,155.075z M486.629,147.946
			c0.022-1.518-0.598-3.402-2.645-3.402c-1.955,0-2.783,1.931-2.921,3.402H486.629z"/>
		<path fill="#FFFFFF" d="M506.846,155.19c-0.599,0.275-1.795,0.644-3.266,0.644c-3.656,0-6.048-2.507-6.048-6.462
			c0-3.84,2.483-6.737,6.554-6.737c1.219,0,2.276,0.299,2.828,0.575l-0.529,2.046c-0.459-0.229-1.195-0.506-2.275-0.506
			c-2.484,0-3.863,2.024-3.863,4.508c0,2.782,1.632,4.438,3.84,4.438c1.058,0,1.793-0.253,2.391-0.506L506.846,155.19z"/>
		<path fill="#FFFFFF" d="M518.828,152.568c0,1.081,0.022,2.185,0.184,3.013h-2.414l-0.185-1.472h-0.069
			c-0.713,0.989-1.954,1.725-3.541,1.725c-2.368,0-3.725-1.748-3.725-3.702c0-3.15,2.736-4.714,7.082-4.714
			c0-0.943,0-2.828-2.553-2.828c-1.127,0-2.275,0.345-3.081,0.873l-0.552-1.771c0.896-0.574,2.392-1.058,4.094-1.058
			c3.725,0,4.76,2.461,4.76,5.151V152.568z M516.229,149.211c-2.093,0-4.507,0.391-4.507,2.644c0,1.403,0.873,2.024,1.862,2.024
			c1.448,0,2.645-1.104,2.645-2.576V149.211z"/>
		<path fill="#FFFFFF" d="M525.614,144.681c0.759-1.288,2.069-2.047,3.841-2.047c2.896,0,4.897,2.553,4.897,6.416
			c0,4.622-2.69,6.783-5.312,6.783c-1.633,0-2.898-0.667-3.748-2.161h-0.07l-0.137,1.908h-2.277c0.047-0.851,0.092-2.23,0.092-3.38
			v-15.063h2.668v7.543H525.614z M525.568,150.568c0,1.609,1.15,3.127,2.897,3.127c2.046,0,3.173-1.816,3.173-4.53
			c0-2.391-1.035-4.392-3.15-4.392c-1.678,0-2.92,1.633-2.92,3.312V150.568z"/>
		<path fill="#FFFFFF" d="M540.357,155.581h-2.668v-18.442h2.668V155.581z"/>
		<path fill="#FFFFFF" d="M553.742,155.075c-0.897,0.414-2.301,0.759-4.025,0.759c-3.816,0-6.023-2.553-6.023-6.416
			c0-3.771,2.115-6.783,5.702-6.783c3.564,0,4.989,2.967,4.989,6.094c0,0.437-0.022,0.805-0.068,1.127h-8.049
			c0.07,2.852,1.84,3.932,3.841,3.932c1.403,0,2.368-0.253,3.196-0.598L553.742,155.075z M551.855,147.946
			c0.023-1.518-0.598-3.402-2.645-3.402c-1.954,0-2.781,1.931-2.92,3.402H551.855z"/>
		<path fill="#FFFFFF" d="M564.07,140.611l2.645-0.828v3.128h3.012v2h-3.012v6.416c0,1.563,0.482,2.322,1.609,2.322
			c0.529,0,0.852-0.069,1.173-0.161l0.093,2.047c-0.461,0.184-1.174,0.299-2.07,0.299c-1.058,0-1.955-0.345-2.506-0.966
			c-0.645-0.689-0.943-1.748-0.943-3.403v-6.554h-1.793v-2h1.793V140.611z"/>
		<path fill="#FFFFFF" d="M583.204,155.581h-2.667v-7.404c0-1.816-0.621-3.334-2.415-3.334c-1.311,0-2.714,1.08-2.714,2.989v7.749
			h-2.667v-18.442h2.667v7.497h0.047c0.827-1.311,2.253-2.001,3.633-2.001c1.908,0,4.116,1.288,4.116,5.289V155.581z"/>
		<path fill="#FFFFFF" d="M596.153,152.568c0,1.081,0.022,2.185,0.185,3.013h-2.415l-0.185-1.472h-0.068
			c-0.713,0.989-1.955,1.725-3.541,1.725c-2.369,0-3.726-1.748-3.726-3.702c0-3.15,2.737-4.714,7.083-4.714
			c0-0.943,0-2.828-2.553-2.828c-1.127,0-2.276,0.345-3.082,0.873l-0.551-1.771c0.896-0.574,2.391-1.058,4.093-1.058
			c3.726,0,4.76,2.461,4.76,5.151V152.568z M593.555,149.211c-2.092,0-4.507,0.391-4.507,2.644c0,1.403,0.874,2.024,1.862,2.024
			c1.449,0,2.645-1.104,2.645-2.576V149.211z"/>
		<path fill="#FFFFFF" d="M600.755,140.611l2.645-0.828v3.128h3.013v2h-3.013v6.416c0,1.563,0.483,2.322,1.609,2.322
			c0.529,0,0.851-0.069,1.173-0.161l0.092,2.047c-0.459,0.184-1.172,0.299-2.069,0.299c-1.058,0-1.954-0.345-2.507-0.966
			c-0.644-0.689-0.942-1.748-0.942-3.403v-6.554h-1.794v-2h1.794V140.611z"/>
		<path fill="#FFFFFF" d="M624.167,152.568c0,1.081,0.022,2.185,0.185,3.013h-2.415l-0.185-1.472h-0.068
			c-0.713,0.989-1.955,1.725-3.541,1.725c-2.369,0-3.726-1.748-3.726-3.702c0-3.15,2.737-4.714,7.083-4.714
			c0-0.943,0-2.828-2.553-2.828c-1.127,0-2.276,0.345-3.082,0.873l-0.551-1.771c0.896-0.574,2.391-1.058,4.093-1.058
			c3.726,0,4.76,2.461,4.76,5.151V152.568z M621.568,149.211c-2.092,0-4.507,0.391-4.507,2.644c0,1.403,0.874,2.024,1.862,2.024
			c1.449,0,2.645-1.104,2.645-2.576V149.211z"/>
		<path fill="#FFFFFF" d="M630.907,155.581h-2.667v-18.442h2.667V155.581z"/>
		<path fill="#FFFFFF" d="M637.691,155.581h-2.667v-18.442h2.667V155.581z"/>
		<path fill="#FFFFFF" d="M652.732,149.142c0,4.737-3.082,6.691-5.934,6.691c-3.287,0-5.794-2.414-5.794-6.508
			c0-4.276,2.621-6.691,5.979-6.691C650.455,142.634,652.732,145.255,652.732,149.142z M646.892,144.635
			c-2.276,0-3.15,2.438-3.15,4.622c0,2.483,1.173,4.575,3.128,4.575c1.931,0,3.127-2.092,3.127-4.621
			C649.996,147.119,649.122,144.635,646.892,144.635z"/>
		<path fill="#FFFFFF" d="M672.441,142.911l-3.84,12.67h-2.414l-1.633-5.61c-0.391-1.334-0.667-2.553-0.943-4.048h-0.068
			c-0.254,1.518-0.598,2.806-0.989,4.07l-1.725,5.588h-2.415l-3.633-12.67h2.76l1.402,6.07c0.299,1.356,0.598,2.714,0.828,4.047
			h0.046c0.253-1.311,0.644-2.713,1.012-4.023l1.747-6.094h2.186l1.655,5.955c0.392,1.472,0.735,2.829,0.989,4.162h0.068
			c0.207-1.311,0.506-2.667,0.852-4.139l1.471-5.979H672.441z"/>
		<path fill="#FFFFFF" d="M681.506,145.302c-0.506-0.322-1.38-0.713-2.414-0.713c-1.196,0-1.84,0.689-1.84,1.54
			c0,0.874,0.574,1.311,2.115,1.978c2.092,0.851,3.196,2.001,3.196,3.841c0,2.438-1.862,3.886-4.737,3.886
			c-1.334,0-2.598-0.345-3.449-0.851l0.598-1.978c0.645,0.391,1.816,0.851,2.898,0.851c1.426,0,2.115-0.689,2.115-1.655
			s-0.529-1.495-2.047-2.139c-2.254-0.897-3.242-2.162-3.242-3.634c0-2.115,1.725-3.794,4.393-3.794
			c1.241,0,2.322,0.345,3.012,0.736L681.506,145.302z"/>
		<path fill="#FFFFFF" d="M352.242,172.281c0.759-1.288,2.069-2.047,3.84-2.047c2.897,0,4.898,2.553,4.898,6.416
			c0,4.622-2.69,6.783-5.312,6.783c-1.633,0-2.897-0.667-3.748-2.161h-0.069l-0.138,1.908h-2.276c0.046-0.851,0.092-2.23,0.092-3.38
			v-15.063h2.667v7.543H352.242z M352.196,178.167c0,1.609,1.149,3.127,2.897,3.127c2.046,0,3.173-1.816,3.173-4.53
			c0-2.391-1.035-4.392-3.15-4.392c-1.679,0-2.92,1.633-2.92,3.312V178.167z"/>
		<path fill="#FFFFFF" d="M375.24,176.742c0,4.737-3.081,6.691-5.933,6.691c-3.288,0-5.794-2.414-5.794-6.508
			c0-4.276,2.621-6.691,5.979-6.691C372.963,170.234,375.24,172.855,375.24,176.742z M369.399,172.235
			c-2.277,0-3.15,2.438-3.15,4.622c0,2.483,1.173,4.575,3.127,4.575c1.931,0,3.127-2.092,3.127-4.621
			C372.503,174.718,371.63,172.235,369.399,172.235z"/>
		<path fill="#FFFFFF" d="M379.129,168.21l2.645-0.828v3.128h3.012v2h-3.012v6.416c0,1.563,0.483,2.322,1.609,2.322
			c0.529,0,0.851-0.069,1.173-0.161l0.092,2.047c-0.46,0.184-1.173,0.299-2.07,0.299c-1.058,0-1.955-0.345-2.506-0.966
			c-0.644-0.689-0.943-1.748-0.943-3.403v-6.554h-1.793v-2h1.793V168.21z"/>
		<path fill="#FFFFFF" d="M398.263,183.18h-2.667v-7.404c0-1.816-0.621-3.334-2.415-3.334c-1.311,0-2.713,1.08-2.713,2.989v7.749
			H387.8v-18.442h2.667v7.497h0.046c0.828-1.311,2.253-2.001,3.633-2.001c1.909,0,4.116,1.288,4.116,5.289V183.18z"/>
		<path fill="#FFFFFF" d="M418.778,179.8c0,1.149,0.046,2.506,0.092,3.38h-2.345l-0.139-1.978h-0.068
			c-0.668,1.288-2.047,2.23-3.841,2.23c-2.874,0-5.059-2.553-5.059-6.462c0-4.3,2.46-6.737,5.288-6.737
			c1.633,0,2.807,0.736,3.357,1.702h0.047v-7.198h2.667V179.8z M416.111,175.638c0-2.07-1.311-3.289-2.806-3.289
			c-2.047,0-3.173,2.024-3.173,4.53c0,2.483,1.104,4.393,3.127,4.393c1.725,0,2.852-1.518,2.852-3.289V175.638z"/>
		<path fill="#FFFFFF" d="M431.773,180.167c0,1.081,0.023,2.185,0.184,3.013h-2.414l-0.184-1.472h-0.069
			c-0.713,0.989-1.954,1.725-3.541,1.725c-2.368,0-3.726-1.748-3.726-3.702c0-3.15,2.736-4.714,7.082-4.714
			c0-0.943,0-2.828-2.552-2.828c-1.127,0-2.276,0.345-3.081,0.873l-0.553-1.771c0.897-0.574,2.393-1.058,4.094-1.058
			c3.725,0,4.76,2.461,4.76,5.151V180.167z M429.176,176.811c-2.094,0-4.508,0.391-4.508,2.644c0,1.403,0.874,2.024,1.863,2.024
			c1.448,0,2.645-1.104,2.645-2.576V176.811z"/>
		<path fill="#FFFFFF" d="M436.375,168.21l2.645-0.828v3.128h3.013v2h-3.013v6.416c0,1.563,0.483,2.322,1.609,2.322
			c0.529,0,0.852-0.069,1.174-0.161l0.092,2.047c-0.46,0.184-1.173,0.299-2.07,0.299c-1.057,0-1.954-0.345-2.506-0.966
			c-0.645-0.689-0.943-1.748-0.943-3.403v-6.554h-1.793v-2h1.793V168.21z"/>
		<path fill="#FFFFFF" d="M453.922,180.167c0,1.081,0.023,2.185,0.185,3.013h-2.415l-0.184-1.472h-0.068
			c-0.713,0.989-1.955,1.725-3.541,1.725c-2.369,0-3.727-1.748-3.727-3.702c0-3.15,2.737-4.714,7.083-4.714
			c0-0.943,0-2.828-2.552-2.828c-1.127,0-2.277,0.345-3.082,0.873l-0.552-1.771c0.897-0.574,2.392-1.058,4.093-1.058
			c3.726,0,4.76,2.461,4.76,5.151V180.167z M451.324,176.811c-2.093,0-4.508,0.391-4.508,2.644c0,1.403,0.875,2.024,1.863,2.024
			c1.449,0,2.645-1.104,2.645-2.576V176.811z"/>
		<path fill="#FFFFFF" d="M472.736,180.167c0,1.081,0.023,2.185,0.184,3.013h-2.414l-0.184-1.472h-0.069
			c-0.713,0.989-1.954,1.725-3.541,1.725c-2.368,0-3.726-1.748-3.726-3.702c0-3.15,2.736-4.714,7.082-4.714
			c0-0.943,0-2.828-2.552-2.828c-1.127,0-2.276,0.345-3.081,0.873l-0.553-1.771c0.897-0.574,2.393-1.058,4.094-1.058
			c3.725,0,4.76,2.461,4.76,5.151V180.167z M470.139,176.811c-2.094,0-4.508,0.391-4.508,2.644c0,1.403,0.874,2.024,1.863,2.024
			c1.448,0,2.645-1.104,2.645-2.576V176.811z"/>
		<path fill="#FFFFFF" d="M487.271,183.18h-2.667v-7.428c0-1.793-0.599-3.311-2.415-3.311c-1.311,0-2.713,1.08-2.713,3.104v7.635
			h-2.668v-9.106c0-1.402-0.045-2.483-0.092-3.563h2.322l0.139,1.886h0.068c0.598-1.081,1.932-2.162,3.841-2.162
			c1.978,0,4.185,1.288,4.185,5.197V183.18z"/>
		<path fill="#FFFFFF" d="M501.923,179.8c0,1.149,0.046,2.506,0.092,3.38h-2.345l-0.139-1.978h-0.068
			c-0.668,1.288-2.047,2.23-3.841,2.23c-2.874,0-5.059-2.553-5.059-6.462c0-4.3,2.46-6.737,5.288-6.737
			c1.633,0,2.807,0.736,3.357,1.702h0.047v-7.198h2.667V179.8z M499.256,175.638c0-2.07-1.311-3.289-2.806-3.289
			c-2.047,0-3.173,2.024-3.173,4.53c0,2.483,1.104,4.393,3.127,4.393c1.725,0,2.852-1.518,2.852-3.289V175.638z"/>
		<path fill="#FFFFFF" d="M521.174,182.674c-0.896,0.414-2.3,0.759-4.024,0.759c-3.817,0-6.024-2.553-6.024-6.416
			c0-3.771,2.115-6.783,5.703-6.783c3.564,0,4.989,2.967,4.989,6.094c0,0.437-0.022,0.805-0.069,1.127H513.7
			c0.069,2.852,1.84,3.932,3.841,3.932c1.402,0,2.368-0.253,3.195-0.598L521.174,182.674z M519.288,175.545
			c0.022-1.518-0.598-3.402-2.645-3.402c-1.954,0-2.782,1.931-2.921,3.402H519.288z"/>
		<path fill="#FFFFFF" d="M527.776,183.18h-2.667v-18.442h2.667V183.18z"/>
		<path fill="#FFFFFF" d="M541.16,182.674c-0.896,0.414-2.299,0.759-4.023,0.759c-3.817,0-6.025-2.553-6.025-6.416
			c0-3.771,2.115-6.783,5.703-6.783c3.564,0,4.99,2.967,4.99,6.094c0,0.437-0.023,0.805-0.069,1.127h-8.048
			c0.068,2.852,1.84,3.932,3.84,3.932c1.402,0,2.369-0.253,3.196-0.598L541.16,182.674z M539.275,175.545
			c0.022-1.518-0.598-3.402-2.645-3.402c-1.955,0-2.783,1.931-2.921,3.402H539.275z"/>
		<path fill="#FFFFFF" d="M553.627,182.79c-0.598,0.275-1.794,0.644-3.266,0.644c-3.656,0-6.047-2.507-6.047-6.462
			c0-3.84,2.482-6.737,6.553-6.737c1.219,0,2.277,0.299,2.828,0.575l-0.528,2.046c-0.46-0.229-1.196-0.506-2.276-0.506
			c-2.484,0-3.863,2.024-3.863,4.508c0,2.782,1.633,4.438,3.84,4.438c1.059,0,1.794-0.253,2.392-0.506L553.627,182.79z"/>
		<path fill="#FFFFFF" d="M557.262,168.21l2.645-0.828v3.128h3.013v2h-3.013v6.416c0,1.563,0.483,2.322,1.609,2.322
			c0.529,0,0.852-0.069,1.174-0.161l0.092,2.047c-0.46,0.184-1.173,0.299-2.07,0.299c-1.057,0-1.954-0.345-2.506-0.966
			c-0.645-0.689-0.943-1.748-0.943-3.403v-6.554h-1.793v-2h1.793V168.21z"/>
		<path fill="#FFFFFF" d="M572.303,172.855c-0.23-0.046-0.482-0.068-0.781-0.068c-1.795,0-2.921,1.472-2.921,3.679v6.715h-2.667
			v-8.807c0-1.472-0.023-2.69-0.092-3.863h2.322l0.092,2.322h0.092c0.574-1.609,1.908-2.599,3.288-2.599
			c0.253,0,0.437,0.023,0.667,0.069V172.855z"/>
		<path fill="#FFFFFF" d="M576.42,168.555c-0.919,0-1.54-0.689-1.54-1.54c0-0.897,0.644-1.564,1.563-1.564s1.541,0.667,1.541,1.564
			C577.984,167.866,577.387,168.555,576.42,168.555z M577.754,183.18h-2.667v-12.693h2.667V183.18z"/>
		<path fill="#FFFFFF" d="M590.426,182.79c-0.598,0.275-1.794,0.644-3.266,0.644c-3.656,0-6.047-2.507-6.047-6.462
			c0-3.84,2.482-6.737,6.553-6.737c1.219,0,2.277,0.299,2.828,0.575l-0.528,2.046c-0.46-0.229-1.196-0.506-2.276-0.506
			c-2.484,0-3.863,2.024-3.863,4.508c0,2.782,1.633,4.438,3.84,4.438c1.059,0,1.794-0.253,2.392-0.506L590.426,182.79z"/>
		<path fill="#FFFFFF" d="M594.866,168.555c-0.919,0-1.54-0.689-1.54-1.54c0-0.897,0.644-1.564,1.563-1.564
			c0.92,0,1.541,0.667,1.541,1.564C596.43,167.866,595.832,168.555,594.866,168.555z M596.2,183.18h-2.667v-12.693h2.667V183.18z"/>
		<path fill="#FFFFFF" d="M600.869,168.21l2.645-0.828v3.128h3.012v2h-3.012v6.416c0,1.563,0.482,2.322,1.609,2.322
			c0.529,0,0.852-0.069,1.173-0.161l0.093,2.047c-0.461,0.184-1.174,0.299-2.07,0.299c-1.058,0-1.955-0.345-2.506-0.966
			c-0.645-0.689-0.943-1.748-0.943-3.403v-6.554h-1.793v-2h1.793V168.21z"/>
		<path fill="#FFFFFF" d="M619.566,170.51l-3.059,8.784c-1.495,4.162-2.553,6.507-4.07,7.979c-1.15,1.058-2.322,1.495-2.943,1.633
			l-0.689-2.253c2.759-0.989,3.748-3.564,3.748-3.909c0-0.139-0.023-0.3-0.139-0.553l-4.346-11.681h2.92l2.3,7.128
			c0.253,0.828,0.506,1.794,0.69,2.529h0.068c0.184-0.735,0.438-1.679,0.667-2.529l2.046-7.128H619.566z"/>
		<path fill="#FFFFFF" d="M628.561,168.21l2.645-0.828v3.128h3.013v2h-3.013v6.416c0,1.563,0.483,2.322,1.609,2.322
			c0.529,0,0.852-0.069,1.174-0.161l0.092,2.047c-0.46,0.184-1.173,0.299-2.07,0.299c-1.057,0-1.954-0.345-2.506-0.966
			c-0.645-0.689-0.943-1.748-0.943-3.403v-6.554h-1.793v-2h1.793V168.21z"/>
		<path fill="#FFFFFF" d="M643.602,172.855c-0.23-0.046-0.482-0.068-0.781-0.068c-1.795,0-2.921,1.472-2.921,3.679v6.715h-2.667
			v-8.807c0-1.472-0.023-2.69-0.092-3.863h2.322l0.092,2.322h0.092c0.574-1.609,1.908-2.599,3.288-2.599
			c0.253,0,0.437,0.023,0.667,0.069V172.855z"/>
		<path fill="#FFFFFF" d="M655.262,180.167c0,1.081,0.023,2.185,0.184,3.013h-2.414l-0.184-1.472h-0.069
			c-0.713,0.989-1.954,1.725-3.541,1.725c-2.368,0-3.726-1.748-3.726-3.702c0-3.15,2.736-4.714,7.082-4.714
			c0-0.943,0-2.828-2.552-2.828c-1.127,0-2.276,0.345-3.081,0.873l-0.553-1.771c0.897-0.574,2.393-1.058,4.094-1.058
			c3.725,0,4.76,2.461,4.76,5.151V180.167z M652.664,176.811c-2.094,0-4.508,0.391-4.508,2.644c0,1.403,0.874,2.024,1.863,2.024
			c1.448,0,2.645-1.104,2.645-2.576V176.811z"/>
		<path fill="#FFFFFF" d="M669.797,183.18h-2.667v-7.428c0-1.793-0.599-3.311-2.415-3.311c-1.311,0-2.713,1.08-2.713,3.104v7.635
			h-2.668v-9.106c0-1.402-0.045-2.483-0.092-3.563h2.322l0.139,1.886h0.068c0.598-1.081,1.932-2.162,3.841-2.162
			c1.978,0,4.185,1.288,4.185,5.197V183.18z"/>
		<path fill="#FFFFFF" d="M680.172,172.902c-0.506-0.322-1.381-0.713-2.415-0.713c-1.196,0-1.84,0.689-1.84,1.54
			c0,0.874,0.575,1.311,2.116,1.978c2.092,0.851,3.195,2.001,3.195,3.841c0,2.438-1.862,3.886-4.736,3.886
			c-1.334,0-2.599-0.345-3.449-0.851l0.598-1.978c0.645,0.391,1.816,0.851,2.897,0.851c1.426,0,2.115-0.689,2.115-1.655
			s-0.528-1.495-2.046-2.139c-2.254-0.897-3.242-2.162-3.242-3.634c0-2.115,1.725-3.794,4.392-3.794
			c1.241,0,2.322,0.345,3.013,0.736L680.172,172.902z"/>
		<path fill="#FFFFFF" d="M701.927,183.18h-2.622v-7.243c0-2.116-0.689-3.519-2.299-3.519c-1.219,0-2.461,1.104-2.461,2.943v7.818
			h-2.621v-7.635c0-1.771-0.667-3.127-2.207-3.127c-1.196,0-2.553,1.081-2.553,3.081v7.681h-2.621v-9.106
			c0-1.425-0.047-2.483-0.092-3.563h2.299l0.139,1.862h0.068c0.621-1.058,1.771-2.139,3.702-2.139c1.609,0,2.828,0.896,3.357,2.322
			h0.046c0.851-1.402,2.092-2.322,3.909-2.322c1.886,0,3.955,1.288,3.955,5.289V183.18z"/>
		<path fill="#FFFFFF" d="M707.312,168.555c-0.919,0-1.54-0.689-1.54-1.54c0-0.897,0.644-1.564,1.563-1.564
			c0.92,0,1.541,0.667,1.541,1.564C708.875,167.866,708.277,168.555,707.312,168.555z M708.646,183.18h-2.667v-12.693h2.667V183.18z
			"/>
		<path fill="#FFFFFF" d="M719.087,172.902c-0.506-0.322-1.38-0.713-2.415-0.713c-1.195,0-1.84,0.689-1.84,1.54
			c0,0.874,0.576,1.311,2.116,1.978c2.093,0.851,3.196,2.001,3.196,3.841c0,2.438-1.863,3.886-4.736,3.886
			c-1.334,0-2.6-0.345-3.449-0.851l0.598-1.978c0.644,0.391,1.816,0.851,2.896,0.851c1.426,0,2.115-0.689,2.115-1.655
			s-0.528-1.495-2.046-2.139c-2.253-0.897-3.242-2.162-3.242-3.634c0-2.115,1.725-3.794,4.392-3.794
			c1.242,0,2.322,0.345,3.013,0.736L719.087,172.902z"/>
		<path fill="#FFFFFF" d="M729.759,172.902c-0.506-0.322-1.38-0.713-2.415-0.713c-1.195,0-1.84,0.689-1.84,1.54
			c0,0.874,0.576,1.311,2.116,1.978c2.093,0.851,3.196,2.001,3.196,3.841c0,2.438-1.863,3.886-4.736,3.886
			c-1.334,0-2.6-0.345-3.449-0.851l0.598-1.978c0.644,0.391,1.816,0.851,2.896,0.851c1.426,0,2.115-0.689,2.115-1.655
			s-0.528-1.495-2.046-2.139c-2.253-0.897-3.242-2.162-3.242-3.634c0-2.115,1.725-3.794,4.392-3.794
			c1.242,0,2.322,0.345,3.013,0.736L729.759,172.902z"/>
		<path fill="#FFFFFF" d="M735.463,168.555c-0.919,0-1.54-0.689-1.54-1.54c0-0.897,0.644-1.564,1.563-1.564s1.541,0.667,1.541,1.564
			C737.027,167.866,736.43,168.555,735.463,168.555z M736.797,183.18h-2.667v-12.693h2.667V183.18z"/>
		<path fill="#FFFFFF" d="M751.86,176.742c0,4.737-3.081,6.691-5.933,6.691c-3.288,0-5.795-2.414-5.795-6.508
			c0-4.276,2.621-6.691,5.979-6.691C749.584,170.234,751.86,172.855,751.86,176.742z M746.02,172.235
			c-2.276,0-3.15,2.438-3.15,4.622c0,2.483,1.174,4.575,3.128,4.575c1.931,0,3.127-2.092,3.127-4.621
			C749.124,174.718,748.25,172.235,746.02,172.235z"/>
		<path fill="#FFFFFF" d="M765.684,183.18h-2.668v-7.428c0-1.793-0.598-3.311-2.414-3.311c-1.311,0-2.713,1.08-2.713,3.104v7.635
			h-2.668v-9.106c0-1.402-0.046-2.483-0.092-3.563h2.322l0.139,1.886h0.068c0.598-1.081,1.932-2.162,3.84-2.162
			c1.979,0,4.186,1.288,4.186,5.197V183.18z"/>
		<path fill="#FFFFFF" d="M772.93,179.616c-0.666,2.3-1.816,5.151-2.689,6.6l-1.84,0.185c0.644-1.748,1.334-4.508,1.633-6.531
			L772.93,179.616z"/>
		<path fill="#FFFFFF" d="M358.06,210.39c-0.598,0.275-1.794,0.644-3.266,0.644c-3.656,0-6.047-2.507-6.047-6.462
			c0-3.84,2.483-6.737,6.553-6.737c1.219,0,2.277,0.299,2.829,0.575l-0.529,2.046c-0.46-0.229-1.196-0.506-2.276-0.506
			c-2.484,0-3.863,2.024-3.863,4.508c0,2.782,1.632,4.438,3.84,4.438c1.058,0,1.794-0.253,2.392-0.506L358.06,210.39z"/>
		<path fill="#FFFFFF" d="M372.088,204.342c0,4.737-3.081,6.691-5.933,6.691c-3.288,0-5.794-2.414-5.794-6.508
			c0-4.276,2.621-6.691,5.979-6.691C369.812,197.834,372.088,200.456,372.088,204.342z M366.248,199.835
			c-2.277,0-3.15,2.438-3.15,4.622c0,2.483,1.173,4.575,3.127,4.575c1.931,0,3.127-2.092,3.127-4.621
			C369.352,202.319,368.479,199.835,366.248,199.835z"/>
		<path fill="#FFFFFF" d="M392.833,210.781h-2.622v-7.243c0-2.116-0.69-3.519-2.299-3.519c-1.219,0-2.46,1.104-2.46,2.943v7.818
			h-2.622v-7.635c0-1.771-0.667-3.127-2.208-3.127c-1.196,0-2.552,1.081-2.552,3.081v7.681h-2.622v-9.106
			c0-1.425-0.046-2.483-0.092-3.563h2.299l0.138,1.862h0.069c0.621-1.058,1.771-2.139,3.702-2.139c1.609,0,2.828,0.896,3.357,2.322
			h0.046c0.851-1.402,2.092-2.322,3.909-2.322c1.885,0,3.955,1.288,3.955,5.289V210.781z"/>
		<path fill="#FFFFFF" d="M399.598,199.881c0.759-1.288,2.07-2.047,3.84-2.047c2.897,0,4.897,2.553,4.897,6.416
			c0,4.622-2.689,6.783-5.312,6.783c-1.633,0-2.897-0.667-3.748-2.161h-0.069l-0.138,1.908h-2.276
			c0.046-0.851,0.092-2.23,0.092-3.38v-15.063h2.667v7.543H399.598z M399.552,205.768c0,1.609,1.149,3.127,2.897,3.127
			c2.047,0,3.174-1.816,3.174-4.53c0-2.391-1.035-4.392-3.15-4.392c-1.679,0-2.92,1.633-2.92,3.312V205.768z"/>
		<path fill="#FFFFFF" d="M413.008,196.156c-0.92,0-1.541-0.689-1.541-1.54c0-0.897,0.645-1.564,1.563-1.564
			c0.92,0,1.541,0.667,1.541,1.564C414.571,195.466,413.973,196.156,413.008,196.156z M414.342,210.781h-2.668v-12.693h2.668
			V210.781z"/>
		<path fill="#FFFFFF" d="M428.944,210.781h-2.667v-7.428c0-1.793-0.599-3.311-2.415-3.311c-1.311,0-2.714,1.08-2.714,3.104v7.635
			h-2.667v-9.106c0-1.402-0.046-2.483-0.092-3.563h2.322l0.138,1.886h0.069c0.598-1.081,1.932-2.162,3.841-2.162
			c1.977,0,4.185,1.288,4.185,5.197V210.781z"/>
		<path fill="#FFFFFF" d="M442.285,210.275c-0.897,0.414-2.301,0.759-4.025,0.759c-3.816,0-6.023-2.553-6.023-6.416
			c0-3.771,2.115-6.783,5.702-6.783c3.564,0,4.989,2.967,4.989,6.094c0,0.437-0.022,0.805-0.068,1.127h-8.049
			c0.07,2.852,1.84,3.932,3.841,3.932c1.403,0,2.368-0.253,3.196-0.598L442.285,210.275z M440.398,203.146
			c0.023-1.518-0.598-3.403-2.645-3.403c-1.954,0-2.781,1.932-2.92,3.403H440.398z"/>
		<path fill="#FFFFFF" d="M456.797,207.401c0,1.149,0.047,2.506,0.092,3.38h-2.345l-0.138-1.978h-0.069
			c-0.667,1.288-2.046,2.23-3.841,2.23c-2.873,0-5.059-2.553-5.059-6.462c0-4.3,2.461-6.737,5.289-6.737
			c1.633,0,2.806,0.736,3.357,1.702h0.046v-7.198h2.667V207.401z M454.13,203.239c0-2.07-1.311-3.289-2.806-3.289
			c-2.047,0-3.173,2.024-3.173,4.53c0,2.483,1.104,4.393,3.128,4.393c1.725,0,2.851-1.518,2.851-3.289V203.239z"/>
		<path fill="#FFFFFF" d="M483.131,198.111l-3.84,12.67h-2.415l-1.633-5.61c-0.391-1.334-0.667-2.553-0.942-4.048h-0.069
			c-0.253,1.518-0.598,2.806-0.989,4.07l-1.725,5.588h-2.414l-3.633-12.67h2.76l1.402,6.07c0.299,1.356,0.598,2.714,0.828,4.047
			h0.045c0.254-1.311,0.645-2.713,1.012-4.023l1.748-6.094h2.185l1.655,5.955c0.392,1.472,0.736,2.829,0.989,4.162h0.069
			c0.207-1.311,0.506-2.667,0.851-4.139l1.472-5.979H483.131z"/>
		<path fill="#FFFFFF" d="M487.228,196.156c-0.919,0-1.54-0.689-1.54-1.54c0-0.897,0.644-1.564,1.563-1.564
			c0.92,0,1.541,0.667,1.541,1.564C488.791,195.466,488.193,196.156,487.228,196.156z M488.562,210.781h-2.667v-12.693h2.667
			V210.781z"/>
		<path fill="#FFFFFF" d="M493.23,195.811l2.645-0.828v3.128h3.013v2h-3.013v6.416c0,1.563,0.483,2.322,1.609,2.322
			c0.529,0,0.852-0.069,1.174-0.161l0.092,2.047c-0.46,0.184-1.173,0.299-2.07,0.299c-1.057,0-1.954-0.345-2.506-0.966
			c-0.645-0.689-0.943-1.748-0.943-3.403v-6.554h-1.793v-2h1.793V195.811z"/>
		<path fill="#FFFFFF" d="M512.365,210.781h-2.668v-7.404c0-1.816-0.621-3.334-2.414-3.334c-1.311,0-2.714,1.08-2.714,2.989v7.749
			h-2.667v-18.442h2.667v7.497h0.046c0.828-1.311,2.254-2.001,3.633-2.001c1.909,0,4.117,1.288,4.117,5.289V210.781z"/>
		<path fill="#FFFFFF" d="M528.604,200.502c-0.506-0.322-1.38-0.713-2.414-0.713c-1.196,0-1.84,0.689-1.84,1.54
			c0,0.874,0.574,1.311,2.115,1.978c2.092,0.852,3.196,2.001,3.196,3.841c0,2.438-1.862,3.886-4.737,3.886
			c-1.334,0-2.598-0.345-3.449-0.851l0.598-1.978c0.645,0.391,1.816,0.851,2.898,0.851c1.426,0,2.115-0.689,2.115-1.655
			s-0.529-1.495-2.047-2.139c-2.254-0.897-3.242-2.162-3.242-3.634c0-2.115,1.725-3.794,4.393-3.794
			c1.241,0,2.322,0.345,3.012,0.736L528.604,200.502z"/>
		<path fill="#FFFFFF" d="M534.309,196.156c-0.92,0-1.541-0.689-1.541-1.54c0-0.897,0.645-1.564,1.563-1.564
			c0.92,0,1.541,0.667,1.541,1.564C535.872,195.466,535.273,196.156,534.309,196.156z M535.643,210.781h-2.668v-12.693h2.668
			V210.781z"/>
		<path fill="#FFFFFF" d="M550.36,198.111c-0.069,0.896-0.114,1.954-0.114,3.656v7.22c0,2.529-0.207,7.198-6.209,7.198
			c-1.473,0-3.013-0.322-4.002-0.92l0.598-2.07c0.783,0.46,2.002,0.897,3.427,0.897c2.069,0,3.542-1.15,3.542-4.024v-1.219h-0.047
			c-0.644,1.081-1.885,1.862-3.518,1.862c-2.99,0-5.036-2.645-5.036-6.186c0-4.3,2.599-6.691,5.358-6.691
			c1.885,0,2.943,0.966,3.472,1.978h0.046l0.115-1.701H550.36z M547.578,203.008c0-1.679-1.104-3.059-2.736-3.059
			c-1.84,0-3.127,1.748-3.127,4.462c0,2.483,1.126,4.254,3.104,4.254c1.38,0,2.76-1.058,2.76-3.174V203.008z"/>
		<path fill="#FFFFFF" d="M564.828,210.781h-2.668v-7.428c0-1.793-0.598-3.311-2.414-3.311c-1.311,0-2.714,1.08-2.714,3.104v7.635
			h-2.667v-9.106c0-1.402-0.047-2.483-0.092-3.563h2.322l0.138,1.886h0.069c0.598-1.081,1.932-2.162,3.84-2.162
			c1.978,0,4.186,1.288,4.186,5.197V210.781z"/>
		<path fill="#FFFFFF" d="M577.776,207.768c0,1.081,0.022,2.185,0.185,3.013h-2.415l-0.185-1.472h-0.068
			c-0.713,0.989-1.955,1.725-3.541,1.725c-2.369,0-3.726-1.748-3.726-3.702c0-3.15,2.737-4.714,7.083-4.714
			c0-0.943,0-2.828-2.553-2.828c-1.127,0-2.276,0.345-3.082,0.873l-0.551-1.771c0.896-0.574,2.391-1.058,4.093-1.058
			c3.726,0,4.76,2.461,4.76,5.151V207.768z M575.178,204.412c-2.092,0-4.507,0.391-4.507,2.644c0,1.403,0.874,2.024,1.862,2.024
			c1.449,0,2.645-1.104,2.645-2.576V204.412z"/>
		<path fill="#FFFFFF" d="M584.518,210.781h-2.668v-18.442h2.668V210.781z"/>
		<path fill="#FFFFFF" d="M595.832,196.156c-0.919,0-1.54-0.689-1.54-1.54c0-0.897,0.644-1.564,1.563-1.564s1.541,0.667,1.541,1.564
			C597.396,195.466,596.799,196.156,595.832,196.156z M597.166,210.781h-2.667v-12.693h2.667V210.781z"/>
		<path fill="#FFFFFF" d="M611.77,210.781h-2.667v-7.428c0-1.793-0.599-3.311-2.415-3.311c-1.311,0-2.713,1.08-2.713,3.104v7.635
			h-2.668v-9.106c0-1.402-0.045-2.483-0.092-3.563h2.322l0.139,1.886h0.068c0.598-1.081,1.932-2.162,3.841-2.162
			c1.978,0,4.185,1.288,4.185,5.197V210.781z"/>
		<path fill="#FFFFFF" d="M616.372,195.811l2.645-0.828v3.128h3.013v2h-3.013v6.416c0,1.563,0.483,2.322,1.609,2.322
			c0.529,0,0.851-0.069,1.173-0.161l0.092,2.047c-0.459,0.184-1.172,0.299-2.069,0.299c-1.058,0-1.954-0.345-2.507-0.966
			c-0.644-0.689-0.942-1.748-0.942-3.403v-6.554h-1.794v-2h1.794V195.811z"/>
		<path fill="#FFFFFF" d="M634.311,210.275c-0.897,0.414-2.301,0.759-4.025,0.759c-3.816,0-6.023-2.553-6.023-6.416
			c0-3.771,2.115-6.783,5.702-6.783c3.564,0,4.989,2.967,4.989,6.094c0,0.437-0.022,0.805-0.068,1.127h-8.049
			c0.07,2.852,1.84,3.932,3.841,3.932c1.403,0,2.368-0.253,3.196-0.598L634.311,210.275z M632.424,203.146
			c0.023-1.518-0.598-3.403-2.645-3.403c-1.954,0-2.781,1.932-2.92,3.403H632.424z"/>
		<path fill="#FFFFFF" d="M644.615,200.456c-0.23-0.046-0.483-0.068-0.782-0.068c-1.794,0-2.921,1.472-2.921,3.679v6.715h-2.667
			v-8.807c0-1.472-0.022-2.69-0.092-3.863h2.322l0.092,2.322h0.093c0.574-1.609,1.908-2.599,3.287-2.599
			c0.254,0,0.438,0.023,0.668,0.069V200.456z"/>
		<path fill="#FFFFFF" d="M647.743,198.111c0-1.38,0-3.427,1.426-4.853c0.874-0.851,2.046-1.173,3.081-1.173
			c0.828,0,1.473,0.161,1.932,0.346l-0.275,2.046c-0.346-0.138-0.736-0.253-1.357-0.253c-1.655,0-2.161,1.495-2.161,3.196v0.69
			h2.782v2h-2.76v10.67h-2.667v-10.67h-1.702v-2H647.743z"/>
		<path fill="#FFFFFF" d="M665.014,210.275c-0.896,0.414-2.299,0.759-4.023,0.759c-3.817,0-6.025-2.553-6.025-6.416
			c0-3.771,2.115-6.783,5.703-6.783c3.564,0,4.99,2.967,4.99,6.094c0,0.437-0.023,0.805-0.069,1.127h-8.048
			c0.068,2.852,1.84,3.932,3.84,3.932c1.402,0,2.369-0.253,3.196-0.598L665.014,210.275z M663.129,203.146
			c0.022-1.518-0.598-3.403-2.645-3.403c-1.955,0-2.783,1.932-2.921,3.403H663.129z"/>
		<path fill="#FFFFFF" d="M675.318,200.456c-0.229-0.046-0.482-0.068-0.781-0.068c-1.794,0-2.92,1.472-2.92,3.679v6.715h-2.668
			v-8.807c0-1.472-0.023-2.69-0.092-3.863h2.322l0.092,2.322h0.092c0.575-1.609,1.909-2.599,3.289-2.599
			c0.252,0,0.437,0.023,0.666,0.069V200.456z"/>
		<path fill="#FFFFFF" d="M687.37,210.275c-0.897,0.414-2.3,0.759-4.024,0.759c-3.816,0-6.024-2.553-6.024-6.416
			c0-3.771,2.115-6.783,5.702-6.783c3.564,0,4.99,2.967,4.99,6.094c0,0.437-0.023,0.805-0.068,1.127h-8.049
			c0.069,2.852,1.84,3.932,3.84,3.932c1.403,0,2.369-0.253,3.197-0.598L687.37,210.275z M685.484,203.146
			c0.023-1.518-0.598-3.403-2.645-3.403c-1.955,0-2.782,1.932-2.92,3.403H685.484z"/>
		<path fill="#FFFFFF" d="M701.768,210.781h-2.667v-7.428c0-1.793-0.599-3.311-2.415-3.311c-1.311,0-2.713,1.08-2.713,3.104v7.635
			h-2.668v-9.106c0-1.402-0.045-2.483-0.092-3.563h2.322l0.139,1.886h0.068c0.598-1.081,1.932-2.162,3.841-2.162
			c1.978,0,4.185,1.288,4.185,5.197V210.781z"/>
		<path fill="#FFFFFF" d="M714.372,210.39c-0.599,0.275-1.794,0.644-3.266,0.644c-3.655,0-6.048-2.507-6.048-6.462
			c0-3.84,2.484-6.737,6.554-6.737c1.219,0,2.276,0.299,2.829,0.575l-0.529,2.046c-0.46-0.229-1.195-0.506-2.276-0.506
			c-2.483,0-3.863,2.024-3.863,4.508c0,2.782,1.632,4.438,3.84,4.438c1.058,0,1.794-0.253,2.392-0.506L714.372,210.39z"/>
		<path fill="#FFFFFF" d="M726.746,210.275c-0.896,0.414-2.3,0.759-4.024,0.759c-3.817,0-6.024-2.553-6.024-6.416
			c0-3.771,2.115-6.783,5.703-6.783c3.564,0,4.989,2.967,4.989,6.094c0,0.437-0.022,0.805-0.069,1.127h-8.048
			c0.069,2.852,1.84,3.932,3.841,3.932c1.402,0,2.368-0.253,3.195-0.598L726.746,210.275z M724.86,203.146
			c0.022-1.518-0.598-3.403-2.645-3.403c-1.954,0-2.782,1.932-2.921,3.403H724.86z"/>
		<path fill="#FFFFFF" d="M351.966,227.642c0.874-1.426,2.253-2.208,4.024-2.208c2.852,0,4.99,2.529,4.99,6.462
			c0,4.645-2.69,6.737-5.358,6.737c-1.518,0-2.759-0.713-3.38-1.748h-0.046v6.623h-2.667v-13.705c0-1.655-0.046-2.967-0.092-4.093
			h2.345l0.138,1.932H351.966z M352.196,233.276c0,2.276,1.563,3.242,2.875,3.242c2.069,0,3.196-1.909,3.196-4.53
			c0-2.414-1.081-4.415-3.127-4.415c-1.587,0-2.943,1.495-2.943,3.357V233.276z"/>
		<path fill="#FFFFFF" d="M370.687,228.055c-0.23-0.046-0.483-0.068-0.782-0.068c-1.794,0-2.92,1.472-2.92,3.679v6.715h-2.667
			v-8.807c0-1.472-0.023-2.69-0.092-3.863h2.322l0.092,2.322h0.092c0.575-1.609,1.909-2.599,3.288-2.599
			c0.253,0,0.437,0.023,0.667,0.069V228.055z"/>
		<path fill="#FFFFFF" d="M384.394,231.942c0,4.737-3.081,6.691-5.933,6.691c-3.288,0-5.794-2.414-5.794-6.508
			c0-4.276,2.621-6.691,5.979-6.691C382.117,225.434,384.394,228.055,384.394,231.942z M378.553,227.435
			c-2.277,0-3.15,2.438-3.15,4.622c0,2.483,1.173,4.575,3.127,4.575c1.931,0,3.127-2.092,3.127-4.621
			C381.657,229.918,380.784,227.435,378.553,227.435z"/>
		<path fill="#FFFFFF" d="M388.283,223.411l2.645-0.828v3.128h3.012v2h-3.012v6.416c0,1.563,0.483,2.322,1.609,2.322
			c0.529,0,0.851-0.069,1.173-0.161l0.092,2.047c-0.46,0.184-1.173,0.299-2.07,0.299c-1.058,0-1.955-0.345-2.506-0.966
			c-0.644-0.689-0.943-1.748-0.943-3.403v-6.554h-1.793v-2h1.793V223.411z"/>
		<path fill="#FFFFFF" d="M406.221,237.875c-0.896,0.414-2.3,0.759-4.024,0.759c-3.817,0-6.024-2.553-6.024-6.416
			c0-3.771,2.115-6.783,5.703-6.783c3.564,0,4.989,2.967,4.989,6.094c0,0.437-0.022,0.805-0.069,1.127h-8.048
			c0.069,2.852,1.84,3.932,3.841,3.932c1.402,0,2.368-0.253,3.195-0.598L406.221,237.875z M404.335,230.746
			c0.022-1.518-0.598-3.403-2.645-3.403c-1.955,0-2.782,1.932-2.92,3.403H404.335z"/>
		<path fill="#FFFFFF" d="M418.688,237.99c-0.599,0.275-1.795,0.644-3.266,0.644c-3.656,0-6.048-2.507-6.048-6.462
			c0-3.84,2.483-6.737,6.554-6.737c1.219,0,2.276,0.299,2.828,0.575l-0.529,2.046c-0.459-0.229-1.195-0.506-2.275-0.506
			c-2.484,0-3.863,2.024-3.863,4.508c0,2.782,1.632,4.438,3.84,4.438c1.058,0,1.793-0.253,2.391-0.506L418.688,237.99z"/>
		<path fill="#FFFFFF" d="M422.322,223.411l2.645-0.828v3.128h3.012v2h-3.012v6.416c0,1.563,0.482,2.322,1.609,2.322
			c0.529,0,0.852-0.069,1.173-0.161l0.093,2.047c-0.461,0.184-1.174,0.299-2.07,0.299c-1.058,0-1.955-0.345-2.506-0.966
			c-0.645-0.689-0.943-1.748-0.943-3.403v-6.554h-1.793v-2h1.793V223.411z"/>
		<path fill="#FFFFFF" d="M432.326,223.755c-0.919,0-1.54-0.689-1.54-1.54c0-0.897,0.644-1.564,1.563-1.564s1.541,0.667,1.541,1.564
			C433.891,223.066,433.293,223.755,432.326,223.755z M433.66,238.38h-2.667v-12.693h2.667V238.38z"/>
		<path fill="#FFFFFF" d="M448.724,231.942c0,4.737-3.081,6.691-5.933,6.691c-3.288,0-5.795-2.414-5.795-6.508
			c0-4.276,2.621-6.691,5.979-6.691C446.447,225.434,448.724,228.055,448.724,231.942z M442.883,227.435
			c-2.276,0-3.15,2.438-3.15,4.622c0,2.483,1.174,4.575,3.128,4.575c1.931,0,3.127-2.092,3.127-4.621
			C445.987,229.918,445.113,227.435,442.883,227.435z"/>
		<path fill="#FFFFFF" d="M462.547,238.38h-2.668v-7.428c0-1.793-0.598-3.311-2.414-3.311c-1.311,0-2.713,1.08-2.713,3.104v7.635
			h-2.668v-9.106c0-1.402-0.046-2.483-0.092-3.563h2.322l0.139,1.886h0.068c0.598-1.081,1.932-2.162,3.84-2.162
			c1.979,0,4.186,1.288,4.186,5.197V238.38z"/>
		<path fill="#FFFFFF" d="M475.475,237.231c0,2.575-0.438,4.139-1.541,5.22c-1.012,0.966-2.621,1.38-3.932,1.38l-0.276-2.093
			c2.759-0.276,3.081-1.633,3.081-5.335v-10.716h2.668V237.231z M474.117,223.755c-0.92,0-1.541-0.689-1.541-1.54
			c0-0.897,0.645-1.564,1.564-1.564c0.943,0,1.541,0.667,1.541,1.564C475.682,223.066,475.084,223.755,474.117,223.755z"/>
		<path fill="#FFFFFF" d="M488.422,235.368c0,1.081,0.023,2.185,0.184,3.013h-2.414l-0.184-1.472h-0.069
			c-0.713,0.989-1.954,1.725-3.541,1.725c-2.368,0-3.726-1.748-3.726-3.702c0-3.15,2.736-4.714,7.082-4.714
			c0-0.943,0-2.828-2.552-2.828c-1.127,0-2.276,0.345-3.081,0.873l-0.553-1.771c0.897-0.574,2.393-1.058,4.094-1.058
			c3.725,0,4.76,2.461,4.76,5.151V235.368z M485.824,232.011c-2.094,0-4.508,0.391-4.508,2.644c0,1.403,0.874,2.024,1.863,2.024
			c1.448,0,2.645-1.104,2.645-2.576V232.011z"/>
		<path fill="#FFFFFF" d="M501.025,237.99c-0.598,0.275-1.793,0.644-3.266,0.644c-3.656,0-6.047-2.507-6.047-6.462
			c0-3.84,2.483-6.737,6.553-6.737c1.219,0,2.277,0.299,2.829,0.575l-0.528,2.046c-0.461-0.229-1.196-0.506-2.277-0.506
			c-2.483,0-3.863,2.024-3.863,4.508c0,2.782,1.633,4.438,3.84,4.438c1.059,0,1.795-0.253,2.393-0.506L501.025,237.99z"/>
		<path fill="#FFFFFF" d="M514.688,238.38h-3.22l-3.634-5.817l-1.034,1.265v4.553h-2.667v-18.442h2.667v11.475h0.046
			c0.299-0.482,0.645-1.034,0.966-1.472l3.15-4.23h3.15l-4.462,5.22L514.688,238.38z"/>
		<path fill="#FFFFFF" d="M526.164,237.875c-0.896,0.414-2.3,0.759-4.024,0.759c-3.817,0-6.024-2.553-6.024-6.416
			c0-3.771,2.115-6.783,5.703-6.783c3.564,0,4.989,2.967,4.989,6.094c0,0.437-0.022,0.805-0.069,1.127h-8.048
			c0.069,2.852,1.84,3.932,3.841,3.932c1.402,0,2.368-0.253,3.195-0.598L526.164,237.875z M524.278,230.746
			c0.022-1.518-0.598-3.403-2.645-3.403c-1.954,0-2.782,1.932-2.921,3.403H524.278z"/>
		<path fill="#FFFFFF" d="M530.628,223.411l2.645-0.828v3.128h3.013v2h-3.013v6.416c0,1.563,0.483,2.322,1.609,2.322
			c0.529,0,0.851-0.069,1.173-0.161l0.092,2.047c-0.459,0.184-1.172,0.299-2.069,0.299c-1.058,0-1.954-0.345-2.507-0.966
			c-0.644-0.689-0.942-1.748-0.942-3.403v-6.554h-1.794v-2h1.794V223.411z"/>
	</g>
</g>
<g>
	<path fill="#023148" stroke="#FFFFFF" stroke-width="2" stroke-miterlimit="10" d="M189.789,88.048
		c1.48,10.838-6.107,20.822-16.945,22.301l-38.115,5.199c-10.836,1.48-20.821-6.105-22.302-16.944l0,0
		c-1.477-10.839,6.11-20.822,16.948-22.301l38.114-5.201C178.326,69.624,188.311,77.211,189.789,88.048L189.789,88.048z"/>
	<circle fill="#023148" stroke="#FFFFFF" stroke-width="2" stroke-miterlimit="10" cx="134.253" cy="95.628" r="16.117"/>
	<circle fill="#023148" stroke="#FFFFFF" stroke-width="2" stroke-miterlimit="10" cx="167.611" cy="91.076" r="16.117"/>
	<circle fill="#FFFFFF" cx="134.254" cy="95.629" r="9.133"/>
	<circle fill="#FFFFFF" cx="168.144" cy="91.004" r="9.133"/>
	<circle fill="#023148" stroke="#FFFFFF" stroke-width="2" stroke-miterlimit="10" cx="149.092" cy="79.867" r="4.298"/>
</g>
<g>
	<path fill="#023148" stroke="#FFFFFF" stroke-width="2" stroke-miterlimit="10" d="M205.784,180.808
		c-10.937,0.118-19.897-8.655-20.013-19.594l-0.409-38.464c-0.116-10.938,8.656-19.9,19.593-20.017l0,0
		c10.939-0.115,19.9,8.659,20.016,19.595l0.408,38.466C225.495,171.733,216.722,180.694,205.784,180.808L205.784,180.808z"/>
	<circle fill="#023148" stroke="#FFFFFF" stroke-width="2" stroke-miterlimit="10" cx="205.188" cy="124.761" r="16.118"/>
	<circle fill="#023148" stroke="#FFFFFF" stroke-width="2" stroke-miterlimit="10" cx="205.546" cy="158.427" r="16.117"/>
	<circle fill="#FFFFFF" cx="205.188" cy="124.761" r="9.133"/>
	<circle fill="#FFFFFF" cx="205.551" cy="158.964" r="9.134"/>
	<circle fill="#023148" stroke="#FFFFFF" stroke-width="2" stroke-miterlimit="10" cx="218.977" cy="141.449" r="4.298"/>
</g>
<g>
	<path fill="#023148" stroke="#FFFFFF" stroke-width="2" stroke-miterlimit="10" d="M145.346,153.212
		c8.924-6.323,21.284-4.215,27.61,4.709l22.241,31.388c6.323,8.925,4.214,21.288-4.709,27.608l0,0
		c-8.925,6.326-21.288,4.219-27.611-4.707l-22.241-31.385C134.313,171.9,136.419,159.539,145.346,153.212L145.346,153.212z"/>
	<circle fill="#023148" stroke="#FFFFFF" stroke-width="2" stroke-miterlimit="10" cx="177.753" cy="198.945" r="16.118"/>
	<circle fill="#023148" stroke="#FFFFFF" stroke-width="2" stroke-miterlimit="10" cx="158.288" cy="171.475" r="16.118"/>
	<path fill="#FFFFFF" d="M172.473,191.494c4.115-2.914,9.816-1.943,12.732,2.17c2.917,4.116,1.944,9.819-2.171,12.734
		c-4.116,2.916-9.817,1.943-12.733-2.173C167.384,200.113,168.358,194.41,172.473,191.494z"/>
	<circle fill="#FFFFFF" cx="157.977" cy="171.037" r="9.133"/>
	<path fill="#023148" stroke="#FFFFFF" stroke-width="2" stroke-miterlimit="10" d="M154.431,189.573
		c1.938-1.372,4.62-0.915,5.992,1.022c1.373,1.936,0.914,4.617-1.022,5.992c-1.938,1.369-4.621,0.914-5.993-1.023
		C152.037,193.628,152.494,190.947,154.431,189.573z"/>
</g>
<g>
	<path fill="#023148" stroke="#FFFFFF" stroke-width="2" stroke-miterlimit="10" d="M135.243,121.743
		c9.329,5.709,12.266,17.902,6.555,27.231l-20.08,32.813c-5.711,9.33-17.901,12.265-27.23,6.557l0,0
		c-9.331-5.709-12.266-17.902-6.557-27.232l20.08-32.811C113.72,118.968,125.913,116.034,135.243,121.743L135.243,121.743z"/>
	<path fill="#023148" stroke="#FFFFFF" stroke-width="2" stroke-miterlimit="10" d="M114.4,155.806
		c7.591,4.646,9.981,14.566,5.333,22.162c-4.646,7.589-14.568,9.98-22.16,5.334c-7.591-4.647-9.981-14.571-5.335-22.162
		C96.885,153.55,106.807,151.16,114.4,155.806z"/>
	<circle fill="#023148" stroke="#FFFFFF" stroke-width="2" stroke-miterlimit="10" cx="123.56" cy="140.836" r="16.118"/>
	<circle fill="#FFFFFF" cx="105.987" cy="169.554" r="9.133"/>
	<circle fill="#FFFFFF" cx="123.841" cy="140.379" r="9.134"/>
	<circle fill="#023148" stroke="#FFFFFF" stroke-width="2" stroke-miterlimit="10" cx="103.165" cy="148.09" r="4.298"/>
</g>
<g>
	<circle fill="#023148" stroke="#FFFFFF" stroke-width="2" stroke-miterlimit="10" cx="164.578" cy="130.75" r="16.117"/>
	<circle fill="#FFFFFF" cx="164.573" cy="130.214" r="9.134"/>
</g>
<line fill="none" stroke="#FFF000" stroke-width="2" stroke-miterlimit="10" x1="189.681" y1="168.444" x2="334.919" y2="168.448"/>
</svg>
