<?xml version="1.0" encoding="utf-8"?>
<!-- Generator: Adobe Illustrator 16.0.0, SVG Export Plug-In . SVG Version: 6.00 Build 0)  -->
<!DOCTYPE svg PUBLIC "-//W3C//DTD SVG 1.1//EN" "http://www.w3.org/Graphics/SVG/1.1/DTD/svg11.dtd">
<svg version="1.1" id="圖層_1" xmlns="http://www.w3.org/2000/svg" xmlns:xlink="http://www.w3.org/1999/xlink" x="0px" y="0px"
	 width="800px" height="288.71px" viewBox="0 0 800 288.71" enable-background="new 0 0 800 288.71" xml:space="preserve">
<circle fill="#023148" stroke="#FFFFFF" stroke-width="2" stroke-miterlimit="10" cx="158.201" cy="144.494" r="125.342"/>
<g>
	<defs>
		<circle id="SVGID_1_" cx="158.201" cy="144.494" r="125.342"/>
	</defs>
	<clipPath id="SVGID_2_">
		<use xlink:href="#SVGID_1_"  overflow="visible"/>
	</clipPath>
	<g clip-path="url(#SVGID_2_)">
		
			<line fill="none" stroke="#FFFFFF" stroke-width="2" stroke-miterlimit="10" x1="160.335" y1="-109.897" x2="432.621" y2="162.388"/>
		
			<line fill="none" stroke="#FFFFFF" stroke-width="2" stroke-miterlimit="10" x1="150.648" y1="-100.208" x2="422.932" y2="172.075"/>
		
			<line fill="none" stroke="#FFFFFF" stroke-width="2" stroke-miterlimit="10" x1="140.961" y1="-90.522" x2="413.244" y2="181.761"/>
		
			<line fill="none" stroke="#FFFFFF" stroke-width="2" stroke-miterlimit="10" x1="131.273" y1="-80.835" x2="403.559" y2="191.45"/>
		
			<line fill="none" stroke="#FFFFFF" stroke-width="2" stroke-miterlimit="10" x1="121.586" y1="-71.147" x2="393.873" y2="201.137"/>
		<line fill="none" stroke="#FFFFFF" stroke-width="2" stroke-miterlimit="10" x1="111.9" y1="-61.461" x2="384.183" y2="210.823"/>
		
			<line fill="none" stroke="#FFFFFF" stroke-width="2" stroke-miterlimit="10" x1="102.212" y1="-51.774" x2="374.497" y2="220.51"/>
		
			<line fill="none" stroke="#FFFFFF" stroke-width="2" stroke-miterlimit="10" x1="92.525" y1="-42.088" x2="364.811" y2="230.196"/>
		
			<line fill="none" stroke="#FFFFFF" stroke-width="2" stroke-miterlimit="10" x1="82.839" y1="-32.399" x2="355.122" y2="239.884"/>
		
			<line fill="none" stroke="#FFFFFF" stroke-width="2" stroke-miterlimit="10" x1="73.151" y1="-22.712" x2="345.436" y2="249.571"/>
		<line fill="none" stroke="#FFFFFF" stroke-width="2" stroke-miterlimit="10" x1="63.464" y1="-13.026" x2="335.749" y2="259.26"/>
		<line fill="none" stroke="#FFFFFF" stroke-width="2" stroke-miterlimit="10" x1="53.778" y1="-3.339" x2="326.062" y2="268.946"/>
		<line fill="none" stroke="#FFFFFF" stroke-width="2" stroke-miterlimit="10" x1="44.09" y1="6.347" x2="316.375" y2="278.633"/>
		<line fill="none" stroke="#FFFFFF" stroke-width="2" stroke-miterlimit="10" x1="34.402" y1="16.035" x2="306.688" y2="288.319"/>
		<line fill="none" stroke="#FFFFFF" stroke-width="2" stroke-miterlimit="10" x1="24.716" y1="25.724" x2="297" y2="298.006"/>
		<line fill="none" stroke="#FFFFFF" stroke-width="2" stroke-miterlimit="10" x1="15.029" y1="35.411" x2="287.313" y2="307.693"/>
		<line fill="none" stroke="#FFFFFF" stroke-width="2" stroke-miterlimit="10" x1="5.341" y1="45.097" x2="277.627" y2="317.383"/>
		<line fill="none" stroke="#FFFFFF" stroke-width="2" stroke-miterlimit="10" x1="-4.345" y1="54.784" x2="267.939" y2="327.069"/>
		<line fill="none" stroke="#FFFFFF" stroke-width="2" stroke-miterlimit="10" x1="-14.032" y1="64.47" x2="258.251" y2="336.756"/>
		<line fill="none" stroke="#FFFFFF" stroke-width="2" stroke-miterlimit="10" x1="-23.72" y1="74.157" x2="248.565" y2="346.442"/>
		
			<line fill="none" stroke="#FFFFFF" stroke-width="2" stroke-miterlimit="10" x1="-33.407" y1="83.844" x2="238.878" y2="356.129"/>
		<line fill="none" stroke="#FFFFFF" stroke-width="2" stroke-miterlimit="10" x1="-43.094" y1="93.534" x2="229.19" y2="365.815"/>
		
			<line fill="none" stroke="#FFFFFF" stroke-width="2" stroke-miterlimit="10" x1="-54.131" y1="104.57" x2="218.152" y2="376.855"/>
		
			<line fill="none" stroke="#FFFFFF" stroke-width="2" stroke-miterlimit="10" x1="-65.17" y1="115.606" x2="207.115" y2="387.893"/>
		
			<line fill="none" stroke="#FFFFFF" stroke-width="2" stroke-miterlimit="10" x1="-76.208" y1="126.646" x2="196.077" y2="398.932"/>
		
			<line fill="none" stroke="#FFFFFF" stroke-width="2" stroke-miterlimit="10" x1="-87.246" y1="137.684" x2="185.039" y2="409.969"/>
		<line fill="none" stroke="#FFFFFF" stroke-width="2" stroke-miterlimit="10" x1="-98.285" y1="148.724" x2="174" y2="421.005"/>
		
			<line fill="none" stroke="#FFFFFF" stroke-width="2" stroke-miterlimit="10" x1="432.621" y1="148.724" x2="160.336" y2="421.005"/>
		
			<line fill="none" stroke="#FFFFFF" stroke-width="2" stroke-miterlimit="10" x1="422.934" y1="139.037" x2="150.649" y2="411.319"/>
		
			<line fill="none" stroke="#FFFFFF" stroke-width="2" stroke-miterlimit="10" x1="413.247" y1="129.347" x2="140.961" y2="401.632"/>
		
			<line fill="none" stroke="#FFFFFF" stroke-width="2" stroke-miterlimit="10" x1="403.559" y1="119.66" x2="131.275" y2="391.946"/>
		
			<line fill="none" stroke="#FFFFFF" stroke-width="2" stroke-miterlimit="10" x1="393.873" y1="109.974" x2="121.588" y2="382.259"/>
		<line fill="none" stroke="#FFFFFF" stroke-width="2" stroke-miterlimit="10" x1="384.186" y1="100.287" x2="111.9" y2="372.573"/>
		
			<line fill="none" stroke="#FFFFFF" stroke-width="2" stroke-miterlimit="10" x1="374.498" y1="90.601" x2="102.213" y2="362.886"/>
		<line fill="none" stroke="#FFFFFF" stroke-width="2" stroke-miterlimit="10" x1="364.811" y1="80.914" x2="92.527" y2="353.196"/>
		<line fill="none" stroke="#FFFFFF" stroke-width="2" stroke-miterlimit="10" x1="355.124" y1="71.225" x2="82.839" y2="343.509"/>
		<line fill="none" stroke="#FFFFFF" stroke-width="2" stroke-miterlimit="10" x1="345.438" y1="61.537" x2="73.152" y2="333.823"/>
		<line fill="none" stroke="#FFFFFF" stroke-width="2" stroke-miterlimit="10" x1="335.749" y1="51.851" x2="63.465" y2="324.136"/>
		<line fill="none" stroke="#FFFFFF" stroke-width="2" stroke-miterlimit="10" x1="326.063" y1="42.164" x2="53.779" y2="314.45"/>
		<line fill="none" stroke="#FFFFFF" stroke-width="2" stroke-miterlimit="10" x1="316.376" y1="32.478" x2="44.09" y2="304.763"/>
		<line fill="none" stroke="#FFFFFF" stroke-width="2" stroke-miterlimit="10" x1="306.689" y1="22.791" x2="34.404" y2="295.077"/>
		<line fill="none" stroke="#FFFFFF" stroke-width="2" stroke-miterlimit="10" x1="297.001" y1="13.105" x2="24.717" y2="285.388"/>
		<line fill="none" stroke="#FFFFFF" stroke-width="2" stroke-miterlimit="10" x1="287.314" y1="3.416" x2="15.029" y2="275.7"/>
		<line fill="none" stroke="#FFFFFF" stroke-width="2" stroke-miterlimit="10" x1="277.628" y1="-6.271" x2="5.343" y2="266.013"/>
		
			<line fill="none" stroke="#FFFFFF" stroke-width="2" stroke-miterlimit="10" x1="267.939" y1="-15.958" x2="-4.344" y2="256.327"/>
		
			<line fill="none" stroke="#FFFFFF" stroke-width="2" stroke-miterlimit="10" x1="258.253" y1="-25.645" x2="-14.032" y2="246.64"/>
		
			<line fill="none" stroke="#FFFFFF" stroke-width="2" stroke-miterlimit="10" x1="248.566" y1="-35.332" x2="-23.718" y2="236.954"/>
		
			<line fill="none" stroke="#FFFFFF" stroke-width="2" stroke-miterlimit="10" x1="238.878" y1="-45.018" x2="-33.405" y2="227.265"/>
		
			<line fill="none" stroke="#FFFFFF" stroke-width="2" stroke-miterlimit="10" x1="229.192" y1="-54.705" x2="-43.092" y2="217.578"/>
		
			<line fill="none" stroke="#FFFFFF" stroke-width="2" stroke-miterlimit="10" x1="218.153" y1="-65.745" x2="-54.131" y2="206.541"/>
		
			<line fill="none" stroke="#FFFFFF" stroke-width="2" stroke-miterlimit="10" x1="207.115" y1="-76.781" x2="-65.169" y2="195.501"/>
		
			<line fill="none" stroke="#FFFFFF" stroke-width="2" stroke-miterlimit="10" x1="196.077" y1="-87.821" x2="-76.208" y2="184.464"/>
		
			<line fill="none" stroke="#FFFFFF" stroke-width="2" stroke-miterlimit="10" x1="185.04" y1="-98.857" x2="-87.245" y2="173.427"/>
		<line fill="none" stroke="#FFFFFF" stroke-width="2" stroke-miterlimit="10" x1="174" y1="-109.897" x2="-98.285" y2="162.388"/>
	</g>
</g>
<path fill="#023148" stroke="#FFFFFF" stroke-width="2" stroke-miterlimit="10" d="M257.989,144.494
	c0,55.114-44.677,99.792-99.788,99.792c-55.114,0-99.785-44.677-99.785-99.792c0-55.108,44.67-99.791,99.785-99.791
	C213.312,44.704,257.989,89.386,257.989,144.494z"/>
<path fill="#EEEEEF" stroke="#FFFFFF" stroke-width="2" stroke-miterlimit="10" d="M243.75,144.494
	c0,47.249-38.301,85.552-85.549,85.552c-47.249,0-85.545-38.304-85.545-85.552c0-47.246,38.296-85.553,85.545-85.553
	C205.449,58.941,243.75,97.248,243.75,144.494z"/>
<circle fill="#023148" stroke="#FFFFFF" stroke-width="2" stroke-miterlimit="10" cx="158.203" cy="144.494" r="80.619"/>
<line fill="none" stroke="#FFF000" stroke-width="2" stroke-miterlimit="10" x1="266.043" y1="102.096" x2="334.919" y2="102.096"/>
<g>
	<g>
		<path fill="#FFFFFF" d="M360.782,100.528c-2.87,3.239-6.364,6.081-10.427,8.467l-1.648-2.103
			c4.432-2.244,8.978-5.256,13.751-12.813h-13.013V91.55h25.002v2.529h-9.12l-2.046,3.239v19.462h-2.5V100.528z M373.397,109.677
			c-3.722-4.148-6.933-7.16-9.632-9.092l1.506-2.018c3.068,2.188,6.45,5.285,10.086,9.319L373.397,109.677z"/>
		<path fill="#FFFFFF" d="M387.293,95.272c-1.023-0.71-2.018-1.421-2.955-2.188c-0.881,1.08-2.159,2.273-3.835,3.495l-2.046-1.477
			c2.614-1.591,4.233-3.04,4.858-4.319l2.188,0.085l-0.17,0.426c1.136,0.739,2.301,1.449,3.495,2.074L387.293,95.272z
			 M402.437,109.961v-1.193h-4.859v8.211h-2.102v-8.211h-4.433l-0.085,1.193h3.097c0.284,0,0.455,0.17,0.455,0.511v6.108h-1.96
			v-4.489c0-0.17-0.085-0.256-0.255-0.256h-1.591c-0.313,2.074-1.051,3.807-2.131,5.086l-1.818-1.165
			c0.398-0.37,0.824-0.995,1.222-1.733c-2.585,0.881-5.483,1.648-8.609,2.188l-0.682-2.216l3.864-0.795v-9.092h-3.267v-2.188h3.267
			v-2.245h-2.813v-2.188h7.671v2.188h-2.642v2.245h2.983v2.188h-2.983v8.523l2.585-0.852l0.71,2.074
			c0.597-1.392,0.994-3.267,1.051-5.625v-7.7h1.96v3.268h1.535c0.199,0,0.284-0.085,0.284-0.256v-2.983h1.733v4.517
			c-0.028,0.313-0.199,0.483-0.483,0.483h-3.069v1.25h4.404V99.96h-5.967v-1.875h5.967v-1.08h-7.416v-1.96h7.416v-1.193h-5.853
			v-1.875h5.853v-1.42h2.102v1.42h5.341c0.427,0,0.653,0.199,0.653,0.625v2.443h1.478v1.96h-1.478v2.301
			c0,0.426-0.227,0.654-0.653,0.654h-5.341v6.847h4.859v-1.25h-3.183c-0.54,0-0.824-0.284-0.824-0.853v-4.177h1.733v2.813
			c0,0.313,0.171,0.455,0.483,0.455h1.79v-3.268h1.96v16.252h-1.96v-4.944h-1.733c-0.142,0-0.227,0.085-0.199,0.228v4.432h-1.96
			v-6.08c-0.028-0.313,0.085-0.455,0.426-0.455H402.437z M379.536,111.808c-0.057-2.188-0.313-4.148-0.682-5.768l2.216-0.199
			c0.341,2.103,0.568,4.091,0.625,5.967H379.536z M385.475,110.188c0.397-1.96,0.597-3.608,0.597-4.858l2.074,0.313
			c-0.142,2.046-0.397,3.722-0.682,5L385.475,110.188z M397.578,93.851v1.193h3.893v-1.023c0-0.113-0.058-0.17-0.171-0.17H397.578z
			 M397.578,97.005v1.08h3.722c0.113,0,0.171-0.057,0.171-0.199v-0.881H397.578z"/>
		<path fill="#FFFFFF" d="M417.412,96.124c-1.023-0.852-1.961-1.79-2.842-2.699c-1.506,1.506-2.954,2.699-4.262,3.58l-2.017-1.506
			c2.756-1.478,4.546-2.983,5.341-4.404l2.188,0.142l-0.17,0.426c1.079,0.966,2.216,1.847,3.466,2.699v-2.188
			c0-0.511,0.256-0.795,0.796-0.795h13.438c0.54,0,0.824,0.284,0.824,0.795v22.02c0,0.994-0.369,1.733-1.08,2.273
			c-0.426,0.313-1.107,0.455-2.045,0.455c-0.768,0-1.733-0.085-2.842-0.313l-0.17-2.586c1.137,0.37,1.988,0.54,2.585,0.54
			c1.052,0,1.25-0.824,1.25-1.193v-12.473h-4.204v10.115h1.051c0.199,0,0.313-0.085,0.313-0.313v-7.586h1.989v8.921
			c0,0.625-0.342,0.966-0.995,0.966h-6.478c-0.653,0-0.938-0.341-0.938-0.966v-8.921h1.96v7.586c0,0.313,0.114,0.313,1.137,0.313
			v-10.115h-4.29v15.854h-2.302V94.505L417.412,96.124z M412.61,113.768v-9.092h-3.722v-2.188h3.722v-2.472h-2.728v-2.188h7.699
			v2.188h-2.784v2.472h3.125v2.188h-3.125v8.637l3.153-0.824l0.654,2.33c-2.046,0.767-5.257,1.42-9.604,1.989l-0.568-2.358
			L412.61,113.768z M409.74,112.404c-0.142-1.733-0.482-3.722-0.938-5.881l2.159-0.313c0.427,2.131,0.768,4.148,0.938,6.052
			L409.74,112.404z M415.594,110.87c0.198-1.137,0.454-2.728,0.625-4.688l2.131,0.313c-0.114,1.676-0.341,3.295-0.653,4.858
			L415.594,110.87z M429.458,98.709h2.415v-4.972c0-0.114-0.057-0.171-0.198-0.171h-10.087c-0.113,0-0.17,0.057-0.17,0.171v4.972
			h5.711c0.597-1.506,1.107-2.983,1.478-4.404l2.045,0.767L429.458,98.709z M424.032,98.482c-0.483-1.364-0.967-2.415-1.393-3.154
			l1.762-0.881c0.54,0.881,0.994,1.96,1.478,3.296L424.032,98.482z"/>
		<path fill="#FFFFFF" d="M447.076,96.294c-1.193-0.938-2.33-1.96-3.381-3.011c-1.137,1.42-2.358,2.642-3.58,3.637l-2.017-1.279
			c2.386-1.62,3.92-3.154,4.546-4.518h2.073l-0.142,0.426c1.307,1.137,2.699,2.159,4.148,3.097L447.076,96.294z M442.559,113.626
			v-8.296h-3.268v-2.188h3.268v-3.58h-2.272v-2.188h6.563v2.188h-2.103v3.58h3.012v2.188h-3.012v7.586
			c1.251-0.483,2.273-0.909,3.154-1.364l1.022,1.904c-2.216,1.108-5.483,2.216-9.745,3.267l-0.881-2.074L442.559,113.626z
			 M439.462,113.001c-0.113-1.96-0.397-3.836-0.796-5.569l1.961-0.199c0.397,2.5,0.682,4.404,0.767,5.682L439.462,113.001z
			 M445.314,111.125c0.256-1.08,0.455-2.557,0.625-4.347l1.933,0.341c-0.114,1.534-0.341,3.04-0.682,4.489L445.314,111.125z
			 M452.275,113.91l-0.909-4.035h-1.506c-0.198,0-0.313-0.114-0.313-0.313v-6.336c0-0.199,0.114-0.313,0.313-0.313h13.553
			c0.199,0,0.313,0.114,0.313,0.313v6.336c0,0.199-0.113,0.313-0.313,0.313h-1.647l-1.023,4.035h3.978v2.188h-16.337v-2.188H452.275
			z M448.838,99.051h15.343v2.188h-15.343V99.051z M457.617,94.931h3.58c0.256,0,0.397-0.142,0.397-0.397v-3.182h2.302v4.688
			c0,0.71-0.37,1.08-1.08,1.08H450.23c-0.711,0-1.052-0.37-1.052-1.08v-4.688h2.302v3.182c0,0.256,0.085,0.397,0.341,0.397h3.608
			v-4.262h2.188V94.931z M461.424,105.103h-9.603l-0.085,0.085v2.387l0.085,0.114h9.603c0.086,0,0.114-0.029,0.114-0.114v-2.387
			L461.424,105.103z M454.605,113.91h3.836l0.881-4.035h-5.513L454.605,113.91z"/>
		<path fill="#FFFFFF" d="M483.303,106.779c0.568,1.534,1.137,2.188,2.614,3.807c1.96-1.137,3.522-2.159,4.659-3.097l1.336,1.932
			c-1.08,0.881-2.415,1.79-4.007,2.728c1.563,1.08,3.808,1.96,6.706,2.643l-1.08,2.188l-0.881-0.228
			c-6.052-1.847-10.001-5.114-11.819-9.83l-2.784,2.188l-0.455,0.313v4.347l0.256-0.085c1.847-0.369,3.353-0.767,4.518-1.25
			l0.853,2.245c-3.097,0.994-6.848,1.79-11.194,2.216l-0.653-2.358l3.807-0.37v-3.438c-2.159,0.994-4.318,1.705-6.393,2.103
			l-0.767-2.302l2.131-0.426c2.188-0.483,4.631-1.62,7.273-3.324h-8.41v-2.188h11.166v-1.847h2.387v1.847h11.108v2.188H483.303z
			 M469.012,102.517c0.966-0.852,1.733-1.818,2.273-2.898h-2.842v-2.074h8.013V95.84h-5.513c-0.682,0-1.051-0.341-1.051-1.08v-3.665
			h2.302v2.074c0,0.397,0.198,0.597,0.597,0.597h3.665v-3.21h2.301v12.785h-2.301v-3.722h-2.813
			c-0.568,1.591-1.591,3.012-2.926,4.291L469.012,102.517z M485.49,99.704v-3.807h-5.369v-2.188h5.369v-3.153h2.415v3.153h5.541
			v2.188h-5.541v3.807h5.342v2.188h-12.7v-2.188H485.49z"/>
		<path fill="#FFFFFF" d="M500.978,105.898v0.426l-2.415-0.114v-8.183c0-0.341,0.143-0.398,0.568-0.54h5.086v-3.551
			c0-0.256-0.114-0.37-0.369-0.37h-5.257v-2.415h7.643c0.256,0,0.398,0.142,0.398,0.397v8.637h-2.415v-0.284h-2.87l-0.255,0.085
			l-0.114,0.256v3.04h5.029c0.397,0.028,0.568,0.227,0.568,0.568c0,5.256-0.143,9.007-0.228,9.66
			c-0.313,2.557-2.87,2.955-3.722,2.955c-0.881,0-2.188-0.284-3.893-0.767l-0.086-2.643c1.648,0.54,2.955,0.795,3.864,0.795
			c1.108,0,1.421-0.369,1.591-0.966c0.143-0.455,0.199-2.699,0.228-6.734c0-0.17-0.142-0.284-0.341-0.255H500.978z M521.349,115.132
			l-13.666,1.478l-0.426-2.387l7.188-0.767v-4.12h-6.308c-0.199,0-0.313-0.114-0.313-0.341v-8.325c0-0.199,0.113-0.313,0.313-0.313
			h6.308v-2.472l-6.507,0.455l-0.568-2.358l2.983-0.17c0.853-1.619,1.648-3.409,2.302-5.313l2.159,0.853
			c-0.369,1.165-0.994,2.614-1.79,4.29l7.103-0.398l-1.847-2.67l1.903-1.193c1.876,2.557,3.324,4.745,4.233,6.506l-1.988,1.108
			l-0.909-1.591l-4.659,0.341v2.614h6.052c0.198,0,0.313,0.114,0.313,0.313v8.325c0,0.228-0.114,0.341-0.313,0.341h-6.052v3.864
			l3.466-0.369l-1.022-2.074l2.216-0.938c1.449,3.04,2.358,5.143,2.728,6.279l-2.273,0.767L521.349,115.132z M514.445,107.148
			v-4.574h-4.233c-0.086,0-0.114,0.028-0.086,0.057v4.404l0.086,0.114H514.445z M516.86,102.574v4.574h3.949l0.113-0.114v-4.404
			l-0.113-0.057H516.86z"/>
		<path fill="#FFFFFF" d="M532.063,102.091c-0.653,1.136-1.363,2.159-2.045,3.04l-2.33-1.108c3.097-4.034,5.114-8.552,6.023-13.467
			l2.472,0.511c-0.54,2.188-1.08,4.148-1.705,5.824v19.775h-2.415V102.091z M553.03,96.067c-3.778,3.75-7.528,6.364-11.165,7.756
			v8.581c-0.029,0.881,0.028,1.676,1.563,1.676h5.455c0.767,0,1.363-0.256,1.647-0.71l0.341-0.881
			c0.086-0.397,0.086-1.79,0.057-4.12l2.529,0.398v1.222c0,2.784,0,4.46-0.739,5.54c-0.852,0.966-1.307,1.08-3.04,1.08h-7.33
			c-2.131,0-3.097-1.535-3.012-3.779V90.584h2.529v10.598c3.693-1.762,6.818-4.063,9.376-6.876L553.03,96.067z"/>
		<path fill="#FFFFFF" d="M565.137,99.363c-0.057,0.142-0.057,0.284-0.057,0.397c0,0.199,0.028,0.398,0.142,0.54
			c0.682,0.938,2.558,3.495,2.558,6.762c0,0.625-0.114,1.364-0.824,2.5c-1.022,1.25-1.961,1.506-3.296,1.506
			c-0.824,0-1.705-0.142-2.671-0.426v6.137h-2.415V91.606l0.086-0.284l0.255-0.057h6.819l1.591,1.023L565.137,99.363z
			 M564.512,94.021c0.028-0.085,0.057-0.17,0.057-0.255c0-0.313-0.284-0.313-0.512-0.313h-2.869l-0.143,0.057l-0.057,0.142v14.405
			c0.768,0.455,1.534,0.682,2.302,0.682c0.853,0,2.046-0.199,2.046-2.103c0-1.421-0.909-3.552-2.728-6.393
			c0-0.085,0-0.114,0.057-0.256L564.512,94.021z M572.694,102.346c-0.397,6.421-2.528,11.28-6.364,14.462l-2.103-1.733l0.228-0.142
			c3.807-2.841,5.768-7.5,5.881-13.921v-4.233h-2.955v-2.415h6.734v-3.807h2.415v3.807h7.216v2.415h-10.995v3.125h9.518l0.483,0.114
			l0.284,0.341l0.057,5.427c-0.113,4.546-0.426,7.416-0.994,8.523c-1.08,2.273-2.841,2.5-4.063,2.5c-1.335,0-3.04-0.341-5.085-0.995
			v-2.813c1.96,0.795,3.522,1.193,4.631,1.193c0.512,0,0.938-0.057,1.25-0.228c1.563-0.824,1.762-2.926,1.818-5.086
			c0.057-1.903,0.114-3.381,0.114-4.432c0-1.932-0.114-2.103-0.427-2.103H572.694z"/>
		<path fill="#FFFFFF" d="M599.006,113.114c-0.966-1.165-2.131-2.415-3.466-3.75v7.416h-2.302v-7.103
			c-1.307,1.761-2.699,3.182-4.119,4.233l-1.847-1.62c2.102-1.478,3.835-3.324,5.142-5.398h-4.829v-2.188h5.653v-1.62h2.302v1.62
			h5.256v2.188h-4.773c1.62,1.421,3.183,2.898,4.66,4.461L599.006,113.114z M590.795,100.784c-0.54,0.795-1.165,1.62-1.932,2.387
			c-0.512-0.682-1.052-1.222-1.534-1.563c1.506-1.505,2.671-3.495,3.381-5.824l2.131,0.909l-1.022,2.273l2.131,2.159l-1.648,1.563
			L590.795,100.784z M593.011,92.942v-2.188h2.302v2.188h5.285v2.188H587.67v-2.188H593.011z M596.932,101.04l-1.278,1.875
			c-0.597-0.653-1.165-1.136-1.704-1.42c1.278-1.591,2.131-3.466,2.528-5.512l2.216,0.682l-0.881,2.5l2.586,2.302l-1.591,1.676
			L596.932,101.04z M609.689,109.989v4.262h4.147v2.188h-10.854c-0.539,0-0.823-0.284-0.823-0.824V99.278l-1.08,1.534
			c-0.568-0.653-1.165-1.136-1.676-1.42c1.932-2.415,3.295-5.37,3.949-8.836l2.216,0.653c-0.341,1.364-0.824,2.756-1.364,4.176
			h3.751c0.823-1.932,1.363-3.495,1.676-4.773l2.074,0.653c-0.256,1.222-0.682,2.585-1.335,4.12h3.58l-0.199,2.188h-4.063v4.006
			h4.006v2.216h-4.006v4.006h3.892v2.188H609.689z M604.348,101.579h3.153v-4.006h-2.841c-0.199,0-0.313,0.114-0.313,0.313V101.579z
			 M604.348,107.801h3.153v-4.006h-3.153V107.801z M607.501,109.989h-3.153v3.921c0,0.227,0.113,0.341,0.313,0.341h2.841V109.989z"
			/>
		<path fill="#FFFFFF" d="M617.505,95.215h10.683v2.302h-10.683V95.215z M620.829,115.104v0.994h-2.302v-9.461
			c0-0.455,0.228-0.71,0.711-0.71h7.273c0.482,0,0.738,0.256,0.738,0.71v7.699c0,0.512-0.256,0.768-0.768,0.768H620.829z
			 M618.84,98.823h7.927v2.188h-7.927V98.823z M618.84,102.375h7.927v2.188h-7.927V102.375z M618.954,91.55h7.699v2.301h-7.699
			V91.55z M624.948,108.483c0-0.256-0.142-0.37-0.369-0.37h-3.409c-0.228,0-0.341,0.114-0.341,0.37v4.432h3.665
			c0.284,0,0.454-0.17,0.454-0.483V108.483z M631.568,102.972v-9.063h-2.983v-2.415h10.655c0.426-0.057,0.823,0.028,0.823,0.455
			c-0.028,2.33-0.028,4.46-0.028,6.421c0,8.24,0.228,13.069,0.739,14.462c0.057,0.17,0.17,0.284,0.369,0.284
			c0.085,0,0.142,0,0.142-0.313l0.057-3.409l2.387,0.483c-0.227,4.148-0.738,7.018-2.528,7.018c-0.512,0-0.938-0.17-1.278-0.54
			l-0.625-0.966c-1.108-2.216-1.648-8.239-1.648-18.013c0-0.455,0.057-2.671,0.057-3.154c0-0.17-0.113-0.256-0.369-0.313h-3.353
			v8.381l2.273-0.795l0.795,2.273c-0.653,0.284-1.732,0.653-3.153,1.08l-0.597,4.12c-0.768,3.41-1.847,5.938-3.183,7.501
			l-2.472-0.796c2.273-3.068,3.552-6.478,3.836-10.2l-3.125,0.71l-0.739-2.33L631.568,102.972z"/>
		<path fill="#FFFFFF" d="M654.215,99.193c-0.114,0.313-0.143,0.596-0.143,0.795c0,0.142,0,0.256,0.057,0.313
			c1.222,2.245,1.875,4.262,1.875,6.393c0,1.364-0.313,2.443-0.938,3.21c-0.767,0.909-1.392,1.051-2.357,1.051
			c-0.739,0-1.563-0.142-2.443-0.455v6.166h-2.188V91.465l0.086-0.256l0.227-0.057h6.08l1.592,0.994L654.215,99.193z
			 M653.306,93.965c0.028-0.114,0.057-0.199,0.057-0.284c0-0.256-0.199-0.369-0.568-0.341h-2.33l-0.142,0.057l-0.057,0.142v14.519
			c0.71,0.511,1.42,0.767,2.073,0.767s0.881-0.199,1.023-0.426c0.369-0.54,0.482-1.278,0.482-1.932c0-1.733-0.966-4.063-2.103-6.535
			L653.306,93.965z M665.607,104.335h-1.932l-0.114,0.938c-0.341,1.676-1.591,3.012-3.75,3.949l-0.938-1.279v8.581h-2.302v-13.836
			c0-0.341,0.199-0.54,0.54-0.54h14.831c0.369,0,0.568,0.199,0.568,0.54v11.535c0,0.54-0.143,2.557-2.927,2.557
			c-0.682,0-1.534-0.114-2.528-0.313v-2.557c0.966,0.369,1.676,0.511,2.131,0.511c0.653,0,1.022-0.625,1.022-1.136v-4.461h-3.693
			c-0.597,0-0.909-0.284-0.909-0.938V104.335z M656.999,91.379h15.257v2.188h-15.257V91.379z M671.176,100.415
			c0,0.199-0.113,0.313-0.283,0.313h-12.729c-0.171,0-0.256-0.114-0.256-0.313v-5.143c0-0.199,0.085-0.284,0.256-0.284h12.729
			c0.17,0,0.283,0.085,0.283,0.284V100.415z M658.874,107.46c1.534-0.653,2.472-1.364,2.728-2.103l0.113-1.023h-2.671
			c-0.113,0-0.17,0.057-0.17,0.171V107.46z M663.392,111.95h-3.268v-2.103h8.893v2.103h-3.438v4.034h-2.188V111.95z M668.762,96.834
			h-8.467c-0.086,0-0.114,0.028-0.086,0.085v1.847l0.086,0.113h8.467l0.113-0.113V96.92L668.762,96.834z M667.568,106.466
			c0,0.341,0.17,0.511,0.539,0.511h2.103v-2.472c0-0.114-0.057-0.171-0.198-0.171h-2.443V106.466z"/>
		<path fill="#FFFFFF" d="M699.534,109.989v4.262h3.722v2.188h-10.229c-0.512,0-0.795-0.284-0.795-0.824V99.051l-0.824,1.193
			c-0.512-0.54-0.994-0.938-1.421-1.193v3.551c0,0.597-0.313,0.909-0.938,0.909h-4.233l-0.284,1.307h5.37
			c0.341,0,0.512,0.17,0.512,0.483v9.177c0,0.796-0.256,2.5-2.955,2.5c-0.711,0-1.534-0.114-2.472-0.313l-0.058-2.443
			c0.995,0.313,1.733,0.483,2.217,0.483c0.767,0,1.079-0.653,1.079-1.108v-6.648c0-0.114-0.057-0.17-0.198-0.17h-3.921l-1.165,4.063
			l2.272-0.426l-0.823-2.188l1.875-0.597c0.767,2.103,1.363,3.921,1.733,5.427l-1.876,0.426l-0.313-1.108l-5.397,1.108l-0.853-2.046
			l1.079-0.199l1.278-4.46h-2.329c-0.085,0-0.143,0.057-0.143,0.17v9.802h-2.216v-11.45c0-0.313,0.171-0.483,0.512-0.483h4.631
			l0.284-1.307h-4.092c-0.567,0-0.88-0.313-0.88-0.909v-7.131h1.96v5.853c0,0.199,0.113,0.313,0.313,0.313h7.729
			c0.198,0,0.313-0.114,0.313-0.313v-5.853h1.988v2.983c1.563-2.16,2.643-4.83,3.211-7.898l2.216,0.625
			c-0.369,1.364-0.796,2.784-1.363,4.205h3.722c0.738-1.903,1.193-3.466,1.421-4.745l2.131,0.597
			c-0.228,1.222-0.597,2.614-1.165,4.148h3.182l-0.17,2.188h-3.637v4.006h3.438v2.216h-3.438v4.006h3.438v2.188H699.534z
			 M682.629,92.146v-1.591h2.301v1.591h5.285v2.188h-12.813v-2.188H682.629z M684.163,99.335c-0.966,0.738-1.989,1.363-3.097,1.903
			c-0.199-0.739-0.455-1.278-0.768-1.705c0.881-0.426,1.677-0.853,2.387-1.364l-2.302-1.648l1.251-1.534l2.557,1.932
			c0.625-0.597,1.278-1.335,1.903-2.16l1.449,1.335l-1.96,1.989l1.875,1.591l-1.336,1.42L684.163,99.335z M694.42,101.579h2.926
			v-4.006h-2.613c-0.199,0-0.313,0.114-0.313,0.313V101.579z M694.42,107.801h2.926v-4.006h-2.926V107.801z M697.346,109.989h-2.926
			v3.921c0,0.227,0.113,0.341,0.313,0.341h2.613V109.989z"/>
	</g>
</g>
<g>
	<g>
		<path fill="#FFFFFF" d="M348.89,187.041c3.256-1.29,3.966-2.257,4.353-4.256v-5.578c0-0.258-0.097-0.387-0.322-0.387h-3.095v-2.74
			h5.481c0.484,0,0.677,0.226,0.677,0.677v7.609c0.161,0.58,0.516,1.225,1.096,1.87c1.386,1.999,3.869,2.193,9.35,2.193
			c3.127,0,7.254-0.129,12.316-0.387l-0.645,3.095l-15.25-0.064c-3.837-0.161-6.513-1.386-7.899-3.611
			c-0.677,1.58-2.837,3.417-4.74,4.063L348.89,187.041z M354.242,172.145c-2.031-1.419-3.74-2.418-5.094-2.999l1.354-2.451
			c1.547,0.677,3.321,1.709,5.255,3.127L354.242,172.145z M354.952,165.729c-2.031-1.547-3.805-2.676-5.223-3.321l1.451-2.386
			c1.612,0.774,3.353,1.902,5.32,3.417L354.952,165.729z M366.623,179.657h-5.771v4.804h-2.612v-16.637
			c0-0.419,0.193-0.612,0.581-0.612h5.352l-2.902-1.128l1.032-2.225l3.901,1.547c2.386-0.354,4.481-1.193,6.158-2.354v-0.226h-13.8
			v-2.483h17.088l1.161,1.548c-2.999,3.611-5.674,4.417-7.48,4.965l0.258,0.129l-0.129,0.226h7.512c0.419,0,0.613,0.193,0.613,0.612
			v14.412c0,2.063-1.419,2.966-3.547,2.966c-0.902,0-1.999-0.161-3.289-0.419v-2.902c1.29,0.419,2.257,0.645,2.87,0.645
			c0.871,0,1.354-0.709,1.354-1.322v-1.547h-5.868v5.094h-2.483V179.657z M366.623,172.242v-2.676h-5.578
			c-0.129,0-0.193,0.064-0.193,0.193v2.483H366.623z M366.623,177.304v-2.676h-5.771v2.676H366.623z M369.106,169.565v2.676h5.868
			v-2.483c0-0.129-0.064-0.193-0.226-0.193H369.106z M369.106,174.627v2.676h5.868v-2.676H369.106z"/>
		<path fill="#FFFFFF" d="M382.994,164.955h12.123v2.611h-12.123V164.955z M386.767,187.524v1.128h-2.612v-10.737
			c0-0.516,0.258-0.806,0.806-0.806h8.254c0.548,0,0.838,0.29,0.838,0.806v8.738c0,0.58-0.29,0.871-0.871,0.871H386.767z
			 M384.51,169.05h8.995v2.482h-8.995V169.05z M384.51,173.08h8.995v2.482h-8.995V173.08z M384.639,160.796h8.737v2.611h-8.737
			V160.796z M391.441,180.012c0-0.29-0.161-0.419-0.419-0.419h-3.869c-0.258,0-0.387,0.129-0.387,0.419v5.03h4.159
			c0.322,0,0.516-0.193,0.516-0.548V180.012z M398.954,173.757v-10.285h-3.386v-2.74h12.091c0.483-0.064,0.936,0.032,0.936,0.516
			c-0.032,2.644-0.032,5.062-0.032,7.287c0,9.35,0.258,14.832,0.838,16.411c0.064,0.193,0.193,0.322,0.419,0.322
			c0.097,0,0.161,0,0.161-0.354l0.064-3.869l2.709,0.548c-0.259,4.707-0.839,7.964-2.87,7.964c-0.58,0-1.063-0.194-1.451-0.613
			l-0.709-1.096c-1.257-2.515-1.87-9.35-1.87-20.441c0-0.516,0.064-3.031,0.064-3.579c0-0.194-0.129-0.291-0.419-0.355h-3.805v9.512
			l2.579-0.903l0.903,2.579c-0.741,0.322-1.967,0.742-3.579,1.225l-0.677,4.675c-0.871,3.869-2.096,6.738-3.611,8.512l-2.805-0.903
			c2.58-3.482,4.03-7.351,4.353-11.575l-3.547,0.806l-0.838-2.644L398.954,173.757z"/>
		<path fill="#FFFFFF" d="M421.645,175.691l-4.514,0.548c-0.097-0.709-0.29-1.516-0.613-2.418l1.612-0.193
			c0.968-0.903,2.031-2.128,3.225-3.643c-1.612-1.419-3.192-2.58-4.837-3.418l1.129-2.225c0.161,0,0.548,0.226,1.226,0.709
			c0.999-1.677,1.999-3.515,2.901-5.481l2.128,1.258c-0.645,1.451-1.677,3.289-3.127,5.578l1.999,1.58
			c1.16-1.838,2.063-3.644,2.644-5.385l2.354,0.806c-0.806,2.644-2.934,5.9-6.352,9.802l4.288-0.581l-0.709-2.031l2.386-0.709
			c0.838,2.322,1.515,4.417,1.87,6.19l-2.387,0.484l-0.387-1.483l-2.225,0.29v14.057h-2.611V175.691z M416.518,187.073
			c0.807-3.45,1.354-6.577,1.483-9.35l2.418,0.452c-0.516,4.256-1.031,7.416-1.547,9.511L416.518,187.073z M427.899,177.787
			l1.29,7.835l-2.451,0.419l-1.257-7.641L427.899,177.787z M436.314,170.243v-4.708h-6.996v-2.611h6.996v-3.031h2.74v3.031h7.062
			v2.611h-7.062v4.708h6.804v2.611h-15.896v-2.611H436.314z M433.316,187.814v1.386h-2.612v-12.993
			c-0.032-0.258,0.129-0.419,0.452-0.419h13.573c0.387,0,0.548,0.193,0.548,0.516v12.896h-2.611v-1.386H433.316z M433.316,185.203
			h9.35v-6.448c0-0.226-0.129-0.354-0.387-0.354h-8.576c-0.29,0-0.419,0.129-0.387,0.354V185.203z"/>
		<path fill="#FFFFFF" d="M478.737,171.146c-4.933-2.257-9.285-5.094-13.058-8.479c-2.676,2.772-7.19,5.642-13.542,8.544
			l-1.579-2.547c7.383-2.837,12.187-5.868,14.315-8.995l2.676,0.451l-0.354,0.581c3.578,3.321,7.996,5.997,13.251,7.963
			L478.737,171.146z M457.458,187.782v1.418h-2.837v-12.896c0-0.645,0.29-0.967,0.967-0.967h20.28c0.645,0,0.999,0.322,0.999,0.967
			v12.896h-2.869v-1.418H457.458z M456.361,169.598H474.9v2.87h-18.539V169.598z M457.458,185.042h16.54v-6.545
			c0-0.29-0.129-0.419-0.419-0.419h-15.702c-0.322,0-0.451,0.162-0.419,0.419V185.042z"/>
		<path fill="#FFFFFF" d="M497.913,166.857h-10.124c-0.161,0-0.258,0.097-0.258,0.258v4.224h-2.611v-6.48
			c0-0.323,0.161-0.484,0.483-0.484h12.51v-1.354h-10.704v-2.354h24.085v2.354h-10.77v1.354h11.607l2.257,1.128
			c-0.032,1.677-0.387,3.676-1.096,5.965l-2.516-0.742c0.484-1.708,0.678-2.837,0.678-3.385c0-0.258,0-0.483-0.322-0.483h-10.608
			v6.803h-2.611V166.857z M497.784,184.88H487.08c-0.226,0-0.322-0.129-0.322-0.354v-9.382c0-0.226,0.097-0.323,0.322-0.323h23.858
			c0.227,0,0.355,0.097,0.355,0.323v9.382c0,0.226-0.129,0.354-0.355,0.354h-10.543c0,0.451,0,1.548,1.419,1.677h9.027
			c0.227,0,0.484-0.097,0.742-0.291c0.064-0.064,0.193-0.806,0.29-2.16l2.45,0.613c-0.226,2.031-0.451,3.127-0.612,3.321
			c-0.613,0.645-1.226,1-1.806,1h-11.575c-1.192-0.064-2.547-1.193-2.547-2.579V184.88z M488.563,171.371h7.995v2.096h-7.995
			V171.371z M488.692,168.083h7.866v2.128h-7.866V168.083z M497.784,178.787v-1.709h-8.447c-0.097,0-0.129,0.033-0.097,0.097v1.612
			H497.784z M497.784,182.656v-1.741h-8.544v1.612l0.097,0.129H497.784z M500.396,177.078v1.709h8.383v-1.612l-0.097-0.097H500.396z
			 M500.396,180.915v1.741h8.286l0.097-0.129v-1.612H500.396z M502.04,168.083h7.867v2.128h-7.867V168.083z M502.04,171.371h8.093
			v2.096h-8.093V171.371z"/>
		<path fill="#FFFFFF" d="M518.283,186.976c6.964-4.127,10.769-10.898,11.252-20.248h-10.221v-2.74h10.35v-4.191h2.999v4.159h12.929
			c0.773,0.161,1.063,0.226,1.063,1.58l-0.129,12.059c-0.161,5.868-1.257,9.479-3.224,10.769c-0.839,0.548-1.999,0.838-3.515,0.838
			c-1.741,0-3.901-0.387-6.545-1.128l-0.097-3.353c2.676,0.903,4.804,1.322,6.319,1.322c2.096,0,2.805-0.677,3.579-2.805
			c0.387-1.225,0.612-3.224,0.677-6.029c0.064-3.095,0.097-5.481,0.097-7.19c0-1.87-0.032-2.902-0.129-3.063
			c-0.064-0.161-0.193-0.226-0.354-0.226h-10.802c-0.258,3.482-1.063,7.093-2.45,10.833c-2.096,4.74-5.287,8.576-9.575,11.542
			L518.283,186.976z"/>
		<path fill="#FFFFFF" d="M556.771,175.659l-4.224,0.581c-0.129-0.709-0.322-1.516-0.678-2.386l2.677-0.419l2.16-2.837
			c-1.58-1.418-3.16-2.579-4.805-3.417l1.129-2.192l1.29,0.709c0.967-1.773,1.902-3.804,2.772-5.964l2.192,1.161
			c-0.612,1.58-1.677,3.611-3.095,6.158l1.805,1.451c0.968-1.741,1.645-3.417,2.096-5.094l2.419,0.645
			c-0.581,2.386-2.192,5.352-4.901,8.898l2.773-0.451l-0.517-1.709l2.257-0.548c0.71,2.128,1.258,4.063,1.58,5.739l-2.289,0.387
			l-0.322-1.387l-1.709,0.291v14.025h-2.611V175.659z M552.161,187.266c0.483-2.579,0.87-5.771,1.063-9.479l2.418,0.322
			c-0.129,3.225-0.516,6.449-1.063,9.673L552.161,187.266z M561.188,184.429c-0.193-1.87-0.548-3.998-1.032-6.223l2.322-0.355
			l1.031,6.416L561.188,184.429z M564.251,175.981h4.708l1.321,0.806c-1.031,3.934-2.289,6.48-5.932,10.833l-1.967-1.838
			c3.739-3.385,4.997-6.513,4.997-6.9c0-0.29-0.161-0.419-0.451-0.419h-2.677V175.981z M573.795,173.725
			c0.483,1.87,1.064,3.515,1.645,4.869c1.741-1.322,3.095-2.547,4.063-3.611l1.773,1.999c-1.161,1.258-2.677,2.58-4.514,3.966
			c1.192,1.838,2.934,3.805,5.158,5.804l-2.386,1.483c-2.386-2.354-4.417-5.062-6.029-8.093v6.449c0,0.903-0.419,3.063-3.192,3.063
			c-0.967,0-2.225-0.194-3.771-0.613l0.064-2.708c1.418,0.419,2.515,0.645,3.191,0.645s1.097-0.161,1.097-1.064v-12.188h-6.643
			c-0.226,0-0.354-0.129-0.354-0.354v-10.833c0-0.226,0.129-0.354,0.354-0.354h5.353c0.419-1.032,0.741-1.902,0.902-2.612
			l2.612,0.903l-0.516,1.709h7.383c0.258,0,0.387,0.129,0.387,0.354v10.833c0,0.226-0.129,0.354-0.387,0.354H573.795z
			 M566.379,166.825h11.479v-2.193l-0.097-0.097h-11.284c-0.098,0-0.13,0.032-0.098,0.097V166.825z M577.857,169.211h-11.479v2.031
			l0.098,0.129h11.284l0.097-0.129V169.211z"/>
		<path fill="#FFFFFF" d="M594.358,167.405h2.611v8.479h8.125v2.483h-8.125v8.544h-2.611v-8.544h-8.157v-2.483h8.157V167.405z"/>
		<path fill="#FFFFFF" d="M617.792,169.662c-0.064,0.161-0.064,0.323-0.064,0.452c0,0.226,0.032,0.451,0.161,0.612
			c0.773,1.064,2.901,3.966,2.901,7.674c0,0.709-0.129,1.547-0.935,2.837c-1.161,1.418-2.225,1.708-3.74,1.708
			c-0.936,0-1.935-0.161-3.031-0.483v6.964h-2.74V160.86l0.097-0.323l0.29-0.064h7.738l1.806,1.161L617.792,169.662z
			 M617.082,163.601c0.032-0.097,0.064-0.193,0.064-0.29c0-0.354-0.322-0.354-0.58-0.354h-3.257l-0.161,0.064l-0.064,0.161v16.347
			c0.871,0.516,1.741,0.774,2.612,0.774c0.967,0,2.321-0.226,2.321-2.386c0-1.612-1.032-4.03-3.096-7.254
			c0-0.097,0-0.129,0.064-0.29L617.082,163.601z M626.368,173.048c-0.451,7.287-2.87,12.8-7.223,16.411l-2.386-1.966l0.258-0.162
			c4.32-3.224,6.545-8.512,6.675-15.798v-4.804h-3.354v-2.74h7.642v-4.32h2.74v4.32h8.189v2.74h-12.478v3.547h10.801l0.548,0.129
			l0.322,0.387l0.065,6.158c-0.13,5.159-0.484,8.416-1.129,9.673c-1.226,2.579-3.225,2.837-4.61,2.837
			c-1.516,0-3.45-0.387-5.771-1.128v-3.192c2.225,0.903,3.998,1.354,5.256,1.354c0.58,0,1.063-0.064,1.418-0.258
			c1.773-0.935,1.999-3.321,2.063-5.771c0.064-2.16,0.129-3.837,0.129-5.03c0-2.192-0.129-2.386-0.483-2.386H626.368z"/>
		<path fill="#FFFFFF" d="M656.217,185.267c-1.097-1.322-2.418-2.74-3.934-4.256v8.415h-2.611v-8.06
			c-1.483,1.999-3.063,3.611-4.676,4.804l-2.096-1.838c2.387-1.676,4.354-3.772,5.836-6.125h-5.48v-2.483h6.416v-1.838h2.611v1.838
			h5.965v2.483h-5.417c1.838,1.612,3.611,3.289,5.288,5.062L656.217,185.267z M646.898,171.274
			c-0.612,0.903-1.321,1.838-2.192,2.708c-0.58-0.773-1.192-1.386-1.741-1.773c1.709-1.709,3.031-3.966,3.837-6.61l2.418,1.032
			l-1.16,2.58l2.418,2.45l-1.87,1.773L646.898,171.274z M649.414,162.375v-2.482h2.611v2.482h5.997v2.483h-14.67v-2.483H649.414z
			 M653.863,171.564l-1.451,2.128c-0.677-0.742-1.322-1.29-1.935-1.612c1.451-1.806,2.418-3.934,2.869-6.255l2.516,0.773l-1,2.837
			l2.935,2.612l-1.806,1.902L653.863,171.564z M668.34,181.721v4.836h4.707v2.482H660.73c-0.612,0-0.935-0.322-0.935-0.935v-18.539
			l-1.226,1.741c-0.645-0.742-1.322-1.29-1.902-1.612c2.192-2.74,3.74-6.094,4.481-10.027l2.515,0.741
			c-0.387,1.548-0.935,3.127-1.547,4.74h4.256c0.935-2.192,1.548-3.966,1.902-5.417l2.354,0.741
			c-0.29,1.387-0.774,2.934-1.516,4.675h4.063l-0.226,2.482h-4.61v4.546h4.546v2.515h-4.546v4.546h4.417v2.482H668.34z
			 M662.278,172.177h3.579v-4.546h-3.225c-0.226,0-0.354,0.129-0.354,0.355V172.177z M662.278,179.238h3.579v-4.546h-3.579V179.238z
			 M665.857,181.721h-3.579v4.449c0,0.258,0.129,0.387,0.354,0.387h3.225V181.721z"/>
		<path fill="#FFFFFF" d="M677.198,164.955h12.123v2.611h-12.123V164.955z M680.97,187.524v1.128h-2.611v-10.737
			c0-0.516,0.258-0.806,0.807-0.806h8.254c0.548,0,0.838,0.29,0.838,0.806v8.738c0,0.58-0.29,0.871-0.87,0.871H680.97z
			 M678.713,169.05h8.996v2.482h-8.996V169.05z M678.713,173.08h8.996v2.482h-8.996V173.08z M678.842,160.796h8.738v2.611h-8.738
			V160.796z M685.646,180.012c0-0.29-0.161-0.419-0.419-0.419h-3.869c-0.258,0-0.388,0.129-0.388,0.419v5.03h4.159
			c0.323,0,0.517-0.193,0.517-0.548V180.012z M693.157,173.757v-10.285h-3.385v-2.74h12.091c0.483-0.064,0.935,0.032,0.935,0.516
			c-0.032,2.644-0.032,5.062-0.032,7.287c0,9.35,0.258,14.832,0.838,16.411c0.064,0.193,0.194,0.322,0.42,0.322
			c0.097,0,0.161,0,0.161-0.354l0.064-3.869l2.708,0.548c-0.258,4.707-0.838,7.964-2.869,7.964c-0.581,0-1.064-0.194-1.451-0.613
			l-0.709-1.096c-1.258-2.515-1.87-9.35-1.87-20.441c0-0.516,0.064-3.031,0.064-3.579c0-0.194-0.129-0.291-0.419-0.355h-3.805v9.512
			l2.579-0.903l0.902,2.579c-0.741,0.322-1.967,0.742-3.578,1.225l-0.678,4.675c-0.87,3.869-2.096,6.738-3.61,8.512l-2.806-0.903
			c2.579-3.482,4.03-7.351,4.353-11.575l-3.546,0.806l-0.839-2.644L693.157,173.757z"/>
		<path fill="#FFFFFF" d="M718.847,169.469c-0.129,0.354-0.161,0.677-0.161,0.903c0,0.161,0,0.29,0.064,0.354
			c1.387,2.547,2.128,4.836,2.128,7.254c0,1.548-0.354,2.773-1.063,3.644c-0.871,1.032-1.58,1.193-2.676,1.193
			c-0.839,0-1.773-0.161-2.773-0.516v6.996h-2.482v-28.598l0.097-0.291l0.258-0.064h6.9l1.805,1.128L718.847,169.469z
			 M717.815,163.536c0.032-0.129,0.064-0.226,0.064-0.322c0-0.29-0.226-0.419-0.645-0.387h-2.645l-0.161,0.064l-0.064,0.161v16.476
			c0.807,0.58,1.612,0.871,2.354,0.871c0.742,0,1-0.226,1.161-0.484c0.419-0.612,0.548-1.451,0.548-2.192
			c0-1.967-1.096-4.61-2.386-7.416L717.815,163.536z M731.776,175.305h-2.192l-0.129,1.064c-0.388,1.902-1.806,3.417-4.256,4.481
			l-1.064-1.451v9.737h-2.611v-15.702c0-0.387,0.226-0.613,0.612-0.613h16.83c0.419,0,0.645,0.226,0.645,0.613v13.09
			c0,0.612-0.161,2.901-3.32,2.901c-0.774,0-1.741-0.129-2.87-0.354v-2.902c1.097,0.419,1.902,0.581,2.419,0.581
			c0.741,0,1.16-0.709,1.16-1.29v-5.062h-4.191c-0.677,0-1.031-0.323-1.031-1.064V175.305z M722.007,160.603h17.313v2.482h-17.313
			V160.603z M738.096,170.855c0,0.226-0.129,0.355-0.322,0.355h-14.444c-0.194,0-0.291-0.129-0.291-0.355v-5.835
			c0-0.226,0.097-0.323,0.291-0.323h14.444c0.193,0,0.322,0.097,0.322,0.323V170.855z M724.135,178.851
			c1.741-0.742,2.805-1.547,3.095-2.386l0.13-1.161h-3.031c-0.129,0-0.193,0.064-0.193,0.193V178.851z M729.261,183.945h-3.707
			v-2.386h10.092v2.386h-3.901v4.579h-2.483V183.945z M735.354,166.793h-9.607c-0.097,0-0.129,0.032-0.097,0.097v2.096l0.097,0.129
			h9.607l0.129-0.129v-2.096L735.354,166.793z M734.001,177.723c0,0.387,0.193,0.581,0.612,0.581h2.386v-2.805
			c0-0.129-0.064-0.193-0.226-0.193h-2.772V177.723z"/>
		<path fill="#FFFFFF" d="M770.265,181.721v4.836h4.224v2.482h-11.607c-0.58,0-0.902-0.322-0.902-0.935v-18.797l-0.936,1.354
			c-0.58-0.612-1.128-1.064-1.611-1.354v4.03c0,0.677-0.354,1.032-1.064,1.032h-4.804l-0.322,1.483h6.094
			c0.387,0,0.58,0.193,0.58,0.548v10.414c0,0.903-0.29,2.837-3.354,2.837c-0.806,0-1.741-0.129-2.805-0.355l-0.064-2.772
			c1.128,0.354,1.967,0.548,2.515,0.548c0.871,0,1.226-0.742,1.226-1.257v-7.544c0-0.129-0.064-0.194-0.226-0.194h-4.45
			l-1.321,4.611l2.579-0.484l-0.935-2.482l2.128-0.677c0.87,2.386,1.547,4.45,1.967,6.158l-2.128,0.484l-0.355-1.257l-6.126,1.257
			l-0.967-2.321l1.226-0.226l1.45-5.062h-2.644c-0.097,0-0.161,0.064-0.161,0.194v11.123h-2.515v-12.993
			c0-0.355,0.193-0.548,0.58-0.548h5.256l0.322-1.483h-4.644c-0.645,0-0.999-0.355-0.999-1.032v-8.093h2.225v6.642
			c0,0.226,0.129,0.355,0.354,0.355h8.77c0.227,0,0.355-0.129,0.355-0.355v-6.642h2.257v3.385c1.773-2.45,2.998-5.481,3.643-8.963
			l2.516,0.709c-0.42,1.548-0.903,3.16-1.548,4.772h4.224c0.838-2.16,1.354-3.934,1.612-5.384l2.418,0.677
			c-0.258,1.387-0.677,2.966-1.322,4.708h3.611l-0.193,2.482h-4.127v4.546h3.901v2.515h-3.901v4.546h3.901v2.482H770.265z
			 M751.081,161.473v-1.805h2.611v1.805h5.997v2.483h-14.541v-2.483H751.081z M752.821,169.63c-1.096,0.838-2.257,1.548-3.514,2.16
			c-0.226-0.838-0.516-1.451-0.871-1.935c1-0.483,1.902-0.967,2.709-1.547l-2.612-1.87l1.419-1.741l2.901,2.193
			c0.71-0.677,1.451-1.516,2.161-2.451l1.644,1.516l-2.225,2.257l2.128,1.806l-1.515,1.612L752.821,169.63z M764.461,172.177h3.321
			v-4.546h-2.967c-0.226,0-0.354,0.129-0.354,0.355V172.177z M764.461,179.238h3.321v-4.546h-3.321V179.238z M767.782,181.721
			h-3.321v4.449c0,0.258,0.129,0.387,0.354,0.387h2.967V181.721z"/>
	</g>
</g>
<g>
	<path fill="#023148" stroke="#FFFFFF" stroke-width="2" stroke-miterlimit="10" d="M189.789,88.048
		c1.48,10.837-6.107,20.822-16.945,22.3l-38.114,5.2c-10.836,1.479-20.821-6.106-22.302-16.945l0,0
		c-1.477-10.838,6.11-20.823,16.948-22.301l38.114-5.201C178.326,69.622,188.312,77.211,189.789,88.048L189.789,88.048z"/>
	<circle fill="#023148" stroke="#FFFFFF" stroke-width="2" stroke-miterlimit="10" cx="134.253" cy="95.626" r="16.117"/>
	<circle fill="#023148" stroke="#FFFFFF" stroke-width="2" stroke-miterlimit="10" cx="167.611" cy="91.075" r="16.117"/>
	<circle fill="#FFFFFF" cx="134.254" cy="95.628" r="9.133"/>
	<circle fill="#FFFFFF" cx="168.145" cy="91.003" r="9.133"/>
	<circle fill="#023148" stroke="#FFFFFF" stroke-width="2" stroke-miterlimit="10" cx="149.093" cy="79.866" r="4.298"/>
</g>
<g>
	<path fill="#023148" stroke="#FFFFFF" stroke-width="2" stroke-miterlimit="10" d="M205.784,180.807
		c-10.937,0.117-19.898-8.656-20.014-19.594l-0.409-38.464c-0.116-10.938,8.656-19.9,19.593-20.016l0,0
		c10.939-0.116,19.9,8.659,20.016,19.596l0.408,38.464C225.495,171.73,216.722,180.693,205.784,180.807L205.784,180.807z"/>
	<circle fill="#023148" stroke="#FFFFFF" stroke-width="2" stroke-miterlimit="10" cx="205.188" cy="124.76" r="16.118"/>
	<circle fill="#023148" stroke="#FFFFFF" stroke-width="2" stroke-miterlimit="10" cx="205.546" cy="158.425" r="16.117"/>
	<circle fill="#FFFFFF" cx="205.188" cy="124.76" r="9.133"/>
	<circle fill="#FFFFFF" cx="205.551" cy="158.963" r="9.134"/>
	<circle fill="#023148" stroke="#FFFFFF" stroke-width="2" stroke-miterlimit="10" cx="218.977" cy="141.448" r="4.298"/>
</g>
<g>
	<path fill="#023148" stroke="#FFFFFF" stroke-width="2" stroke-miterlimit="10" d="M145.346,153.211
		c8.924-6.324,21.285-4.215,27.61,4.709l22.241,31.387c6.323,8.924,4.214,21.287-4.709,27.609l0,0
		c-8.925,6.326-21.288,4.217-27.611-4.708l-22.24-31.385C134.313,171.898,136.419,159.537,145.346,153.211L145.346,153.211z"/>
	<circle fill="#023148" stroke="#FFFFFF" stroke-width="2" stroke-miterlimit="10" cx="177.753" cy="198.944" r="16.118"/>
	<circle fill="#023148" stroke="#FFFFFF" stroke-width="2" stroke-miterlimit="10" cx="158.288" cy="171.474" r="16.117"/>
	<circle fill="#FFFFFF" cx="177.754" cy="198.944" r="9.133"/>
	<circle fill="#FFFFFF" cx="157.977" cy="171.037" r="9.133"/>
	<circle fill="#023148" stroke="#FFFFFF" stroke-width="2" stroke-miterlimit="10" cx="156.916" cy="193.079" r="4.298"/>
</g>
<g>
	<path fill="#023148" stroke="#FFFFFF" stroke-width="2" stroke-miterlimit="10" d="M135.243,121.742
		c9.329,5.709,12.265,17.902,6.555,27.231l-20.08,32.812c-5.711,9.33-17.901,12.264-27.231,6.556l0,0
		c-9.331-5.71-12.265-17.902-6.556-27.231l20.08-32.812C113.721,118.968,125.913,116.033,135.243,121.742L135.243,121.742z"/>
	<circle fill="#023148" stroke="#FFFFFF" stroke-width="2" stroke-miterlimit="10" cx="105.987" cy="169.553" r="16.118"/>
	<circle fill="#023148" stroke="#FFFFFF" stroke-width="2" stroke-miterlimit="10" cx="123.561" cy="140.835" r="16.117"/>
	<circle fill="#FFFFFF" cx="105.987" cy="169.552" r="9.133"/>
	<circle fill="#FFFFFF" cx="123.842" cy="140.377" r="9.134"/>
	<circle fill="#023148" stroke="#FFFFFF" stroke-width="2" stroke-miterlimit="10" cx="103.165" cy="148.089" r="4.299"/>
</g>
<g>
	<circle fill="#023148" stroke="#FFFFFF" stroke-width="2" stroke-miterlimit="10" cx="164.578" cy="130.75" r="16.117"/>
	<circle fill="#FFFFFF" cx="164.573" cy="130.213" r="9.133"/>
</g>
<line fill="none" stroke="#FFF000" stroke-width="2" stroke-miterlimit="10" x1="189.681" y1="174.442" x2="334.919" y2="174.446"/>
</svg>
