<?xml version="1.0" encoding="UTF-8"?>
<svg xmlns="http://www.w3.org/2000/svg" xmlns:xlink="http://www.w3.org/1999/xlink" width="315pt" height="207pt" viewBox="0 0 315 207" version="1.1">
<g id="surface1">
<path style=" stroke:none;fill-rule:nonzero;fill:rgb(0%,30.196078%,62.745098%);fill-opacity:1;" d="M 131.253906 150.5625 L 152.777344 172.125 L 157.554688 176.90625 L 162.347656 172.125 L 183.609375 150.5625 L 183.609375 129.675781 L 204.730469 129.675781 L 206.0625 128.339844 L 224.40625 110.117188 L 231.050781 103.46875 L 230.117188 102.523438 L 224.132812 96.542969 L 205.917969 78.320312 L 204.730469 77.113281 L 183.609375 77.113281 L 183.609375 55.941406 L 157.554688 29.734375 L 131.253906 55.941406 L 131.253906 77.113281 L 110.257812 77.113281 L 109.050781 78.320312 L 90.855469 96.542969 L 84.875 102.523438 L 83.949219 103.46875 L 90.574219 110.117188 L 108.925781 128.339844 L 110.257812 129.675781 L 131.253906 129.675781 Z M 149.589844 63.664062 L 157.554688 55.699219 L 165.402344 63.664062 L 165.402344 77.113281 L 149.589844 77.113281 Z M 149.589844 110.117188 L 149.589844 95.472656 L 165.402344 95.472656 L 165.402344 111.160156 L 149.589844 111.160156 Z M 204.195312 102.523438 L 205.132812 103.46875 L 198.214844 110.117188 L 197.15625 111.160156 L 183.609375 111.160156 L 183.609375 95.472656 L 197.15625 95.472656 L 198.214844 96.542969 Z M 109.851562 103.46875 L 110.804688 102.523438 L 116.765625 96.542969 L 117.816406 95.472656 L 131.253906 95.472656 L 131.253906 111.160156 L 117.816406 111.160156 L 116.765625 110.117188 Z M 149.589844 129.675781 L 165.402344 129.675781 L 165.402344 142.976562 L 157.554688 150.964844 L 149.589844 142.976562 Z M 149.589844 129.675781 "/>
<path style=" stroke:none;fill-rule:nonzero;fill:rgb(0%,30.196078%,62.745098%);fill-opacity:1;" d="M 315 109.636719 C 280.453125 109.839844 250.054688 127.320312 232.082031 153.996094 C 215.90625 177.945312 188.539062 193.585938 157.496094 193.585938 C 126.449219 193.585938 99.082031 177.945312 82.929688 153.996094 C 64.925781 127.320312 34.527344 109.839844 0 109.636719 L 0 120.457031 C 30.957031 120.640625 58.273438 136.503906 74.292969 160.5 C 92.140625 187.203125 122.988281 204.382812 157.496094 204.382812 C 192 204.382812 222.851562 187.203125 240.6875 160.5 C 256.726562 136.503906 284.042969 120.640625 315 120.457031 "/>
<path style=" stroke:none;fill-rule:nonzero;fill:rgb(0%,30.196078%,62.745098%);fill-opacity:1;" d="M 315 86.535156 C 284.042969 86.328125 256.726562 70.484375 240.6875 46.480469 C 222.851562 19.777344 192 2.617188 157.496094 2.617188 C 122.988281 2.617188 92.140625 19.777344 74.292969 46.480469 C 58.273438 70.484375 30.957031 86.328125 0 86.535156 L 0 97.335938 C 34.527344 97.128906 64.925781 79.667969 82.929688 53.003906 C 99.082031 29.027344 126.449219 13.414062 157.496094 13.414062 C 188.539062 13.414062 215.90625 29.027344 232.082031 53.003906 C 250.054688 79.667969 280.453125 97.128906 315 97.335938 "/>
</g>
</svg>
