<?xml version="1.0" encoding="utf-8"?>
<!-- Generator: Adobe Illustrator 16.0.0, SVG Export Plug-In . SVG Version: 6.00 Build 0)  -->
<!DOCTYPE svg PUBLIC "-//W3C//DTD SVG 1.1//EN" "http://www.w3.org/Graphics/SVG/1.1/DTD/svg11.dtd">
<svg version="1.1" xmlns="http://www.w3.org/2000/svg" xmlns:xlink="http://www.w3.org/1999/xlink" x="0px" y="0px" width="320px"
	 height="320px" viewBox="0 0 320 320" enable-background="new 0 0 320 320" xml:space="preserve">
<g id="矽膠線">
	
		<text transform="matrix(1 0 0 1 57.7539 356.5293)" display="none" fill="#231815" font-family="'MicrosoftYaHei'" font-size="41.1597">矽膠線系列</text>
	<path fill="none" stroke="#000000" stroke-width="2" stroke-miterlimit="10" d="M257.736,264.643
		c0.992,0.998,2.145,1.452,2.574,1.018l6.083-6.077c0.428-0.429-0.035-1.58-1.025-2.571l-52.106-52.109l-7.638,7.633
		L257.736,264.643z"/>
	<path d="M54.283,80.222c-1.507-1.506-1.5-3.942,0-5.447L75.5,53.557c1.507-1.503,3.945-1.506,5.452,0l139.104,139.106
		c1.507,1.503,1.497,3.942,0,5.445l-21.22,21.218c-1.507,1.505-3.943,1.507-5.445,0.001L54.283,80.222z"/>
	
		<text transform="matrix(1 0 0 1 148.9385 163.748)" fill="#717071" stroke="#FFFFFF" stroke-width="3" stroke-miterlimit="10" font-family="'Adobe Fan Heiti Std', Helvetica, Arial, Verdana, sans-serif" font-size="72.0295">S</text>
	
		<rect x="0.737" y="23.165" display="none" fill="none" stroke="#000000" stroke-miterlimit="10" width="318.526" height="368.485"/>
</g>
</svg>
