<?xml version="1.0" encoding="utf-8"?>
<!-- Generator: Adobe Illustrator 16.0.0, SVG Export Plug-In . SVG Version: 6.00 Build 0)  -->
<!DOCTYPE svg PUBLIC "-//W3C//DTD SVG 1.1//EN" "http://www.w3.org/Graphics/SVG/1.1/DTD/svg11.dtd">
<svg version="1.1" id="圖層_1" xmlns="http://www.w3.org/2000/svg" xmlns:xlink="http://www.w3.org/1999/xlink" x="0px" y="0px"
	 width="320px" height="320px" viewBox="0 0 320 320" enable-background="new 0 0 320 320" xml:space="preserve">
<polygon fill="none" stroke="#000000" stroke-width="2" stroke-miterlimit="10" points="211.395,198.75 51.377,198.75 
	106.341,79.779 266.359,79.779 "/>
<path fill="none" stroke="#000000" stroke-width="2" stroke-miterlimit="10" d="M110.34,99.862c0,0,8.085,0.258,15.399-9.915
	c9.126,0,104.359,0,104.359,0s0.516,10.695,10.43,9.915c-5.211,9.132-32.351,71.753-32.351,71.753s-10.952-1.312-14.61,12.26
	c-28.953,0-112.188,0-112.188,0s1.045-10.438-4.174-11.217C91.813,139.78,110.34,99.862,110.34,99.862z"/>
<line fill="none" stroke="#000000" stroke-width="2" stroke-miterlimit="10" x1="50.5" y1="217.614" x2="50.5" y2="241.914"/>
<line fill="none" stroke="#000000" stroke-width="2" stroke-miterlimit="10" x1="63.269" y1="217.614" x2="63.269" y2="241.914"/>
<line fill="none" stroke="#000000" stroke-width="2" stroke-miterlimit="10" x1="76.039" y1="217.614" x2="76.039" y2="241.914"/>
<line fill="none" stroke="#000000" stroke-width="2" stroke-miterlimit="10" x1="88.808" y1="217.614" x2="88.808" y2="241.914"/>
<line fill="none" stroke="#000000" stroke-width="2" stroke-miterlimit="10" x1="101.577" y1="217.614" x2="101.577" y2="241.914"/>
<line fill="none" stroke="#000000" stroke-width="2" stroke-miterlimit="10" x1="114.346" y1="217.614" x2="114.346" y2="241.914"/>
<line fill="none" stroke="#000000" stroke-width="2" stroke-miterlimit="10" x1="127.115" y1="217.614" x2="127.115" y2="241.914"/>
<line fill="none" stroke="#000000" stroke-width="2" stroke-miterlimit="10" x1="139.885" y1="217.614" x2="139.885" y2="241.914"/>
<line fill="none" stroke="#000000" stroke-width="2" stroke-miterlimit="10" x1="152.654" y1="217.614" x2="152.654" y2="241.914"/>
<line fill="none" stroke="#000000" stroke-width="2" stroke-miterlimit="10" x1="165.423" y1="217.614" x2="165.423" y2="241.914"/>
<line fill="none" stroke="#000000" stroke-width="2" stroke-miterlimit="10" x1="178.192" y1="217.614" x2="178.192" y2="241.914"/>
<line fill="none" stroke="#000000" stroke-width="2" stroke-miterlimit="10" x1="190.962" y1="217.614" x2="190.962" y2="241.914"/>
<line fill="none" stroke="#000000" stroke-width="2" stroke-miterlimit="10" x1="203.73" y1="217.614" x2="203.73" y2="241.914"/>
<line fill="none" stroke="#000000" stroke-width="2" stroke-miterlimit="10" x1="216.5" y1="217.614" x2="216.5" y2="241.914"/>
<line fill="none" stroke="#000000" stroke-width="1.8274" stroke-miterlimit="10" x1="224" y1="205.464" x2="224" y2="225.75"/>
<line fill="none" stroke="#000000" stroke-width="1.8274" stroke-miterlimit="10" x1="230.5" y1="192.089" x2="230.5" y2="212.375"/>
<line fill="none" stroke="#000000" stroke-width="1.8274" stroke-miterlimit="10" x1="236.125" y1="180.589" x2="236.125" y2="200.875"/>
<line fill="none" stroke="#000000" stroke-width="1.8274" stroke-miterlimit="10" x1="242.375" y1="166.964" x2="242.375" y2="187.25"/>
<line fill="none" stroke="#000000" stroke-width="1.8274" stroke-miterlimit="10" x1="248.125" y1="154.964" x2="248.125" y2="175.25"/>
<line fill="none" stroke="#000000" stroke-width="1.8274" stroke-miterlimit="10" x1="254.125" y1="141.964" x2="254.125" y2="162.25"/>
<line fill="none" stroke="#000000" stroke-width="1.8274" stroke-miterlimit="10" x1="259.25" y1="130.339" x2="259.25" y2="150.625"/>
<line fill="none" stroke="#000000" stroke-width="1.8274" stroke-miterlimit="10" x1="264.375" y1="118.979" x2="264.375" y2="139.265"/>
<line fill="none" stroke="#000000" stroke-width="1.8274" stroke-miterlimit="10" x1="268.5" y1="110.053" x2="268.5" y2="130.339"/>
<path fill="none" stroke="#000000" stroke-width="1.796" stroke-miterlimit="10" d="M125.634,111.54c0,0,5.537,0.178,10.546-6.789
	c6.25,0,71.464,0,71.464,0s0.358,7.322,7.146,6.789c-3.573,6.253-22.155,49.138-22.155,49.138s-7.497-0.895-10.006,8.396
	c-19.828,0-76.826,0-76.826,0s0.713-7.147-2.858-7.683C112.946,138.875,125.634,111.54,125.634,111.54z"/>
<path fill="none" stroke="#000000" stroke-width="2" stroke-miterlimit="10" d="M121.859,108.657c0,0,6.166,0.199,11.744-7.56
	c6.96,0,79.583,0,79.583,0s0.398,8.154,7.957,7.56c-3.979,6.964-24.672,54.72-24.672,54.72s-8.349-0.996-11.143,9.35
	c-22.08,0-85.553,0-85.553,0s0.794-7.959-3.183-8.556C107.73,139.098,121.859,108.657,121.859,108.657z"/>
<polyline fill="none" stroke="#000000" stroke-width="2" stroke-miterlimit="10" points="50.5,201.5 50.5,213.833 216.833,213.833 
	266.359,106.167 266.359,79.779 "/>
</svg>
