<?xml version="1.0" encoding="utf-8"?>
<!-- Generator: Adobe Illustrator 16.0.0, SVG Export Plug-In . SVG Version: 6.00 Build 0)  -->
<!DOCTYPE svg PUBLIC "-//W3C//DTD SVG 1.1//EN" "http://www.w3.org/Graphics/SVG/1.1/DTD/svg11.dtd">
<svg version="1.1" xmlns="http://www.w3.org/2000/svg" xmlns:xlink="http://www.w3.org/1999/xlink" x="0px" y="0px" width="320px"
	 height="370px" viewBox="0 0 320 370" enable-background="new 0 0 320 370" xml:space="preserve">
<g id="矽膠編織線">
	<g>
		<path fill="none" stroke="#000000" stroke-width="2" stroke-miterlimit="10" d="M258.521,241.478
			c0.998,0.99,2.151,1.452,2.58,1.018l6.074-6.077c0.43-0.429-0.025-1.58-1.018-2.571l-52.106-52.113l-7.636,7.636L258.521,241.478z
			"/>
		<path fill="none" stroke="#000000" stroke-width="2" stroke-miterlimit="10" d="M55.074,57.057
			c-1.506-1.506-1.505-3.945-0.003-5.447l21.22-21.219c1.505-1.502,3.941-1.506,5.447,0.001l139.108,139.106
			c1.5,1.503,1.5,3.942,0,5.444l-21.222,21.219c-1.504,1.505-3.942,1.505-5.446,0L55.074,57.057z"/>
		<g>
			<defs>
				<path id="SVGID_1_" d="M55.071,57.058c-1.505-1.507-1.503-3.943-0.001-5.444l21.221-21.223c1.502-1.501,3.939-1.505,5.447,0.003
					l139.108,139.104c1.5,1.503,1.5,3.942,0,5.443l-21.225,21.223c-1.501,1.501-3.939,1.503-5.443-0.003L55.071,57.058z"/>
			</defs>
			<clipPath id="SVGID_2_">
				<use xlink:href="#SVGID_1_"  overflow="visible"/>
			</clipPath>
			<g clip-path="url(#SVGID_2_)">
				<rect x="42.516" y="28.203" fill="none" stroke="#000000" stroke-miterlimit="10" width="181.15" height="169.204"/>
				<line fill="none" stroke="#000000" stroke-miterlimit="10" x1="62.639" y1="28.202" x2="62.638" y2="197.407"/>
				<line fill="none" stroke="#000000" stroke-miterlimit="10" x1="82.763" y1="28.202" x2="82.763" y2="197.409"/>
				<line fill="none" stroke="#000000" stroke-miterlimit="10" x1="102.885" y1="28.202" x2="102.884" y2="197.407"/>
				<line fill="none" stroke="#000000" stroke-miterlimit="10" x1="123.008" y1="28.202" x2="123.01" y2="197.405"/>
				<line fill="none" stroke="#000000" stroke-miterlimit="10" x1="143.173" y1="28.202" x2="143.173" y2="197.409"/>
				<line fill="none" stroke="#000000" stroke-miterlimit="10" x1="163.298" y1="28.202" x2="163.298" y2="197.409"/>
				<line fill="none" stroke="#000000" stroke-miterlimit="10" x1="183.423" y1="28.202" x2="183.419" y2="197.409"/>
				<line fill="none" stroke="#000000" stroke-miterlimit="10" x1="203.541" y1="28.202" x2="203.549" y2="197.405"/>
				<line fill="none" stroke="#000000" stroke-miterlimit="10" x1="223.666" y1="178.612" x2="42.516" y2="178.611"/>
				<line fill="none" stroke="#000000" stroke-miterlimit="10" x1="223.666" y1="159.815" x2="42.517" y2="159.815"/>
				<line fill="none" stroke="#000000" stroke-miterlimit="10" x1="223.666" y1="141.02" x2="42.517" y2="141.02"/>
				<line fill="none" stroke="#000000" stroke-miterlimit="10" x1="223.666" y1="122.224" x2="42.517" y2="122.223"/>
				<line fill="none" stroke="#000000" stroke-miterlimit="10" x1="223.666" y1="103.387" x2="42.513" y2="103.387"/>
				<line fill="none" stroke="#000000" stroke-miterlimit="10" x1="223.666" y1="84.59" x2="42.517" y2="84.591"/>
				<line fill="none" stroke="#000000" stroke-miterlimit="10" x1="223.666" y1="65.794" x2="42.517" y2="65.796"/>
				<line fill="none" stroke="#000000" stroke-miterlimit="10" x1="223.666" y1="46.996" x2="42.517" y2="46.999"/>
			</g>
			<use xlink:href="#SVGID_1_"  overflow="visible" fill="none" stroke="#000000" stroke-miterlimit="10"/>
		</g>
		<text transform="matrix(1 0 0 1 18.6987 333.3643)" fill="#231815" font-family="'MicrosoftYaHei'" font-size="41.1597">矽膠編織線系列</text>
		<rect x="1.475" display="none" fill="none" stroke="#000000" stroke-miterlimit="10" width="318.525" height="368.485"/>
	</g>
</g>
<g id="矽膠線" display="none">
	<g display="inline">
		<text transform="matrix(1 0 0 1 376.7412 333.3643)" fill="#231815" font-family="'MicrosoftYaHei'" font-size="41.1597">矽膠線系列</text>
		<path fill="none" stroke="#000000" stroke-width="2" stroke-miterlimit="10" d="M576.724,241.478
			c0.992,0.998,2.145,1.452,2.574,1.018l6.083-6.077c0.428-0.429-0.035-1.58-1.025-2.571l-52.106-52.11l-7.638,7.633
			L576.724,241.478z"/>
		<path d="M373.271,57.057c-1.507-1.506-1.5-3.942,0-5.447l21.217-21.218c1.507-1.503,3.945-1.506,5.452,0l139.104,139.106
			c1.507,1.503,1.497,3.942,0,5.445l-21.22,21.218c-1.507,1.505-3.943,1.507-5.445,0.001L373.271,57.057z"/>
		
			<text transform="matrix(1 0 0 1 467.9258 140.5825)" fill="#717071" stroke="#FFFFFF" stroke-miterlimit="10" font-family="'Arial-BoldMT'" font-size="72.0295">S</text>
		<rect x="319.725" fill="none" stroke="#000000" stroke-miterlimit="10" width="318.526" height="368.485"/>
	</g>
</g>
<g id="高溫線" display="none">
	<g display="inline">
		<g>
			<path fill="none" stroke="#231815" stroke-width="2" stroke-miterlimit="10" d="M886.146,241.483
				c0.993,0.992,2.149,1.446,2.579,1.018l6.076-6.083c0.428-0.429-0.026-1.58-1.018-2.571l-52.107-52.108l-7.637,7.632
				L886.146,241.483z"/>
			<path fill="none" stroke="#231815" stroke-miterlimit="10" d="M682.7,57.058c-1.507-1.507-1.507-3.943,0-5.448l21.214-21.219
				c1.508-1.502,3.938-1.505,5.446,0.001l139.11,139.106c1.5,1.503,1.5,3.942,0,5.444l-21.224,21.219
				c-1.503,1.505-3.938,1.507-5.445,0.001L682.7,57.058z"/>
			<g>
				<defs>
					<path id="SVGID_3_" d="M682.7,57.058c-1.507-1.507-1.507-3.941-0.01-5.443l21.224-21.224c1.503-1.501,3.938-1.505,5.446,0.003
						l139.11,139.104c1.5,1.503,1.5,3.942,0,5.443l-21.224,21.224c-1.503,1.502-3.938,1.502-5.445-0.004L682.7,57.058z"/>
				</defs>
				<clipPath id="SVGID_4_">
					<use xlink:href="#SVGID_3_"  overflow="visible"/>
				</clipPath>
				<g clip-path="url(#SVGID_4_)">
					<rect x="670.14" y="28.202" fill="none" stroke="#231815" stroke-miterlimit="10" width="181.151" height="169.208"/>
					<line fill="none" stroke="#231815" stroke-miterlimit="10" x1="690.261" y1="28.205" x2="690.261" y2="197.41"/>
					<line fill="none" stroke="#231815" stroke-miterlimit="10" x1="710.389" y1="28.202" x2="710.389" y2="197.41"/>
					<line fill="none" stroke="#231815" stroke-miterlimit="10" x1="730.51" y1="28.203" x2="730.506" y2="197.41"/>
					<line fill="none" stroke="#231815" stroke-miterlimit="10" x1="750.635" y1="28.202" x2="750.635" y2="197.405"/>
					<line fill="none" stroke="#231815" stroke-miterlimit="10" x1="770.799" y1="28.203" x2="770.799" y2="197.409"/>
					<line fill="none" stroke="#231815" stroke-miterlimit="10" x1="790.924" y1="28.202" x2="790.924" y2="197.409"/>
					<line fill="none" stroke="#231815" stroke-miterlimit="10" x1="811.048" y1="28.202" x2="811.048" y2="197.409"/>
					<line fill="none" stroke="#231815" stroke-miterlimit="10" x1="831.165" y1="28.202" x2="831.165" y2="197.409"/>
					<line fill="none" stroke="#231815" stroke-miterlimit="10" x1="851.291" y1="178.612" x2="670.14" y2="178.612"/>
					<line fill="none" stroke="#231815" stroke-miterlimit="10" x1="851.291" y1="159.815" x2="670.14" y2="159.818"/>
					<line fill="none" stroke="#231815" stroke-miterlimit="10" x1="851.291" y1="141.02" x2="670.14" y2="141.021"/>
					<line fill="none" stroke="#231815" stroke-miterlimit="10" x1="851.291" y1="122.224" x2="670.14" y2="122.227"/>
					<line fill="none" stroke="#231815" stroke-miterlimit="10" x1="851.291" y1="103.387" x2="670.14" y2="103.388"/>
					<line fill="none" stroke="#231815" stroke-miterlimit="10" x1="851.291" y1="84.59" x2="670.14" y2="84.594"/>
					<line fill="none" stroke="#231815" stroke-miterlimit="10" x1="851.291" y1="65.794" x2="670.14" y2="65.797"/>
					<line fill="none" stroke="#231815" stroke-miterlimit="10" x1="851.291" y1="46.996" x2="670.14" y2="47"/>
				</g>
				<use xlink:href="#SVGID_3_"  overflow="visible" fill="none" stroke="#231815" stroke-miterlimit="10"/>
			</g>
			<g>
				<defs>
					<path id="SVGID_5_" d="M683.61,57.972c-1.509-1.507-1.509-3.942,0-5.443l21.224-21.225c1.5-1.501,3.932-1.501,5.438,0.005
						L849.38,170.413c1.502,1.504,1.507,3.941,0.008,5.443l-21.231,21.224c-1.497,1.503-3.939,1.5-5.438-0.003L683.61,57.972z"/>
				</defs>
				<clipPath id="SVGID_6_">
					<use xlink:href="#SVGID_5_"  overflow="visible"/>
				</clipPath>
				<g clip-path="url(#SVGID_6_)">
					<polygon fill="none" stroke="#231815" stroke-width="4" stroke-miterlimit="10" points="852.207,29.116 852.207,198.325 
						671.048,198.325 671.056,29.12 					"/>
					
						<line fill="none" stroke="#231815" stroke-width="4" stroke-miterlimit="10" x1="711.305" y1="29.116" x2="711.297" y2="198.325"/>
					
						<line fill="none" stroke="#231815" stroke-width="4" stroke-miterlimit="10" x1="751.546" y1="29.116" x2="751.552" y2="198.318"/>
					
						<line fill="none" stroke="#231815" stroke-width="4" stroke-miterlimit="10" x1="791.835" y1="29.116" x2="791.835" y2="198.325"/>
					
						<line fill="none" stroke="#231815" stroke-width="4" stroke-miterlimit="10" x1="832.085" y1="29.116" x2="832.085" y2="198.325"/>
				</g>
				<use xlink:href="#SVGID_5_"  overflow="visible" fill="none" stroke="#231815" stroke-width="2" stroke-miterlimit="10"/>
			</g>
		</g>
		<text transform="matrix(1 0 0 1 694.3418 333.3643)" fill="#231815" font-family="'MicrosoftYaHei'" font-size="41.1597">高溫線系列</text>
		<rect x="638.826" y="0.388" fill="none" stroke="#000000" stroke-miterlimit="10" width="318.518" height="368.486"/>
	</g>
</g>
<g id="鐵氟龍線" display="none">
	<g display="inline">
		<text transform="matrix(1 0 0 1 992.4873 333.3643)" fill="#231815" font-family="'MicrosoftYaHei'" font-size="41.1597">鐵氟龍線系列</text>
		<g>
			<path fill="none" stroke="#231815" stroke-width="2" stroke-miterlimit="10" d="M1206.26,247.794
				c0.99,0.991,1.969,1.62,2.184,1.407l3.041-3.036c0.213-0.222-0.414-1.198-1.408-2.19l-52.111-52.104l-3.813,3.814
				L1206.26,247.794z"/>
			<path fill="none" stroke="#231815" stroke-width="2" stroke-miterlimit="10" d="M1007.561,58.615
				c-1.507-1.506-2.109-3.333-1.358-4.085l10.611-10.608c0.748-0.751,2.577-0.146,4.084,1.361l139.104,139.106
				c1.508,1.503,2.11,3.333,1.359,4.084l-10.603,10.608c-0.759,0.752-2.587,0.142-4.087-1.361L1007.561,58.615z"/>
		</g>
		<g>
			<path fill="none" stroke="#231815" stroke-miterlimit="10" d="M1170.445,173.729c0.684,0.683,1.354,1.119,1.5,0.97l2.09-2.088
				c0.148-0.149-0.286-0.823-0.971-1.506l-35.842-35.843l-2.624,2.625L1170.445,173.729z"/>
			<path fill="#231815" stroke="#231815" stroke-miterlimit="10" d="M1033.769,43.601c-1.038-1.034-1.453-2.293-0.937-2.812
				l7.293-7.295c0.518-0.519,1.777-0.099,2.814,0.936l95.685,95.686c1.03,1.035,1.455,2.293,0.937,2.811l-7.294,7.295
				c-0.524,0.52-1.781,0.099-2.813-0.935L1033.769,43.601z"/>
		</g>
		
			<text transform="matrix(1 0 0 1 1102.5234 140.5825)" fill="#595757" stroke="#FFFFFF" stroke-miterlimit="10" font-family="'Arial-BoldMT'" font-size="72.0295">T</text>
		<rect x="957.344" y="0.31" fill="none" stroke="#000000" stroke-miterlimit="10" width="318.525" height="368.484"/>
	</g>
</g>
<g id="PVC" display="none">
	<g display="inline">
		<text transform="matrix(1 0 0 1 1335.042 333.3662)" fill="#231815" font-family="'MicrosoftYaHei'" font-size="41.1597">PVC線系列</text>
		<path fill="none" stroke="#231815" stroke-width="2" stroke-miterlimit="10" d="M1528.957,241.979
			c0.991,0.998,2.146,1.454,2.573,1.018l6.077-6.075c0.428-0.429-0.026-1.581-1.021-2.572l-52.104-52.11l-7.638,7.635
			L1528.957,241.979z"/>
		<path fill="#231815" d="M1327.929,59.986c-1.507-1.508-1.5-3.945,0-5.448l21.217-21.218c1.507-1.505,3.945-1.506,5.445,0
			l139.108,139.107c1.502,1.503,1.502,3.942,0,5.446l-21.217,21.217c-1.507,1.503-3.943,1.507-5.445,0L1327.929,59.986z"/>
		
			<text transform="matrix(1 0 0 1 1426.2578 140.5825)" fill="#595757" stroke="#FFFFFF" stroke-miterlimit="10" font-family="'Arial-BoldMT'" font-size="72.0295">P</text>
		<rect x="1277.069" y="0.31" fill="none" stroke="#000000" stroke-miterlimit="10" width="318.525" height="368.484"/>
	</g>
</g>
<g id="XLPE" display="none">
	<g display="inline">
		<text transform="matrix(1 0 0 1 1645.5264 333.3643)" fill="#231815" font-family="'MicrosoftYaHei'" font-size="41.1597">XLPE線系列</text>
		<path fill="none" stroke="#231815" stroke-width="2" stroke-miterlimit="10" d="M1846.297,241.979
			c0.992,0.998,2.152,1.448,2.58,1.018l6.074-6.067c0.431-0.437-0.024-1.589-1.018-2.58l-52.104-52.111l-7.638,7.636
			L1846.297,241.979z"/>
		<path fill="#231815" d="M1645.275,59.986c-1.508-1.508-1.508-3.945-0.008-5.447l21.225-21.22c1.499-1.504,3.938-1.505,5.445,0.001
			l139.103,139.107c1.508,1.503,1.508,3.94,0.006,5.442l-21.222,21.221c-1.502,1.503-3.941,1.507-5.448,0L1645.275,59.986z"/>
		
			<text transform="matrix(1 0 0 1 1752.4297 140.5825)" fill="#595757" stroke="#FFFFFF" stroke-miterlimit="10" font-family="'Arial-BoldMT'" font-size="72.0295">XL</text>
		<rect x="1595.595" y="0.471" fill="none" stroke="#000000" stroke-miterlimit="10" width="318.524" height="368.484"/>
	</g>
</g>
<g id="TC" display="none">
	<g display="inline">
		<text transform="matrix(1 0 0 1 1950.793 333.3643)" fill="#231815" font-family="'MicrosoftYaHei'" font-size="41.1597">補償島線系列</text>
		<path fill="#231815" d="M2169.131,235.413c0.99,0.993,2.149,1.447,2.579,1.019l6.076-6.076c0.429-0.429-0.028-1.581-1.018-2.579
			l-52.107-52.106l-7.637,7.637L2169.131,235.413z"/>
		<path fill="#231815" d="M2157.004,247.546c0.993,0.991,2.152,1.447,2.58,1.011l6.075-6.069c0.431-0.435-0.025-1.587-1.018-2.578
			l-52.104-52.111l-7.637,7.638L2157.004,247.546z"/>
		<path fill="#231815" d="M1955.763,60.913c-1.508-1.506-1.153-4.297,0.783-6.234l27.358-27.356
			c1.938-1.938,4.723-2.293,6.232-0.787l139.108,139.108c1.507,1.505,1.151,4.294-0.786,6.233l-27.359,27.354
			c-1.935,1.94-4.729,2.294-6.229,0.791L1955.763,60.913z"/>
		
			<text transform="matrix(1 0 0 1 2052.5967 140.5825)" fill="#595757" stroke="#FFFFFF" stroke-miterlimit="10" font-family="'Arial-BoldMT'" font-size="72.0295">TC</text>
		<rect x="1913.497" y="1.045" fill="none" stroke="#000000" stroke-miterlimit="10" width="318.524" height="368.486"/>
	</g>
</g>
<g id="套管" display="none">
	<g display="inline">
		<text transform="matrix(1 0 0 1 2316.2344 333.3643)" fill="#231815" font-family="'MicrosoftYaHei'" font-size="41.1597">套管系列</text>
		<path fill="none" stroke="#231815" stroke-width="2" stroke-miterlimit="10" d="M2309.867,68.751c-1.507-1.504-1.507-3.94,0-5.445
			l21.217-21.218c1.5-1.501,3.938-1.506,5.445,0l139.107,139.104c1.501,1.505,1.501,3.946,0,5.448l-21.224,21.215
			c-1.499,1.506-3.938,1.506-5.445,0.003L2309.867,68.751z"/>
		
			<text transform="matrix(1 0 0 1 2391.7314 140.5825)" fill="#595757" stroke="#FFFFFF" stroke-miterlimit="10" font-family="'Arial-BoldMT'" font-size="72.0295">U</text>
		<rect x="2233.221" y="1.045" fill="none" stroke="#000000" stroke-miterlimit="10" width="318.524" height="368.486"/>
	</g>
</g>
<g id="發熱線" display="none">
	<g display="inline">
		<text transform="matrix(1 0 0 1 2612.709 333.3662)" fill="#231815" font-family="'MicrosoftYaHei'" font-size="41.1597">發熱線系列</text>
		<path fill="none" stroke="#231815" stroke-miterlimit="10" d="M2801.76,243.914c0.991,0.993,2.372,1.227,3.074,0.522l9.955-9.954
			c0.696-0.703,0.47-2.077-0.529-3.075l-52.106-52.104l-12.507,12.506L2801.76,243.914z"/>
		<g>
			<defs>
				<path id="SVGID_7_" d="M2801.76,243.914c0.991,0.993,2.372,1.227,3.074,0.522l9.955-9.954c0.696-0.703,0.47-2.077-0.529-3.075
					l-52.106-52.104l-12.507,12.506L2801.76,243.914z"/>
			</defs>
			<clipPath id="SVGID_8_">
				<use xlink:href="#SVGID_7_"  overflow="visible"/>
			</clipPath>
			<g clip-path="url(#SVGID_8_)">
				<g>
					<path fill="none" stroke="#231815" stroke-width="2" stroke-miterlimit="10" d="M2734.881,431.987
						c60.828,60.827,156.453,63.649,213.798,6.311c57.345-57.352,54.525-152.977-6.304-213.804
						c-60.828-60.825-156.452-63.645-213.797-6.297C2671.232,275.534,2674.06,371.159,2734.881,431.987z"/>
					<path fill="none" stroke="#231815" stroke-width="2" stroke-miterlimit="10" d="M2740.831,230.45
						c50.959-50.967,135.933-48.463,189.993,5.594c54.057,54.061,56.562,139.034,5.602,190.001
						c-50.96,50.951-135.933,48.446-189.994-5.605C2692.376,366.376,2689.871,281.402,2740.831,230.45z"/>
					<path fill="none" stroke="#231815" stroke-width="2" stroke-miterlimit="10" d="M2757.934,408.942
						c47.283,47.283,121.716,49.473,166.294,4.905c44.583-44.584,42.384-119.011-4.904-166.302
						c-47.289-47.285-121.716-49.482-166.299-4.903C2708.453,287.219,2710.645,361.654,2757.934,408.942z"/>
					<path fill="none" stroke="#231815" stroke-width="2" stroke-miterlimit="10" d="M2765.276,254.896
						c38.253-38.247,101.928-36.372,142.498,4.2c40.57,40.567,42.451,104.245,4.201,142.498
						c-38.245,38.245-101.924,36.367-142.494-4.203C2728.906,356.823,2727.031,293.142,2765.276,254.896z"/>
					<path fill="none" stroke="#231815" stroke-width="2" stroke-miterlimit="10" d="M2780.979,385.891
						c33.806,33.798,86.941,35.363,118.795,3.503c31.869-31.868,30.303-84.998-3.496-118.804
						c-33.798-33.796-86.934-35.363-118.803-3.496C2745.613,298.955,2747.181,352.092,2780.979,385.891z"/>
					<path fill="none" stroke="#231815" stroke-width="2" stroke-miterlimit="10" d="M2789.728,279.347
						c25.483-25.483,67.969-24.231,95.002,2.8c27.022,27.025,28.276,69.518,2.8,95.001c-25.477,25.47-67.97,24.225-95-2.807
						C2765.504,347.312,2764.252,304.823,2789.728,279.347z"/>
					<path fill="none" stroke="#231815" stroke-width="2" stroke-miterlimit="10" d="M2804.03,362.838
						c20.259,20.258,52.201,21.212,71.3,2.112c19.1-19.102,18.154-51.049-2.104-71.308c-20.258-20.258-52.198-21.201-71.305-2.102
						C2782.829,310.64,2783.773,342.579,2804.03,362.838z"/>
					<path fill="none" stroke="#231815" stroke-width="2" stroke-miterlimit="10" d="M2814.173,303.793
						c12.77-12.77,33.964-12.139,47.504,1.398c13.54,13.547,14.168,34.737,1.401,47.504c-12.762,12.764-33.951,12.139-47.498-1.406
						C2802.041,337.748,2801.412,316.555,2814.173,303.793z"/>
					<path fill="none" stroke="#231815" stroke-width="2" stroke-miterlimit="10" d="M2827.076,339.792
						c6.772,6.775,17.424,7.081,23.801,0.704c6.385-6.384,6.07-17.028-0.701-23.801c-6.768-6.772-17.42-7.088-23.804-0.705
						C2819.994,322.368,2820.303,333.021,2827.076,339.792z"/>
				</g>
			</g>
			<use xlink:href="#SVGID_7_"  overflow="visible" fill="none" stroke="#231815" stroke-width="2" stroke-miterlimit="10"/>
		</g>
		<path fill="none" stroke="#231815" stroke-width="2" stroke-miterlimit="10" d="M2600.744,57.057
			c-1.508-1.506-1.508-3.941,0-5.447l21.216-21.218c1.501-1.5,3.938-1.506,5.445,0l139.108,139.106c1.503,1.503,1.503,3.944,0,5.445
			l-21.216,21.218c-1.507,1.507-3.943,1.507-5.446,0.001L2600.744,57.057z"/>
		
			<text transform="matrix(1 0 0 1 2697.0615 140.5825)" fill="#595757" stroke="#FFFFFF" stroke-miterlimit="10" font-family="'Arial-BoldMT'" font-size="72.0295">HW</text>
		<rect x="2552.316" y="1.433" fill="none" stroke="#000000" stroke-miterlimit="10" width="318.525" height="368.486"/>
	</g>
</g>
<g id="特殊線" display="none">
	<g display="inline">
		<text transform="matrix(1 0 0 1 2925.2803 333.3643)" fill="#231815" font-family="'MicrosoftYaHei'" font-size="41.1597">特殊線系列</text>
		<g>
			<path fill="none" stroke="#231815" stroke-miterlimit="10" d="M2904.611,73.444c-1.166-1.163,0.142-4.351,2.901-7.112l38.997-39
				c2.768-2.761,5.947-4.06,7.105-2.897l107.544,107.539c1.159,1.163-0.137,4.346-2.9,7.107l-38.997,38.999
				c-2.76,2.763-5.949,4.066-7.115,2.904L2904.611,73.444z"/>
			<g>
				<defs>
					<path id="SVGID_9_" d="M2904.611,73.444c-1.166-1.163,0.142-4.351,2.901-7.112l38.997-39c2.768-2.761,5.947-4.06,7.105-2.897
						l107.544,107.539c1.159,1.163-0.137,4.346-2.9,7.107l-38.997,38.999c-2.76,2.763-5.949,4.066-7.115,2.904L2904.611,73.444z"/>
				</defs>
				<clipPath id="SVGID_10_">
					<use xlink:href="#SVGID_9_"  overflow="visible"/>
				</clipPath>
				<g clip-path="url(#SVGID_10_)">
					<polygon fill="none" stroke="#231815" stroke-width="2" stroke-miterlimit="10" points="3070.022,25.776 3070.027,183.333 
						2901.344,183.334 2901.336,25.778 					"/>
					
						<line fill="none" stroke="#231815" stroke-width="2" stroke-miterlimit="10" x1="2920.074" y1="25.773" x2="2920.074" y2="183.338"/>
					
						<line fill="none" stroke="#231815" stroke-width="2" stroke-miterlimit="10" x1="2938.817" y1="25.776" x2="2938.81" y2="183.336"/>
					
						<line fill="none" stroke="#231815" stroke-width="2" stroke-miterlimit="10" x1="2957.557" y1="25.773" x2="2957.557" y2="183.338"/>
					
						<line fill="none" stroke="#231815" stroke-width="2" stroke-miterlimit="10" x1="2976.292" y1="25.773" x2="2976.292" y2="183.336"/>
					
						<line fill="none" stroke="#231815" stroke-width="2" stroke-miterlimit="10" x1="2995.07" y1="25.773" x2="2995.07" y2="183.338"/>
					
						<line fill="none" stroke="#231815" stroke-width="2" stroke-miterlimit="10" x1="3013.81" y1="25.773" x2="3013.81" y2="183.334"/>
					
						<line fill="none" stroke="#231815" stroke-width="2" stroke-miterlimit="10" x1="3032.553" y1="25.773" x2="3032.545" y2="183.339"/>
					
						<line fill="none" stroke="#231815" stroke-width="2" stroke-miterlimit="10" x1="3051.283" y1="25.773" x2="3051.283" y2="183.333"/>
					
						<line fill="none" stroke="#231815" stroke-width="2" stroke-miterlimit="10" x1="3070.022" y1="165.832" x2="2901.336" y2="165.835"/>
					
						<line fill="none" stroke="#231815" stroke-width="2" stroke-miterlimit="10" x1="3070.022" y1="148.33" x2="2901.344" y2="148.328"/>
					
						<line fill="none" stroke="#231815" stroke-width="2" stroke-miterlimit="10" x1="3070.027" y1="130.826" x2="2901.336" y2="130.826"/>
					
						<line fill="none" stroke="#231815" stroke-width="2" stroke-miterlimit="10" x1="3070.022" y1="113.327" x2="2901.336" y2="113.328"/>
					
						<line fill="none" stroke="#231815" stroke-width="2" stroke-miterlimit="10" x1="3070.022" y1="95.788" x2="2901.336" y2="95.783"/>
					
						<line fill="none" stroke="#231815" stroke-width="2" stroke-miterlimit="10" x1="3070.022" y1="78.281" x2="2901.336" y2="78.285"/>
					
						<line fill="none" stroke="#231815" stroke-width="2" stroke-miterlimit="10" x1="3070.022" y1="60.782" x2="2901.344" y2="60.779"/>
					
						<line fill="none" stroke="#231815" stroke-width="2" stroke-miterlimit="10" x1="3070.022" y1="43.274" x2="2901.336" y2="43.276"/>
				</g>
				<use xlink:href="#SVGID_9_"  overflow="visible" fill="none" stroke="#231815" stroke-width="2" stroke-miterlimit="10"/>
			</g>
			<polygon fill="none" stroke="#231815" stroke-width="0.25" stroke-miterlimit="10" points="3033.766,162.413 3033.543,162.361 
				3033.59,162.587 			"/>
			<polygon fill="none" stroke="#231815" stroke-width="2" stroke-miterlimit="10" points="3034.909,174.956 3038.455,178.498 
				3037.825,175.584 			"/>
			<polygon fill="none" stroke="#231815" stroke-width="2" stroke-miterlimit="10" points="3037.703,175.028 3037.825,175.584 
				3038.381,175.706 			"/>
			<polygon fill="none" stroke="#231815" stroke-width="2" stroke-miterlimit="10" points="3051.968,178.644 3049.114,165.431 
				3035.413,162.47 3035.064,162.822 3037.703,175.028 3038.381,175.706 			"/>
			<polygon fill="none" stroke="#231815" stroke-width="2" stroke-miterlimit="10" points="3035.413,162.47 3034.972,162.372 
				3035.064,162.822 			"/>
			<polygon fill="none" stroke="#231815" stroke-width="2" stroke-miterlimit="10" points="3049.114,165.431 3047.553,158.208 
				3043.613,154.271 3035.413,162.47 			"/>
			<polygon fill="none" stroke="#231815" stroke-width="2" stroke-miterlimit="10" points="3056.333,166.99 3047.553,158.208 
				3049.114,165.431 			"/>
			<polygon fill="none" stroke="#231815" stroke-width="2" stroke-miterlimit="10" points="3054.453,191.776 3050.981,191.024 
				3055.659,195.699 3054.908,192.229 			"/>
			<polygon fill="none" stroke="#231815" stroke-width="2" stroke-miterlimit="10" points="3054.908,192.229 3055.659,195.699 
				3067.055,207.095 3070.523,207.849 			"/>
			<path fill="none" stroke="#231815" stroke-width="2" stroke-miterlimit="10" d="M3095.558,213.259l2.023-2.021
				c0.048-0.048,0.055-0.129,0.095-0.182l-2.192,2.189L3095.558,213.259z"/>
			<polygon fill="none" stroke="#231815" stroke-width="2" stroke-miterlimit="10" points="3094.278,214.452 3094.319,214.492 
				3095.558,213.259 3095.483,213.245 			"/>
			<polygon fill="none" stroke="#231815" stroke-width="2" stroke-miterlimit="10" points="3088.036,220.695 3088.049,220.77 
				3090.508,218.311 3090.468,218.264 			"/>
			<path fill="none" stroke="#231815" stroke-width="2" stroke-miterlimit="10" d="M3096.751,207.406l-0.04-0.04
				c0.16,0.157,0.26,0.335,0.396,0.495C3096.986,207.715,3096.899,207.55,3096.751,207.406z"/>
			<path fill="none" stroke="#231815" stroke-width="2" stroke-miterlimit="10" d="M3087.07,221.659
				c-0.756,0.758-2.404,0.329-3.691-0.956l-11.268-11.27l0.75,3.472l9.198,9.196c1.287,1.287,3.002,1.655,3.825,0.824l2.164-2.156
				l-0.013-0.074L3087.07,221.659z"/>
			<polygon fill="none" stroke="#231815" stroke-width="2" stroke-miterlimit="10" points="3070.523,207.849 3067.055,207.095 
				3072.861,212.905 3072.111,209.434 			"/>
			<path fill="#FFFFFF" stroke="#231815" stroke-width="2" stroke-miterlimit="10" d="M3087.994,245.014
				c1.342,1.339,3.304,1.547,4.396,0.454c1.091-1.09,0.884-3.054-0.455-4.394l-67.562-67.563l-3.941,3.942L3087.994,245.014z"/>
			<path fill="none" stroke="#231815" stroke-width="2" stroke-miterlimit="10" d="M3135.004,262.8
				c0.842,0.85,1.7,1.366,1.922,1.151l3.034-3.034c0.22-0.22-0.301-1.077-1.144-1.93l-44.497-44.495l-3.812,3.818L3135.004,262.8z"
				/>
			<polygon fill="none" stroke="#231815" stroke-width="2" stroke-miterlimit="10" points="3090.468,218.264 3090.508,218.311 
				3094.319,214.492 3094.278,214.452 			"/>
			<path fill="none" stroke="#231815" stroke-width="2" stroke-miterlimit="10" d="M3097.615,208.63
				c0.322,0.631,0.462,1.267,0.361,1.803C3098.098,209.924,3097.957,209.287,3097.615,208.63z"/>
			<path fill="none" stroke="#231815" stroke-width="2" stroke-miterlimit="10" d="M3097.676,211.056c0-0.007,0-0.015,0.012-0.02
				C3097.676,211.041,3097.676,211.049,3097.676,211.056L3097.676,211.056z"/>
			<polygon fill="none" stroke="#231815" stroke-width="2" stroke-miterlimit="10" points="3090.468,218.264 3094.278,214.452 
				3095.483,213.245 3085.979,211.183 3088.036,220.695 			"/>
			<polygon fill="none" stroke="#231815" stroke-width="2" stroke-miterlimit="10" points="3054.453,191.776 3054.908,192.229 
				3054.826,191.856 			"/>
			<polygon fill="none" stroke="#231815" stroke-width="2" stroke-miterlimit="10" points="3085.979,211.183 3083.117,197.973 
				3068.977,194.912 3071.831,208.13 			"/>
			<polygon fill="none" stroke="#231815" stroke-width="2" stroke-miterlimit="10" points="3068.977,194.912 3066.115,181.7 
				3051.968,178.644 3054.826,191.856 			"/>
			<polygon fill="none" stroke="#231815" stroke-width="2" stroke-miterlimit="10" points="3070.523,207.849 3072.111,209.434 
				3071.831,208.13 			"/>
			<polygon fill="none" stroke="#231815" stroke-width="2" stroke-miterlimit="10" points="3068.977,194.912 3083.117,197.973 
				3081.966,192.619 3072.406,183.058 3066.115,181.7 			"/>
			<polygon fill="none" stroke="#231815" stroke-width="2" stroke-miterlimit="10" points="3072.406,183.058 3064.757,175.413 
				3066.115,181.7 			"/>
			<polygon fill="none" stroke="#231815" stroke-width="2" stroke-miterlimit="10" points="3051.968,178.644 3066.115,181.7 
				3064.757,175.413 3056.333,166.99 3049.114,165.431 			"/>
			<polygon fill="none" stroke="#231815" stroke-width="2" stroke-miterlimit="10" points="3088.471,199.128 3081.966,192.619 
				3083.117,197.973 			"/>
			<path fill="none" stroke="#231815" stroke-width="2" stroke-miterlimit="10" d="M3085.979,211.183l9.505,2.063l2.192-2.189
				c0-0.007,0-0.015,0.012-0.02c0.155-0.161,0.234-0.376,0.289-0.604c0.101-0.536-0.039-1.172-0.361-1.803
				c-0.034-0.073-0.055-0.146-0.093-0.22c-0.108-0.19-0.274-0.368-0.416-0.549c-0.136-0.16-0.235-0.338-0.396-0.495l-8.24-8.238
				l-5.354-1.155L3085.979,211.183z"/>
			<path fill="none" stroke="#231815" stroke-width="2" stroke-miterlimit="10" d="M3118.062,217.319
				c0.683,0.683,1.358,1.119,1.507,0.972l2.084-2.09c0.152-0.148-0.283-0.824-0.967-1.508l-35.838-35.842l-2.627,2.626
				L3118.062,217.319z"/>
			<path fill="none" stroke="#231815" stroke-width="2" stroke-miterlimit="10" d="M3079.883,183.813l2.338-2.336l2.627-2.626
				l2.33-2.334c0.516-0.515,0.1-1.776-0.93-2.812l-31.039-31.032l-9.172,9.172l31.039,31.032
				C3078.106,183.912,3079.367,184.334,3079.883,183.813z"/>
		</g>
		<rect x="2870.842" y="1.355" fill="none" stroke="#000000" stroke-miterlimit="10" width="318.524" height="368.484"/>
	</g>
</g>
<g id="汽車花線" display="none">
	<g display="inline">
		<g>
			<path fill="none" stroke="#231815" stroke-width="2" stroke-miterlimit="10" d="M3436.152,241.979
				c0.99,0.998,2.142,1.448,2.578,1.018l6.069-6.067c0.429-0.437-0.021-1.589-1.018-2.58l-52.107-52.111l-7.637,7.636
				L3436.152,241.979z"/>
			<path fill="#231815" d="M3235.123,59.986c-1.507-1.508-1.502-3.945,0-5.447l21.222-21.22c1.499-1.504,3.94-1.505,5.44,0.001
				l139.107,139.107c1.501,1.503,1.501,3.942,0,5.442l-21.223,21.225c-1.501,1.499-3.939,1.503-5.439-0.004L3235.123,59.986z"/>
		</g>
		<text transform="matrix(1 0 0 1 3228.4023 333.3662)" fill="#231815" font-family="'MicrosoftYaHei'" font-size="41.1597">汽車花線系列</text>
		<rect x="3190.564" y="1.355" fill="none" stroke="#000000" stroke-miterlimit="10" width="318.527" height="368.484"/>
	</g>
</g>
<g id="軍規線" display="none">
	<g display="inline">
		<text transform="matrix(1 0 0 1 3563.4668 333.3662)" fill="#231815" font-family="'MicrosoftYaHei'" font-size="41.1597">軍規線系列</text>
		<g>
			<polygon fill="none" stroke="#231815" stroke-width="0.25" stroke-miterlimit="10" points="3689.754,183.805 3689.534,183.753 
				3689.581,183.979 			"/>
			<polygon fill="none" stroke="#231815" stroke-width="0.25" stroke-miterlimit="10" points="3691.402,183.862 3690.954,183.765 
				3691.054,184.214 			"/>
			<path fill="none" stroke="#231815" stroke-miterlimit="10" d="M3738.772,243.392c3.565-2.237,7.222-4.247,10.979-5.995
				l-5.996-5.989l-8.48,8.488L3738.772,243.392z"/>
			<path fill="none" stroke="#231815" stroke-miterlimit="10" d="M3746.676,251.298c3.679-2.164,7.465-4.041,11.344-5.635
				l-8.268-8.267c-3.758,1.748-7.414,3.758-10.979,5.995L3746.676,251.298z"/>
			<path fill="none" stroke="#231815" stroke-miterlimit="10" d="M3754.63,259.25c3.832-2.056,7.79-3.758,11.837-5.133l-8.447-8.454
				c-3.879,1.594-7.665,3.471-11.344,5.635L3754.63,259.25z"/>
			<path fill="none" stroke="#231815" stroke-miterlimit="10" d="M3762.775,267.396c4.053-1.914,8.24-3.402,12.516-4.462
				l-8.824-8.816c-4.047,1.375-8.005,3.077-11.837,5.133L3762.775,267.396z"/>
			<path fill="none" stroke="#231815" stroke-miterlimit="10" d="M3767.939,272.56c0.623,0.625,1.522,0.738,1.997,0.262l6.752-6.752
				c0.482-0.475,0.363-1.367-0.259-1.989l-1.139-1.146c-4.275,1.06-8.463,2.548-12.516,4.462L3767.939,272.56z"/>
			<path fill="#231815" d="M3732.32,242.843l2.955-2.947l8.48-8.488l2.963-2.954c1.018-1.018,1.085-2.619,0.141-3.558
				l-16.555-16.552l-0.039,0.04c-0.517,0.521-1.776,0.101-2.807-0.937l-31.031-31.032l-17.118,17.115l49.453,49.454
				C3729.709,243.928,3731.296,243.867,3732.32,242.843z"/>
			<path fill="none" stroke="#231815" stroke-miterlimit="10" d="M3761.777,215.985c0.588,0.584,1.166,0.965,1.292,0.831
				l1.802-1.795c0.129-0.128-0.246-0.71-0.835-1.301l-30.87-30.867l-2.259,2.259L3761.777,215.985z"/>
			<path fill="none" stroke="#231815" stroke-miterlimit="10" d="M3728.892,187.126l2.016-2.013l2.259-2.259l2.008-2.011
				c0.45-0.447,0.087-1.53-0.803-2.423l-19.978-19.975l-7.897,7.9l19.977,19.975
				C3727.364,187.211,3728.449,187.572,3728.892,187.126z"/>
			<path fill="#FFFFFF" stroke="#231815" stroke-miterlimit="10" d="M3735.953,262.311c1.339,1.339,3.301,1.542,4.393,0.454
				c1.092-1.091,0.885-3.061-0.454-4.4l-62.711-62.707l-3.938,3.941L3735.953,262.311z"/>
			<path fill="none" stroke="#231815" stroke-miterlimit="10" d="M3768.444,241.892c0.682,0.684,1.358,1.118,1.507,0.972l2.09-2.09
				c0.146-0.148-0.289-0.824-0.973-1.508l-35.839-35.843l-2.627,2.627L3768.444,241.892z"/>
			<path fill="none" stroke="#231815" stroke-miterlimit="10" d="M3732.603,206.05l2.627-2.627l2.33-2.333
				c0.523-0.521,0.101-1.78-0.932-2.812l-31.036-31.034l-8.188,8.193l32.901,32.906L3732.603,206.05z"/>
			<path fill="none" stroke="#231815" stroke-miterlimit="10" d="M3727.459,207.447c1.03,1.037,2.29,1.457,2.807,0.937l0.039-0.04
				l-32.901-32.906l-0.976,0.978L3727.459,207.447z"/>
			<path fill="#231815" d="M3532.9,84.51c-0.979-0.978,1.3-4.835,5.09-8.632l53.473-53.469c3.786-3.786,7.657-6.073,8.636-5.095
				l90.392,90.396c0.979,0.976-1.305,4.849-5.09,8.631l-53.473,53.469c-3.793,3.797-7.657,6.073-8.629,5.095L3532.9,84.51z"/>
			<path fill="none" stroke="#231815" stroke-miterlimit="10" d="M3668.137,202.376c1.159,1.162,4.347-0.138,7.106-2.899
				l39.004-39.002c2.761-2.759,4.06-5.947,2.894-7.108l-33.725-33.729l-49.01,49.011L3668.137,202.376z"/>
			<g>
				<defs>
					<path id="SVGID_11_" d="M3668.137,202.376c1.159,1.162,4.347-0.138,7.106-2.899l39.004-39.002
						c2.761-2.759,4.06-5.947,2.894-7.108l-33.725-33.729l-49.01,49.011L3668.137,202.376z"/>
				</defs>
				<clipPath id="SVGID_12_">
					<use xlink:href="#SVGID_11_"  overflow="visible"/>
				</clipPath>
				<g clip-path="url(#SVGID_12_)">
					<rect x="3557.324" y="47.171" fill="none" stroke="#231815" stroke-miterlimit="10" width="168.687" height="157.557"/>
					<line fill="none" stroke="#231815" stroke-miterlimit="10" x1="3576.063" y1="47.169" x2="3576.063" y2="204.729"/>
					<line fill="none" stroke="#231815" stroke-miterlimit="10" x1="3594.802" y1="47.169" x2="3594.802" y2="204.729"/>
					<line fill="none" stroke="#231815" stroke-miterlimit="10" x1="3613.545" y1="47.169" x2="3613.537" y2="204.729"/>
					<line fill="none" stroke="#231815" stroke-miterlimit="10" x1="3632.275" y1="47.165" x2="3632.275" y2="204.729"/>
					<line fill="none" stroke="#231815" stroke-miterlimit="10" x1="3651.061" y1="47.165" x2="3651.061" y2="204.729"/>
					<line fill="none" stroke="#231815" stroke-miterlimit="10" x1="3669.797" y1="47.169" x2="3669.79" y2="204.729"/>
					<line fill="none" stroke="#231815" stroke-miterlimit="10" x1="3688.536" y1="47.167" x2="3688.528" y2="204.729"/>
					<line fill="none" stroke="#231815" stroke-miterlimit="10" x1="3707.267" y1="47.167" x2="3707.272" y2="204.729"/>
					<line fill="none" stroke="#231815" stroke-miterlimit="10" x1="3726.011" y1="187.228" x2="3557.324" y2="187.228"/>
					<line fill="none" stroke="#231815" stroke-miterlimit="10" x1="3726.003" y1="169.723" x2="3557.324" y2="169.723"/>
					<line fill="none" stroke="#231815" stroke-miterlimit="10" x1="3726.011" y1="152.222" x2="3557.324" y2="152.222"/>
					<line fill="none" stroke="#231815" stroke-miterlimit="10" x1="3726.011" y1="134.719" x2="3557.324" y2="134.719"/>
					<line fill="none" stroke="#231815" stroke-miterlimit="10" x1="3726.003" y1="117.18" x2="3557.324" y2="117.18"/>
					<line fill="none" stroke="#231815" stroke-miterlimit="10" x1="3726.003" y1="99.677" x2="3557.324" y2="99.677"/>
					<line fill="none" stroke="#231815" stroke-miterlimit="10" x1="3726.011" y1="82.174" x2="3557.324" y2="82.174"/>
					<line fill="none" stroke="#231815" stroke-miterlimit="10" x1="3726.003" y1="64.671" x2="3557.324" y2="64.671"/>
				</g>
				<use xlink:href="#SVGID_11_"  overflow="visible" fill="none" stroke="#231815" stroke-miterlimit="10"/>
			</g>
		</g>
		<rect x="3509.092" y="1.516" fill="none" stroke="#000000" stroke-miterlimit="10" width="318.518" height="368.484"/>
	</g>
</g>
</svg>
